%TF.GenerationSoftware,KiCad,Pcbnew,9.0.7-9.0.7~ubuntu24.04.1*%
%TF.CreationDate,2026-02-19T19:33:50-05:00*%
%TF.ProjectId,plantPartner_PCB1.0,706c616e-7450-4617-9274-6e65725f5043,rev?*%
%TF.SameCoordinates,Original*%
%TF.FileFunction,Legend,Bot*%
%TF.FilePolarity,Positive*%
%FSLAX46Y46*%
G04 Gerber Fmt 4.6, Leading zero omitted, Abs format (unit mm)*
G04 Created by KiCad (PCBNEW 9.0.7-9.0.7~ubuntu24.04.1) date 2026-02-19 19:33:50*
%MOMM*%
%LPD*%
G01*
G04 APERTURE LIST*
G04 Aperture macros list*
%AMRoundRect*
0 Rectangle with rounded corners*
0 $1 Rounding radius*
0 $2 $3 $4 $5 $6 $7 $8 $9 X,Y pos of 4 corners*
0 Add a 4 corners polygon primitive as box body*
4,1,4,$2,$3,$4,$5,$6,$7,$8,$9,$2,$3,0*
0 Add four circle primitives for the rounded corners*
1,1,$1+$1,$2,$3*
1,1,$1+$1,$4,$5*
1,1,$1+$1,$6,$7*
1,1,$1+$1,$8,$9*
0 Add four rect primitives between the rounded corners*
20,1,$1+$1,$2,$3,$4,$5,0*
20,1,$1+$1,$4,$5,$6,$7,0*
20,1,$1+$1,$6,$7,$8,$9,0*
20,1,$1+$1,$8,$9,$2,$3,0*%
G04 Aperture macros list end*
%ADD10C,0.100000*%
%ADD11C,0.087500*%
%ADD12C,0.150000*%
%ADD13R,1.700000X1.700000*%
%ADD14C,1.700000*%
%ADD15C,3.200000*%
%ADD16RoundRect,0.250000X-1.050000X1.050000X-1.050000X-1.050000X1.050000X-1.050000X1.050000X1.050000X0*%
%ADD17C,2.600000*%
%ADD18RoundRect,0.250000X0.650000X0.650000X-0.650000X0.650000X-0.650000X-0.650000X0.650000X-0.650000X0*%
%ADD19C,1.800000*%
%ADD20RoundRect,0.102000X0.990000X-0.990000X0.990000X0.990000X-0.990000X0.990000X-0.990000X-0.990000X0*%
%ADD21C,2.184000*%
%ADD22C,2.139000*%
%ADD23RoundRect,0.250000X-1.050000X-1.050000X1.050000X-1.050000X1.050000X1.050000X-1.050000X1.050000X0*%
%ADD24C,3.000000*%
%ADD25RoundRect,0.102000X-1.000000X1.000000X-1.000000X-1.000000X1.000000X-1.000000X1.000000X1.000000X0*%
%ADD26C,2.204000*%
%ADD27RoundRect,0.250000X-0.650000X0.650000X-0.650000X-0.650000X0.650000X-0.650000X0.650000X0.650000X0*%
%ADD28RoundRect,0.102000X0.990000X0.990000X-0.990000X0.990000X-0.990000X-0.990000X0.990000X-0.990000X0*%
%ADD29R,1.300000X1.300000*%
%ADD30C,1.300000*%
%ADD31RoundRect,0.250000X1.050000X1.050000X-1.050000X1.050000X-1.050000X-1.050000X1.050000X-1.050000X0*%
%ADD32R,4.600000X2.000000*%
%ADD33O,4.200000X2.000000*%
%ADD34O,2.000000X4.200000*%
G04 APERTURE END LIST*
D10*
X82215000Y-63100000D02*
X121315000Y-63100000D01*
X121315000Y-85900000D01*
X82215000Y-85900000D01*
X82215000Y-63100000D01*
X172460000Y-99950000D02*
X194860000Y-99950000D01*
X194860000Y-113550000D01*
X172460000Y-113550000D01*
X172460000Y-99950000D01*
X199110000Y-56060000D02*
X225110000Y-56060000D01*
X225110000Y-106460000D01*
X199110000Y-106460000D01*
X199110000Y-56060000D01*
X82565000Y-88750000D02*
X132965000Y-88750000D01*
X132965000Y-114750000D01*
X82565000Y-114750000D01*
X82565000Y-88750000D01*
X216796115Y-93922419D02*
X216796115Y-94731942D01*
X216796115Y-94731942D02*
X216748496Y-94827180D01*
X216748496Y-94827180D02*
X216700877Y-94874800D01*
X216700877Y-94874800D02*
X216605639Y-94922419D01*
X216605639Y-94922419D02*
X216415163Y-94922419D01*
X216415163Y-94922419D02*
X216319925Y-94874800D01*
X216319925Y-94874800D02*
X216272306Y-94827180D01*
X216272306Y-94827180D02*
X216224687Y-94731942D01*
X216224687Y-94731942D02*
X216224687Y-93922419D01*
X215319925Y-94255752D02*
X215319925Y-94922419D01*
X215558020Y-93874800D02*
X215796115Y-94589085D01*
X215796115Y-94589085D02*
X215177068Y-94589085D01*
X208289449Y-93917657D02*
X208384687Y-93870038D01*
X208384687Y-93870038D02*
X208479925Y-93774800D01*
X208479925Y-93774800D02*
X208622782Y-93631942D01*
X208622782Y-93631942D02*
X208718020Y-93584323D01*
X208718020Y-93584323D02*
X208813258Y-93584323D01*
X208765639Y-93822419D02*
X208860877Y-93774800D01*
X208860877Y-93774800D02*
X208956115Y-93679561D01*
X208956115Y-93679561D02*
X209003734Y-93489085D01*
X209003734Y-93489085D02*
X209003734Y-93155752D01*
X209003734Y-93155752D02*
X208956115Y-92965276D01*
X208956115Y-92965276D02*
X208860877Y-92870038D01*
X208860877Y-92870038D02*
X208765639Y-92822419D01*
X208765639Y-92822419D02*
X208575163Y-92822419D01*
X208575163Y-92822419D02*
X208479925Y-92870038D01*
X208479925Y-92870038D02*
X208384687Y-92965276D01*
X208384687Y-92965276D02*
X208337068Y-93155752D01*
X208337068Y-93155752D02*
X208337068Y-93489085D01*
X208337068Y-93489085D02*
X208384687Y-93679561D01*
X208384687Y-93679561D02*
X208479925Y-93774800D01*
X208479925Y-93774800D02*
X208575163Y-93822419D01*
X208575163Y-93822419D02*
X208765639Y-93822419D01*
X207956115Y-92917657D02*
X207908496Y-92870038D01*
X207908496Y-92870038D02*
X207813258Y-92822419D01*
X207813258Y-92822419D02*
X207575163Y-92822419D01*
X207575163Y-92822419D02*
X207479925Y-92870038D01*
X207479925Y-92870038D02*
X207432306Y-92917657D01*
X207432306Y-92917657D02*
X207384687Y-93012895D01*
X207384687Y-93012895D02*
X207384687Y-93108133D01*
X207384687Y-93108133D02*
X207432306Y-93250990D01*
X207432306Y-93250990D02*
X208003734Y-93822419D01*
X208003734Y-93822419D02*
X207384687Y-93822419D01*
D11*
X172699101Y-99107354D02*
X172365768Y-99107354D01*
X172765768Y-99393069D02*
X172532435Y-98393069D01*
X172532435Y-98393069D02*
X172299101Y-99393069D01*
X172065768Y-99393069D02*
X172065768Y-98393069D01*
X172065768Y-98393069D02*
X171899101Y-98393069D01*
X171899101Y-98393069D02*
X171799101Y-98440688D01*
X171799101Y-98440688D02*
X171732435Y-98535926D01*
X171732435Y-98535926D02*
X171699101Y-98631164D01*
X171699101Y-98631164D02*
X171665768Y-98821640D01*
X171665768Y-98821640D02*
X171665768Y-98964497D01*
X171665768Y-98964497D02*
X171699101Y-99154973D01*
X171699101Y-99154973D02*
X171732435Y-99250211D01*
X171732435Y-99250211D02*
X171799101Y-99345450D01*
X171799101Y-99345450D02*
X171899101Y-99393069D01*
X171899101Y-99393069D02*
X172065768Y-99393069D01*
X171399101Y-98488307D02*
X171365768Y-98440688D01*
X171365768Y-98440688D02*
X171299101Y-98393069D01*
X171299101Y-98393069D02*
X171132435Y-98393069D01*
X171132435Y-98393069D02*
X171065768Y-98440688D01*
X171065768Y-98440688D02*
X171032435Y-98488307D01*
X171032435Y-98488307D02*
X170999101Y-98583545D01*
X170999101Y-98583545D02*
X170999101Y-98678783D01*
X170999101Y-98678783D02*
X171032435Y-98821640D01*
X171032435Y-98821640D02*
X171432435Y-99393069D01*
X171432435Y-99393069D02*
X170999101Y-99393069D01*
X170865768Y-99488307D02*
X170332434Y-99488307D01*
X170232435Y-98393069D02*
X169765768Y-98393069D01*
X169765768Y-98393069D02*
X170065768Y-99393069D01*
X168999101Y-99107354D02*
X168665768Y-99107354D01*
X169065768Y-99393069D02*
X168832435Y-98393069D01*
X168832435Y-98393069D02*
X168599101Y-99393069D01*
X168365768Y-99393069D02*
X168365768Y-98393069D01*
X168365768Y-98393069D02*
X168199101Y-98393069D01*
X168199101Y-98393069D02*
X168099101Y-98440688D01*
X168099101Y-98440688D02*
X168032435Y-98535926D01*
X168032435Y-98535926D02*
X167999101Y-98631164D01*
X167999101Y-98631164D02*
X167965768Y-98821640D01*
X167965768Y-98821640D02*
X167965768Y-98964497D01*
X167965768Y-98964497D02*
X167999101Y-99154973D01*
X167999101Y-99154973D02*
X168032435Y-99250211D01*
X168032435Y-99250211D02*
X168099101Y-99345450D01*
X168099101Y-99345450D02*
X168199101Y-99393069D01*
X168199101Y-99393069D02*
X168365768Y-99393069D01*
X167699101Y-98488307D02*
X167665768Y-98440688D01*
X167665768Y-98440688D02*
X167599101Y-98393069D01*
X167599101Y-98393069D02*
X167432435Y-98393069D01*
X167432435Y-98393069D02*
X167365768Y-98440688D01*
X167365768Y-98440688D02*
X167332435Y-98488307D01*
X167332435Y-98488307D02*
X167299101Y-98583545D01*
X167299101Y-98583545D02*
X167299101Y-98678783D01*
X167299101Y-98678783D02*
X167332435Y-98821640D01*
X167332435Y-98821640D02*
X167732435Y-99393069D01*
X167732435Y-99393069D02*
X167299101Y-99393069D01*
X167165768Y-99488307D02*
X166632434Y-99488307D01*
X166365768Y-98821640D02*
X166432435Y-98774021D01*
X166432435Y-98774021D02*
X166465768Y-98726402D01*
X166465768Y-98726402D02*
X166499101Y-98631164D01*
X166499101Y-98631164D02*
X166499101Y-98583545D01*
X166499101Y-98583545D02*
X166465768Y-98488307D01*
X166465768Y-98488307D02*
X166432435Y-98440688D01*
X166432435Y-98440688D02*
X166365768Y-98393069D01*
X166365768Y-98393069D02*
X166232435Y-98393069D01*
X166232435Y-98393069D02*
X166165768Y-98440688D01*
X166165768Y-98440688D02*
X166132435Y-98488307D01*
X166132435Y-98488307D02*
X166099101Y-98583545D01*
X166099101Y-98583545D02*
X166099101Y-98631164D01*
X166099101Y-98631164D02*
X166132435Y-98726402D01*
X166132435Y-98726402D02*
X166165768Y-98774021D01*
X166165768Y-98774021D02*
X166232435Y-98821640D01*
X166232435Y-98821640D02*
X166365768Y-98821640D01*
X166365768Y-98821640D02*
X166432435Y-98869259D01*
X166432435Y-98869259D02*
X166465768Y-98916878D01*
X166465768Y-98916878D02*
X166499101Y-99012116D01*
X166499101Y-99012116D02*
X166499101Y-99202592D01*
X166499101Y-99202592D02*
X166465768Y-99297830D01*
X166465768Y-99297830D02*
X166432435Y-99345450D01*
X166432435Y-99345450D02*
X166365768Y-99393069D01*
X166365768Y-99393069D02*
X166232435Y-99393069D01*
X166232435Y-99393069D02*
X166165768Y-99345450D01*
X166165768Y-99345450D02*
X166132435Y-99297830D01*
X166132435Y-99297830D02*
X166099101Y-99202592D01*
X166099101Y-99202592D02*
X166099101Y-99012116D01*
X166099101Y-99012116D02*
X166132435Y-98916878D01*
X166132435Y-98916878D02*
X166165768Y-98869259D01*
X166165768Y-98869259D02*
X166232435Y-98821640D01*
X165299101Y-99107354D02*
X164965768Y-99107354D01*
X165365768Y-99393069D02*
X165132435Y-98393069D01*
X165132435Y-98393069D02*
X164899101Y-99393069D01*
X164665768Y-99393069D02*
X164665768Y-98393069D01*
X164665768Y-98393069D02*
X164499101Y-98393069D01*
X164499101Y-98393069D02*
X164399101Y-98440688D01*
X164399101Y-98440688D02*
X164332435Y-98535926D01*
X164332435Y-98535926D02*
X164299101Y-98631164D01*
X164299101Y-98631164D02*
X164265768Y-98821640D01*
X164265768Y-98821640D02*
X164265768Y-98964497D01*
X164265768Y-98964497D02*
X164299101Y-99154973D01*
X164299101Y-99154973D02*
X164332435Y-99250211D01*
X164332435Y-99250211D02*
X164399101Y-99345450D01*
X164399101Y-99345450D02*
X164499101Y-99393069D01*
X164499101Y-99393069D02*
X164665768Y-99393069D01*
X163599101Y-99393069D02*
X163999101Y-99393069D01*
X163799101Y-99393069D02*
X163799101Y-98393069D01*
X163799101Y-98393069D02*
X163865768Y-98535926D01*
X163865768Y-98535926D02*
X163932435Y-98631164D01*
X163932435Y-98631164D02*
X163999101Y-98678783D01*
X163465768Y-99488307D02*
X162932434Y-99488307D01*
X162465768Y-98726402D02*
X162465768Y-99393069D01*
X162632435Y-98345450D02*
X162799101Y-99059735D01*
X162799101Y-99059735D02*
X162365768Y-99059735D01*
X161232435Y-99393069D02*
X161565768Y-99393069D01*
X161565768Y-99393069D02*
X161565768Y-98393069D01*
X161165768Y-99488307D02*
X160632434Y-99488307D01*
X160465768Y-99393069D02*
X160465768Y-98393069D01*
X160465768Y-98393069D02*
X160199101Y-98393069D01*
X160199101Y-98393069D02*
X160132435Y-98440688D01*
X160132435Y-98440688D02*
X160099101Y-98488307D01*
X160099101Y-98488307D02*
X160065768Y-98583545D01*
X160065768Y-98583545D02*
X160065768Y-98726402D01*
X160065768Y-98726402D02*
X160099101Y-98821640D01*
X160099101Y-98821640D02*
X160132435Y-98869259D01*
X160132435Y-98869259D02*
X160199101Y-98916878D01*
X160199101Y-98916878D02*
X160465768Y-98916878D01*
X159765768Y-99393069D02*
X159765768Y-98393069D01*
X159432435Y-99393069D02*
X159432435Y-98393069D01*
X159432435Y-98393069D02*
X159032435Y-99393069D01*
X159032435Y-99393069D02*
X159032435Y-98393069D01*
X104585768Y-70127830D02*
X104619101Y-70175450D01*
X104619101Y-70175450D02*
X104719101Y-70223069D01*
X104719101Y-70223069D02*
X104785768Y-70223069D01*
X104785768Y-70223069D02*
X104885768Y-70175450D01*
X104885768Y-70175450D02*
X104952435Y-70080211D01*
X104952435Y-70080211D02*
X104985768Y-69984973D01*
X104985768Y-69984973D02*
X105019101Y-69794497D01*
X105019101Y-69794497D02*
X105019101Y-69651640D01*
X105019101Y-69651640D02*
X104985768Y-69461164D01*
X104985768Y-69461164D02*
X104952435Y-69365926D01*
X104952435Y-69365926D02*
X104885768Y-69270688D01*
X104885768Y-69270688D02*
X104785768Y-69223069D01*
X104785768Y-69223069D02*
X104719101Y-69223069D01*
X104719101Y-69223069D02*
X104619101Y-69270688D01*
X104619101Y-69270688D02*
X104585768Y-69318307D01*
X104352435Y-69223069D02*
X103919101Y-69223069D01*
X103919101Y-69223069D02*
X104152435Y-69604021D01*
X104152435Y-69604021D02*
X104052435Y-69604021D01*
X104052435Y-69604021D02*
X103985768Y-69651640D01*
X103985768Y-69651640D02*
X103952435Y-69699259D01*
X103952435Y-69699259D02*
X103919101Y-69794497D01*
X103919101Y-69794497D02*
X103919101Y-70032592D01*
X103919101Y-70032592D02*
X103952435Y-70127830D01*
X103952435Y-70127830D02*
X103985768Y-70175450D01*
X103985768Y-70175450D02*
X104052435Y-70223069D01*
X104052435Y-70223069D02*
X104252435Y-70223069D01*
X104252435Y-70223069D02*
X104319101Y-70175450D01*
X104319101Y-70175450D02*
X104352435Y-70127830D01*
X110035768Y-67673069D02*
X110269101Y-67196878D01*
X110435768Y-67673069D02*
X110435768Y-66673069D01*
X110435768Y-66673069D02*
X110169101Y-66673069D01*
X110169101Y-66673069D02*
X110102435Y-66720688D01*
X110102435Y-66720688D02*
X110069101Y-66768307D01*
X110069101Y-66768307D02*
X110035768Y-66863545D01*
X110035768Y-66863545D02*
X110035768Y-67006402D01*
X110035768Y-67006402D02*
X110069101Y-67101640D01*
X110069101Y-67101640D02*
X110102435Y-67149259D01*
X110102435Y-67149259D02*
X110169101Y-67196878D01*
X110169101Y-67196878D02*
X110435768Y-67196878D01*
X109635768Y-67101640D02*
X109702435Y-67054021D01*
X109702435Y-67054021D02*
X109735768Y-67006402D01*
X109735768Y-67006402D02*
X109769101Y-66911164D01*
X109769101Y-66911164D02*
X109769101Y-66863545D01*
X109769101Y-66863545D02*
X109735768Y-66768307D01*
X109735768Y-66768307D02*
X109702435Y-66720688D01*
X109702435Y-66720688D02*
X109635768Y-66673069D01*
X109635768Y-66673069D02*
X109502435Y-66673069D01*
X109502435Y-66673069D02*
X109435768Y-66720688D01*
X109435768Y-66720688D02*
X109402435Y-66768307D01*
X109402435Y-66768307D02*
X109369101Y-66863545D01*
X109369101Y-66863545D02*
X109369101Y-66911164D01*
X109369101Y-66911164D02*
X109402435Y-67006402D01*
X109402435Y-67006402D02*
X109435768Y-67054021D01*
X109435768Y-67054021D02*
X109502435Y-67101640D01*
X109502435Y-67101640D02*
X109635768Y-67101640D01*
X109635768Y-67101640D02*
X109702435Y-67149259D01*
X109702435Y-67149259D02*
X109735768Y-67196878D01*
X109735768Y-67196878D02*
X109769101Y-67292116D01*
X109769101Y-67292116D02*
X109769101Y-67482592D01*
X109769101Y-67482592D02*
X109735768Y-67577830D01*
X109735768Y-67577830D02*
X109702435Y-67625450D01*
X109702435Y-67625450D02*
X109635768Y-67673069D01*
X109635768Y-67673069D02*
X109502435Y-67673069D01*
X109502435Y-67673069D02*
X109435768Y-67625450D01*
X109435768Y-67625450D02*
X109402435Y-67577830D01*
X109402435Y-67577830D02*
X109369101Y-67482592D01*
X109369101Y-67482592D02*
X109369101Y-67292116D01*
X109369101Y-67292116D02*
X109402435Y-67196878D01*
X109402435Y-67196878D02*
X109435768Y-67149259D01*
X109435768Y-67149259D02*
X109502435Y-67101640D01*
D10*
X119189449Y-105117657D02*
X119284687Y-105070038D01*
X119284687Y-105070038D02*
X119379925Y-104974800D01*
X119379925Y-104974800D02*
X119522782Y-104831942D01*
X119522782Y-104831942D02*
X119618020Y-104784323D01*
X119618020Y-104784323D02*
X119713258Y-104784323D01*
X119665639Y-105022419D02*
X119760877Y-104974800D01*
X119760877Y-104974800D02*
X119856115Y-104879561D01*
X119856115Y-104879561D02*
X119903734Y-104689085D01*
X119903734Y-104689085D02*
X119903734Y-104355752D01*
X119903734Y-104355752D02*
X119856115Y-104165276D01*
X119856115Y-104165276D02*
X119760877Y-104070038D01*
X119760877Y-104070038D02*
X119665639Y-104022419D01*
X119665639Y-104022419D02*
X119475163Y-104022419D01*
X119475163Y-104022419D02*
X119379925Y-104070038D01*
X119379925Y-104070038D02*
X119284687Y-104165276D01*
X119284687Y-104165276D02*
X119237068Y-104355752D01*
X119237068Y-104355752D02*
X119237068Y-104689085D01*
X119237068Y-104689085D02*
X119284687Y-104879561D01*
X119284687Y-104879561D02*
X119379925Y-104974800D01*
X119379925Y-104974800D02*
X119475163Y-105022419D01*
X119475163Y-105022419D02*
X119665639Y-105022419D01*
X118284687Y-105022419D02*
X118856115Y-105022419D01*
X118570401Y-105022419D02*
X118570401Y-104022419D01*
X118570401Y-104022419D02*
X118665639Y-104165276D01*
X118665639Y-104165276D02*
X118760877Y-104260514D01*
X118760877Y-104260514D02*
X118856115Y-104308133D01*
D11*
X133968069Y-79799999D02*
X133491878Y-79566666D01*
X133968069Y-79399999D02*
X132968069Y-79399999D01*
X132968069Y-79399999D02*
X132968069Y-79666666D01*
X132968069Y-79666666D02*
X133015688Y-79733333D01*
X133015688Y-79733333D02*
X133063307Y-79766666D01*
X133063307Y-79766666D02*
X133158545Y-79799999D01*
X133158545Y-79799999D02*
X133301402Y-79799999D01*
X133301402Y-79799999D02*
X133396640Y-79766666D01*
X133396640Y-79766666D02*
X133444259Y-79733333D01*
X133444259Y-79733333D02*
X133491878Y-79666666D01*
X133491878Y-79666666D02*
X133491878Y-79399999D01*
X133063307Y-80066666D02*
X133015688Y-80099999D01*
X133015688Y-80099999D02*
X132968069Y-80166666D01*
X132968069Y-80166666D02*
X132968069Y-80333333D01*
X132968069Y-80333333D02*
X133015688Y-80399999D01*
X133015688Y-80399999D02*
X133063307Y-80433333D01*
X133063307Y-80433333D02*
X133158545Y-80466666D01*
X133158545Y-80466666D02*
X133253783Y-80466666D01*
X133253783Y-80466666D02*
X133396640Y-80433333D01*
X133396640Y-80433333D02*
X133968069Y-80033333D01*
X133968069Y-80033333D02*
X133968069Y-80466666D01*
X132968069Y-81100000D02*
X132968069Y-80766666D01*
X132968069Y-80766666D02*
X133444259Y-80733333D01*
X133444259Y-80733333D02*
X133396640Y-80766666D01*
X133396640Y-80766666D02*
X133349021Y-80833333D01*
X133349021Y-80833333D02*
X133349021Y-81000000D01*
X133349021Y-81000000D02*
X133396640Y-81066666D01*
X133396640Y-81066666D02*
X133444259Y-81100000D01*
X133444259Y-81100000D02*
X133539497Y-81133333D01*
X133539497Y-81133333D02*
X133777592Y-81133333D01*
X133777592Y-81133333D02*
X133872830Y-81100000D01*
X133872830Y-81100000D02*
X133920450Y-81066666D01*
X133920450Y-81066666D02*
X133968069Y-81000000D01*
X133968069Y-81000000D02*
X133968069Y-80833333D01*
X133968069Y-80833333D02*
X133920450Y-80766666D01*
X133920450Y-80766666D02*
X133872830Y-80733333D01*
X115523069Y-72674231D02*
X115046878Y-72440898D01*
X115523069Y-72274231D02*
X114523069Y-72274231D01*
X114523069Y-72274231D02*
X114523069Y-72540898D01*
X114523069Y-72540898D02*
X114570688Y-72607565D01*
X114570688Y-72607565D02*
X114618307Y-72640898D01*
X114618307Y-72640898D02*
X114713545Y-72674231D01*
X114713545Y-72674231D02*
X114856402Y-72674231D01*
X114856402Y-72674231D02*
X114951640Y-72640898D01*
X114951640Y-72640898D02*
X114999259Y-72607565D01*
X114999259Y-72607565D02*
X115046878Y-72540898D01*
X115046878Y-72540898D02*
X115046878Y-72274231D01*
X114523069Y-73307565D02*
X114523069Y-72974231D01*
X114523069Y-72974231D02*
X114999259Y-72940898D01*
X114999259Y-72940898D02*
X114951640Y-72974231D01*
X114951640Y-72974231D02*
X114904021Y-73040898D01*
X114904021Y-73040898D02*
X114904021Y-73207565D01*
X114904021Y-73207565D02*
X114951640Y-73274231D01*
X114951640Y-73274231D02*
X114999259Y-73307565D01*
X114999259Y-73307565D02*
X115094497Y-73340898D01*
X115094497Y-73340898D02*
X115332592Y-73340898D01*
X115332592Y-73340898D02*
X115427830Y-73307565D01*
X115427830Y-73307565D02*
X115475450Y-73274231D01*
X115475450Y-73274231D02*
X115523069Y-73207565D01*
X115523069Y-73207565D02*
X115523069Y-73040898D01*
X115523069Y-73040898D02*
X115475450Y-72974231D01*
X115475450Y-72974231D02*
X115427830Y-72940898D01*
X163549101Y-61915450D02*
X163449101Y-61963069D01*
X163449101Y-61963069D02*
X163282435Y-61963069D01*
X163282435Y-61963069D02*
X163215768Y-61915450D01*
X163215768Y-61915450D02*
X163182435Y-61867830D01*
X163182435Y-61867830D02*
X163149101Y-61772592D01*
X163149101Y-61772592D02*
X163149101Y-61677354D01*
X163149101Y-61677354D02*
X163182435Y-61582116D01*
X163182435Y-61582116D02*
X163215768Y-61534497D01*
X163215768Y-61534497D02*
X163282435Y-61486878D01*
X163282435Y-61486878D02*
X163415768Y-61439259D01*
X163415768Y-61439259D02*
X163482435Y-61391640D01*
X163482435Y-61391640D02*
X163515768Y-61344021D01*
X163515768Y-61344021D02*
X163549101Y-61248783D01*
X163549101Y-61248783D02*
X163549101Y-61153545D01*
X163549101Y-61153545D02*
X163515768Y-61058307D01*
X163515768Y-61058307D02*
X163482435Y-61010688D01*
X163482435Y-61010688D02*
X163415768Y-60963069D01*
X163415768Y-60963069D02*
X163249101Y-60963069D01*
X163249101Y-60963069D02*
X163149101Y-61010688D01*
X162449101Y-61867830D02*
X162482434Y-61915450D01*
X162482434Y-61915450D02*
X162582434Y-61963069D01*
X162582434Y-61963069D02*
X162649101Y-61963069D01*
X162649101Y-61963069D02*
X162749101Y-61915450D01*
X162749101Y-61915450D02*
X162815768Y-61820211D01*
X162815768Y-61820211D02*
X162849101Y-61724973D01*
X162849101Y-61724973D02*
X162882434Y-61534497D01*
X162882434Y-61534497D02*
X162882434Y-61391640D01*
X162882434Y-61391640D02*
X162849101Y-61201164D01*
X162849101Y-61201164D02*
X162815768Y-61105926D01*
X162815768Y-61105926D02*
X162749101Y-61010688D01*
X162749101Y-61010688D02*
X162649101Y-60963069D01*
X162649101Y-60963069D02*
X162582434Y-60963069D01*
X162582434Y-60963069D02*
X162482434Y-61010688D01*
X162482434Y-61010688D02*
X162449101Y-61058307D01*
X162149101Y-61963069D02*
X162149101Y-60963069D01*
X161749101Y-61963069D02*
X162049101Y-61391640D01*
X161749101Y-60963069D02*
X162149101Y-61534497D01*
X160915768Y-61963069D02*
X160915768Y-60963069D01*
X160915768Y-60963069D02*
X160682435Y-61677354D01*
X160682435Y-61677354D02*
X160449101Y-60963069D01*
X160449101Y-60963069D02*
X160449101Y-61963069D01*
X160115768Y-61963069D02*
X160115768Y-60963069D01*
X159815768Y-61915450D02*
X159715768Y-61963069D01*
X159715768Y-61963069D02*
X159549102Y-61963069D01*
X159549102Y-61963069D02*
X159482435Y-61915450D01*
X159482435Y-61915450D02*
X159449102Y-61867830D01*
X159449102Y-61867830D02*
X159415768Y-61772592D01*
X159415768Y-61772592D02*
X159415768Y-61677354D01*
X159415768Y-61677354D02*
X159449102Y-61582116D01*
X159449102Y-61582116D02*
X159482435Y-61534497D01*
X159482435Y-61534497D02*
X159549102Y-61486878D01*
X159549102Y-61486878D02*
X159682435Y-61439259D01*
X159682435Y-61439259D02*
X159749102Y-61391640D01*
X159749102Y-61391640D02*
X159782435Y-61344021D01*
X159782435Y-61344021D02*
X159815768Y-61248783D01*
X159815768Y-61248783D02*
X159815768Y-61153545D01*
X159815768Y-61153545D02*
X159782435Y-61058307D01*
X159782435Y-61058307D02*
X159749102Y-61010688D01*
X159749102Y-61010688D02*
X159682435Y-60963069D01*
X159682435Y-60963069D02*
X159515768Y-60963069D01*
X159515768Y-60963069D02*
X159415768Y-61010688D01*
X158982435Y-60963069D02*
X158849101Y-60963069D01*
X158849101Y-60963069D02*
X158782435Y-61010688D01*
X158782435Y-61010688D02*
X158715768Y-61105926D01*
X158715768Y-61105926D02*
X158682435Y-61296402D01*
X158682435Y-61296402D02*
X158682435Y-61629735D01*
X158682435Y-61629735D02*
X158715768Y-61820211D01*
X158715768Y-61820211D02*
X158782435Y-61915450D01*
X158782435Y-61915450D02*
X158849101Y-61963069D01*
X158849101Y-61963069D02*
X158982435Y-61963069D01*
X158982435Y-61963069D02*
X159049101Y-61915450D01*
X159049101Y-61915450D02*
X159115768Y-61820211D01*
X159115768Y-61820211D02*
X159149101Y-61629735D01*
X159149101Y-61629735D02*
X159149101Y-61296402D01*
X159149101Y-61296402D02*
X159115768Y-61105926D01*
X159115768Y-61105926D02*
X159049101Y-61010688D01*
X159049101Y-61010688D02*
X158982435Y-60963069D01*
X157849102Y-61963069D02*
X157849102Y-60963069D01*
X157849102Y-60963069D02*
X157615769Y-61677354D01*
X157615769Y-61677354D02*
X157382435Y-60963069D01*
X157382435Y-60963069D02*
X157382435Y-61963069D01*
X156915769Y-60963069D02*
X156782435Y-60963069D01*
X156782435Y-60963069D02*
X156715769Y-61010688D01*
X156715769Y-61010688D02*
X156649102Y-61105926D01*
X156649102Y-61105926D02*
X156615769Y-61296402D01*
X156615769Y-61296402D02*
X156615769Y-61629735D01*
X156615769Y-61629735D02*
X156649102Y-61820211D01*
X156649102Y-61820211D02*
X156715769Y-61915450D01*
X156715769Y-61915450D02*
X156782435Y-61963069D01*
X156782435Y-61963069D02*
X156915769Y-61963069D01*
X156915769Y-61963069D02*
X156982435Y-61915450D01*
X156982435Y-61915450D02*
X157049102Y-61820211D01*
X157049102Y-61820211D02*
X157082435Y-61629735D01*
X157082435Y-61629735D02*
X157082435Y-61296402D01*
X157082435Y-61296402D02*
X157049102Y-61105926D01*
X157049102Y-61105926D02*
X156982435Y-61010688D01*
X156982435Y-61010688D02*
X156915769Y-60963069D01*
X156349102Y-61915450D02*
X156249102Y-61963069D01*
X156249102Y-61963069D02*
X156082436Y-61963069D01*
X156082436Y-61963069D02*
X156015769Y-61915450D01*
X156015769Y-61915450D02*
X155982436Y-61867830D01*
X155982436Y-61867830D02*
X155949102Y-61772592D01*
X155949102Y-61772592D02*
X155949102Y-61677354D01*
X155949102Y-61677354D02*
X155982436Y-61582116D01*
X155982436Y-61582116D02*
X156015769Y-61534497D01*
X156015769Y-61534497D02*
X156082436Y-61486878D01*
X156082436Y-61486878D02*
X156215769Y-61439259D01*
X156215769Y-61439259D02*
X156282436Y-61391640D01*
X156282436Y-61391640D02*
X156315769Y-61344021D01*
X156315769Y-61344021D02*
X156349102Y-61248783D01*
X156349102Y-61248783D02*
X156349102Y-61153545D01*
X156349102Y-61153545D02*
X156315769Y-61058307D01*
X156315769Y-61058307D02*
X156282436Y-61010688D01*
X156282436Y-61010688D02*
X156215769Y-60963069D01*
X156215769Y-60963069D02*
X156049102Y-60963069D01*
X156049102Y-60963069D02*
X155949102Y-61010688D01*
X155649102Y-61963069D02*
X155649102Y-60963069D01*
X154882436Y-60963069D02*
X154482436Y-60963069D01*
X154682436Y-61963069D02*
X154682436Y-60963069D01*
X154315770Y-60963069D02*
X153849103Y-61963069D01*
X153849103Y-60963069D02*
X154315770Y-61963069D01*
X153449103Y-60963069D02*
X153382436Y-60963069D01*
X153382436Y-60963069D02*
X153315769Y-61010688D01*
X153315769Y-61010688D02*
X153282436Y-61058307D01*
X153282436Y-61058307D02*
X153249103Y-61153545D01*
X153249103Y-61153545D02*
X153215769Y-61344021D01*
X153215769Y-61344021D02*
X153215769Y-61582116D01*
X153215769Y-61582116D02*
X153249103Y-61772592D01*
X153249103Y-61772592D02*
X153282436Y-61867830D01*
X153282436Y-61867830D02*
X153315769Y-61915450D01*
X153315769Y-61915450D02*
X153382436Y-61963069D01*
X153382436Y-61963069D02*
X153449103Y-61963069D01*
X153449103Y-61963069D02*
X153515769Y-61915450D01*
X153515769Y-61915450D02*
X153549103Y-61867830D01*
X153549103Y-61867830D02*
X153582436Y-61772592D01*
X153582436Y-61772592D02*
X153615769Y-61582116D01*
X153615769Y-61582116D02*
X153615769Y-61344021D01*
X153615769Y-61344021D02*
X153582436Y-61153545D01*
X153582436Y-61153545D02*
X153549103Y-61058307D01*
X153549103Y-61058307D02*
X153515769Y-61010688D01*
X153515769Y-61010688D02*
X153449103Y-60963069D01*
X164715768Y-54153069D02*
X164482435Y-55153069D01*
X164482435Y-55153069D02*
X164249101Y-54153069D01*
X164049101Y-55105450D02*
X163949101Y-55153069D01*
X163949101Y-55153069D02*
X163782435Y-55153069D01*
X163782435Y-55153069D02*
X163715768Y-55105450D01*
X163715768Y-55105450D02*
X163682435Y-55057830D01*
X163682435Y-55057830D02*
X163649101Y-54962592D01*
X163649101Y-54962592D02*
X163649101Y-54867354D01*
X163649101Y-54867354D02*
X163682435Y-54772116D01*
X163682435Y-54772116D02*
X163715768Y-54724497D01*
X163715768Y-54724497D02*
X163782435Y-54676878D01*
X163782435Y-54676878D02*
X163915768Y-54629259D01*
X163915768Y-54629259D02*
X163982435Y-54581640D01*
X163982435Y-54581640D02*
X164015768Y-54534021D01*
X164015768Y-54534021D02*
X164049101Y-54438783D01*
X164049101Y-54438783D02*
X164049101Y-54343545D01*
X164049101Y-54343545D02*
X164015768Y-54248307D01*
X164015768Y-54248307D02*
X163982435Y-54200688D01*
X163982435Y-54200688D02*
X163915768Y-54153069D01*
X163915768Y-54153069D02*
X163749101Y-54153069D01*
X163749101Y-54153069D02*
X163649101Y-54200688D01*
X163349101Y-55153069D02*
X163349101Y-54153069D01*
X163349101Y-54153069D02*
X163082434Y-54153069D01*
X163082434Y-54153069D02*
X163015768Y-54200688D01*
X163015768Y-54200688D02*
X162982434Y-54248307D01*
X162982434Y-54248307D02*
X162949101Y-54343545D01*
X162949101Y-54343545D02*
X162949101Y-54486402D01*
X162949101Y-54486402D02*
X162982434Y-54581640D01*
X162982434Y-54581640D02*
X163015768Y-54629259D01*
X163015768Y-54629259D02*
X163082434Y-54676878D01*
X163082434Y-54676878D02*
X163349101Y-54676878D01*
X162649101Y-55153069D02*
X162649101Y-54153069D01*
X162482435Y-55248307D02*
X161949101Y-55248307D01*
X161382435Y-55057830D02*
X161415768Y-55105450D01*
X161415768Y-55105450D02*
X161515768Y-55153069D01*
X161515768Y-55153069D02*
X161582435Y-55153069D01*
X161582435Y-55153069D02*
X161682435Y-55105450D01*
X161682435Y-55105450D02*
X161749102Y-55010211D01*
X161749102Y-55010211D02*
X161782435Y-54914973D01*
X161782435Y-54914973D02*
X161815768Y-54724497D01*
X161815768Y-54724497D02*
X161815768Y-54581640D01*
X161815768Y-54581640D02*
X161782435Y-54391164D01*
X161782435Y-54391164D02*
X161749102Y-54295926D01*
X161749102Y-54295926D02*
X161682435Y-54200688D01*
X161682435Y-54200688D02*
X161582435Y-54153069D01*
X161582435Y-54153069D02*
X161515768Y-54153069D01*
X161515768Y-54153069D02*
X161415768Y-54200688D01*
X161415768Y-54200688D02*
X161382435Y-54248307D01*
X161115768Y-55105450D02*
X161015768Y-55153069D01*
X161015768Y-55153069D02*
X160849102Y-55153069D01*
X160849102Y-55153069D02*
X160782435Y-55105450D01*
X160782435Y-55105450D02*
X160749102Y-55057830D01*
X160749102Y-55057830D02*
X160715768Y-54962592D01*
X160715768Y-54962592D02*
X160715768Y-54867354D01*
X160715768Y-54867354D02*
X160749102Y-54772116D01*
X160749102Y-54772116D02*
X160782435Y-54724497D01*
X160782435Y-54724497D02*
X160849102Y-54676878D01*
X160849102Y-54676878D02*
X160982435Y-54629259D01*
X160982435Y-54629259D02*
X161049102Y-54581640D01*
X161049102Y-54581640D02*
X161082435Y-54534021D01*
X161082435Y-54534021D02*
X161115768Y-54438783D01*
X161115768Y-54438783D02*
X161115768Y-54343545D01*
X161115768Y-54343545D02*
X161082435Y-54248307D01*
X161082435Y-54248307D02*
X161049102Y-54200688D01*
X161049102Y-54200688D02*
X160982435Y-54153069D01*
X160982435Y-54153069D02*
X160815768Y-54153069D01*
X160815768Y-54153069D02*
X160715768Y-54200688D01*
X159515768Y-54200688D02*
X159582435Y-54153069D01*
X159582435Y-54153069D02*
X159682435Y-54153069D01*
X159682435Y-54153069D02*
X159782435Y-54200688D01*
X159782435Y-54200688D02*
X159849102Y-54295926D01*
X159849102Y-54295926D02*
X159882435Y-54391164D01*
X159882435Y-54391164D02*
X159915768Y-54581640D01*
X159915768Y-54581640D02*
X159915768Y-54724497D01*
X159915768Y-54724497D02*
X159882435Y-54914973D01*
X159882435Y-54914973D02*
X159849102Y-55010211D01*
X159849102Y-55010211D02*
X159782435Y-55105450D01*
X159782435Y-55105450D02*
X159682435Y-55153069D01*
X159682435Y-55153069D02*
X159615768Y-55153069D01*
X159615768Y-55153069D02*
X159515768Y-55105450D01*
X159515768Y-55105450D02*
X159482435Y-55057830D01*
X159482435Y-55057830D02*
X159482435Y-54724497D01*
X159482435Y-54724497D02*
X159615768Y-54724497D01*
X159182435Y-55153069D02*
X159182435Y-54153069D01*
X159182435Y-54153069D02*
X158782435Y-55153069D01*
X158782435Y-55153069D02*
X158782435Y-54153069D01*
X158449102Y-55153069D02*
X158449102Y-54153069D01*
X158449102Y-54153069D02*
X158282435Y-54153069D01*
X158282435Y-54153069D02*
X158182435Y-54200688D01*
X158182435Y-54200688D02*
X158115769Y-54295926D01*
X158115769Y-54295926D02*
X158082435Y-54391164D01*
X158082435Y-54391164D02*
X158049102Y-54581640D01*
X158049102Y-54581640D02*
X158049102Y-54724497D01*
X158049102Y-54724497D02*
X158082435Y-54914973D01*
X158082435Y-54914973D02*
X158115769Y-55010211D01*
X158115769Y-55010211D02*
X158182435Y-55105450D01*
X158182435Y-55105450D02*
X158282435Y-55153069D01*
X158282435Y-55153069D02*
X158449102Y-55153069D01*
X157249102Y-55105450D02*
X157149102Y-55153069D01*
X157149102Y-55153069D02*
X156982436Y-55153069D01*
X156982436Y-55153069D02*
X156915769Y-55105450D01*
X156915769Y-55105450D02*
X156882436Y-55057830D01*
X156882436Y-55057830D02*
X156849102Y-54962592D01*
X156849102Y-54962592D02*
X156849102Y-54867354D01*
X156849102Y-54867354D02*
X156882436Y-54772116D01*
X156882436Y-54772116D02*
X156915769Y-54724497D01*
X156915769Y-54724497D02*
X156982436Y-54676878D01*
X156982436Y-54676878D02*
X157115769Y-54629259D01*
X157115769Y-54629259D02*
X157182436Y-54581640D01*
X157182436Y-54581640D02*
X157215769Y-54534021D01*
X157215769Y-54534021D02*
X157249102Y-54438783D01*
X157249102Y-54438783D02*
X157249102Y-54343545D01*
X157249102Y-54343545D02*
X157215769Y-54248307D01*
X157215769Y-54248307D02*
X157182436Y-54200688D01*
X157182436Y-54200688D02*
X157115769Y-54153069D01*
X157115769Y-54153069D02*
X156949102Y-54153069D01*
X156949102Y-54153069D02*
X156849102Y-54200688D01*
X156149102Y-55057830D02*
X156182435Y-55105450D01*
X156182435Y-55105450D02*
X156282435Y-55153069D01*
X156282435Y-55153069D02*
X156349102Y-55153069D01*
X156349102Y-55153069D02*
X156449102Y-55105450D01*
X156449102Y-55105450D02*
X156515769Y-55010211D01*
X156515769Y-55010211D02*
X156549102Y-54914973D01*
X156549102Y-54914973D02*
X156582435Y-54724497D01*
X156582435Y-54724497D02*
X156582435Y-54581640D01*
X156582435Y-54581640D02*
X156549102Y-54391164D01*
X156549102Y-54391164D02*
X156515769Y-54295926D01*
X156515769Y-54295926D02*
X156449102Y-54200688D01*
X156449102Y-54200688D02*
X156349102Y-54153069D01*
X156349102Y-54153069D02*
X156282435Y-54153069D01*
X156282435Y-54153069D02*
X156182435Y-54200688D01*
X156182435Y-54200688D02*
X156149102Y-54248307D01*
X155515769Y-55153069D02*
X155849102Y-55153069D01*
X155849102Y-55153069D02*
X155849102Y-54153069D01*
X154349102Y-55153069D02*
X154582435Y-54676878D01*
X154749102Y-55153069D02*
X154749102Y-54153069D01*
X154749102Y-54153069D02*
X154482435Y-54153069D01*
X154482435Y-54153069D02*
X154415769Y-54200688D01*
X154415769Y-54200688D02*
X154382435Y-54248307D01*
X154382435Y-54248307D02*
X154349102Y-54343545D01*
X154349102Y-54343545D02*
X154349102Y-54486402D01*
X154349102Y-54486402D02*
X154382435Y-54581640D01*
X154382435Y-54581640D02*
X154415769Y-54629259D01*
X154415769Y-54629259D02*
X154482435Y-54676878D01*
X154482435Y-54676878D02*
X154749102Y-54676878D01*
X154115769Y-54153069D02*
X153649102Y-55153069D01*
X153649102Y-54153069D02*
X154115769Y-55153069D01*
X153249102Y-54153069D02*
X153115768Y-54153069D01*
X153115768Y-54153069D02*
X153049102Y-54200688D01*
X153049102Y-54200688D02*
X152982435Y-54295926D01*
X152982435Y-54295926D02*
X152949102Y-54486402D01*
X152949102Y-54486402D02*
X152949102Y-54819735D01*
X152949102Y-54819735D02*
X152982435Y-55010211D01*
X152982435Y-55010211D02*
X153049102Y-55105450D01*
X153049102Y-55105450D02*
X153115768Y-55153069D01*
X153115768Y-55153069D02*
X153249102Y-55153069D01*
X153249102Y-55153069D02*
X153315768Y-55105450D01*
X153315768Y-55105450D02*
X153382435Y-55010211D01*
X153382435Y-55010211D02*
X153415768Y-54819735D01*
X153415768Y-54819735D02*
X153415768Y-54486402D01*
X153415768Y-54486402D02*
X153382435Y-54295926D01*
X153382435Y-54295926D02*
X153315768Y-54200688D01*
X153315768Y-54200688D02*
X153249102Y-54153069D01*
X114373069Y-70424231D02*
X113896878Y-70190898D01*
X114373069Y-70024231D02*
X113373069Y-70024231D01*
X113373069Y-70024231D02*
X113373069Y-70290898D01*
X113373069Y-70290898D02*
X113420688Y-70357565D01*
X113420688Y-70357565D02*
X113468307Y-70390898D01*
X113468307Y-70390898D02*
X113563545Y-70424231D01*
X113563545Y-70424231D02*
X113706402Y-70424231D01*
X113706402Y-70424231D02*
X113801640Y-70390898D01*
X113801640Y-70390898D02*
X113849259Y-70357565D01*
X113849259Y-70357565D02*
X113896878Y-70290898D01*
X113896878Y-70290898D02*
X113896878Y-70024231D01*
X113373069Y-70657565D02*
X113373069Y-71124231D01*
X113373069Y-71124231D02*
X114373069Y-70824231D01*
D10*
X205356115Y-96222419D02*
X205356115Y-95222419D01*
X205356115Y-95222419D02*
X205118020Y-95222419D01*
X205118020Y-95222419D02*
X204975163Y-95270038D01*
X204975163Y-95270038D02*
X204879925Y-95365276D01*
X204879925Y-95365276D02*
X204832306Y-95460514D01*
X204832306Y-95460514D02*
X204784687Y-95650990D01*
X204784687Y-95650990D02*
X204784687Y-95793847D01*
X204784687Y-95793847D02*
X204832306Y-95984323D01*
X204832306Y-95984323D02*
X204879925Y-96079561D01*
X204879925Y-96079561D02*
X204975163Y-96174800D01*
X204975163Y-96174800D02*
X205118020Y-96222419D01*
X205118020Y-96222419D02*
X205356115Y-96222419D01*
X204451353Y-95222419D02*
X203784687Y-95222419D01*
X203784687Y-95222419D02*
X204213258Y-96222419D01*
D11*
X114033069Y-75574231D02*
X113556878Y-75340898D01*
X114033069Y-75174231D02*
X113033069Y-75174231D01*
X113033069Y-75174231D02*
X113033069Y-75440898D01*
X113033069Y-75440898D02*
X113080688Y-75507565D01*
X113080688Y-75507565D02*
X113128307Y-75540898D01*
X113128307Y-75540898D02*
X113223545Y-75574231D01*
X113223545Y-75574231D02*
X113366402Y-75574231D01*
X113366402Y-75574231D02*
X113461640Y-75540898D01*
X113461640Y-75540898D02*
X113509259Y-75507565D01*
X113509259Y-75507565D02*
X113556878Y-75440898D01*
X113556878Y-75440898D02*
X113556878Y-75174231D01*
X113366402Y-76174231D02*
X114033069Y-76174231D01*
X112985450Y-76007565D02*
X113699735Y-75840898D01*
X113699735Y-75840898D02*
X113699735Y-76274231D01*
D10*
X210256115Y-80622419D02*
X210256115Y-79622419D01*
X209684687Y-80622419D02*
X210113258Y-80050990D01*
X209684687Y-79622419D02*
X210256115Y-80193847D01*
X209303734Y-79717657D02*
X209256115Y-79670038D01*
X209256115Y-79670038D02*
X209160877Y-79622419D01*
X209160877Y-79622419D02*
X208922782Y-79622419D01*
X208922782Y-79622419D02*
X208827544Y-79670038D01*
X208827544Y-79670038D02*
X208779925Y-79717657D01*
X208779925Y-79717657D02*
X208732306Y-79812895D01*
X208732306Y-79812895D02*
X208732306Y-79908133D01*
X208732306Y-79908133D02*
X208779925Y-80050990D01*
X208779925Y-80050990D02*
X209351353Y-80622419D01*
X209351353Y-80622419D02*
X208732306Y-80622419D01*
X120022782Y-56092587D02*
X120403734Y-56092587D01*
X120403734Y-56092587D02*
X120403734Y-55092587D01*
X119794211Y-56044968D02*
X119679925Y-56092587D01*
X119679925Y-56092587D02*
X119489449Y-56092587D01*
X119489449Y-56092587D02*
X119413258Y-56044968D01*
X119413258Y-56044968D02*
X119375163Y-55997348D01*
X119375163Y-55997348D02*
X119337068Y-55902110D01*
X119337068Y-55902110D02*
X119337068Y-55806872D01*
X119337068Y-55806872D02*
X119375163Y-55711634D01*
X119375163Y-55711634D02*
X119413258Y-55664015D01*
X119413258Y-55664015D02*
X119489449Y-55616396D01*
X119489449Y-55616396D02*
X119641830Y-55568777D01*
X119641830Y-55568777D02*
X119718020Y-55521158D01*
X119718020Y-55521158D02*
X119756115Y-55473539D01*
X119756115Y-55473539D02*
X119794211Y-55378301D01*
X119794211Y-55378301D02*
X119794211Y-55283063D01*
X119794211Y-55283063D02*
X119756115Y-55187825D01*
X119756115Y-55187825D02*
X119718020Y-55140206D01*
X119718020Y-55140206D02*
X119641830Y-55092587D01*
X119641830Y-55092587D02*
X119451353Y-55092587D01*
X119451353Y-55092587D02*
X119337068Y-55140206D01*
X118384686Y-55711634D02*
X117775163Y-55711634D01*
X116403734Y-56092587D02*
X116784686Y-56092587D01*
X116784686Y-56092587D02*
X116784686Y-55092587D01*
X116137067Y-56092587D02*
X116137067Y-55425920D01*
X116137067Y-55092587D02*
X116175163Y-55140206D01*
X116175163Y-55140206D02*
X116137067Y-55187825D01*
X116137067Y-55187825D02*
X116098972Y-55140206D01*
X116098972Y-55140206D02*
X116137067Y-55092587D01*
X116137067Y-55092587D02*
X116137067Y-55187825D01*
X115413258Y-55425920D02*
X115413258Y-56235444D01*
X115413258Y-56235444D02*
X115451353Y-56330682D01*
X115451353Y-56330682D02*
X115489449Y-56378301D01*
X115489449Y-56378301D02*
X115565639Y-56425920D01*
X115565639Y-56425920D02*
X115679925Y-56425920D01*
X115679925Y-56425920D02*
X115756115Y-56378301D01*
X115413258Y-56044968D02*
X115489449Y-56092587D01*
X115489449Y-56092587D02*
X115641830Y-56092587D01*
X115641830Y-56092587D02*
X115718020Y-56044968D01*
X115718020Y-56044968D02*
X115756115Y-55997348D01*
X115756115Y-55997348D02*
X115794211Y-55902110D01*
X115794211Y-55902110D02*
X115794211Y-55616396D01*
X115794211Y-55616396D02*
X115756115Y-55521158D01*
X115756115Y-55521158D02*
X115718020Y-55473539D01*
X115718020Y-55473539D02*
X115641830Y-55425920D01*
X115641830Y-55425920D02*
X115489449Y-55425920D01*
X115489449Y-55425920D02*
X115413258Y-55473539D01*
X115032305Y-56092587D02*
X115032305Y-55092587D01*
X114689448Y-56092587D02*
X114689448Y-55568777D01*
X114689448Y-55568777D02*
X114727543Y-55473539D01*
X114727543Y-55473539D02*
X114803734Y-55425920D01*
X114803734Y-55425920D02*
X114918020Y-55425920D01*
X114918020Y-55425920D02*
X114994210Y-55473539D01*
X114994210Y-55473539D02*
X115032305Y-55521158D01*
X114422781Y-55425920D02*
X114118019Y-55425920D01*
X114308495Y-55092587D02*
X114308495Y-55949729D01*
X114308495Y-55949729D02*
X114270400Y-56044968D01*
X114270400Y-56044968D02*
X114194210Y-56092587D01*
X114194210Y-56092587D02*
X114118019Y-56092587D01*
X113279924Y-56044968D02*
X113165638Y-56092587D01*
X113165638Y-56092587D02*
X112975162Y-56092587D01*
X112975162Y-56092587D02*
X112898971Y-56044968D01*
X112898971Y-56044968D02*
X112860876Y-55997348D01*
X112860876Y-55997348D02*
X112822781Y-55902110D01*
X112822781Y-55902110D02*
X112822781Y-55806872D01*
X112822781Y-55806872D02*
X112860876Y-55711634D01*
X112860876Y-55711634D02*
X112898971Y-55664015D01*
X112898971Y-55664015D02*
X112975162Y-55616396D01*
X112975162Y-55616396D02*
X113127543Y-55568777D01*
X113127543Y-55568777D02*
X113203733Y-55521158D01*
X113203733Y-55521158D02*
X113241828Y-55473539D01*
X113241828Y-55473539D02*
X113279924Y-55378301D01*
X113279924Y-55378301D02*
X113279924Y-55283063D01*
X113279924Y-55283063D02*
X113241828Y-55187825D01*
X113241828Y-55187825D02*
X113203733Y-55140206D01*
X113203733Y-55140206D02*
X113127543Y-55092587D01*
X113127543Y-55092587D02*
X112937066Y-55092587D01*
X112937066Y-55092587D02*
X112822781Y-55140206D01*
X112175161Y-56044968D02*
X112251352Y-56092587D01*
X112251352Y-56092587D02*
X112403733Y-56092587D01*
X112403733Y-56092587D02*
X112479923Y-56044968D01*
X112479923Y-56044968D02*
X112518019Y-55949729D01*
X112518019Y-55949729D02*
X112518019Y-55568777D01*
X112518019Y-55568777D02*
X112479923Y-55473539D01*
X112479923Y-55473539D02*
X112403733Y-55425920D01*
X112403733Y-55425920D02*
X112251352Y-55425920D01*
X112251352Y-55425920D02*
X112175161Y-55473539D01*
X112175161Y-55473539D02*
X112137066Y-55568777D01*
X112137066Y-55568777D02*
X112137066Y-55664015D01*
X112137066Y-55664015D02*
X112518019Y-55759253D01*
X111794209Y-55425920D02*
X111794209Y-56092587D01*
X111794209Y-55521158D02*
X111756114Y-55473539D01*
X111756114Y-55473539D02*
X111679924Y-55425920D01*
X111679924Y-55425920D02*
X111565638Y-55425920D01*
X111565638Y-55425920D02*
X111489447Y-55473539D01*
X111489447Y-55473539D02*
X111451352Y-55568777D01*
X111451352Y-55568777D02*
X111451352Y-56092587D01*
X111108495Y-56044968D02*
X111032304Y-56092587D01*
X111032304Y-56092587D02*
X110879923Y-56092587D01*
X110879923Y-56092587D02*
X110803733Y-56044968D01*
X110803733Y-56044968D02*
X110765637Y-55949729D01*
X110765637Y-55949729D02*
X110765637Y-55902110D01*
X110765637Y-55902110D02*
X110803733Y-55806872D01*
X110803733Y-55806872D02*
X110879923Y-55759253D01*
X110879923Y-55759253D02*
X110994209Y-55759253D01*
X110994209Y-55759253D02*
X111070399Y-55711634D01*
X111070399Y-55711634D02*
X111108495Y-55616396D01*
X111108495Y-55616396D02*
X111108495Y-55568777D01*
X111108495Y-55568777D02*
X111070399Y-55473539D01*
X111070399Y-55473539D02*
X110994209Y-55425920D01*
X110994209Y-55425920D02*
X110879923Y-55425920D01*
X110879923Y-55425920D02*
X110803733Y-55473539D01*
X110308495Y-56092587D02*
X110384685Y-56044968D01*
X110384685Y-56044968D02*
X110422780Y-55997348D01*
X110422780Y-55997348D02*
X110460876Y-55902110D01*
X110460876Y-55902110D02*
X110460876Y-55616396D01*
X110460876Y-55616396D02*
X110422780Y-55521158D01*
X110422780Y-55521158D02*
X110384685Y-55473539D01*
X110384685Y-55473539D02*
X110308495Y-55425920D01*
X110308495Y-55425920D02*
X110194209Y-55425920D01*
X110194209Y-55425920D02*
X110118018Y-55473539D01*
X110118018Y-55473539D02*
X110079923Y-55521158D01*
X110079923Y-55521158D02*
X110041828Y-55616396D01*
X110041828Y-55616396D02*
X110041828Y-55902110D01*
X110041828Y-55902110D02*
X110079923Y-55997348D01*
X110079923Y-55997348D02*
X110118018Y-56044968D01*
X110118018Y-56044968D02*
X110194209Y-56092587D01*
X110194209Y-56092587D02*
X110308495Y-56092587D01*
X109698970Y-56092587D02*
X109698970Y-55425920D01*
X109698970Y-55616396D02*
X109660875Y-55521158D01*
X109660875Y-55521158D02*
X109622780Y-55473539D01*
X109622780Y-55473539D02*
X109546589Y-55425920D01*
X109546589Y-55425920D02*
X109470399Y-55425920D01*
X120403734Y-57702531D02*
X120403734Y-56702531D01*
X120403734Y-56702531D02*
X120137068Y-57416816D01*
X120137068Y-57416816D02*
X119870401Y-56702531D01*
X119870401Y-56702531D02*
X119870401Y-57702531D01*
X119527544Y-57654912D02*
X119413258Y-57702531D01*
X119413258Y-57702531D02*
X119222782Y-57702531D01*
X119222782Y-57702531D02*
X119146591Y-57654912D01*
X119146591Y-57654912D02*
X119108496Y-57607292D01*
X119108496Y-57607292D02*
X119070401Y-57512054D01*
X119070401Y-57512054D02*
X119070401Y-57416816D01*
X119070401Y-57416816D02*
X119108496Y-57321578D01*
X119108496Y-57321578D02*
X119146591Y-57273959D01*
X119146591Y-57273959D02*
X119222782Y-57226340D01*
X119222782Y-57226340D02*
X119375163Y-57178721D01*
X119375163Y-57178721D02*
X119451353Y-57131102D01*
X119451353Y-57131102D02*
X119489448Y-57083483D01*
X119489448Y-57083483D02*
X119527544Y-56988245D01*
X119527544Y-56988245D02*
X119527544Y-56893007D01*
X119527544Y-56893007D02*
X119489448Y-56797769D01*
X119489448Y-56797769D02*
X119451353Y-56750150D01*
X119451353Y-56750150D02*
X119375163Y-56702531D01*
X119375163Y-56702531D02*
X119184686Y-56702531D01*
X119184686Y-56702531D02*
X119070401Y-56750150D01*
X118118019Y-57321578D02*
X117508496Y-57321578D01*
X116518019Y-57702531D02*
X116518019Y-56702531D01*
X116518019Y-56702531D02*
X116251353Y-57416816D01*
X116251353Y-57416816D02*
X115984686Y-56702531D01*
X115984686Y-56702531D02*
X115984686Y-57702531D01*
X115489448Y-57702531D02*
X115565638Y-57654912D01*
X115565638Y-57654912D02*
X115603733Y-57607292D01*
X115603733Y-57607292D02*
X115641829Y-57512054D01*
X115641829Y-57512054D02*
X115641829Y-57226340D01*
X115641829Y-57226340D02*
X115603733Y-57131102D01*
X115603733Y-57131102D02*
X115565638Y-57083483D01*
X115565638Y-57083483D02*
X115489448Y-57035864D01*
X115489448Y-57035864D02*
X115375162Y-57035864D01*
X115375162Y-57035864D02*
X115298971Y-57083483D01*
X115298971Y-57083483D02*
X115260876Y-57131102D01*
X115260876Y-57131102D02*
X115222781Y-57226340D01*
X115222781Y-57226340D02*
X115222781Y-57512054D01*
X115222781Y-57512054D02*
X115260876Y-57607292D01*
X115260876Y-57607292D02*
X115298971Y-57654912D01*
X115298971Y-57654912D02*
X115375162Y-57702531D01*
X115375162Y-57702531D02*
X115489448Y-57702531D01*
X114879923Y-57702531D02*
X114879923Y-57035864D01*
X114879923Y-56702531D02*
X114918019Y-56750150D01*
X114918019Y-56750150D02*
X114879923Y-56797769D01*
X114879923Y-56797769D02*
X114841828Y-56750150D01*
X114841828Y-56750150D02*
X114879923Y-56702531D01*
X114879923Y-56702531D02*
X114879923Y-56797769D01*
X114537067Y-57654912D02*
X114460876Y-57702531D01*
X114460876Y-57702531D02*
X114308495Y-57702531D01*
X114308495Y-57702531D02*
X114232305Y-57654912D01*
X114232305Y-57654912D02*
X114194209Y-57559673D01*
X114194209Y-57559673D02*
X114194209Y-57512054D01*
X114194209Y-57512054D02*
X114232305Y-57416816D01*
X114232305Y-57416816D02*
X114308495Y-57369197D01*
X114308495Y-57369197D02*
X114422781Y-57369197D01*
X114422781Y-57369197D02*
X114498971Y-57321578D01*
X114498971Y-57321578D02*
X114537067Y-57226340D01*
X114537067Y-57226340D02*
X114537067Y-57178721D01*
X114537067Y-57178721D02*
X114498971Y-57083483D01*
X114498971Y-57083483D02*
X114422781Y-57035864D01*
X114422781Y-57035864D02*
X114308495Y-57035864D01*
X114308495Y-57035864D02*
X114232305Y-57083483D01*
X113965638Y-57035864D02*
X113660876Y-57035864D01*
X113851352Y-56702531D02*
X113851352Y-57559673D01*
X113851352Y-57559673D02*
X113813257Y-57654912D01*
X113813257Y-57654912D02*
X113737067Y-57702531D01*
X113737067Y-57702531D02*
X113660876Y-57702531D01*
X113051352Y-57035864D02*
X113051352Y-57702531D01*
X113394209Y-57035864D02*
X113394209Y-57559673D01*
X113394209Y-57559673D02*
X113356114Y-57654912D01*
X113356114Y-57654912D02*
X113279924Y-57702531D01*
X113279924Y-57702531D02*
X113165638Y-57702531D01*
X113165638Y-57702531D02*
X113089447Y-57654912D01*
X113089447Y-57654912D02*
X113051352Y-57607292D01*
X112670399Y-57702531D02*
X112670399Y-57035864D01*
X112670399Y-57226340D02*
X112632304Y-57131102D01*
X112632304Y-57131102D02*
X112594209Y-57083483D01*
X112594209Y-57083483D02*
X112518018Y-57035864D01*
X112518018Y-57035864D02*
X112441828Y-57035864D01*
X111870399Y-57654912D02*
X111946590Y-57702531D01*
X111946590Y-57702531D02*
X112098971Y-57702531D01*
X112098971Y-57702531D02*
X112175161Y-57654912D01*
X112175161Y-57654912D02*
X112213257Y-57559673D01*
X112213257Y-57559673D02*
X112213257Y-57178721D01*
X112213257Y-57178721D02*
X112175161Y-57083483D01*
X112175161Y-57083483D02*
X112098971Y-57035864D01*
X112098971Y-57035864D02*
X111946590Y-57035864D01*
X111946590Y-57035864D02*
X111870399Y-57083483D01*
X111870399Y-57083483D02*
X111832304Y-57178721D01*
X111832304Y-57178721D02*
X111832304Y-57273959D01*
X111832304Y-57273959D02*
X112213257Y-57369197D01*
X110918019Y-57654912D02*
X110803733Y-57702531D01*
X110803733Y-57702531D02*
X110613257Y-57702531D01*
X110613257Y-57702531D02*
X110537066Y-57654912D01*
X110537066Y-57654912D02*
X110498971Y-57607292D01*
X110498971Y-57607292D02*
X110460876Y-57512054D01*
X110460876Y-57512054D02*
X110460876Y-57416816D01*
X110460876Y-57416816D02*
X110498971Y-57321578D01*
X110498971Y-57321578D02*
X110537066Y-57273959D01*
X110537066Y-57273959D02*
X110613257Y-57226340D01*
X110613257Y-57226340D02*
X110765638Y-57178721D01*
X110765638Y-57178721D02*
X110841828Y-57131102D01*
X110841828Y-57131102D02*
X110879923Y-57083483D01*
X110879923Y-57083483D02*
X110918019Y-56988245D01*
X110918019Y-56988245D02*
X110918019Y-56893007D01*
X110918019Y-56893007D02*
X110879923Y-56797769D01*
X110879923Y-56797769D02*
X110841828Y-56750150D01*
X110841828Y-56750150D02*
X110765638Y-56702531D01*
X110765638Y-56702531D02*
X110575161Y-56702531D01*
X110575161Y-56702531D02*
X110460876Y-56750150D01*
X109813256Y-57654912D02*
X109889447Y-57702531D01*
X109889447Y-57702531D02*
X110041828Y-57702531D01*
X110041828Y-57702531D02*
X110118018Y-57654912D01*
X110118018Y-57654912D02*
X110156114Y-57559673D01*
X110156114Y-57559673D02*
X110156114Y-57178721D01*
X110156114Y-57178721D02*
X110118018Y-57083483D01*
X110118018Y-57083483D02*
X110041828Y-57035864D01*
X110041828Y-57035864D02*
X109889447Y-57035864D01*
X109889447Y-57035864D02*
X109813256Y-57083483D01*
X109813256Y-57083483D02*
X109775161Y-57178721D01*
X109775161Y-57178721D02*
X109775161Y-57273959D01*
X109775161Y-57273959D02*
X110156114Y-57369197D01*
X109432304Y-57035864D02*
X109432304Y-57702531D01*
X109432304Y-57131102D02*
X109394209Y-57083483D01*
X109394209Y-57083483D02*
X109318019Y-57035864D01*
X109318019Y-57035864D02*
X109203733Y-57035864D01*
X109203733Y-57035864D02*
X109127542Y-57083483D01*
X109127542Y-57083483D02*
X109089447Y-57178721D01*
X109089447Y-57178721D02*
X109089447Y-57702531D01*
X108746590Y-57654912D02*
X108670399Y-57702531D01*
X108670399Y-57702531D02*
X108518018Y-57702531D01*
X108518018Y-57702531D02*
X108441828Y-57654912D01*
X108441828Y-57654912D02*
X108403732Y-57559673D01*
X108403732Y-57559673D02*
X108403732Y-57512054D01*
X108403732Y-57512054D02*
X108441828Y-57416816D01*
X108441828Y-57416816D02*
X108518018Y-57369197D01*
X108518018Y-57369197D02*
X108632304Y-57369197D01*
X108632304Y-57369197D02*
X108708494Y-57321578D01*
X108708494Y-57321578D02*
X108746590Y-57226340D01*
X108746590Y-57226340D02*
X108746590Y-57178721D01*
X108746590Y-57178721D02*
X108708494Y-57083483D01*
X108708494Y-57083483D02*
X108632304Y-57035864D01*
X108632304Y-57035864D02*
X108518018Y-57035864D01*
X108518018Y-57035864D02*
X108441828Y-57083483D01*
X107946590Y-57702531D02*
X108022780Y-57654912D01*
X108022780Y-57654912D02*
X108060875Y-57607292D01*
X108060875Y-57607292D02*
X108098971Y-57512054D01*
X108098971Y-57512054D02*
X108098971Y-57226340D01*
X108098971Y-57226340D02*
X108060875Y-57131102D01*
X108060875Y-57131102D02*
X108022780Y-57083483D01*
X108022780Y-57083483D02*
X107946590Y-57035864D01*
X107946590Y-57035864D02*
X107832304Y-57035864D01*
X107832304Y-57035864D02*
X107756113Y-57083483D01*
X107756113Y-57083483D02*
X107718018Y-57131102D01*
X107718018Y-57131102D02*
X107679923Y-57226340D01*
X107679923Y-57226340D02*
X107679923Y-57512054D01*
X107679923Y-57512054D02*
X107718018Y-57607292D01*
X107718018Y-57607292D02*
X107756113Y-57654912D01*
X107756113Y-57654912D02*
X107832304Y-57702531D01*
X107832304Y-57702531D02*
X107946590Y-57702531D01*
X107337065Y-57702531D02*
X107337065Y-57035864D01*
X107337065Y-57226340D02*
X107298970Y-57131102D01*
X107298970Y-57131102D02*
X107260875Y-57083483D01*
X107260875Y-57083483D02*
X107184684Y-57035864D01*
X107184684Y-57035864D02*
X107108494Y-57035864D01*
X120441830Y-59026760D02*
X120060877Y-59026760D01*
X120518020Y-59312475D02*
X120251353Y-58312475D01*
X120251353Y-58312475D02*
X119984687Y-59312475D01*
X119718020Y-59312475D02*
X119718020Y-58312475D01*
X119718020Y-58312475D02*
X119527544Y-58312475D01*
X119527544Y-58312475D02*
X119413258Y-58360094D01*
X119413258Y-58360094D02*
X119337068Y-58455332D01*
X119337068Y-58455332D02*
X119298973Y-58550570D01*
X119298973Y-58550570D02*
X119260877Y-58741046D01*
X119260877Y-58741046D02*
X119260877Y-58883903D01*
X119260877Y-58883903D02*
X119298973Y-59074379D01*
X119298973Y-59074379D02*
X119337068Y-59169617D01*
X119337068Y-59169617D02*
X119413258Y-59264856D01*
X119413258Y-59264856D02*
X119527544Y-59312475D01*
X119527544Y-59312475D02*
X119718020Y-59312475D01*
X118308496Y-58931522D02*
X117698973Y-58931522D01*
X116746592Y-59026760D02*
X116365639Y-59026760D01*
X116822782Y-59312475D02*
X116556115Y-58312475D01*
X116556115Y-58312475D02*
X116289449Y-59312475D01*
X116022782Y-59312475D02*
X116022782Y-58312475D01*
X116022782Y-58312475D02*
X115832306Y-58312475D01*
X115832306Y-58312475D02*
X115718020Y-58360094D01*
X115718020Y-58360094D02*
X115641830Y-58455332D01*
X115641830Y-58455332D02*
X115603735Y-58550570D01*
X115603735Y-58550570D02*
X115565639Y-58741046D01*
X115565639Y-58741046D02*
X115565639Y-58883903D01*
X115565639Y-58883903D02*
X115603735Y-59074379D01*
X115603735Y-59074379D02*
X115641830Y-59169617D01*
X115641830Y-59169617D02*
X115718020Y-59264856D01*
X115718020Y-59264856D02*
X115832306Y-59312475D01*
X115832306Y-59312475D02*
X116022782Y-59312475D01*
X114765639Y-59217236D02*
X114803735Y-59264856D01*
X114803735Y-59264856D02*
X114918020Y-59312475D01*
X114918020Y-59312475D02*
X114994211Y-59312475D01*
X114994211Y-59312475D02*
X115108497Y-59264856D01*
X115108497Y-59264856D02*
X115184687Y-59169617D01*
X115184687Y-59169617D02*
X115222782Y-59074379D01*
X115222782Y-59074379D02*
X115260878Y-58883903D01*
X115260878Y-58883903D02*
X115260878Y-58741046D01*
X115260878Y-58741046D02*
X115222782Y-58550570D01*
X115222782Y-58550570D02*
X115184687Y-58455332D01*
X115184687Y-58455332D02*
X115108497Y-58360094D01*
X115108497Y-58360094D02*
X114994211Y-58312475D01*
X114994211Y-58312475D02*
X114918020Y-58312475D01*
X114918020Y-58312475D02*
X114803735Y-58360094D01*
X114803735Y-58360094D02*
X114765639Y-58407713D01*
X120022782Y-60922419D02*
X120403734Y-60922419D01*
X120403734Y-60922419D02*
X120403734Y-59922419D01*
X119946592Y-61017657D02*
X119337068Y-61017657D01*
X118537067Y-60541466D02*
X117927544Y-60541466D01*
X116556115Y-60922419D02*
X116937067Y-60922419D01*
X116937067Y-60922419D02*
X116937067Y-59922419D01*
X115946591Y-60922419D02*
X115946591Y-60398609D01*
X115946591Y-60398609D02*
X115984686Y-60303371D01*
X115984686Y-60303371D02*
X116060877Y-60255752D01*
X116060877Y-60255752D02*
X116213258Y-60255752D01*
X116213258Y-60255752D02*
X116289448Y-60303371D01*
X115946591Y-60874800D02*
X116022782Y-60922419D01*
X116022782Y-60922419D02*
X116213258Y-60922419D01*
X116213258Y-60922419D02*
X116289448Y-60874800D01*
X116289448Y-60874800D02*
X116327544Y-60779561D01*
X116327544Y-60779561D02*
X116327544Y-60684323D01*
X116327544Y-60684323D02*
X116289448Y-60589085D01*
X116289448Y-60589085D02*
X116213258Y-60541466D01*
X116213258Y-60541466D02*
X116022782Y-60541466D01*
X116022782Y-60541466D02*
X115946591Y-60493847D01*
X115565638Y-60922419D02*
X115565638Y-60255752D01*
X115565638Y-60350990D02*
X115527543Y-60303371D01*
X115527543Y-60303371D02*
X115451353Y-60255752D01*
X115451353Y-60255752D02*
X115337067Y-60255752D01*
X115337067Y-60255752D02*
X115260876Y-60303371D01*
X115260876Y-60303371D02*
X115222781Y-60398609D01*
X115222781Y-60398609D02*
X115222781Y-60922419D01*
X115222781Y-60398609D02*
X115184686Y-60303371D01*
X115184686Y-60303371D02*
X115108495Y-60255752D01*
X115108495Y-60255752D02*
X114994210Y-60255752D01*
X114994210Y-60255752D02*
X114918019Y-60303371D01*
X114918019Y-60303371D02*
X114879924Y-60398609D01*
X114879924Y-60398609D02*
X114879924Y-60922419D01*
X114498971Y-60255752D02*
X114498971Y-61255752D01*
X114498971Y-60303371D02*
X114422781Y-60255752D01*
X114422781Y-60255752D02*
X114270400Y-60255752D01*
X114270400Y-60255752D02*
X114194209Y-60303371D01*
X114194209Y-60303371D02*
X114156114Y-60350990D01*
X114156114Y-60350990D02*
X114118019Y-60446228D01*
X114118019Y-60446228D02*
X114118019Y-60731942D01*
X114118019Y-60731942D02*
X114156114Y-60827180D01*
X114156114Y-60827180D02*
X114194209Y-60874800D01*
X114194209Y-60874800D02*
X114270400Y-60922419D01*
X114270400Y-60922419D02*
X114422781Y-60922419D01*
X114422781Y-60922419D02*
X114498971Y-60874800D01*
D11*
X171349101Y-91450688D02*
X171415768Y-91403069D01*
X171415768Y-91403069D02*
X171515768Y-91403069D01*
X171515768Y-91403069D02*
X171615768Y-91450688D01*
X171615768Y-91450688D02*
X171682435Y-91545926D01*
X171682435Y-91545926D02*
X171715768Y-91641164D01*
X171715768Y-91641164D02*
X171749101Y-91831640D01*
X171749101Y-91831640D02*
X171749101Y-91974497D01*
X171749101Y-91974497D02*
X171715768Y-92164973D01*
X171715768Y-92164973D02*
X171682435Y-92260211D01*
X171682435Y-92260211D02*
X171615768Y-92355450D01*
X171615768Y-92355450D02*
X171515768Y-92403069D01*
X171515768Y-92403069D02*
X171449101Y-92403069D01*
X171449101Y-92403069D02*
X171349101Y-92355450D01*
X171349101Y-92355450D02*
X171315768Y-92307830D01*
X171315768Y-92307830D02*
X171315768Y-91974497D01*
X171315768Y-91974497D02*
X171449101Y-91974497D01*
X171015768Y-92403069D02*
X171015768Y-91403069D01*
X171015768Y-91403069D02*
X170615768Y-92403069D01*
X170615768Y-92403069D02*
X170615768Y-91403069D01*
X170282435Y-92403069D02*
X170282435Y-91403069D01*
X170282435Y-91403069D02*
X170115768Y-91403069D01*
X170115768Y-91403069D02*
X170015768Y-91450688D01*
X170015768Y-91450688D02*
X169949102Y-91545926D01*
X169949102Y-91545926D02*
X169915768Y-91641164D01*
X169915768Y-91641164D02*
X169882435Y-91831640D01*
X169882435Y-91831640D02*
X169882435Y-91974497D01*
X169882435Y-91974497D02*
X169915768Y-92164973D01*
X169915768Y-92164973D02*
X169949102Y-92260211D01*
X169949102Y-92260211D02*
X170015768Y-92355450D01*
X170015768Y-92355450D02*
X170115768Y-92403069D01*
X170115768Y-92403069D02*
X170282435Y-92403069D01*
X169082435Y-92117354D02*
X168749102Y-92117354D01*
X169149102Y-92403069D02*
X168915769Y-91403069D01*
X168915769Y-91403069D02*
X168682435Y-92403069D01*
X168449102Y-92403069D02*
X168449102Y-91403069D01*
X168449102Y-91403069D02*
X168282435Y-91403069D01*
X168282435Y-91403069D02*
X168182435Y-91450688D01*
X168182435Y-91450688D02*
X168115769Y-91545926D01*
X168115769Y-91545926D02*
X168082435Y-91641164D01*
X168082435Y-91641164D02*
X168049102Y-91831640D01*
X168049102Y-91831640D02*
X168049102Y-91974497D01*
X168049102Y-91974497D02*
X168082435Y-92164973D01*
X168082435Y-92164973D02*
X168115769Y-92260211D01*
X168115769Y-92260211D02*
X168182435Y-92355450D01*
X168182435Y-92355450D02*
X168282435Y-92403069D01*
X168282435Y-92403069D02*
X168449102Y-92403069D01*
X167782435Y-91498307D02*
X167749102Y-91450688D01*
X167749102Y-91450688D02*
X167682435Y-91403069D01*
X167682435Y-91403069D02*
X167515769Y-91403069D01*
X167515769Y-91403069D02*
X167449102Y-91450688D01*
X167449102Y-91450688D02*
X167415769Y-91498307D01*
X167415769Y-91498307D02*
X167382435Y-91593545D01*
X167382435Y-91593545D02*
X167382435Y-91688783D01*
X167382435Y-91688783D02*
X167415769Y-91831640D01*
X167415769Y-91831640D02*
X167815769Y-92403069D01*
X167815769Y-92403069D02*
X167382435Y-92403069D01*
X167249102Y-92498307D02*
X166715768Y-92498307D01*
X166515769Y-92403069D02*
X166382435Y-92403069D01*
X166382435Y-92403069D02*
X166315769Y-92355450D01*
X166315769Y-92355450D02*
X166282435Y-92307830D01*
X166282435Y-92307830D02*
X166215769Y-92164973D01*
X166215769Y-92164973D02*
X166182435Y-91974497D01*
X166182435Y-91974497D02*
X166182435Y-91593545D01*
X166182435Y-91593545D02*
X166215769Y-91498307D01*
X166215769Y-91498307D02*
X166249102Y-91450688D01*
X166249102Y-91450688D02*
X166315769Y-91403069D01*
X166315769Y-91403069D02*
X166449102Y-91403069D01*
X166449102Y-91403069D02*
X166515769Y-91450688D01*
X166515769Y-91450688D02*
X166549102Y-91498307D01*
X166549102Y-91498307D02*
X166582435Y-91593545D01*
X166582435Y-91593545D02*
X166582435Y-91831640D01*
X166582435Y-91831640D02*
X166549102Y-91926878D01*
X166549102Y-91926878D02*
X166515769Y-91974497D01*
X166515769Y-91974497D02*
X166449102Y-92022116D01*
X166449102Y-92022116D02*
X166315769Y-92022116D01*
X166315769Y-92022116D02*
X166249102Y-91974497D01*
X166249102Y-91974497D02*
X166215769Y-91926878D01*
X166215769Y-91926878D02*
X166182435Y-91831640D01*
X165382435Y-92117354D02*
X165049102Y-92117354D01*
X165449102Y-92403069D02*
X165215769Y-91403069D01*
X165215769Y-91403069D02*
X164982435Y-92403069D01*
X164749102Y-92403069D02*
X164749102Y-91403069D01*
X164749102Y-91403069D02*
X164582435Y-91403069D01*
X164582435Y-91403069D02*
X164482435Y-91450688D01*
X164482435Y-91450688D02*
X164415769Y-91545926D01*
X164415769Y-91545926D02*
X164382435Y-91641164D01*
X164382435Y-91641164D02*
X164349102Y-91831640D01*
X164349102Y-91831640D02*
X164349102Y-91974497D01*
X164349102Y-91974497D02*
X164382435Y-92164973D01*
X164382435Y-92164973D02*
X164415769Y-92260211D01*
X164415769Y-92260211D02*
X164482435Y-92355450D01*
X164482435Y-92355450D02*
X164582435Y-92403069D01*
X164582435Y-92403069D02*
X164749102Y-92403069D01*
X163682435Y-92403069D02*
X164082435Y-92403069D01*
X163882435Y-92403069D02*
X163882435Y-91403069D01*
X163882435Y-91403069D02*
X163949102Y-91545926D01*
X163949102Y-91545926D02*
X164015769Y-91641164D01*
X164015769Y-91641164D02*
X164082435Y-91688783D01*
X163549102Y-92498307D02*
X163015768Y-92498307D01*
X162515769Y-91403069D02*
X162849102Y-91403069D01*
X162849102Y-91403069D02*
X162882435Y-91879259D01*
X162882435Y-91879259D02*
X162849102Y-91831640D01*
X162849102Y-91831640D02*
X162782435Y-91784021D01*
X162782435Y-91784021D02*
X162615769Y-91784021D01*
X162615769Y-91784021D02*
X162549102Y-91831640D01*
X162549102Y-91831640D02*
X162515769Y-91879259D01*
X162515769Y-91879259D02*
X162482435Y-91974497D01*
X162482435Y-91974497D02*
X162482435Y-92212592D01*
X162482435Y-92212592D02*
X162515769Y-92307830D01*
X162515769Y-92307830D02*
X162549102Y-92355450D01*
X162549102Y-92355450D02*
X162615769Y-92403069D01*
X162615769Y-92403069D02*
X162782435Y-92403069D01*
X162782435Y-92403069D02*
X162849102Y-92355450D01*
X162849102Y-92355450D02*
X162882435Y-92307830D01*
X161682435Y-92117354D02*
X161349102Y-92117354D01*
X161749102Y-92403069D02*
X161515769Y-91403069D01*
X161515769Y-91403069D02*
X161282435Y-92403069D01*
X161049102Y-92403069D02*
X161049102Y-91403069D01*
X161049102Y-91403069D02*
X160882435Y-91403069D01*
X160882435Y-91403069D02*
X160782435Y-91450688D01*
X160782435Y-91450688D02*
X160715769Y-91545926D01*
X160715769Y-91545926D02*
X160682435Y-91641164D01*
X160682435Y-91641164D02*
X160649102Y-91831640D01*
X160649102Y-91831640D02*
X160649102Y-91974497D01*
X160649102Y-91974497D02*
X160682435Y-92164973D01*
X160682435Y-92164973D02*
X160715769Y-92260211D01*
X160715769Y-92260211D02*
X160782435Y-92355450D01*
X160782435Y-92355450D02*
X160882435Y-92403069D01*
X160882435Y-92403069D02*
X161049102Y-92403069D01*
X159982435Y-92403069D02*
X160382435Y-92403069D01*
X160182435Y-92403069D02*
X160182435Y-91403069D01*
X160182435Y-91403069D02*
X160249102Y-91545926D01*
X160249102Y-91545926D02*
X160315769Y-91641164D01*
X160315769Y-91641164D02*
X160382435Y-91688783D01*
X159849102Y-92498307D02*
X159315768Y-92498307D01*
X159215769Y-91403069D02*
X158749102Y-91403069D01*
X158749102Y-91403069D02*
X159049102Y-92403069D01*
X114173069Y-72774231D02*
X113696878Y-72540898D01*
X114173069Y-72374231D02*
X113173069Y-72374231D01*
X113173069Y-72374231D02*
X113173069Y-72640898D01*
X113173069Y-72640898D02*
X113220688Y-72707565D01*
X113220688Y-72707565D02*
X113268307Y-72740898D01*
X113268307Y-72740898D02*
X113363545Y-72774231D01*
X113363545Y-72774231D02*
X113506402Y-72774231D01*
X113506402Y-72774231D02*
X113601640Y-72740898D01*
X113601640Y-72740898D02*
X113649259Y-72707565D01*
X113649259Y-72707565D02*
X113696878Y-72640898D01*
X113696878Y-72640898D02*
X113696878Y-72374231D01*
X113173069Y-73374231D02*
X113173069Y-73240898D01*
X113173069Y-73240898D02*
X113220688Y-73174231D01*
X113220688Y-73174231D02*
X113268307Y-73140898D01*
X113268307Y-73140898D02*
X113411164Y-73074231D01*
X113411164Y-73074231D02*
X113601640Y-73040898D01*
X113601640Y-73040898D02*
X113982592Y-73040898D01*
X113982592Y-73040898D02*
X114077830Y-73074231D01*
X114077830Y-73074231D02*
X114125450Y-73107565D01*
X114125450Y-73107565D02*
X114173069Y-73174231D01*
X114173069Y-73174231D02*
X114173069Y-73307565D01*
X114173069Y-73307565D02*
X114125450Y-73374231D01*
X114125450Y-73374231D02*
X114077830Y-73407565D01*
X114077830Y-73407565D02*
X113982592Y-73440898D01*
X113982592Y-73440898D02*
X113744497Y-73440898D01*
X113744497Y-73440898D02*
X113649259Y-73407565D01*
X113649259Y-73407565D02*
X113601640Y-73374231D01*
X113601640Y-73374231D02*
X113554021Y-73307565D01*
X113554021Y-73307565D02*
X113554021Y-73174231D01*
X113554021Y-73174231D02*
X113601640Y-73107565D01*
X113601640Y-73107565D02*
X113649259Y-73074231D01*
X113649259Y-73074231D02*
X113744497Y-73040898D01*
X104535768Y-67577830D02*
X104569101Y-67625450D01*
X104569101Y-67625450D02*
X104669101Y-67673069D01*
X104669101Y-67673069D02*
X104735768Y-67673069D01*
X104735768Y-67673069D02*
X104835768Y-67625450D01*
X104835768Y-67625450D02*
X104902435Y-67530211D01*
X104902435Y-67530211D02*
X104935768Y-67434973D01*
X104935768Y-67434973D02*
X104969101Y-67244497D01*
X104969101Y-67244497D02*
X104969101Y-67101640D01*
X104969101Y-67101640D02*
X104935768Y-66911164D01*
X104935768Y-66911164D02*
X104902435Y-66815926D01*
X104902435Y-66815926D02*
X104835768Y-66720688D01*
X104835768Y-66720688D02*
X104735768Y-66673069D01*
X104735768Y-66673069D02*
X104669101Y-66673069D01*
X104669101Y-66673069D02*
X104569101Y-66720688D01*
X104569101Y-66720688D02*
X104535768Y-66768307D01*
X103935768Y-67006402D02*
X103935768Y-67673069D01*
X104102435Y-66625450D02*
X104269101Y-67339735D01*
X104269101Y-67339735D02*
X103835768Y-67339735D01*
X186962830Y-109933333D02*
X187010450Y-109900000D01*
X187010450Y-109900000D02*
X187058069Y-109800000D01*
X187058069Y-109800000D02*
X187058069Y-109733333D01*
X187058069Y-109733333D02*
X187010450Y-109633333D01*
X187010450Y-109633333D02*
X186915211Y-109566667D01*
X186915211Y-109566667D02*
X186819973Y-109533333D01*
X186819973Y-109533333D02*
X186629497Y-109500000D01*
X186629497Y-109500000D02*
X186486640Y-109500000D01*
X186486640Y-109500000D02*
X186296164Y-109533333D01*
X186296164Y-109533333D02*
X186200926Y-109566667D01*
X186200926Y-109566667D02*
X186105688Y-109633333D01*
X186105688Y-109633333D02*
X186058069Y-109733333D01*
X186058069Y-109733333D02*
X186058069Y-109800000D01*
X186058069Y-109800000D02*
X186105688Y-109900000D01*
X186105688Y-109900000D02*
X186153307Y-109933333D01*
X187058069Y-110600000D02*
X187058069Y-110200000D01*
X187058069Y-110400000D02*
X186058069Y-110400000D01*
X186058069Y-110400000D02*
X186200926Y-110333333D01*
X186200926Y-110333333D02*
X186296164Y-110266667D01*
X186296164Y-110266667D02*
X186343783Y-110200000D01*
X213658069Y-93099999D02*
X213181878Y-92866666D01*
X213658069Y-92699999D02*
X212658069Y-92699999D01*
X212658069Y-92699999D02*
X212658069Y-92966666D01*
X212658069Y-92966666D02*
X212705688Y-93033333D01*
X212705688Y-93033333D02*
X212753307Y-93066666D01*
X212753307Y-93066666D02*
X212848545Y-93099999D01*
X212848545Y-93099999D02*
X212991402Y-93099999D01*
X212991402Y-93099999D02*
X213086640Y-93066666D01*
X213086640Y-93066666D02*
X213134259Y-93033333D01*
X213134259Y-93033333D02*
X213181878Y-92966666D01*
X213181878Y-92966666D02*
X213181878Y-92699999D01*
X213658069Y-93766666D02*
X213658069Y-93366666D01*
X213658069Y-93566666D02*
X212658069Y-93566666D01*
X212658069Y-93566666D02*
X212800926Y-93499999D01*
X212800926Y-93499999D02*
X212896164Y-93433333D01*
X212896164Y-93433333D02*
X212943783Y-93366666D01*
X213658069Y-94100000D02*
X213658069Y-94233333D01*
X213658069Y-94233333D02*
X213610450Y-94300000D01*
X213610450Y-94300000D02*
X213562830Y-94333333D01*
X213562830Y-94333333D02*
X213419973Y-94400000D01*
X213419973Y-94400000D02*
X213229497Y-94433333D01*
X213229497Y-94433333D02*
X212848545Y-94433333D01*
X212848545Y-94433333D02*
X212753307Y-94400000D01*
X212753307Y-94400000D02*
X212705688Y-94366666D01*
X212705688Y-94366666D02*
X212658069Y-94300000D01*
X212658069Y-94300000D02*
X212658069Y-94166666D01*
X212658069Y-94166666D02*
X212705688Y-94100000D01*
X212705688Y-94100000D02*
X212753307Y-94066666D01*
X212753307Y-94066666D02*
X212848545Y-94033333D01*
X212848545Y-94033333D02*
X213086640Y-94033333D01*
X213086640Y-94033333D02*
X213181878Y-94066666D01*
X213181878Y-94066666D02*
X213229497Y-94100000D01*
X213229497Y-94100000D02*
X213277116Y-94166666D01*
X213277116Y-94166666D02*
X213277116Y-94300000D01*
X213277116Y-94300000D02*
X213229497Y-94366666D01*
X213229497Y-94366666D02*
X213181878Y-94400000D01*
X213181878Y-94400000D02*
X213086640Y-94433333D01*
X183358069Y-94559999D02*
X182358069Y-94559999D01*
X182358069Y-94559999D02*
X182358069Y-94726666D01*
X182358069Y-94726666D02*
X182405688Y-94826666D01*
X182405688Y-94826666D02*
X182500926Y-94893333D01*
X182500926Y-94893333D02*
X182596164Y-94926666D01*
X182596164Y-94926666D02*
X182786640Y-94959999D01*
X182786640Y-94959999D02*
X182929497Y-94959999D01*
X182929497Y-94959999D02*
X183119973Y-94926666D01*
X183119973Y-94926666D02*
X183215211Y-94893333D01*
X183215211Y-94893333D02*
X183310450Y-94826666D01*
X183310450Y-94826666D02*
X183358069Y-94726666D01*
X183358069Y-94726666D02*
X183358069Y-94559999D01*
X183358069Y-95626666D02*
X183358069Y-95226666D01*
X183358069Y-95426666D02*
X182358069Y-95426666D01*
X182358069Y-95426666D02*
X182500926Y-95359999D01*
X182500926Y-95359999D02*
X182596164Y-95293333D01*
X182596164Y-95293333D02*
X182643783Y-95226666D01*
X183358069Y-96293333D02*
X183358069Y-95893333D01*
X183358069Y-96093333D02*
X182358069Y-96093333D01*
X182358069Y-96093333D02*
X182500926Y-96026666D01*
X182500926Y-96026666D02*
X182596164Y-95960000D01*
X182596164Y-95960000D02*
X182643783Y-95893333D01*
X121066666Y-108658069D02*
X121066666Y-107658069D01*
X121066666Y-107658069D02*
X120899999Y-107658069D01*
X120899999Y-107658069D02*
X120799999Y-107705688D01*
X120799999Y-107705688D02*
X120733333Y-107800926D01*
X120733333Y-107800926D02*
X120699999Y-107896164D01*
X120699999Y-107896164D02*
X120666666Y-108086640D01*
X120666666Y-108086640D02*
X120666666Y-108229497D01*
X120666666Y-108229497D02*
X120699999Y-108419973D01*
X120699999Y-108419973D02*
X120733333Y-108515211D01*
X120733333Y-108515211D02*
X120799999Y-108610450D01*
X120799999Y-108610450D02*
X120899999Y-108658069D01*
X120899999Y-108658069D02*
X121066666Y-108658069D01*
X120433333Y-107658069D02*
X119999999Y-107658069D01*
X119999999Y-107658069D02*
X120233333Y-108039021D01*
X120233333Y-108039021D02*
X120133333Y-108039021D01*
X120133333Y-108039021D02*
X120066666Y-108086640D01*
X120066666Y-108086640D02*
X120033333Y-108134259D01*
X120033333Y-108134259D02*
X119999999Y-108229497D01*
X119999999Y-108229497D02*
X119999999Y-108467592D01*
X119999999Y-108467592D02*
X120033333Y-108562830D01*
X120033333Y-108562830D02*
X120066666Y-108610450D01*
X120066666Y-108610450D02*
X120133333Y-108658069D01*
X120133333Y-108658069D02*
X120333333Y-108658069D01*
X120333333Y-108658069D02*
X120399999Y-108610450D01*
X120399999Y-108610450D02*
X120433333Y-108562830D01*
X129538069Y-97054999D02*
X129061878Y-96821666D01*
X129538069Y-96654999D02*
X128538069Y-96654999D01*
X128538069Y-96654999D02*
X128538069Y-96921666D01*
X128538069Y-96921666D02*
X128585688Y-96988333D01*
X128585688Y-96988333D02*
X128633307Y-97021666D01*
X128633307Y-97021666D02*
X128728545Y-97054999D01*
X128728545Y-97054999D02*
X128871402Y-97054999D01*
X128871402Y-97054999D02*
X128966640Y-97021666D01*
X128966640Y-97021666D02*
X129014259Y-96988333D01*
X129014259Y-96988333D02*
X129061878Y-96921666D01*
X129061878Y-96921666D02*
X129061878Y-96654999D01*
X129538069Y-97721666D02*
X129538069Y-97321666D01*
X129538069Y-97521666D02*
X128538069Y-97521666D01*
X128538069Y-97521666D02*
X128680926Y-97454999D01*
X128680926Y-97454999D02*
X128776164Y-97388333D01*
X128776164Y-97388333D02*
X128823783Y-97321666D01*
X128538069Y-97955000D02*
X128538069Y-98388333D01*
X128538069Y-98388333D02*
X128919021Y-98155000D01*
X128919021Y-98155000D02*
X128919021Y-98255000D01*
X128919021Y-98255000D02*
X128966640Y-98321666D01*
X128966640Y-98321666D02*
X129014259Y-98355000D01*
X129014259Y-98355000D02*
X129109497Y-98388333D01*
X129109497Y-98388333D02*
X129347592Y-98388333D01*
X129347592Y-98388333D02*
X129442830Y-98355000D01*
X129442830Y-98355000D02*
X129490450Y-98321666D01*
X129490450Y-98321666D02*
X129538069Y-98255000D01*
X129538069Y-98255000D02*
X129538069Y-98055000D01*
X129538069Y-98055000D02*
X129490450Y-97988333D01*
X129490450Y-97988333D02*
X129442830Y-97955000D01*
X176650000Y-92058069D02*
X176883333Y-91581878D01*
X177050000Y-92058069D02*
X177050000Y-91058069D01*
X177050000Y-91058069D02*
X176783333Y-91058069D01*
X176783333Y-91058069D02*
X176716667Y-91105688D01*
X176716667Y-91105688D02*
X176683333Y-91153307D01*
X176683333Y-91153307D02*
X176650000Y-91248545D01*
X176650000Y-91248545D02*
X176650000Y-91391402D01*
X176650000Y-91391402D02*
X176683333Y-91486640D01*
X176683333Y-91486640D02*
X176716667Y-91534259D01*
X176716667Y-91534259D02*
X176783333Y-91581878D01*
X176783333Y-91581878D02*
X177050000Y-91581878D01*
X176383333Y-91153307D02*
X176350000Y-91105688D01*
X176350000Y-91105688D02*
X176283333Y-91058069D01*
X176283333Y-91058069D02*
X176116667Y-91058069D01*
X176116667Y-91058069D02*
X176050000Y-91105688D01*
X176050000Y-91105688D02*
X176016667Y-91153307D01*
X176016667Y-91153307D02*
X175983333Y-91248545D01*
X175983333Y-91248545D02*
X175983333Y-91343783D01*
X175983333Y-91343783D02*
X176016667Y-91486640D01*
X176016667Y-91486640D02*
X176416667Y-92058069D01*
X176416667Y-92058069D02*
X175983333Y-92058069D01*
X175716666Y-91153307D02*
X175683333Y-91105688D01*
X175683333Y-91105688D02*
X175616666Y-91058069D01*
X175616666Y-91058069D02*
X175450000Y-91058069D01*
X175450000Y-91058069D02*
X175383333Y-91105688D01*
X175383333Y-91105688D02*
X175350000Y-91153307D01*
X175350000Y-91153307D02*
X175316666Y-91248545D01*
X175316666Y-91248545D02*
X175316666Y-91343783D01*
X175316666Y-91343783D02*
X175350000Y-91486640D01*
X175350000Y-91486640D02*
X175750000Y-92058069D01*
X175750000Y-92058069D02*
X175316666Y-92058069D01*
X207658069Y-99333333D02*
X206658069Y-99333333D01*
X206658069Y-99333333D02*
X206658069Y-99500000D01*
X206658069Y-99500000D02*
X206705688Y-99600000D01*
X206705688Y-99600000D02*
X206800926Y-99666667D01*
X206800926Y-99666667D02*
X206896164Y-99700000D01*
X206896164Y-99700000D02*
X207086640Y-99733333D01*
X207086640Y-99733333D02*
X207229497Y-99733333D01*
X207229497Y-99733333D02*
X207419973Y-99700000D01*
X207419973Y-99700000D02*
X207515211Y-99666667D01*
X207515211Y-99666667D02*
X207610450Y-99600000D01*
X207610450Y-99600000D02*
X207658069Y-99500000D01*
X207658069Y-99500000D02*
X207658069Y-99333333D01*
X206658069Y-100366667D02*
X206658069Y-100033333D01*
X206658069Y-100033333D02*
X207134259Y-100000000D01*
X207134259Y-100000000D02*
X207086640Y-100033333D01*
X207086640Y-100033333D02*
X207039021Y-100100000D01*
X207039021Y-100100000D02*
X207039021Y-100266667D01*
X207039021Y-100266667D02*
X207086640Y-100333333D01*
X207086640Y-100333333D02*
X207134259Y-100366667D01*
X207134259Y-100366667D02*
X207229497Y-100400000D01*
X207229497Y-100400000D02*
X207467592Y-100400000D01*
X207467592Y-100400000D02*
X207562830Y-100366667D01*
X207562830Y-100366667D02*
X207610450Y-100333333D01*
X207610450Y-100333333D02*
X207658069Y-100266667D01*
X207658069Y-100266667D02*
X207658069Y-100100000D01*
X207658069Y-100100000D02*
X207610450Y-100033333D01*
X207610450Y-100033333D02*
X207562830Y-100000000D01*
X105158069Y-70994999D02*
X104681878Y-70761666D01*
X105158069Y-70594999D02*
X104158069Y-70594999D01*
X104158069Y-70594999D02*
X104158069Y-70861666D01*
X104158069Y-70861666D02*
X104205688Y-70928333D01*
X104205688Y-70928333D02*
X104253307Y-70961666D01*
X104253307Y-70961666D02*
X104348545Y-70994999D01*
X104348545Y-70994999D02*
X104491402Y-70994999D01*
X104491402Y-70994999D02*
X104586640Y-70961666D01*
X104586640Y-70961666D02*
X104634259Y-70928333D01*
X104634259Y-70928333D02*
X104681878Y-70861666D01*
X104681878Y-70861666D02*
X104681878Y-70594999D01*
X105158069Y-71661666D02*
X105158069Y-71261666D01*
X105158069Y-71461666D02*
X104158069Y-71461666D01*
X104158069Y-71461666D02*
X104300926Y-71394999D01*
X104300926Y-71394999D02*
X104396164Y-71328333D01*
X104396164Y-71328333D02*
X104443783Y-71261666D01*
X105158069Y-72328333D02*
X105158069Y-71928333D01*
X105158069Y-72128333D02*
X104158069Y-72128333D01*
X104158069Y-72128333D02*
X104300926Y-72061666D01*
X104300926Y-72061666D02*
X104396164Y-71995000D01*
X104396164Y-71995000D02*
X104443783Y-71928333D01*
X109181666Y-110208069D02*
X109181666Y-109208069D01*
X109181666Y-109208069D02*
X109014999Y-109208069D01*
X109014999Y-109208069D02*
X108914999Y-109255688D01*
X108914999Y-109255688D02*
X108848333Y-109350926D01*
X108848333Y-109350926D02*
X108814999Y-109446164D01*
X108814999Y-109446164D02*
X108781666Y-109636640D01*
X108781666Y-109636640D02*
X108781666Y-109779497D01*
X108781666Y-109779497D02*
X108814999Y-109969973D01*
X108814999Y-109969973D02*
X108848333Y-110065211D01*
X108848333Y-110065211D02*
X108914999Y-110160450D01*
X108914999Y-110160450D02*
X109014999Y-110208069D01*
X109014999Y-110208069D02*
X109181666Y-110208069D01*
X108181666Y-109541402D02*
X108181666Y-110208069D01*
X108348333Y-109160450D02*
X108514999Y-109874735D01*
X108514999Y-109874735D02*
X108081666Y-109874735D01*
X109593333Y-73308069D02*
X109593333Y-74117592D01*
X109593333Y-74117592D02*
X109560000Y-74212830D01*
X109560000Y-74212830D02*
X109526666Y-74260450D01*
X109526666Y-74260450D02*
X109460000Y-74308069D01*
X109460000Y-74308069D02*
X109326666Y-74308069D01*
X109326666Y-74308069D02*
X109260000Y-74260450D01*
X109260000Y-74260450D02*
X109226666Y-74212830D01*
X109226666Y-74212830D02*
X109193333Y-74117592D01*
X109193333Y-74117592D02*
X109193333Y-73308069D01*
X108893333Y-73403307D02*
X108860000Y-73355688D01*
X108860000Y-73355688D02*
X108793333Y-73308069D01*
X108793333Y-73308069D02*
X108626667Y-73308069D01*
X108626667Y-73308069D02*
X108560000Y-73355688D01*
X108560000Y-73355688D02*
X108526667Y-73403307D01*
X108526667Y-73403307D02*
X108493333Y-73498545D01*
X108493333Y-73498545D02*
X108493333Y-73593783D01*
X108493333Y-73593783D02*
X108526667Y-73736640D01*
X108526667Y-73736640D02*
X108926667Y-74308069D01*
X108926667Y-74308069D02*
X108493333Y-74308069D01*
X111266666Y-70308069D02*
X111266666Y-69308069D01*
X111266666Y-69308069D02*
X111099999Y-69308069D01*
X111099999Y-69308069D02*
X110999999Y-69355688D01*
X110999999Y-69355688D02*
X110933333Y-69450926D01*
X110933333Y-69450926D02*
X110899999Y-69546164D01*
X110899999Y-69546164D02*
X110866666Y-69736640D01*
X110866666Y-69736640D02*
X110866666Y-69879497D01*
X110866666Y-69879497D02*
X110899999Y-70069973D01*
X110899999Y-70069973D02*
X110933333Y-70165211D01*
X110933333Y-70165211D02*
X110999999Y-70260450D01*
X110999999Y-70260450D02*
X111099999Y-70308069D01*
X111099999Y-70308069D02*
X111266666Y-70308069D01*
X110199999Y-70308069D02*
X110599999Y-70308069D01*
X110399999Y-70308069D02*
X110399999Y-69308069D01*
X110399999Y-69308069D02*
X110466666Y-69450926D01*
X110466666Y-69450926D02*
X110533333Y-69546164D01*
X110533333Y-69546164D02*
X110599999Y-69593783D01*
X212100000Y-111808069D02*
X212333333Y-111331878D01*
X212500000Y-111808069D02*
X212500000Y-110808069D01*
X212500000Y-110808069D02*
X212233333Y-110808069D01*
X212233333Y-110808069D02*
X212166667Y-110855688D01*
X212166667Y-110855688D02*
X212133333Y-110903307D01*
X212133333Y-110903307D02*
X212100000Y-110998545D01*
X212100000Y-110998545D02*
X212100000Y-111141402D01*
X212100000Y-111141402D02*
X212133333Y-111236640D01*
X212133333Y-111236640D02*
X212166667Y-111284259D01*
X212166667Y-111284259D02*
X212233333Y-111331878D01*
X212233333Y-111331878D02*
X212500000Y-111331878D01*
X211833333Y-110903307D02*
X211800000Y-110855688D01*
X211800000Y-110855688D02*
X211733333Y-110808069D01*
X211733333Y-110808069D02*
X211566667Y-110808069D01*
X211566667Y-110808069D02*
X211500000Y-110855688D01*
X211500000Y-110855688D02*
X211466667Y-110903307D01*
X211466667Y-110903307D02*
X211433333Y-110998545D01*
X211433333Y-110998545D02*
X211433333Y-111093783D01*
X211433333Y-111093783D02*
X211466667Y-111236640D01*
X211466667Y-111236640D02*
X211866667Y-111808069D01*
X211866667Y-111808069D02*
X211433333Y-111808069D01*
X210833333Y-111141402D02*
X210833333Y-111808069D01*
X211000000Y-110760450D02*
X211166666Y-111474735D01*
X211166666Y-111474735D02*
X210733333Y-111474735D01*
X121292718Y-99808069D02*
X121526051Y-99331878D01*
X121692718Y-99808069D02*
X121692718Y-98808069D01*
X121692718Y-98808069D02*
X121426051Y-98808069D01*
X121426051Y-98808069D02*
X121359385Y-98855688D01*
X121359385Y-98855688D02*
X121326051Y-98903307D01*
X121326051Y-98903307D02*
X121292718Y-98998545D01*
X121292718Y-98998545D02*
X121292718Y-99141402D01*
X121292718Y-99141402D02*
X121326051Y-99236640D01*
X121326051Y-99236640D02*
X121359385Y-99284259D01*
X121359385Y-99284259D02*
X121426051Y-99331878D01*
X121426051Y-99331878D02*
X121692718Y-99331878D01*
X120626051Y-99808069D02*
X121026051Y-99808069D01*
X120826051Y-99808069D02*
X120826051Y-98808069D01*
X120826051Y-98808069D02*
X120892718Y-98950926D01*
X120892718Y-98950926D02*
X120959385Y-99046164D01*
X120959385Y-99046164D02*
X121026051Y-99093783D01*
X119992718Y-98808069D02*
X120326051Y-98808069D01*
X120326051Y-98808069D02*
X120359384Y-99284259D01*
X120359384Y-99284259D02*
X120326051Y-99236640D01*
X120326051Y-99236640D02*
X120259384Y-99189021D01*
X120259384Y-99189021D02*
X120092718Y-99189021D01*
X120092718Y-99189021D02*
X120026051Y-99236640D01*
X120026051Y-99236640D02*
X119992718Y-99284259D01*
X119992718Y-99284259D02*
X119959384Y-99379497D01*
X119959384Y-99379497D02*
X119959384Y-99617592D01*
X119959384Y-99617592D02*
X119992718Y-99712830D01*
X119992718Y-99712830D02*
X120026051Y-99760450D01*
X120026051Y-99760450D02*
X120092718Y-99808069D01*
X120092718Y-99808069D02*
X120259384Y-99808069D01*
X120259384Y-99808069D02*
X120326051Y-99760450D01*
X120326051Y-99760450D02*
X120359384Y-99712830D01*
X171538069Y-60409999D02*
X171061878Y-60176666D01*
X171538069Y-60009999D02*
X170538069Y-60009999D01*
X170538069Y-60009999D02*
X170538069Y-60276666D01*
X170538069Y-60276666D02*
X170585688Y-60343333D01*
X170585688Y-60343333D02*
X170633307Y-60376666D01*
X170633307Y-60376666D02*
X170728545Y-60409999D01*
X170728545Y-60409999D02*
X170871402Y-60409999D01*
X170871402Y-60409999D02*
X170966640Y-60376666D01*
X170966640Y-60376666D02*
X171014259Y-60343333D01*
X171014259Y-60343333D02*
X171061878Y-60276666D01*
X171061878Y-60276666D02*
X171061878Y-60009999D01*
X170633307Y-60676666D02*
X170585688Y-60709999D01*
X170585688Y-60709999D02*
X170538069Y-60776666D01*
X170538069Y-60776666D02*
X170538069Y-60943333D01*
X170538069Y-60943333D02*
X170585688Y-61009999D01*
X170585688Y-61009999D02*
X170633307Y-61043333D01*
X170633307Y-61043333D02*
X170728545Y-61076666D01*
X170728545Y-61076666D02*
X170823783Y-61076666D01*
X170823783Y-61076666D02*
X170966640Y-61043333D01*
X170966640Y-61043333D02*
X171538069Y-60643333D01*
X171538069Y-60643333D02*
X171538069Y-61076666D01*
X170538069Y-61310000D02*
X170538069Y-61743333D01*
X170538069Y-61743333D02*
X170919021Y-61510000D01*
X170919021Y-61510000D02*
X170919021Y-61610000D01*
X170919021Y-61610000D02*
X170966640Y-61676666D01*
X170966640Y-61676666D02*
X171014259Y-61710000D01*
X171014259Y-61710000D02*
X171109497Y-61743333D01*
X171109497Y-61743333D02*
X171347592Y-61743333D01*
X171347592Y-61743333D02*
X171442830Y-61710000D01*
X171442830Y-61710000D02*
X171490450Y-61676666D01*
X171490450Y-61676666D02*
X171538069Y-61610000D01*
X171538069Y-61610000D02*
X171538069Y-61410000D01*
X171538069Y-61410000D02*
X171490450Y-61343333D01*
X171490450Y-61343333D02*
X171442830Y-61310000D01*
X124166666Y-105508069D02*
X124166666Y-104508069D01*
X124166666Y-104508069D02*
X123999999Y-104508069D01*
X123999999Y-104508069D02*
X123899999Y-104555688D01*
X123899999Y-104555688D02*
X123833333Y-104650926D01*
X123833333Y-104650926D02*
X123799999Y-104746164D01*
X123799999Y-104746164D02*
X123766666Y-104936640D01*
X123766666Y-104936640D02*
X123766666Y-105079497D01*
X123766666Y-105079497D02*
X123799999Y-105269973D01*
X123799999Y-105269973D02*
X123833333Y-105365211D01*
X123833333Y-105365211D02*
X123899999Y-105460450D01*
X123899999Y-105460450D02*
X123999999Y-105508069D01*
X123999999Y-105508069D02*
X124166666Y-105508069D01*
X123499999Y-104603307D02*
X123466666Y-104555688D01*
X123466666Y-104555688D02*
X123399999Y-104508069D01*
X123399999Y-104508069D02*
X123233333Y-104508069D01*
X123233333Y-104508069D02*
X123166666Y-104555688D01*
X123166666Y-104555688D02*
X123133333Y-104603307D01*
X123133333Y-104603307D02*
X123099999Y-104698545D01*
X123099999Y-104698545D02*
X123099999Y-104793783D01*
X123099999Y-104793783D02*
X123133333Y-104936640D01*
X123133333Y-104936640D02*
X123533333Y-105508069D01*
X123533333Y-105508069D02*
X123099999Y-105508069D01*
X137316666Y-82053307D02*
X137383333Y-82005688D01*
X137383333Y-82005688D02*
X137450000Y-81910450D01*
X137450000Y-81910450D02*
X137550000Y-81767592D01*
X137550000Y-81767592D02*
X137616666Y-81719973D01*
X137616666Y-81719973D02*
X137683333Y-81719973D01*
X137650000Y-81958069D02*
X137716666Y-81910450D01*
X137716666Y-81910450D02*
X137783333Y-81815211D01*
X137783333Y-81815211D02*
X137816666Y-81624735D01*
X137816666Y-81624735D02*
X137816666Y-81291402D01*
X137816666Y-81291402D02*
X137783333Y-81100926D01*
X137783333Y-81100926D02*
X137716666Y-81005688D01*
X137716666Y-81005688D02*
X137650000Y-80958069D01*
X137650000Y-80958069D02*
X137516666Y-80958069D01*
X137516666Y-80958069D02*
X137450000Y-81005688D01*
X137450000Y-81005688D02*
X137383333Y-81100926D01*
X137383333Y-81100926D02*
X137350000Y-81291402D01*
X137350000Y-81291402D02*
X137350000Y-81624735D01*
X137350000Y-81624735D02*
X137383333Y-81815211D01*
X137383333Y-81815211D02*
X137450000Y-81910450D01*
X137450000Y-81910450D02*
X137516666Y-81958069D01*
X137516666Y-81958069D02*
X137650000Y-81958069D01*
X136750000Y-81291402D02*
X136750000Y-81958069D01*
X136916667Y-80910450D02*
X137083333Y-81624735D01*
X137083333Y-81624735D02*
X136650000Y-81624735D01*
X201766666Y-94208069D02*
X201766666Y-93208069D01*
X201766666Y-93208069D02*
X201599999Y-93208069D01*
X201599999Y-93208069D02*
X201499999Y-93255688D01*
X201499999Y-93255688D02*
X201433333Y-93350926D01*
X201433333Y-93350926D02*
X201399999Y-93446164D01*
X201399999Y-93446164D02*
X201366666Y-93636640D01*
X201366666Y-93636640D02*
X201366666Y-93779497D01*
X201366666Y-93779497D02*
X201399999Y-93969973D01*
X201399999Y-93969973D02*
X201433333Y-94065211D01*
X201433333Y-94065211D02*
X201499999Y-94160450D01*
X201499999Y-94160450D02*
X201599999Y-94208069D01*
X201599999Y-94208069D02*
X201766666Y-94208069D01*
X200766666Y-93208069D02*
X200899999Y-93208069D01*
X200899999Y-93208069D02*
X200966666Y-93255688D01*
X200966666Y-93255688D02*
X200999999Y-93303307D01*
X200999999Y-93303307D02*
X201066666Y-93446164D01*
X201066666Y-93446164D02*
X201099999Y-93636640D01*
X201099999Y-93636640D02*
X201099999Y-94017592D01*
X201099999Y-94017592D02*
X201066666Y-94112830D01*
X201066666Y-94112830D02*
X201033333Y-94160450D01*
X201033333Y-94160450D02*
X200966666Y-94208069D01*
X200966666Y-94208069D02*
X200833333Y-94208069D01*
X200833333Y-94208069D02*
X200766666Y-94160450D01*
X200766666Y-94160450D02*
X200733333Y-94112830D01*
X200733333Y-94112830D02*
X200699999Y-94017592D01*
X200699999Y-94017592D02*
X200699999Y-93779497D01*
X200699999Y-93779497D02*
X200733333Y-93684259D01*
X200733333Y-93684259D02*
X200766666Y-93636640D01*
X200766666Y-93636640D02*
X200833333Y-93589021D01*
X200833333Y-93589021D02*
X200966666Y-93589021D01*
X200966666Y-93589021D02*
X201033333Y-93636640D01*
X201033333Y-93636640D02*
X201066666Y-93684259D01*
X201066666Y-93684259D02*
X201099999Y-93779497D01*
X105208069Y-76733333D02*
X104731878Y-76500000D01*
X105208069Y-76333333D02*
X104208069Y-76333333D01*
X104208069Y-76333333D02*
X104208069Y-76600000D01*
X104208069Y-76600000D02*
X104255688Y-76666667D01*
X104255688Y-76666667D02*
X104303307Y-76700000D01*
X104303307Y-76700000D02*
X104398545Y-76733333D01*
X104398545Y-76733333D02*
X104541402Y-76733333D01*
X104541402Y-76733333D02*
X104636640Y-76700000D01*
X104636640Y-76700000D02*
X104684259Y-76666667D01*
X104684259Y-76666667D02*
X104731878Y-76600000D01*
X104731878Y-76600000D02*
X104731878Y-76333333D01*
X105208069Y-77066667D02*
X105208069Y-77200000D01*
X105208069Y-77200000D02*
X105160450Y-77266667D01*
X105160450Y-77266667D02*
X105112830Y-77300000D01*
X105112830Y-77300000D02*
X104969973Y-77366667D01*
X104969973Y-77366667D02*
X104779497Y-77400000D01*
X104779497Y-77400000D02*
X104398545Y-77400000D01*
X104398545Y-77400000D02*
X104303307Y-77366667D01*
X104303307Y-77366667D02*
X104255688Y-77333333D01*
X104255688Y-77333333D02*
X104208069Y-77266667D01*
X104208069Y-77266667D02*
X104208069Y-77133333D01*
X104208069Y-77133333D02*
X104255688Y-77066667D01*
X104255688Y-77066667D02*
X104303307Y-77033333D01*
X104303307Y-77033333D02*
X104398545Y-77000000D01*
X104398545Y-77000000D02*
X104636640Y-77000000D01*
X104636640Y-77000000D02*
X104731878Y-77033333D01*
X104731878Y-77033333D02*
X104779497Y-77066667D01*
X104779497Y-77066667D02*
X104827116Y-77133333D01*
X104827116Y-77133333D02*
X104827116Y-77266667D01*
X104827116Y-77266667D02*
X104779497Y-77333333D01*
X104779497Y-77333333D02*
X104731878Y-77366667D01*
X104731878Y-77366667D02*
X104636640Y-77400000D01*
X103858069Y-71044999D02*
X103381878Y-70811666D01*
X103858069Y-70644999D02*
X102858069Y-70644999D01*
X102858069Y-70644999D02*
X102858069Y-70911666D01*
X102858069Y-70911666D02*
X102905688Y-70978333D01*
X102905688Y-70978333D02*
X102953307Y-71011666D01*
X102953307Y-71011666D02*
X103048545Y-71044999D01*
X103048545Y-71044999D02*
X103191402Y-71044999D01*
X103191402Y-71044999D02*
X103286640Y-71011666D01*
X103286640Y-71011666D02*
X103334259Y-70978333D01*
X103334259Y-70978333D02*
X103381878Y-70911666D01*
X103381878Y-70911666D02*
X103381878Y-70644999D01*
X103858069Y-71711666D02*
X103858069Y-71311666D01*
X103858069Y-71511666D02*
X102858069Y-71511666D01*
X102858069Y-71511666D02*
X103000926Y-71444999D01*
X103000926Y-71444999D02*
X103096164Y-71378333D01*
X103096164Y-71378333D02*
X103143783Y-71311666D01*
X102858069Y-72145000D02*
X102858069Y-72211666D01*
X102858069Y-72211666D02*
X102905688Y-72278333D01*
X102905688Y-72278333D02*
X102953307Y-72311666D01*
X102953307Y-72311666D02*
X103048545Y-72345000D01*
X103048545Y-72345000D02*
X103239021Y-72378333D01*
X103239021Y-72378333D02*
X103477116Y-72378333D01*
X103477116Y-72378333D02*
X103667592Y-72345000D01*
X103667592Y-72345000D02*
X103762830Y-72311666D01*
X103762830Y-72311666D02*
X103810450Y-72278333D01*
X103810450Y-72278333D02*
X103858069Y-72211666D01*
X103858069Y-72211666D02*
X103858069Y-72145000D01*
X103858069Y-72145000D02*
X103810450Y-72078333D01*
X103810450Y-72078333D02*
X103762830Y-72045000D01*
X103762830Y-72045000D02*
X103667592Y-72011666D01*
X103667592Y-72011666D02*
X103477116Y-71978333D01*
X103477116Y-71978333D02*
X103239021Y-71978333D01*
X103239021Y-71978333D02*
X103048545Y-72011666D01*
X103048545Y-72011666D02*
X102953307Y-72045000D01*
X102953307Y-72045000D02*
X102905688Y-72078333D01*
X102905688Y-72078333D02*
X102858069Y-72145000D01*
X180566666Y-104608069D02*
X180799999Y-104131878D01*
X180966666Y-104608069D02*
X180966666Y-103608069D01*
X180966666Y-103608069D02*
X180699999Y-103608069D01*
X180699999Y-103608069D02*
X180633333Y-103655688D01*
X180633333Y-103655688D02*
X180599999Y-103703307D01*
X180599999Y-103703307D02*
X180566666Y-103798545D01*
X180566666Y-103798545D02*
X180566666Y-103941402D01*
X180566666Y-103941402D02*
X180599999Y-104036640D01*
X180599999Y-104036640D02*
X180633333Y-104084259D01*
X180633333Y-104084259D02*
X180699999Y-104131878D01*
X180699999Y-104131878D02*
X180966666Y-104131878D01*
X180333333Y-103608069D02*
X179899999Y-103608069D01*
X179899999Y-103608069D02*
X180133333Y-103989021D01*
X180133333Y-103989021D02*
X180033333Y-103989021D01*
X180033333Y-103989021D02*
X179966666Y-104036640D01*
X179966666Y-104036640D02*
X179933333Y-104084259D01*
X179933333Y-104084259D02*
X179899999Y-104179497D01*
X179899999Y-104179497D02*
X179899999Y-104417592D01*
X179899999Y-104417592D02*
X179933333Y-104512830D01*
X179933333Y-104512830D02*
X179966666Y-104560450D01*
X179966666Y-104560450D02*
X180033333Y-104608069D01*
X180033333Y-104608069D02*
X180233333Y-104608069D01*
X180233333Y-104608069D02*
X180299999Y-104560450D01*
X180299999Y-104560450D02*
X180333333Y-104512830D01*
X211808069Y-97149999D02*
X211331878Y-96916666D01*
X211808069Y-96749999D02*
X210808069Y-96749999D01*
X210808069Y-96749999D02*
X210808069Y-97016666D01*
X210808069Y-97016666D02*
X210855688Y-97083333D01*
X210855688Y-97083333D02*
X210903307Y-97116666D01*
X210903307Y-97116666D02*
X210998545Y-97149999D01*
X210998545Y-97149999D02*
X211141402Y-97149999D01*
X211141402Y-97149999D02*
X211236640Y-97116666D01*
X211236640Y-97116666D02*
X211284259Y-97083333D01*
X211284259Y-97083333D02*
X211331878Y-97016666D01*
X211331878Y-97016666D02*
X211331878Y-96749999D01*
X211808069Y-97816666D02*
X211808069Y-97416666D01*
X211808069Y-97616666D02*
X210808069Y-97616666D01*
X210808069Y-97616666D02*
X210950926Y-97549999D01*
X210950926Y-97549999D02*
X211046164Y-97483333D01*
X211046164Y-97483333D02*
X211093783Y-97416666D01*
X211236640Y-98216666D02*
X211189021Y-98150000D01*
X211189021Y-98150000D02*
X211141402Y-98116666D01*
X211141402Y-98116666D02*
X211046164Y-98083333D01*
X211046164Y-98083333D02*
X210998545Y-98083333D01*
X210998545Y-98083333D02*
X210903307Y-98116666D01*
X210903307Y-98116666D02*
X210855688Y-98150000D01*
X210855688Y-98150000D02*
X210808069Y-98216666D01*
X210808069Y-98216666D02*
X210808069Y-98350000D01*
X210808069Y-98350000D02*
X210855688Y-98416666D01*
X210855688Y-98416666D02*
X210903307Y-98450000D01*
X210903307Y-98450000D02*
X210998545Y-98483333D01*
X210998545Y-98483333D02*
X211046164Y-98483333D01*
X211046164Y-98483333D02*
X211141402Y-98450000D01*
X211141402Y-98450000D02*
X211189021Y-98416666D01*
X211189021Y-98416666D02*
X211236640Y-98350000D01*
X211236640Y-98350000D02*
X211236640Y-98216666D01*
X211236640Y-98216666D02*
X211284259Y-98150000D01*
X211284259Y-98150000D02*
X211331878Y-98116666D01*
X211331878Y-98116666D02*
X211427116Y-98083333D01*
X211427116Y-98083333D02*
X211617592Y-98083333D01*
X211617592Y-98083333D02*
X211712830Y-98116666D01*
X211712830Y-98116666D02*
X211760450Y-98150000D01*
X211760450Y-98150000D02*
X211808069Y-98216666D01*
X211808069Y-98216666D02*
X211808069Y-98350000D01*
X211808069Y-98350000D02*
X211760450Y-98416666D01*
X211760450Y-98416666D02*
X211712830Y-98450000D01*
X211712830Y-98450000D02*
X211617592Y-98483333D01*
X211617592Y-98483333D02*
X211427116Y-98483333D01*
X211427116Y-98483333D02*
X211331878Y-98450000D01*
X211331878Y-98450000D02*
X211284259Y-98416666D01*
X211284259Y-98416666D02*
X211236640Y-98350000D01*
X183356666Y-104338069D02*
X183589999Y-103861878D01*
X183756666Y-104338069D02*
X183756666Y-103338069D01*
X183756666Y-103338069D02*
X183489999Y-103338069D01*
X183489999Y-103338069D02*
X183423333Y-103385688D01*
X183423333Y-103385688D02*
X183389999Y-103433307D01*
X183389999Y-103433307D02*
X183356666Y-103528545D01*
X183356666Y-103528545D02*
X183356666Y-103671402D01*
X183356666Y-103671402D02*
X183389999Y-103766640D01*
X183389999Y-103766640D02*
X183423333Y-103814259D01*
X183423333Y-103814259D02*
X183489999Y-103861878D01*
X183489999Y-103861878D02*
X183756666Y-103861878D01*
X182689999Y-104338069D02*
X183089999Y-104338069D01*
X182889999Y-104338069D02*
X182889999Y-103338069D01*
X182889999Y-103338069D02*
X182956666Y-103480926D01*
X182956666Y-103480926D02*
X183023333Y-103576164D01*
X183023333Y-103576164D02*
X183089999Y-103623783D01*
X120850000Y-107008069D02*
X121083333Y-106531878D01*
X121250000Y-107008069D02*
X121250000Y-106008069D01*
X121250000Y-106008069D02*
X120983333Y-106008069D01*
X120983333Y-106008069D02*
X120916667Y-106055688D01*
X120916667Y-106055688D02*
X120883333Y-106103307D01*
X120883333Y-106103307D02*
X120850000Y-106198545D01*
X120850000Y-106198545D02*
X120850000Y-106341402D01*
X120850000Y-106341402D02*
X120883333Y-106436640D01*
X120883333Y-106436640D02*
X120916667Y-106484259D01*
X120916667Y-106484259D02*
X120983333Y-106531878D01*
X120983333Y-106531878D02*
X121250000Y-106531878D01*
X120183333Y-107008069D02*
X120583333Y-107008069D01*
X120383333Y-107008069D02*
X120383333Y-106008069D01*
X120383333Y-106008069D02*
X120450000Y-106150926D01*
X120450000Y-106150926D02*
X120516667Y-106246164D01*
X120516667Y-106246164D02*
X120583333Y-106293783D01*
X119583333Y-106008069D02*
X119716666Y-106008069D01*
X119716666Y-106008069D02*
X119783333Y-106055688D01*
X119783333Y-106055688D02*
X119816666Y-106103307D01*
X119816666Y-106103307D02*
X119883333Y-106246164D01*
X119883333Y-106246164D02*
X119916666Y-106436640D01*
X119916666Y-106436640D02*
X119916666Y-106817592D01*
X119916666Y-106817592D02*
X119883333Y-106912830D01*
X119883333Y-106912830D02*
X119850000Y-106960450D01*
X119850000Y-106960450D02*
X119783333Y-107008069D01*
X119783333Y-107008069D02*
X119650000Y-107008069D01*
X119650000Y-107008069D02*
X119583333Y-106960450D01*
X119583333Y-106960450D02*
X119550000Y-106912830D01*
X119550000Y-106912830D02*
X119516666Y-106817592D01*
X119516666Y-106817592D02*
X119516666Y-106579497D01*
X119516666Y-106579497D02*
X119550000Y-106484259D01*
X119550000Y-106484259D02*
X119583333Y-106436640D01*
X119583333Y-106436640D02*
X119650000Y-106389021D01*
X119650000Y-106389021D02*
X119783333Y-106389021D01*
X119783333Y-106389021D02*
X119850000Y-106436640D01*
X119850000Y-106436640D02*
X119883333Y-106484259D01*
X119883333Y-106484259D02*
X119916666Y-106579497D01*
X209258069Y-99199999D02*
X208781878Y-98966666D01*
X209258069Y-98799999D02*
X208258069Y-98799999D01*
X208258069Y-98799999D02*
X208258069Y-99066666D01*
X208258069Y-99066666D02*
X208305688Y-99133333D01*
X208305688Y-99133333D02*
X208353307Y-99166666D01*
X208353307Y-99166666D02*
X208448545Y-99199999D01*
X208448545Y-99199999D02*
X208591402Y-99199999D01*
X208591402Y-99199999D02*
X208686640Y-99166666D01*
X208686640Y-99166666D02*
X208734259Y-99133333D01*
X208734259Y-99133333D02*
X208781878Y-99066666D01*
X208781878Y-99066666D02*
X208781878Y-98799999D01*
X209258069Y-99866666D02*
X209258069Y-99466666D01*
X209258069Y-99666666D02*
X208258069Y-99666666D01*
X208258069Y-99666666D02*
X208400926Y-99599999D01*
X208400926Y-99599999D02*
X208496164Y-99533333D01*
X208496164Y-99533333D02*
X208543783Y-99466666D01*
X208258069Y-100100000D02*
X208258069Y-100566666D01*
X208258069Y-100566666D02*
X209258069Y-100266666D01*
X106876666Y-100308069D02*
X106876666Y-99308069D01*
X106476666Y-100308069D02*
X106776666Y-99736640D01*
X106476666Y-99308069D02*
X106876666Y-99879497D01*
X105809999Y-100308069D02*
X106209999Y-100308069D01*
X106009999Y-100308069D02*
X106009999Y-99308069D01*
X106009999Y-99308069D02*
X106076666Y-99450926D01*
X106076666Y-99450926D02*
X106143333Y-99546164D01*
X106143333Y-99546164D02*
X106209999Y-99593783D01*
X177950000Y-93508069D02*
X177950000Y-92508069D01*
X177950000Y-92508069D02*
X177783333Y-92508069D01*
X177783333Y-92508069D02*
X177683333Y-92555688D01*
X177683333Y-92555688D02*
X177616667Y-92650926D01*
X177616667Y-92650926D02*
X177583333Y-92746164D01*
X177583333Y-92746164D02*
X177550000Y-92936640D01*
X177550000Y-92936640D02*
X177550000Y-93079497D01*
X177550000Y-93079497D02*
X177583333Y-93269973D01*
X177583333Y-93269973D02*
X177616667Y-93365211D01*
X177616667Y-93365211D02*
X177683333Y-93460450D01*
X177683333Y-93460450D02*
X177783333Y-93508069D01*
X177783333Y-93508069D02*
X177950000Y-93508069D01*
X176883333Y-93508069D02*
X177283333Y-93508069D01*
X177083333Y-93508069D02*
X177083333Y-92508069D01*
X177083333Y-92508069D02*
X177150000Y-92650926D01*
X177150000Y-92650926D02*
X177216667Y-92746164D01*
X177216667Y-92746164D02*
X177283333Y-92793783D01*
X176450000Y-92508069D02*
X176383333Y-92508069D01*
X176383333Y-92508069D02*
X176316666Y-92555688D01*
X176316666Y-92555688D02*
X176283333Y-92603307D01*
X176283333Y-92603307D02*
X176250000Y-92698545D01*
X176250000Y-92698545D02*
X176216666Y-92889021D01*
X176216666Y-92889021D02*
X176216666Y-93127116D01*
X176216666Y-93127116D02*
X176250000Y-93317592D01*
X176250000Y-93317592D02*
X176283333Y-93412830D01*
X176283333Y-93412830D02*
X176316666Y-93460450D01*
X176316666Y-93460450D02*
X176383333Y-93508069D01*
X176383333Y-93508069D02*
X176450000Y-93508069D01*
X176450000Y-93508069D02*
X176516666Y-93460450D01*
X176516666Y-93460450D02*
X176550000Y-93412830D01*
X176550000Y-93412830D02*
X176583333Y-93317592D01*
X176583333Y-93317592D02*
X176616666Y-93127116D01*
X176616666Y-93127116D02*
X176616666Y-92889021D01*
X176616666Y-92889021D02*
X176583333Y-92698545D01*
X176583333Y-92698545D02*
X176550000Y-92603307D01*
X176550000Y-92603307D02*
X176516666Y-92555688D01*
X176516666Y-92555688D02*
X176450000Y-92508069D01*
X133958069Y-82049999D02*
X133481878Y-81816666D01*
X133958069Y-81649999D02*
X132958069Y-81649999D01*
X132958069Y-81649999D02*
X132958069Y-81916666D01*
X132958069Y-81916666D02*
X133005688Y-81983333D01*
X133005688Y-81983333D02*
X133053307Y-82016666D01*
X133053307Y-82016666D02*
X133148545Y-82049999D01*
X133148545Y-82049999D02*
X133291402Y-82049999D01*
X133291402Y-82049999D02*
X133386640Y-82016666D01*
X133386640Y-82016666D02*
X133434259Y-81983333D01*
X133434259Y-81983333D02*
X133481878Y-81916666D01*
X133481878Y-81916666D02*
X133481878Y-81649999D01*
X133053307Y-82316666D02*
X133005688Y-82349999D01*
X133005688Y-82349999D02*
X132958069Y-82416666D01*
X132958069Y-82416666D02*
X132958069Y-82583333D01*
X132958069Y-82583333D02*
X133005688Y-82649999D01*
X133005688Y-82649999D02*
X133053307Y-82683333D01*
X133053307Y-82683333D02*
X133148545Y-82716666D01*
X133148545Y-82716666D02*
X133243783Y-82716666D01*
X133243783Y-82716666D02*
X133386640Y-82683333D01*
X133386640Y-82683333D02*
X133958069Y-82283333D01*
X133958069Y-82283333D02*
X133958069Y-82716666D01*
X132958069Y-82950000D02*
X132958069Y-83416666D01*
X132958069Y-83416666D02*
X133958069Y-83116666D01*
X212458069Y-93099999D02*
X211981878Y-92866666D01*
X212458069Y-92699999D02*
X211458069Y-92699999D01*
X211458069Y-92699999D02*
X211458069Y-92966666D01*
X211458069Y-92966666D02*
X211505688Y-93033333D01*
X211505688Y-93033333D02*
X211553307Y-93066666D01*
X211553307Y-93066666D02*
X211648545Y-93099999D01*
X211648545Y-93099999D02*
X211791402Y-93099999D01*
X211791402Y-93099999D02*
X211886640Y-93066666D01*
X211886640Y-93066666D02*
X211934259Y-93033333D01*
X211934259Y-93033333D02*
X211981878Y-92966666D01*
X211981878Y-92966666D02*
X211981878Y-92699999D01*
X211553307Y-93366666D02*
X211505688Y-93399999D01*
X211505688Y-93399999D02*
X211458069Y-93466666D01*
X211458069Y-93466666D02*
X211458069Y-93633333D01*
X211458069Y-93633333D02*
X211505688Y-93699999D01*
X211505688Y-93699999D02*
X211553307Y-93733333D01*
X211553307Y-93733333D02*
X211648545Y-93766666D01*
X211648545Y-93766666D02*
X211743783Y-93766666D01*
X211743783Y-93766666D02*
X211886640Y-93733333D01*
X211886640Y-93733333D02*
X212458069Y-93333333D01*
X212458069Y-93333333D02*
X212458069Y-93766666D01*
X211458069Y-94200000D02*
X211458069Y-94266666D01*
X211458069Y-94266666D02*
X211505688Y-94333333D01*
X211505688Y-94333333D02*
X211553307Y-94366666D01*
X211553307Y-94366666D02*
X211648545Y-94400000D01*
X211648545Y-94400000D02*
X211839021Y-94433333D01*
X211839021Y-94433333D02*
X212077116Y-94433333D01*
X212077116Y-94433333D02*
X212267592Y-94400000D01*
X212267592Y-94400000D02*
X212362830Y-94366666D01*
X212362830Y-94366666D02*
X212410450Y-94333333D01*
X212410450Y-94333333D02*
X212458069Y-94266666D01*
X212458069Y-94266666D02*
X212458069Y-94200000D01*
X212458069Y-94200000D02*
X212410450Y-94133333D01*
X212410450Y-94133333D02*
X212362830Y-94100000D01*
X212362830Y-94100000D02*
X212267592Y-94066666D01*
X212267592Y-94066666D02*
X212077116Y-94033333D01*
X212077116Y-94033333D02*
X211839021Y-94033333D01*
X211839021Y-94033333D02*
X211648545Y-94066666D01*
X211648545Y-94066666D02*
X211553307Y-94100000D01*
X211553307Y-94100000D02*
X211505688Y-94133333D01*
X211505688Y-94133333D02*
X211458069Y-94200000D01*
X185158069Y-94659999D02*
X184681878Y-94426666D01*
X185158069Y-94259999D02*
X184158069Y-94259999D01*
X184158069Y-94259999D02*
X184158069Y-94526666D01*
X184158069Y-94526666D02*
X184205688Y-94593333D01*
X184205688Y-94593333D02*
X184253307Y-94626666D01*
X184253307Y-94626666D02*
X184348545Y-94659999D01*
X184348545Y-94659999D02*
X184491402Y-94659999D01*
X184491402Y-94659999D02*
X184586640Y-94626666D01*
X184586640Y-94626666D02*
X184634259Y-94593333D01*
X184634259Y-94593333D02*
X184681878Y-94526666D01*
X184681878Y-94526666D02*
X184681878Y-94259999D01*
X184253307Y-94926666D02*
X184205688Y-94959999D01*
X184205688Y-94959999D02*
X184158069Y-95026666D01*
X184158069Y-95026666D02*
X184158069Y-95193333D01*
X184158069Y-95193333D02*
X184205688Y-95259999D01*
X184205688Y-95259999D02*
X184253307Y-95293333D01*
X184253307Y-95293333D02*
X184348545Y-95326666D01*
X184348545Y-95326666D02*
X184443783Y-95326666D01*
X184443783Y-95326666D02*
X184586640Y-95293333D01*
X184586640Y-95293333D02*
X185158069Y-94893333D01*
X185158069Y-94893333D02*
X185158069Y-95326666D01*
X184158069Y-95926666D02*
X184158069Y-95793333D01*
X184158069Y-95793333D02*
X184205688Y-95726666D01*
X184205688Y-95726666D02*
X184253307Y-95693333D01*
X184253307Y-95693333D02*
X184396164Y-95626666D01*
X184396164Y-95626666D02*
X184586640Y-95593333D01*
X184586640Y-95593333D02*
X184967592Y-95593333D01*
X184967592Y-95593333D02*
X185062830Y-95626666D01*
X185062830Y-95626666D02*
X185110450Y-95660000D01*
X185110450Y-95660000D02*
X185158069Y-95726666D01*
X185158069Y-95726666D02*
X185158069Y-95860000D01*
X185158069Y-95860000D02*
X185110450Y-95926666D01*
X185110450Y-95926666D02*
X185062830Y-95960000D01*
X185062830Y-95960000D02*
X184967592Y-95993333D01*
X184967592Y-95993333D02*
X184729497Y-95993333D01*
X184729497Y-95993333D02*
X184634259Y-95960000D01*
X184634259Y-95960000D02*
X184586640Y-95926666D01*
X184586640Y-95926666D02*
X184539021Y-95860000D01*
X184539021Y-95860000D02*
X184539021Y-95726666D01*
X184539021Y-95726666D02*
X184586640Y-95660000D01*
X184586640Y-95660000D02*
X184634259Y-95626666D01*
X184634259Y-95626666D02*
X184729497Y-95593333D01*
X200900000Y-90258069D02*
X201133333Y-89781878D01*
X201300000Y-90258069D02*
X201300000Y-89258069D01*
X201300000Y-89258069D02*
X201033333Y-89258069D01*
X201033333Y-89258069D02*
X200966667Y-89305688D01*
X200966667Y-89305688D02*
X200933333Y-89353307D01*
X200933333Y-89353307D02*
X200900000Y-89448545D01*
X200900000Y-89448545D02*
X200900000Y-89591402D01*
X200900000Y-89591402D02*
X200933333Y-89686640D01*
X200933333Y-89686640D02*
X200966667Y-89734259D01*
X200966667Y-89734259D02*
X201033333Y-89781878D01*
X201033333Y-89781878D02*
X201300000Y-89781878D01*
X200633333Y-89353307D02*
X200600000Y-89305688D01*
X200600000Y-89305688D02*
X200533333Y-89258069D01*
X200533333Y-89258069D02*
X200366667Y-89258069D01*
X200366667Y-89258069D02*
X200300000Y-89305688D01*
X200300000Y-89305688D02*
X200266667Y-89353307D01*
X200266667Y-89353307D02*
X200233333Y-89448545D01*
X200233333Y-89448545D02*
X200233333Y-89543783D01*
X200233333Y-89543783D02*
X200266667Y-89686640D01*
X200266667Y-89686640D02*
X200666667Y-90258069D01*
X200666667Y-90258069D02*
X200233333Y-90258069D01*
X199566666Y-90258069D02*
X199966666Y-90258069D01*
X199766666Y-90258069D02*
X199766666Y-89258069D01*
X199766666Y-89258069D02*
X199833333Y-89400926D01*
X199833333Y-89400926D02*
X199900000Y-89496164D01*
X199900000Y-89496164D02*
X199966666Y-89543783D01*
X136721666Y-72630569D02*
X136721666Y-73344854D01*
X136721666Y-73344854D02*
X136754999Y-73487711D01*
X136754999Y-73487711D02*
X136821666Y-73582950D01*
X136821666Y-73582950D02*
X136921666Y-73630569D01*
X136921666Y-73630569D02*
X136988333Y-73630569D01*
X136455000Y-72630569D02*
X136021666Y-72630569D01*
X136021666Y-72630569D02*
X136255000Y-73011521D01*
X136255000Y-73011521D02*
X136155000Y-73011521D01*
X136155000Y-73011521D02*
X136088333Y-73059140D01*
X136088333Y-73059140D02*
X136055000Y-73106759D01*
X136055000Y-73106759D02*
X136021666Y-73201997D01*
X136021666Y-73201997D02*
X136021666Y-73440092D01*
X136021666Y-73440092D02*
X136055000Y-73535330D01*
X136055000Y-73535330D02*
X136088333Y-73582950D01*
X136088333Y-73582950D02*
X136155000Y-73630569D01*
X136155000Y-73630569D02*
X136355000Y-73630569D01*
X136355000Y-73630569D02*
X136421666Y-73582950D01*
X136421666Y-73582950D02*
X136455000Y-73535330D01*
X135588333Y-72630569D02*
X135521666Y-72630569D01*
X135521666Y-72630569D02*
X135454999Y-72678188D01*
X135454999Y-72678188D02*
X135421666Y-72725807D01*
X135421666Y-72725807D02*
X135388333Y-72821045D01*
X135388333Y-72821045D02*
X135354999Y-73011521D01*
X135354999Y-73011521D02*
X135354999Y-73249616D01*
X135354999Y-73249616D02*
X135388333Y-73440092D01*
X135388333Y-73440092D02*
X135421666Y-73535330D01*
X135421666Y-73535330D02*
X135454999Y-73582950D01*
X135454999Y-73582950D02*
X135521666Y-73630569D01*
X135521666Y-73630569D02*
X135588333Y-73630569D01*
X135588333Y-73630569D02*
X135654999Y-73582950D01*
X135654999Y-73582950D02*
X135688333Y-73535330D01*
X135688333Y-73535330D02*
X135721666Y-73440092D01*
X135721666Y-73440092D02*
X135754999Y-73249616D01*
X135754999Y-73249616D02*
X135754999Y-73011521D01*
X135754999Y-73011521D02*
X135721666Y-72821045D01*
X135721666Y-72821045D02*
X135688333Y-72725807D01*
X135688333Y-72725807D02*
X135654999Y-72678188D01*
X135654999Y-72678188D02*
X135588333Y-72630569D01*
X179221666Y-106938069D02*
X179454999Y-106461878D01*
X179621666Y-106938069D02*
X179621666Y-105938069D01*
X179621666Y-105938069D02*
X179354999Y-105938069D01*
X179354999Y-105938069D02*
X179288333Y-105985688D01*
X179288333Y-105985688D02*
X179254999Y-106033307D01*
X179254999Y-106033307D02*
X179221666Y-106128545D01*
X179221666Y-106128545D02*
X179221666Y-106271402D01*
X179221666Y-106271402D02*
X179254999Y-106366640D01*
X179254999Y-106366640D02*
X179288333Y-106414259D01*
X179288333Y-106414259D02*
X179354999Y-106461878D01*
X179354999Y-106461878D02*
X179621666Y-106461878D01*
X178954999Y-106033307D02*
X178921666Y-105985688D01*
X178921666Y-105985688D02*
X178854999Y-105938069D01*
X178854999Y-105938069D02*
X178688333Y-105938069D01*
X178688333Y-105938069D02*
X178621666Y-105985688D01*
X178621666Y-105985688D02*
X178588333Y-106033307D01*
X178588333Y-106033307D02*
X178554999Y-106128545D01*
X178554999Y-106128545D02*
X178554999Y-106223783D01*
X178554999Y-106223783D02*
X178588333Y-106366640D01*
X178588333Y-106366640D02*
X178988333Y-106938069D01*
X178988333Y-106938069D02*
X178554999Y-106938069D01*
X118442718Y-99808069D02*
X118676051Y-99331878D01*
X118842718Y-99808069D02*
X118842718Y-98808069D01*
X118842718Y-98808069D02*
X118576051Y-98808069D01*
X118576051Y-98808069D02*
X118509385Y-98855688D01*
X118509385Y-98855688D02*
X118476051Y-98903307D01*
X118476051Y-98903307D02*
X118442718Y-98998545D01*
X118442718Y-98998545D02*
X118442718Y-99141402D01*
X118442718Y-99141402D02*
X118476051Y-99236640D01*
X118476051Y-99236640D02*
X118509385Y-99284259D01*
X118509385Y-99284259D02*
X118576051Y-99331878D01*
X118576051Y-99331878D02*
X118842718Y-99331878D01*
X117776051Y-99808069D02*
X118176051Y-99808069D01*
X117976051Y-99808069D02*
X117976051Y-98808069D01*
X117976051Y-98808069D02*
X118042718Y-98950926D01*
X118042718Y-98950926D02*
X118109385Y-99046164D01*
X118109385Y-99046164D02*
X118176051Y-99093783D01*
X117176051Y-99141402D02*
X117176051Y-99808069D01*
X117342718Y-98760450D02*
X117509384Y-99474735D01*
X117509384Y-99474735D02*
X117076051Y-99474735D01*
X122693333Y-96008069D02*
X122693333Y-96817592D01*
X122693333Y-96817592D02*
X122660000Y-96912830D01*
X122660000Y-96912830D02*
X122626666Y-96960450D01*
X122626666Y-96960450D02*
X122560000Y-97008069D01*
X122560000Y-97008069D02*
X122426666Y-97008069D01*
X122426666Y-97008069D02*
X122360000Y-96960450D01*
X122360000Y-96960450D02*
X122326666Y-96912830D01*
X122326666Y-96912830D02*
X122293333Y-96817592D01*
X122293333Y-96817592D02*
X122293333Y-96008069D01*
X121593333Y-97008069D02*
X121993333Y-97008069D01*
X121793333Y-97008069D02*
X121793333Y-96008069D01*
X121793333Y-96008069D02*
X121860000Y-96150926D01*
X121860000Y-96150926D02*
X121926667Y-96246164D01*
X121926667Y-96246164D02*
X121993333Y-96293783D01*
X123692718Y-101408069D02*
X123926051Y-100931878D01*
X124092718Y-101408069D02*
X124092718Y-100408069D01*
X124092718Y-100408069D02*
X123826051Y-100408069D01*
X123826051Y-100408069D02*
X123759385Y-100455688D01*
X123759385Y-100455688D02*
X123726051Y-100503307D01*
X123726051Y-100503307D02*
X123692718Y-100598545D01*
X123692718Y-100598545D02*
X123692718Y-100741402D01*
X123692718Y-100741402D02*
X123726051Y-100836640D01*
X123726051Y-100836640D02*
X123759385Y-100884259D01*
X123759385Y-100884259D02*
X123826051Y-100931878D01*
X123826051Y-100931878D02*
X124092718Y-100931878D01*
X123026051Y-101408069D02*
X123426051Y-101408069D01*
X123226051Y-101408069D02*
X123226051Y-100408069D01*
X123226051Y-100408069D02*
X123292718Y-100550926D01*
X123292718Y-100550926D02*
X123359385Y-100646164D01*
X123359385Y-100646164D02*
X123426051Y-100693783D01*
X122759384Y-100503307D02*
X122726051Y-100455688D01*
X122726051Y-100455688D02*
X122659384Y-100408069D01*
X122659384Y-100408069D02*
X122492718Y-100408069D01*
X122492718Y-100408069D02*
X122426051Y-100455688D01*
X122426051Y-100455688D02*
X122392718Y-100503307D01*
X122392718Y-100503307D02*
X122359384Y-100598545D01*
X122359384Y-100598545D02*
X122359384Y-100693783D01*
X122359384Y-100693783D02*
X122392718Y-100836640D01*
X122392718Y-100836640D02*
X122792718Y-101408069D01*
X122792718Y-101408069D02*
X122359384Y-101408069D01*
D12*
X181259580Y-110633333D02*
X181307200Y-110585714D01*
X181307200Y-110585714D02*
X181354819Y-110442857D01*
X181354819Y-110442857D02*
X181354819Y-110347619D01*
X181354819Y-110347619D02*
X181307200Y-110204762D01*
X181307200Y-110204762D02*
X181211961Y-110109524D01*
X181211961Y-110109524D02*
X181116723Y-110061905D01*
X181116723Y-110061905D02*
X180926247Y-110014286D01*
X180926247Y-110014286D02*
X180783390Y-110014286D01*
X180783390Y-110014286D02*
X180592914Y-110061905D01*
X180592914Y-110061905D02*
X180497676Y-110109524D01*
X180497676Y-110109524D02*
X180402438Y-110204762D01*
X180402438Y-110204762D02*
X180354819Y-110347619D01*
X180354819Y-110347619D02*
X180354819Y-110442857D01*
X180354819Y-110442857D02*
X180402438Y-110585714D01*
X180402438Y-110585714D02*
X180450057Y-110633333D01*
X180450057Y-111014286D02*
X180402438Y-111061905D01*
X180402438Y-111061905D02*
X180354819Y-111157143D01*
X180354819Y-111157143D02*
X180354819Y-111395238D01*
X180354819Y-111395238D02*
X180402438Y-111490476D01*
X180402438Y-111490476D02*
X180450057Y-111538095D01*
X180450057Y-111538095D02*
X180545295Y-111585714D01*
X180545295Y-111585714D02*
X180640533Y-111585714D01*
X180640533Y-111585714D02*
X180783390Y-111538095D01*
X180783390Y-111538095D02*
X181354819Y-110966667D01*
X181354819Y-110966667D02*
X181354819Y-111585714D01*
%LPC*%
D13*
%TO.C,J20*%
X161955000Y-96750000D03*
D14*
X161955000Y-94210000D03*
X164495000Y-96750000D03*
X164495000Y-94210000D03*
X167035000Y-96750000D03*
X167035000Y-94210000D03*
X169575000Y-96750000D03*
X169575000Y-94210000D03*
%TD*%
D13*
%TO.C,J1*%
X177160000Y-109760000D03*
D14*
X177160000Y-107220000D03*
X177160000Y-104680000D03*
X177160000Y-102140000D03*
%TD*%
D15*
%TO.C,TopLeft*%
X85260000Y-57700000D03*
%TD*%
%TO.C,TopRight*%
X223860000Y-57100000D03*
%TD*%
D16*
%TO.C,J4*%
X90510000Y-66750000D03*
D17*
X90510000Y-71830000D03*
X90510000Y-76910000D03*
X90510000Y-81990000D03*
%TD*%
D13*
%TO.C,J16*%
X190060000Y-102280000D03*
D14*
X190060000Y-104820000D03*
X190060000Y-107360000D03*
X190060000Y-109900000D03*
%TD*%
D13*
%TO.C,J11*%
X111615000Y-81675000D03*
D14*
X111615000Y-79135000D03*
%TD*%
D13*
%TO.C,J8*%
X162105000Y-57050000D03*
D14*
X162105000Y-59590000D03*
X159565000Y-57050000D03*
X159565000Y-59590000D03*
X157025000Y-57050000D03*
X157025000Y-59590000D03*
X154485000Y-57050000D03*
X154485000Y-59590000D03*
%TD*%
D13*
%TO.C,J27*%
X135365000Y-95350000D03*
%TD*%
%TO.C,J22*%
X136686250Y-101180000D03*
D14*
X136686250Y-103720000D03*
X136686250Y-106260000D03*
X136686250Y-108800000D03*
%TD*%
D18*
%TO.C,D4*%
X112475000Y-109750000D03*
D19*
X104855000Y-109750000D03*
%TD*%
D15*
%TO.C,BottomLeft*%
X85310000Y-117050000D03*
%TD*%
D13*
%TO.C,J29*%
X190920000Y-93250000D03*
D14*
X193460000Y-93250000D03*
%TD*%
D13*
%TO.C,J3*%
X98315000Y-77920000D03*
D14*
X98315000Y-75380000D03*
X98315000Y-72840000D03*
X98315000Y-70300000D03*
%TD*%
D13*
%TO.C,J26*%
X201510000Y-104160000D03*
%TD*%
D20*
%TO.C,K2*%
X203710000Y-86360000D03*
D21*
X215710000Y-86360000D03*
D22*
X209710000Y-88360000D03*
D21*
X203710000Y-74160000D03*
X215710000Y-74160000D03*
%TD*%
D13*
%TO.C,J2*%
X117750000Y-71070000D03*
D14*
X117750000Y-73610000D03*
X117750000Y-76150000D03*
X117750000Y-78690000D03*
%TD*%
D13*
%TO.C,J5*%
X214785000Y-113850000D03*
D14*
X217325000Y-113850000D03*
%TD*%
D13*
%TO.C,J24*%
X180100000Y-58950000D03*
D14*
X177560000Y-58950000D03*
X175020000Y-58950000D03*
%TD*%
D13*
%TO.C,J9*%
X220550000Y-92260000D03*
D14*
X220550000Y-94800000D03*
X220550000Y-97340000D03*
%TD*%
D15*
%TO.C,BottomRight*%
X224300000Y-116800000D03*
%TD*%
D13*
%TO.C,J25*%
X149525000Y-93150000D03*
D14*
X152065000Y-93150000D03*
X154605000Y-93150000D03*
%TD*%
D13*
%TO.C,J14*%
X127500000Y-106440000D03*
D14*
X127500000Y-103900000D03*
X127500000Y-101360000D03*
%TD*%
D13*
%TO.C,J12*%
X211910000Y-101060000D03*
D14*
X214450000Y-101060000D03*
X216990000Y-101060000D03*
%TD*%
D13*
%TO.C,J17*%
X214820000Y-108750000D03*
D14*
X217360000Y-108750000D03*
X219900000Y-108750000D03*
%TD*%
D13*
%TO.C,J21*%
X123420000Y-84900000D03*
D14*
X125960000Y-84900000D03*
X128500000Y-84900000D03*
X131040000Y-84900000D03*
%TD*%
D16*
%TO.C,J6*%
X90192500Y-99165000D03*
D17*
X90192500Y-104245000D03*
X90192500Y-109325000D03*
%TD*%
D13*
%TO.C,J7*%
X119165000Y-92250000D03*
D14*
X121705000Y-92250000D03*
X124245000Y-92250000D03*
%TD*%
D23*
%TO.C,J18*%
X161965000Y-113600000D03*
D17*
X167045000Y-113600000D03*
%TD*%
D13*
%TO.C,J28*%
X185010000Y-59000000D03*
%TD*%
D24*
%TO.C,U3*%
X193040000Y-64270000D03*
X146090000Y-64270000D03*
X193040000Y-88780000D03*
X146090000Y-88780000D03*
D25*
X185080000Y-63850000D03*
D26*
X182540000Y-63850000D03*
X180000000Y-63850000D03*
X177460000Y-63850000D03*
X174920000Y-63850000D03*
X172380000Y-63850000D03*
X169840000Y-63850000D03*
X167300000Y-63850000D03*
X164760000Y-63850000D03*
X162220000Y-63850000D03*
X159680000Y-63850000D03*
X157140000Y-63850000D03*
X154600000Y-63850000D03*
X152060000Y-63850000D03*
X149520000Y-63850000D03*
X149520000Y-89250000D03*
X152060000Y-89250000D03*
X154600000Y-89250000D03*
X157140000Y-89250000D03*
X159680000Y-89250000D03*
X162220000Y-89250000D03*
X164760000Y-89250000D03*
X167300000Y-89250000D03*
X169840000Y-89250000D03*
X172380000Y-89250000D03*
X174920000Y-89250000D03*
X177460000Y-89250000D03*
X180000000Y-89250000D03*
X182540000Y-89250000D03*
X185080000Y-89250000D03*
%TD*%
D27*
%TO.C,D7*%
X204710000Y-91734999D03*
D19*
X204710000Y-99354999D03*
%TD*%
D28*
%TO.C,K1*%
X112465000Y-105850000D03*
D21*
X112465000Y-93850000D03*
D22*
X114465000Y-99850000D03*
D21*
X100265000Y-105850000D03*
X100265000Y-93850000D03*
%TD*%
D13*
%TO.C,J15*%
X94065000Y-93850000D03*
D14*
X91525000Y-93850000D03*
X88985000Y-93850000D03*
%TD*%
D13*
%TO.C,J13*%
X219610000Y-74060000D03*
D14*
X219610000Y-76600000D03*
X219610000Y-79140000D03*
%TD*%
D29*
%TO.C,Q1*%
X117825000Y-103550000D03*
D30*
X119095000Y-102280000D03*
X120365000Y-103550000D03*
%TD*%
D13*
%TO.C,J23*%
X174565000Y-95650000D03*
%TD*%
D31*
%TO.C,J10*%
X217260000Y-64400000D03*
D17*
X212180000Y-64400000D03*
X207100000Y-64400000D03*
%TD*%
D31*
%TO.C,J30*%
X138700000Y-73250000D03*
D17*
X133620000Y-73250000D03*
%TD*%
D32*
%TO.C,J19*%
X151450000Y-104400000D03*
D33*
X151450000Y-110700000D03*
D34*
X156250000Y-107300000D03*
%TD*%
D29*
%TO.C,Q2*%
X208540000Y-92064999D03*
D30*
X209810000Y-93334999D03*
X208540000Y-94604999D03*
%TD*%
%LPD*%
M02*
