%TF.GenerationSoftware,KiCad,Pcbnew,9.0.7-9.0.7~ubuntu24.04.1*%
%TF.CreationDate,2026-02-19T12:27:10-05:00*%
%TF.ProjectId,plantPartner_PCB1.0,706c616e-7450-4617-9274-6e65725f5043,rev?*%
%TF.SameCoordinates,Original*%
%TF.FileFunction,Soldermask,Top*%
%TF.FilePolarity,Negative*%
%FSLAX46Y46*%
G04 Gerber Fmt 4.6, Leading zero omitted, Abs format (unit mm)*
G04 Created by KiCad (PCBNEW 9.0.7-9.0.7~ubuntu24.04.1) date 2026-02-19 12:27:10*
%MOMM*%
%LPD*%
G01*
G04 APERTURE LIST*
G04 Aperture macros list*
%AMRoundRect*
0 Rectangle with rounded corners*
0 $1 Rounding radius*
0 $2 $3 $4 $5 $6 $7 $8 $9 X,Y pos of 4 corners*
0 Add a 4 corners polygon primitive as box body*
4,1,4,$2,$3,$4,$5,$6,$7,$8,$9,$2,$3,0*
0 Add four circle primitives for the rounded corners*
1,1,$1+$1,$2,$3*
1,1,$1+$1,$4,$5*
1,1,$1+$1,$6,$7*
1,1,$1+$1,$8,$9*
0 Add four rect primitives between the rounded corners*
20,1,$1+$1,$2,$3,$4,$5,0*
20,1,$1+$1,$4,$5,$6,$7,0*
20,1,$1+$1,$6,$7,$8,$9,0*
20,1,$1+$1,$8,$9,$2,$3,0*%
G04 Aperture macros list end*
%ADD10RoundRect,0.100000X0.100000X-0.130000X0.100000X0.130000X-0.100000X0.130000X-0.100000X-0.130000X0*%
%ADD11R,1.700000X1.700000*%
%ADD12C,1.700000*%
%ADD13RoundRect,0.100000X-0.100000X0.130000X-0.100000X-0.130000X0.100000X-0.130000X0.100000X0.130000X0*%
%ADD14RoundRect,0.100000X-0.130000X-0.100000X0.130000X-0.100000X0.130000X0.100000X-0.130000X0.100000X0*%
%ADD15RoundRect,0.250000X1.050000X1.050000X-1.050000X1.050000X-1.050000X-1.050000X1.050000X-1.050000X0*%
%ADD16C,2.600000*%
%ADD17RoundRect,0.250000X-1.050000X1.050000X-1.050000X-1.050000X1.050000X-1.050000X1.050000X1.050000X0*%
%ADD18RoundRect,0.250000X-1.000000X-0.650000X1.000000X-0.650000X1.000000X0.650000X-1.000000X0.650000X0*%
%ADD19RoundRect,0.250000X0.650000X0.650000X-0.650000X0.650000X-0.650000X-0.650000X0.650000X-0.650000X0*%
%ADD20C,1.800000*%
%ADD21RoundRect,0.102000X1.104900X-0.304800X1.104900X0.304800X-1.104900X0.304800X-1.104900X-0.304800X0*%
%ADD22RoundRect,0.100000X0.130000X0.100000X-0.130000X0.100000X-0.130000X-0.100000X0.130000X-0.100000X0*%
%ADD23RoundRect,0.102000X0.990000X-0.990000X0.990000X0.990000X-0.990000X0.990000X-0.990000X-0.990000X0*%
%ADD24C,2.184000*%
%ADD25C,2.139000*%
%ADD26RoundRect,0.102000X0.300000X-0.750000X0.300000X0.750000X-0.300000X0.750000X-0.300000X-0.750000X0*%
%ADD27RoundRect,0.150000X-0.587500X-0.150000X0.587500X-0.150000X0.587500X0.150000X-0.587500X0.150000X0*%
%ADD28RoundRect,0.050800X-0.350000X-0.125000X0.350000X-0.125000X0.350000X0.125000X-0.350000X0.125000X0*%
%ADD29RoundRect,0.050800X-0.550000X-0.125000X0.550000X-0.125000X0.550000X0.125000X-0.550000X0.125000X0*%
%ADD30RoundRect,0.050800X0.125000X-0.350000X0.125000X0.350000X-0.125000X0.350000X-0.125000X-0.350000X0*%
%ADD31RoundRect,0.050800X0.125000X-0.550000X0.125000X0.550000X-0.125000X0.550000X-0.125000X-0.550000X0*%
%ADD32RoundRect,0.250000X-1.050000X-1.050000X1.050000X-1.050000X1.050000X1.050000X-1.050000X1.050000X0*%
%ADD33RoundRect,0.102000X-1.000000X1.000000X-1.000000X-1.000000X1.000000X-1.000000X1.000000X1.000000X0*%
%ADD34C,2.204000*%
%ADD35RoundRect,0.250000X-0.650000X0.650000X-0.650000X-0.650000X0.650000X-0.650000X0.650000X0.650000X0*%
%ADD36RoundRect,0.102000X0.990000X0.990000X-0.990000X0.990000X-0.990000X-0.990000X0.990000X-0.990000X0*%
%ADD37R,1.300000X1.300000*%
%ADD38C,1.300000*%
%ADD39R,4.600000X2.000000*%
%ADD40O,4.200000X2.000000*%
%ADD41O,2.000000X4.200000*%
%ADD42RoundRect,0.102000X0.750000X0.300000X-0.750000X0.300000X-0.750000X-0.300000X0.750000X-0.300000X0*%
G04 APERTURE END LIST*
D10*
%TO.C,C1*%
X169090000Y-107560000D03*
X169090000Y-106920000D03*
%TD*%
%TO.C,R19*%
X195800000Y-91020000D03*
X195800000Y-90380000D03*
%TD*%
D11*
%TO.C,J20*%
X144995000Y-95800000D03*
D12*
X144995000Y-93260000D03*
X147535000Y-95800000D03*
X147535000Y-93260000D03*
X150075000Y-95800000D03*
X150075000Y-93260000D03*
X152615000Y-95800000D03*
X152615000Y-93260000D03*
%TD*%
D13*
%TO.C,D11*%
X166400000Y-90600000D03*
X166400000Y-91240000D03*
%TD*%
D14*
%TO.C,D3*%
X100405000Y-106000000D03*
X101045000Y-106000000D03*
%TD*%
D13*
%TO.C,R13*%
X110250000Y-96235000D03*
X110250000Y-96875000D03*
%TD*%
D14*
%TO.C,R22*%
X157265000Y-90500000D03*
X157905000Y-90500000D03*
%TD*%
D13*
%TO.C,R27*%
X117487500Y-81230000D03*
X117487500Y-81870000D03*
%TD*%
D15*
%TO.C,J30*%
X121745000Y-72327500D03*
D16*
X116665000Y-72327500D03*
%TD*%
D11*
%TO.C,J1*%
X160200000Y-108810000D03*
D12*
X160200000Y-106270000D03*
X160200000Y-103730000D03*
X160200000Y-101190000D03*
%TD*%
D13*
%TO.C,D5*%
X190610000Y-95830000D03*
X190610000Y-96470000D03*
%TD*%
D10*
%TO.C,R5*%
X97088800Y-73180000D03*
X97088800Y-72540000D03*
%TD*%
D17*
%TO.C,J4*%
X73550000Y-65800000D03*
D16*
X73550000Y-70880000D03*
X73550000Y-75960000D03*
X73550000Y-81040000D03*
%TD*%
D10*
%TO.C,R6*%
X96388800Y-73185000D03*
X96388800Y-72545000D03*
%TD*%
D11*
%TO.C,J16*%
X173100000Y-101330000D03*
D12*
X173100000Y-103870000D03*
X173100000Y-106410000D03*
X173100000Y-108950000D03*
%TD*%
D13*
%TO.C,R25*%
X117500000Y-79530000D03*
X117500000Y-80170000D03*
%TD*%
D18*
%TO.C,D8*%
X132290000Y-96972500D03*
X136290000Y-96972500D03*
%TD*%
D11*
%TO.C,J11*%
X94655000Y-80725000D03*
D12*
X94655000Y-78185000D03*
%TD*%
D10*
%TO.C,R11*%
X87638800Y-73435000D03*
X87638800Y-72795000D03*
%TD*%
D18*
%TO.C,D9*%
X145855000Y-101922500D03*
X149855000Y-101922500D03*
%TD*%
D11*
%TO.C,J8*%
X145145000Y-56100000D03*
D12*
X145145000Y-58640000D03*
X142605000Y-56100000D03*
X142605000Y-58640000D03*
X140065000Y-56100000D03*
X140065000Y-58640000D03*
X137525000Y-56100000D03*
X137525000Y-58640000D03*
%TD*%
D11*
%TO.C,J27*%
X118405000Y-94400000D03*
%TD*%
%TO.C,J22*%
X119726250Y-100230000D03*
D12*
X119726250Y-102770000D03*
X119726250Y-105310000D03*
X119726250Y-107850000D03*
%TD*%
D19*
%TO.C,D4*%
X95515000Y-108800000D03*
D20*
X87895000Y-108800000D03*
%TD*%
D11*
%TO.C,J29*%
X173960000Y-92300000D03*
D12*
X176500000Y-92300000D03*
%TD*%
D21*
%TO.C,U2*%
X94755000Y-75020000D03*
X94755000Y-73750000D03*
X94755000Y-72480000D03*
X94755000Y-71210000D03*
X89522600Y-71210000D03*
X89522600Y-72480000D03*
X89522600Y-73750000D03*
X89522600Y-75020000D03*
%TD*%
D11*
%TO.C,J3*%
X81355000Y-76970000D03*
D12*
X81355000Y-74430000D03*
X81355000Y-71890000D03*
X81355000Y-69350000D03*
%TD*%
D14*
%TO.C,D1*%
X91190000Y-68950000D03*
X91830000Y-68950000D03*
%TD*%
D11*
%TO.C,J26*%
X184550000Y-103210000D03*
%TD*%
D22*
%TO.C,R24*%
X197120000Y-110400000D03*
X196480000Y-110400000D03*
%TD*%
D14*
%TO.C,R15*%
X101730000Y-99400000D03*
X102370000Y-99400000D03*
%TD*%
D23*
%TO.C,K2*%
X186750000Y-85410000D03*
D24*
X198750000Y-85410000D03*
D25*
X192750000Y-87410000D03*
D24*
X186750000Y-73210000D03*
X198750000Y-73210000D03*
%TD*%
D13*
%TO.C,R7*%
X96488800Y-70450000D03*
X96488800Y-71090000D03*
%TD*%
D11*
%TO.C,J2*%
X99388800Y-70115000D03*
D12*
X99388800Y-72655000D03*
X99388800Y-75195000D03*
X99388800Y-77735000D03*
%TD*%
D10*
%TO.C,R23*%
X155370000Y-60525000D03*
X155370000Y-59885000D03*
%TD*%
D22*
%TO.C,D2*%
X105980000Y-101700000D03*
X105340000Y-101700000D03*
%TD*%
D11*
%TO.C,J5*%
X197825000Y-112900000D03*
D12*
X200365000Y-112900000D03*
%TD*%
D22*
%TO.C,D6*%
X185660000Y-90694999D03*
X185020000Y-90694999D03*
%TD*%
D13*
%TO.C,R9*%
X87688800Y-74195000D03*
X87688800Y-74835000D03*
%TD*%
D11*
%TO.C,J24*%
X163140000Y-58000000D03*
D12*
X160600000Y-58000000D03*
X158060000Y-58000000D03*
%TD*%
D26*
%TO.C,U4*%
X197310000Y-96759999D03*
X199850000Y-96759999D03*
X199850000Y-90409999D03*
X197310000Y-90409999D03*
%TD*%
D11*
%TO.C,J9*%
X202950000Y-91210000D03*
D12*
X202950000Y-93750000D03*
X202950000Y-96290000D03*
%TD*%
D10*
%TO.C,R10*%
X86888800Y-73435000D03*
X86888800Y-72795000D03*
%TD*%
D22*
%TO.C,R3*%
X164210000Y-104900000D03*
X163570000Y-104900000D03*
%TD*%
D11*
%TO.C,J25*%
X132565000Y-92200000D03*
D12*
X135105000Y-92200000D03*
X137645000Y-92200000D03*
%TD*%
D13*
%TO.C,R18*%
X195750000Y-96135000D03*
X195750000Y-96775000D03*
%TD*%
D11*
%TO.C,J14*%
X108305000Y-105040000D03*
D12*
X108305000Y-102500000D03*
X108305000Y-99960000D03*
%TD*%
D11*
%TO.C,J12*%
X194950000Y-100110000D03*
D12*
X197490000Y-100110000D03*
X200030000Y-100110000D03*
%TD*%
D11*
%TO.C,J17*%
X197860000Y-107800000D03*
D12*
X200400000Y-107800000D03*
X202940000Y-107800000D03*
%TD*%
D11*
%TO.C,J21*%
X105695000Y-83100000D03*
D12*
X108235000Y-83100000D03*
X110775000Y-83100000D03*
X113315000Y-83100000D03*
%TD*%
D17*
%TO.C,J6*%
X73232500Y-98215000D03*
D16*
X73232500Y-103295000D03*
X73232500Y-108375000D03*
%TD*%
D27*
%TO.C,Q4*%
X119012500Y-79800000D03*
X119012500Y-81700000D03*
X120887500Y-80750000D03*
%TD*%
D22*
%TO.C,C4*%
X89140000Y-66450000D03*
X88500000Y-66450000D03*
%TD*%
D11*
%TO.C,J7*%
X102205000Y-91300000D03*
D12*
X104745000Y-91300000D03*
X107285000Y-91300000D03*
%TD*%
D13*
%TO.C,R4*%
X96288800Y-74395000D03*
X96288800Y-75035000D03*
%TD*%
D28*
%TO.C,IC1*%
X165150000Y-105920000D03*
D29*
X165350000Y-106570000D03*
X165350000Y-107220000D03*
D28*
X165150000Y-107870000D03*
X165150000Y-108720000D03*
X165150000Y-109570000D03*
X168050000Y-109570000D03*
X168050000Y-108720000D03*
X168050000Y-107870000D03*
D29*
X167850000Y-107220000D03*
X167850000Y-106570000D03*
D28*
X168050000Y-105920000D03*
D30*
X167850000Y-105020000D03*
X167350000Y-105020000D03*
D31*
X166850000Y-105220000D03*
X166350000Y-105220000D03*
D30*
X165850000Y-105020000D03*
X165350000Y-105020000D03*
%TD*%
D32*
%TO.C,J18*%
X144855000Y-109472500D03*
D16*
X149935000Y-109472500D03*
%TD*%
D11*
%TO.C,J28*%
X168050000Y-58050000D03*
%TD*%
D22*
%TO.C,R1*%
X166520000Y-104170000D03*
X165880000Y-104170000D03*
%TD*%
D33*
%TO.C,U3*%
X168120000Y-62900000D03*
D34*
X165580000Y-62900000D03*
X163040000Y-62900000D03*
X160500000Y-62900000D03*
X157960000Y-62900000D03*
X155420000Y-62900000D03*
X152880000Y-62900000D03*
X150340000Y-62900000D03*
X147800000Y-62900000D03*
X145260000Y-62900000D03*
X142720000Y-62900000D03*
X140180000Y-62900000D03*
X137640000Y-62900000D03*
X135100000Y-62900000D03*
X132560000Y-62900000D03*
X132560000Y-88300000D03*
X135100000Y-88300000D03*
X137640000Y-88300000D03*
X140180000Y-88300000D03*
X142720000Y-88300000D03*
X145260000Y-88300000D03*
X147800000Y-88300000D03*
X150340000Y-88300000D03*
X152880000Y-88300000D03*
X155420000Y-88300000D03*
X157960000Y-88300000D03*
X160500000Y-88300000D03*
X163040000Y-88300000D03*
X165580000Y-88300000D03*
X168120000Y-88300000D03*
%TD*%
D14*
%TO.C,R16*%
X100380000Y-105130000D03*
X101020000Y-105130000D03*
%TD*%
D35*
%TO.C,D7*%
X187750000Y-90784999D03*
D20*
X187750000Y-98404999D03*
%TD*%
D13*
%TO.C,R17*%
X191350000Y-95835000D03*
X191350000Y-96475000D03*
%TD*%
D36*
%TO.C,K1*%
X95505000Y-104900000D03*
D24*
X95505000Y-92900000D03*
D25*
X97505000Y-98900000D03*
D24*
X83305000Y-104900000D03*
X83305000Y-92900000D03*
%TD*%
D11*
%TO.C,J15*%
X77105000Y-92900000D03*
D12*
X74565000Y-92900000D03*
X72025000Y-92900000D03*
%TD*%
D22*
%TO.C,D10*%
X157900000Y-91200000D03*
X157260000Y-91200000D03*
%TD*%
D11*
%TO.C,J13*%
X202650000Y-73110000D03*
D12*
X202650000Y-75650000D03*
X202650000Y-78190000D03*
%TD*%
D37*
%TO.C,Q1*%
X100865000Y-102600000D03*
D38*
X102135000Y-101330000D03*
X103405000Y-102600000D03*
%TD*%
D13*
%TO.C,R20*%
X194960000Y-90380000D03*
X194960000Y-91020000D03*
%TD*%
%TO.C,R26*%
X167300000Y-90600000D03*
X167300000Y-91240000D03*
%TD*%
D11*
%TO.C,J23*%
X157605000Y-93800000D03*
%TD*%
D22*
%TO.C,R21*%
X185655000Y-89984999D03*
X185015000Y-89984999D03*
%TD*%
D15*
%TO.C,J10*%
X200300000Y-63450000D03*
D16*
X195220000Y-63450000D03*
X190140000Y-63450000D03*
%TD*%
D14*
%TO.C,R8*%
X91210000Y-66450000D03*
X91850000Y-66450000D03*
%TD*%
D22*
%TO.C,C3*%
X89140000Y-68950000D03*
X88500000Y-68950000D03*
%TD*%
D39*
%TO.C,J19*%
X134340000Y-100272500D03*
D40*
X134340000Y-106572500D03*
D41*
X139140000Y-103172500D03*
%TD*%
D14*
%TO.C,R2*%
X163725000Y-105820000D03*
X164365000Y-105820000D03*
%TD*%
D22*
%TO.C,R14*%
X103925000Y-99400000D03*
X103285000Y-99400000D03*
%TD*%
D42*
%TO.C,U1*%
X108108000Y-96870000D03*
X108108000Y-94330000D03*
X101758000Y-94330000D03*
X101758000Y-96870000D03*
%TD*%
D22*
%TO.C,R12*%
X105975000Y-101000000D03*
X105335000Y-101000000D03*
%TD*%
D37*
%TO.C,Q2*%
X191580000Y-91114999D03*
D38*
X192850000Y-92384999D03*
X191580000Y-93654999D03*
%TD*%
D13*
%TO.C,C2*%
X164090000Y-106670000D03*
X164090000Y-107310000D03*
%TD*%
M02*
