%TF.GenerationSoftware,KiCad,Pcbnew,9.0.7-9.0.7~ubuntu24.04.1*%
%TF.CreationDate,2026-02-20T15:38:25-05:00*%
%TF.ProjectId,plantPartner_PCB1.0,706c616e-7450-4617-9274-6e65725f5043,rev?*%
%TF.SameCoordinates,Original*%
%TF.FileFunction,Paste,Top*%
%TF.FilePolarity,Positive*%
%FSLAX46Y46*%
G04 Gerber Fmt 4.6, Leading zero omitted, Abs format (unit mm)*
G04 Created by KiCad (PCBNEW 9.0.7-9.0.7~ubuntu24.04.1) date 2026-02-20 15:38:25*
%MOMM*%
%LPD*%
G01*
G04 APERTURE LIST*
G04 Aperture macros list*
%AMRoundRect*
0 Rectangle with rounded corners*
0 $1 Rounding radius*
0 $2 $3 $4 $5 $6 $7 $8 $9 X,Y pos of 4 corners*
0 Add a 4 corners polygon primitive as box body*
4,1,4,$2,$3,$4,$5,$6,$7,$8,$9,$2,$3,0*
0 Add four circle primitives for the rounded corners*
1,1,$1+$1,$2,$3*
1,1,$1+$1,$4,$5*
1,1,$1+$1,$6,$7*
1,1,$1+$1,$8,$9*
0 Add four rect primitives between the rounded corners*
20,1,$1+$1,$2,$3,$4,$5,0*
20,1,$1+$1,$4,$5,$6,$7,0*
20,1,$1+$1,$6,$7,$8,$9,0*
20,1,$1+$1,$8,$9,$2,$3,0*%
G04 Aperture macros list end*
%ADD10RoundRect,0.225000X-0.375000X0.225000X-0.375000X-0.225000X0.375000X-0.225000X0.375000X0.225000X0*%
%ADD11RoundRect,0.225000X0.225000X0.375000X-0.225000X0.375000X-0.225000X-0.375000X0.225000X-0.375000X0*%
%ADD12RoundRect,0.225000X0.250000X-0.225000X0.250000X0.225000X-0.250000X0.225000X-0.250000X-0.225000X0*%
%ADD13RoundRect,0.135000X0.185000X-0.135000X0.185000X0.135000X-0.185000X0.135000X-0.185000X-0.135000X0*%
%ADD14RoundRect,0.218750X-0.256250X0.218750X-0.256250X-0.218750X0.256250X-0.218750X0.256250X0.218750X0*%
%ADD15RoundRect,0.218750X-0.218750X-0.256250X0.218750X-0.256250X0.218750X0.256250X-0.218750X0.256250X0*%
%ADD16RoundRect,0.200000X-0.275000X0.200000X-0.275000X-0.200000X0.275000X-0.200000X0.275000X0.200000X0*%
%ADD17RoundRect,0.135000X-0.135000X-0.185000X0.135000X-0.185000X0.135000X0.185000X-0.135000X0.185000X0*%
%ADD18RoundRect,0.250000X-1.000000X-0.650000X1.000000X-0.650000X1.000000X0.650000X-1.000000X0.650000X0*%
%ADD19R,2.209800X0.609600*%
%ADD20RoundRect,0.135000X0.135000X0.185000X-0.135000X0.185000X-0.135000X-0.185000X0.135000X-0.185000X0*%
%ADD21RoundRect,0.135000X-0.185000X0.135000X-0.185000X-0.135000X0.185000X-0.135000X0.185000X0.135000X0*%
%ADD22RoundRect,0.218750X0.218750X0.256250X-0.218750X0.256250X-0.218750X-0.256250X0.218750X-0.256250X0*%
%ADD23RoundRect,0.150000X-0.587500X-0.150000X0.587500X-0.150000X0.587500X0.150000X-0.587500X0.150000X0*%
%ADD24R,0.600000X1.500000*%
%ADD25RoundRect,0.200000X0.200000X0.275000X-0.200000X0.275000X-0.200000X-0.275000X0.200000X-0.275000X0*%
%ADD26RoundRect,0.140000X0.140000X0.170000X-0.140000X0.170000X-0.140000X-0.170000X0.140000X-0.170000X0*%
%ADD27R,0.700000X0.250000*%
%ADD28R,1.100000X0.250000*%
%ADD29R,0.250000X0.700000*%
%ADD30R,0.250000X1.100000*%
%ADD31R,1.500000X0.600000*%
%ADD32RoundRect,0.225000X-0.250000X0.225000X-0.250000X-0.225000X0.250000X-0.225000X0.250000X0.225000X0*%
G04 APERTURE END LIST*
D10*
%TO.C,D7*%
X204700000Y-91700000D03*
X204700000Y-95000000D03*
%TD*%
D11*
%TO.C,D4*%
X114125000Y-109750000D03*
X110825000Y-109750000D03*
%TD*%
D12*
%TO.C,C1*%
X186550000Y-108750000D03*
X186550000Y-107200000D03*
%TD*%
D13*
%TO.C,R19*%
X213150000Y-92150000D03*
X213150000Y-91130000D03*
%TD*%
D14*
%TO.C,D11*%
X182800000Y-92585000D03*
X182800000Y-94160000D03*
%TD*%
D15*
%TO.C,D3*%
X117225000Y-108050000D03*
X118800000Y-108050000D03*
%TD*%
D16*
%TO.C,R13*%
X127650000Y-96680000D03*
X127650000Y-98330000D03*
%TD*%
D17*
%TO.C,R22*%
X174030000Y-91650000D03*
X175050000Y-91650000D03*
%TD*%
D14*
%TO.C,D5*%
X207310000Y-96947500D03*
X207310000Y-98522500D03*
%TD*%
D13*
%TO.C,R5*%
X115000000Y-74360000D03*
X115000000Y-73340000D03*
%TD*%
%TO.C,R6*%
X113800000Y-74365000D03*
X113800000Y-73345000D03*
%TD*%
D18*
%TO.C,D8*%
X149250000Y-97922500D03*
X153250000Y-97922500D03*
%TD*%
D13*
%TO.C,R11*%
X104598800Y-73870000D03*
X104598800Y-72850000D03*
%TD*%
D18*
%TO.C,D9*%
X162815000Y-102872500D03*
X166815000Y-102872500D03*
%TD*%
D19*
%TO.C,U2*%
X111715000Y-75970000D03*
X111715000Y-74700000D03*
X111715000Y-73430000D03*
X111715000Y-72160000D03*
X106482600Y-72160000D03*
X106482600Y-73430000D03*
X106482600Y-74700000D03*
X106482600Y-75970000D03*
%TD*%
D15*
%TO.C,D1*%
X107682500Y-69900000D03*
X109257500Y-69900000D03*
%TD*%
D20*
%TO.C,R24*%
X214270000Y-111350000D03*
X213250000Y-111350000D03*
%TD*%
D17*
%TO.C,R15*%
X117950000Y-100150000D03*
X118970000Y-100150000D03*
%TD*%
D21*
%TO.C,R7*%
X113750000Y-71210000D03*
X113750000Y-72230000D03*
%TD*%
D13*
%TO.C,R23*%
X172250000Y-61370000D03*
X172250000Y-60350000D03*
%TD*%
D22*
%TO.C,D2*%
X124450000Y-103580000D03*
X122875000Y-103580000D03*
%TD*%
D23*
%TO.C,Q4*%
X136312500Y-80550000D03*
X136312500Y-82450000D03*
X138187500Y-81500000D03*
%TD*%
D22*
%TO.C,D6*%
X202100000Y-92300000D03*
X200525000Y-92300000D03*
%TD*%
D21*
%TO.C,R9*%
X104648800Y-74955000D03*
X104648800Y-75975000D03*
%TD*%
D24*
%TO.C,U4*%
X214910000Y-97809999D03*
X217450000Y-97809999D03*
X217450000Y-91459999D03*
X214910000Y-91459999D03*
%TD*%
D13*
%TO.C,R10*%
X103400000Y-73870000D03*
X103400000Y-72850000D03*
%TD*%
D25*
%TO.C,R3*%
X181350000Y-105000000D03*
X179700000Y-105000000D03*
%TD*%
D16*
%TO.C,R18*%
X212710000Y-96580000D03*
X212710000Y-98230000D03*
%TD*%
D26*
%TO.C,C4*%
X106260000Y-67400000D03*
X105300000Y-67400000D03*
%TD*%
D21*
%TO.C,R4*%
X114000000Y-75490000D03*
X114000000Y-76510000D03*
%TD*%
D27*
%TO.C,IC1*%
X182110000Y-106870000D03*
D28*
X182310000Y-107520000D03*
X182310000Y-108170000D03*
D27*
X182110000Y-108820000D03*
X182110000Y-109670000D03*
X182110000Y-110520000D03*
X185010000Y-110520000D03*
X185010000Y-109670000D03*
X185010000Y-108820000D03*
D28*
X184810000Y-108170000D03*
X184810000Y-107520000D03*
D27*
X185010000Y-106870000D03*
D29*
X184810000Y-105970000D03*
X184310000Y-105970000D03*
D30*
X183810000Y-106170000D03*
X183310000Y-106170000D03*
D29*
X182810000Y-105970000D03*
X182310000Y-105970000D03*
%TD*%
D20*
%TO.C,R1*%
X183710000Y-104900000D03*
X182690000Y-104900000D03*
%TD*%
D17*
%TO.C,R16*%
X117530000Y-106550000D03*
X118550000Y-106550000D03*
%TD*%
D21*
%TO.C,R17*%
X208750000Y-97130000D03*
X208750000Y-98150000D03*
%TD*%
D22*
%TO.C,D10*%
X175325000Y-93000000D03*
X173750000Y-93000000D03*
%TD*%
D21*
%TO.C,R27*%
X134500000Y-81990000D03*
X134500000Y-83010000D03*
%TD*%
%TO.C,R25*%
X134500000Y-79990000D03*
X134500000Y-81010000D03*
%TD*%
%TO.C,R20*%
X212050000Y-91140000D03*
X212050000Y-92160000D03*
%TD*%
%TO.C,R26*%
X184650000Y-92690000D03*
X184650000Y-93710000D03*
%TD*%
D20*
%TO.C,R21*%
X201870000Y-90900000D03*
X200850000Y-90900000D03*
%TD*%
D17*
%TO.C,R8*%
X107980000Y-67400000D03*
X109000000Y-67400000D03*
%TD*%
D26*
%TO.C,C3*%
X106260000Y-69900000D03*
X105300000Y-69900000D03*
%TD*%
D17*
%TO.C,R2*%
X180150000Y-106400000D03*
X181170000Y-106400000D03*
%TD*%
D20*
%TO.C,R14*%
X121200000Y-100200000D03*
X120180000Y-100200000D03*
%TD*%
D31*
%TO.C,U1*%
X125068000Y-97820000D03*
X125068000Y-95280000D03*
X118718000Y-95280000D03*
X118718000Y-97820000D03*
%TD*%
D20*
%TO.C,R12*%
X124050000Y-102000000D03*
X123030000Y-102000000D03*
%TD*%
D32*
%TO.C,C2*%
X180850000Y-107825000D03*
X180850000Y-109375000D03*
%TD*%
M02*
