M48
; DRILL file {KiCad 9.0.7-9.0.7~ubuntu24.04.1} date 2026-02-19T19:33:50-0500
; FORMAT={-:-/ absolute / inch / decimal}
; #@! TF.CreationDate,2026-02-19T19:33:50-05:00
; #@! TF.GenerationSoftware,Kicad,Pcbnew,9.0.7-9.0.7~ubuntu24.04.1
; #@! TF.FileFunction,Plated,1,2,PTH
FMAT,2
INCH
; #@! TA.AperFunction,Plated,PTH,ViaDrill
T1C0.0118
; #@! TA.AperFunction,Plated,PTH,ComponentDrill
T2C0.0295
; #@! TA.AperFunction,Plated,PTH,ComponentDrill
T3C0.0354
; #@! TA.AperFunction,Plated,PTH,ComponentDrill
T4C0.0394
; #@! TA.AperFunction,Plated,PTH,ComponentDrill
T5C0.0402
; #@! TA.AperFunction,Plated,PTH,ComponentDrill
T6C0.0508
; #@! TA.AperFunction,Plated,PTH,ComponentDrill
T7C0.0512
; #@! TA.AperFunction,Plated,PTH,ComponentDrill
T8C0.0520
%
G90
G05
T1
X3.9846Y-2.9291
X4.0732Y-2.9823
X4.2425Y-3.0453
X4.3384Y-2.6777
X4.4354Y-3.3701
X4.585Y-3.5433
X4.8884Y-3.0965
X5.0065Y-2.8878
X5.0852Y-2.7933
X5.1697Y-3.9429
X5.2898Y-3.2953
X5.3346Y-3.1102
X5.4945Y-3.9823
X5.5122Y-3.7953
X5.526Y-3.4035
X5.6283Y-3.7224
X5.6992Y-3.7933
X5.7819Y-3.8563
X6.3213Y-4.0492
X6.786Y-2.3248
X6.8488Y-4.0315
X7.0614Y-3.628
X7.0654Y-3.9035
X7.0748Y-4.0846
X7.0748Y-4.3071
X7.3134Y-4.1634
X7.3646Y-4.1122
X7.3929Y-4.3177
X7.6362Y-4.2264
X7.6913Y-4.4921
X8.5024Y-4.1437
X8.6283Y-4.1437
T2
X4.6388Y-4.0768
X4.6888Y-4.0268
X4.7388Y-4.0768
X8.2102Y-3.6246
X8.2102Y-3.7246
X8.2602Y-3.6746
T3
X4.1281Y-4.3209
X4.4281Y-4.3209
X8.0594Y-3.6116
X8.0594Y-3.9116
T4
X3.5033Y-3.6949
X3.6033Y-3.6949
X3.7033Y-3.6949
X3.8707Y-2.7677
X3.8707Y-2.8677
X3.8707Y-2.9677
X3.8707Y-3.0677
X4.3943Y-3.1156
X4.3943Y-3.2156
X4.6358Y-2.798
X4.6358Y-2.898
X4.6358Y-2.998
X4.6358Y-3.098
X4.6915Y-3.6319
X4.7915Y-3.6319
X4.8591Y-3.3425
X4.8915Y-3.6319
X4.9591Y-3.3425
X5.0197Y-3.9906
X5.0197Y-4.0906
X5.0197Y-4.1906
X5.0591Y-3.3425
X5.1591Y-3.3425
X5.3293Y-3.7539
X5.3813Y-3.9835
X5.3813Y-4.0835
X5.3813Y-4.1835
X5.3813Y-4.2835
X5.8868Y-3.6673
X5.9868Y-3.6673
X6.0821Y-2.2461
X6.0821Y-2.3461
X6.0868Y-3.6673
X6.1821Y-2.2461
X6.1821Y-2.3461
X6.2821Y-2.2461
X6.2821Y-2.3461
X6.3762Y-3.7091
X6.3762Y-3.8091
X6.3821Y-2.2461
X6.3821Y-2.3461
X6.4762Y-3.7091
X6.4762Y-3.8091
X6.5762Y-3.7091
X6.5762Y-3.8091
X6.6762Y-3.7091
X6.6762Y-3.8091
X6.8726Y-3.7657
X6.8906Y-2.3209
X6.9748Y-4.0213
X6.9748Y-4.1213
X6.9748Y-4.2213
X6.9748Y-4.3213
X6.9906Y-2.3209
X7.0906Y-2.3209
X7.2839Y-2.3228
X7.4827Y-4.0268
X7.4827Y-4.1268
X7.4827Y-4.2268
X7.4827Y-4.3268
X7.5165Y-3.6713
X7.6165Y-3.6713
X7.9335Y-4.1008
X8.3429Y-3.9787
X8.4429Y-3.9787
X8.4561Y-4.4823
X8.4575Y-4.2815
X8.5429Y-3.9787
X8.5561Y-4.4823
X8.5575Y-4.2815
X8.6461Y-2.9157
X8.6461Y-3.0157
X8.6461Y-3.1157
X8.6575Y-4.2815
X8.6831Y-3.6323
X8.6831Y-3.7323
X8.6831Y-3.8323
T5
X5.8866Y-2.5138
X5.8866Y-3.5138
X5.9866Y-2.5138
X5.9866Y-3.5138
X6.0866Y-2.5138
X6.0866Y-3.5138
X6.1866Y-2.5138
X6.1866Y-3.5138
X6.2866Y-2.5138
X6.2866Y-3.5138
X6.3866Y-2.5138
X6.3866Y-3.5138
X6.4866Y-2.5138
X6.4866Y-3.5138
X6.5866Y-2.5138
X6.5866Y-3.5138
X6.6866Y-2.5138
X6.6866Y-3.5138
X6.7866Y-2.5138
X6.7866Y-3.5138
X6.8866Y-2.5138
X6.8866Y-3.5138
X6.9866Y-2.5138
X6.9866Y-3.5138
X7.0866Y-2.5138
X7.0866Y-3.5138
X7.1866Y-2.5138
X7.1866Y-3.5138
X7.2866Y-2.5138
X7.2866Y-3.5138
T6
X4.5065Y-3.9311
X8.2563Y-3.4787
T7
X3.5509Y-3.9041
X3.5509Y-4.1041
X3.5509Y-4.3041
X3.5634Y-2.628
X3.5634Y-2.828
X3.5634Y-3.028
X3.5634Y-3.228
X5.2606Y-2.8839
X5.4606Y-2.8839
X6.3766Y-4.4724
X6.5766Y-4.4724
X8.1535Y-2.5354
X8.3535Y-2.5354
X8.5535Y-2.5354
T8
X3.9474Y-3.6949
X3.9474Y-4.1673
X4.4278Y-3.6949
X4.4278Y-4.1673
X8.0201Y-2.9197
X8.0201Y-3.4
X8.4925Y-2.9197
X8.4925Y-3.4
T4
G00X5.9114Y-4.1102
M15
G01X6.0138Y-4.1102
M16
G05
G00X5.9193Y-4.3583
M15
G01X6.0059Y-4.3583
M16
G05
G00X6.1516Y-4.1811
M15
G01X6.1516Y-4.2677
M16
G05
M30
