%TF.GenerationSoftware,KiCad,Pcbnew,9.0.7-9.0.7~ubuntu24.04.1*%
%TF.CreationDate,2026-02-19T19:33:50-05:00*%
%TF.ProjectId,plantPartner_PCB1.0,706c616e-7450-4617-9274-6e65725f5043,rev?*%
%TF.SameCoordinates,Original*%
%TF.FileFunction,Soldermask,Bot*%
%TF.FilePolarity,Negative*%
%FSLAX46Y46*%
G04 Gerber Fmt 4.6, Leading zero omitted, Abs format (unit mm)*
G04 Created by KiCad (PCBNEW 9.0.7-9.0.7~ubuntu24.04.1) date 2026-02-19 19:33:50*
%MOMM*%
%LPD*%
G01*
G04 APERTURE LIST*
G04 Aperture macros list*
%AMRoundRect*
0 Rectangle with rounded corners*
0 $1 Rounding radius*
0 $2 $3 $4 $5 $6 $7 $8 $9 X,Y pos of 4 corners*
0 Add a 4 corners polygon primitive as box body*
4,1,4,$2,$3,$4,$5,$6,$7,$8,$9,$2,$3,0*
0 Add four circle primitives for the rounded corners*
1,1,$1+$1,$2,$3*
1,1,$1+$1,$4,$5*
1,1,$1+$1,$6,$7*
1,1,$1+$1,$8,$9*
0 Add four rect primitives between the rounded corners*
20,1,$1+$1,$2,$3,$4,$5,0*
20,1,$1+$1,$4,$5,$6,$7,0*
20,1,$1+$1,$6,$7,$8,$9,0*
20,1,$1+$1,$8,$9,$2,$3,0*%
G04 Aperture macros list end*
%ADD10R,1.700000X1.700000*%
%ADD11C,1.700000*%
%ADD12C,3.200000*%
%ADD13RoundRect,0.250000X-1.050000X1.050000X-1.050000X-1.050000X1.050000X-1.050000X1.050000X1.050000X0*%
%ADD14C,2.600000*%
%ADD15RoundRect,0.250000X0.650000X0.650000X-0.650000X0.650000X-0.650000X-0.650000X0.650000X-0.650000X0*%
%ADD16C,1.800000*%
%ADD17RoundRect,0.102000X0.990000X-0.990000X0.990000X0.990000X-0.990000X0.990000X-0.990000X-0.990000X0*%
%ADD18C,2.184000*%
%ADD19C,2.139000*%
%ADD20RoundRect,0.250000X-1.050000X-1.050000X1.050000X-1.050000X1.050000X1.050000X-1.050000X1.050000X0*%
%ADD21C,3.000000*%
%ADD22RoundRect,0.102000X-1.000000X1.000000X-1.000000X-1.000000X1.000000X-1.000000X1.000000X1.000000X0*%
%ADD23C,2.204000*%
%ADD24RoundRect,0.250000X-0.650000X0.650000X-0.650000X-0.650000X0.650000X-0.650000X0.650000X0.650000X0*%
%ADD25RoundRect,0.102000X0.990000X0.990000X-0.990000X0.990000X-0.990000X-0.990000X0.990000X-0.990000X0*%
%ADD26R,1.300000X1.300000*%
%ADD27C,1.300000*%
%ADD28RoundRect,0.250000X1.050000X1.050000X-1.050000X1.050000X-1.050000X-1.050000X1.050000X-1.050000X0*%
%ADD29R,4.600000X2.000000*%
%ADD30O,4.200000X2.000000*%
%ADD31O,2.000000X4.200000*%
G04 APERTURE END LIST*
D10*
%TO.C,J20*%
X161955000Y-96750000D03*
D11*
X161955000Y-94210000D03*
X164495000Y-96750000D03*
X164495000Y-94210000D03*
X167035000Y-96750000D03*
X167035000Y-94210000D03*
X169575000Y-96750000D03*
X169575000Y-94210000D03*
%TD*%
D10*
%TO.C,J1*%
X177160000Y-109760000D03*
D11*
X177160000Y-107220000D03*
X177160000Y-104680000D03*
X177160000Y-102140000D03*
%TD*%
D12*
%TO.C,TopLeft*%
X85260000Y-57700000D03*
%TD*%
%TO.C,TopRight*%
X223860000Y-57100000D03*
%TD*%
D13*
%TO.C,J4*%
X90510000Y-66750000D03*
D14*
X90510000Y-71830000D03*
X90510000Y-76910000D03*
X90510000Y-81990000D03*
%TD*%
D10*
%TO.C,J16*%
X190060000Y-102280000D03*
D11*
X190060000Y-104820000D03*
X190060000Y-107360000D03*
X190060000Y-109900000D03*
%TD*%
D10*
%TO.C,J11*%
X111615000Y-81675000D03*
D11*
X111615000Y-79135000D03*
%TD*%
D10*
%TO.C,J8*%
X162105000Y-57050000D03*
D11*
X162105000Y-59590000D03*
X159565000Y-57050000D03*
X159565000Y-59590000D03*
X157025000Y-57050000D03*
X157025000Y-59590000D03*
X154485000Y-57050000D03*
X154485000Y-59590000D03*
%TD*%
D10*
%TO.C,J27*%
X135365000Y-95350000D03*
%TD*%
%TO.C,J22*%
X136686250Y-101180000D03*
D11*
X136686250Y-103720000D03*
X136686250Y-106260000D03*
X136686250Y-108800000D03*
%TD*%
D15*
%TO.C,D4*%
X112475000Y-109750000D03*
D16*
X104855000Y-109750000D03*
%TD*%
D12*
%TO.C,BottomLeft*%
X85310000Y-117050000D03*
%TD*%
D10*
%TO.C,J29*%
X190920000Y-93250000D03*
D11*
X193460000Y-93250000D03*
%TD*%
D10*
%TO.C,J3*%
X98315000Y-77920000D03*
D11*
X98315000Y-75380000D03*
X98315000Y-72840000D03*
X98315000Y-70300000D03*
%TD*%
D10*
%TO.C,J26*%
X201510000Y-104160000D03*
%TD*%
D17*
%TO.C,K2*%
X203710000Y-86360000D03*
D18*
X215710000Y-86360000D03*
D19*
X209710000Y-88360000D03*
D18*
X203710000Y-74160000D03*
X215710000Y-74160000D03*
%TD*%
D10*
%TO.C,J2*%
X117750000Y-71070000D03*
D11*
X117750000Y-73610000D03*
X117750000Y-76150000D03*
X117750000Y-78690000D03*
%TD*%
D10*
%TO.C,J5*%
X214785000Y-113850000D03*
D11*
X217325000Y-113850000D03*
%TD*%
D10*
%TO.C,J24*%
X180100000Y-58950000D03*
D11*
X177560000Y-58950000D03*
X175020000Y-58950000D03*
%TD*%
D10*
%TO.C,J9*%
X220550000Y-92260000D03*
D11*
X220550000Y-94800000D03*
X220550000Y-97340000D03*
%TD*%
D12*
%TO.C,BottomRight*%
X224300000Y-116800000D03*
%TD*%
D10*
%TO.C,J25*%
X149525000Y-93150000D03*
D11*
X152065000Y-93150000D03*
X154605000Y-93150000D03*
%TD*%
D10*
%TO.C,J14*%
X127500000Y-106440000D03*
D11*
X127500000Y-103900000D03*
X127500000Y-101360000D03*
%TD*%
D10*
%TO.C,J12*%
X211910000Y-101060000D03*
D11*
X214450000Y-101060000D03*
X216990000Y-101060000D03*
%TD*%
D10*
%TO.C,J17*%
X214820000Y-108750000D03*
D11*
X217360000Y-108750000D03*
X219900000Y-108750000D03*
%TD*%
D10*
%TO.C,J21*%
X123420000Y-84900000D03*
D11*
X125960000Y-84900000D03*
X128500000Y-84900000D03*
X131040000Y-84900000D03*
%TD*%
D13*
%TO.C,J6*%
X90192500Y-99165000D03*
D14*
X90192500Y-104245000D03*
X90192500Y-109325000D03*
%TD*%
D10*
%TO.C,J7*%
X119165000Y-92250000D03*
D11*
X121705000Y-92250000D03*
X124245000Y-92250000D03*
%TD*%
D20*
%TO.C,J18*%
X161965000Y-113600000D03*
D14*
X167045000Y-113600000D03*
%TD*%
D10*
%TO.C,J28*%
X185010000Y-59000000D03*
%TD*%
D21*
%TO.C,U3*%
X193040000Y-64270000D03*
X146090000Y-64270000D03*
X193040000Y-88780000D03*
X146090000Y-88780000D03*
D22*
X185080000Y-63850000D03*
D23*
X182540000Y-63850000D03*
X180000000Y-63850000D03*
X177460000Y-63850000D03*
X174920000Y-63850000D03*
X172380000Y-63850000D03*
X169840000Y-63850000D03*
X167300000Y-63850000D03*
X164760000Y-63850000D03*
X162220000Y-63850000D03*
X159680000Y-63850000D03*
X157140000Y-63850000D03*
X154600000Y-63850000D03*
X152060000Y-63850000D03*
X149520000Y-63850000D03*
X149520000Y-89250000D03*
X152060000Y-89250000D03*
X154600000Y-89250000D03*
X157140000Y-89250000D03*
X159680000Y-89250000D03*
X162220000Y-89250000D03*
X164760000Y-89250000D03*
X167300000Y-89250000D03*
X169840000Y-89250000D03*
X172380000Y-89250000D03*
X174920000Y-89250000D03*
X177460000Y-89250000D03*
X180000000Y-89250000D03*
X182540000Y-89250000D03*
X185080000Y-89250000D03*
%TD*%
D24*
%TO.C,D7*%
X204710000Y-91734999D03*
D16*
X204710000Y-99354999D03*
%TD*%
D25*
%TO.C,K1*%
X112465000Y-105850000D03*
D18*
X112465000Y-93850000D03*
D19*
X114465000Y-99850000D03*
D18*
X100265000Y-105850000D03*
X100265000Y-93850000D03*
%TD*%
D10*
%TO.C,J15*%
X94065000Y-93850000D03*
D11*
X91525000Y-93850000D03*
X88985000Y-93850000D03*
%TD*%
D10*
%TO.C,J13*%
X219610000Y-74060000D03*
D11*
X219610000Y-76600000D03*
X219610000Y-79140000D03*
%TD*%
D26*
%TO.C,Q1*%
X117825000Y-103550000D03*
D27*
X119095000Y-102280000D03*
X120365000Y-103550000D03*
%TD*%
D10*
%TO.C,J23*%
X174565000Y-95650000D03*
%TD*%
D28*
%TO.C,J10*%
X217260000Y-64400000D03*
D14*
X212180000Y-64400000D03*
X207100000Y-64400000D03*
%TD*%
D28*
%TO.C,J30*%
X138700000Y-73250000D03*
D14*
X133620000Y-73250000D03*
%TD*%
D29*
%TO.C,J19*%
X151450000Y-104400000D03*
D30*
X151450000Y-110700000D03*
D31*
X156250000Y-107300000D03*
%TD*%
D26*
%TO.C,Q2*%
X208540000Y-92064999D03*
D27*
X209810000Y-93334999D03*
X208540000Y-94604999D03*
%TD*%
M02*
