%TF.GenerationSoftware,KiCad,Pcbnew,9.0.7-9.0.7~ubuntu24.04.1*%
%TF.CreationDate,2026-02-20T15:38:25-05:00*%
%TF.ProjectId,plantPartner_PCB1.0,706c616e-7450-4617-9274-6e65725f5043,rev?*%
%TF.SameCoordinates,Original*%
%TF.FileFunction,Soldermask,Top*%
%TF.FilePolarity,Negative*%
%FSLAX46Y46*%
G04 Gerber Fmt 4.6, Leading zero omitted, Abs format (unit mm)*
G04 Created by KiCad (PCBNEW 9.0.7-9.0.7~ubuntu24.04.1) date 2026-02-20 15:38:25*
%MOMM*%
%LPD*%
G01*
G04 APERTURE LIST*
G04 Aperture macros list*
%AMRoundRect*
0 Rectangle with rounded corners*
0 $1 Rounding radius*
0 $2 $3 $4 $5 $6 $7 $8 $9 X,Y pos of 4 corners*
0 Add a 4 corners polygon primitive as box body*
4,1,4,$2,$3,$4,$5,$6,$7,$8,$9,$2,$3,0*
0 Add four circle primitives for the rounded corners*
1,1,$1+$1,$2,$3*
1,1,$1+$1,$4,$5*
1,1,$1+$1,$6,$7*
1,1,$1+$1,$8,$9*
0 Add four rect primitives between the rounded corners*
20,1,$1+$1,$2,$3,$4,$5,0*
20,1,$1+$1,$4,$5,$6,$7,0*
20,1,$1+$1,$6,$7,$8,$9,0*
20,1,$1+$1,$8,$9,$2,$3,0*%
G04 Aperture macros list end*
%ADD10RoundRect,0.225000X-0.375000X0.225000X-0.375000X-0.225000X0.375000X-0.225000X0.375000X0.225000X0*%
%ADD11RoundRect,0.225000X0.225000X0.375000X-0.225000X0.375000X-0.225000X-0.375000X0.225000X-0.375000X0*%
%ADD12RoundRect,0.225000X0.250000X-0.225000X0.250000X0.225000X-0.250000X0.225000X-0.250000X-0.225000X0*%
%ADD13RoundRect,0.135000X0.185000X-0.135000X0.185000X0.135000X-0.185000X0.135000X-0.185000X-0.135000X0*%
%ADD14R,1.700000X1.700000*%
%ADD15C,1.700000*%
%ADD16RoundRect,0.218750X-0.256250X0.218750X-0.256250X-0.218750X0.256250X-0.218750X0.256250X0.218750X0*%
%ADD17RoundRect,0.218750X-0.218750X-0.256250X0.218750X-0.256250X0.218750X0.256250X-0.218750X0.256250X0*%
%ADD18RoundRect,0.200000X-0.275000X0.200000X-0.275000X-0.200000X0.275000X-0.200000X0.275000X0.200000X0*%
%ADD19RoundRect,0.135000X-0.135000X-0.185000X0.135000X-0.185000X0.135000X0.185000X-0.135000X0.185000X0*%
%ADD20RoundRect,0.249999X-0.850001X0.850001X-0.850001X-0.850001X0.850001X-0.850001X0.850001X0.850001X0*%
%ADD21C,2.200000*%
%ADD22RoundRect,0.250000X-1.000000X-0.650000X1.000000X-0.650000X1.000000X0.650000X-1.000000X0.650000X0*%
%ADD23RoundRect,0.102000X1.104900X-0.304800X1.104900X0.304800X-1.104900X0.304800X-1.104900X-0.304800X0*%
%ADD24RoundRect,0.135000X0.135000X0.185000X-0.135000X0.185000X-0.135000X-0.185000X0.135000X-0.185000X0*%
%ADD25RoundRect,0.102000X0.990000X-0.990000X0.990000X0.990000X-0.990000X0.990000X-0.990000X-0.990000X0*%
%ADD26C,2.184000*%
%ADD27C,2.139000*%
%ADD28RoundRect,0.135000X-0.185000X0.135000X-0.185000X-0.135000X0.185000X-0.135000X0.185000X0.135000X0*%
%ADD29RoundRect,0.218750X0.218750X0.256250X-0.218750X0.256250X-0.218750X-0.256250X0.218750X-0.256250X0*%
%ADD30RoundRect,0.150000X-0.587500X-0.150000X0.587500X-0.150000X0.587500X0.150000X-0.587500X0.150000X0*%
%ADD31RoundRect,0.102000X0.300000X-0.750000X0.300000X0.750000X-0.300000X0.750000X-0.300000X-0.750000X0*%
%ADD32RoundRect,0.200000X0.200000X0.275000X-0.200000X0.275000X-0.200000X-0.275000X0.200000X-0.275000X0*%
%ADD33RoundRect,0.140000X0.140000X0.170000X-0.140000X0.170000X-0.140000X-0.170000X0.140000X-0.170000X0*%
%ADD34RoundRect,0.050800X-0.350000X-0.125000X0.350000X-0.125000X0.350000X0.125000X-0.350000X0.125000X0*%
%ADD35RoundRect,0.050800X-0.550000X-0.125000X0.550000X-0.125000X0.550000X0.125000X-0.550000X0.125000X0*%
%ADD36RoundRect,0.050800X0.125000X-0.350000X0.125000X0.350000X-0.125000X0.350000X-0.125000X-0.350000X0*%
%ADD37RoundRect,0.050800X0.125000X-0.550000X0.125000X0.550000X-0.125000X0.550000X-0.125000X-0.550000X0*%
%ADD38RoundRect,0.249999X-0.850001X-0.850001X0.850001X-0.850001X0.850001X0.850001X-0.850001X0.850001X0*%
%ADD39RoundRect,0.102000X-1.000000X1.000000X-1.000000X-1.000000X1.000000X-1.000000X1.000000X1.000000X0*%
%ADD40C,2.204000*%
%ADD41RoundRect,0.102000X0.990000X0.990000X-0.990000X0.990000X-0.990000X-0.990000X0.990000X-0.990000X0*%
%ADD42R,1.300000X1.300000*%
%ADD43C,1.300000*%
%ADD44RoundRect,0.249999X0.850001X0.850001X-0.850001X0.850001X-0.850001X-0.850001X0.850001X-0.850001X0*%
%ADD45R,4.600000X2.000000*%
%ADD46O,4.200000X2.000000*%
%ADD47O,2.000000X4.200000*%
%ADD48RoundRect,0.102000X0.750000X0.300000X-0.750000X0.300000X-0.750000X-0.300000X0.750000X-0.300000X0*%
%ADD49RoundRect,0.225000X-0.250000X0.225000X-0.250000X-0.225000X0.250000X-0.225000X0.250000X0.225000X0*%
G04 APERTURE END LIST*
D10*
%TO.C,D7*%
X204700000Y-91700000D03*
X204700000Y-95000000D03*
%TD*%
D11*
%TO.C,D4*%
X114125000Y-109750000D03*
X110825000Y-109750000D03*
%TD*%
D12*
%TO.C,C1*%
X186550000Y-108750000D03*
X186550000Y-107200000D03*
%TD*%
D13*
%TO.C,R19*%
X213150000Y-92150000D03*
X213150000Y-91130000D03*
%TD*%
D14*
%TO.C,J20*%
X161955000Y-96750000D03*
D15*
X161955000Y-94210000D03*
X164495000Y-96750000D03*
X164495000Y-94210000D03*
X167035000Y-96750000D03*
X167035000Y-94210000D03*
X169575000Y-96750000D03*
X169575000Y-94210000D03*
%TD*%
D16*
%TO.C,D11*%
X182800000Y-92585000D03*
X182800000Y-94160000D03*
%TD*%
D17*
%TO.C,D3*%
X117225000Y-108050000D03*
X118800000Y-108050000D03*
%TD*%
D18*
%TO.C,R13*%
X127650000Y-96680000D03*
X127650000Y-98330000D03*
%TD*%
D19*
%TO.C,R22*%
X174030000Y-91650000D03*
X175050000Y-91650000D03*
%TD*%
D14*
%TO.C,J1*%
X177160000Y-109760000D03*
D15*
X177160000Y-107220000D03*
X177160000Y-104680000D03*
X177160000Y-102140000D03*
%TD*%
D16*
%TO.C,D5*%
X207310000Y-96947500D03*
X207310000Y-98522500D03*
%TD*%
D13*
%TO.C,R5*%
X115000000Y-74360000D03*
X115000000Y-73340000D03*
%TD*%
D20*
%TO.C,J4*%
X90700000Y-70400000D03*
D21*
X90700000Y-72940000D03*
X90700000Y-75480000D03*
X90700000Y-78020000D03*
%TD*%
D13*
%TO.C,R6*%
X113800000Y-74365000D03*
X113800000Y-73345000D03*
%TD*%
D14*
%TO.C,J16*%
X190060000Y-102280000D03*
D15*
X190060000Y-104820000D03*
X190060000Y-107360000D03*
X190060000Y-109900000D03*
%TD*%
D22*
%TO.C,D8*%
X149250000Y-97922500D03*
X153250000Y-97922500D03*
%TD*%
D14*
%TO.C,J11*%
X111615000Y-81675000D03*
D15*
X111615000Y-79135000D03*
%TD*%
D13*
%TO.C,R11*%
X104598800Y-73870000D03*
X104598800Y-72850000D03*
%TD*%
D22*
%TO.C,D9*%
X162815000Y-102872500D03*
X166815000Y-102872500D03*
%TD*%
D14*
%TO.C,J8*%
X162105000Y-57050000D03*
D15*
X162105000Y-59590000D03*
X159565000Y-57050000D03*
X159565000Y-59590000D03*
X157025000Y-57050000D03*
X157025000Y-59590000D03*
X154485000Y-57050000D03*
X154485000Y-59590000D03*
%TD*%
D14*
%TO.C,J27*%
X135365000Y-95350000D03*
%TD*%
%TO.C,J22*%
X136686250Y-101180000D03*
D15*
X136686250Y-103720000D03*
X136686250Y-106260000D03*
X136686250Y-108800000D03*
%TD*%
D14*
%TO.C,J29*%
X190920000Y-93250000D03*
D15*
X193460000Y-93250000D03*
%TD*%
D23*
%TO.C,U2*%
X111715000Y-75970000D03*
X111715000Y-74700000D03*
X111715000Y-73430000D03*
X111715000Y-72160000D03*
X106482600Y-72160000D03*
X106482600Y-73430000D03*
X106482600Y-74700000D03*
X106482600Y-75970000D03*
%TD*%
D14*
%TO.C,J3*%
X98315000Y-77920000D03*
D15*
X98315000Y-75380000D03*
X98315000Y-72840000D03*
X98315000Y-70300000D03*
%TD*%
D17*
%TO.C,D1*%
X107682500Y-69900000D03*
X109257500Y-69900000D03*
%TD*%
D14*
%TO.C,J26*%
X201510000Y-104160000D03*
%TD*%
D24*
%TO.C,R24*%
X214270000Y-111350000D03*
X213250000Y-111350000D03*
%TD*%
D19*
%TO.C,R15*%
X117950000Y-100150000D03*
X118970000Y-100150000D03*
%TD*%
D25*
%TO.C,K2*%
X203710000Y-86360000D03*
D26*
X215710000Y-86360000D03*
D27*
X209710000Y-88360000D03*
D26*
X203710000Y-74160000D03*
X215710000Y-74160000D03*
%TD*%
D28*
%TO.C,R7*%
X113750000Y-71210000D03*
X113750000Y-72230000D03*
%TD*%
D14*
%TO.C,J2*%
X117750000Y-71070000D03*
D15*
X117750000Y-73610000D03*
X117750000Y-76150000D03*
X117750000Y-78690000D03*
%TD*%
D13*
%TO.C,R23*%
X172250000Y-61370000D03*
X172250000Y-60350000D03*
%TD*%
D29*
%TO.C,D2*%
X124450000Y-103580000D03*
X122875000Y-103580000D03*
%TD*%
D14*
%TO.C,J5*%
X214785000Y-113850000D03*
D15*
X217325000Y-113850000D03*
%TD*%
D30*
%TO.C,Q4*%
X136312500Y-80550000D03*
X136312500Y-82450000D03*
X138187500Y-81500000D03*
%TD*%
D29*
%TO.C,D6*%
X202100000Y-92300000D03*
X200525000Y-92300000D03*
%TD*%
D28*
%TO.C,R9*%
X104648800Y-74955000D03*
X104648800Y-75975000D03*
%TD*%
D14*
%TO.C,J24*%
X180100000Y-58950000D03*
D15*
X177560000Y-58950000D03*
X175020000Y-58950000D03*
%TD*%
D31*
%TO.C,U4*%
X214910000Y-97809999D03*
X217450000Y-97809999D03*
X217450000Y-91459999D03*
X214910000Y-91459999D03*
%TD*%
D14*
%TO.C,J9*%
X220550000Y-92260000D03*
D15*
X220550000Y-94800000D03*
X220550000Y-97340000D03*
%TD*%
D13*
%TO.C,R10*%
X103400000Y-73870000D03*
X103400000Y-72850000D03*
%TD*%
D32*
%TO.C,R3*%
X181350000Y-105000000D03*
X179700000Y-105000000D03*
%TD*%
D14*
%TO.C,J25*%
X149525000Y-93150000D03*
D15*
X152065000Y-93150000D03*
X154605000Y-93150000D03*
%TD*%
D18*
%TO.C,R18*%
X212710000Y-96580000D03*
X212710000Y-98230000D03*
%TD*%
D14*
%TO.C,J14*%
X127500000Y-106440000D03*
D15*
X127500000Y-103900000D03*
X127500000Y-101360000D03*
%TD*%
D14*
%TO.C,J12*%
X211910000Y-101060000D03*
D15*
X214450000Y-101060000D03*
X216990000Y-101060000D03*
%TD*%
D14*
%TO.C,J17*%
X214820000Y-108750000D03*
D15*
X217360000Y-108750000D03*
X219900000Y-108750000D03*
%TD*%
D14*
%TO.C,J21*%
X123420000Y-84900000D03*
D15*
X125960000Y-84900000D03*
X128500000Y-84900000D03*
X131040000Y-84900000D03*
%TD*%
D20*
%TO.C,J6*%
X90192500Y-99165000D03*
D21*
X90192500Y-101705000D03*
X90192500Y-104245000D03*
%TD*%
D33*
%TO.C,C4*%
X106260000Y-67400000D03*
X105300000Y-67400000D03*
%TD*%
D14*
%TO.C,J7*%
X119165000Y-92250000D03*
D15*
X121705000Y-92250000D03*
X124245000Y-92250000D03*
%TD*%
D28*
%TO.C,R4*%
X114000000Y-75490000D03*
X114000000Y-76510000D03*
%TD*%
D34*
%TO.C,IC1*%
X182110000Y-106870000D03*
D35*
X182310000Y-107520000D03*
X182310000Y-108170000D03*
D34*
X182110000Y-108820000D03*
X182110000Y-109670000D03*
X182110000Y-110520000D03*
X185010000Y-110520000D03*
X185010000Y-109670000D03*
X185010000Y-108820000D03*
D35*
X184810000Y-108170000D03*
X184810000Y-107520000D03*
D34*
X185010000Y-106870000D03*
D36*
X184810000Y-105970000D03*
X184310000Y-105970000D03*
D37*
X183810000Y-106170000D03*
X183310000Y-106170000D03*
D36*
X182810000Y-105970000D03*
X182310000Y-105970000D03*
%TD*%
D38*
%TO.C,J18*%
X161965000Y-113600000D03*
D21*
X164505000Y-113600000D03*
%TD*%
D14*
%TO.C,J28*%
X185010000Y-59000000D03*
%TD*%
D24*
%TO.C,R1*%
X183710000Y-104900000D03*
X182690000Y-104900000D03*
%TD*%
D39*
%TO.C,U3*%
X185080000Y-63850000D03*
D40*
X182540000Y-63850000D03*
X180000000Y-63850000D03*
X177460000Y-63850000D03*
X174920000Y-63850000D03*
X172380000Y-63850000D03*
X169840000Y-63850000D03*
X167300000Y-63850000D03*
X164760000Y-63850000D03*
X162220000Y-63850000D03*
X159680000Y-63850000D03*
X157140000Y-63850000D03*
X154600000Y-63850000D03*
X152060000Y-63850000D03*
X149520000Y-63850000D03*
X149520000Y-89250000D03*
X152060000Y-89250000D03*
X154600000Y-89250000D03*
X157140000Y-89250000D03*
X159680000Y-89250000D03*
X162220000Y-89250000D03*
X164760000Y-89250000D03*
X167300000Y-89250000D03*
X169840000Y-89250000D03*
X172380000Y-89250000D03*
X174920000Y-89250000D03*
X177460000Y-89250000D03*
X180000000Y-89250000D03*
X182540000Y-89250000D03*
X185080000Y-89250000D03*
%TD*%
D19*
%TO.C,R16*%
X117530000Y-106550000D03*
X118550000Y-106550000D03*
%TD*%
D28*
%TO.C,R17*%
X208750000Y-97130000D03*
X208750000Y-98150000D03*
%TD*%
D41*
%TO.C,K1*%
X112465000Y-105850000D03*
D26*
X112465000Y-93850000D03*
D27*
X114465000Y-99850000D03*
D26*
X100265000Y-105850000D03*
X100265000Y-93850000D03*
%TD*%
D14*
%TO.C,J15*%
X94065000Y-93850000D03*
D15*
X91525000Y-93850000D03*
X88985000Y-93850000D03*
%TD*%
D29*
%TO.C,D10*%
X175325000Y-93000000D03*
X173750000Y-93000000D03*
%TD*%
D14*
%TO.C,J13*%
X219610000Y-74060000D03*
D15*
X219610000Y-76600000D03*
X219610000Y-79140000D03*
%TD*%
D28*
%TO.C,R27*%
X134500000Y-81990000D03*
X134500000Y-83010000D03*
%TD*%
D42*
%TO.C,Q1*%
X117825000Y-103550000D03*
D43*
X119095000Y-102280000D03*
X120365000Y-103550000D03*
%TD*%
D28*
%TO.C,R25*%
X134500000Y-79990000D03*
X134500000Y-81010000D03*
%TD*%
%TO.C,R20*%
X212050000Y-91140000D03*
X212050000Y-92160000D03*
%TD*%
%TO.C,R26*%
X184650000Y-92690000D03*
X184650000Y-93710000D03*
%TD*%
D14*
%TO.C,J23*%
X174565000Y-95650000D03*
%TD*%
D24*
%TO.C,R21*%
X201870000Y-90900000D03*
X200850000Y-90900000D03*
%TD*%
D44*
%TO.C,J10*%
X217260000Y-64400000D03*
D21*
X214720000Y-64400000D03*
X212180000Y-64400000D03*
%TD*%
D44*
%TO.C,J30*%
X138700000Y-73250000D03*
D21*
X136160000Y-73250000D03*
%TD*%
D19*
%TO.C,R8*%
X107980000Y-67400000D03*
X109000000Y-67400000D03*
%TD*%
D33*
%TO.C,C3*%
X106260000Y-69900000D03*
X105300000Y-69900000D03*
%TD*%
D45*
%TO.C,J19*%
X151450000Y-104400000D03*
D46*
X151450000Y-110700000D03*
D47*
X156250000Y-107300000D03*
%TD*%
D19*
%TO.C,R2*%
X180150000Y-106400000D03*
X181170000Y-106400000D03*
%TD*%
D24*
%TO.C,R14*%
X121200000Y-100200000D03*
X120180000Y-100200000D03*
%TD*%
D48*
%TO.C,U1*%
X125068000Y-97820000D03*
X125068000Y-95280000D03*
X118718000Y-95280000D03*
X118718000Y-97820000D03*
%TD*%
D24*
%TO.C,R12*%
X124050000Y-102000000D03*
X123030000Y-102000000D03*
%TD*%
D42*
%TO.C,Q2*%
X208540000Y-92064999D03*
D43*
X209810000Y-93334999D03*
X208540000Y-94604999D03*
%TD*%
D49*
%TO.C,C2*%
X180850000Y-107825000D03*
X180850000Y-109375000D03*
%TD*%
M02*
