M48
; DRILL file {KiCad 9.0.7-9.0.7~ubuntu24.04.1} date 2026-02-19T12:27:10-0500
; FORMAT={-:-/ absolute / inch / decimal}
; #@! TF.CreationDate,2026-02-19T12:27:10-05:00
; #@! TF.GenerationSoftware,Kicad,Pcbnew,9.0.7-9.0.7~ubuntu24.04.1
; #@! TF.FileFunction,Plated,1,2,PTH
FMAT,2
INCH
; #@! TA.AperFunction,Plated,PTH,ViaDrill
T1C0.0118
; #@! TA.AperFunction,Plated,PTH,ComponentDrill
T2C0.0295
; #@! TA.AperFunction,Plated,PTH,ComponentDrill
T3C0.0354
; #@! TA.AperFunction,Plated,PTH,ComponentDrill
T4C0.0394
; #@! TA.AperFunction,Plated,PTH,ComponentDrill
T5C0.0402
; #@! TA.AperFunction,Plated,PTH,ComponentDrill
T6C0.0508
; #@! TA.AperFunction,Plated,PTH,ComponentDrill
T7C0.0512
; #@! TA.AperFunction,Plated,PTH,ComponentDrill
T8C0.0520
%
G90
G05
T1
X3.3169Y-2.8917
X3.4055Y-2.9449
X3.5748Y-3.0079
X3.6707Y-2.6403
X3.7677Y-3.3327
X3.9173Y-3.5059
X4.2207Y-3.0591
X4.3388Y-2.8504
X4.4175Y-2.7559
X4.502Y-3.9055
X4.622Y-3.2579
X4.6496Y-3.0945
X4.8268Y-3.9449
X4.8445Y-3.7579
X4.8583Y-3.3661
X4.9606Y-3.685
X5.0315Y-3.7559
X5.1142Y-3.8189
X5.6535Y-4.0118
X6.1183Y-2.2874
X6.1811Y-3.9941
X6.3937Y-3.5906
X6.3976Y-3.8661
X6.4055Y-4.2362
X6.6457Y-4.126
X6.6969Y-4.0748
X6.7165Y-4.2717
X6.9685Y-4.189
X7.0236Y-4.4547
X7.8346Y-4.1063
X7.9606Y-4.1063
T2
X3.9711Y-4.0394
X4.0211Y-3.9894
X4.0711Y-4.0394
X7.5425Y-3.5872
X7.5425Y-3.6872
X7.5925Y-3.6372
T3
X3.4604Y-4.2835
X3.7604Y-4.2835
X7.3917Y-3.5742
X7.3917Y-3.8742
T4
X2.8356Y-3.6575
X2.9356Y-3.6575
X3.0356Y-3.6575
X3.203Y-2.7303
X3.203Y-2.8303
X3.203Y-2.9303
X3.203Y-3.0303
X3.7266Y-3.0781
X3.7266Y-3.1781
X3.9129Y-2.7604
X3.9129Y-2.8604
X3.9129Y-2.9604
X3.9129Y-3.0604
X4.0238Y-3.5945
X4.1238Y-3.5945
X4.1612Y-3.2717
X4.2238Y-3.5945
X4.2612Y-3.2717
X4.264Y-3.9354
X4.264Y-4.0354
X4.264Y-4.1354
X4.3612Y-3.2717
X4.4612Y-3.2717
X4.6616Y-3.7165
X4.7136Y-3.9461
X4.7136Y-4.0461
X4.7136Y-4.1461
X4.7136Y-4.2461
X5.2191Y-3.6299
X5.3191Y-3.6299
X5.4144Y-2.2087
X5.4144Y-2.3087
X5.4191Y-3.6299
X5.5144Y-2.2087
X5.5144Y-2.3087
X5.6144Y-2.2087
X5.6144Y-2.3087
X5.7085Y-3.6717
X5.7085Y-3.7717
X5.7144Y-2.2087
X5.7144Y-2.3087
X5.8085Y-3.6717
X5.8085Y-3.7717
X5.9085Y-3.6717
X5.9085Y-3.7717
X6.0085Y-3.6717
X6.0085Y-3.7717
X6.2049Y-3.6929
X6.2228Y-2.2835
X6.3071Y-3.9839
X6.3071Y-4.0839
X6.3071Y-4.1839
X6.3071Y-4.2839
X6.3228Y-2.2835
X6.4228Y-2.2835
X6.6161Y-2.2854
X6.815Y-3.9894
X6.815Y-4.0894
X6.815Y-4.1894
X6.815Y-4.2894
X6.8488Y-3.6339
X6.9488Y-3.6339
X7.2657Y-4.0634
X7.6752Y-3.9413
X7.7752Y-3.9413
X7.7884Y-4.4449
X7.7898Y-4.2441
X7.8752Y-3.9413
X7.8884Y-4.4449
X7.8898Y-4.2441
X7.9783Y-2.8783
X7.9783Y-2.9783
X7.9783Y-3.0783
X7.9898Y-4.2441
X7.9902Y-3.5909
X7.9902Y-3.6909
X7.9902Y-3.7909
T5
X5.2189Y-2.4764
X5.2189Y-3.4764
X5.3189Y-2.4764
X5.3189Y-3.4764
X5.4189Y-2.4764
X5.4189Y-3.4764
X5.5189Y-2.4764
X5.5189Y-3.4764
X5.6189Y-2.4764
X5.6189Y-3.4764
X5.7189Y-2.4764
X5.7189Y-3.4764
X5.8189Y-2.4764
X5.8189Y-3.4764
X5.9189Y-2.4764
X5.9189Y-3.4764
X6.0189Y-2.4764
X6.0189Y-3.4764
X6.1189Y-2.4764
X6.1189Y-3.4764
X6.2189Y-2.4764
X6.2189Y-3.4764
X6.3189Y-2.4764
X6.3189Y-3.4764
X6.4189Y-2.4764
X6.4189Y-3.4764
X6.5189Y-2.4764
X6.5189Y-3.4764
X6.6189Y-2.4764
X6.6189Y-3.4764
T6
X3.8388Y-3.8937
X7.5886Y-3.4413
T7
X2.8832Y-3.8667
X2.8832Y-4.0667
X2.8832Y-4.2667
X2.8957Y-2.5906
X2.8957Y-2.7906
X2.8957Y-2.9906
X2.8957Y-3.1906
X4.5931Y-2.8475
X4.7931Y-2.8475
X5.703Y-4.3099
X5.903Y-4.3099
X7.4858Y-2.498
X7.6858Y-2.498
X7.8858Y-2.498
T8
X3.2797Y-3.6575
X3.2797Y-4.1299
X3.76Y-3.6575
X3.76Y-4.1299
X7.3524Y-2.8823
X7.3524Y-3.3626
X7.8248Y-2.8823
X7.8248Y-3.3626
T4
G00X5.2378Y-3.9477
M15
G01X5.3402Y-3.9477
M16
G05
G00X5.2457Y-4.1958
M15
G01X5.3323Y-4.1958
M16
G05
G00X5.478Y-4.0186
M15
G01X5.478Y-4.1052
M16
G05
M30
