%TF.GenerationSoftware,KiCad,Pcbnew,9.0.7-9.0.7~ubuntu24.04.1*%
%TF.CreationDate,2026-02-17T11:42:20-05:00*%
%TF.ProjectId,plantPartner_PCB1.0,706c616e-7450-4617-9274-6e65725f5043,rev?*%
%TF.SameCoordinates,Original*%
%TF.FileFunction,Soldermask,Bot*%
%TF.FilePolarity,Negative*%
%FSLAX46Y46*%
G04 Gerber Fmt 4.6, Leading zero omitted, Abs format (unit mm)*
G04 Created by KiCad (PCBNEW 9.0.7-9.0.7~ubuntu24.04.1) date 2026-02-17 11:42:20*
%MOMM*%
%LPD*%
G01*
G04 APERTURE LIST*
G04 Aperture macros list*
%AMRoundRect*
0 Rectangle with rounded corners*
0 $1 Rounding radius*
0 $2 $3 $4 $5 $6 $7 $8 $9 X,Y pos of 4 corners*
0 Add a 4 corners polygon primitive as box body*
4,1,4,$2,$3,$4,$5,$6,$7,$8,$9,$2,$3,0*
0 Add four circle primitives for the rounded corners*
1,1,$1+$1,$2,$3*
1,1,$1+$1,$4,$5*
1,1,$1+$1,$6,$7*
1,1,$1+$1,$8,$9*
0 Add four rect primitives between the rounded corners*
20,1,$1+$1,$2,$3,$4,$5,0*
20,1,$1+$1,$4,$5,$6,$7,0*
20,1,$1+$1,$6,$7,$8,$9,0*
20,1,$1+$1,$8,$9,$2,$3,0*%
G04 Aperture macros list end*
%ADD10C,3.200000*%
%ADD11R,1.700000X1.700000*%
%ADD12C,1.700000*%
%ADD13RoundRect,0.250000X1.050000X1.050000X-1.050000X1.050000X-1.050000X-1.050000X1.050000X-1.050000X0*%
%ADD14C,2.600000*%
%ADD15RoundRect,0.250000X-1.050000X1.050000X-1.050000X-1.050000X1.050000X-1.050000X1.050000X1.050000X0*%
%ADD16RoundRect,0.250000X0.650000X0.650000X-0.650000X0.650000X-0.650000X-0.650000X0.650000X-0.650000X0*%
%ADD17C,1.800000*%
%ADD18RoundRect,0.102000X0.990000X-0.990000X0.990000X0.990000X-0.990000X0.990000X-0.990000X-0.990000X0*%
%ADD19C,2.184000*%
%ADD20C,2.139000*%
%ADD21RoundRect,0.250000X-1.050000X-1.050000X1.050000X-1.050000X1.050000X1.050000X-1.050000X1.050000X0*%
%ADD22C,3.000000*%
%ADD23RoundRect,0.102000X-1.000000X1.000000X-1.000000X-1.000000X1.000000X-1.000000X1.000000X1.000000X0*%
%ADD24C,2.204000*%
%ADD25RoundRect,0.250000X-0.650000X0.650000X-0.650000X-0.650000X0.650000X-0.650000X0.650000X0.650000X0*%
%ADD26RoundRect,0.102000X0.990000X0.990000X-0.990000X0.990000X-0.990000X-0.990000X0.990000X-0.990000X0*%
%ADD27R,1.300000X1.300000*%
%ADD28C,1.300000*%
%ADD29R,4.600000X2.000000*%
%ADD30O,4.200000X2.000000*%
%ADD31O,2.000000X4.200000*%
G04 APERTURE END LIST*
D10*
%TO.C,BottomLeft*%
X68350000Y-115000000D03*
%TD*%
D11*
%TO.C,J20*%
X144995000Y-95800000D03*
D12*
X144995000Y-93260000D03*
X147535000Y-95800000D03*
X147535000Y-93260000D03*
X150075000Y-95800000D03*
X150075000Y-93260000D03*
X152615000Y-95800000D03*
X152615000Y-93260000D03*
%TD*%
D13*
%TO.C,J30*%
X121745000Y-72327500D03*
D14*
X116665000Y-72327500D03*
%TD*%
D11*
%TO.C,J1*%
X160200000Y-108810000D03*
D12*
X160200000Y-106270000D03*
X160200000Y-103730000D03*
X160200000Y-101190000D03*
%TD*%
D10*
%TO.C,TopLeft*%
X68300000Y-56750000D03*
%TD*%
%TO.C,TopRight*%
X206900000Y-56150000D03*
%TD*%
D15*
%TO.C,J4*%
X73550000Y-65800000D03*
D14*
X73550000Y-70880000D03*
X73550000Y-75960000D03*
X73550000Y-81040000D03*
%TD*%
D11*
%TO.C,J16*%
X173100000Y-101330000D03*
D12*
X173100000Y-103870000D03*
X173100000Y-106410000D03*
X173100000Y-108950000D03*
%TD*%
D11*
%TO.C,J11*%
X94655000Y-80725000D03*
D12*
X94655000Y-78185000D03*
%TD*%
D11*
%TO.C,J8*%
X145145000Y-56100000D03*
D12*
X145145000Y-58640000D03*
X142605000Y-56100000D03*
X142605000Y-58640000D03*
X140065000Y-56100000D03*
X140065000Y-58640000D03*
X137525000Y-56100000D03*
X137525000Y-58640000D03*
%TD*%
D11*
%TO.C,J27*%
X118405000Y-94400000D03*
%TD*%
%TO.C,J22*%
X119726250Y-100230000D03*
D12*
X119726250Y-102770000D03*
X119726250Y-105310000D03*
X119726250Y-107850000D03*
%TD*%
D16*
%TO.C,D4*%
X95515000Y-108800000D03*
D17*
X87895000Y-108800000D03*
%TD*%
D11*
%TO.C,J29*%
X173960000Y-92300000D03*
D12*
X176500000Y-92300000D03*
%TD*%
D11*
%TO.C,J3*%
X81355000Y-76970000D03*
D12*
X81355000Y-74430000D03*
X81355000Y-71890000D03*
X81355000Y-69350000D03*
%TD*%
D11*
%TO.C,J26*%
X184550000Y-103210000D03*
%TD*%
D18*
%TO.C,K2*%
X186750000Y-85410000D03*
D19*
X198750000Y-85410000D03*
D20*
X192750000Y-87410000D03*
D19*
X186750000Y-73210000D03*
X198750000Y-73210000D03*
%TD*%
D11*
%TO.C,J2*%
X99388800Y-70115000D03*
D12*
X99388800Y-72655000D03*
X99388800Y-75195000D03*
X99388800Y-77735000D03*
%TD*%
D11*
%TO.C,J5*%
X197825000Y-112900000D03*
D12*
X200365000Y-112900000D03*
%TD*%
D11*
%TO.C,J24*%
X163140000Y-58000000D03*
D12*
X160600000Y-58000000D03*
X158060000Y-58000000D03*
%TD*%
D11*
%TO.C,J9*%
X202950000Y-91210000D03*
D12*
X202950000Y-93750000D03*
X202950000Y-96290000D03*
%TD*%
D10*
%TO.C,BottomRight*%
X207250000Y-114250000D03*
%TD*%
D11*
%TO.C,J25*%
X132565000Y-92200000D03*
D12*
X135105000Y-92200000D03*
X137645000Y-92200000D03*
%TD*%
D11*
%TO.C,J14*%
X108305000Y-105040000D03*
D12*
X108305000Y-102500000D03*
X108305000Y-99960000D03*
%TD*%
D11*
%TO.C,J12*%
X194950000Y-100110000D03*
D12*
X197490000Y-100110000D03*
X200030000Y-100110000D03*
%TD*%
D11*
%TO.C,J17*%
X197860000Y-107800000D03*
D12*
X200400000Y-107800000D03*
X202940000Y-107800000D03*
%TD*%
D11*
%TO.C,J21*%
X105695000Y-83100000D03*
D12*
X108235000Y-83100000D03*
X110775000Y-83100000D03*
X113315000Y-83100000D03*
%TD*%
D15*
%TO.C,J6*%
X73232500Y-98215000D03*
D14*
X73232500Y-103295000D03*
X73232500Y-108375000D03*
%TD*%
D11*
%TO.C,J7*%
X102205000Y-91300000D03*
D12*
X104745000Y-91300000D03*
X107285000Y-91300000D03*
%TD*%
D21*
%TO.C,J18*%
X144855000Y-109472500D03*
D14*
X149935000Y-109472500D03*
%TD*%
D11*
%TO.C,J28*%
X168050000Y-58050000D03*
%TD*%
D22*
%TO.C,U3*%
X176080000Y-63320000D03*
X129130000Y-63320000D03*
X176080000Y-87830000D03*
X129130000Y-87830000D03*
D23*
X168120000Y-62900000D03*
D24*
X165580000Y-62900000D03*
X163040000Y-62900000D03*
X160500000Y-62900000D03*
X157960000Y-62900000D03*
X155420000Y-62900000D03*
X152880000Y-62900000D03*
X150340000Y-62900000D03*
X147800000Y-62900000D03*
X145260000Y-62900000D03*
X142720000Y-62900000D03*
X140180000Y-62900000D03*
X137640000Y-62900000D03*
X135100000Y-62900000D03*
X132560000Y-62900000D03*
X132560000Y-88300000D03*
X135100000Y-88300000D03*
X137640000Y-88300000D03*
X140180000Y-88300000D03*
X142720000Y-88300000D03*
X145260000Y-88300000D03*
X147800000Y-88300000D03*
X150340000Y-88300000D03*
X152880000Y-88300000D03*
X155420000Y-88300000D03*
X157960000Y-88300000D03*
X160500000Y-88300000D03*
X163040000Y-88300000D03*
X165580000Y-88300000D03*
X168120000Y-88300000D03*
%TD*%
D25*
%TO.C,D7*%
X187750000Y-90784999D03*
D17*
X187750000Y-98404999D03*
%TD*%
D26*
%TO.C,K1*%
X95505000Y-104900000D03*
D19*
X95505000Y-92900000D03*
D20*
X97505000Y-98900000D03*
D19*
X83305000Y-104900000D03*
X83305000Y-92900000D03*
%TD*%
D11*
%TO.C,J15*%
X77105000Y-92900000D03*
D12*
X74565000Y-92900000D03*
X72025000Y-92900000D03*
%TD*%
D11*
%TO.C,J13*%
X202650000Y-73110000D03*
D12*
X202650000Y-75650000D03*
X202650000Y-78190000D03*
%TD*%
D27*
%TO.C,Q1*%
X100865000Y-102600000D03*
D28*
X102135000Y-101330000D03*
X103405000Y-102600000D03*
%TD*%
D11*
%TO.C,J23*%
X157605000Y-93800000D03*
%TD*%
D13*
%TO.C,J10*%
X200300000Y-63450000D03*
D14*
X195220000Y-63450000D03*
X190140000Y-63450000D03*
%TD*%
D29*
%TO.C,J19*%
X134340000Y-100272500D03*
D30*
X134340000Y-106572500D03*
D31*
X139140000Y-103172500D03*
%TD*%
D27*
%TO.C,Q2*%
X191580000Y-91114999D03*
D28*
X192850000Y-92384999D03*
X191580000Y-93654999D03*
%TD*%
M02*
