%TF.GenerationSoftware,KiCad,Pcbnew,9.0.7-9.0.7~ubuntu24.04.1*%
%TF.CreationDate,2026-02-17T11:42:20-05:00*%
%TF.ProjectId,plantPartner_PCB1.0,706c616e-7450-4617-9274-6e65725f5043,rev?*%
%TF.SameCoordinates,Original*%
%TF.FileFunction,Legend,Top*%
%TF.FilePolarity,Positive*%
%FSLAX46Y46*%
G04 Gerber Fmt 4.6, Leading zero omitted, Abs format (unit mm)*
G04 Created by KiCad (PCBNEW 9.0.7-9.0.7~ubuntu24.04.1) date 2026-02-17 11:42:20*
%MOMM*%
%LPD*%
G01*
G04 APERTURE LIST*
%ADD10C,0.100000*%
%ADD11C,0.087500*%
%ADD12C,0.150000*%
%ADD13C,0.140000*%
%ADD14C,0.120000*%
%ADD15C,0.203200*%
%ADD16C,0.127000*%
%ADD17C,0.300000*%
%ADD18C,0.200000*%
%ADD19C,0.152400*%
G04 APERTURE END LIST*
D10*
X155500000Y-99000000D02*
X177900000Y-99000000D01*
X177900000Y-112600000D01*
X155500000Y-112600000D01*
X155500000Y-99000000D01*
X182150000Y-55110000D02*
X208150000Y-55110000D01*
X208150000Y-105510000D01*
X182150000Y-105510000D01*
X182150000Y-55110000D01*
X65605000Y-87800000D02*
X116005000Y-87800000D01*
X116005000Y-113800000D01*
X65605000Y-113800000D01*
X65605000Y-87800000D01*
X65755000Y-62150000D02*
X103355000Y-62150000D01*
X103355000Y-84950000D01*
X65755000Y-84950000D01*
X65755000Y-62150000D01*
X104256265Y-80691466D02*
X104865789Y-80691466D01*
X104561027Y-81072419D02*
X104561027Y-80310514D01*
X105627693Y-80072419D02*
X105246741Y-80072419D01*
X105246741Y-80072419D02*
X105208645Y-80548609D01*
X105208645Y-80548609D02*
X105246741Y-80500990D01*
X105246741Y-80500990D02*
X105322931Y-80453371D01*
X105322931Y-80453371D02*
X105513407Y-80453371D01*
X105513407Y-80453371D02*
X105589598Y-80500990D01*
X105589598Y-80500990D02*
X105627693Y-80548609D01*
X105627693Y-80548609D02*
X105665788Y-80643847D01*
X105665788Y-80643847D02*
X105665788Y-80881942D01*
X105665788Y-80881942D02*
X105627693Y-80977180D01*
X105627693Y-80977180D02*
X105589598Y-81024800D01*
X105589598Y-81024800D02*
X105513407Y-81072419D01*
X105513407Y-81072419D02*
X105322931Y-81072419D01*
X105322931Y-81072419D02*
X105246741Y-81024800D01*
X105246741Y-81024800D02*
X105208645Y-80977180D01*
X105894360Y-80072419D02*
X106161027Y-81072419D01*
X106161027Y-81072419D02*
X106427693Y-80072419D01*
X176537217Y-95072419D02*
X176156265Y-95072419D01*
X176156265Y-95072419D02*
X176156265Y-94072419D01*
X176765788Y-95024800D02*
X176880074Y-95072419D01*
X176880074Y-95072419D02*
X177070550Y-95072419D01*
X177070550Y-95072419D02*
X177146741Y-95024800D01*
X177146741Y-95024800D02*
X177184836Y-94977180D01*
X177184836Y-94977180D02*
X177222931Y-94881942D01*
X177222931Y-94881942D02*
X177222931Y-94786704D01*
X177222931Y-94786704D02*
X177184836Y-94691466D01*
X177184836Y-94691466D02*
X177146741Y-94643847D01*
X177146741Y-94643847D02*
X177070550Y-94596228D01*
X177070550Y-94596228D02*
X176918169Y-94548609D01*
X176918169Y-94548609D02*
X176841979Y-94500990D01*
X176841979Y-94500990D02*
X176803884Y-94453371D01*
X176803884Y-94453371D02*
X176765788Y-94358133D01*
X176765788Y-94358133D02*
X176765788Y-94262895D01*
X176765788Y-94262895D02*
X176803884Y-94167657D01*
X176803884Y-94167657D02*
X176841979Y-94120038D01*
X176841979Y-94120038D02*
X176918169Y-94072419D01*
X176918169Y-94072419D02*
X177108646Y-94072419D01*
X177108646Y-94072419D02*
X177222931Y-94120038D01*
D11*
X155624231Y-106592116D02*
X156157565Y-106592116D01*
X155890898Y-106973069D02*
X155890898Y-106211164D01*
X156857565Y-106973069D02*
X156457565Y-106973069D01*
X156657565Y-106973069D02*
X156657565Y-105973069D01*
X156657565Y-105973069D02*
X156590898Y-106115926D01*
X156590898Y-106115926D02*
X156524232Y-106211164D01*
X156524232Y-106211164D02*
X156457565Y-106258783D01*
X157124232Y-106068307D02*
X157157565Y-106020688D01*
X157157565Y-106020688D02*
X157224232Y-105973069D01*
X157224232Y-105973069D02*
X157390899Y-105973069D01*
X157390899Y-105973069D02*
X157457565Y-106020688D01*
X157457565Y-106020688D02*
X157490899Y-106068307D01*
X157490899Y-106068307D02*
X157524232Y-106163545D01*
X157524232Y-106163545D02*
X157524232Y-106258783D01*
X157524232Y-106258783D02*
X157490899Y-106401640D01*
X157490899Y-106401640D02*
X157090899Y-106973069D01*
X157090899Y-106973069D02*
X157524232Y-106973069D01*
X157724232Y-105973069D02*
X157957566Y-106973069D01*
X157957566Y-106973069D02*
X158190899Y-105973069D01*
D10*
X116656265Y-90872419D02*
X116656265Y-89872419D01*
X116656265Y-89872419D02*
X116961027Y-89872419D01*
X116961027Y-89872419D02*
X117037217Y-89920038D01*
X117037217Y-89920038D02*
X117075312Y-89967657D01*
X117075312Y-89967657D02*
X117113408Y-90062895D01*
X117113408Y-90062895D02*
X117113408Y-90205752D01*
X117113408Y-90205752D02*
X117075312Y-90300990D01*
X117075312Y-90300990D02*
X117037217Y-90348609D01*
X117037217Y-90348609D02*
X116961027Y-90396228D01*
X116961027Y-90396228D02*
X116656265Y-90396228D01*
X117380074Y-89872419D02*
X117570550Y-90872419D01*
X117570550Y-90872419D02*
X117722931Y-90158133D01*
X117722931Y-90158133D02*
X117875312Y-90872419D01*
X117875312Y-90872419D02*
X118065789Y-89872419D01*
X118370551Y-90872419D02*
X118370551Y-89872419D01*
X118370551Y-89872419D02*
X118637217Y-90586704D01*
X118637217Y-90586704D02*
X118903884Y-89872419D01*
X118903884Y-89872419D02*
X118903884Y-90872419D01*
D11*
X166169231Y-55599259D02*
X166402565Y-55599259D01*
X166502565Y-56123069D02*
X166169231Y-56123069D01*
X166169231Y-56123069D02*
X166169231Y-55123069D01*
X166169231Y-55123069D02*
X166502565Y-55123069D01*
X166769231Y-56075450D02*
X166869231Y-56123069D01*
X166869231Y-56123069D02*
X167035898Y-56123069D01*
X167035898Y-56123069D02*
X167102564Y-56075450D01*
X167102564Y-56075450D02*
X167135898Y-56027830D01*
X167135898Y-56027830D02*
X167169231Y-55932592D01*
X167169231Y-55932592D02*
X167169231Y-55837354D01*
X167169231Y-55837354D02*
X167135898Y-55742116D01*
X167135898Y-55742116D02*
X167102564Y-55694497D01*
X167102564Y-55694497D02*
X167035898Y-55646878D01*
X167035898Y-55646878D02*
X166902564Y-55599259D01*
X166902564Y-55599259D02*
X166835898Y-55551640D01*
X166835898Y-55551640D02*
X166802564Y-55504021D01*
X166802564Y-55504021D02*
X166769231Y-55408783D01*
X166769231Y-55408783D02*
X166769231Y-55313545D01*
X166769231Y-55313545D02*
X166802564Y-55218307D01*
X166802564Y-55218307D02*
X166835898Y-55170688D01*
X166835898Y-55170688D02*
X166902564Y-55123069D01*
X166902564Y-55123069D02*
X167069231Y-55123069D01*
X167069231Y-55123069D02*
X167169231Y-55170688D01*
X167469231Y-56123069D02*
X167469231Y-55123069D01*
X167469231Y-55123069D02*
X167735898Y-55123069D01*
X167735898Y-55123069D02*
X167802565Y-55170688D01*
X167802565Y-55170688D02*
X167835898Y-55218307D01*
X167835898Y-55218307D02*
X167869231Y-55313545D01*
X167869231Y-55313545D02*
X167869231Y-55456402D01*
X167869231Y-55456402D02*
X167835898Y-55551640D01*
X167835898Y-55551640D02*
X167802565Y-55599259D01*
X167802565Y-55599259D02*
X167735898Y-55646878D01*
X167735898Y-55646878D02*
X167469231Y-55646878D01*
X168635898Y-55123069D02*
X169069231Y-55123069D01*
X169069231Y-55123069D02*
X168835898Y-55504021D01*
X168835898Y-55504021D02*
X168935898Y-55504021D01*
X168935898Y-55504021D02*
X169002564Y-55551640D01*
X169002564Y-55551640D02*
X169035898Y-55599259D01*
X169035898Y-55599259D02*
X169069231Y-55694497D01*
X169069231Y-55694497D02*
X169069231Y-55932592D01*
X169069231Y-55932592D02*
X169035898Y-56027830D01*
X169035898Y-56027830D02*
X169002564Y-56075450D01*
X169002564Y-56075450D02*
X168935898Y-56123069D01*
X168935898Y-56123069D02*
X168735898Y-56123069D01*
X168735898Y-56123069D02*
X168669231Y-56075450D01*
X168669231Y-56075450D02*
X168635898Y-56027830D01*
X169369231Y-56027830D02*
X169402565Y-56075450D01*
X169402565Y-56075450D02*
X169369231Y-56123069D01*
X169369231Y-56123069D02*
X169335898Y-56075450D01*
X169335898Y-56075450D02*
X169369231Y-56027830D01*
X169369231Y-56027830D02*
X169369231Y-56123069D01*
X169635898Y-55123069D02*
X170069231Y-55123069D01*
X170069231Y-55123069D02*
X169835898Y-55504021D01*
X169835898Y-55504021D02*
X169935898Y-55504021D01*
X169935898Y-55504021D02*
X170002564Y-55551640D01*
X170002564Y-55551640D02*
X170035898Y-55599259D01*
X170035898Y-55599259D02*
X170069231Y-55694497D01*
X170069231Y-55694497D02*
X170069231Y-55932592D01*
X170069231Y-55932592D02*
X170035898Y-56027830D01*
X170035898Y-56027830D02*
X170002564Y-56075450D01*
X170002564Y-56075450D02*
X169935898Y-56123069D01*
X169935898Y-56123069D02*
X169735898Y-56123069D01*
X169735898Y-56123069D02*
X169669231Y-56075450D01*
X169669231Y-56075450D02*
X169635898Y-56027830D01*
X170269231Y-55123069D02*
X170502565Y-56123069D01*
X170502565Y-56123069D02*
X170735898Y-55123069D01*
D10*
X102083408Y-75782419D02*
X101816741Y-75306228D01*
X101626265Y-75782419D02*
X101626265Y-74782419D01*
X101626265Y-74782419D02*
X101931027Y-74782419D01*
X101931027Y-74782419D02*
X102007217Y-74830038D01*
X102007217Y-74830038D02*
X102045312Y-74877657D01*
X102045312Y-74877657D02*
X102083408Y-74972895D01*
X102083408Y-74972895D02*
X102083408Y-75115752D01*
X102083408Y-75115752D02*
X102045312Y-75210990D01*
X102045312Y-75210990D02*
X102007217Y-75258609D01*
X102007217Y-75258609D02*
X101931027Y-75306228D01*
X101931027Y-75306228D02*
X101626265Y-75306228D01*
X102426265Y-75258609D02*
X102692931Y-75258609D01*
X102807217Y-75782419D02*
X102426265Y-75782419D01*
X102426265Y-75782419D02*
X102426265Y-74782419D01*
X102426265Y-74782419D02*
X102807217Y-74782419D01*
D11*
X156924231Y-108849259D02*
X157157565Y-108849259D01*
X157257565Y-109373069D02*
X156924231Y-109373069D01*
X156924231Y-109373069D02*
X156924231Y-108373069D01*
X156924231Y-108373069D02*
X157257565Y-108373069D01*
X157557564Y-109373069D02*
X157557564Y-108373069D01*
X157557564Y-108373069D02*
X157957564Y-109373069D01*
X157957564Y-109373069D02*
X157957564Y-108373069D01*
D10*
X80056265Y-79391466D02*
X80665789Y-79391466D01*
X80361027Y-79772419D02*
X80361027Y-79010514D01*
X81427693Y-78772419D02*
X81046741Y-78772419D01*
X81046741Y-78772419D02*
X81008645Y-79248609D01*
X81008645Y-79248609D02*
X81046741Y-79200990D01*
X81046741Y-79200990D02*
X81122931Y-79153371D01*
X81122931Y-79153371D02*
X81313407Y-79153371D01*
X81313407Y-79153371D02*
X81389598Y-79200990D01*
X81389598Y-79200990D02*
X81427693Y-79248609D01*
X81427693Y-79248609D02*
X81465788Y-79343847D01*
X81465788Y-79343847D02*
X81465788Y-79581942D01*
X81465788Y-79581942D02*
X81427693Y-79677180D01*
X81427693Y-79677180D02*
X81389598Y-79724800D01*
X81389598Y-79724800D02*
X81313407Y-79772419D01*
X81313407Y-79772419D02*
X81122931Y-79772419D01*
X81122931Y-79772419D02*
X81046741Y-79724800D01*
X81046741Y-79724800D02*
X81008645Y-79677180D01*
X81694360Y-78772419D02*
X81961027Y-79772419D01*
X81961027Y-79772419D02*
X82227693Y-78772419D01*
X67384961Y-107675312D02*
X67432580Y-107599122D01*
X67432580Y-107599122D02*
X67432580Y-107484836D01*
X67432580Y-107484836D02*
X67384961Y-107370550D01*
X67384961Y-107370550D02*
X67289723Y-107294360D01*
X67289723Y-107294360D02*
X67194485Y-107256265D01*
X67194485Y-107256265D02*
X67004009Y-107218169D01*
X67004009Y-107218169D02*
X66861152Y-107218169D01*
X66861152Y-107218169D02*
X66670676Y-107256265D01*
X66670676Y-107256265D02*
X66575438Y-107294360D01*
X66575438Y-107294360D02*
X66480200Y-107370550D01*
X66480200Y-107370550D02*
X66432580Y-107484836D01*
X66432580Y-107484836D02*
X66432580Y-107561027D01*
X66432580Y-107561027D02*
X66480200Y-107675312D01*
X66480200Y-107675312D02*
X66527819Y-107713408D01*
X66527819Y-107713408D02*
X66861152Y-107713408D01*
X66861152Y-107713408D02*
X66861152Y-107561027D01*
X66432580Y-108056265D02*
X67432580Y-108056265D01*
X67432580Y-108056265D02*
X66432580Y-108513408D01*
X66432580Y-108513408D02*
X67432580Y-108513408D01*
X66432580Y-108894360D02*
X67432580Y-108894360D01*
X67432580Y-108894360D02*
X67432580Y-109084836D01*
X67432580Y-109084836D02*
X67384961Y-109199122D01*
X67384961Y-109199122D02*
X67289723Y-109275312D01*
X67289723Y-109275312D02*
X67194485Y-109313407D01*
X67194485Y-109313407D02*
X67004009Y-109351503D01*
X67004009Y-109351503D02*
X66861152Y-109351503D01*
X66861152Y-109351503D02*
X66670676Y-109313407D01*
X66670676Y-109313407D02*
X66575438Y-109275312D01*
X66575438Y-109275312D02*
X66480200Y-109199122D01*
X66480200Y-109199122D02*
X66432580Y-109084836D01*
X66432580Y-109084836D02*
X66432580Y-108894360D01*
X205626466Y-97096189D02*
X205626466Y-96486666D01*
X206007419Y-96791427D02*
X205245514Y-96791427D01*
X205007419Y-95724761D02*
X205007419Y-96105713D01*
X205007419Y-96105713D02*
X205483609Y-96143809D01*
X205483609Y-96143809D02*
X205435990Y-96105713D01*
X205435990Y-96105713D02*
X205388371Y-96029523D01*
X205388371Y-96029523D02*
X205388371Y-95839047D01*
X205388371Y-95839047D02*
X205435990Y-95762856D01*
X205435990Y-95762856D02*
X205483609Y-95724761D01*
X205483609Y-95724761D02*
X205578847Y-95686666D01*
X205578847Y-95686666D02*
X205816942Y-95686666D01*
X205816942Y-95686666D02*
X205912180Y-95724761D01*
X205912180Y-95724761D02*
X205959800Y-95762856D01*
X205959800Y-95762856D02*
X206007419Y-95839047D01*
X206007419Y-95839047D02*
X206007419Y-96029523D01*
X206007419Y-96029523D02*
X205959800Y-96105713D01*
X205959800Y-96105713D02*
X205912180Y-96143809D01*
X205007419Y-95458094D02*
X206007419Y-95191427D01*
X206007419Y-95191427D02*
X205007419Y-94924761D01*
X206007419Y-94048570D02*
X205007419Y-94048570D01*
X205483609Y-94048570D02*
X205483609Y-93591427D01*
X206007419Y-93591427D02*
X205007419Y-93591427D01*
X205055038Y-92181904D02*
X205007419Y-92258094D01*
X205007419Y-92258094D02*
X205007419Y-92372380D01*
X205007419Y-92372380D02*
X205055038Y-92486666D01*
X205055038Y-92486666D02*
X205150276Y-92562856D01*
X205150276Y-92562856D02*
X205245514Y-92600951D01*
X205245514Y-92600951D02*
X205435990Y-92639047D01*
X205435990Y-92639047D02*
X205578847Y-92639047D01*
X205578847Y-92639047D02*
X205769323Y-92600951D01*
X205769323Y-92600951D02*
X205864561Y-92562856D01*
X205864561Y-92562856D02*
X205959800Y-92486666D01*
X205959800Y-92486666D02*
X206007419Y-92372380D01*
X206007419Y-92372380D02*
X206007419Y-92296189D01*
X206007419Y-92296189D02*
X205959800Y-92181904D01*
X205959800Y-92181904D02*
X205912180Y-92143808D01*
X205912180Y-92143808D02*
X205578847Y-92143808D01*
X205578847Y-92143808D02*
X205578847Y-92296189D01*
X206007419Y-91800951D02*
X205007419Y-91800951D01*
X205007419Y-91800951D02*
X206007419Y-91343808D01*
X206007419Y-91343808D02*
X205007419Y-91343808D01*
X206007419Y-90962856D02*
X205007419Y-90962856D01*
X205007419Y-90962856D02*
X205007419Y-90772380D01*
X205007419Y-90772380D02*
X205055038Y-90658094D01*
X205055038Y-90658094D02*
X205150276Y-90581904D01*
X205150276Y-90581904D02*
X205245514Y-90543809D01*
X205245514Y-90543809D02*
X205435990Y-90505713D01*
X205435990Y-90505713D02*
X205578847Y-90505713D01*
X205578847Y-90505713D02*
X205769323Y-90543809D01*
X205769323Y-90543809D02*
X205864561Y-90581904D01*
X205864561Y-90581904D02*
X205959800Y-90658094D01*
X205959800Y-90658094D02*
X206007419Y-90772380D01*
X206007419Y-90772380D02*
X206007419Y-90962856D01*
X158922931Y-111408609D02*
X159037217Y-111456228D01*
X159037217Y-111456228D02*
X159075312Y-111503847D01*
X159075312Y-111503847D02*
X159113408Y-111599085D01*
X159113408Y-111599085D02*
X159113408Y-111741942D01*
X159113408Y-111741942D02*
X159075312Y-111837180D01*
X159075312Y-111837180D02*
X159037217Y-111884800D01*
X159037217Y-111884800D02*
X158961027Y-111932419D01*
X158961027Y-111932419D02*
X158656265Y-111932419D01*
X158656265Y-111932419D02*
X158656265Y-110932419D01*
X158656265Y-110932419D02*
X158922931Y-110932419D01*
X158922931Y-110932419D02*
X158999122Y-110980038D01*
X158999122Y-110980038D02*
X159037217Y-111027657D01*
X159037217Y-111027657D02*
X159075312Y-111122895D01*
X159075312Y-111122895D02*
X159075312Y-111218133D01*
X159075312Y-111218133D02*
X159037217Y-111313371D01*
X159037217Y-111313371D02*
X158999122Y-111360990D01*
X158999122Y-111360990D02*
X158922931Y-111408609D01*
X158922931Y-111408609D02*
X158656265Y-111408609D01*
X159799122Y-111265752D02*
X159799122Y-111932419D01*
X159456265Y-111265752D02*
X159456265Y-111789561D01*
X159456265Y-111789561D02*
X159494360Y-111884800D01*
X159494360Y-111884800D02*
X159570550Y-111932419D01*
X159570550Y-111932419D02*
X159684836Y-111932419D01*
X159684836Y-111932419D02*
X159761027Y-111884800D01*
X159761027Y-111884800D02*
X159799122Y-111837180D01*
X160522932Y-111884800D02*
X160446741Y-111932419D01*
X160446741Y-111932419D02*
X160294360Y-111932419D01*
X160294360Y-111932419D02*
X160218170Y-111884800D01*
X160218170Y-111884800D02*
X160180075Y-111837180D01*
X160180075Y-111837180D02*
X160141979Y-111741942D01*
X160141979Y-111741942D02*
X160141979Y-111456228D01*
X160141979Y-111456228D02*
X160180075Y-111360990D01*
X160180075Y-111360990D02*
X160218170Y-111313371D01*
X160218170Y-111313371D02*
X160294360Y-111265752D01*
X160294360Y-111265752D02*
X160446741Y-111265752D01*
X160446741Y-111265752D02*
X160522932Y-111313371D01*
X160865789Y-111932419D02*
X160865789Y-110932419D01*
X160941979Y-111551466D02*
X161170551Y-111932419D01*
X161170551Y-111265752D02*
X160865789Y-111646704D01*
X162580075Y-111837180D02*
X162541979Y-111884800D01*
X162541979Y-111884800D02*
X162427694Y-111932419D01*
X162427694Y-111932419D02*
X162351503Y-111932419D01*
X162351503Y-111932419D02*
X162237217Y-111884800D01*
X162237217Y-111884800D02*
X162161027Y-111789561D01*
X162161027Y-111789561D02*
X162122932Y-111694323D01*
X162122932Y-111694323D02*
X162084836Y-111503847D01*
X162084836Y-111503847D02*
X162084836Y-111360990D01*
X162084836Y-111360990D02*
X162122932Y-111170514D01*
X162122932Y-111170514D02*
X162161027Y-111075276D01*
X162161027Y-111075276D02*
X162237217Y-110980038D01*
X162237217Y-110980038D02*
X162351503Y-110932419D01*
X162351503Y-110932419D02*
X162427694Y-110932419D01*
X162427694Y-110932419D02*
X162541979Y-110980038D01*
X162541979Y-110980038D02*
X162580075Y-111027657D01*
X163037217Y-111932419D02*
X162961027Y-111884800D01*
X162961027Y-111884800D02*
X162922932Y-111837180D01*
X162922932Y-111837180D02*
X162884836Y-111741942D01*
X162884836Y-111741942D02*
X162884836Y-111456228D01*
X162884836Y-111456228D02*
X162922932Y-111360990D01*
X162922932Y-111360990D02*
X162961027Y-111313371D01*
X162961027Y-111313371D02*
X163037217Y-111265752D01*
X163037217Y-111265752D02*
X163151503Y-111265752D01*
X163151503Y-111265752D02*
X163227694Y-111313371D01*
X163227694Y-111313371D02*
X163265789Y-111360990D01*
X163265789Y-111360990D02*
X163303884Y-111456228D01*
X163303884Y-111456228D02*
X163303884Y-111741942D01*
X163303884Y-111741942D02*
X163265789Y-111837180D01*
X163265789Y-111837180D02*
X163227694Y-111884800D01*
X163227694Y-111884800D02*
X163151503Y-111932419D01*
X163151503Y-111932419D02*
X163037217Y-111932419D01*
X163646742Y-111265752D02*
X163646742Y-111932419D01*
X163646742Y-111360990D02*
X163684837Y-111313371D01*
X163684837Y-111313371D02*
X163761027Y-111265752D01*
X163761027Y-111265752D02*
X163875313Y-111265752D01*
X163875313Y-111265752D02*
X163951504Y-111313371D01*
X163951504Y-111313371D02*
X163989599Y-111408609D01*
X163989599Y-111408609D02*
X163989599Y-111932419D01*
X164294361Y-111265752D02*
X164484837Y-111932419D01*
X164484837Y-111932419D02*
X164675314Y-111265752D01*
X165284838Y-111884800D02*
X165208647Y-111932419D01*
X165208647Y-111932419D02*
X165056266Y-111932419D01*
X165056266Y-111932419D02*
X164980076Y-111884800D01*
X164980076Y-111884800D02*
X164941980Y-111789561D01*
X164941980Y-111789561D02*
X164941980Y-111408609D01*
X164941980Y-111408609D02*
X164980076Y-111313371D01*
X164980076Y-111313371D02*
X165056266Y-111265752D01*
X165056266Y-111265752D02*
X165208647Y-111265752D01*
X165208647Y-111265752D02*
X165284838Y-111313371D01*
X165284838Y-111313371D02*
X165322933Y-111408609D01*
X165322933Y-111408609D02*
X165322933Y-111503847D01*
X165322933Y-111503847D02*
X164941980Y-111599085D01*
X165665790Y-111932419D02*
X165665790Y-111265752D01*
X165665790Y-111456228D02*
X165703885Y-111360990D01*
X165703885Y-111360990D02*
X165741980Y-111313371D01*
X165741980Y-111313371D02*
X165818171Y-111265752D01*
X165818171Y-111265752D02*
X165894361Y-111265752D01*
X166046742Y-111265752D02*
X166351504Y-111265752D01*
X166161028Y-110932419D02*
X166161028Y-111789561D01*
X166161028Y-111789561D02*
X166199123Y-111884800D01*
X166199123Y-111884800D02*
X166275313Y-111932419D01*
X166275313Y-111932419D02*
X166351504Y-111932419D01*
X166922933Y-111884800D02*
X166846742Y-111932419D01*
X166846742Y-111932419D02*
X166694361Y-111932419D01*
X166694361Y-111932419D02*
X166618171Y-111884800D01*
X166618171Y-111884800D02*
X166580075Y-111789561D01*
X166580075Y-111789561D02*
X166580075Y-111408609D01*
X166580075Y-111408609D02*
X166618171Y-111313371D01*
X166618171Y-111313371D02*
X166694361Y-111265752D01*
X166694361Y-111265752D02*
X166846742Y-111265752D01*
X166846742Y-111265752D02*
X166922933Y-111313371D01*
X166922933Y-111313371D02*
X166961028Y-111408609D01*
X166961028Y-111408609D02*
X166961028Y-111503847D01*
X166961028Y-111503847D02*
X166580075Y-111599085D01*
X167303885Y-111932419D02*
X167303885Y-111265752D01*
X167303885Y-111456228D02*
X167341980Y-111360990D01*
X167341980Y-111360990D02*
X167380075Y-111313371D01*
X167380075Y-111313371D02*
X167456266Y-111265752D01*
X167456266Y-111265752D02*
X167532456Y-111265752D01*
X168637218Y-112313371D02*
X168599123Y-112265752D01*
X168599123Y-112265752D02*
X168522932Y-112122895D01*
X168522932Y-112122895D02*
X168484837Y-112027657D01*
X168484837Y-112027657D02*
X168446742Y-111884800D01*
X168446742Y-111884800D02*
X168408647Y-111646704D01*
X168408647Y-111646704D02*
X168408647Y-111456228D01*
X168408647Y-111456228D02*
X168446742Y-111218133D01*
X168446742Y-111218133D02*
X168484837Y-111075276D01*
X168484837Y-111075276D02*
X168522932Y-110980038D01*
X168522932Y-110980038D02*
X168599123Y-110837180D01*
X168599123Y-110837180D02*
X168637218Y-110789561D01*
X169361027Y-111932419D02*
X168903884Y-111932419D01*
X169132456Y-111932419D02*
X169132456Y-110932419D01*
X169132456Y-110932419D02*
X169056265Y-111075276D01*
X169056265Y-111075276D02*
X168980075Y-111170514D01*
X168980075Y-111170514D02*
X168903884Y-111218133D01*
X169665789Y-111027657D02*
X169703885Y-110980038D01*
X169703885Y-110980038D02*
X169780075Y-110932419D01*
X169780075Y-110932419D02*
X169970551Y-110932419D01*
X169970551Y-110932419D02*
X170046742Y-110980038D01*
X170046742Y-110980038D02*
X170084837Y-111027657D01*
X170084837Y-111027657D02*
X170122932Y-111122895D01*
X170122932Y-111122895D02*
X170122932Y-111218133D01*
X170122932Y-111218133D02*
X170084837Y-111360990D01*
X170084837Y-111360990D02*
X169627694Y-111932419D01*
X169627694Y-111932419D02*
X170122932Y-111932419D01*
X170351504Y-110932419D02*
X170618171Y-111932419D01*
X170618171Y-111932419D02*
X170884837Y-110932419D01*
X171646742Y-111265752D02*
X171951504Y-111265752D01*
X171761028Y-110932419D02*
X171761028Y-111789561D01*
X171761028Y-111789561D02*
X171799123Y-111884800D01*
X171799123Y-111884800D02*
X171875313Y-111932419D01*
X171875313Y-111932419D02*
X171951504Y-111932419D01*
X172332456Y-111932419D02*
X172256266Y-111884800D01*
X172256266Y-111884800D02*
X172218171Y-111837180D01*
X172218171Y-111837180D02*
X172180075Y-111741942D01*
X172180075Y-111741942D02*
X172180075Y-111456228D01*
X172180075Y-111456228D02*
X172218171Y-111360990D01*
X172218171Y-111360990D02*
X172256266Y-111313371D01*
X172256266Y-111313371D02*
X172332456Y-111265752D01*
X172332456Y-111265752D02*
X172446742Y-111265752D01*
X172446742Y-111265752D02*
X172522933Y-111313371D01*
X172522933Y-111313371D02*
X172561028Y-111360990D01*
X172561028Y-111360990D02*
X172599123Y-111456228D01*
X172599123Y-111456228D02*
X172599123Y-111741942D01*
X172599123Y-111741942D02*
X172561028Y-111837180D01*
X172561028Y-111837180D02*
X172522933Y-111884800D01*
X172522933Y-111884800D02*
X172446742Y-111932419D01*
X172446742Y-111932419D02*
X172332456Y-111932419D01*
X173932457Y-110932419D02*
X173551505Y-110932419D01*
X173551505Y-110932419D02*
X173513409Y-111408609D01*
X173513409Y-111408609D02*
X173551505Y-111360990D01*
X173551505Y-111360990D02*
X173627695Y-111313371D01*
X173627695Y-111313371D02*
X173818171Y-111313371D01*
X173818171Y-111313371D02*
X173894362Y-111360990D01*
X173894362Y-111360990D02*
X173932457Y-111408609D01*
X173932457Y-111408609D02*
X173970552Y-111503847D01*
X173970552Y-111503847D02*
X173970552Y-111741942D01*
X173970552Y-111741942D02*
X173932457Y-111837180D01*
X173932457Y-111837180D02*
X173894362Y-111884800D01*
X173894362Y-111884800D02*
X173818171Y-111932419D01*
X173818171Y-111932419D02*
X173627695Y-111932419D01*
X173627695Y-111932419D02*
X173551505Y-111884800D01*
X173551505Y-111884800D02*
X173513409Y-111837180D01*
X174199124Y-110932419D02*
X174465791Y-111932419D01*
X174465791Y-111932419D02*
X174732457Y-110932419D01*
X174922933Y-112313371D02*
X174961028Y-112265752D01*
X174961028Y-112265752D02*
X175037219Y-112122895D01*
X175037219Y-112122895D02*
X175075314Y-112027657D01*
X175075314Y-112027657D02*
X175113409Y-111884800D01*
X175113409Y-111884800D02*
X175151505Y-111646704D01*
X175151505Y-111646704D02*
X175151505Y-111456228D01*
X175151505Y-111456228D02*
X175113409Y-111218133D01*
X175113409Y-111218133D02*
X175075314Y-111075276D01*
X175075314Y-111075276D02*
X175037219Y-110980038D01*
X175037219Y-110980038D02*
X174961028Y-110837180D01*
X174961028Y-110837180D02*
X174922933Y-110789561D01*
X67513295Y-70668169D02*
X67513295Y-71049122D01*
X67227580Y-70591979D02*
X68227580Y-70858646D01*
X68227580Y-70858646D02*
X67227580Y-71125312D01*
D11*
X158914231Y-60903069D02*
X158914231Y-59903069D01*
X159247564Y-60236402D02*
X159247564Y-60903069D01*
X159247564Y-60331640D02*
X159280898Y-60284021D01*
X159280898Y-60284021D02*
X159347564Y-60236402D01*
X159347564Y-60236402D02*
X159447564Y-60236402D01*
X159447564Y-60236402D02*
X159514231Y-60284021D01*
X159514231Y-60284021D02*
X159547564Y-60379259D01*
X159547564Y-60379259D02*
X159547564Y-60903069D01*
X159780897Y-60236402D02*
X160047564Y-60236402D01*
X159880897Y-59903069D02*
X159880897Y-60760211D01*
X159880897Y-60760211D02*
X159914231Y-60855450D01*
X159914231Y-60855450D02*
X159980897Y-60903069D01*
X159980897Y-60903069D02*
X160047564Y-60903069D01*
X160280897Y-60807830D02*
X160314231Y-60855450D01*
X160314231Y-60855450D02*
X160280897Y-60903069D01*
X160280897Y-60903069D02*
X160247564Y-60855450D01*
X160247564Y-60855450D02*
X160280897Y-60807830D01*
X160280897Y-60807830D02*
X160280897Y-60903069D01*
X161480897Y-60903069D02*
X161147563Y-60903069D01*
X161147563Y-60903069D02*
X161147563Y-59903069D01*
X161714230Y-60379259D02*
X161947564Y-60379259D01*
X162047564Y-60903069D02*
X161714230Y-60903069D01*
X161714230Y-60903069D02*
X161714230Y-59903069D01*
X161714230Y-59903069D02*
X162047564Y-59903069D01*
X162347563Y-60903069D02*
X162347563Y-59903069D01*
X162347563Y-59903069D02*
X162514230Y-59903069D01*
X162514230Y-59903069D02*
X162614230Y-59950688D01*
X162614230Y-59950688D02*
X162680897Y-60045926D01*
X162680897Y-60045926D02*
X162714230Y-60141164D01*
X162714230Y-60141164D02*
X162747563Y-60331640D01*
X162747563Y-60331640D02*
X162747563Y-60474497D01*
X162747563Y-60474497D02*
X162714230Y-60664973D01*
X162714230Y-60664973D02*
X162680897Y-60760211D01*
X162680897Y-60760211D02*
X162614230Y-60855450D01*
X162614230Y-60855450D02*
X162514230Y-60903069D01*
X162514230Y-60903069D02*
X162347563Y-60903069D01*
D10*
X200231466Y-104653734D02*
X200231466Y-104044211D01*
X200612419Y-104348972D02*
X199850514Y-104348972D01*
X199612419Y-103282306D02*
X199612419Y-103663258D01*
X199612419Y-103663258D02*
X200088609Y-103701354D01*
X200088609Y-103701354D02*
X200040990Y-103663258D01*
X200040990Y-103663258D02*
X199993371Y-103587068D01*
X199993371Y-103587068D02*
X199993371Y-103396592D01*
X199993371Y-103396592D02*
X200040990Y-103320401D01*
X200040990Y-103320401D02*
X200088609Y-103282306D01*
X200088609Y-103282306D02*
X200183847Y-103244211D01*
X200183847Y-103244211D02*
X200421942Y-103244211D01*
X200421942Y-103244211D02*
X200517180Y-103282306D01*
X200517180Y-103282306D02*
X200564800Y-103320401D01*
X200564800Y-103320401D02*
X200612419Y-103396592D01*
X200612419Y-103396592D02*
X200612419Y-103587068D01*
X200612419Y-103587068D02*
X200564800Y-103663258D01*
X200564800Y-103663258D02*
X200517180Y-103701354D01*
X199612419Y-103015639D02*
X200612419Y-102748972D01*
X200612419Y-102748972D02*
X199612419Y-102482306D01*
X116922931Y-91648609D02*
X116656265Y-91648609D01*
X116656265Y-92172419D02*
X116656265Y-91172419D01*
X116656265Y-91172419D02*
X117037217Y-91172419D01*
X117646741Y-92124800D02*
X117570550Y-92172419D01*
X117570550Y-92172419D02*
X117418169Y-92172419D01*
X117418169Y-92172419D02*
X117341979Y-92124800D01*
X117341979Y-92124800D02*
X117303883Y-92029561D01*
X117303883Y-92029561D02*
X117303883Y-91648609D01*
X117303883Y-91648609D02*
X117341979Y-91553371D01*
X117341979Y-91553371D02*
X117418169Y-91505752D01*
X117418169Y-91505752D02*
X117570550Y-91505752D01*
X117570550Y-91505752D02*
X117646741Y-91553371D01*
X117646741Y-91553371D02*
X117684836Y-91648609D01*
X117684836Y-91648609D02*
X117684836Y-91743847D01*
X117684836Y-91743847D02*
X117303883Y-91839085D01*
X118027693Y-92172419D02*
X118027693Y-91505752D01*
X118027693Y-91696228D02*
X118065788Y-91600990D01*
X118065788Y-91600990D02*
X118103883Y-91553371D01*
X118103883Y-91553371D02*
X118180074Y-91505752D01*
X118180074Y-91505752D02*
X118256264Y-91505752D01*
X118408645Y-91505752D02*
X118713407Y-91505752D01*
X118522931Y-91172419D02*
X118522931Y-92029561D01*
X118522931Y-92029561D02*
X118561026Y-92124800D01*
X118561026Y-92124800D02*
X118637216Y-92172419D01*
X118637216Y-92172419D02*
X118713407Y-92172419D01*
X118980074Y-92172419D02*
X118980074Y-91505752D01*
X118980074Y-91172419D02*
X118941978Y-91220038D01*
X118941978Y-91220038D02*
X118980074Y-91267657D01*
X118980074Y-91267657D02*
X119018169Y-91220038D01*
X119018169Y-91220038D02*
X118980074Y-91172419D01*
X118980074Y-91172419D02*
X118980074Y-91267657D01*
X119475311Y-92172419D02*
X119399121Y-92124800D01*
X119399121Y-92124800D02*
X119361026Y-92029561D01*
X119361026Y-92029561D02*
X119361026Y-91172419D01*
X119780074Y-92172419D02*
X119780074Y-91505752D01*
X119780074Y-91172419D02*
X119741978Y-91220038D01*
X119741978Y-91220038D02*
X119780074Y-91267657D01*
X119780074Y-91267657D02*
X119818169Y-91220038D01*
X119818169Y-91220038D02*
X119780074Y-91172419D01*
X119780074Y-91172419D02*
X119780074Y-91267657D01*
X120084835Y-91505752D02*
X120503883Y-91505752D01*
X120503883Y-91505752D02*
X120084835Y-92172419D01*
X120084835Y-92172419D02*
X120503883Y-92172419D01*
X121113407Y-92124800D02*
X121037216Y-92172419D01*
X121037216Y-92172419D02*
X120884835Y-92172419D01*
X120884835Y-92172419D02*
X120808645Y-92124800D01*
X120808645Y-92124800D02*
X120770549Y-92029561D01*
X120770549Y-92029561D02*
X120770549Y-91648609D01*
X120770549Y-91648609D02*
X120808645Y-91553371D01*
X120808645Y-91553371D02*
X120884835Y-91505752D01*
X120884835Y-91505752D02*
X121037216Y-91505752D01*
X121037216Y-91505752D02*
X121113407Y-91553371D01*
X121113407Y-91553371D02*
X121151502Y-91648609D01*
X121151502Y-91648609D02*
X121151502Y-91743847D01*
X121151502Y-91743847D02*
X120770549Y-91839085D01*
X121494359Y-92172419D02*
X121494359Y-91505752D01*
X121494359Y-91696228D02*
X121532454Y-91600990D01*
X121532454Y-91600990D02*
X121570549Y-91553371D01*
X121570549Y-91553371D02*
X121646740Y-91505752D01*
X121646740Y-91505752D02*
X121722930Y-91505752D01*
D11*
X156590898Y-100720688D02*
X156524231Y-100673069D01*
X156524231Y-100673069D02*
X156424231Y-100673069D01*
X156424231Y-100673069D02*
X156324231Y-100720688D01*
X156324231Y-100720688D02*
X156257565Y-100815926D01*
X156257565Y-100815926D02*
X156224231Y-100911164D01*
X156224231Y-100911164D02*
X156190898Y-101101640D01*
X156190898Y-101101640D02*
X156190898Y-101244497D01*
X156190898Y-101244497D02*
X156224231Y-101434973D01*
X156224231Y-101434973D02*
X156257565Y-101530211D01*
X156257565Y-101530211D02*
X156324231Y-101625450D01*
X156324231Y-101625450D02*
X156424231Y-101673069D01*
X156424231Y-101673069D02*
X156490898Y-101673069D01*
X156490898Y-101673069D02*
X156590898Y-101625450D01*
X156590898Y-101625450D02*
X156624231Y-101577830D01*
X156624231Y-101577830D02*
X156624231Y-101244497D01*
X156624231Y-101244497D02*
X156490898Y-101244497D01*
X156924231Y-101673069D02*
X156924231Y-100673069D01*
X156924231Y-100673069D02*
X157324231Y-101673069D01*
X157324231Y-101673069D02*
X157324231Y-100673069D01*
X157657564Y-101673069D02*
X157657564Y-100673069D01*
X157657564Y-100673069D02*
X157824231Y-100673069D01*
X157824231Y-100673069D02*
X157924231Y-100720688D01*
X157924231Y-100720688D02*
X157990898Y-100815926D01*
X157990898Y-100815926D02*
X158024231Y-100911164D01*
X158024231Y-100911164D02*
X158057564Y-101101640D01*
X158057564Y-101101640D02*
X158057564Y-101244497D01*
X158057564Y-101244497D02*
X158024231Y-101434973D01*
X158024231Y-101434973D02*
X157990898Y-101530211D01*
X157990898Y-101530211D02*
X157924231Y-101625450D01*
X157924231Y-101625450D02*
X157824231Y-101673069D01*
X157824231Y-101673069D02*
X157657564Y-101673069D01*
D10*
X194756265Y-57672419D02*
X194756265Y-56672419D01*
X194756265Y-56672419D02*
X195213408Y-57672419D01*
X195213408Y-57672419D02*
X195213408Y-56672419D01*
X196051503Y-57577180D02*
X196013407Y-57624800D01*
X196013407Y-57624800D02*
X195899122Y-57672419D01*
X195899122Y-57672419D02*
X195822931Y-57672419D01*
X195822931Y-57672419D02*
X195708645Y-57624800D01*
X195708645Y-57624800D02*
X195632455Y-57529561D01*
X195632455Y-57529561D02*
X195594360Y-57434323D01*
X195594360Y-57434323D02*
X195556264Y-57243847D01*
X195556264Y-57243847D02*
X195556264Y-57100990D01*
X195556264Y-57100990D02*
X195594360Y-56910514D01*
X195594360Y-56910514D02*
X195632455Y-56815276D01*
X195632455Y-56815276D02*
X195708645Y-56720038D01*
X195708645Y-56720038D02*
X195822931Y-56672419D01*
X195822931Y-56672419D02*
X195899122Y-56672419D01*
X195899122Y-56672419D02*
X196013407Y-56720038D01*
X196013407Y-56720038D02*
X196051503Y-56767657D01*
X120630074Y-66672419D02*
X120153884Y-66672419D01*
X120153884Y-66672419D02*
X120153884Y-65672419D01*
X120725313Y-66767657D02*
X121487217Y-66767657D01*
X122249122Y-65720038D02*
X122153884Y-65672419D01*
X122153884Y-65672419D02*
X122011027Y-65672419D01*
X122011027Y-65672419D02*
X121868170Y-65720038D01*
X121868170Y-65720038D02*
X121772932Y-65815276D01*
X121772932Y-65815276D02*
X121725313Y-65910514D01*
X121725313Y-65910514D02*
X121677694Y-66100990D01*
X121677694Y-66100990D02*
X121677694Y-66243847D01*
X121677694Y-66243847D02*
X121725313Y-66434323D01*
X121725313Y-66434323D02*
X121772932Y-66529561D01*
X121772932Y-66529561D02*
X121868170Y-66624800D01*
X121868170Y-66624800D02*
X122011027Y-66672419D01*
X122011027Y-66672419D02*
X122106265Y-66672419D01*
X122106265Y-66672419D02*
X122249122Y-66624800D01*
X122249122Y-66624800D02*
X122296741Y-66577180D01*
X122296741Y-66577180D02*
X122296741Y-66243847D01*
X122296741Y-66243847D02*
X122106265Y-66243847D01*
X122725313Y-66672419D02*
X122725313Y-65672419D01*
X122725313Y-65672419D02*
X123296741Y-66672419D01*
X123296741Y-66672419D02*
X123296741Y-65672419D01*
X123772932Y-66672419D02*
X123772932Y-65672419D01*
X123772932Y-65672419D02*
X124011027Y-65672419D01*
X124011027Y-65672419D02*
X124153884Y-65720038D01*
X124153884Y-65720038D02*
X124249122Y-65815276D01*
X124249122Y-65815276D02*
X124296741Y-65910514D01*
X124296741Y-65910514D02*
X124344360Y-66100990D01*
X124344360Y-66100990D02*
X124344360Y-66243847D01*
X124344360Y-66243847D02*
X124296741Y-66434323D01*
X124296741Y-66434323D02*
X124249122Y-66529561D01*
X124249122Y-66529561D02*
X124153884Y-66624800D01*
X124153884Y-66624800D02*
X124011027Y-66672419D01*
X124011027Y-66672419D02*
X123772932Y-66672419D01*
X110561265Y-99891466D02*
X111170789Y-99891466D01*
X110866027Y-100272419D02*
X110866027Y-99510514D01*
X111932693Y-99272419D02*
X111551741Y-99272419D01*
X111551741Y-99272419D02*
X111513645Y-99748609D01*
X111513645Y-99748609D02*
X111551741Y-99700990D01*
X111551741Y-99700990D02*
X111627931Y-99653371D01*
X111627931Y-99653371D02*
X111818407Y-99653371D01*
X111818407Y-99653371D02*
X111894598Y-99700990D01*
X111894598Y-99700990D02*
X111932693Y-99748609D01*
X111932693Y-99748609D02*
X111970788Y-99843847D01*
X111970788Y-99843847D02*
X111970788Y-100081942D01*
X111970788Y-100081942D02*
X111932693Y-100177180D01*
X111932693Y-100177180D02*
X111894598Y-100224800D01*
X111894598Y-100224800D02*
X111818407Y-100272419D01*
X111818407Y-100272419D02*
X111627931Y-100272419D01*
X111627931Y-100272419D02*
X111551741Y-100224800D01*
X111551741Y-100224800D02*
X111513645Y-100177180D01*
X112199360Y-99272419D02*
X112466027Y-100272419D01*
X112466027Y-100272419D02*
X112732693Y-99272419D01*
D12*
X90808207Y-80217438D02*
X90732017Y-80169819D01*
X90732017Y-80169819D02*
X90617731Y-80169819D01*
X90617731Y-80169819D02*
X90503445Y-80217438D01*
X90503445Y-80217438D02*
X90427255Y-80312676D01*
X90427255Y-80312676D02*
X90389160Y-80407914D01*
X90389160Y-80407914D02*
X90351064Y-80598390D01*
X90351064Y-80598390D02*
X90351064Y-80741247D01*
X90351064Y-80741247D02*
X90389160Y-80931723D01*
X90389160Y-80931723D02*
X90427255Y-81026961D01*
X90427255Y-81026961D02*
X90503445Y-81122200D01*
X90503445Y-81122200D02*
X90617731Y-81169819D01*
X90617731Y-81169819D02*
X90693922Y-81169819D01*
X90693922Y-81169819D02*
X90808207Y-81122200D01*
X90808207Y-81122200D02*
X90846303Y-81074580D01*
X90846303Y-81074580D02*
X90846303Y-80741247D01*
X90846303Y-80741247D02*
X90693922Y-80741247D01*
X91189160Y-81169819D02*
X91189160Y-80169819D01*
X91189160Y-80169819D02*
X91646303Y-81169819D01*
X91646303Y-81169819D02*
X91646303Y-80169819D01*
X92027255Y-81169819D02*
X92027255Y-80169819D01*
X92027255Y-80169819D02*
X92217731Y-80169819D01*
X92217731Y-80169819D02*
X92332017Y-80217438D01*
X92332017Y-80217438D02*
X92408207Y-80312676D01*
X92408207Y-80312676D02*
X92446302Y-80407914D01*
X92446302Y-80407914D02*
X92484398Y-80598390D01*
X92484398Y-80598390D02*
X92484398Y-80741247D01*
X92484398Y-80741247D02*
X92446302Y-80931723D01*
X92446302Y-80931723D02*
X92408207Y-81026961D01*
X92408207Y-81026961D02*
X92332017Y-81122200D01*
X92332017Y-81122200D02*
X92217731Y-81169819D01*
X92217731Y-81169819D02*
X92027255Y-81169819D01*
D10*
X132527693Y-115872419D02*
X131956265Y-115872419D01*
X132241979Y-115872419D02*
X132241979Y-114872419D01*
X132241979Y-114872419D02*
X132146741Y-115015276D01*
X132146741Y-115015276D02*
X132051503Y-115110514D01*
X132051503Y-115110514D02*
X131956265Y-115158133D01*
X132908646Y-114967657D02*
X132956265Y-114920038D01*
X132956265Y-114920038D02*
X133051503Y-114872419D01*
X133051503Y-114872419D02*
X133289598Y-114872419D01*
X133289598Y-114872419D02*
X133384836Y-114920038D01*
X133384836Y-114920038D02*
X133432455Y-114967657D01*
X133432455Y-114967657D02*
X133480074Y-115062895D01*
X133480074Y-115062895D02*
X133480074Y-115158133D01*
X133480074Y-115158133D02*
X133432455Y-115300990D01*
X133432455Y-115300990D02*
X132861027Y-115872419D01*
X132861027Y-115872419D02*
X133480074Y-115872419D01*
X133765789Y-114872419D02*
X134099122Y-115872419D01*
X134099122Y-115872419D02*
X134432455Y-114872419D01*
X135527694Y-115872419D02*
X135527694Y-114872419D01*
X135527694Y-114872419D02*
X135765789Y-114872419D01*
X135765789Y-114872419D02*
X135908646Y-114920038D01*
X135908646Y-114920038D02*
X136003884Y-115015276D01*
X136003884Y-115015276D02*
X136051503Y-115110514D01*
X136051503Y-115110514D02*
X136099122Y-115300990D01*
X136099122Y-115300990D02*
X136099122Y-115443847D01*
X136099122Y-115443847D02*
X136051503Y-115634323D01*
X136051503Y-115634323D02*
X136003884Y-115729561D01*
X136003884Y-115729561D02*
X135908646Y-115824800D01*
X135908646Y-115824800D02*
X135765789Y-115872419D01*
X135765789Y-115872419D02*
X135527694Y-115872419D01*
X137099122Y-115777180D02*
X137051503Y-115824800D01*
X137051503Y-115824800D02*
X136908646Y-115872419D01*
X136908646Y-115872419D02*
X136813408Y-115872419D01*
X136813408Y-115872419D02*
X136670551Y-115824800D01*
X136670551Y-115824800D02*
X136575313Y-115729561D01*
X136575313Y-115729561D02*
X136527694Y-115634323D01*
X136527694Y-115634323D02*
X136480075Y-115443847D01*
X136480075Y-115443847D02*
X136480075Y-115300990D01*
X136480075Y-115300990D02*
X136527694Y-115110514D01*
X136527694Y-115110514D02*
X136575313Y-115015276D01*
X136575313Y-115015276D02*
X136670551Y-114920038D01*
X136670551Y-114920038D02*
X136813408Y-114872419D01*
X136813408Y-114872419D02*
X136908646Y-114872419D01*
X136908646Y-114872419D02*
X137051503Y-114920038D01*
X137051503Y-114920038D02*
X137099122Y-114967657D01*
X197060038Y-104134687D02*
X197012419Y-104210877D01*
X197012419Y-104210877D02*
X197012419Y-104325163D01*
X197012419Y-104325163D02*
X197060038Y-104439449D01*
X197060038Y-104439449D02*
X197155276Y-104515639D01*
X197155276Y-104515639D02*
X197250514Y-104553734D01*
X197250514Y-104553734D02*
X197440990Y-104591830D01*
X197440990Y-104591830D02*
X197583847Y-104591830D01*
X197583847Y-104591830D02*
X197774323Y-104553734D01*
X197774323Y-104553734D02*
X197869561Y-104515639D01*
X197869561Y-104515639D02*
X197964800Y-104439449D01*
X197964800Y-104439449D02*
X198012419Y-104325163D01*
X198012419Y-104325163D02*
X198012419Y-104248972D01*
X198012419Y-104248972D02*
X197964800Y-104134687D01*
X197964800Y-104134687D02*
X197917180Y-104096591D01*
X197917180Y-104096591D02*
X197583847Y-104096591D01*
X197583847Y-104096591D02*
X197583847Y-104248972D01*
X198012419Y-103753734D02*
X197012419Y-103753734D01*
X197012419Y-103753734D02*
X198012419Y-103296591D01*
X198012419Y-103296591D02*
X197012419Y-103296591D01*
X198012419Y-102915639D02*
X197012419Y-102915639D01*
X197012419Y-102915639D02*
X197012419Y-102725163D01*
X197012419Y-102725163D02*
X197060038Y-102610877D01*
X197060038Y-102610877D02*
X197155276Y-102534687D01*
X197155276Y-102534687D02*
X197250514Y-102496592D01*
X197250514Y-102496592D02*
X197440990Y-102458496D01*
X197440990Y-102458496D02*
X197583847Y-102458496D01*
X197583847Y-102458496D02*
X197774323Y-102496592D01*
X197774323Y-102496592D02*
X197869561Y-102534687D01*
X197869561Y-102534687D02*
X197964800Y-102610877D01*
X197964800Y-102610877D02*
X198012419Y-102725163D01*
X198012419Y-102725163D02*
X198012419Y-102915639D01*
X102047857Y-88505038D02*
X101971667Y-88457419D01*
X101971667Y-88457419D02*
X101857381Y-88457419D01*
X101857381Y-88457419D02*
X101743095Y-88505038D01*
X101743095Y-88505038D02*
X101666905Y-88600276D01*
X101666905Y-88600276D02*
X101628810Y-88695514D01*
X101628810Y-88695514D02*
X101590714Y-88885990D01*
X101590714Y-88885990D02*
X101590714Y-89028847D01*
X101590714Y-89028847D02*
X101628810Y-89219323D01*
X101628810Y-89219323D02*
X101666905Y-89314561D01*
X101666905Y-89314561D02*
X101743095Y-89409800D01*
X101743095Y-89409800D02*
X101857381Y-89457419D01*
X101857381Y-89457419D02*
X101933572Y-89457419D01*
X101933572Y-89457419D02*
X102047857Y-89409800D01*
X102047857Y-89409800D02*
X102085953Y-89362180D01*
X102085953Y-89362180D02*
X102085953Y-89028847D01*
X102085953Y-89028847D02*
X101933572Y-89028847D01*
X102428810Y-89457419D02*
X102428810Y-88457419D01*
X102428810Y-88457419D02*
X102885953Y-89457419D01*
X102885953Y-89457419D02*
X102885953Y-88457419D01*
X103266905Y-89457419D02*
X103266905Y-88457419D01*
X103266905Y-88457419D02*
X103457381Y-88457419D01*
X103457381Y-88457419D02*
X103571667Y-88505038D01*
X103571667Y-88505038D02*
X103647857Y-88600276D01*
X103647857Y-88600276D02*
X103685952Y-88695514D01*
X103685952Y-88695514D02*
X103724048Y-88885990D01*
X103724048Y-88885990D02*
X103724048Y-89028847D01*
X103724048Y-89028847D02*
X103685952Y-89219323D01*
X103685952Y-89219323D02*
X103647857Y-89314561D01*
X103647857Y-89314561D02*
X103571667Y-89409800D01*
X103571667Y-89409800D02*
X103457381Y-89457419D01*
X103457381Y-89457419D02*
X103266905Y-89457419D01*
X104676429Y-89457419D02*
X104676429Y-88457419D01*
X104676429Y-88933609D02*
X105133572Y-88933609D01*
X105133572Y-89457419D02*
X105133572Y-88457419D01*
X106124048Y-89076466D02*
X106733572Y-89076466D01*
X106428810Y-89457419D02*
X106428810Y-88695514D01*
X107495476Y-88457419D02*
X107114524Y-88457419D01*
X107114524Y-88457419D02*
X107076428Y-88933609D01*
X107076428Y-88933609D02*
X107114524Y-88885990D01*
X107114524Y-88885990D02*
X107190714Y-88838371D01*
X107190714Y-88838371D02*
X107381190Y-88838371D01*
X107381190Y-88838371D02*
X107457381Y-88885990D01*
X107457381Y-88885990D02*
X107495476Y-88933609D01*
X107495476Y-88933609D02*
X107533571Y-89028847D01*
X107533571Y-89028847D02*
X107533571Y-89266942D01*
X107533571Y-89266942D02*
X107495476Y-89362180D01*
X107495476Y-89362180D02*
X107457381Y-89409800D01*
X107457381Y-89409800D02*
X107381190Y-89457419D01*
X107381190Y-89457419D02*
X107190714Y-89457419D01*
X107190714Y-89457419D02*
X107114524Y-89409800D01*
X107114524Y-89409800D02*
X107076428Y-89362180D01*
X107762143Y-88457419D02*
X108028810Y-89457419D01*
X108028810Y-89457419D02*
X108295476Y-88457419D01*
X193322305Y-112562475D02*
X192941353Y-112562475D01*
X192941353Y-112562475D02*
X192941353Y-111562475D01*
X193588972Y-112562475D02*
X193588972Y-111895808D01*
X193588972Y-111562475D02*
X193550876Y-111610094D01*
X193550876Y-111610094D02*
X193588972Y-111657713D01*
X193588972Y-111657713D02*
X193627067Y-111610094D01*
X193627067Y-111610094D02*
X193588972Y-111562475D01*
X193588972Y-111562475D02*
X193588972Y-111657713D01*
X194312781Y-111895808D02*
X194312781Y-112705332D01*
X194312781Y-112705332D02*
X194274686Y-112800570D01*
X194274686Y-112800570D02*
X194236590Y-112848189D01*
X194236590Y-112848189D02*
X194160400Y-112895808D01*
X194160400Y-112895808D02*
X194046114Y-112895808D01*
X194046114Y-112895808D02*
X193969924Y-112848189D01*
X194312781Y-112514856D02*
X194236590Y-112562475D01*
X194236590Y-112562475D02*
X194084209Y-112562475D01*
X194084209Y-112562475D02*
X194008019Y-112514856D01*
X194008019Y-112514856D02*
X193969924Y-112467236D01*
X193969924Y-112467236D02*
X193931828Y-112371998D01*
X193931828Y-112371998D02*
X193931828Y-112086284D01*
X193931828Y-112086284D02*
X193969924Y-111991046D01*
X193969924Y-111991046D02*
X194008019Y-111943427D01*
X194008019Y-111943427D02*
X194084209Y-111895808D01*
X194084209Y-111895808D02*
X194236590Y-111895808D01*
X194236590Y-111895808D02*
X194312781Y-111943427D01*
X194693734Y-112562475D02*
X194693734Y-111562475D01*
X195036591Y-112562475D02*
X195036591Y-112038665D01*
X195036591Y-112038665D02*
X194998496Y-111943427D01*
X194998496Y-111943427D02*
X194922305Y-111895808D01*
X194922305Y-111895808D02*
X194808019Y-111895808D01*
X194808019Y-111895808D02*
X194731829Y-111943427D01*
X194731829Y-111943427D02*
X194693734Y-111991046D01*
X195303258Y-111895808D02*
X195608020Y-111895808D01*
X195417544Y-111562475D02*
X195417544Y-112419617D01*
X195417544Y-112419617D02*
X195455639Y-112514856D01*
X195455639Y-112514856D02*
X195531829Y-112562475D01*
X195531829Y-112562475D02*
X195608020Y-112562475D01*
X191798495Y-114124800D02*
X191912781Y-114172419D01*
X191912781Y-114172419D02*
X192103257Y-114172419D01*
X192103257Y-114172419D02*
X192179448Y-114124800D01*
X192179448Y-114124800D02*
X192217543Y-114077180D01*
X192217543Y-114077180D02*
X192255638Y-113981942D01*
X192255638Y-113981942D02*
X192255638Y-113886704D01*
X192255638Y-113886704D02*
X192217543Y-113791466D01*
X192217543Y-113791466D02*
X192179448Y-113743847D01*
X192179448Y-113743847D02*
X192103257Y-113696228D01*
X192103257Y-113696228D02*
X191950876Y-113648609D01*
X191950876Y-113648609D02*
X191874686Y-113600990D01*
X191874686Y-113600990D02*
X191836591Y-113553371D01*
X191836591Y-113553371D02*
X191798495Y-113458133D01*
X191798495Y-113458133D02*
X191798495Y-113362895D01*
X191798495Y-113362895D02*
X191836591Y-113267657D01*
X191836591Y-113267657D02*
X191874686Y-113220038D01*
X191874686Y-113220038D02*
X191950876Y-113172419D01*
X191950876Y-113172419D02*
X192141353Y-113172419D01*
X192141353Y-113172419D02*
X192255638Y-113220038D01*
X192903258Y-114124800D02*
X192827067Y-114172419D01*
X192827067Y-114172419D02*
X192674686Y-114172419D01*
X192674686Y-114172419D02*
X192598496Y-114124800D01*
X192598496Y-114124800D02*
X192560400Y-114029561D01*
X192560400Y-114029561D02*
X192560400Y-113648609D01*
X192560400Y-113648609D02*
X192598496Y-113553371D01*
X192598496Y-113553371D02*
X192674686Y-113505752D01*
X192674686Y-113505752D02*
X192827067Y-113505752D01*
X192827067Y-113505752D02*
X192903258Y-113553371D01*
X192903258Y-113553371D02*
X192941353Y-113648609D01*
X192941353Y-113648609D02*
X192941353Y-113743847D01*
X192941353Y-113743847D02*
X192560400Y-113839085D01*
X193284210Y-113505752D02*
X193284210Y-114172419D01*
X193284210Y-113600990D02*
X193322305Y-113553371D01*
X193322305Y-113553371D02*
X193398495Y-113505752D01*
X193398495Y-113505752D02*
X193512781Y-113505752D01*
X193512781Y-113505752D02*
X193588972Y-113553371D01*
X193588972Y-113553371D02*
X193627067Y-113648609D01*
X193627067Y-113648609D02*
X193627067Y-114172419D01*
X193969924Y-114124800D02*
X194046115Y-114172419D01*
X194046115Y-114172419D02*
X194198496Y-114172419D01*
X194198496Y-114172419D02*
X194274686Y-114124800D01*
X194274686Y-114124800D02*
X194312782Y-114029561D01*
X194312782Y-114029561D02*
X194312782Y-113981942D01*
X194312782Y-113981942D02*
X194274686Y-113886704D01*
X194274686Y-113886704D02*
X194198496Y-113839085D01*
X194198496Y-113839085D02*
X194084210Y-113839085D01*
X194084210Y-113839085D02*
X194008020Y-113791466D01*
X194008020Y-113791466D02*
X193969924Y-113696228D01*
X193969924Y-113696228D02*
X193969924Y-113648609D01*
X193969924Y-113648609D02*
X194008020Y-113553371D01*
X194008020Y-113553371D02*
X194084210Y-113505752D01*
X194084210Y-113505752D02*
X194198496Y-113505752D01*
X194198496Y-113505752D02*
X194274686Y-113553371D01*
X194769924Y-114172419D02*
X194693734Y-114124800D01*
X194693734Y-114124800D02*
X194655639Y-114077180D01*
X194655639Y-114077180D02*
X194617543Y-113981942D01*
X194617543Y-113981942D02*
X194617543Y-113696228D01*
X194617543Y-113696228D02*
X194655639Y-113600990D01*
X194655639Y-113600990D02*
X194693734Y-113553371D01*
X194693734Y-113553371D02*
X194769924Y-113505752D01*
X194769924Y-113505752D02*
X194884210Y-113505752D01*
X194884210Y-113505752D02*
X194960401Y-113553371D01*
X194960401Y-113553371D02*
X194998496Y-113600990D01*
X194998496Y-113600990D02*
X195036591Y-113696228D01*
X195036591Y-113696228D02*
X195036591Y-113981942D01*
X195036591Y-113981942D02*
X194998496Y-114077180D01*
X194998496Y-114077180D02*
X194960401Y-114124800D01*
X194960401Y-114124800D02*
X194884210Y-114172419D01*
X194884210Y-114172419D02*
X194769924Y-114172419D01*
X195379449Y-114172419D02*
X195379449Y-113505752D01*
X195379449Y-113696228D02*
X195417544Y-113600990D01*
X195417544Y-113600990D02*
X195455639Y-113553371D01*
X195455639Y-113553371D02*
X195531830Y-113505752D01*
X195531830Y-113505752D02*
X195608020Y-113505752D01*
X194175312Y-107410038D02*
X194099122Y-107362419D01*
X194099122Y-107362419D02*
X193984836Y-107362419D01*
X193984836Y-107362419D02*
X193870550Y-107410038D01*
X193870550Y-107410038D02*
X193794360Y-107505276D01*
X193794360Y-107505276D02*
X193756265Y-107600514D01*
X193756265Y-107600514D02*
X193718169Y-107790990D01*
X193718169Y-107790990D02*
X193718169Y-107933847D01*
X193718169Y-107933847D02*
X193756265Y-108124323D01*
X193756265Y-108124323D02*
X193794360Y-108219561D01*
X193794360Y-108219561D02*
X193870550Y-108314800D01*
X193870550Y-108314800D02*
X193984836Y-108362419D01*
X193984836Y-108362419D02*
X194061027Y-108362419D01*
X194061027Y-108362419D02*
X194175312Y-108314800D01*
X194175312Y-108314800D02*
X194213408Y-108267180D01*
X194213408Y-108267180D02*
X194213408Y-107933847D01*
X194213408Y-107933847D02*
X194061027Y-107933847D01*
X194556265Y-108362419D02*
X194556265Y-107362419D01*
X194556265Y-107362419D02*
X195013408Y-108362419D01*
X195013408Y-108362419D02*
X195013408Y-107362419D01*
X195394360Y-108362419D02*
X195394360Y-107362419D01*
X195394360Y-107362419D02*
X195584836Y-107362419D01*
X195584836Y-107362419D02*
X195699122Y-107410038D01*
X195699122Y-107410038D02*
X195775312Y-107505276D01*
X195775312Y-107505276D02*
X195813407Y-107600514D01*
X195813407Y-107600514D02*
X195851503Y-107790990D01*
X195851503Y-107790990D02*
X195851503Y-107933847D01*
X195851503Y-107933847D02*
X195813407Y-108124323D01*
X195813407Y-108124323D02*
X195775312Y-108219561D01*
X195775312Y-108219561D02*
X195699122Y-108314800D01*
X195699122Y-108314800D02*
X195584836Y-108362419D01*
X195584836Y-108362419D02*
X195394360Y-108362419D01*
X110461265Y-104991466D02*
X111070789Y-104991466D01*
X110766027Y-105372419D02*
X110766027Y-104610514D01*
X111870788Y-105372419D02*
X111413645Y-105372419D01*
X111642217Y-105372419D02*
X111642217Y-104372419D01*
X111642217Y-104372419D02*
X111566026Y-104515276D01*
X111566026Y-104515276D02*
X111489836Y-104610514D01*
X111489836Y-104610514D02*
X111413645Y-104658133D01*
X112175550Y-104467657D02*
X112213646Y-104420038D01*
X112213646Y-104420038D02*
X112289836Y-104372419D01*
X112289836Y-104372419D02*
X112480312Y-104372419D01*
X112480312Y-104372419D02*
X112556503Y-104420038D01*
X112556503Y-104420038D02*
X112594598Y-104467657D01*
X112594598Y-104467657D02*
X112632693Y-104562895D01*
X112632693Y-104562895D02*
X112632693Y-104658133D01*
X112632693Y-104658133D02*
X112594598Y-104800990D01*
X112594598Y-104800990D02*
X112137455Y-105372419D01*
X112137455Y-105372419D02*
X112632693Y-105372419D01*
X112861265Y-104372419D02*
X113127932Y-105372419D01*
X113127932Y-105372419D02*
X113394598Y-104372419D01*
D11*
X155885898Y-55587354D02*
X156219231Y-55587354D01*
X155819231Y-55873069D02*
X156052565Y-54873069D01*
X156052565Y-54873069D02*
X156285898Y-55873069D01*
X156519231Y-55873069D02*
X156519231Y-54873069D01*
X156519231Y-54873069D02*
X156685898Y-54873069D01*
X156685898Y-54873069D02*
X156785898Y-54920688D01*
X156785898Y-54920688D02*
X156852565Y-55015926D01*
X156852565Y-55015926D02*
X156885898Y-55111164D01*
X156885898Y-55111164D02*
X156919231Y-55301640D01*
X156919231Y-55301640D02*
X156919231Y-55444497D01*
X156919231Y-55444497D02*
X156885898Y-55634973D01*
X156885898Y-55634973D02*
X156852565Y-55730211D01*
X156852565Y-55730211D02*
X156785898Y-55825450D01*
X156785898Y-55825450D02*
X156685898Y-55873069D01*
X156685898Y-55873069D02*
X156519231Y-55873069D01*
X157619231Y-55777830D02*
X157585898Y-55825450D01*
X157585898Y-55825450D02*
X157485898Y-55873069D01*
X157485898Y-55873069D02*
X157419231Y-55873069D01*
X157419231Y-55873069D02*
X157319231Y-55825450D01*
X157319231Y-55825450D02*
X157252565Y-55730211D01*
X157252565Y-55730211D02*
X157219231Y-55634973D01*
X157219231Y-55634973D02*
X157185898Y-55444497D01*
X157185898Y-55444497D02*
X157185898Y-55301640D01*
X157185898Y-55301640D02*
X157219231Y-55111164D01*
X157219231Y-55111164D02*
X157252565Y-55015926D01*
X157252565Y-55015926D02*
X157319231Y-54920688D01*
X157319231Y-54920688D02*
X157419231Y-54873069D01*
X157419231Y-54873069D02*
X157485898Y-54873069D01*
X157485898Y-54873069D02*
X157585898Y-54920688D01*
X157585898Y-54920688D02*
X157619231Y-54968307D01*
X157885898Y-54968307D02*
X157919231Y-54920688D01*
X157919231Y-54920688D02*
X157985898Y-54873069D01*
X157985898Y-54873069D02*
X158152565Y-54873069D01*
X158152565Y-54873069D02*
X158219231Y-54920688D01*
X158219231Y-54920688D02*
X158252565Y-54968307D01*
X158252565Y-54968307D02*
X158285898Y-55063545D01*
X158285898Y-55063545D02*
X158285898Y-55158783D01*
X158285898Y-55158783D02*
X158252565Y-55301640D01*
X158252565Y-55301640D02*
X157852565Y-55873069D01*
X157852565Y-55873069D02*
X158285898Y-55873069D01*
X158419232Y-55968307D02*
X158952565Y-55968307D01*
X159252565Y-54873069D02*
X159319231Y-54873069D01*
X159319231Y-54873069D02*
X159385898Y-54920688D01*
X159385898Y-54920688D02*
X159419231Y-54968307D01*
X159419231Y-54968307D02*
X159452565Y-55063545D01*
X159452565Y-55063545D02*
X159485898Y-55254021D01*
X159485898Y-55254021D02*
X159485898Y-55492116D01*
X159485898Y-55492116D02*
X159452565Y-55682592D01*
X159452565Y-55682592D02*
X159419231Y-55777830D01*
X159419231Y-55777830D02*
X159385898Y-55825450D01*
X159385898Y-55825450D02*
X159319231Y-55873069D01*
X159319231Y-55873069D02*
X159252565Y-55873069D01*
X159252565Y-55873069D02*
X159185898Y-55825450D01*
X159185898Y-55825450D02*
X159152565Y-55777830D01*
X159152565Y-55777830D02*
X159119231Y-55682592D01*
X159119231Y-55682592D02*
X159085898Y-55492116D01*
X159085898Y-55492116D02*
X159085898Y-55254021D01*
X159085898Y-55254021D02*
X159119231Y-55063545D01*
X159119231Y-55063545D02*
X159152565Y-54968307D01*
X159152565Y-54968307D02*
X159185898Y-54920688D01*
X159185898Y-54920688D02*
X159252565Y-54873069D01*
D10*
X206572419Y-78369925D02*
X206572419Y-78846115D01*
X206572419Y-78846115D02*
X207048609Y-78893734D01*
X207048609Y-78893734D02*
X207000990Y-78846115D01*
X207000990Y-78846115D02*
X206953371Y-78750877D01*
X206953371Y-78750877D02*
X206953371Y-78512782D01*
X206953371Y-78512782D02*
X207000990Y-78417544D01*
X207000990Y-78417544D02*
X207048609Y-78369925D01*
X207048609Y-78369925D02*
X207143847Y-78322306D01*
X207143847Y-78322306D02*
X207381942Y-78322306D01*
X207381942Y-78322306D02*
X207477180Y-78369925D01*
X207477180Y-78369925D02*
X207524800Y-78417544D01*
X207524800Y-78417544D02*
X207572419Y-78512782D01*
X207572419Y-78512782D02*
X207572419Y-78750877D01*
X207572419Y-78750877D02*
X207524800Y-78846115D01*
X207524800Y-78846115D02*
X207477180Y-78893734D01*
X206572419Y-78036591D02*
X207572419Y-77703258D01*
X207572419Y-77703258D02*
X206572419Y-77369925D01*
X207572419Y-75703258D02*
X207096228Y-76036591D01*
X207572419Y-76274686D02*
X206572419Y-76274686D01*
X206572419Y-76274686D02*
X206572419Y-75893734D01*
X206572419Y-75893734D02*
X206620038Y-75798496D01*
X206620038Y-75798496D02*
X206667657Y-75750877D01*
X206667657Y-75750877D02*
X206762895Y-75703258D01*
X206762895Y-75703258D02*
X206905752Y-75703258D01*
X206905752Y-75703258D02*
X207000990Y-75750877D01*
X207000990Y-75750877D02*
X207048609Y-75798496D01*
X207048609Y-75798496D02*
X207096228Y-75893734D01*
X207096228Y-75893734D02*
X207096228Y-76274686D01*
X207524800Y-74893734D02*
X207572419Y-74988972D01*
X207572419Y-74988972D02*
X207572419Y-75179448D01*
X207572419Y-75179448D02*
X207524800Y-75274686D01*
X207524800Y-75274686D02*
X207429561Y-75322305D01*
X207429561Y-75322305D02*
X207048609Y-75322305D01*
X207048609Y-75322305D02*
X206953371Y-75274686D01*
X206953371Y-75274686D02*
X206905752Y-75179448D01*
X206905752Y-75179448D02*
X206905752Y-74988972D01*
X206905752Y-74988972D02*
X206953371Y-74893734D01*
X206953371Y-74893734D02*
X207048609Y-74846115D01*
X207048609Y-74846115D02*
X207143847Y-74846115D01*
X207143847Y-74846115D02*
X207239085Y-75322305D01*
X207572419Y-74274686D02*
X207524800Y-74369924D01*
X207524800Y-74369924D02*
X207429561Y-74417543D01*
X207429561Y-74417543D02*
X206572419Y-74417543D01*
X207572419Y-73465162D02*
X207048609Y-73465162D01*
X207048609Y-73465162D02*
X206953371Y-73512781D01*
X206953371Y-73512781D02*
X206905752Y-73608019D01*
X206905752Y-73608019D02*
X206905752Y-73798495D01*
X206905752Y-73798495D02*
X206953371Y-73893733D01*
X207524800Y-73465162D02*
X207572419Y-73560400D01*
X207572419Y-73560400D02*
X207572419Y-73798495D01*
X207572419Y-73798495D02*
X207524800Y-73893733D01*
X207524800Y-73893733D02*
X207429561Y-73941352D01*
X207429561Y-73941352D02*
X207334323Y-73941352D01*
X207334323Y-73941352D02*
X207239085Y-73893733D01*
X207239085Y-73893733D02*
X207191466Y-73798495D01*
X207191466Y-73798495D02*
X207191466Y-73560400D01*
X207191466Y-73560400D02*
X207143847Y-73465162D01*
X206905752Y-73084209D02*
X207572419Y-72846114D01*
X206905752Y-72608019D02*
X207572419Y-72846114D01*
X207572419Y-72846114D02*
X207810514Y-72941352D01*
X207810514Y-72941352D02*
X207858133Y-72988971D01*
X207858133Y-72988971D02*
X207905752Y-73084209D01*
X207191466Y-71465161D02*
X207191466Y-70703257D01*
X206572419Y-69560399D02*
X207572419Y-69322304D01*
X207572419Y-69322304D02*
X206858133Y-69131828D01*
X206858133Y-69131828D02*
X207572419Y-68941352D01*
X207572419Y-68941352D02*
X206572419Y-68703257D01*
X207572419Y-67893733D02*
X207048609Y-67893733D01*
X207048609Y-67893733D02*
X206953371Y-67941352D01*
X206953371Y-67941352D02*
X206905752Y-68036590D01*
X206905752Y-68036590D02*
X206905752Y-68227066D01*
X206905752Y-68227066D02*
X206953371Y-68322304D01*
X207524800Y-67893733D02*
X207572419Y-67988971D01*
X207572419Y-67988971D02*
X207572419Y-68227066D01*
X207572419Y-68227066D02*
X207524800Y-68322304D01*
X207524800Y-68322304D02*
X207429561Y-68369923D01*
X207429561Y-68369923D02*
X207334323Y-68369923D01*
X207334323Y-68369923D02*
X207239085Y-68322304D01*
X207239085Y-68322304D02*
X207191466Y-68227066D01*
X207191466Y-68227066D02*
X207191466Y-67988971D01*
X207191466Y-67988971D02*
X207143847Y-67893733D01*
X206905752Y-67560399D02*
X206905752Y-67179447D01*
X206572419Y-67417542D02*
X207429561Y-67417542D01*
X207429561Y-67417542D02*
X207524800Y-67369923D01*
X207524800Y-67369923D02*
X207572419Y-67274685D01*
X207572419Y-67274685D02*
X207572419Y-67179447D01*
X207524800Y-66465161D02*
X207572419Y-66560399D01*
X207572419Y-66560399D02*
X207572419Y-66750875D01*
X207572419Y-66750875D02*
X207524800Y-66846113D01*
X207524800Y-66846113D02*
X207429561Y-66893732D01*
X207429561Y-66893732D02*
X207048609Y-66893732D01*
X207048609Y-66893732D02*
X206953371Y-66846113D01*
X206953371Y-66846113D02*
X206905752Y-66750875D01*
X206905752Y-66750875D02*
X206905752Y-66560399D01*
X206905752Y-66560399D02*
X206953371Y-66465161D01*
X206953371Y-66465161D02*
X207048609Y-66417542D01*
X207048609Y-66417542D02*
X207143847Y-66417542D01*
X207143847Y-66417542D02*
X207239085Y-66893732D01*
X207572419Y-65988970D02*
X206905752Y-65988970D01*
X207096228Y-65988970D02*
X207000990Y-65941351D01*
X207000990Y-65941351D02*
X206953371Y-65893732D01*
X206953371Y-65893732D02*
X206905752Y-65798494D01*
X206905752Y-65798494D02*
X206905752Y-65703256D01*
X207572419Y-64608017D02*
X206572419Y-64608017D01*
X206572419Y-64608017D02*
X206572419Y-64227065D01*
X206572419Y-64227065D02*
X206620038Y-64131827D01*
X206620038Y-64131827D02*
X206667657Y-64084208D01*
X206667657Y-64084208D02*
X206762895Y-64036589D01*
X206762895Y-64036589D02*
X206905752Y-64036589D01*
X206905752Y-64036589D02*
X207000990Y-64084208D01*
X207000990Y-64084208D02*
X207048609Y-64131827D01*
X207048609Y-64131827D02*
X207096228Y-64227065D01*
X207096228Y-64227065D02*
X207096228Y-64608017D01*
X206905752Y-63179446D02*
X207572419Y-63179446D01*
X206905752Y-63608017D02*
X207429561Y-63608017D01*
X207429561Y-63608017D02*
X207524800Y-63560398D01*
X207524800Y-63560398D02*
X207572419Y-63465160D01*
X207572419Y-63465160D02*
X207572419Y-63322303D01*
X207572419Y-63322303D02*
X207524800Y-63227065D01*
X207524800Y-63227065D02*
X207477180Y-63179446D01*
X207572419Y-62703255D02*
X206905752Y-62703255D01*
X207000990Y-62703255D02*
X206953371Y-62655636D01*
X206953371Y-62655636D02*
X206905752Y-62560398D01*
X206905752Y-62560398D02*
X206905752Y-62417541D01*
X206905752Y-62417541D02*
X206953371Y-62322303D01*
X206953371Y-62322303D02*
X207048609Y-62274684D01*
X207048609Y-62274684D02*
X207572419Y-62274684D01*
X207048609Y-62274684D02*
X206953371Y-62227065D01*
X206953371Y-62227065D02*
X206905752Y-62131827D01*
X206905752Y-62131827D02*
X206905752Y-61988970D01*
X206905752Y-61988970D02*
X206953371Y-61893731D01*
X206953371Y-61893731D02*
X207048609Y-61846112D01*
X207048609Y-61846112D02*
X207572419Y-61846112D01*
X206905752Y-61369922D02*
X207905752Y-61369922D01*
X206953371Y-61369922D02*
X206905752Y-61274684D01*
X206905752Y-61274684D02*
X206905752Y-61084208D01*
X206905752Y-61084208D02*
X206953371Y-60988970D01*
X206953371Y-60988970D02*
X207000990Y-60941351D01*
X207000990Y-60941351D02*
X207096228Y-60893732D01*
X207096228Y-60893732D02*
X207381942Y-60893732D01*
X207381942Y-60893732D02*
X207477180Y-60941351D01*
X207477180Y-60941351D02*
X207524800Y-60988970D01*
X207524800Y-60988970D02*
X207572419Y-61084208D01*
X207572419Y-61084208D02*
X207572419Y-61274684D01*
X207572419Y-61274684D02*
X207524800Y-61369922D01*
X199246265Y-115431466D02*
X199855789Y-115431466D01*
X199551027Y-115812419D02*
X199551027Y-115050514D01*
X200617693Y-114812419D02*
X200236741Y-114812419D01*
X200236741Y-114812419D02*
X200198645Y-115288609D01*
X200198645Y-115288609D02*
X200236741Y-115240990D01*
X200236741Y-115240990D02*
X200312931Y-115193371D01*
X200312931Y-115193371D02*
X200503407Y-115193371D01*
X200503407Y-115193371D02*
X200579598Y-115240990D01*
X200579598Y-115240990D02*
X200617693Y-115288609D01*
X200617693Y-115288609D02*
X200655788Y-115383847D01*
X200655788Y-115383847D02*
X200655788Y-115621942D01*
X200655788Y-115621942D02*
X200617693Y-115717180D01*
X200617693Y-115717180D02*
X200579598Y-115764800D01*
X200579598Y-115764800D02*
X200503407Y-115812419D01*
X200503407Y-115812419D02*
X200312931Y-115812419D01*
X200312931Y-115812419D02*
X200236741Y-115764800D01*
X200236741Y-115764800D02*
X200198645Y-115717180D01*
X200884360Y-114812419D02*
X201151027Y-115812419D01*
X201151027Y-115812419D02*
X201417693Y-114812419D01*
D11*
X175334231Y-103772116D02*
X175867565Y-103772116D01*
X175600898Y-104153069D02*
X175600898Y-103391164D01*
X176534232Y-103153069D02*
X176200898Y-103153069D01*
X176200898Y-103153069D02*
X176167565Y-103629259D01*
X176167565Y-103629259D02*
X176200898Y-103581640D01*
X176200898Y-103581640D02*
X176267565Y-103534021D01*
X176267565Y-103534021D02*
X176434232Y-103534021D01*
X176434232Y-103534021D02*
X176500898Y-103581640D01*
X176500898Y-103581640D02*
X176534232Y-103629259D01*
X176534232Y-103629259D02*
X176567565Y-103724497D01*
X176567565Y-103724497D02*
X176567565Y-103962592D01*
X176567565Y-103962592D02*
X176534232Y-104057830D01*
X176534232Y-104057830D02*
X176500898Y-104105450D01*
X176500898Y-104105450D02*
X176434232Y-104153069D01*
X176434232Y-104153069D02*
X176267565Y-104153069D01*
X176267565Y-104153069D02*
X176200898Y-104105450D01*
X176200898Y-104105450D02*
X176167565Y-104057830D01*
X176767565Y-103153069D02*
X177000899Y-104153069D01*
X177000899Y-104153069D02*
X177234232Y-103153069D01*
X175557565Y-100949259D02*
X175324231Y-100949259D01*
X175324231Y-101473069D02*
X175324231Y-100473069D01*
X175324231Y-100473069D02*
X175657565Y-100473069D01*
X176157565Y-100949259D02*
X176257565Y-100996878D01*
X176257565Y-100996878D02*
X176290898Y-101044497D01*
X176290898Y-101044497D02*
X176324231Y-101139735D01*
X176324231Y-101139735D02*
X176324231Y-101282592D01*
X176324231Y-101282592D02*
X176290898Y-101377830D01*
X176290898Y-101377830D02*
X176257565Y-101425450D01*
X176257565Y-101425450D02*
X176190898Y-101473069D01*
X176190898Y-101473069D02*
X175924231Y-101473069D01*
X175924231Y-101473069D02*
X175924231Y-100473069D01*
X175924231Y-100473069D02*
X176157565Y-100473069D01*
X176157565Y-100473069D02*
X176224231Y-100520688D01*
X176224231Y-100520688D02*
X176257565Y-100568307D01*
X176257565Y-100568307D02*
X176290898Y-100663545D01*
X176290898Y-100663545D02*
X176290898Y-100758783D01*
X176290898Y-100758783D02*
X176257565Y-100854021D01*
X176257565Y-100854021D02*
X176224231Y-100901640D01*
X176224231Y-100901640D02*
X176157565Y-100949259D01*
X176157565Y-100949259D02*
X175924231Y-100949259D01*
D10*
X121803884Y-105391466D02*
X122565789Y-105391466D01*
X122184836Y-105772419D02*
X122184836Y-105010514D01*
X123565788Y-105772419D02*
X122994360Y-105772419D01*
X123280074Y-105772419D02*
X123280074Y-104772419D01*
X123280074Y-104772419D02*
X123184836Y-104915276D01*
X123184836Y-104915276D02*
X123089598Y-105010514D01*
X123089598Y-105010514D02*
X122994360Y-105058133D01*
X123946741Y-104867657D02*
X123994360Y-104820038D01*
X123994360Y-104820038D02*
X124089598Y-104772419D01*
X124089598Y-104772419D02*
X124327693Y-104772419D01*
X124327693Y-104772419D02*
X124422931Y-104820038D01*
X124422931Y-104820038D02*
X124470550Y-104867657D01*
X124470550Y-104867657D02*
X124518169Y-104962895D01*
X124518169Y-104962895D02*
X124518169Y-105058133D01*
X124518169Y-105058133D02*
X124470550Y-105200990D01*
X124470550Y-105200990D02*
X123899122Y-105772419D01*
X123899122Y-105772419D02*
X124518169Y-105772419D01*
X124803884Y-104772419D02*
X125137217Y-105772419D01*
X125137217Y-105772419D02*
X125470550Y-104772419D01*
X109356265Y-80691466D02*
X109965789Y-80691466D01*
X109661027Y-81072419D02*
X109661027Y-80310514D01*
X110765788Y-81072419D02*
X110308645Y-81072419D01*
X110537217Y-81072419D02*
X110537217Y-80072419D01*
X110537217Y-80072419D02*
X110461026Y-80215276D01*
X110461026Y-80215276D02*
X110384836Y-80310514D01*
X110384836Y-80310514D02*
X110308645Y-80358133D01*
X111070550Y-80167657D02*
X111108646Y-80120038D01*
X111108646Y-80120038D02*
X111184836Y-80072419D01*
X111184836Y-80072419D02*
X111375312Y-80072419D01*
X111375312Y-80072419D02*
X111451503Y-80120038D01*
X111451503Y-80120038D02*
X111489598Y-80167657D01*
X111489598Y-80167657D02*
X111527693Y-80262895D01*
X111527693Y-80262895D02*
X111527693Y-80358133D01*
X111527693Y-80358133D02*
X111489598Y-80500990D01*
X111489598Y-80500990D02*
X111032455Y-81072419D01*
X111032455Y-81072419D02*
X111527693Y-81072419D01*
X111756265Y-80072419D02*
X112022932Y-81072419D01*
X112022932Y-81072419D02*
X112289598Y-80072419D01*
X186680074Y-103252419D02*
X186870550Y-104252419D01*
X186870550Y-104252419D02*
X187022931Y-103538133D01*
X187022931Y-103538133D02*
X187175312Y-104252419D01*
X187175312Y-104252419D02*
X187365789Y-103252419D01*
X188013408Y-104252419D02*
X188013408Y-103728609D01*
X188013408Y-103728609D02*
X187975313Y-103633371D01*
X187975313Y-103633371D02*
X187899122Y-103585752D01*
X187899122Y-103585752D02*
X187746741Y-103585752D01*
X187746741Y-103585752D02*
X187670551Y-103633371D01*
X188013408Y-104204800D02*
X187937217Y-104252419D01*
X187937217Y-104252419D02*
X187746741Y-104252419D01*
X187746741Y-104252419D02*
X187670551Y-104204800D01*
X187670551Y-104204800D02*
X187632455Y-104109561D01*
X187632455Y-104109561D02*
X187632455Y-104014323D01*
X187632455Y-104014323D02*
X187670551Y-103919085D01*
X187670551Y-103919085D02*
X187746741Y-103871466D01*
X187746741Y-103871466D02*
X187937217Y-103871466D01*
X187937217Y-103871466D02*
X188013408Y-103823847D01*
X188280075Y-103585752D02*
X188584837Y-103585752D01*
X188394361Y-103252419D02*
X188394361Y-104109561D01*
X188394361Y-104109561D02*
X188432456Y-104204800D01*
X188432456Y-104204800D02*
X188508646Y-104252419D01*
X188508646Y-104252419D02*
X188584837Y-104252419D01*
X189156266Y-104204800D02*
X189080075Y-104252419D01*
X189080075Y-104252419D02*
X188927694Y-104252419D01*
X188927694Y-104252419D02*
X188851504Y-104204800D01*
X188851504Y-104204800D02*
X188813408Y-104109561D01*
X188813408Y-104109561D02*
X188813408Y-103728609D01*
X188813408Y-103728609D02*
X188851504Y-103633371D01*
X188851504Y-103633371D02*
X188927694Y-103585752D01*
X188927694Y-103585752D02*
X189080075Y-103585752D01*
X189080075Y-103585752D02*
X189156266Y-103633371D01*
X189156266Y-103633371D02*
X189194361Y-103728609D01*
X189194361Y-103728609D02*
X189194361Y-103823847D01*
X189194361Y-103823847D02*
X188813408Y-103919085D01*
X189537218Y-104252419D02*
X189537218Y-103585752D01*
X189537218Y-103776228D02*
X189575313Y-103680990D01*
X189575313Y-103680990D02*
X189613408Y-103633371D01*
X189613408Y-103633371D02*
X189689599Y-103585752D01*
X189689599Y-103585752D02*
X189765789Y-103585752D01*
X205216265Y-107182475D02*
X205216265Y-106182475D01*
X205216265Y-106182475D02*
X205482931Y-106896760D01*
X205482931Y-106896760D02*
X205749598Y-106182475D01*
X205749598Y-106182475D02*
X205749598Y-107182475D01*
X206244836Y-107182475D02*
X206168646Y-107134856D01*
X206168646Y-107134856D02*
X206130551Y-107087236D01*
X206130551Y-107087236D02*
X206092455Y-106991998D01*
X206092455Y-106991998D02*
X206092455Y-106706284D01*
X206092455Y-106706284D02*
X206130551Y-106611046D01*
X206130551Y-106611046D02*
X206168646Y-106563427D01*
X206168646Y-106563427D02*
X206244836Y-106515808D01*
X206244836Y-106515808D02*
X206359122Y-106515808D01*
X206359122Y-106515808D02*
X206435313Y-106563427D01*
X206435313Y-106563427D02*
X206473408Y-106611046D01*
X206473408Y-106611046D02*
X206511503Y-106706284D01*
X206511503Y-106706284D02*
X206511503Y-106991998D01*
X206511503Y-106991998D02*
X206473408Y-107087236D01*
X206473408Y-107087236D02*
X206435313Y-107134856D01*
X206435313Y-107134856D02*
X206359122Y-107182475D01*
X206359122Y-107182475D02*
X206244836Y-107182475D01*
X206854361Y-107182475D02*
X206854361Y-106515808D01*
X206854361Y-106182475D02*
X206816265Y-106230094D01*
X206816265Y-106230094D02*
X206854361Y-106277713D01*
X206854361Y-106277713D02*
X206892456Y-106230094D01*
X206892456Y-106230094D02*
X206854361Y-106182475D01*
X206854361Y-106182475D02*
X206854361Y-106277713D01*
X207197217Y-107134856D02*
X207273408Y-107182475D01*
X207273408Y-107182475D02*
X207425789Y-107182475D01*
X207425789Y-107182475D02*
X207501979Y-107134856D01*
X207501979Y-107134856D02*
X207540075Y-107039617D01*
X207540075Y-107039617D02*
X207540075Y-106991998D01*
X207540075Y-106991998D02*
X207501979Y-106896760D01*
X207501979Y-106896760D02*
X207425789Y-106849141D01*
X207425789Y-106849141D02*
X207311503Y-106849141D01*
X207311503Y-106849141D02*
X207235313Y-106801522D01*
X207235313Y-106801522D02*
X207197217Y-106706284D01*
X207197217Y-106706284D02*
X207197217Y-106658665D01*
X207197217Y-106658665D02*
X207235313Y-106563427D01*
X207235313Y-106563427D02*
X207311503Y-106515808D01*
X207311503Y-106515808D02*
X207425789Y-106515808D01*
X207425789Y-106515808D02*
X207501979Y-106563427D01*
X207768646Y-106515808D02*
X208073408Y-106515808D01*
X207882932Y-106182475D02*
X207882932Y-107039617D01*
X207882932Y-107039617D02*
X207921027Y-107134856D01*
X207921027Y-107134856D02*
X207997217Y-107182475D01*
X207997217Y-107182475D02*
X208073408Y-107182475D01*
X208682932Y-106515808D02*
X208682932Y-107182475D01*
X208340075Y-106515808D02*
X208340075Y-107039617D01*
X208340075Y-107039617D02*
X208378170Y-107134856D01*
X208378170Y-107134856D02*
X208454360Y-107182475D01*
X208454360Y-107182475D02*
X208568646Y-107182475D01*
X208568646Y-107182475D02*
X208644837Y-107134856D01*
X208644837Y-107134856D02*
X208682932Y-107087236D01*
X209063885Y-107182475D02*
X209063885Y-106515808D01*
X209063885Y-106706284D02*
X209101980Y-106611046D01*
X209101980Y-106611046D02*
X209140075Y-106563427D01*
X209140075Y-106563427D02*
X209216266Y-106515808D01*
X209216266Y-106515808D02*
X209292456Y-106515808D01*
X209863885Y-107134856D02*
X209787694Y-107182475D01*
X209787694Y-107182475D02*
X209635313Y-107182475D01*
X209635313Y-107182475D02*
X209559123Y-107134856D01*
X209559123Y-107134856D02*
X209521027Y-107039617D01*
X209521027Y-107039617D02*
X209521027Y-106658665D01*
X209521027Y-106658665D02*
X209559123Y-106563427D01*
X209559123Y-106563427D02*
X209635313Y-106515808D01*
X209635313Y-106515808D02*
X209787694Y-106515808D01*
X209787694Y-106515808D02*
X209863885Y-106563427D01*
X209863885Y-106563427D02*
X209901980Y-106658665D01*
X209901980Y-106658665D02*
X209901980Y-106753903D01*
X209901980Y-106753903D02*
X209521027Y-106849141D01*
X205178169Y-108744800D02*
X205292455Y-108792419D01*
X205292455Y-108792419D02*
X205482931Y-108792419D01*
X205482931Y-108792419D02*
X205559122Y-108744800D01*
X205559122Y-108744800D02*
X205597217Y-108697180D01*
X205597217Y-108697180D02*
X205635312Y-108601942D01*
X205635312Y-108601942D02*
X205635312Y-108506704D01*
X205635312Y-108506704D02*
X205597217Y-108411466D01*
X205597217Y-108411466D02*
X205559122Y-108363847D01*
X205559122Y-108363847D02*
X205482931Y-108316228D01*
X205482931Y-108316228D02*
X205330550Y-108268609D01*
X205330550Y-108268609D02*
X205254360Y-108220990D01*
X205254360Y-108220990D02*
X205216265Y-108173371D01*
X205216265Y-108173371D02*
X205178169Y-108078133D01*
X205178169Y-108078133D02*
X205178169Y-107982895D01*
X205178169Y-107982895D02*
X205216265Y-107887657D01*
X205216265Y-107887657D02*
X205254360Y-107840038D01*
X205254360Y-107840038D02*
X205330550Y-107792419D01*
X205330550Y-107792419D02*
X205521027Y-107792419D01*
X205521027Y-107792419D02*
X205635312Y-107840038D01*
X206282932Y-108744800D02*
X206206741Y-108792419D01*
X206206741Y-108792419D02*
X206054360Y-108792419D01*
X206054360Y-108792419D02*
X205978170Y-108744800D01*
X205978170Y-108744800D02*
X205940074Y-108649561D01*
X205940074Y-108649561D02*
X205940074Y-108268609D01*
X205940074Y-108268609D02*
X205978170Y-108173371D01*
X205978170Y-108173371D02*
X206054360Y-108125752D01*
X206054360Y-108125752D02*
X206206741Y-108125752D01*
X206206741Y-108125752D02*
X206282932Y-108173371D01*
X206282932Y-108173371D02*
X206321027Y-108268609D01*
X206321027Y-108268609D02*
X206321027Y-108363847D01*
X206321027Y-108363847D02*
X205940074Y-108459085D01*
X206663884Y-108125752D02*
X206663884Y-108792419D01*
X206663884Y-108220990D02*
X206701979Y-108173371D01*
X206701979Y-108173371D02*
X206778169Y-108125752D01*
X206778169Y-108125752D02*
X206892455Y-108125752D01*
X206892455Y-108125752D02*
X206968646Y-108173371D01*
X206968646Y-108173371D02*
X207006741Y-108268609D01*
X207006741Y-108268609D02*
X207006741Y-108792419D01*
X207349598Y-108744800D02*
X207425789Y-108792419D01*
X207425789Y-108792419D02*
X207578170Y-108792419D01*
X207578170Y-108792419D02*
X207654360Y-108744800D01*
X207654360Y-108744800D02*
X207692456Y-108649561D01*
X207692456Y-108649561D02*
X207692456Y-108601942D01*
X207692456Y-108601942D02*
X207654360Y-108506704D01*
X207654360Y-108506704D02*
X207578170Y-108459085D01*
X207578170Y-108459085D02*
X207463884Y-108459085D01*
X207463884Y-108459085D02*
X207387694Y-108411466D01*
X207387694Y-108411466D02*
X207349598Y-108316228D01*
X207349598Y-108316228D02*
X207349598Y-108268609D01*
X207349598Y-108268609D02*
X207387694Y-108173371D01*
X207387694Y-108173371D02*
X207463884Y-108125752D01*
X207463884Y-108125752D02*
X207578170Y-108125752D01*
X207578170Y-108125752D02*
X207654360Y-108173371D01*
X208149598Y-108792419D02*
X208073408Y-108744800D01*
X208073408Y-108744800D02*
X208035313Y-108697180D01*
X208035313Y-108697180D02*
X207997217Y-108601942D01*
X207997217Y-108601942D02*
X207997217Y-108316228D01*
X207997217Y-108316228D02*
X208035313Y-108220990D01*
X208035313Y-108220990D02*
X208073408Y-108173371D01*
X208073408Y-108173371D02*
X208149598Y-108125752D01*
X208149598Y-108125752D02*
X208263884Y-108125752D01*
X208263884Y-108125752D02*
X208340075Y-108173371D01*
X208340075Y-108173371D02*
X208378170Y-108220990D01*
X208378170Y-108220990D02*
X208416265Y-108316228D01*
X208416265Y-108316228D02*
X208416265Y-108601942D01*
X208416265Y-108601942D02*
X208378170Y-108697180D01*
X208378170Y-108697180D02*
X208340075Y-108744800D01*
X208340075Y-108744800D02*
X208263884Y-108792419D01*
X208263884Y-108792419D02*
X208149598Y-108792419D01*
X208759123Y-108792419D02*
X208759123Y-108125752D01*
X208759123Y-108316228D02*
X208797218Y-108220990D01*
X208797218Y-108220990D02*
X208835313Y-108173371D01*
X208835313Y-108173371D02*
X208911504Y-108125752D01*
X208911504Y-108125752D02*
X208987694Y-108125752D01*
X67758533Y-74606265D02*
X67758533Y-75215789D01*
X67377580Y-74911027D02*
X68139485Y-74911027D01*
X67377580Y-76015788D02*
X67377580Y-75558645D01*
X67377580Y-75787217D02*
X68377580Y-75787217D01*
X68377580Y-75787217D02*
X68234723Y-75711026D01*
X68234723Y-75711026D02*
X68139485Y-75634836D01*
X68139485Y-75634836D02*
X68091866Y-75558645D01*
X68282342Y-76320550D02*
X68329961Y-76358646D01*
X68329961Y-76358646D02*
X68377580Y-76434836D01*
X68377580Y-76434836D02*
X68377580Y-76625312D01*
X68377580Y-76625312D02*
X68329961Y-76701503D01*
X68329961Y-76701503D02*
X68282342Y-76739598D01*
X68282342Y-76739598D02*
X68187104Y-76777693D01*
X68187104Y-76777693D02*
X68091866Y-76777693D01*
X68091866Y-76777693D02*
X67949009Y-76739598D01*
X67949009Y-76739598D02*
X67377580Y-76282455D01*
X67377580Y-76282455D02*
X67377580Y-76777693D01*
X68377580Y-77006265D02*
X67377580Y-77272932D01*
X67377580Y-77272932D02*
X68377580Y-77539598D01*
X121903884Y-102691466D02*
X122665789Y-102691466D01*
X122284836Y-103072419D02*
X122284836Y-102310514D01*
X123618169Y-102072419D02*
X123141979Y-102072419D01*
X123141979Y-102072419D02*
X123094360Y-102548609D01*
X123094360Y-102548609D02*
X123141979Y-102500990D01*
X123141979Y-102500990D02*
X123237217Y-102453371D01*
X123237217Y-102453371D02*
X123475312Y-102453371D01*
X123475312Y-102453371D02*
X123570550Y-102500990D01*
X123570550Y-102500990D02*
X123618169Y-102548609D01*
X123618169Y-102548609D02*
X123665788Y-102643847D01*
X123665788Y-102643847D02*
X123665788Y-102881942D01*
X123665788Y-102881942D02*
X123618169Y-102977180D01*
X123618169Y-102977180D02*
X123570550Y-103024800D01*
X123570550Y-103024800D02*
X123475312Y-103072419D01*
X123475312Y-103072419D02*
X123237217Y-103072419D01*
X123237217Y-103072419D02*
X123141979Y-103024800D01*
X123141979Y-103024800D02*
X123094360Y-102977180D01*
X123951503Y-102072419D02*
X124284836Y-103072419D01*
X124284836Y-103072419D02*
X124618169Y-102072419D01*
X173256265Y-95072419D02*
X173256265Y-94072419D01*
X173256265Y-94072419D02*
X173522931Y-94786704D01*
X173522931Y-94786704D02*
X173789598Y-94072419D01*
X173789598Y-94072419D02*
X173789598Y-95072419D01*
X174132455Y-95024800D02*
X174246741Y-95072419D01*
X174246741Y-95072419D02*
X174437217Y-95072419D01*
X174437217Y-95072419D02*
X174513408Y-95024800D01*
X174513408Y-95024800D02*
X174551503Y-94977180D01*
X174551503Y-94977180D02*
X174589598Y-94881942D01*
X174589598Y-94881942D02*
X174589598Y-94786704D01*
X174589598Y-94786704D02*
X174551503Y-94691466D01*
X174551503Y-94691466D02*
X174513408Y-94643847D01*
X174513408Y-94643847D02*
X174437217Y-94596228D01*
X174437217Y-94596228D02*
X174284836Y-94548609D01*
X174284836Y-94548609D02*
X174208646Y-94500990D01*
X174208646Y-94500990D02*
X174170551Y-94453371D01*
X174170551Y-94453371D02*
X174132455Y-94358133D01*
X174132455Y-94358133D02*
X174132455Y-94262895D01*
X174132455Y-94262895D02*
X174170551Y-94167657D01*
X174170551Y-94167657D02*
X174208646Y-94120038D01*
X174208646Y-94120038D02*
X174284836Y-94072419D01*
X174284836Y-94072419D02*
X174475313Y-94072419D01*
X174475313Y-94072419D02*
X174589598Y-94120038D01*
X101726265Y-70582419D02*
X101726265Y-69582419D01*
X101726265Y-69582419D02*
X101916741Y-69582419D01*
X101916741Y-69582419D02*
X102031027Y-69630038D01*
X102031027Y-69630038D02*
X102107217Y-69725276D01*
X102107217Y-69725276D02*
X102145312Y-69820514D01*
X102145312Y-69820514D02*
X102183408Y-70010990D01*
X102183408Y-70010990D02*
X102183408Y-70153847D01*
X102183408Y-70153847D02*
X102145312Y-70344323D01*
X102145312Y-70344323D02*
X102107217Y-70439561D01*
X102107217Y-70439561D02*
X102031027Y-70534800D01*
X102031027Y-70534800D02*
X101916741Y-70582419D01*
X101916741Y-70582419D02*
X101726265Y-70582419D01*
X102526265Y-70582419D02*
X102526265Y-69582419D01*
X145327693Y-116072419D02*
X144756265Y-116072419D01*
X145041979Y-116072419D02*
X145041979Y-115072419D01*
X145041979Y-115072419D02*
X144946741Y-115215276D01*
X144946741Y-115215276D02*
X144851503Y-115310514D01*
X144851503Y-115310514D02*
X144756265Y-115358133D01*
X145708646Y-115167657D02*
X145756265Y-115120038D01*
X145756265Y-115120038D02*
X145851503Y-115072419D01*
X145851503Y-115072419D02*
X146089598Y-115072419D01*
X146089598Y-115072419D02*
X146184836Y-115120038D01*
X146184836Y-115120038D02*
X146232455Y-115167657D01*
X146232455Y-115167657D02*
X146280074Y-115262895D01*
X146280074Y-115262895D02*
X146280074Y-115358133D01*
X146280074Y-115358133D02*
X146232455Y-115500990D01*
X146232455Y-115500990D02*
X145661027Y-116072419D01*
X145661027Y-116072419D02*
X146280074Y-116072419D01*
X146565789Y-115072419D02*
X146899122Y-116072419D01*
X146899122Y-116072419D02*
X147232455Y-115072419D01*
X148327694Y-116072419D02*
X148327694Y-115072419D01*
X148327694Y-115072419D02*
X148565789Y-115072419D01*
X148565789Y-115072419D02*
X148708646Y-115120038D01*
X148708646Y-115120038D02*
X148803884Y-115215276D01*
X148803884Y-115215276D02*
X148851503Y-115310514D01*
X148851503Y-115310514D02*
X148899122Y-115500990D01*
X148899122Y-115500990D02*
X148899122Y-115643847D01*
X148899122Y-115643847D02*
X148851503Y-115834323D01*
X148851503Y-115834323D02*
X148803884Y-115929561D01*
X148803884Y-115929561D02*
X148708646Y-116024800D01*
X148708646Y-116024800D02*
X148565789Y-116072419D01*
X148565789Y-116072419D02*
X148327694Y-116072419D01*
X149899122Y-115977180D02*
X149851503Y-116024800D01*
X149851503Y-116024800D02*
X149708646Y-116072419D01*
X149708646Y-116072419D02*
X149613408Y-116072419D01*
X149613408Y-116072419D02*
X149470551Y-116024800D01*
X149470551Y-116024800D02*
X149375313Y-115929561D01*
X149375313Y-115929561D02*
X149327694Y-115834323D01*
X149327694Y-115834323D02*
X149280075Y-115643847D01*
X149280075Y-115643847D02*
X149280075Y-115500990D01*
X149280075Y-115500990D02*
X149327694Y-115310514D01*
X149327694Y-115310514D02*
X149375313Y-115215276D01*
X149375313Y-115215276D02*
X149470551Y-115120038D01*
X149470551Y-115120038D02*
X149613408Y-115072419D01*
X149613408Y-115072419D02*
X149708646Y-115072419D01*
X149708646Y-115072419D02*
X149851503Y-115120038D01*
X149851503Y-115120038D02*
X149899122Y-115167657D01*
X106856265Y-85491466D02*
X107465789Y-85491466D01*
X107161027Y-85872419D02*
X107161027Y-85110514D01*
X108227693Y-84872419D02*
X107846741Y-84872419D01*
X107846741Y-84872419D02*
X107808645Y-85348609D01*
X107808645Y-85348609D02*
X107846741Y-85300990D01*
X107846741Y-85300990D02*
X107922931Y-85253371D01*
X107922931Y-85253371D02*
X108113407Y-85253371D01*
X108113407Y-85253371D02*
X108189598Y-85300990D01*
X108189598Y-85300990D02*
X108227693Y-85348609D01*
X108227693Y-85348609D02*
X108265788Y-85443847D01*
X108265788Y-85443847D02*
X108265788Y-85681942D01*
X108265788Y-85681942D02*
X108227693Y-85777180D01*
X108227693Y-85777180D02*
X108189598Y-85824800D01*
X108189598Y-85824800D02*
X108113407Y-85872419D01*
X108113407Y-85872419D02*
X107922931Y-85872419D01*
X107922931Y-85872419D02*
X107846741Y-85824800D01*
X107846741Y-85824800D02*
X107808645Y-85777180D01*
X108494360Y-84872419D02*
X108761027Y-85872419D01*
X108761027Y-85872419D02*
X109027693Y-84872419D01*
D11*
X175204231Y-106392116D02*
X175737565Y-106392116D01*
X175470898Y-106773069D02*
X175470898Y-106011164D01*
X176437565Y-106773069D02*
X176037565Y-106773069D01*
X176237565Y-106773069D02*
X176237565Y-105773069D01*
X176237565Y-105773069D02*
X176170898Y-105915926D01*
X176170898Y-105915926D02*
X176104232Y-106011164D01*
X176104232Y-106011164D02*
X176037565Y-106058783D01*
X176704232Y-105868307D02*
X176737565Y-105820688D01*
X176737565Y-105820688D02*
X176804232Y-105773069D01*
X176804232Y-105773069D02*
X176970899Y-105773069D01*
X176970899Y-105773069D02*
X177037565Y-105820688D01*
X177037565Y-105820688D02*
X177070899Y-105868307D01*
X177070899Y-105868307D02*
X177104232Y-105963545D01*
X177104232Y-105963545D02*
X177104232Y-106058783D01*
X177104232Y-106058783D02*
X177070899Y-106201640D01*
X177070899Y-106201640D02*
X176670899Y-106773069D01*
X176670899Y-106773069D02*
X177104232Y-106773069D01*
X177304232Y-105773069D02*
X177537566Y-106773069D01*
X177537566Y-106773069D02*
X177770899Y-105773069D01*
D10*
X155476265Y-96178609D02*
X155742931Y-96178609D01*
X155857217Y-96702419D02*
X155476265Y-96702419D01*
X155476265Y-96702419D02*
X155476265Y-95702419D01*
X155476265Y-95702419D02*
X155857217Y-95702419D01*
X156123884Y-96702419D02*
X156542932Y-96035752D01*
X156123884Y-96035752D02*
X156542932Y-96702419D01*
X156733408Y-96035752D02*
X157038170Y-96035752D01*
X156847694Y-95702419D02*
X156847694Y-96559561D01*
X156847694Y-96559561D02*
X156885789Y-96654800D01*
X156885789Y-96654800D02*
X156961979Y-96702419D01*
X156961979Y-96702419D02*
X157038170Y-96702419D01*
X157304837Y-96607180D02*
X157342932Y-96654800D01*
X157342932Y-96654800D02*
X157304837Y-96702419D01*
X157304837Y-96702419D02*
X157266741Y-96654800D01*
X157266741Y-96654800D02*
X157304837Y-96607180D01*
X157304837Y-96607180D02*
X157304837Y-96702419D01*
X158676265Y-96702419D02*
X158295313Y-96702419D01*
X158295313Y-96702419D02*
X158295313Y-95702419D01*
X158942932Y-96178609D02*
X159209598Y-96178609D01*
X159323884Y-96702419D02*
X158942932Y-96702419D01*
X158942932Y-96702419D02*
X158942932Y-95702419D01*
X158942932Y-95702419D02*
X159323884Y-95702419D01*
X159666742Y-96702419D02*
X159666742Y-95702419D01*
X159666742Y-95702419D02*
X159857218Y-95702419D01*
X159857218Y-95702419D02*
X159971504Y-95750038D01*
X159971504Y-95750038D02*
X160047694Y-95845276D01*
X160047694Y-95845276D02*
X160085789Y-95940514D01*
X160085789Y-95940514D02*
X160123885Y-96130990D01*
X160123885Y-96130990D02*
X160123885Y-96273847D01*
X160123885Y-96273847D02*
X160085789Y-96464323D01*
X160085789Y-96464323D02*
X160047694Y-96559561D01*
X160047694Y-96559561D02*
X159971504Y-96654800D01*
X159971504Y-96654800D02*
X159857218Y-96702419D01*
X159857218Y-96702419D02*
X159666742Y-96702419D01*
X122827693Y-107420038D02*
X122732455Y-107372419D01*
X122732455Y-107372419D02*
X122589598Y-107372419D01*
X122589598Y-107372419D02*
X122446741Y-107420038D01*
X122446741Y-107420038D02*
X122351503Y-107515276D01*
X122351503Y-107515276D02*
X122303884Y-107610514D01*
X122303884Y-107610514D02*
X122256265Y-107800990D01*
X122256265Y-107800990D02*
X122256265Y-107943847D01*
X122256265Y-107943847D02*
X122303884Y-108134323D01*
X122303884Y-108134323D02*
X122351503Y-108229561D01*
X122351503Y-108229561D02*
X122446741Y-108324800D01*
X122446741Y-108324800D02*
X122589598Y-108372419D01*
X122589598Y-108372419D02*
X122684836Y-108372419D01*
X122684836Y-108372419D02*
X122827693Y-108324800D01*
X122827693Y-108324800D02*
X122875312Y-108277180D01*
X122875312Y-108277180D02*
X122875312Y-107943847D01*
X122875312Y-107943847D02*
X122684836Y-107943847D01*
X123303884Y-108372419D02*
X123303884Y-107372419D01*
X123303884Y-107372419D02*
X123875312Y-108372419D01*
X123875312Y-108372419D02*
X123875312Y-107372419D01*
X124351503Y-108372419D02*
X124351503Y-107372419D01*
X124351503Y-107372419D02*
X124589598Y-107372419D01*
X124589598Y-107372419D02*
X124732455Y-107420038D01*
X124732455Y-107420038D02*
X124827693Y-107515276D01*
X124827693Y-107515276D02*
X124875312Y-107610514D01*
X124875312Y-107610514D02*
X124922931Y-107800990D01*
X124922931Y-107800990D02*
X124922931Y-107943847D01*
X124922931Y-107943847D02*
X124875312Y-108134323D01*
X124875312Y-108134323D02*
X124827693Y-108229561D01*
X124827693Y-108229561D02*
X124732455Y-108324800D01*
X124732455Y-108324800D02*
X124589598Y-108372419D01*
X124589598Y-108372419D02*
X124351503Y-108372419D01*
X130342455Y-94438609D02*
X130575789Y-94438609D01*
X130675789Y-94962419D02*
X130342455Y-94962419D01*
X130342455Y-94962419D02*
X130342455Y-93962419D01*
X130342455Y-93962419D02*
X130675789Y-93962419D01*
X130942455Y-94914800D02*
X131042455Y-94962419D01*
X131042455Y-94962419D02*
X131209122Y-94962419D01*
X131209122Y-94962419D02*
X131275788Y-94914800D01*
X131275788Y-94914800D02*
X131309122Y-94867180D01*
X131309122Y-94867180D02*
X131342455Y-94771942D01*
X131342455Y-94771942D02*
X131342455Y-94676704D01*
X131342455Y-94676704D02*
X131309122Y-94581466D01*
X131309122Y-94581466D02*
X131275788Y-94533847D01*
X131275788Y-94533847D02*
X131209122Y-94486228D01*
X131209122Y-94486228D02*
X131075788Y-94438609D01*
X131075788Y-94438609D02*
X131009122Y-94390990D01*
X131009122Y-94390990D02*
X130975788Y-94343371D01*
X130975788Y-94343371D02*
X130942455Y-94248133D01*
X130942455Y-94248133D02*
X130942455Y-94152895D01*
X130942455Y-94152895D02*
X130975788Y-94057657D01*
X130975788Y-94057657D02*
X131009122Y-94010038D01*
X131009122Y-94010038D02*
X131075788Y-93962419D01*
X131075788Y-93962419D02*
X131242455Y-93962419D01*
X131242455Y-93962419D02*
X131342455Y-94010038D01*
X131642455Y-94962419D02*
X131642455Y-93962419D01*
X131642455Y-93962419D02*
X131909122Y-93962419D01*
X131909122Y-93962419D02*
X131975789Y-94010038D01*
X131975789Y-94010038D02*
X132009122Y-94057657D01*
X132009122Y-94057657D02*
X132042455Y-94152895D01*
X132042455Y-94152895D02*
X132042455Y-94295752D01*
X132042455Y-94295752D02*
X132009122Y-94390990D01*
X132009122Y-94390990D02*
X131975789Y-94438609D01*
X131975789Y-94438609D02*
X131909122Y-94486228D01*
X131909122Y-94486228D02*
X131642455Y-94486228D01*
X132175789Y-95057657D02*
X132709122Y-95057657D01*
X132875788Y-94438609D02*
X133109122Y-94438609D01*
X133209122Y-94962419D02*
X132875788Y-94962419D01*
X132875788Y-94962419D02*
X132875788Y-93962419D01*
X132875788Y-93962419D02*
X133209122Y-93962419D01*
X133509121Y-94962419D02*
X133509121Y-93962419D01*
X133509121Y-93962419D02*
X133909121Y-94962419D01*
X133909121Y-94962419D02*
X133909121Y-93962419D01*
X135109121Y-94962419D02*
X134775787Y-94962419D01*
X134775787Y-94962419D02*
X134775787Y-93962419D01*
X135309121Y-94914800D02*
X135409121Y-94962419D01*
X135409121Y-94962419D02*
X135575788Y-94962419D01*
X135575788Y-94962419D02*
X135642454Y-94914800D01*
X135642454Y-94914800D02*
X135675788Y-94867180D01*
X135675788Y-94867180D02*
X135709121Y-94771942D01*
X135709121Y-94771942D02*
X135709121Y-94676704D01*
X135709121Y-94676704D02*
X135675788Y-94581466D01*
X135675788Y-94581466D02*
X135642454Y-94533847D01*
X135642454Y-94533847D02*
X135575788Y-94486228D01*
X135575788Y-94486228D02*
X135442454Y-94438609D01*
X135442454Y-94438609D02*
X135375788Y-94390990D01*
X135375788Y-94390990D02*
X135342454Y-94343371D01*
X135342454Y-94343371D02*
X135309121Y-94248133D01*
X135309121Y-94248133D02*
X135309121Y-94152895D01*
X135309121Y-94152895D02*
X135342454Y-94057657D01*
X135342454Y-94057657D02*
X135375788Y-94010038D01*
X135375788Y-94010038D02*
X135442454Y-93962419D01*
X135442454Y-93962419D02*
X135609121Y-93962419D01*
X135609121Y-93962419D02*
X135709121Y-94010038D01*
X137075787Y-94962419D02*
X137075787Y-93962419D01*
X137075787Y-93962419D02*
X137309121Y-94676704D01*
X137309121Y-94676704D02*
X137542454Y-93962419D01*
X137542454Y-93962419D02*
X137542454Y-94962419D01*
X137842454Y-94914800D02*
X137942454Y-94962419D01*
X137942454Y-94962419D02*
X138109121Y-94962419D01*
X138109121Y-94962419D02*
X138175787Y-94914800D01*
X138175787Y-94914800D02*
X138209121Y-94867180D01*
X138209121Y-94867180D02*
X138242454Y-94771942D01*
X138242454Y-94771942D02*
X138242454Y-94676704D01*
X138242454Y-94676704D02*
X138209121Y-94581466D01*
X138209121Y-94581466D02*
X138175787Y-94533847D01*
X138175787Y-94533847D02*
X138109121Y-94486228D01*
X138109121Y-94486228D02*
X137975787Y-94438609D01*
X137975787Y-94438609D02*
X137909121Y-94390990D01*
X137909121Y-94390990D02*
X137875787Y-94343371D01*
X137875787Y-94343371D02*
X137842454Y-94248133D01*
X137842454Y-94248133D02*
X137842454Y-94152895D01*
X137842454Y-94152895D02*
X137875787Y-94057657D01*
X137875787Y-94057657D02*
X137909121Y-94010038D01*
X137909121Y-94010038D02*
X137975787Y-93962419D01*
X137975787Y-93962419D02*
X138142454Y-93962419D01*
X138142454Y-93962419D02*
X138242454Y-94010038D01*
X83488169Y-72056704D02*
X83869122Y-72056704D01*
X83411979Y-72342419D02*
X83678646Y-71342419D01*
X83678646Y-71342419D02*
X83945312Y-72342419D01*
D11*
X175364231Y-108839259D02*
X175597565Y-108839259D01*
X175697565Y-109363069D02*
X175364231Y-109363069D01*
X175364231Y-109363069D02*
X175364231Y-108363069D01*
X175364231Y-108363069D02*
X175697565Y-108363069D01*
X175997564Y-109363069D02*
X175997564Y-108363069D01*
X175997564Y-108363069D02*
X176397564Y-109363069D01*
X176397564Y-109363069D02*
X176397564Y-108363069D01*
D10*
X102083408Y-78382419D02*
X101816741Y-77906228D01*
X101626265Y-78382419D02*
X101626265Y-77382419D01*
X101626265Y-77382419D02*
X101931027Y-77382419D01*
X101931027Y-77382419D02*
X102007217Y-77430038D01*
X102007217Y-77430038D02*
X102045312Y-77477657D01*
X102045312Y-77477657D02*
X102083408Y-77572895D01*
X102083408Y-77572895D02*
X102083408Y-77715752D01*
X102083408Y-77715752D02*
X102045312Y-77810990D01*
X102045312Y-77810990D02*
X102007217Y-77858609D01*
X102007217Y-77858609D02*
X101931027Y-77906228D01*
X101931027Y-77906228D02*
X101626265Y-77906228D01*
X102578646Y-77382419D02*
X102731027Y-77382419D01*
X102731027Y-77382419D02*
X102807217Y-77430038D01*
X102807217Y-77430038D02*
X102883408Y-77525276D01*
X102883408Y-77525276D02*
X102921503Y-77715752D01*
X102921503Y-77715752D02*
X102921503Y-78049085D01*
X102921503Y-78049085D02*
X102883408Y-78239561D01*
X102883408Y-78239561D02*
X102807217Y-78334800D01*
X102807217Y-78334800D02*
X102731027Y-78382419D01*
X102731027Y-78382419D02*
X102578646Y-78382419D01*
X102578646Y-78382419D02*
X102502455Y-78334800D01*
X102502455Y-78334800D02*
X102426265Y-78239561D01*
X102426265Y-78239561D02*
X102388169Y-78049085D01*
X102388169Y-78049085D02*
X102388169Y-77715752D01*
X102388169Y-77715752D02*
X102426265Y-77525276D01*
X102426265Y-77525276D02*
X102502455Y-77430038D01*
X102502455Y-77430038D02*
X102578646Y-77382419D01*
X101626265Y-73182419D02*
X101626265Y-72182419D01*
X101626265Y-72182419D02*
X101816741Y-72182419D01*
X101816741Y-72182419D02*
X101931027Y-72230038D01*
X101931027Y-72230038D02*
X102007217Y-72325276D01*
X102007217Y-72325276D02*
X102045312Y-72420514D01*
X102045312Y-72420514D02*
X102083408Y-72610990D01*
X102083408Y-72610990D02*
X102083408Y-72753847D01*
X102083408Y-72753847D02*
X102045312Y-72944323D01*
X102045312Y-72944323D02*
X102007217Y-73039561D01*
X102007217Y-73039561D02*
X101931027Y-73134800D01*
X101931027Y-73134800D02*
X101816741Y-73182419D01*
X101816741Y-73182419D02*
X101626265Y-73182419D01*
X102426265Y-72658609D02*
X102692931Y-72658609D01*
X102807217Y-73182419D02*
X102426265Y-73182419D01*
X102426265Y-73182419D02*
X102426265Y-72182419D01*
X102426265Y-72182419D02*
X102807217Y-72182419D01*
X88330312Y-63822419D02*
X87996979Y-63346228D01*
X87758884Y-63822419D02*
X87758884Y-62822419D01*
X87758884Y-62822419D02*
X88139836Y-62822419D01*
X88139836Y-62822419D02*
X88235074Y-62870038D01*
X88235074Y-62870038D02*
X88282693Y-62917657D01*
X88282693Y-62917657D02*
X88330312Y-63012895D01*
X88330312Y-63012895D02*
X88330312Y-63155752D01*
X88330312Y-63155752D02*
X88282693Y-63250990D01*
X88282693Y-63250990D02*
X88235074Y-63298609D01*
X88235074Y-63298609D02*
X88139836Y-63346228D01*
X88139836Y-63346228D02*
X87758884Y-63346228D01*
X88711265Y-63774800D02*
X88854122Y-63822419D01*
X88854122Y-63822419D02*
X89092217Y-63822419D01*
X89092217Y-63822419D02*
X89187455Y-63774800D01*
X89187455Y-63774800D02*
X89235074Y-63727180D01*
X89235074Y-63727180D02*
X89282693Y-63631942D01*
X89282693Y-63631942D02*
X89282693Y-63536704D01*
X89282693Y-63536704D02*
X89235074Y-63441466D01*
X89235074Y-63441466D02*
X89187455Y-63393847D01*
X89187455Y-63393847D02*
X89092217Y-63346228D01*
X89092217Y-63346228D02*
X88901741Y-63298609D01*
X88901741Y-63298609D02*
X88806503Y-63250990D01*
X88806503Y-63250990D02*
X88758884Y-63203371D01*
X88758884Y-63203371D02*
X88711265Y-63108133D01*
X88711265Y-63108133D02*
X88711265Y-63012895D01*
X88711265Y-63012895D02*
X88758884Y-62917657D01*
X88758884Y-62917657D02*
X88806503Y-62870038D01*
X88806503Y-62870038D02*
X88901741Y-62822419D01*
X88901741Y-62822419D02*
X89139836Y-62822419D01*
X89139836Y-62822419D02*
X89282693Y-62870038D01*
X90139836Y-63155752D02*
X90139836Y-63822419D01*
X89901741Y-62774800D02*
X89663646Y-63489085D01*
X89663646Y-63489085D02*
X90282693Y-63489085D01*
X90806503Y-63250990D02*
X90711265Y-63203371D01*
X90711265Y-63203371D02*
X90663646Y-63155752D01*
X90663646Y-63155752D02*
X90616027Y-63060514D01*
X90616027Y-63060514D02*
X90616027Y-63012895D01*
X90616027Y-63012895D02*
X90663646Y-62917657D01*
X90663646Y-62917657D02*
X90711265Y-62870038D01*
X90711265Y-62870038D02*
X90806503Y-62822419D01*
X90806503Y-62822419D02*
X90996979Y-62822419D01*
X90996979Y-62822419D02*
X91092217Y-62870038D01*
X91092217Y-62870038D02*
X91139836Y-62917657D01*
X91139836Y-62917657D02*
X91187455Y-63012895D01*
X91187455Y-63012895D02*
X91187455Y-63060514D01*
X91187455Y-63060514D02*
X91139836Y-63155752D01*
X91139836Y-63155752D02*
X91092217Y-63203371D01*
X91092217Y-63203371D02*
X90996979Y-63250990D01*
X90996979Y-63250990D02*
X90806503Y-63250990D01*
X90806503Y-63250990D02*
X90711265Y-63298609D01*
X90711265Y-63298609D02*
X90663646Y-63346228D01*
X90663646Y-63346228D02*
X90616027Y-63441466D01*
X90616027Y-63441466D02*
X90616027Y-63631942D01*
X90616027Y-63631942D02*
X90663646Y-63727180D01*
X90663646Y-63727180D02*
X90711265Y-63774800D01*
X90711265Y-63774800D02*
X90806503Y-63822419D01*
X90806503Y-63822419D02*
X90996979Y-63822419D01*
X90996979Y-63822419D02*
X91092217Y-63774800D01*
X91092217Y-63774800D02*
X91139836Y-63727180D01*
X91139836Y-63727180D02*
X91187455Y-63631942D01*
X91187455Y-63631942D02*
X91187455Y-63441466D01*
X91187455Y-63441466D02*
X91139836Y-63346228D01*
X91139836Y-63346228D02*
X91092217Y-63298609D01*
X91092217Y-63298609D02*
X90996979Y-63250990D01*
X92092217Y-62822419D02*
X91616027Y-62822419D01*
X91616027Y-62822419D02*
X91568408Y-63298609D01*
X91568408Y-63298609D02*
X91616027Y-63250990D01*
X91616027Y-63250990D02*
X91711265Y-63203371D01*
X91711265Y-63203371D02*
X91949360Y-63203371D01*
X91949360Y-63203371D02*
X92044598Y-63250990D01*
X92044598Y-63250990D02*
X92092217Y-63298609D01*
X92092217Y-63298609D02*
X92139836Y-63393847D01*
X92139836Y-63393847D02*
X92139836Y-63631942D01*
X92139836Y-63631942D02*
X92092217Y-63727180D01*
X92092217Y-63727180D02*
X92044598Y-63774800D01*
X92044598Y-63774800D02*
X91949360Y-63822419D01*
X91949360Y-63822419D02*
X91711265Y-63822419D01*
X91711265Y-63822419D02*
X91616027Y-63774800D01*
X91616027Y-63774800D02*
X91568408Y-63727180D01*
X93187456Y-62822419D02*
X93758884Y-62822419D01*
X93473170Y-63822419D02*
X93473170Y-62822419D01*
X94092218Y-63822419D02*
X94092218Y-63155752D01*
X94092218Y-63346228D02*
X94139837Y-63250990D01*
X94139837Y-63250990D02*
X94187456Y-63203371D01*
X94187456Y-63203371D02*
X94282694Y-63155752D01*
X94282694Y-63155752D02*
X94377932Y-63155752D01*
X95139837Y-63822419D02*
X95139837Y-63298609D01*
X95139837Y-63298609D02*
X95092218Y-63203371D01*
X95092218Y-63203371D02*
X94996980Y-63155752D01*
X94996980Y-63155752D02*
X94806504Y-63155752D01*
X94806504Y-63155752D02*
X94711266Y-63203371D01*
X95139837Y-63774800D02*
X95044599Y-63822419D01*
X95044599Y-63822419D02*
X94806504Y-63822419D01*
X94806504Y-63822419D02*
X94711266Y-63774800D01*
X94711266Y-63774800D02*
X94663647Y-63679561D01*
X94663647Y-63679561D02*
X94663647Y-63584323D01*
X94663647Y-63584323D02*
X94711266Y-63489085D01*
X94711266Y-63489085D02*
X94806504Y-63441466D01*
X94806504Y-63441466D02*
X95044599Y-63441466D01*
X95044599Y-63441466D02*
X95139837Y-63393847D01*
X95616028Y-63155752D02*
X95616028Y-63822419D01*
X95616028Y-63250990D02*
X95663647Y-63203371D01*
X95663647Y-63203371D02*
X95758885Y-63155752D01*
X95758885Y-63155752D02*
X95901742Y-63155752D01*
X95901742Y-63155752D02*
X95996980Y-63203371D01*
X95996980Y-63203371D02*
X96044599Y-63298609D01*
X96044599Y-63298609D02*
X96044599Y-63822419D01*
X96473171Y-63774800D02*
X96568409Y-63822419D01*
X96568409Y-63822419D02*
X96758885Y-63822419D01*
X96758885Y-63822419D02*
X96854123Y-63774800D01*
X96854123Y-63774800D02*
X96901742Y-63679561D01*
X96901742Y-63679561D02*
X96901742Y-63631942D01*
X96901742Y-63631942D02*
X96854123Y-63536704D01*
X96854123Y-63536704D02*
X96758885Y-63489085D01*
X96758885Y-63489085D02*
X96616028Y-63489085D01*
X96616028Y-63489085D02*
X96520790Y-63441466D01*
X96520790Y-63441466D02*
X96473171Y-63346228D01*
X96473171Y-63346228D02*
X96473171Y-63298609D01*
X96473171Y-63298609D02*
X96520790Y-63203371D01*
X96520790Y-63203371D02*
X96616028Y-63155752D01*
X96616028Y-63155752D02*
X96758885Y-63155752D01*
X96758885Y-63155752D02*
X96854123Y-63203371D01*
X97758885Y-63774800D02*
X97663647Y-63822419D01*
X97663647Y-63822419D02*
X97473171Y-63822419D01*
X97473171Y-63822419D02*
X97377933Y-63774800D01*
X97377933Y-63774800D02*
X97330314Y-63727180D01*
X97330314Y-63727180D02*
X97282695Y-63631942D01*
X97282695Y-63631942D02*
X97282695Y-63346228D01*
X97282695Y-63346228D02*
X97330314Y-63250990D01*
X97330314Y-63250990D02*
X97377933Y-63203371D01*
X97377933Y-63203371D02*
X97473171Y-63155752D01*
X97473171Y-63155752D02*
X97663647Y-63155752D01*
X97663647Y-63155752D02*
X97758885Y-63203371D01*
X98568409Y-63774800D02*
X98473171Y-63822419D01*
X98473171Y-63822419D02*
X98282695Y-63822419D01*
X98282695Y-63822419D02*
X98187457Y-63774800D01*
X98187457Y-63774800D02*
X98139838Y-63679561D01*
X98139838Y-63679561D02*
X98139838Y-63298609D01*
X98139838Y-63298609D02*
X98187457Y-63203371D01*
X98187457Y-63203371D02*
X98282695Y-63155752D01*
X98282695Y-63155752D02*
X98473171Y-63155752D01*
X98473171Y-63155752D02*
X98568409Y-63203371D01*
X98568409Y-63203371D02*
X98616028Y-63298609D01*
X98616028Y-63298609D02*
X98616028Y-63393847D01*
X98616028Y-63393847D02*
X98139838Y-63489085D01*
X99044600Y-63822419D02*
X99044600Y-63155752D01*
X99044600Y-62822419D02*
X98996981Y-62870038D01*
X98996981Y-62870038D02*
X99044600Y-62917657D01*
X99044600Y-62917657D02*
X99092219Y-62870038D01*
X99092219Y-62870038D02*
X99044600Y-62822419D01*
X99044600Y-62822419D02*
X99044600Y-62917657D01*
X99425552Y-63155752D02*
X99663647Y-63822419D01*
X99663647Y-63822419D02*
X99901742Y-63155752D01*
X100663647Y-63774800D02*
X100568409Y-63822419D01*
X100568409Y-63822419D02*
X100377933Y-63822419D01*
X100377933Y-63822419D02*
X100282695Y-63774800D01*
X100282695Y-63774800D02*
X100235076Y-63679561D01*
X100235076Y-63679561D02*
X100235076Y-63298609D01*
X100235076Y-63298609D02*
X100282695Y-63203371D01*
X100282695Y-63203371D02*
X100377933Y-63155752D01*
X100377933Y-63155752D02*
X100568409Y-63155752D01*
X100568409Y-63155752D02*
X100663647Y-63203371D01*
X100663647Y-63203371D02*
X100711266Y-63298609D01*
X100711266Y-63298609D02*
X100711266Y-63393847D01*
X100711266Y-63393847D02*
X100235076Y-63489085D01*
X101139838Y-63822419D02*
X101139838Y-63155752D01*
X101139838Y-63346228D02*
X101187457Y-63250990D01*
X101187457Y-63250990D02*
X101235076Y-63203371D01*
X101235076Y-63203371D02*
X101330314Y-63155752D01*
X101330314Y-63155752D02*
X101425552Y-63155752D01*
X189475312Y-57020038D02*
X189399122Y-56972419D01*
X189399122Y-56972419D02*
X189284836Y-56972419D01*
X189284836Y-56972419D02*
X189170550Y-57020038D01*
X189170550Y-57020038D02*
X189094360Y-57115276D01*
X189094360Y-57115276D02*
X189056265Y-57210514D01*
X189056265Y-57210514D02*
X189018169Y-57400990D01*
X189018169Y-57400990D02*
X189018169Y-57543847D01*
X189018169Y-57543847D02*
X189056265Y-57734323D01*
X189056265Y-57734323D02*
X189094360Y-57829561D01*
X189094360Y-57829561D02*
X189170550Y-57924800D01*
X189170550Y-57924800D02*
X189284836Y-57972419D01*
X189284836Y-57972419D02*
X189361027Y-57972419D01*
X189361027Y-57972419D02*
X189475312Y-57924800D01*
X189475312Y-57924800D02*
X189513408Y-57877180D01*
X189513408Y-57877180D02*
X189513408Y-57543847D01*
X189513408Y-57543847D02*
X189361027Y-57543847D01*
X189856265Y-57972419D02*
X189856265Y-56972419D01*
X189856265Y-56972419D02*
X190313408Y-57972419D01*
X190313408Y-57972419D02*
X190313408Y-56972419D01*
X190694360Y-57972419D02*
X190694360Y-56972419D01*
X190694360Y-56972419D02*
X190884836Y-56972419D01*
X190884836Y-56972419D02*
X190999122Y-57020038D01*
X190999122Y-57020038D02*
X191075312Y-57115276D01*
X191075312Y-57115276D02*
X191113407Y-57210514D01*
X191113407Y-57210514D02*
X191151503Y-57400990D01*
X191151503Y-57400990D02*
X191151503Y-57543847D01*
X191151503Y-57543847D02*
X191113407Y-57734323D01*
X191113407Y-57734323D02*
X191075312Y-57829561D01*
X191075312Y-57829561D02*
X190999122Y-57924800D01*
X190999122Y-57924800D02*
X190884836Y-57972419D01*
X190884836Y-57972419D02*
X190694360Y-57972419D01*
X70861265Y-90872419D02*
X70861265Y-89872419D01*
X70861265Y-89872419D02*
X71318408Y-90872419D01*
X71318408Y-90872419D02*
X71318408Y-89872419D01*
X72156503Y-90777180D02*
X72118407Y-90824800D01*
X72118407Y-90824800D02*
X72004122Y-90872419D01*
X72004122Y-90872419D02*
X71927931Y-90872419D01*
X71927931Y-90872419D02*
X71813645Y-90824800D01*
X71813645Y-90824800D02*
X71737455Y-90729561D01*
X71737455Y-90729561D02*
X71699360Y-90634323D01*
X71699360Y-90634323D02*
X71661264Y-90443847D01*
X71661264Y-90443847D02*
X71661264Y-90300990D01*
X71661264Y-90300990D02*
X71699360Y-90110514D01*
X71699360Y-90110514D02*
X71737455Y-90015276D01*
X71737455Y-90015276D02*
X71813645Y-89920038D01*
X71813645Y-89920038D02*
X71927931Y-89872419D01*
X71927931Y-89872419D02*
X72004122Y-89872419D01*
X72004122Y-89872419D02*
X72118407Y-89920038D01*
X72118407Y-89920038D02*
X72156503Y-89967657D01*
X73566027Y-90777180D02*
X73527931Y-90824800D01*
X73527931Y-90824800D02*
X73413646Y-90872419D01*
X73413646Y-90872419D02*
X73337455Y-90872419D01*
X73337455Y-90872419D02*
X73223169Y-90824800D01*
X73223169Y-90824800D02*
X73146979Y-90729561D01*
X73146979Y-90729561D02*
X73108884Y-90634323D01*
X73108884Y-90634323D02*
X73070788Y-90443847D01*
X73070788Y-90443847D02*
X73070788Y-90300990D01*
X73070788Y-90300990D02*
X73108884Y-90110514D01*
X73108884Y-90110514D02*
X73146979Y-90015276D01*
X73146979Y-90015276D02*
X73223169Y-89920038D01*
X73223169Y-89920038D02*
X73337455Y-89872419D01*
X73337455Y-89872419D02*
X73413646Y-89872419D01*
X73413646Y-89872419D02*
X73527931Y-89920038D01*
X73527931Y-89920038D02*
X73566027Y-89967657D01*
X74061265Y-89872419D02*
X74213646Y-89872419D01*
X74213646Y-89872419D02*
X74289836Y-89920038D01*
X74289836Y-89920038D02*
X74366027Y-90015276D01*
X74366027Y-90015276D02*
X74404122Y-90205752D01*
X74404122Y-90205752D02*
X74404122Y-90539085D01*
X74404122Y-90539085D02*
X74366027Y-90729561D01*
X74366027Y-90729561D02*
X74289836Y-90824800D01*
X74289836Y-90824800D02*
X74213646Y-90872419D01*
X74213646Y-90872419D02*
X74061265Y-90872419D01*
X74061265Y-90872419D02*
X73985074Y-90824800D01*
X73985074Y-90824800D02*
X73908884Y-90729561D01*
X73908884Y-90729561D02*
X73870788Y-90539085D01*
X73870788Y-90539085D02*
X73870788Y-90205752D01*
X73870788Y-90205752D02*
X73908884Y-90015276D01*
X73908884Y-90015276D02*
X73985074Y-89920038D01*
X73985074Y-89920038D02*
X74061265Y-89872419D01*
X74746979Y-90872419D02*
X74746979Y-89872419D01*
X74746979Y-89872419D02*
X75013645Y-90586704D01*
X75013645Y-90586704D02*
X75280312Y-89872419D01*
X75280312Y-89872419D02*
X75280312Y-90872419D01*
X76270789Y-90491466D02*
X76880313Y-90491466D01*
X76575551Y-90872419D02*
X76575551Y-90110514D01*
X77680312Y-90872419D02*
X77223169Y-90872419D01*
X77451741Y-90872419D02*
X77451741Y-89872419D01*
X77451741Y-89872419D02*
X77375550Y-90015276D01*
X77375550Y-90015276D02*
X77299360Y-90110514D01*
X77299360Y-90110514D02*
X77223169Y-90158133D01*
X77985074Y-89967657D02*
X78023170Y-89920038D01*
X78023170Y-89920038D02*
X78099360Y-89872419D01*
X78099360Y-89872419D02*
X78289836Y-89872419D01*
X78289836Y-89872419D02*
X78366027Y-89920038D01*
X78366027Y-89920038D02*
X78404122Y-89967657D01*
X78404122Y-89967657D02*
X78442217Y-90062895D01*
X78442217Y-90062895D02*
X78442217Y-90158133D01*
X78442217Y-90158133D02*
X78404122Y-90300990D01*
X78404122Y-90300990D02*
X77946979Y-90872419D01*
X77946979Y-90872419D02*
X78442217Y-90872419D01*
X78670789Y-89872419D02*
X78937456Y-90872419D01*
X78937456Y-90872419D02*
X79204122Y-89872419D01*
X66527819Y-97613408D02*
X66480200Y-97575312D01*
X66480200Y-97575312D02*
X66432580Y-97461027D01*
X66432580Y-97461027D02*
X66432580Y-97384836D01*
X66432580Y-97384836D02*
X66480200Y-97270550D01*
X66480200Y-97270550D02*
X66575438Y-97194360D01*
X66575438Y-97194360D02*
X66670676Y-97156265D01*
X66670676Y-97156265D02*
X66861152Y-97118169D01*
X66861152Y-97118169D02*
X67004009Y-97118169D01*
X67004009Y-97118169D02*
X67194485Y-97156265D01*
X67194485Y-97156265D02*
X67289723Y-97194360D01*
X67289723Y-97194360D02*
X67384961Y-97270550D01*
X67384961Y-97270550D02*
X67432580Y-97384836D01*
X67432580Y-97384836D02*
X67432580Y-97461027D01*
X67432580Y-97461027D02*
X67384961Y-97575312D01*
X67384961Y-97575312D02*
X67337342Y-97613408D01*
X67432580Y-98108646D02*
X67432580Y-98261027D01*
X67432580Y-98261027D02*
X67384961Y-98337217D01*
X67384961Y-98337217D02*
X67289723Y-98413408D01*
X67289723Y-98413408D02*
X67099247Y-98451503D01*
X67099247Y-98451503D02*
X66765914Y-98451503D01*
X66765914Y-98451503D02*
X66575438Y-98413408D01*
X66575438Y-98413408D02*
X66480200Y-98337217D01*
X66480200Y-98337217D02*
X66432580Y-98261027D01*
X66432580Y-98261027D02*
X66432580Y-98108646D01*
X66432580Y-98108646D02*
X66480200Y-98032455D01*
X66480200Y-98032455D02*
X66575438Y-97956265D01*
X66575438Y-97956265D02*
X66765914Y-97918169D01*
X66765914Y-97918169D02*
X67099247Y-97918169D01*
X67099247Y-97918169D02*
X67289723Y-97956265D01*
X67289723Y-97956265D02*
X67384961Y-98032455D01*
X67384961Y-98032455D02*
X67432580Y-98108646D01*
X66432580Y-98794360D02*
X67432580Y-98794360D01*
X67432580Y-98794360D02*
X66718295Y-99061026D01*
X66718295Y-99061026D02*
X67432580Y-99327693D01*
X67432580Y-99327693D02*
X66432580Y-99327693D01*
X84045312Y-69030038D02*
X83969122Y-68982419D01*
X83969122Y-68982419D02*
X83854836Y-68982419D01*
X83854836Y-68982419D02*
X83740550Y-69030038D01*
X83740550Y-69030038D02*
X83664360Y-69125276D01*
X83664360Y-69125276D02*
X83626265Y-69220514D01*
X83626265Y-69220514D02*
X83588169Y-69410990D01*
X83588169Y-69410990D02*
X83588169Y-69553847D01*
X83588169Y-69553847D02*
X83626265Y-69744323D01*
X83626265Y-69744323D02*
X83664360Y-69839561D01*
X83664360Y-69839561D02*
X83740550Y-69934800D01*
X83740550Y-69934800D02*
X83854836Y-69982419D01*
X83854836Y-69982419D02*
X83931027Y-69982419D01*
X83931027Y-69982419D02*
X84045312Y-69934800D01*
X84045312Y-69934800D02*
X84083408Y-69887180D01*
X84083408Y-69887180D02*
X84083408Y-69553847D01*
X84083408Y-69553847D02*
X83931027Y-69553847D01*
X84426265Y-69982419D02*
X84426265Y-68982419D01*
X84426265Y-68982419D02*
X84883408Y-69982419D01*
X84883408Y-69982419D02*
X84883408Y-68982419D01*
X85264360Y-69982419D02*
X85264360Y-68982419D01*
X85264360Y-68982419D02*
X85454836Y-68982419D01*
X85454836Y-68982419D02*
X85569122Y-69030038D01*
X85569122Y-69030038D02*
X85645312Y-69125276D01*
X85645312Y-69125276D02*
X85683407Y-69220514D01*
X85683407Y-69220514D02*
X85721503Y-69410990D01*
X85721503Y-69410990D02*
X85721503Y-69553847D01*
X85721503Y-69553847D02*
X85683407Y-69744323D01*
X85683407Y-69744323D02*
X85645312Y-69839561D01*
X85645312Y-69839561D02*
X85569122Y-69934800D01*
X85569122Y-69934800D02*
X85454836Y-69982419D01*
X85454836Y-69982419D02*
X85264360Y-69982419D01*
D12*
X89789160Y-78188866D02*
X90398684Y-78188866D01*
X90093922Y-78569819D02*
X90093922Y-77807914D01*
X91198683Y-78569819D02*
X90741540Y-78569819D01*
X90970112Y-78569819D02*
X90970112Y-77569819D01*
X90970112Y-77569819D02*
X90893921Y-77712676D01*
X90893921Y-77712676D02*
X90817731Y-77807914D01*
X90817731Y-77807914D02*
X90741540Y-77855533D01*
X91503445Y-77665057D02*
X91541541Y-77617438D01*
X91541541Y-77617438D02*
X91617731Y-77569819D01*
X91617731Y-77569819D02*
X91808207Y-77569819D01*
X91808207Y-77569819D02*
X91884398Y-77617438D01*
X91884398Y-77617438D02*
X91922493Y-77665057D01*
X91922493Y-77665057D02*
X91960588Y-77760295D01*
X91960588Y-77760295D02*
X91960588Y-77855533D01*
X91960588Y-77855533D02*
X91922493Y-77998390D01*
X91922493Y-77998390D02*
X91465350Y-78569819D01*
X91465350Y-78569819D02*
X91960588Y-78569819D01*
X92189160Y-77569819D02*
X92455827Y-78569819D01*
X92455827Y-78569819D02*
X92722493Y-77569819D01*
D10*
X67401390Y-65758646D02*
X67353771Y-65844360D01*
X67353771Y-65844360D02*
X67306152Y-65872931D01*
X67306152Y-65872931D02*
X67210914Y-65901503D01*
X67210914Y-65901503D02*
X67068057Y-65901503D01*
X67068057Y-65901503D02*
X66972819Y-65872931D01*
X66972819Y-65872931D02*
X66925200Y-65844360D01*
X66925200Y-65844360D02*
X66877580Y-65787217D01*
X66877580Y-65787217D02*
X66877580Y-65558646D01*
X66877580Y-65558646D02*
X67877580Y-65558646D01*
X67877580Y-65558646D02*
X67877580Y-65758646D01*
X67877580Y-65758646D02*
X67829961Y-65815789D01*
X67829961Y-65815789D02*
X67782342Y-65844360D01*
X67782342Y-65844360D02*
X67687104Y-65872931D01*
X67687104Y-65872931D02*
X67591866Y-65872931D01*
X67591866Y-65872931D02*
X67496628Y-65844360D01*
X67496628Y-65844360D02*
X67449009Y-65815789D01*
X67449009Y-65815789D02*
X67401390Y-65758646D01*
X67401390Y-65758646D02*
X67401390Y-65558646D01*
X114930074Y-66622419D02*
X114453884Y-66622419D01*
X114453884Y-66622419D02*
X114453884Y-65622419D01*
X115025313Y-66717657D02*
X115787217Y-66717657D01*
X115882456Y-65622419D02*
X116215789Y-66622419D01*
X116215789Y-66622419D02*
X116549122Y-65622419D01*
X117453884Y-66527180D02*
X117406265Y-66574800D01*
X117406265Y-66574800D02*
X117263408Y-66622419D01*
X117263408Y-66622419D02*
X117168170Y-66622419D01*
X117168170Y-66622419D02*
X117025313Y-66574800D01*
X117025313Y-66574800D02*
X116930075Y-66479561D01*
X116930075Y-66479561D02*
X116882456Y-66384323D01*
X116882456Y-66384323D02*
X116834837Y-66193847D01*
X116834837Y-66193847D02*
X116834837Y-66050990D01*
X116834837Y-66050990D02*
X116882456Y-65860514D01*
X116882456Y-65860514D02*
X116930075Y-65765276D01*
X116930075Y-65765276D02*
X117025313Y-65670038D01*
X117025313Y-65670038D02*
X117168170Y-65622419D01*
X117168170Y-65622419D02*
X117263408Y-65622419D01*
X117263408Y-65622419D02*
X117406265Y-65670038D01*
X117406265Y-65670038D02*
X117453884Y-65717657D01*
X118453884Y-66527180D02*
X118406265Y-66574800D01*
X118406265Y-66574800D02*
X118263408Y-66622419D01*
X118263408Y-66622419D02*
X118168170Y-66622419D01*
X118168170Y-66622419D02*
X118025313Y-66574800D01*
X118025313Y-66574800D02*
X117930075Y-66479561D01*
X117930075Y-66479561D02*
X117882456Y-66384323D01*
X117882456Y-66384323D02*
X117834837Y-66193847D01*
X117834837Y-66193847D02*
X117834837Y-66050990D01*
X117834837Y-66050990D02*
X117882456Y-65860514D01*
X117882456Y-65860514D02*
X117930075Y-65765276D01*
X117930075Y-65765276D02*
X118025313Y-65670038D01*
X118025313Y-65670038D02*
X118168170Y-65622419D01*
X118168170Y-65622419D02*
X118263408Y-65622419D01*
X118263408Y-65622419D02*
X118406265Y-65670038D01*
X118406265Y-65670038D02*
X118453884Y-65717657D01*
X83872931Y-74338609D02*
X83987217Y-74386228D01*
X83987217Y-74386228D02*
X84025312Y-74433847D01*
X84025312Y-74433847D02*
X84063408Y-74529085D01*
X84063408Y-74529085D02*
X84063408Y-74671942D01*
X84063408Y-74671942D02*
X84025312Y-74767180D01*
X84025312Y-74767180D02*
X83987217Y-74814800D01*
X83987217Y-74814800D02*
X83911027Y-74862419D01*
X83911027Y-74862419D02*
X83606265Y-74862419D01*
X83606265Y-74862419D02*
X83606265Y-73862419D01*
X83606265Y-73862419D02*
X83872931Y-73862419D01*
X83872931Y-73862419D02*
X83949122Y-73910038D01*
X83949122Y-73910038D02*
X83987217Y-73957657D01*
X83987217Y-73957657D02*
X84025312Y-74052895D01*
X84025312Y-74052895D02*
X84025312Y-74148133D01*
X84025312Y-74148133D02*
X83987217Y-74243371D01*
X83987217Y-74243371D02*
X83949122Y-74290990D01*
X83949122Y-74290990D02*
X83872931Y-74338609D01*
X83872931Y-74338609D02*
X83606265Y-74338609D01*
X112875312Y-84820038D02*
X112799122Y-84772419D01*
X112799122Y-84772419D02*
X112684836Y-84772419D01*
X112684836Y-84772419D02*
X112570550Y-84820038D01*
X112570550Y-84820038D02*
X112494360Y-84915276D01*
X112494360Y-84915276D02*
X112456265Y-85010514D01*
X112456265Y-85010514D02*
X112418169Y-85200990D01*
X112418169Y-85200990D02*
X112418169Y-85343847D01*
X112418169Y-85343847D02*
X112456265Y-85534323D01*
X112456265Y-85534323D02*
X112494360Y-85629561D01*
X112494360Y-85629561D02*
X112570550Y-85724800D01*
X112570550Y-85724800D02*
X112684836Y-85772419D01*
X112684836Y-85772419D02*
X112761027Y-85772419D01*
X112761027Y-85772419D02*
X112875312Y-85724800D01*
X112875312Y-85724800D02*
X112913408Y-85677180D01*
X112913408Y-85677180D02*
X112913408Y-85343847D01*
X112913408Y-85343847D02*
X112761027Y-85343847D01*
X113256265Y-85772419D02*
X113256265Y-84772419D01*
X113256265Y-84772419D02*
X113713408Y-85772419D01*
X113713408Y-85772419D02*
X113713408Y-84772419D01*
X114094360Y-85772419D02*
X114094360Y-84772419D01*
X114094360Y-84772419D02*
X114284836Y-84772419D01*
X114284836Y-84772419D02*
X114399122Y-84820038D01*
X114399122Y-84820038D02*
X114475312Y-84915276D01*
X114475312Y-84915276D02*
X114513407Y-85010514D01*
X114513407Y-85010514D02*
X114551503Y-85200990D01*
X114551503Y-85200990D02*
X114551503Y-85343847D01*
X114551503Y-85343847D02*
X114513407Y-85534323D01*
X114513407Y-85534323D02*
X114475312Y-85629561D01*
X114475312Y-85629561D02*
X114399122Y-85724800D01*
X114399122Y-85724800D02*
X114284836Y-85772419D01*
X114284836Y-85772419D02*
X114094360Y-85772419D01*
X195031466Y-105153734D02*
X195031466Y-104544211D01*
X195412419Y-104848972D02*
X194650514Y-104848972D01*
X195412419Y-103744211D02*
X195412419Y-104201354D01*
X195412419Y-103972782D02*
X194412419Y-103972782D01*
X194412419Y-103972782D02*
X194555276Y-104048973D01*
X194555276Y-104048973D02*
X194650514Y-104125163D01*
X194650514Y-104125163D02*
X194698133Y-104201354D01*
X194507657Y-103439449D02*
X194460038Y-103401353D01*
X194460038Y-103401353D02*
X194412419Y-103325163D01*
X194412419Y-103325163D02*
X194412419Y-103134687D01*
X194412419Y-103134687D02*
X194460038Y-103058496D01*
X194460038Y-103058496D02*
X194507657Y-103020401D01*
X194507657Y-103020401D02*
X194602895Y-102982306D01*
X194602895Y-102982306D02*
X194698133Y-102982306D01*
X194698133Y-102982306D02*
X194840990Y-103020401D01*
X194840990Y-103020401D02*
X195412419Y-103477544D01*
X195412419Y-103477544D02*
X195412419Y-102982306D01*
X194412419Y-102753734D02*
X195412419Y-102487067D01*
X195412419Y-102487067D02*
X194412419Y-102220401D01*
X76487217Y-55092587D02*
X76106265Y-55092587D01*
X76106265Y-55092587D02*
X76106265Y-54092587D01*
X76715788Y-55044968D02*
X76830074Y-55092587D01*
X76830074Y-55092587D02*
X77020550Y-55092587D01*
X77020550Y-55092587D02*
X77096741Y-55044968D01*
X77096741Y-55044968D02*
X77134836Y-54997348D01*
X77134836Y-54997348D02*
X77172931Y-54902110D01*
X77172931Y-54902110D02*
X77172931Y-54806872D01*
X77172931Y-54806872D02*
X77134836Y-54711634D01*
X77134836Y-54711634D02*
X77096741Y-54664015D01*
X77096741Y-54664015D02*
X77020550Y-54616396D01*
X77020550Y-54616396D02*
X76868169Y-54568777D01*
X76868169Y-54568777D02*
X76791979Y-54521158D01*
X76791979Y-54521158D02*
X76753884Y-54473539D01*
X76753884Y-54473539D02*
X76715788Y-54378301D01*
X76715788Y-54378301D02*
X76715788Y-54283063D01*
X76715788Y-54283063D02*
X76753884Y-54187825D01*
X76753884Y-54187825D02*
X76791979Y-54140206D01*
X76791979Y-54140206D02*
X76868169Y-54092587D01*
X76868169Y-54092587D02*
X77058646Y-54092587D01*
X77058646Y-54092587D02*
X77172931Y-54140206D01*
X78125313Y-54711634D02*
X78734837Y-54711634D01*
X80106265Y-55092587D02*
X79725313Y-55092587D01*
X79725313Y-55092587D02*
X79725313Y-54092587D01*
X80372932Y-55092587D02*
X80372932Y-54425920D01*
X80372932Y-54092587D02*
X80334836Y-54140206D01*
X80334836Y-54140206D02*
X80372932Y-54187825D01*
X80372932Y-54187825D02*
X80411027Y-54140206D01*
X80411027Y-54140206D02*
X80372932Y-54092587D01*
X80372932Y-54092587D02*
X80372932Y-54187825D01*
X81096741Y-54425920D02*
X81096741Y-55235444D01*
X81096741Y-55235444D02*
X81058646Y-55330682D01*
X81058646Y-55330682D02*
X81020550Y-55378301D01*
X81020550Y-55378301D02*
X80944360Y-55425920D01*
X80944360Y-55425920D02*
X80830074Y-55425920D01*
X80830074Y-55425920D02*
X80753884Y-55378301D01*
X81096741Y-55044968D02*
X81020550Y-55092587D01*
X81020550Y-55092587D02*
X80868169Y-55092587D01*
X80868169Y-55092587D02*
X80791979Y-55044968D01*
X80791979Y-55044968D02*
X80753884Y-54997348D01*
X80753884Y-54997348D02*
X80715788Y-54902110D01*
X80715788Y-54902110D02*
X80715788Y-54616396D01*
X80715788Y-54616396D02*
X80753884Y-54521158D01*
X80753884Y-54521158D02*
X80791979Y-54473539D01*
X80791979Y-54473539D02*
X80868169Y-54425920D01*
X80868169Y-54425920D02*
X81020550Y-54425920D01*
X81020550Y-54425920D02*
X81096741Y-54473539D01*
X81477694Y-55092587D02*
X81477694Y-54092587D01*
X81820551Y-55092587D02*
X81820551Y-54568777D01*
X81820551Y-54568777D02*
X81782456Y-54473539D01*
X81782456Y-54473539D02*
X81706265Y-54425920D01*
X81706265Y-54425920D02*
X81591979Y-54425920D01*
X81591979Y-54425920D02*
X81515789Y-54473539D01*
X81515789Y-54473539D02*
X81477694Y-54521158D01*
X82087218Y-54425920D02*
X82391980Y-54425920D01*
X82201504Y-54092587D02*
X82201504Y-54949729D01*
X82201504Y-54949729D02*
X82239599Y-55044968D01*
X82239599Y-55044968D02*
X82315789Y-55092587D01*
X82315789Y-55092587D02*
X82391980Y-55092587D01*
X83230075Y-55044968D02*
X83344361Y-55092587D01*
X83344361Y-55092587D02*
X83534837Y-55092587D01*
X83534837Y-55092587D02*
X83611028Y-55044968D01*
X83611028Y-55044968D02*
X83649123Y-54997348D01*
X83649123Y-54997348D02*
X83687218Y-54902110D01*
X83687218Y-54902110D02*
X83687218Y-54806872D01*
X83687218Y-54806872D02*
X83649123Y-54711634D01*
X83649123Y-54711634D02*
X83611028Y-54664015D01*
X83611028Y-54664015D02*
X83534837Y-54616396D01*
X83534837Y-54616396D02*
X83382456Y-54568777D01*
X83382456Y-54568777D02*
X83306266Y-54521158D01*
X83306266Y-54521158D02*
X83268171Y-54473539D01*
X83268171Y-54473539D02*
X83230075Y-54378301D01*
X83230075Y-54378301D02*
X83230075Y-54283063D01*
X83230075Y-54283063D02*
X83268171Y-54187825D01*
X83268171Y-54187825D02*
X83306266Y-54140206D01*
X83306266Y-54140206D02*
X83382456Y-54092587D01*
X83382456Y-54092587D02*
X83572933Y-54092587D01*
X83572933Y-54092587D02*
X83687218Y-54140206D01*
X84334838Y-55044968D02*
X84258647Y-55092587D01*
X84258647Y-55092587D02*
X84106266Y-55092587D01*
X84106266Y-55092587D02*
X84030076Y-55044968D01*
X84030076Y-55044968D02*
X83991980Y-54949729D01*
X83991980Y-54949729D02*
X83991980Y-54568777D01*
X83991980Y-54568777D02*
X84030076Y-54473539D01*
X84030076Y-54473539D02*
X84106266Y-54425920D01*
X84106266Y-54425920D02*
X84258647Y-54425920D01*
X84258647Y-54425920D02*
X84334838Y-54473539D01*
X84334838Y-54473539D02*
X84372933Y-54568777D01*
X84372933Y-54568777D02*
X84372933Y-54664015D01*
X84372933Y-54664015D02*
X83991980Y-54759253D01*
X84715790Y-54425920D02*
X84715790Y-55092587D01*
X84715790Y-54521158D02*
X84753885Y-54473539D01*
X84753885Y-54473539D02*
X84830075Y-54425920D01*
X84830075Y-54425920D02*
X84944361Y-54425920D01*
X84944361Y-54425920D02*
X85020552Y-54473539D01*
X85020552Y-54473539D02*
X85058647Y-54568777D01*
X85058647Y-54568777D02*
X85058647Y-55092587D01*
X85401504Y-55044968D02*
X85477695Y-55092587D01*
X85477695Y-55092587D02*
X85630076Y-55092587D01*
X85630076Y-55092587D02*
X85706266Y-55044968D01*
X85706266Y-55044968D02*
X85744362Y-54949729D01*
X85744362Y-54949729D02*
X85744362Y-54902110D01*
X85744362Y-54902110D02*
X85706266Y-54806872D01*
X85706266Y-54806872D02*
X85630076Y-54759253D01*
X85630076Y-54759253D02*
X85515790Y-54759253D01*
X85515790Y-54759253D02*
X85439600Y-54711634D01*
X85439600Y-54711634D02*
X85401504Y-54616396D01*
X85401504Y-54616396D02*
X85401504Y-54568777D01*
X85401504Y-54568777D02*
X85439600Y-54473539D01*
X85439600Y-54473539D02*
X85515790Y-54425920D01*
X85515790Y-54425920D02*
X85630076Y-54425920D01*
X85630076Y-54425920D02*
X85706266Y-54473539D01*
X86201504Y-55092587D02*
X86125314Y-55044968D01*
X86125314Y-55044968D02*
X86087219Y-54997348D01*
X86087219Y-54997348D02*
X86049123Y-54902110D01*
X86049123Y-54902110D02*
X86049123Y-54616396D01*
X86049123Y-54616396D02*
X86087219Y-54521158D01*
X86087219Y-54521158D02*
X86125314Y-54473539D01*
X86125314Y-54473539D02*
X86201504Y-54425920D01*
X86201504Y-54425920D02*
X86315790Y-54425920D01*
X86315790Y-54425920D02*
X86391981Y-54473539D01*
X86391981Y-54473539D02*
X86430076Y-54521158D01*
X86430076Y-54521158D02*
X86468171Y-54616396D01*
X86468171Y-54616396D02*
X86468171Y-54902110D01*
X86468171Y-54902110D02*
X86430076Y-54997348D01*
X86430076Y-54997348D02*
X86391981Y-55044968D01*
X86391981Y-55044968D02*
X86315790Y-55092587D01*
X86315790Y-55092587D02*
X86201504Y-55092587D01*
X86811029Y-55092587D02*
X86811029Y-54425920D01*
X86811029Y-54616396D02*
X86849124Y-54521158D01*
X86849124Y-54521158D02*
X86887219Y-54473539D01*
X86887219Y-54473539D02*
X86963410Y-54425920D01*
X86963410Y-54425920D02*
X87039600Y-54425920D01*
X76106265Y-56702531D02*
X76106265Y-55702531D01*
X76106265Y-55702531D02*
X76372931Y-56416816D01*
X76372931Y-56416816D02*
X76639598Y-55702531D01*
X76639598Y-55702531D02*
X76639598Y-56702531D01*
X76982455Y-56654912D02*
X77096741Y-56702531D01*
X77096741Y-56702531D02*
X77287217Y-56702531D01*
X77287217Y-56702531D02*
X77363408Y-56654912D01*
X77363408Y-56654912D02*
X77401503Y-56607292D01*
X77401503Y-56607292D02*
X77439598Y-56512054D01*
X77439598Y-56512054D02*
X77439598Y-56416816D01*
X77439598Y-56416816D02*
X77401503Y-56321578D01*
X77401503Y-56321578D02*
X77363408Y-56273959D01*
X77363408Y-56273959D02*
X77287217Y-56226340D01*
X77287217Y-56226340D02*
X77134836Y-56178721D01*
X77134836Y-56178721D02*
X77058646Y-56131102D01*
X77058646Y-56131102D02*
X77020551Y-56083483D01*
X77020551Y-56083483D02*
X76982455Y-55988245D01*
X76982455Y-55988245D02*
X76982455Y-55893007D01*
X76982455Y-55893007D02*
X77020551Y-55797769D01*
X77020551Y-55797769D02*
X77058646Y-55750150D01*
X77058646Y-55750150D02*
X77134836Y-55702531D01*
X77134836Y-55702531D02*
X77325313Y-55702531D01*
X77325313Y-55702531D02*
X77439598Y-55750150D01*
X78391980Y-56321578D02*
X79001504Y-56321578D01*
X79991980Y-56702531D02*
X79991980Y-55702531D01*
X79991980Y-55702531D02*
X80258646Y-56416816D01*
X80258646Y-56416816D02*
X80525313Y-55702531D01*
X80525313Y-55702531D02*
X80525313Y-56702531D01*
X81020551Y-56702531D02*
X80944361Y-56654912D01*
X80944361Y-56654912D02*
X80906266Y-56607292D01*
X80906266Y-56607292D02*
X80868170Y-56512054D01*
X80868170Y-56512054D02*
X80868170Y-56226340D01*
X80868170Y-56226340D02*
X80906266Y-56131102D01*
X80906266Y-56131102D02*
X80944361Y-56083483D01*
X80944361Y-56083483D02*
X81020551Y-56035864D01*
X81020551Y-56035864D02*
X81134837Y-56035864D01*
X81134837Y-56035864D02*
X81211028Y-56083483D01*
X81211028Y-56083483D02*
X81249123Y-56131102D01*
X81249123Y-56131102D02*
X81287218Y-56226340D01*
X81287218Y-56226340D02*
X81287218Y-56512054D01*
X81287218Y-56512054D02*
X81249123Y-56607292D01*
X81249123Y-56607292D02*
X81211028Y-56654912D01*
X81211028Y-56654912D02*
X81134837Y-56702531D01*
X81134837Y-56702531D02*
X81020551Y-56702531D01*
X81630076Y-56702531D02*
X81630076Y-56035864D01*
X81630076Y-55702531D02*
X81591980Y-55750150D01*
X81591980Y-55750150D02*
X81630076Y-55797769D01*
X81630076Y-55797769D02*
X81668171Y-55750150D01*
X81668171Y-55750150D02*
X81630076Y-55702531D01*
X81630076Y-55702531D02*
X81630076Y-55797769D01*
X81972932Y-56654912D02*
X82049123Y-56702531D01*
X82049123Y-56702531D02*
X82201504Y-56702531D01*
X82201504Y-56702531D02*
X82277694Y-56654912D01*
X82277694Y-56654912D02*
X82315790Y-56559673D01*
X82315790Y-56559673D02*
X82315790Y-56512054D01*
X82315790Y-56512054D02*
X82277694Y-56416816D01*
X82277694Y-56416816D02*
X82201504Y-56369197D01*
X82201504Y-56369197D02*
X82087218Y-56369197D01*
X82087218Y-56369197D02*
X82011028Y-56321578D01*
X82011028Y-56321578D02*
X81972932Y-56226340D01*
X81972932Y-56226340D02*
X81972932Y-56178721D01*
X81972932Y-56178721D02*
X82011028Y-56083483D01*
X82011028Y-56083483D02*
X82087218Y-56035864D01*
X82087218Y-56035864D02*
X82201504Y-56035864D01*
X82201504Y-56035864D02*
X82277694Y-56083483D01*
X82544361Y-56035864D02*
X82849123Y-56035864D01*
X82658647Y-55702531D02*
X82658647Y-56559673D01*
X82658647Y-56559673D02*
X82696742Y-56654912D01*
X82696742Y-56654912D02*
X82772932Y-56702531D01*
X82772932Y-56702531D02*
X82849123Y-56702531D01*
X83458647Y-56035864D02*
X83458647Y-56702531D01*
X83115790Y-56035864D02*
X83115790Y-56559673D01*
X83115790Y-56559673D02*
X83153885Y-56654912D01*
X83153885Y-56654912D02*
X83230075Y-56702531D01*
X83230075Y-56702531D02*
X83344361Y-56702531D01*
X83344361Y-56702531D02*
X83420552Y-56654912D01*
X83420552Y-56654912D02*
X83458647Y-56607292D01*
X83839600Y-56702531D02*
X83839600Y-56035864D01*
X83839600Y-56226340D02*
X83877695Y-56131102D01*
X83877695Y-56131102D02*
X83915790Y-56083483D01*
X83915790Y-56083483D02*
X83991981Y-56035864D01*
X83991981Y-56035864D02*
X84068171Y-56035864D01*
X84639600Y-56654912D02*
X84563409Y-56702531D01*
X84563409Y-56702531D02*
X84411028Y-56702531D01*
X84411028Y-56702531D02*
X84334838Y-56654912D01*
X84334838Y-56654912D02*
X84296742Y-56559673D01*
X84296742Y-56559673D02*
X84296742Y-56178721D01*
X84296742Y-56178721D02*
X84334838Y-56083483D01*
X84334838Y-56083483D02*
X84411028Y-56035864D01*
X84411028Y-56035864D02*
X84563409Y-56035864D01*
X84563409Y-56035864D02*
X84639600Y-56083483D01*
X84639600Y-56083483D02*
X84677695Y-56178721D01*
X84677695Y-56178721D02*
X84677695Y-56273959D01*
X84677695Y-56273959D02*
X84296742Y-56369197D01*
X85591980Y-56654912D02*
X85706266Y-56702531D01*
X85706266Y-56702531D02*
X85896742Y-56702531D01*
X85896742Y-56702531D02*
X85972933Y-56654912D01*
X85972933Y-56654912D02*
X86011028Y-56607292D01*
X86011028Y-56607292D02*
X86049123Y-56512054D01*
X86049123Y-56512054D02*
X86049123Y-56416816D01*
X86049123Y-56416816D02*
X86011028Y-56321578D01*
X86011028Y-56321578D02*
X85972933Y-56273959D01*
X85972933Y-56273959D02*
X85896742Y-56226340D01*
X85896742Y-56226340D02*
X85744361Y-56178721D01*
X85744361Y-56178721D02*
X85668171Y-56131102D01*
X85668171Y-56131102D02*
X85630076Y-56083483D01*
X85630076Y-56083483D02*
X85591980Y-55988245D01*
X85591980Y-55988245D02*
X85591980Y-55893007D01*
X85591980Y-55893007D02*
X85630076Y-55797769D01*
X85630076Y-55797769D02*
X85668171Y-55750150D01*
X85668171Y-55750150D02*
X85744361Y-55702531D01*
X85744361Y-55702531D02*
X85934838Y-55702531D01*
X85934838Y-55702531D02*
X86049123Y-55750150D01*
X86696743Y-56654912D02*
X86620552Y-56702531D01*
X86620552Y-56702531D02*
X86468171Y-56702531D01*
X86468171Y-56702531D02*
X86391981Y-56654912D01*
X86391981Y-56654912D02*
X86353885Y-56559673D01*
X86353885Y-56559673D02*
X86353885Y-56178721D01*
X86353885Y-56178721D02*
X86391981Y-56083483D01*
X86391981Y-56083483D02*
X86468171Y-56035864D01*
X86468171Y-56035864D02*
X86620552Y-56035864D01*
X86620552Y-56035864D02*
X86696743Y-56083483D01*
X86696743Y-56083483D02*
X86734838Y-56178721D01*
X86734838Y-56178721D02*
X86734838Y-56273959D01*
X86734838Y-56273959D02*
X86353885Y-56369197D01*
X87077695Y-56035864D02*
X87077695Y-56702531D01*
X87077695Y-56131102D02*
X87115790Y-56083483D01*
X87115790Y-56083483D02*
X87191980Y-56035864D01*
X87191980Y-56035864D02*
X87306266Y-56035864D01*
X87306266Y-56035864D02*
X87382457Y-56083483D01*
X87382457Y-56083483D02*
X87420552Y-56178721D01*
X87420552Y-56178721D02*
X87420552Y-56702531D01*
X87763409Y-56654912D02*
X87839600Y-56702531D01*
X87839600Y-56702531D02*
X87991981Y-56702531D01*
X87991981Y-56702531D02*
X88068171Y-56654912D01*
X88068171Y-56654912D02*
X88106267Y-56559673D01*
X88106267Y-56559673D02*
X88106267Y-56512054D01*
X88106267Y-56512054D02*
X88068171Y-56416816D01*
X88068171Y-56416816D02*
X87991981Y-56369197D01*
X87991981Y-56369197D02*
X87877695Y-56369197D01*
X87877695Y-56369197D02*
X87801505Y-56321578D01*
X87801505Y-56321578D02*
X87763409Y-56226340D01*
X87763409Y-56226340D02*
X87763409Y-56178721D01*
X87763409Y-56178721D02*
X87801505Y-56083483D01*
X87801505Y-56083483D02*
X87877695Y-56035864D01*
X87877695Y-56035864D02*
X87991981Y-56035864D01*
X87991981Y-56035864D02*
X88068171Y-56083483D01*
X88563409Y-56702531D02*
X88487219Y-56654912D01*
X88487219Y-56654912D02*
X88449124Y-56607292D01*
X88449124Y-56607292D02*
X88411028Y-56512054D01*
X88411028Y-56512054D02*
X88411028Y-56226340D01*
X88411028Y-56226340D02*
X88449124Y-56131102D01*
X88449124Y-56131102D02*
X88487219Y-56083483D01*
X88487219Y-56083483D02*
X88563409Y-56035864D01*
X88563409Y-56035864D02*
X88677695Y-56035864D01*
X88677695Y-56035864D02*
X88753886Y-56083483D01*
X88753886Y-56083483D02*
X88791981Y-56131102D01*
X88791981Y-56131102D02*
X88830076Y-56226340D01*
X88830076Y-56226340D02*
X88830076Y-56512054D01*
X88830076Y-56512054D02*
X88791981Y-56607292D01*
X88791981Y-56607292D02*
X88753886Y-56654912D01*
X88753886Y-56654912D02*
X88677695Y-56702531D01*
X88677695Y-56702531D02*
X88563409Y-56702531D01*
X89172934Y-56702531D02*
X89172934Y-56035864D01*
X89172934Y-56226340D02*
X89211029Y-56131102D01*
X89211029Y-56131102D02*
X89249124Y-56083483D01*
X89249124Y-56083483D02*
X89325315Y-56035864D01*
X89325315Y-56035864D02*
X89401505Y-56035864D01*
X76068169Y-58026760D02*
X76449122Y-58026760D01*
X75991979Y-58312475D02*
X76258646Y-57312475D01*
X76258646Y-57312475D02*
X76525312Y-58312475D01*
X76791979Y-58312475D02*
X76791979Y-57312475D01*
X76791979Y-57312475D02*
X76982455Y-57312475D01*
X76982455Y-57312475D02*
X77096741Y-57360094D01*
X77096741Y-57360094D02*
X77172931Y-57455332D01*
X77172931Y-57455332D02*
X77211026Y-57550570D01*
X77211026Y-57550570D02*
X77249122Y-57741046D01*
X77249122Y-57741046D02*
X77249122Y-57883903D01*
X77249122Y-57883903D02*
X77211026Y-58074379D01*
X77211026Y-58074379D02*
X77172931Y-58169617D01*
X77172931Y-58169617D02*
X77096741Y-58264856D01*
X77096741Y-58264856D02*
X76982455Y-58312475D01*
X76982455Y-58312475D02*
X76791979Y-58312475D01*
X78201503Y-57931522D02*
X78811027Y-57931522D01*
X79763407Y-58026760D02*
X80144360Y-58026760D01*
X79687217Y-58312475D02*
X79953884Y-57312475D01*
X79953884Y-57312475D02*
X80220550Y-58312475D01*
X80487217Y-58312475D02*
X80487217Y-57312475D01*
X80487217Y-57312475D02*
X80677693Y-57312475D01*
X80677693Y-57312475D02*
X80791979Y-57360094D01*
X80791979Y-57360094D02*
X80868169Y-57455332D01*
X80868169Y-57455332D02*
X80906264Y-57550570D01*
X80906264Y-57550570D02*
X80944360Y-57741046D01*
X80944360Y-57741046D02*
X80944360Y-57883903D01*
X80944360Y-57883903D02*
X80906264Y-58074379D01*
X80906264Y-58074379D02*
X80868169Y-58169617D01*
X80868169Y-58169617D02*
X80791979Y-58264856D01*
X80791979Y-58264856D02*
X80677693Y-58312475D01*
X80677693Y-58312475D02*
X80487217Y-58312475D01*
X81744360Y-58217236D02*
X81706264Y-58264856D01*
X81706264Y-58264856D02*
X81591979Y-58312475D01*
X81591979Y-58312475D02*
X81515788Y-58312475D01*
X81515788Y-58312475D02*
X81401502Y-58264856D01*
X81401502Y-58264856D02*
X81325312Y-58169617D01*
X81325312Y-58169617D02*
X81287217Y-58074379D01*
X81287217Y-58074379D02*
X81249121Y-57883903D01*
X81249121Y-57883903D02*
X81249121Y-57741046D01*
X81249121Y-57741046D02*
X81287217Y-57550570D01*
X81287217Y-57550570D02*
X81325312Y-57455332D01*
X81325312Y-57455332D02*
X81401502Y-57360094D01*
X81401502Y-57360094D02*
X81515788Y-57312475D01*
X81515788Y-57312475D02*
X81591979Y-57312475D01*
X81591979Y-57312475D02*
X81706264Y-57360094D01*
X81706264Y-57360094D02*
X81744360Y-57407713D01*
X76487217Y-59922419D02*
X76106265Y-59922419D01*
X76106265Y-59922419D02*
X76106265Y-58922419D01*
X76563408Y-60017657D02*
X77172931Y-60017657D01*
X77972932Y-59541466D02*
X78582456Y-59541466D01*
X79953884Y-59922419D02*
X79572932Y-59922419D01*
X79572932Y-59922419D02*
X79572932Y-58922419D01*
X80563408Y-59922419D02*
X80563408Y-59398609D01*
X80563408Y-59398609D02*
X80525313Y-59303371D01*
X80525313Y-59303371D02*
X80449122Y-59255752D01*
X80449122Y-59255752D02*
X80296741Y-59255752D01*
X80296741Y-59255752D02*
X80220551Y-59303371D01*
X80563408Y-59874800D02*
X80487217Y-59922419D01*
X80487217Y-59922419D02*
X80296741Y-59922419D01*
X80296741Y-59922419D02*
X80220551Y-59874800D01*
X80220551Y-59874800D02*
X80182455Y-59779561D01*
X80182455Y-59779561D02*
X80182455Y-59684323D01*
X80182455Y-59684323D02*
X80220551Y-59589085D01*
X80220551Y-59589085D02*
X80296741Y-59541466D01*
X80296741Y-59541466D02*
X80487217Y-59541466D01*
X80487217Y-59541466D02*
X80563408Y-59493847D01*
X80944361Y-59922419D02*
X80944361Y-59255752D01*
X80944361Y-59350990D02*
X80982456Y-59303371D01*
X80982456Y-59303371D02*
X81058646Y-59255752D01*
X81058646Y-59255752D02*
X81172932Y-59255752D01*
X81172932Y-59255752D02*
X81249123Y-59303371D01*
X81249123Y-59303371D02*
X81287218Y-59398609D01*
X81287218Y-59398609D02*
X81287218Y-59922419D01*
X81287218Y-59398609D02*
X81325313Y-59303371D01*
X81325313Y-59303371D02*
X81401504Y-59255752D01*
X81401504Y-59255752D02*
X81515789Y-59255752D01*
X81515789Y-59255752D02*
X81591980Y-59303371D01*
X81591980Y-59303371D02*
X81630075Y-59398609D01*
X81630075Y-59398609D02*
X81630075Y-59922419D01*
X82011028Y-59255752D02*
X82011028Y-60255752D01*
X82011028Y-59303371D02*
X82087218Y-59255752D01*
X82087218Y-59255752D02*
X82239599Y-59255752D01*
X82239599Y-59255752D02*
X82315790Y-59303371D01*
X82315790Y-59303371D02*
X82353885Y-59350990D01*
X82353885Y-59350990D02*
X82391980Y-59446228D01*
X82391980Y-59446228D02*
X82391980Y-59731942D01*
X82391980Y-59731942D02*
X82353885Y-59827180D01*
X82353885Y-59827180D02*
X82315790Y-59874800D01*
X82315790Y-59874800D02*
X82239599Y-59922419D01*
X82239599Y-59922419D02*
X82087218Y-59922419D01*
X82087218Y-59922419D02*
X82011028Y-59874800D01*
D13*
X66229660Y-74108771D02*
X67229660Y-74108771D01*
X67229660Y-74108771D02*
X66229660Y-74508771D01*
X66229660Y-74508771D02*
X67229660Y-74508771D01*
X66229660Y-74842104D02*
X67229660Y-74842104D01*
X67229660Y-74842104D02*
X67229660Y-75108771D01*
X67229660Y-75108771D02*
X67182041Y-75175438D01*
X67182041Y-75175438D02*
X67134422Y-75208771D01*
X67134422Y-75208771D02*
X67039184Y-75242104D01*
X67039184Y-75242104D02*
X66896327Y-75242104D01*
X66896327Y-75242104D02*
X66801089Y-75208771D01*
X66801089Y-75208771D02*
X66753470Y-75175438D01*
X66753470Y-75175438D02*
X66705851Y-75108771D01*
X66705851Y-75108771D02*
X66705851Y-74842104D01*
X66229660Y-75542104D02*
X67229660Y-75542104D01*
X66229660Y-75942104D02*
X66801089Y-75642104D01*
X67229660Y-75942104D02*
X66658232Y-75542104D01*
X67229660Y-76675437D02*
X66229660Y-76908771D01*
X66229660Y-76908771D02*
X67229660Y-77142104D01*
X66324899Y-77775437D02*
X66277280Y-77742104D01*
X66277280Y-77742104D02*
X66229660Y-77642104D01*
X66229660Y-77642104D02*
X66229660Y-77575437D01*
X66229660Y-77575437D02*
X66277280Y-77475437D01*
X66277280Y-77475437D02*
X66372518Y-77408771D01*
X66372518Y-77408771D02*
X66467756Y-77375437D01*
X66467756Y-77375437D02*
X66658232Y-77342104D01*
X66658232Y-77342104D02*
X66801089Y-77342104D01*
X66801089Y-77342104D02*
X66991565Y-77375437D01*
X66991565Y-77375437D02*
X67086803Y-77408771D01*
X67086803Y-77408771D02*
X67182041Y-77475437D01*
X67182041Y-77475437D02*
X67229660Y-77575437D01*
X67229660Y-77575437D02*
X67229660Y-77642104D01*
X67229660Y-77642104D02*
X67182041Y-77742104D01*
X67182041Y-77742104D02*
X67134422Y-77775437D01*
X66324899Y-78475437D02*
X66277280Y-78442104D01*
X66277280Y-78442104D02*
X66229660Y-78342104D01*
X66229660Y-78342104D02*
X66229660Y-78275437D01*
X66229660Y-78275437D02*
X66277280Y-78175437D01*
X66277280Y-78175437D02*
X66372518Y-78108771D01*
X66372518Y-78108771D02*
X66467756Y-78075437D01*
X66467756Y-78075437D02*
X66658232Y-78042104D01*
X66658232Y-78042104D02*
X66801089Y-78042104D01*
X66801089Y-78042104D02*
X66991565Y-78075437D01*
X66991565Y-78075437D02*
X67086803Y-78108771D01*
X67086803Y-78108771D02*
X67182041Y-78175437D01*
X67182041Y-78175437D02*
X67229660Y-78275437D01*
X67229660Y-78275437D02*
X67229660Y-78342104D01*
X67229660Y-78342104D02*
X67182041Y-78442104D01*
X67182041Y-78442104D02*
X67134422Y-78475437D01*
D10*
X198946265Y-110331466D02*
X199555789Y-110331466D01*
X199251027Y-110712419D02*
X199251027Y-109950514D01*
X200317693Y-109712419D02*
X199936741Y-109712419D01*
X199936741Y-109712419D02*
X199898645Y-110188609D01*
X199898645Y-110188609D02*
X199936741Y-110140990D01*
X199936741Y-110140990D02*
X200012931Y-110093371D01*
X200012931Y-110093371D02*
X200203407Y-110093371D01*
X200203407Y-110093371D02*
X200279598Y-110140990D01*
X200279598Y-110140990D02*
X200317693Y-110188609D01*
X200317693Y-110188609D02*
X200355788Y-110283847D01*
X200355788Y-110283847D02*
X200355788Y-110521942D01*
X200355788Y-110521942D02*
X200317693Y-110617180D01*
X200317693Y-110617180D02*
X200279598Y-110664800D01*
X200279598Y-110664800D02*
X200203407Y-110712419D01*
X200203407Y-110712419D02*
X200012931Y-110712419D01*
X200012931Y-110712419D02*
X199936741Y-110664800D01*
X199936741Y-110664800D02*
X199898645Y-110617180D01*
X200584360Y-109712419D02*
X200851027Y-110712419D01*
X200851027Y-110712419D02*
X201117693Y-109712419D01*
X205807419Y-79444285D02*
X204807419Y-79444285D01*
X204807419Y-79444285D02*
X205807419Y-78987142D01*
X205807419Y-78987142D02*
X204807419Y-78987142D01*
X205712180Y-78149047D02*
X205759800Y-78187143D01*
X205759800Y-78187143D02*
X205807419Y-78301428D01*
X205807419Y-78301428D02*
X205807419Y-78377619D01*
X205807419Y-78377619D02*
X205759800Y-78491905D01*
X205759800Y-78491905D02*
X205664561Y-78568095D01*
X205664561Y-78568095D02*
X205569323Y-78606190D01*
X205569323Y-78606190D02*
X205378847Y-78644286D01*
X205378847Y-78644286D02*
X205235990Y-78644286D01*
X205235990Y-78644286D02*
X205045514Y-78606190D01*
X205045514Y-78606190D02*
X204950276Y-78568095D01*
X204950276Y-78568095D02*
X204855038Y-78491905D01*
X204855038Y-78491905D02*
X204807419Y-78377619D01*
X204807419Y-78377619D02*
X204807419Y-78301428D01*
X204807419Y-78301428D02*
X204855038Y-78187143D01*
X204855038Y-78187143D02*
X204902657Y-78149047D01*
X205712180Y-76739523D02*
X205759800Y-76777619D01*
X205759800Y-76777619D02*
X205807419Y-76891904D01*
X205807419Y-76891904D02*
X205807419Y-76968095D01*
X205807419Y-76968095D02*
X205759800Y-77082381D01*
X205759800Y-77082381D02*
X205664561Y-77158571D01*
X205664561Y-77158571D02*
X205569323Y-77196666D01*
X205569323Y-77196666D02*
X205378847Y-77234762D01*
X205378847Y-77234762D02*
X205235990Y-77234762D01*
X205235990Y-77234762D02*
X205045514Y-77196666D01*
X205045514Y-77196666D02*
X204950276Y-77158571D01*
X204950276Y-77158571D02*
X204855038Y-77082381D01*
X204855038Y-77082381D02*
X204807419Y-76968095D01*
X204807419Y-76968095D02*
X204807419Y-76891904D01*
X204807419Y-76891904D02*
X204855038Y-76777619D01*
X204855038Y-76777619D02*
X204902657Y-76739523D01*
X204807419Y-76244285D02*
X204807419Y-76091904D01*
X204807419Y-76091904D02*
X204855038Y-76015714D01*
X204855038Y-76015714D02*
X204950276Y-75939523D01*
X204950276Y-75939523D02*
X205140752Y-75901428D01*
X205140752Y-75901428D02*
X205474085Y-75901428D01*
X205474085Y-75901428D02*
X205664561Y-75939523D01*
X205664561Y-75939523D02*
X205759800Y-76015714D01*
X205759800Y-76015714D02*
X205807419Y-76091904D01*
X205807419Y-76091904D02*
X205807419Y-76244285D01*
X205807419Y-76244285D02*
X205759800Y-76320476D01*
X205759800Y-76320476D02*
X205664561Y-76396666D01*
X205664561Y-76396666D02*
X205474085Y-76434762D01*
X205474085Y-76434762D02*
X205140752Y-76434762D01*
X205140752Y-76434762D02*
X204950276Y-76396666D01*
X204950276Y-76396666D02*
X204855038Y-76320476D01*
X204855038Y-76320476D02*
X204807419Y-76244285D01*
X205807419Y-75558571D02*
X204807419Y-75558571D01*
X204807419Y-75558571D02*
X205521704Y-75291905D01*
X205521704Y-75291905D02*
X204807419Y-75025238D01*
X204807419Y-75025238D02*
X205807419Y-75025238D01*
X205426466Y-74034761D02*
X205426466Y-73425238D01*
X205807419Y-73729999D02*
X205045514Y-73729999D01*
X205807419Y-72625238D02*
X205807419Y-73082381D01*
X205807419Y-72853809D02*
X204807419Y-72853809D01*
X204807419Y-72853809D02*
X204950276Y-72930000D01*
X204950276Y-72930000D02*
X205045514Y-73006190D01*
X205045514Y-73006190D02*
X205093133Y-73082381D01*
X204902657Y-72320476D02*
X204855038Y-72282380D01*
X204855038Y-72282380D02*
X204807419Y-72206190D01*
X204807419Y-72206190D02*
X204807419Y-72015714D01*
X204807419Y-72015714D02*
X204855038Y-71939523D01*
X204855038Y-71939523D02*
X204902657Y-71901428D01*
X204902657Y-71901428D02*
X204997895Y-71863333D01*
X204997895Y-71863333D02*
X205093133Y-71863333D01*
X205093133Y-71863333D02*
X205235990Y-71901428D01*
X205235990Y-71901428D02*
X205807419Y-72358571D01*
X205807419Y-72358571D02*
X205807419Y-71863333D01*
X204807419Y-71634761D02*
X205807419Y-71368094D01*
X205807419Y-71368094D02*
X204807419Y-71101428D01*
X95585074Y-112072419D02*
X95108884Y-112072419D01*
X95108884Y-112072419D02*
X95061265Y-112548609D01*
X95061265Y-112548609D02*
X95108884Y-112500990D01*
X95108884Y-112500990D02*
X95204122Y-112453371D01*
X95204122Y-112453371D02*
X95442217Y-112453371D01*
X95442217Y-112453371D02*
X95537455Y-112500990D01*
X95537455Y-112500990D02*
X95585074Y-112548609D01*
X95585074Y-112548609D02*
X95632693Y-112643847D01*
X95632693Y-112643847D02*
X95632693Y-112881942D01*
X95632693Y-112881942D02*
X95585074Y-112977180D01*
X95585074Y-112977180D02*
X95537455Y-113024800D01*
X95537455Y-113024800D02*
X95442217Y-113072419D01*
X95442217Y-113072419D02*
X95204122Y-113072419D01*
X95204122Y-113072419D02*
X95108884Y-113024800D01*
X95108884Y-113024800D02*
X95061265Y-112977180D01*
X95918408Y-112072419D02*
X96251741Y-113072419D01*
X96251741Y-113072419D02*
X96585074Y-112072419D01*
X98251741Y-113072419D02*
X97918408Y-112596228D01*
X97680313Y-113072419D02*
X97680313Y-112072419D01*
X97680313Y-112072419D02*
X98061265Y-112072419D01*
X98061265Y-112072419D02*
X98156503Y-112120038D01*
X98156503Y-112120038D02*
X98204122Y-112167657D01*
X98204122Y-112167657D02*
X98251741Y-112262895D01*
X98251741Y-112262895D02*
X98251741Y-112405752D01*
X98251741Y-112405752D02*
X98204122Y-112500990D01*
X98204122Y-112500990D02*
X98156503Y-112548609D01*
X98156503Y-112548609D02*
X98061265Y-112596228D01*
X98061265Y-112596228D02*
X97680313Y-112596228D01*
X99061265Y-113024800D02*
X98966027Y-113072419D01*
X98966027Y-113072419D02*
X98775551Y-113072419D01*
X98775551Y-113072419D02*
X98680313Y-113024800D01*
X98680313Y-113024800D02*
X98632694Y-112929561D01*
X98632694Y-112929561D02*
X98632694Y-112548609D01*
X98632694Y-112548609D02*
X98680313Y-112453371D01*
X98680313Y-112453371D02*
X98775551Y-112405752D01*
X98775551Y-112405752D02*
X98966027Y-112405752D01*
X98966027Y-112405752D02*
X99061265Y-112453371D01*
X99061265Y-112453371D02*
X99108884Y-112548609D01*
X99108884Y-112548609D02*
X99108884Y-112643847D01*
X99108884Y-112643847D02*
X98632694Y-112739085D01*
X99680313Y-113072419D02*
X99585075Y-113024800D01*
X99585075Y-113024800D02*
X99537456Y-112929561D01*
X99537456Y-112929561D02*
X99537456Y-112072419D01*
X100489837Y-113072419D02*
X100489837Y-112548609D01*
X100489837Y-112548609D02*
X100442218Y-112453371D01*
X100442218Y-112453371D02*
X100346980Y-112405752D01*
X100346980Y-112405752D02*
X100156504Y-112405752D01*
X100156504Y-112405752D02*
X100061266Y-112453371D01*
X100489837Y-113024800D02*
X100394599Y-113072419D01*
X100394599Y-113072419D02*
X100156504Y-113072419D01*
X100156504Y-113072419D02*
X100061266Y-113024800D01*
X100061266Y-113024800D02*
X100013647Y-112929561D01*
X100013647Y-112929561D02*
X100013647Y-112834323D01*
X100013647Y-112834323D02*
X100061266Y-112739085D01*
X100061266Y-112739085D02*
X100156504Y-112691466D01*
X100156504Y-112691466D02*
X100394599Y-112691466D01*
X100394599Y-112691466D02*
X100489837Y-112643847D01*
X100870790Y-112405752D02*
X101108885Y-113072419D01*
X101346980Y-112405752D02*
X101108885Y-113072419D01*
X101108885Y-113072419D02*
X101013647Y-113310514D01*
X101013647Y-113310514D02*
X100966028Y-113358133D01*
X100966028Y-113358133D02*
X100870790Y-113405752D01*
X102489838Y-112691466D02*
X103251743Y-112691466D01*
X104823171Y-112548609D02*
X104489838Y-112548609D01*
X104489838Y-113072419D02*
X104489838Y-112072419D01*
X104489838Y-112072419D02*
X104966028Y-112072419D01*
X105727933Y-113024800D02*
X105632695Y-113072419D01*
X105632695Y-113072419D02*
X105442219Y-113072419D01*
X105442219Y-113072419D02*
X105346981Y-113024800D01*
X105346981Y-113024800D02*
X105299362Y-112929561D01*
X105299362Y-112929561D02*
X105299362Y-112548609D01*
X105299362Y-112548609D02*
X105346981Y-112453371D01*
X105346981Y-112453371D02*
X105442219Y-112405752D01*
X105442219Y-112405752D02*
X105632695Y-112405752D01*
X105632695Y-112405752D02*
X105727933Y-112453371D01*
X105727933Y-112453371D02*
X105775552Y-112548609D01*
X105775552Y-112548609D02*
X105775552Y-112643847D01*
X105775552Y-112643847D02*
X105299362Y-112739085D01*
X106204124Y-113072419D02*
X106204124Y-112405752D01*
X106204124Y-112596228D02*
X106251743Y-112500990D01*
X106251743Y-112500990D02*
X106299362Y-112453371D01*
X106299362Y-112453371D02*
X106394600Y-112405752D01*
X106394600Y-112405752D02*
X106489838Y-112405752D01*
X106680315Y-112405752D02*
X107061267Y-112405752D01*
X106823172Y-112072419D02*
X106823172Y-112929561D01*
X106823172Y-112929561D02*
X106870791Y-113024800D01*
X106870791Y-113024800D02*
X106966029Y-113072419D01*
X106966029Y-113072419D02*
X107061267Y-113072419D01*
X107394601Y-113072419D02*
X107394601Y-112405752D01*
X107394601Y-112072419D02*
X107346982Y-112120038D01*
X107346982Y-112120038D02*
X107394601Y-112167657D01*
X107394601Y-112167657D02*
X107442220Y-112120038D01*
X107442220Y-112120038D02*
X107394601Y-112072419D01*
X107394601Y-112072419D02*
X107394601Y-112167657D01*
X108013648Y-113072419D02*
X107918410Y-113024800D01*
X107918410Y-113024800D02*
X107870791Y-112929561D01*
X107870791Y-112929561D02*
X107870791Y-112072419D01*
X108394601Y-113072419D02*
X108394601Y-112405752D01*
X108394601Y-112072419D02*
X108346982Y-112120038D01*
X108346982Y-112120038D02*
X108394601Y-112167657D01*
X108394601Y-112167657D02*
X108442220Y-112120038D01*
X108442220Y-112120038D02*
X108394601Y-112072419D01*
X108394601Y-112072419D02*
X108394601Y-112167657D01*
X108775553Y-112405752D02*
X109299362Y-112405752D01*
X109299362Y-112405752D02*
X108775553Y-113072419D01*
X108775553Y-113072419D02*
X109299362Y-113072419D01*
X110061267Y-113024800D02*
X109966029Y-113072419D01*
X109966029Y-113072419D02*
X109775553Y-113072419D01*
X109775553Y-113072419D02*
X109680315Y-113024800D01*
X109680315Y-113024800D02*
X109632696Y-112929561D01*
X109632696Y-112929561D02*
X109632696Y-112548609D01*
X109632696Y-112548609D02*
X109680315Y-112453371D01*
X109680315Y-112453371D02*
X109775553Y-112405752D01*
X109775553Y-112405752D02*
X109966029Y-112405752D01*
X109966029Y-112405752D02*
X110061267Y-112453371D01*
X110061267Y-112453371D02*
X110108886Y-112548609D01*
X110108886Y-112548609D02*
X110108886Y-112643847D01*
X110108886Y-112643847D02*
X109632696Y-112739085D01*
X110537458Y-113072419D02*
X110537458Y-112405752D01*
X110537458Y-112596228D02*
X110585077Y-112500990D01*
X110585077Y-112500990D02*
X110632696Y-112453371D01*
X110632696Y-112453371D02*
X110727934Y-112405752D01*
X110727934Y-112405752D02*
X110823172Y-112405752D01*
X111918411Y-113072419D02*
X111918411Y-112072419D01*
X111918411Y-112072419D02*
X112299363Y-112072419D01*
X112299363Y-112072419D02*
X112394601Y-112120038D01*
X112394601Y-112120038D02*
X112442220Y-112167657D01*
X112442220Y-112167657D02*
X112489839Y-112262895D01*
X112489839Y-112262895D02*
X112489839Y-112405752D01*
X112489839Y-112405752D02*
X112442220Y-112500990D01*
X112442220Y-112500990D02*
X112394601Y-112548609D01*
X112394601Y-112548609D02*
X112299363Y-112596228D01*
X112299363Y-112596228D02*
X111918411Y-112596228D01*
X113346982Y-112405752D02*
X113346982Y-113072419D01*
X112918411Y-112405752D02*
X112918411Y-112929561D01*
X112918411Y-112929561D02*
X112966030Y-113024800D01*
X112966030Y-113024800D02*
X113061268Y-113072419D01*
X113061268Y-113072419D02*
X113204125Y-113072419D01*
X113204125Y-113072419D02*
X113299363Y-113024800D01*
X113299363Y-113024800D02*
X113346982Y-112977180D01*
X113823173Y-113072419D02*
X113823173Y-112405752D01*
X113823173Y-112500990D02*
X113870792Y-112453371D01*
X113870792Y-112453371D02*
X113966030Y-112405752D01*
X113966030Y-112405752D02*
X114108887Y-112405752D01*
X114108887Y-112405752D02*
X114204125Y-112453371D01*
X114204125Y-112453371D02*
X114251744Y-112548609D01*
X114251744Y-112548609D02*
X114251744Y-113072419D01*
X114251744Y-112548609D02*
X114299363Y-112453371D01*
X114299363Y-112453371D02*
X114394601Y-112405752D01*
X114394601Y-112405752D02*
X114537458Y-112405752D01*
X114537458Y-112405752D02*
X114632697Y-112453371D01*
X114632697Y-112453371D02*
X114680316Y-112548609D01*
X114680316Y-112548609D02*
X114680316Y-113072419D01*
X115156506Y-112405752D02*
X115156506Y-113405752D01*
X115156506Y-112453371D02*
X115251744Y-112405752D01*
X115251744Y-112405752D02*
X115442220Y-112405752D01*
X115442220Y-112405752D02*
X115537458Y-112453371D01*
X115537458Y-112453371D02*
X115585077Y-112500990D01*
X115585077Y-112500990D02*
X115632696Y-112596228D01*
X115632696Y-112596228D02*
X115632696Y-112881942D01*
X115632696Y-112881942D02*
X115585077Y-112977180D01*
X115585077Y-112977180D02*
X115537458Y-113024800D01*
X115537458Y-113024800D02*
X115442220Y-113072419D01*
X115442220Y-113072419D02*
X115251744Y-113072419D01*
X115251744Y-113072419D02*
X115156506Y-113024800D01*
X68129961Y-80725312D02*
X68177580Y-80649122D01*
X68177580Y-80649122D02*
X68177580Y-80534836D01*
X68177580Y-80534836D02*
X68129961Y-80420550D01*
X68129961Y-80420550D02*
X68034723Y-80344360D01*
X68034723Y-80344360D02*
X67939485Y-80306265D01*
X67939485Y-80306265D02*
X67749009Y-80268169D01*
X67749009Y-80268169D02*
X67606152Y-80268169D01*
X67606152Y-80268169D02*
X67415676Y-80306265D01*
X67415676Y-80306265D02*
X67320438Y-80344360D01*
X67320438Y-80344360D02*
X67225200Y-80420550D01*
X67225200Y-80420550D02*
X67177580Y-80534836D01*
X67177580Y-80534836D02*
X67177580Y-80611027D01*
X67177580Y-80611027D02*
X67225200Y-80725312D01*
X67225200Y-80725312D02*
X67272819Y-80763408D01*
X67272819Y-80763408D02*
X67606152Y-80763408D01*
X67606152Y-80763408D02*
X67606152Y-80611027D01*
X67177580Y-81106265D02*
X68177580Y-81106265D01*
X68177580Y-81106265D02*
X67177580Y-81563408D01*
X67177580Y-81563408D02*
X68177580Y-81563408D01*
X67177580Y-81944360D02*
X68177580Y-81944360D01*
X68177580Y-81944360D02*
X68177580Y-82134836D01*
X68177580Y-82134836D02*
X68129961Y-82249122D01*
X68129961Y-82249122D02*
X68034723Y-82325312D01*
X68034723Y-82325312D02*
X67939485Y-82363407D01*
X67939485Y-82363407D02*
X67749009Y-82401503D01*
X67749009Y-82401503D02*
X67606152Y-82401503D01*
X67606152Y-82401503D02*
X67415676Y-82363407D01*
X67415676Y-82363407D02*
X67320438Y-82325312D01*
X67320438Y-82325312D02*
X67225200Y-82249122D01*
X67225200Y-82249122D02*
X67177580Y-82134836D01*
X67177580Y-82134836D02*
X67177580Y-81944360D01*
X111180312Y-102020038D02*
X111104122Y-101972419D01*
X111104122Y-101972419D02*
X110989836Y-101972419D01*
X110989836Y-101972419D02*
X110875550Y-102020038D01*
X110875550Y-102020038D02*
X110799360Y-102115276D01*
X110799360Y-102115276D02*
X110761265Y-102210514D01*
X110761265Y-102210514D02*
X110723169Y-102400990D01*
X110723169Y-102400990D02*
X110723169Y-102543847D01*
X110723169Y-102543847D02*
X110761265Y-102734323D01*
X110761265Y-102734323D02*
X110799360Y-102829561D01*
X110799360Y-102829561D02*
X110875550Y-102924800D01*
X110875550Y-102924800D02*
X110989836Y-102972419D01*
X110989836Y-102972419D02*
X111066027Y-102972419D01*
X111066027Y-102972419D02*
X111180312Y-102924800D01*
X111180312Y-102924800D02*
X111218408Y-102877180D01*
X111218408Y-102877180D02*
X111218408Y-102543847D01*
X111218408Y-102543847D02*
X111066027Y-102543847D01*
X111561265Y-102972419D02*
X111561265Y-101972419D01*
X111561265Y-101972419D02*
X112018408Y-102972419D01*
X112018408Y-102972419D02*
X112018408Y-101972419D01*
X112399360Y-102972419D02*
X112399360Y-101972419D01*
X112399360Y-101972419D02*
X112589836Y-101972419D01*
X112589836Y-101972419D02*
X112704122Y-102020038D01*
X112704122Y-102020038D02*
X112780312Y-102115276D01*
X112780312Y-102115276D02*
X112818407Y-102210514D01*
X112818407Y-102210514D02*
X112856503Y-102400990D01*
X112856503Y-102400990D02*
X112856503Y-102543847D01*
X112856503Y-102543847D02*
X112818407Y-102734323D01*
X112818407Y-102734323D02*
X112780312Y-102829561D01*
X112780312Y-102829561D02*
X112704122Y-102924800D01*
X112704122Y-102924800D02*
X112589836Y-102972419D01*
X112589836Y-102972419D02*
X112399360Y-102972419D01*
X186766265Y-102962419D02*
X186766265Y-101962419D01*
X186766265Y-101962419D02*
X187071027Y-101962419D01*
X187071027Y-101962419D02*
X187147217Y-102010038D01*
X187147217Y-102010038D02*
X187185312Y-102057657D01*
X187185312Y-102057657D02*
X187223408Y-102152895D01*
X187223408Y-102152895D02*
X187223408Y-102295752D01*
X187223408Y-102295752D02*
X187185312Y-102390990D01*
X187185312Y-102390990D02*
X187147217Y-102438609D01*
X187147217Y-102438609D02*
X187071027Y-102486228D01*
X187071027Y-102486228D02*
X186766265Y-102486228D01*
X187490074Y-101962419D02*
X187680550Y-102962419D01*
X187680550Y-102962419D02*
X187832931Y-102248133D01*
X187832931Y-102248133D02*
X187985312Y-102962419D01*
X187985312Y-102962419D02*
X188175789Y-101962419D01*
X188480551Y-102962419D02*
X188480551Y-101962419D01*
X188480551Y-101962419D02*
X188747217Y-102676704D01*
X188747217Y-102676704D02*
X189013884Y-101962419D01*
X189013884Y-101962419D02*
X189013884Y-102962419D01*
D11*
X156224231Y-103892116D02*
X156757565Y-103892116D01*
X156490898Y-104273069D02*
X156490898Y-103511164D01*
X157424232Y-103273069D02*
X157090898Y-103273069D01*
X157090898Y-103273069D02*
X157057565Y-103749259D01*
X157057565Y-103749259D02*
X157090898Y-103701640D01*
X157090898Y-103701640D02*
X157157565Y-103654021D01*
X157157565Y-103654021D02*
X157324232Y-103654021D01*
X157324232Y-103654021D02*
X157390898Y-103701640D01*
X157390898Y-103701640D02*
X157424232Y-103749259D01*
X157424232Y-103749259D02*
X157457565Y-103844497D01*
X157457565Y-103844497D02*
X157457565Y-104082592D01*
X157457565Y-104082592D02*
X157424232Y-104177830D01*
X157424232Y-104177830D02*
X157390898Y-104225450D01*
X157390898Y-104225450D02*
X157324232Y-104273069D01*
X157324232Y-104273069D02*
X157157565Y-104273069D01*
X157157565Y-104273069D02*
X157090898Y-104225450D01*
X157090898Y-104225450D02*
X157057565Y-104177830D01*
X157657565Y-103273069D02*
X157890899Y-104273069D01*
X157890899Y-104273069D02*
X158124232Y-103273069D01*
D13*
X83698771Y-77050395D02*
X83698771Y-76050395D01*
X83698771Y-76050395D02*
X83932105Y-76764680D01*
X83932105Y-76764680D02*
X84165438Y-76050395D01*
X84165438Y-76050395D02*
X84165438Y-77050395D01*
X84465438Y-76764680D02*
X84798771Y-76764680D01*
X84398771Y-77050395D02*
X84632105Y-76050395D01*
X84632105Y-76050395D02*
X84865438Y-77050395D01*
X85032105Y-76050395D02*
X85498771Y-77050395D01*
X85498771Y-76050395D02*
X85032105Y-77050395D01*
X86065438Y-76383728D02*
X86065438Y-77050395D01*
X85898772Y-76002776D02*
X85732105Y-76717061D01*
X85732105Y-76717061D02*
X86165438Y-76717061D01*
X86532105Y-76478966D02*
X86465439Y-76431347D01*
X86465439Y-76431347D02*
X86432105Y-76383728D01*
X86432105Y-76383728D02*
X86398772Y-76288490D01*
X86398772Y-76288490D02*
X86398772Y-76240871D01*
X86398772Y-76240871D02*
X86432105Y-76145633D01*
X86432105Y-76145633D02*
X86465439Y-76098014D01*
X86465439Y-76098014D02*
X86532105Y-76050395D01*
X86532105Y-76050395D02*
X86665439Y-76050395D01*
X86665439Y-76050395D02*
X86732105Y-76098014D01*
X86732105Y-76098014D02*
X86765439Y-76145633D01*
X86765439Y-76145633D02*
X86798772Y-76240871D01*
X86798772Y-76240871D02*
X86798772Y-76288490D01*
X86798772Y-76288490D02*
X86765439Y-76383728D01*
X86765439Y-76383728D02*
X86732105Y-76431347D01*
X86732105Y-76431347D02*
X86665439Y-76478966D01*
X86665439Y-76478966D02*
X86532105Y-76478966D01*
X86532105Y-76478966D02*
X86465439Y-76526585D01*
X86465439Y-76526585D02*
X86432105Y-76574204D01*
X86432105Y-76574204D02*
X86398772Y-76669442D01*
X86398772Y-76669442D02*
X86398772Y-76859918D01*
X86398772Y-76859918D02*
X86432105Y-76955156D01*
X86432105Y-76955156D02*
X86465439Y-77002776D01*
X86465439Y-77002776D02*
X86532105Y-77050395D01*
X86532105Y-77050395D02*
X86665439Y-77050395D01*
X86665439Y-77050395D02*
X86732105Y-77002776D01*
X86732105Y-77002776D02*
X86765439Y-76955156D01*
X86765439Y-76955156D02*
X86798772Y-76859918D01*
X86798772Y-76859918D02*
X86798772Y-76669442D01*
X86798772Y-76669442D02*
X86765439Y-76574204D01*
X86765439Y-76574204D02*
X86732105Y-76526585D01*
X86732105Y-76526585D02*
X86665439Y-76478966D01*
X87432106Y-76050395D02*
X87098772Y-76050395D01*
X87098772Y-76050395D02*
X87065439Y-76526585D01*
X87065439Y-76526585D02*
X87098772Y-76478966D01*
X87098772Y-76478966D02*
X87165439Y-76431347D01*
X87165439Y-76431347D02*
X87332106Y-76431347D01*
X87332106Y-76431347D02*
X87398772Y-76478966D01*
X87398772Y-76478966D02*
X87432106Y-76526585D01*
X87432106Y-76526585D02*
X87465439Y-76621823D01*
X87465439Y-76621823D02*
X87465439Y-76859918D01*
X87465439Y-76859918D02*
X87432106Y-76955156D01*
X87432106Y-76955156D02*
X87398772Y-77002776D01*
X87398772Y-77002776D02*
X87332106Y-77050395D01*
X87332106Y-77050395D02*
X87165439Y-77050395D01*
X87165439Y-77050395D02*
X87098772Y-77002776D01*
X87098772Y-77002776D02*
X87065439Y-76955156D01*
X83598771Y-77660339D02*
X83832105Y-78660339D01*
X83832105Y-78660339D02*
X84065438Y-77660339D01*
X84698771Y-78565100D02*
X84665438Y-78612720D01*
X84665438Y-78612720D02*
X84565438Y-78660339D01*
X84565438Y-78660339D02*
X84498771Y-78660339D01*
X84498771Y-78660339D02*
X84398771Y-78612720D01*
X84398771Y-78612720D02*
X84332105Y-78517481D01*
X84332105Y-78517481D02*
X84298771Y-78422243D01*
X84298771Y-78422243D02*
X84265438Y-78231767D01*
X84265438Y-78231767D02*
X84265438Y-78088910D01*
X84265438Y-78088910D02*
X84298771Y-77898434D01*
X84298771Y-77898434D02*
X84332105Y-77803196D01*
X84332105Y-77803196D02*
X84398771Y-77707958D01*
X84398771Y-77707958D02*
X84498771Y-77660339D01*
X84498771Y-77660339D02*
X84565438Y-77660339D01*
X84565438Y-77660339D02*
X84665438Y-77707958D01*
X84665438Y-77707958D02*
X84698771Y-77755577D01*
X85398771Y-78565100D02*
X85365438Y-78612720D01*
X85365438Y-78612720D02*
X85265438Y-78660339D01*
X85265438Y-78660339D02*
X85198771Y-78660339D01*
X85198771Y-78660339D02*
X85098771Y-78612720D01*
X85098771Y-78612720D02*
X85032105Y-78517481D01*
X85032105Y-78517481D02*
X84998771Y-78422243D01*
X84998771Y-78422243D02*
X84965438Y-78231767D01*
X84965438Y-78231767D02*
X84965438Y-78088910D01*
X84965438Y-78088910D02*
X84998771Y-77898434D01*
X84998771Y-77898434D02*
X85032105Y-77803196D01*
X85032105Y-77803196D02*
X85098771Y-77707958D01*
X85098771Y-77707958D02*
X85198771Y-77660339D01*
X85198771Y-77660339D02*
X85265438Y-77660339D01*
X85265438Y-77660339D02*
X85365438Y-77707958D01*
X85365438Y-77707958D02*
X85398771Y-77755577D01*
D10*
X121803884Y-100191466D02*
X122565789Y-100191466D01*
X122184836Y-100572419D02*
X122184836Y-99810514D01*
X123518169Y-99572419D02*
X123041979Y-99572419D01*
X123041979Y-99572419D02*
X122994360Y-100048609D01*
X122994360Y-100048609D02*
X123041979Y-100000990D01*
X123041979Y-100000990D02*
X123137217Y-99953371D01*
X123137217Y-99953371D02*
X123375312Y-99953371D01*
X123375312Y-99953371D02*
X123470550Y-100000990D01*
X123470550Y-100000990D02*
X123518169Y-100048609D01*
X123518169Y-100048609D02*
X123565788Y-100143847D01*
X123565788Y-100143847D02*
X123565788Y-100381942D01*
X123565788Y-100381942D02*
X123518169Y-100477180D01*
X123518169Y-100477180D02*
X123470550Y-100524800D01*
X123470550Y-100524800D02*
X123375312Y-100572419D01*
X123375312Y-100572419D02*
X123137217Y-100572419D01*
X123137217Y-100572419D02*
X123041979Y-100524800D01*
X123041979Y-100524800D02*
X122994360Y-100477180D01*
X123851503Y-99572419D02*
X124184836Y-100572419D01*
X124184836Y-100572419D02*
X124518169Y-99572419D01*
D11*
X161490898Y-55587354D02*
X161824231Y-55587354D01*
X161424231Y-55873069D02*
X161657565Y-54873069D01*
X161657565Y-54873069D02*
X161890898Y-55873069D01*
X162124231Y-55873069D02*
X162124231Y-54873069D01*
X162124231Y-54873069D02*
X162290898Y-54873069D01*
X162290898Y-54873069D02*
X162390898Y-54920688D01*
X162390898Y-54920688D02*
X162457565Y-55015926D01*
X162457565Y-55015926D02*
X162490898Y-55111164D01*
X162490898Y-55111164D02*
X162524231Y-55301640D01*
X162524231Y-55301640D02*
X162524231Y-55444497D01*
X162524231Y-55444497D02*
X162490898Y-55634973D01*
X162490898Y-55634973D02*
X162457565Y-55730211D01*
X162457565Y-55730211D02*
X162390898Y-55825450D01*
X162390898Y-55825450D02*
X162290898Y-55873069D01*
X162290898Y-55873069D02*
X162124231Y-55873069D01*
X163224231Y-55777830D02*
X163190898Y-55825450D01*
X163190898Y-55825450D02*
X163090898Y-55873069D01*
X163090898Y-55873069D02*
X163024231Y-55873069D01*
X163024231Y-55873069D02*
X162924231Y-55825450D01*
X162924231Y-55825450D02*
X162857565Y-55730211D01*
X162857565Y-55730211D02*
X162824231Y-55634973D01*
X162824231Y-55634973D02*
X162790898Y-55444497D01*
X162790898Y-55444497D02*
X162790898Y-55301640D01*
X162790898Y-55301640D02*
X162824231Y-55111164D01*
X162824231Y-55111164D02*
X162857565Y-55015926D01*
X162857565Y-55015926D02*
X162924231Y-54920688D01*
X162924231Y-54920688D02*
X163024231Y-54873069D01*
X163024231Y-54873069D02*
X163090898Y-54873069D01*
X163090898Y-54873069D02*
X163190898Y-54920688D01*
X163190898Y-54920688D02*
X163224231Y-54968307D01*
X163490898Y-54968307D02*
X163524231Y-54920688D01*
X163524231Y-54920688D02*
X163590898Y-54873069D01*
X163590898Y-54873069D02*
X163757565Y-54873069D01*
X163757565Y-54873069D02*
X163824231Y-54920688D01*
X163824231Y-54920688D02*
X163857565Y-54968307D01*
X163857565Y-54968307D02*
X163890898Y-55063545D01*
X163890898Y-55063545D02*
X163890898Y-55158783D01*
X163890898Y-55158783D02*
X163857565Y-55301640D01*
X163857565Y-55301640D02*
X163457565Y-55873069D01*
X163457565Y-55873069D02*
X163890898Y-55873069D01*
X164024232Y-55968307D02*
X164557565Y-55968307D01*
X164657565Y-54873069D02*
X165090898Y-54873069D01*
X165090898Y-54873069D02*
X164857565Y-55254021D01*
X164857565Y-55254021D02*
X164957565Y-55254021D01*
X164957565Y-55254021D02*
X165024231Y-55301640D01*
X165024231Y-55301640D02*
X165057565Y-55349259D01*
X165057565Y-55349259D02*
X165090898Y-55444497D01*
X165090898Y-55444497D02*
X165090898Y-55682592D01*
X165090898Y-55682592D02*
X165057565Y-55777830D01*
X165057565Y-55777830D02*
X165024231Y-55825450D01*
X165024231Y-55825450D02*
X164957565Y-55873069D01*
X164957565Y-55873069D02*
X164757565Y-55873069D01*
X164757565Y-55873069D02*
X164690898Y-55825450D01*
X164690898Y-55825450D02*
X164657565Y-55777830D01*
D10*
X66432580Y-102356265D02*
X67432580Y-102356265D01*
X67432580Y-102356265D02*
X66432580Y-102813408D01*
X66432580Y-102813408D02*
X67432580Y-102813408D01*
X66527819Y-103651503D02*
X66480200Y-103613407D01*
X66480200Y-103613407D02*
X66432580Y-103499122D01*
X66432580Y-103499122D02*
X66432580Y-103422931D01*
X66432580Y-103422931D02*
X66480200Y-103308645D01*
X66480200Y-103308645D02*
X66575438Y-103232455D01*
X66575438Y-103232455D02*
X66670676Y-103194360D01*
X66670676Y-103194360D02*
X66861152Y-103156264D01*
X66861152Y-103156264D02*
X67004009Y-103156264D01*
X67004009Y-103156264D02*
X67194485Y-103194360D01*
X67194485Y-103194360D02*
X67289723Y-103232455D01*
X67289723Y-103232455D02*
X67384961Y-103308645D01*
X67384961Y-103308645D02*
X67432580Y-103422931D01*
X67432580Y-103422931D02*
X67432580Y-103499122D01*
X67432580Y-103499122D02*
X67384961Y-103613407D01*
X67384961Y-103613407D02*
X67337342Y-103651503D01*
X199813408Y-57577180D02*
X199775312Y-57624800D01*
X199775312Y-57624800D02*
X199661027Y-57672419D01*
X199661027Y-57672419D02*
X199584836Y-57672419D01*
X199584836Y-57672419D02*
X199470550Y-57624800D01*
X199470550Y-57624800D02*
X199394360Y-57529561D01*
X199394360Y-57529561D02*
X199356265Y-57434323D01*
X199356265Y-57434323D02*
X199318169Y-57243847D01*
X199318169Y-57243847D02*
X199318169Y-57100990D01*
X199318169Y-57100990D02*
X199356265Y-56910514D01*
X199356265Y-56910514D02*
X199394360Y-56815276D01*
X199394360Y-56815276D02*
X199470550Y-56720038D01*
X199470550Y-56720038D02*
X199584836Y-56672419D01*
X199584836Y-56672419D02*
X199661027Y-56672419D01*
X199661027Y-56672419D02*
X199775312Y-56720038D01*
X199775312Y-56720038D02*
X199813408Y-56767657D01*
X200308646Y-56672419D02*
X200461027Y-56672419D01*
X200461027Y-56672419D02*
X200537217Y-56720038D01*
X200537217Y-56720038D02*
X200613408Y-56815276D01*
X200613408Y-56815276D02*
X200651503Y-57005752D01*
X200651503Y-57005752D02*
X200651503Y-57339085D01*
X200651503Y-57339085D02*
X200613408Y-57529561D01*
X200613408Y-57529561D02*
X200537217Y-57624800D01*
X200537217Y-57624800D02*
X200461027Y-57672419D01*
X200461027Y-57672419D02*
X200308646Y-57672419D01*
X200308646Y-57672419D02*
X200232455Y-57624800D01*
X200232455Y-57624800D02*
X200156265Y-57529561D01*
X200156265Y-57529561D02*
X200118169Y-57339085D01*
X200118169Y-57339085D02*
X200118169Y-57005752D01*
X200118169Y-57005752D02*
X200156265Y-56815276D01*
X200156265Y-56815276D02*
X200232455Y-56720038D01*
X200232455Y-56720038D02*
X200308646Y-56672419D01*
X200994360Y-57672419D02*
X200994360Y-56672419D01*
X200994360Y-56672419D02*
X201261026Y-57386704D01*
X201261026Y-57386704D02*
X201527693Y-56672419D01*
X201527693Y-56672419D02*
X201527693Y-57672419D01*
D12*
X84766905Y-110354819D02*
X84766905Y-109354819D01*
X84766905Y-109354819D02*
X85005000Y-109354819D01*
X85005000Y-109354819D02*
X85147857Y-109402438D01*
X85147857Y-109402438D02*
X85243095Y-109497676D01*
X85243095Y-109497676D02*
X85290714Y-109592914D01*
X85290714Y-109592914D02*
X85338333Y-109783390D01*
X85338333Y-109783390D02*
X85338333Y-109926247D01*
X85338333Y-109926247D02*
X85290714Y-110116723D01*
X85290714Y-110116723D02*
X85243095Y-110211961D01*
X85243095Y-110211961D02*
X85147857Y-110307200D01*
X85147857Y-110307200D02*
X85005000Y-110354819D01*
X85005000Y-110354819D02*
X84766905Y-110354819D01*
X86195476Y-109688152D02*
X86195476Y-110354819D01*
X85957381Y-109307200D02*
X85719286Y-110021485D01*
X85719286Y-110021485D02*
X86338333Y-110021485D01*
X95253095Y-111154819D02*
X95253095Y-110154819D01*
X95824523Y-111154819D02*
X95395952Y-110583390D01*
X95824523Y-110154819D02*
X95253095Y-110726247D01*
D14*
%TO.C,J20*%
X143615000Y-91880000D02*
X153995000Y-91880000D01*
X143615000Y-94530000D02*
X143615000Y-91880000D01*
X143615000Y-97180000D02*
X143615000Y-95800000D01*
X144995000Y-97180000D02*
X143615000Y-97180000D01*
X146265000Y-94530000D02*
X143615000Y-94530000D01*
X146265000Y-97180000D02*
X146265000Y-94530000D01*
X146265000Y-97180000D02*
X153995000Y-97180000D01*
X153995000Y-97180000D02*
X153995000Y-91880000D01*
D10*
%TO.C,D11*%
X166450000Y-90060000D02*
G75*
G02*
X166350000Y-90060000I-50000J0D01*
G01*
X166350000Y-90060000D02*
G75*
G02*
X166450000Y-90060000I50000J0D01*
G01*
%TO.C,D3*%
X99915000Y-106000000D02*
G75*
G02*
X99815000Y-106000000I-50000J0D01*
G01*
X99815000Y-106000000D02*
G75*
G02*
X99915000Y-106000000I50000J0D01*
G01*
D14*
%TO.C,J30*%
X114005000Y-67607500D02*
X121445000Y-67607500D01*
X114005000Y-77647500D02*
X114005000Y-67607500D01*
X122045000Y-67607500D02*
X124405000Y-67607500D01*
X124405000Y-67607500D02*
X124405000Y-77647500D01*
X124405000Y-68227500D02*
X114005000Y-68227500D01*
X124405000Y-69727500D02*
X114005000Y-69727500D01*
X124405000Y-74627500D02*
X114005000Y-74627500D01*
X124405000Y-77647500D02*
X114005000Y-77647500D01*
X121745000Y-67607500D02*
X121305000Y-66997500D01*
X122185000Y-66997500D01*
X121745000Y-67607500D01*
G36*
X121745000Y-67607500D02*
G01*
X121305000Y-66997500D01*
X122185000Y-66997500D01*
X121745000Y-67607500D01*
G37*
%TO.C,J1*%
X158820000Y-107540000D02*
X158820000Y-99810000D01*
X161580000Y-99810000D02*
X158820000Y-99810000D01*
X161580000Y-107540000D02*
X158820000Y-107540000D01*
X161580000Y-107540000D02*
X161580000Y-99810000D01*
X161580000Y-108810000D02*
X161580000Y-110190000D01*
X161580000Y-110190000D02*
X160200000Y-110190000D01*
D10*
%TO.C,D5*%
X190660000Y-95290000D02*
G75*
G02*
X190560000Y-95290000I-50000J0D01*
G01*
X190560000Y-95290000D02*
G75*
G02*
X190660000Y-95290000I50000J0D01*
G01*
D14*
%TO.C,J4*%
X68830000Y-63140000D02*
X78870000Y-63140000D01*
X68830000Y-65500000D02*
X68830000Y-63140000D01*
X68830000Y-83700000D02*
X68830000Y-66100000D01*
X69450000Y-63140000D02*
X69450000Y-83700000D01*
X70950000Y-63140000D02*
X70950000Y-83700000D01*
X75850000Y-63140000D02*
X75850000Y-83700000D01*
X78870000Y-63140000D02*
X78870000Y-83700000D01*
X78870000Y-83700000D02*
X68830000Y-83700000D01*
X68830000Y-65800000D02*
X68220000Y-66240000D01*
X68220000Y-65360000D01*
X68830000Y-65800000D01*
G36*
X68830000Y-65800000D02*
G01*
X68220000Y-66240000D01*
X68220000Y-65360000D01*
X68830000Y-65800000D01*
G37*
%TO.C,J16*%
X171720000Y-99950000D02*
X173100000Y-99950000D01*
X171720000Y-101330000D02*
X171720000Y-99950000D01*
X171720000Y-102600000D02*
X171720000Y-110330000D01*
X171720000Y-102600000D02*
X174480000Y-102600000D01*
X171720000Y-110330000D02*
X174480000Y-110330000D01*
X174480000Y-102600000D02*
X174480000Y-110330000D01*
%TO.C,D8*%
X130780000Y-95322500D02*
X130780000Y-98622500D01*
X130780000Y-95322500D02*
X136290000Y-95322500D01*
X130780000Y-98622500D02*
X136290000Y-98622500D01*
%TO.C,J11*%
X93275000Y-79455000D02*
X93275000Y-76805000D01*
X96035000Y-76805000D02*
X93275000Y-76805000D01*
X96035000Y-79455000D02*
X93275000Y-79455000D01*
X96035000Y-79455000D02*
X96035000Y-76805000D01*
X96035000Y-80725000D02*
X96035000Y-82105000D01*
X96035000Y-82105000D02*
X94655000Y-82105000D01*
%TO.C,D9*%
X144345000Y-100272500D02*
X144345000Y-103572500D01*
X144345000Y-100272500D02*
X149855000Y-100272500D01*
X144345000Y-103572500D02*
X149855000Y-103572500D01*
%TO.C,J8*%
X136145000Y-54720000D02*
X136145000Y-60020000D01*
X143875000Y-54720000D02*
X136145000Y-54720000D01*
X143875000Y-54720000D02*
X143875000Y-57370000D01*
X143875000Y-57370000D02*
X146525000Y-57370000D01*
X145145000Y-54720000D02*
X146525000Y-54720000D01*
X146525000Y-54720000D02*
X146525000Y-56100000D01*
X146525000Y-57370000D02*
X146525000Y-60020000D01*
X146525000Y-60020000D02*
X136145000Y-60020000D01*
%TO.C,J27*%
X117025000Y-93020000D02*
X118405000Y-93020000D01*
X117025000Y-94400000D02*
X117025000Y-93020000D01*
X117025000Y-95670000D02*
X117025000Y-95780000D01*
X117025000Y-95670000D02*
X119785000Y-95670000D01*
X117025000Y-95780000D02*
X119785000Y-95780000D01*
X119785000Y-95670000D02*
X119785000Y-95780000D01*
%TO.C,J22*%
X118346250Y-98850000D02*
X119726250Y-98850000D01*
X118346250Y-100230000D02*
X118346250Y-98850000D01*
X118346250Y-101500000D02*
X118346250Y-109230000D01*
X118346250Y-101500000D02*
X121106250Y-101500000D01*
X118346250Y-109230000D02*
X121106250Y-109230000D01*
X121106250Y-101500000D02*
X121106250Y-109230000D01*
%TO.C,D4*%
X88985000Y-107330000D02*
X88985000Y-107660000D01*
X88985000Y-110270000D02*
X88985000Y-109940000D01*
X93405000Y-110270000D02*
X93405000Y-107330000D01*
X93525000Y-110270000D02*
X93525000Y-107330000D01*
X93645000Y-110270000D02*
X93645000Y-107330000D01*
X94425000Y-107330000D02*
X88985000Y-107330000D01*
X94425000Y-107660000D02*
X94425000Y-107330000D01*
X94425000Y-109940000D02*
X94425000Y-110270000D01*
X94425000Y-110270000D02*
X88985000Y-110270000D01*
%TO.C,J29*%
X172580000Y-93680000D02*
X172580000Y-92300000D01*
X173960000Y-93680000D02*
X172580000Y-93680000D01*
X175230000Y-90920000D02*
X177880000Y-90920000D01*
X175230000Y-93680000D02*
X175230000Y-90920000D01*
X175230000Y-93680000D02*
X177880000Y-93680000D01*
X177880000Y-93680000D02*
X177880000Y-90920000D01*
D15*
%TO.C,U2*%
X93273000Y-74918400D02*
G75*
G02*
X92985800Y-74918400I-143600J0D01*
G01*
X92985800Y-74918400D02*
G75*
G02*
X93273000Y-74918400I143600J0D01*
G01*
D14*
%TO.C,J3*%
X79975000Y-75700000D02*
X79975000Y-67970000D01*
X82735000Y-67970000D02*
X79975000Y-67970000D01*
X82735000Y-75700000D02*
X79975000Y-75700000D01*
X82735000Y-75700000D02*
X82735000Y-67970000D01*
X82735000Y-76970000D02*
X82735000Y-78350000D01*
X82735000Y-78350000D02*
X81355000Y-78350000D01*
D10*
%TO.C,D1*%
X90700000Y-68950000D02*
G75*
G02*
X90600000Y-68950000I-50000J0D01*
G01*
X90600000Y-68950000D02*
G75*
G02*
X90700000Y-68950000I50000J0D01*
G01*
D14*
%TO.C,J26*%
X183170000Y-104590000D02*
X183170000Y-103210000D01*
X184550000Y-104590000D02*
X183170000Y-104590000D01*
X185820000Y-101830000D02*
X185930000Y-101830000D01*
X185820000Y-104590000D02*
X185820000Y-101830000D01*
X185820000Y-104590000D02*
X185930000Y-104590000D01*
X185930000Y-104590000D02*
X185930000Y-101830000D01*
D16*
%TO.C,K2*%
X185000000Y-69760000D02*
X200500000Y-69760000D01*
X185000000Y-88860000D02*
X185000000Y-69760000D01*
X200500000Y-69760000D02*
X200500000Y-88860000D01*
X200500000Y-88860000D02*
X185000000Y-88860000D01*
D17*
X186731000Y-89510000D02*
G75*
G02*
X186531000Y-89510000I-100000J0D01*
G01*
X186531000Y-89510000D02*
G75*
G02*
X186731000Y-89510000I100000J0D01*
G01*
D14*
%TO.C,J2*%
X98008800Y-68735000D02*
X99388800Y-68735000D01*
X98008800Y-70115000D02*
X98008800Y-68735000D01*
X98008800Y-71385000D02*
X98008800Y-79115000D01*
X98008800Y-71385000D02*
X100768800Y-71385000D01*
X98008800Y-79115000D02*
X100768800Y-79115000D01*
X100768800Y-71385000D02*
X100768800Y-79115000D01*
D10*
%TO.C,D2*%
X106570000Y-101700000D02*
G75*
G02*
X106470000Y-101700000I-50000J0D01*
G01*
X106470000Y-101700000D02*
G75*
G02*
X106570000Y-101700000I50000J0D01*
G01*
D14*
%TO.C,J5*%
X196445000Y-114280000D02*
X196445000Y-112900000D01*
X197825000Y-114280000D02*
X196445000Y-114280000D01*
X199095000Y-111520000D02*
X201745000Y-111520000D01*
X199095000Y-114280000D02*
X199095000Y-111520000D01*
X199095000Y-114280000D02*
X201745000Y-114280000D01*
X201745000Y-114280000D02*
X201745000Y-111520000D01*
D10*
%TO.C,D6*%
X186250000Y-90694999D02*
G75*
G02*
X186150000Y-90694999I-50000J0D01*
G01*
X186150000Y-90694999D02*
G75*
G02*
X186250000Y-90694999I50000J0D01*
G01*
D14*
%TO.C,J24*%
X156680000Y-56620000D02*
X156680000Y-59380000D01*
X161870000Y-56620000D02*
X156680000Y-56620000D01*
X161870000Y-56620000D02*
X161870000Y-59380000D01*
X161870000Y-59380000D02*
X156680000Y-59380000D01*
X163140000Y-56620000D02*
X164520000Y-56620000D01*
X164520000Y-56620000D02*
X164520000Y-58000000D01*
D16*
%TO.C,U4*%
X196530000Y-91384999D02*
X196690000Y-91384999D01*
X196530000Y-95784999D02*
X196530000Y-91384999D01*
X196690000Y-95784999D02*
X196530000Y-95784999D01*
X200630000Y-91384999D02*
X200470000Y-91384999D01*
X200630000Y-91384999D02*
X200630000Y-95784999D01*
X200630000Y-95784999D02*
X200470000Y-95784999D01*
D18*
X197410000Y-98128999D02*
G75*
G02*
X197210000Y-98128999I-100000J0D01*
G01*
X197210000Y-98128999D02*
G75*
G02*
X197410000Y-98128999I100000J0D01*
G01*
D14*
%TO.C,J9*%
X201570000Y-89830000D02*
X202950000Y-89830000D01*
X201570000Y-91210000D02*
X201570000Y-89830000D01*
X201570000Y-92480000D02*
X201570000Y-97670000D01*
X201570000Y-92480000D02*
X204330000Y-92480000D01*
X201570000Y-97670000D02*
X204330000Y-97670000D01*
X204330000Y-92480000D02*
X204330000Y-97670000D01*
%TO.C,J25*%
X131185000Y-93580000D02*
X131185000Y-92200000D01*
X132565000Y-93580000D02*
X131185000Y-93580000D01*
X133835000Y-90820000D02*
X139025000Y-90820000D01*
X133835000Y-93580000D02*
X133835000Y-90820000D01*
X133835000Y-93580000D02*
X139025000Y-93580000D01*
X139025000Y-93580000D02*
X139025000Y-90820000D01*
%TO.C,J14*%
X106925000Y-103770000D02*
X106925000Y-98580000D01*
X109685000Y-98580000D02*
X106925000Y-98580000D01*
X109685000Y-103770000D02*
X106925000Y-103770000D01*
X109685000Y-103770000D02*
X109685000Y-98580000D01*
X109685000Y-105040000D02*
X109685000Y-106420000D01*
X109685000Y-106420000D02*
X108305000Y-106420000D01*
%TO.C,J12*%
X193570000Y-101490000D02*
X193570000Y-100110000D01*
X194950000Y-101490000D02*
X193570000Y-101490000D01*
X196220000Y-98730000D02*
X201410000Y-98730000D01*
X196220000Y-101490000D02*
X196220000Y-98730000D01*
X196220000Y-101490000D02*
X201410000Y-101490000D01*
X201410000Y-101490000D02*
X201410000Y-98730000D01*
%TO.C,J17*%
X196480000Y-109180000D02*
X196480000Y-107800000D01*
X197860000Y-109180000D02*
X196480000Y-109180000D01*
X199130000Y-106420000D02*
X204320000Y-106420000D01*
X199130000Y-109180000D02*
X199130000Y-106420000D01*
X199130000Y-109180000D02*
X204320000Y-109180000D01*
X204320000Y-109180000D02*
X204320000Y-106420000D01*
%TO.C,J21*%
X104315000Y-84480000D02*
X104315000Y-83100000D01*
X105695000Y-84480000D02*
X104315000Y-84480000D01*
X106965000Y-81720000D02*
X114695000Y-81720000D01*
X106965000Y-84480000D02*
X106965000Y-81720000D01*
X106965000Y-84480000D02*
X114695000Y-84480000D01*
X114695000Y-84480000D02*
X114695000Y-81720000D01*
%TO.C,J6*%
X68512500Y-95555000D02*
X78552500Y-95555000D01*
X68512500Y-97915000D02*
X68512500Y-95555000D01*
X68512500Y-111035000D02*
X68512500Y-98515000D01*
X69132500Y-95555000D02*
X69132500Y-111035000D01*
X70632500Y-95555000D02*
X70632500Y-111035000D01*
X75532500Y-95555000D02*
X75532500Y-111035000D01*
X78552500Y-95555000D02*
X78552500Y-111035000D01*
X78552500Y-111035000D02*
X68512500Y-111035000D01*
X68512500Y-98215000D02*
X67902500Y-98655000D01*
X67902500Y-97775000D01*
X68512500Y-98215000D01*
G36*
X68512500Y-98215000D02*
G01*
X67902500Y-98655000D01*
X67902500Y-97775000D01*
X68512500Y-98215000D01*
G37*
%TO.C,Q4*%
X119190000Y-79190000D02*
X120710000Y-79190000D01*
X119190000Y-79240000D02*
X119190000Y-79190000D01*
X119190000Y-81140000D02*
X119190000Y-80360000D01*
X119190000Y-82310000D02*
X119190000Y-82260000D01*
X120710000Y-79190000D02*
X120710000Y-80190000D01*
X120710000Y-81310000D02*
X120710000Y-82310000D01*
X120710000Y-82310000D02*
X119190000Y-82310000D01*
X118890000Y-80700000D02*
X118410000Y-80700000D01*
X118650000Y-80370000D01*
X118890000Y-80700000D01*
G36*
X118890000Y-80700000D02*
G01*
X118410000Y-80700000D01*
X118650000Y-80370000D01*
X118890000Y-80700000D01*
G37*
%TO.C,J7*%
X100825000Y-92680000D02*
X100825000Y-91300000D01*
X102205000Y-92680000D02*
X100825000Y-92680000D01*
X103475000Y-89920000D02*
X108665000Y-89920000D01*
X103475000Y-92680000D02*
X103475000Y-89920000D01*
X103475000Y-92680000D02*
X108665000Y-92680000D01*
X108665000Y-92680000D02*
X108665000Y-89920000D01*
D19*
%TO.C,IC1*%
X165100000Y-104970000D02*
X168100000Y-104970000D01*
X165100000Y-109970000D02*
X165100000Y-104970000D01*
X168100000Y-104970000D02*
X168100000Y-109970000D01*
X168100000Y-109970000D02*
X165100000Y-109970000D01*
X165041418Y-105070000D02*
G75*
G02*
X164758582Y-105070000I-141418J0D01*
G01*
X164758582Y-105070000D02*
G75*
G02*
X165041418Y-105070000I141418J0D01*
G01*
D14*
%TO.C,J18*%
X142195000Y-104152500D02*
X152595000Y-104152500D01*
X142195000Y-107172500D02*
X152595000Y-107172500D01*
X142195000Y-112072500D02*
X152595000Y-112072500D01*
X142195000Y-113572500D02*
X152595000Y-113572500D01*
X142195000Y-114192500D02*
X142195000Y-104152500D01*
X144555000Y-114192500D02*
X142195000Y-114192500D01*
X152595000Y-104152500D02*
X152595000Y-114192500D01*
X152595000Y-114192500D02*
X145155000Y-114192500D01*
X145295000Y-114802500D02*
X144415000Y-114802500D01*
X144855000Y-114192500D01*
X145295000Y-114802500D01*
G36*
X145295000Y-114802500D02*
G01*
X144415000Y-114802500D01*
X144855000Y-114192500D01*
X145295000Y-114802500D01*
G37*
%TO.C,J28*%
X166670000Y-56670000D02*
X168050000Y-56670000D01*
X166670000Y-58050000D02*
X166670000Y-56670000D01*
X166670000Y-59320000D02*
X166670000Y-59430000D01*
X166670000Y-59320000D02*
X169430000Y-59320000D01*
X166670000Y-59430000D02*
X169430000Y-59430000D01*
X169430000Y-59320000D02*
X169430000Y-59430000D01*
D16*
%TO.C,U3*%
X127130000Y-61320000D02*
X127130000Y-66690000D01*
X127130000Y-61320000D02*
X178080000Y-61320000D01*
X127130000Y-61320000D02*
X178080000Y-61320000D01*
X127130000Y-66690000D02*
X127130000Y-84380000D01*
X127130000Y-84380000D02*
X127130000Y-89830000D01*
X127130000Y-89830000D02*
X127130000Y-61320000D01*
X178080000Y-61320000D02*
X178080000Y-72389000D01*
X178080000Y-61320000D02*
X178080000Y-89830000D01*
X178080000Y-72389000D02*
X178080000Y-79100000D01*
X178080000Y-79100000D02*
X178080000Y-89830000D01*
X178080000Y-89830000D02*
X127130000Y-89830000D01*
X178080000Y-89830000D02*
X127130000Y-89830000D01*
D18*
X168220000Y-60750000D02*
G75*
G02*
X168020000Y-60750000I-100000J0D01*
G01*
X168020000Y-60750000D02*
G75*
G02*
X168220000Y-60750000I100000J0D01*
G01*
D14*
%TO.C,D7*%
X186280000Y-91874999D02*
X186280000Y-97314999D01*
X186280000Y-97314999D02*
X186610000Y-97314999D01*
X186610000Y-91874999D02*
X186280000Y-91874999D01*
X188890000Y-91874999D02*
X189220000Y-91874999D01*
X189220000Y-91874999D02*
X189220000Y-97314999D01*
X189220000Y-92654999D02*
X186280000Y-92654999D01*
X189220000Y-92774999D02*
X186280000Y-92774999D01*
X189220000Y-92894999D02*
X186280000Y-92894999D01*
X189220000Y-97314999D02*
X188890000Y-97314999D01*
D16*
%TO.C,K1*%
X79855000Y-91150000D02*
X98955000Y-91150000D01*
X79855000Y-106650000D02*
X79855000Y-91150000D01*
X98955000Y-91150000D02*
X98955000Y-106650000D01*
X98955000Y-106650000D02*
X79855000Y-106650000D01*
D17*
X99705000Y-105019000D02*
G75*
G02*
X99505000Y-105019000I-100000J0D01*
G01*
X99505000Y-105019000D02*
G75*
G02*
X99705000Y-105019000I100000J0D01*
G01*
D14*
%TO.C,J15*%
X70645000Y-91520000D02*
X70645000Y-94280000D01*
X75835000Y-91520000D02*
X70645000Y-91520000D01*
X75835000Y-91520000D02*
X75835000Y-94280000D01*
X75835000Y-94280000D02*
X70645000Y-94280000D01*
X77105000Y-91520000D02*
X78485000Y-91520000D01*
X78485000Y-91520000D02*
X78485000Y-92900000D01*
D10*
%TO.C,D10*%
X158490000Y-91200000D02*
G75*
G02*
X158390000Y-91200000I-50000J0D01*
G01*
X158390000Y-91200000D02*
G75*
G02*
X158490000Y-91200000I50000J0D01*
G01*
D14*
%TO.C,J13*%
X201270000Y-71730000D02*
X202650000Y-71730000D01*
X201270000Y-73110000D02*
X201270000Y-71730000D01*
X201270000Y-74380000D02*
X201270000Y-79570000D01*
X201270000Y-74380000D02*
X204030000Y-74380000D01*
X201270000Y-79570000D02*
X204030000Y-79570000D01*
X204030000Y-74380000D02*
X204030000Y-79570000D01*
%TO.C,Q1*%
X100335000Y-104450000D02*
X103935000Y-104450000D01*
X100296522Y-104438478D02*
G75*
G02*
X102135000Y-99999999I1838478J1838478D01*
G01*
X102135000Y-100000000D02*
G75*
G02*
X103973478Y-104438478I0J-2600000D01*
G01*
%TO.C,J23*%
X156225000Y-92420000D02*
X157605000Y-92420000D01*
X156225000Y-93800000D02*
X156225000Y-92420000D01*
X156225000Y-95070000D02*
X156225000Y-95180000D01*
X156225000Y-95070000D02*
X158985000Y-95070000D01*
X156225000Y-95180000D02*
X158985000Y-95180000D01*
X158985000Y-95070000D02*
X158985000Y-95180000D01*
%TO.C,J10*%
X187480000Y-58730000D02*
X200000000Y-58730000D01*
X187480000Y-68770000D02*
X187480000Y-58730000D01*
X200600000Y-58730000D02*
X202960000Y-58730000D01*
X202960000Y-58730000D02*
X202960000Y-68770000D01*
X202960000Y-59350000D02*
X187480000Y-59350000D01*
X202960000Y-60850000D02*
X187480000Y-60850000D01*
X202960000Y-65750000D02*
X187480000Y-65750000D01*
X202960000Y-68770000D02*
X187480000Y-68770000D01*
X200300000Y-58730000D02*
X199860000Y-58120000D01*
X200740000Y-58120000D01*
X200300000Y-58730000D01*
G36*
X200300000Y-58730000D02*
G01*
X199860000Y-58120000D01*
X200740000Y-58120000D01*
X200300000Y-58730000D01*
G37*
%TO.C,J19*%
X129440000Y-99272500D02*
X129440000Y-100572500D01*
X129740000Y-99572500D02*
X131740000Y-99572500D01*
X129740000Y-114072500D02*
X129740000Y-99572500D01*
X131140000Y-99272500D02*
X129440000Y-99272500D01*
X136940000Y-99572500D02*
X138940000Y-99572500D01*
X138940000Y-99572500D02*
X138940000Y-100872500D01*
X138940000Y-105472500D02*
X138940000Y-114072500D01*
X138940000Y-114072500D02*
X129740000Y-114072500D01*
D16*
%TO.C,U1*%
X102733000Y-93550000D02*
X102733000Y-93710000D01*
X102733000Y-93550000D02*
X107133000Y-93550000D01*
X102733000Y-97650000D02*
X102733000Y-97490000D01*
X107133000Y-93550000D02*
X107133000Y-93710000D01*
X107133000Y-97490000D02*
X107133000Y-97650000D01*
X107133000Y-97650000D02*
X102733000Y-97650000D01*
D18*
X109577000Y-96870000D02*
G75*
G02*
X109377000Y-96870000I-100000J0D01*
G01*
X109377000Y-96870000D02*
G75*
G02*
X109577000Y-96870000I100000J0D01*
G01*
D14*
%TO.C,Q2*%
X189730000Y-90584999D02*
X189730000Y-94184999D01*
X189741522Y-90546521D02*
G75*
G02*
X194180001Y-92384999I1838478J-1838478D01*
G01*
X194180000Y-92384999D02*
G75*
G02*
X189741522Y-94223477I-2600000J0D01*
G01*
%TD*%
M02*
