%TF.GenerationSoftware,KiCad,Pcbnew,9.0.7-9.0.7~ubuntu24.04.1*%
%TF.CreationDate,2026-02-17T11:42:20-05:00*%
%TF.ProjectId,plantPartner_PCB1.0,706c616e-7450-4617-9274-6e65725f5043,rev?*%
%TF.SameCoordinates,Original*%
%TF.FileFunction,Paste,Top*%
%TF.FilePolarity,Positive*%
%FSLAX46Y46*%
G04 Gerber Fmt 4.6, Leading zero omitted, Abs format (unit mm)*
G04 Created by KiCad (PCBNEW 9.0.7-9.0.7~ubuntu24.04.1) date 2026-02-17 11:42:20*
%MOMM*%
%LPD*%
G01*
G04 APERTURE LIST*
G04 Aperture macros list*
%AMRoundRect*
0 Rectangle with rounded corners*
0 $1 Rounding radius*
0 $2 $3 $4 $5 $6 $7 $8 $9 X,Y pos of 4 corners*
0 Add a 4 corners polygon primitive as box body*
4,1,4,$2,$3,$4,$5,$6,$7,$8,$9,$2,$3,0*
0 Add four circle primitives for the rounded corners*
1,1,$1+$1,$2,$3*
1,1,$1+$1,$4,$5*
1,1,$1+$1,$6,$7*
1,1,$1+$1,$8,$9*
0 Add four rect primitives between the rounded corners*
20,1,$1+$1,$2,$3,$4,$5,0*
20,1,$1+$1,$4,$5,$6,$7,0*
20,1,$1+$1,$6,$7,$8,$9,0*
20,1,$1+$1,$8,$9,$2,$3,0*%
G04 Aperture macros list end*
%ADD10RoundRect,0.079500X0.100500X-0.079500X0.100500X0.079500X-0.100500X0.079500X-0.100500X-0.079500X0*%
%ADD11RoundRect,0.079500X-0.100500X0.079500X-0.100500X-0.079500X0.100500X-0.079500X0.100500X0.079500X0*%
%ADD12RoundRect,0.079500X-0.079500X-0.100500X0.079500X-0.100500X0.079500X0.100500X-0.079500X0.100500X0*%
%ADD13RoundRect,0.250000X-1.000000X-0.650000X1.000000X-0.650000X1.000000X0.650000X-1.000000X0.650000X0*%
%ADD14R,2.209800X0.609600*%
%ADD15RoundRect,0.079500X0.079500X0.100500X-0.079500X0.100500X-0.079500X-0.100500X0.079500X-0.100500X0*%
%ADD16R,0.600000X1.500000*%
%ADD17RoundRect,0.150000X-0.587500X-0.150000X0.587500X-0.150000X0.587500X0.150000X-0.587500X0.150000X0*%
%ADD18R,0.700000X0.250000*%
%ADD19R,1.100000X0.250000*%
%ADD20R,0.250000X0.700000*%
%ADD21R,0.250000X1.100000*%
%ADD22R,1.500000X0.600000*%
G04 APERTURE END LIST*
D10*
%TO.C,C1*%
X169090000Y-107585000D03*
X169090000Y-106895000D03*
%TD*%
%TO.C,R19*%
X195800000Y-91045000D03*
X195800000Y-90355000D03*
%TD*%
D11*
%TO.C,D11*%
X166400000Y-90575000D03*
X166400000Y-91265000D03*
%TD*%
D12*
%TO.C,D3*%
X100380000Y-106000000D03*
X101070000Y-106000000D03*
%TD*%
D11*
%TO.C,R13*%
X110250000Y-96210000D03*
X110250000Y-96900000D03*
%TD*%
D12*
%TO.C,R22*%
X157240000Y-90500000D03*
X157930000Y-90500000D03*
%TD*%
D11*
%TO.C,R27*%
X117487500Y-81205000D03*
X117487500Y-81895000D03*
%TD*%
%TO.C,D5*%
X190610000Y-95805000D03*
X190610000Y-96495000D03*
%TD*%
D10*
%TO.C,R5*%
X97088800Y-73205000D03*
X97088800Y-72515000D03*
%TD*%
%TO.C,R6*%
X96388800Y-73210000D03*
X96388800Y-72520000D03*
%TD*%
D11*
%TO.C,R25*%
X117500000Y-79505000D03*
X117500000Y-80195000D03*
%TD*%
D13*
%TO.C,D8*%
X132290000Y-96972500D03*
X136290000Y-96972500D03*
%TD*%
D10*
%TO.C,R11*%
X87638800Y-73460000D03*
X87638800Y-72770000D03*
%TD*%
D13*
%TO.C,D9*%
X145855000Y-101922500D03*
X149855000Y-101922500D03*
%TD*%
D14*
%TO.C,U2*%
X94755000Y-75020000D03*
X94755000Y-73750000D03*
X94755000Y-72480000D03*
X94755000Y-71210000D03*
X89522600Y-71210000D03*
X89522600Y-72480000D03*
X89522600Y-73750000D03*
X89522600Y-75020000D03*
%TD*%
D12*
%TO.C,D1*%
X91165000Y-68950000D03*
X91855000Y-68950000D03*
%TD*%
D15*
%TO.C,R24*%
X197145000Y-110400000D03*
X196455000Y-110400000D03*
%TD*%
D12*
%TO.C,R15*%
X101705000Y-99400000D03*
X102395000Y-99400000D03*
%TD*%
D11*
%TO.C,R7*%
X96488800Y-70425000D03*
X96488800Y-71115000D03*
%TD*%
D10*
%TO.C,R23*%
X155370000Y-60550000D03*
X155370000Y-59860000D03*
%TD*%
D15*
%TO.C,D2*%
X106005000Y-101700000D03*
X105315000Y-101700000D03*
%TD*%
%TO.C,D6*%
X185685000Y-90694999D03*
X184995000Y-90694999D03*
%TD*%
D11*
%TO.C,R9*%
X87688800Y-74170000D03*
X87688800Y-74860000D03*
%TD*%
D16*
%TO.C,U4*%
X197310000Y-96759999D03*
X199850000Y-96759999D03*
X199850000Y-90409999D03*
X197310000Y-90409999D03*
%TD*%
D10*
%TO.C,R10*%
X86888800Y-73460000D03*
X86888800Y-72770000D03*
%TD*%
D15*
%TO.C,R3*%
X164235000Y-104900000D03*
X163545000Y-104900000D03*
%TD*%
D11*
%TO.C,R18*%
X195750000Y-96110000D03*
X195750000Y-96800000D03*
%TD*%
D17*
%TO.C,Q4*%
X119012500Y-79800000D03*
X119012500Y-81700000D03*
X120887500Y-80750000D03*
%TD*%
D15*
%TO.C,C4*%
X89165000Y-66450000D03*
X88475000Y-66450000D03*
%TD*%
D11*
%TO.C,R4*%
X96288800Y-74370000D03*
X96288800Y-75060000D03*
%TD*%
D18*
%TO.C,IC1*%
X165150000Y-105920000D03*
D19*
X165350000Y-106570000D03*
X165350000Y-107220000D03*
D18*
X165150000Y-107870000D03*
X165150000Y-108720000D03*
X165150000Y-109570000D03*
X168050000Y-109570000D03*
X168050000Y-108720000D03*
X168050000Y-107870000D03*
D19*
X167850000Y-107220000D03*
X167850000Y-106570000D03*
D18*
X168050000Y-105920000D03*
D20*
X167850000Y-105020000D03*
X167350000Y-105020000D03*
D21*
X166850000Y-105220000D03*
X166350000Y-105220000D03*
D20*
X165850000Y-105020000D03*
X165350000Y-105020000D03*
%TD*%
D15*
%TO.C,R1*%
X166545000Y-104170000D03*
X165855000Y-104170000D03*
%TD*%
D12*
%TO.C,R16*%
X100355000Y-105130000D03*
X101045000Y-105130000D03*
%TD*%
D11*
%TO.C,R17*%
X191350000Y-95810000D03*
X191350000Y-96500000D03*
%TD*%
D15*
%TO.C,D10*%
X157925000Y-91200000D03*
X157235000Y-91200000D03*
%TD*%
D11*
%TO.C,R20*%
X194960000Y-90355000D03*
X194960000Y-91045000D03*
%TD*%
%TO.C,R26*%
X167300000Y-90575000D03*
X167300000Y-91265000D03*
%TD*%
D15*
%TO.C,R21*%
X185680000Y-89984999D03*
X184990000Y-89984999D03*
%TD*%
D12*
%TO.C,R8*%
X91185000Y-66450000D03*
X91875000Y-66450000D03*
%TD*%
D15*
%TO.C,C3*%
X89165000Y-68950000D03*
X88475000Y-68950000D03*
%TD*%
D12*
%TO.C,R2*%
X163700000Y-105820000D03*
X164390000Y-105820000D03*
%TD*%
D15*
%TO.C,R14*%
X103950000Y-99400000D03*
X103260000Y-99400000D03*
%TD*%
D22*
%TO.C,U1*%
X108108000Y-96870000D03*
X108108000Y-94330000D03*
X101758000Y-94330000D03*
X101758000Y-96870000D03*
%TD*%
D15*
%TO.C,R12*%
X106000000Y-101000000D03*
X105310000Y-101000000D03*
%TD*%
D11*
%TO.C,C2*%
X164090000Y-106645000D03*
X164090000Y-107335000D03*
%TD*%
M02*
