%TF.GenerationSoftware,KiCad,Pcbnew,9.0.7-9.0.7~ubuntu24.04.1*%
%TF.CreationDate,2026-02-24T12:36:22-05:00*%
%TF.ProjectId,plantPartner_PCB2.0,706c616e-7450-4617-9274-6e65725f5043,rev?*%
%TF.SameCoordinates,Original*%
%TF.FileFunction,Legend,Top*%
%TF.FilePolarity,Positive*%
%FSLAX46Y46*%
G04 Gerber Fmt 4.6, Leading zero omitted, Abs format (unit mm)*
G04 Created by KiCad (PCBNEW 9.0.7-9.0.7~ubuntu24.04.1) date 2026-02-24 12:36:22*
%MOMM*%
%LPD*%
G01*
G04 APERTURE LIST*
G04 Aperture macros list*
%AMRoundRect*
0 Rectangle with rounded corners*
0 $1 Rounding radius*
0 $2 $3 $4 $5 $6 $7 $8 $9 X,Y pos of 4 corners*
0 Add a 4 corners polygon primitive as box body*
4,1,4,$2,$3,$4,$5,$6,$7,$8,$9,$2,$3,0*
0 Add four circle primitives for the rounded corners*
1,1,$1+$1,$2,$3*
1,1,$1+$1,$4,$5*
1,1,$1+$1,$6,$7*
1,1,$1+$1,$8,$9*
0 Add four rect primitives between the rounded corners*
20,1,$1+$1,$2,$3,$4,$5,0*
20,1,$1+$1,$4,$5,$6,$7,0*
20,1,$1+$1,$6,$7,$8,$9,0*
20,1,$1+$1,$8,$9,$2,$3,0*%
G04 Aperture macros list end*
%ADD10C,0.150000*%
%ADD11C,0.080032*%
%ADD12C,0.081280*%
%ADD13C,0.120000*%
%ADD14C,0.127000*%
%ADD15C,0.200000*%
%ADD16C,0.203200*%
%ADD17C,0.152400*%
%ADD18C,0.000000*%
%ADD19RoundRect,0.250000X-1.000000X-0.650000X1.000000X-0.650000X1.000000X0.650000X-1.000000X0.650000X0*%
%ADD20RoundRect,0.102000X-1.000000X-1.000000X1.000000X-1.000000X1.000000X1.000000X-1.000000X1.000000X0*%
%ADD21C,2.204000*%
%ADD22C,3.000000*%
%ADD23RoundRect,0.102000X-0.304800X-1.104900X0.304800X-1.104900X0.304800X1.104900X-0.304800X1.104900X0*%
%ADD24RoundRect,0.135000X-0.135000X-0.185000X0.135000X-0.185000X0.135000X0.185000X-0.135000X0.185000X0*%
%ADD25RoundRect,0.200000X-0.200000X-0.275000X0.200000X-0.275000X0.200000X0.275000X-0.200000X0.275000X0*%
%ADD26RoundRect,0.150000X-0.587500X-0.150000X0.587500X-0.150000X0.587500X0.150000X-0.587500X0.150000X0*%
%ADD27C,1.100000*%
%ADD28RoundRect,0.249999X-0.850001X-0.850001X0.850001X-0.850001X0.850001X0.850001X-0.850001X0.850001X0*%
%ADD29C,2.200000*%
%ADD30R,1.700000X1.700000*%
%ADD31C,1.700000*%
%ADD32R,4.600000X2.000000*%
%ADD33O,4.200000X2.000000*%
%ADD34O,2.000000X4.200000*%
%ADD35RoundRect,0.050800X-0.350000X-0.125000X0.350000X-0.125000X0.350000X0.125000X-0.350000X0.125000X0*%
%ADD36RoundRect,0.050800X-0.550000X-0.125000X0.550000X-0.125000X0.550000X0.125000X-0.550000X0.125000X0*%
%ADD37RoundRect,0.050800X0.125000X-0.350000X0.125000X0.350000X-0.125000X0.350000X-0.125000X-0.350000X0*%
%ADD38RoundRect,0.050800X0.125000X-0.550000X0.125000X0.550000X-0.125000X0.550000X-0.125000X-0.550000X0*%
%ADD39RoundRect,0.218750X-0.218750X-0.256250X0.218750X-0.256250X0.218750X0.256250X-0.218750X0.256250X0*%
%ADD40RoundRect,0.140000X-0.140000X-0.170000X0.140000X-0.170000X0.140000X0.170000X-0.140000X0.170000X0*%
%ADD41RoundRect,0.225000X-0.225000X-0.250000X0.225000X-0.250000X0.225000X0.250000X-0.225000X0.250000X0*%
G04 APERTURE END LIST*
D10*
X141879405Y-88054819D02*
X141879405Y-87054819D01*
X141879405Y-87054819D02*
X142117500Y-87054819D01*
X142117500Y-87054819D02*
X142260357Y-87102438D01*
X142260357Y-87102438D02*
X142355595Y-87197676D01*
X142355595Y-87197676D02*
X142403214Y-87292914D01*
X142403214Y-87292914D02*
X142450833Y-87483390D01*
X142450833Y-87483390D02*
X142450833Y-87626247D01*
X142450833Y-87626247D02*
X142403214Y-87816723D01*
X142403214Y-87816723D02*
X142355595Y-87911961D01*
X142355595Y-87911961D02*
X142260357Y-88007200D01*
X142260357Y-88007200D02*
X142117500Y-88054819D01*
X142117500Y-88054819D02*
X141879405Y-88054819D01*
X142784167Y-87054819D02*
X143403214Y-87054819D01*
X143403214Y-87054819D02*
X143069881Y-87435771D01*
X143069881Y-87435771D02*
X143212738Y-87435771D01*
X143212738Y-87435771D02*
X143307976Y-87483390D01*
X143307976Y-87483390D02*
X143355595Y-87531009D01*
X143355595Y-87531009D02*
X143403214Y-87626247D01*
X143403214Y-87626247D02*
X143403214Y-87864342D01*
X143403214Y-87864342D02*
X143355595Y-87959580D01*
X143355595Y-87959580D02*
X143307976Y-88007200D01*
X143307976Y-88007200D02*
X143212738Y-88054819D01*
X143212738Y-88054819D02*
X142927024Y-88054819D01*
X142927024Y-88054819D02*
X142831786Y-88007200D01*
X142831786Y-88007200D02*
X142784167Y-87959580D01*
X92750595Y-38839819D02*
X92750595Y-39649342D01*
X92750595Y-39649342D02*
X92798214Y-39744580D01*
X92798214Y-39744580D02*
X92845833Y-39792200D01*
X92845833Y-39792200D02*
X92941071Y-39839819D01*
X92941071Y-39839819D02*
X93131547Y-39839819D01*
X93131547Y-39839819D02*
X93226785Y-39792200D01*
X93226785Y-39792200D02*
X93274404Y-39744580D01*
X93274404Y-39744580D02*
X93322023Y-39649342D01*
X93322023Y-39649342D02*
X93322023Y-38839819D01*
X93702976Y-38839819D02*
X94322023Y-38839819D01*
X94322023Y-38839819D02*
X93988690Y-39220771D01*
X93988690Y-39220771D02*
X94131547Y-39220771D01*
X94131547Y-39220771D02*
X94226785Y-39268390D01*
X94226785Y-39268390D02*
X94274404Y-39316009D01*
X94274404Y-39316009D02*
X94322023Y-39411247D01*
X94322023Y-39411247D02*
X94322023Y-39649342D01*
X94322023Y-39649342D02*
X94274404Y-39744580D01*
X94274404Y-39744580D02*
X94226785Y-39792200D01*
X94226785Y-39792200D02*
X94131547Y-39839819D01*
X94131547Y-39839819D02*
X93845833Y-39839819D01*
X93845833Y-39839819D02*
X93750595Y-39792200D01*
X93750595Y-39792200D02*
X93702976Y-39744580D01*
D11*
X140987687Y-96216627D02*
X140987687Y-96475778D01*
X140987687Y-96475778D02*
X141002932Y-96506266D01*
X141002932Y-96506266D02*
X141018176Y-96521511D01*
X141018176Y-96521511D02*
X141048664Y-96536755D01*
X141048664Y-96536755D02*
X141109641Y-96536755D01*
X141109641Y-96536755D02*
X141140129Y-96521511D01*
X141140129Y-96521511D02*
X141155374Y-96506266D01*
X141155374Y-96506266D02*
X141170618Y-96475778D01*
X141170618Y-96475778D02*
X141170618Y-96216627D01*
X141307815Y-96247115D02*
X141323059Y-96231871D01*
X141323059Y-96231871D02*
X141353548Y-96216627D01*
X141353548Y-96216627D02*
X141429769Y-96216627D01*
X141429769Y-96216627D02*
X141460257Y-96231871D01*
X141460257Y-96231871D02*
X141475501Y-96247115D01*
X141475501Y-96247115D02*
X141490746Y-96277603D01*
X141490746Y-96277603D02*
X141490746Y-96308092D01*
X141490746Y-96308092D02*
X141475501Y-96353824D01*
X141475501Y-96353824D02*
X141292571Y-96536755D01*
X141292571Y-96536755D02*
X141490746Y-96536755D01*
D10*
X146349642Y-60944819D02*
X146016309Y-60468628D01*
X145778214Y-60944819D02*
X145778214Y-59944819D01*
X145778214Y-59944819D02*
X146159166Y-59944819D01*
X146159166Y-59944819D02*
X146254404Y-59992438D01*
X146254404Y-59992438D02*
X146302023Y-60040057D01*
X146302023Y-60040057D02*
X146349642Y-60135295D01*
X146349642Y-60135295D02*
X146349642Y-60278152D01*
X146349642Y-60278152D02*
X146302023Y-60373390D01*
X146302023Y-60373390D02*
X146254404Y-60421009D01*
X146254404Y-60421009D02*
X146159166Y-60468628D01*
X146159166Y-60468628D02*
X145778214Y-60468628D01*
X146730595Y-60040057D02*
X146778214Y-59992438D01*
X146778214Y-59992438D02*
X146873452Y-59944819D01*
X146873452Y-59944819D02*
X147111547Y-59944819D01*
X147111547Y-59944819D02*
X147206785Y-59992438D01*
X147206785Y-59992438D02*
X147254404Y-60040057D01*
X147254404Y-60040057D02*
X147302023Y-60135295D01*
X147302023Y-60135295D02*
X147302023Y-60230533D01*
X147302023Y-60230533D02*
X147254404Y-60373390D01*
X147254404Y-60373390D02*
X146682976Y-60944819D01*
X146682976Y-60944819D02*
X147302023Y-60944819D01*
X147635357Y-59944819D02*
X148302023Y-59944819D01*
X148302023Y-59944819D02*
X147873452Y-60944819D01*
X146349642Y-58954819D02*
X146016309Y-58478628D01*
X145778214Y-58954819D02*
X145778214Y-57954819D01*
X145778214Y-57954819D02*
X146159166Y-57954819D01*
X146159166Y-57954819D02*
X146254404Y-58002438D01*
X146254404Y-58002438D02*
X146302023Y-58050057D01*
X146302023Y-58050057D02*
X146349642Y-58145295D01*
X146349642Y-58145295D02*
X146349642Y-58288152D01*
X146349642Y-58288152D02*
X146302023Y-58383390D01*
X146302023Y-58383390D02*
X146254404Y-58431009D01*
X146254404Y-58431009D02*
X146159166Y-58478628D01*
X146159166Y-58478628D02*
X145778214Y-58478628D01*
X146730595Y-58050057D02*
X146778214Y-58002438D01*
X146778214Y-58002438D02*
X146873452Y-57954819D01*
X146873452Y-57954819D02*
X147111547Y-57954819D01*
X147111547Y-57954819D02*
X147206785Y-58002438D01*
X147206785Y-58002438D02*
X147254404Y-58050057D01*
X147254404Y-58050057D02*
X147302023Y-58145295D01*
X147302023Y-58145295D02*
X147302023Y-58240533D01*
X147302023Y-58240533D02*
X147254404Y-58383390D01*
X147254404Y-58383390D02*
X146682976Y-58954819D01*
X146682976Y-58954819D02*
X147302023Y-58954819D01*
X148206785Y-57954819D02*
X147730595Y-57954819D01*
X147730595Y-57954819D02*
X147682976Y-58431009D01*
X147682976Y-58431009D02*
X147730595Y-58383390D01*
X147730595Y-58383390D02*
X147825833Y-58335771D01*
X147825833Y-58335771D02*
X148063928Y-58335771D01*
X148063928Y-58335771D02*
X148159166Y-58383390D01*
X148159166Y-58383390D02*
X148206785Y-58431009D01*
X148206785Y-58431009D02*
X148254404Y-58526247D01*
X148254404Y-58526247D02*
X148254404Y-58764342D01*
X148254404Y-58764342D02*
X148206785Y-58859580D01*
X148206785Y-58859580D02*
X148159166Y-58907200D01*
X148159166Y-58907200D02*
X148063928Y-58954819D01*
X148063928Y-58954819D02*
X147825833Y-58954819D01*
X147825833Y-58954819D02*
X147730595Y-58907200D01*
X147730595Y-58907200D02*
X147682976Y-58859580D01*
X146349642Y-56964819D02*
X146016309Y-56488628D01*
X145778214Y-56964819D02*
X145778214Y-55964819D01*
X145778214Y-55964819D02*
X146159166Y-55964819D01*
X146159166Y-55964819D02*
X146254404Y-56012438D01*
X146254404Y-56012438D02*
X146302023Y-56060057D01*
X146302023Y-56060057D02*
X146349642Y-56155295D01*
X146349642Y-56155295D02*
X146349642Y-56298152D01*
X146349642Y-56298152D02*
X146302023Y-56393390D01*
X146302023Y-56393390D02*
X146254404Y-56441009D01*
X146254404Y-56441009D02*
X146159166Y-56488628D01*
X146159166Y-56488628D02*
X145778214Y-56488628D01*
X146730595Y-56060057D02*
X146778214Y-56012438D01*
X146778214Y-56012438D02*
X146873452Y-55964819D01*
X146873452Y-55964819D02*
X147111547Y-55964819D01*
X147111547Y-55964819D02*
X147206785Y-56012438D01*
X147206785Y-56012438D02*
X147254404Y-56060057D01*
X147254404Y-56060057D02*
X147302023Y-56155295D01*
X147302023Y-56155295D02*
X147302023Y-56250533D01*
X147302023Y-56250533D02*
X147254404Y-56393390D01*
X147254404Y-56393390D02*
X146682976Y-56964819D01*
X146682976Y-56964819D02*
X147302023Y-56964819D01*
X148159166Y-56298152D02*
X148159166Y-56964819D01*
X147921071Y-55917200D02*
X147682976Y-56631485D01*
X147682976Y-56631485D02*
X148302023Y-56631485D01*
X146349642Y-54974819D02*
X146016309Y-54498628D01*
X145778214Y-54974819D02*
X145778214Y-53974819D01*
X145778214Y-53974819D02*
X146159166Y-53974819D01*
X146159166Y-53974819D02*
X146254404Y-54022438D01*
X146254404Y-54022438D02*
X146302023Y-54070057D01*
X146302023Y-54070057D02*
X146349642Y-54165295D01*
X146349642Y-54165295D02*
X146349642Y-54308152D01*
X146349642Y-54308152D02*
X146302023Y-54403390D01*
X146302023Y-54403390D02*
X146254404Y-54451009D01*
X146254404Y-54451009D02*
X146159166Y-54498628D01*
X146159166Y-54498628D02*
X145778214Y-54498628D01*
X146730595Y-54070057D02*
X146778214Y-54022438D01*
X146778214Y-54022438D02*
X146873452Y-53974819D01*
X146873452Y-53974819D02*
X147111547Y-53974819D01*
X147111547Y-53974819D02*
X147206785Y-54022438D01*
X147206785Y-54022438D02*
X147254404Y-54070057D01*
X147254404Y-54070057D02*
X147302023Y-54165295D01*
X147302023Y-54165295D02*
X147302023Y-54260533D01*
X147302023Y-54260533D02*
X147254404Y-54403390D01*
X147254404Y-54403390D02*
X146682976Y-54974819D01*
X146682976Y-54974819D02*
X147302023Y-54974819D01*
X147635357Y-53974819D02*
X148254404Y-53974819D01*
X148254404Y-53974819D02*
X147921071Y-54355771D01*
X147921071Y-54355771D02*
X148063928Y-54355771D01*
X148063928Y-54355771D02*
X148159166Y-54403390D01*
X148159166Y-54403390D02*
X148206785Y-54451009D01*
X148206785Y-54451009D02*
X148254404Y-54546247D01*
X148254404Y-54546247D02*
X148254404Y-54784342D01*
X148254404Y-54784342D02*
X148206785Y-54879580D01*
X148206785Y-54879580D02*
X148159166Y-54927200D01*
X148159166Y-54927200D02*
X148063928Y-54974819D01*
X148063928Y-54974819D02*
X147778214Y-54974819D01*
X147778214Y-54974819D02*
X147682976Y-54927200D01*
X147682976Y-54927200D02*
X147635357Y-54879580D01*
X146349642Y-52984819D02*
X146016309Y-52508628D01*
X145778214Y-52984819D02*
X145778214Y-51984819D01*
X145778214Y-51984819D02*
X146159166Y-51984819D01*
X146159166Y-51984819D02*
X146254404Y-52032438D01*
X146254404Y-52032438D02*
X146302023Y-52080057D01*
X146302023Y-52080057D02*
X146349642Y-52175295D01*
X146349642Y-52175295D02*
X146349642Y-52318152D01*
X146349642Y-52318152D02*
X146302023Y-52413390D01*
X146302023Y-52413390D02*
X146254404Y-52461009D01*
X146254404Y-52461009D02*
X146159166Y-52508628D01*
X146159166Y-52508628D02*
X145778214Y-52508628D01*
X146730595Y-52080057D02*
X146778214Y-52032438D01*
X146778214Y-52032438D02*
X146873452Y-51984819D01*
X146873452Y-51984819D02*
X147111547Y-51984819D01*
X147111547Y-51984819D02*
X147206785Y-52032438D01*
X147206785Y-52032438D02*
X147254404Y-52080057D01*
X147254404Y-52080057D02*
X147302023Y-52175295D01*
X147302023Y-52175295D02*
X147302023Y-52270533D01*
X147302023Y-52270533D02*
X147254404Y-52413390D01*
X147254404Y-52413390D02*
X146682976Y-52984819D01*
X146682976Y-52984819D02*
X147302023Y-52984819D01*
X147682976Y-52080057D02*
X147730595Y-52032438D01*
X147730595Y-52032438D02*
X147825833Y-51984819D01*
X147825833Y-51984819D02*
X148063928Y-51984819D01*
X148063928Y-51984819D02*
X148159166Y-52032438D01*
X148159166Y-52032438D02*
X148206785Y-52080057D01*
X148206785Y-52080057D02*
X148254404Y-52175295D01*
X148254404Y-52175295D02*
X148254404Y-52270533D01*
X148254404Y-52270533D02*
X148206785Y-52413390D01*
X148206785Y-52413390D02*
X147635357Y-52984819D01*
X147635357Y-52984819D02*
X148254404Y-52984819D01*
X143439642Y-60944819D02*
X143106309Y-60468628D01*
X142868214Y-60944819D02*
X142868214Y-59944819D01*
X142868214Y-59944819D02*
X143249166Y-59944819D01*
X143249166Y-59944819D02*
X143344404Y-59992438D01*
X143344404Y-59992438D02*
X143392023Y-60040057D01*
X143392023Y-60040057D02*
X143439642Y-60135295D01*
X143439642Y-60135295D02*
X143439642Y-60278152D01*
X143439642Y-60278152D02*
X143392023Y-60373390D01*
X143392023Y-60373390D02*
X143344404Y-60421009D01*
X143344404Y-60421009D02*
X143249166Y-60468628D01*
X143249166Y-60468628D02*
X142868214Y-60468628D01*
X144392023Y-60944819D02*
X143820595Y-60944819D01*
X144106309Y-60944819D02*
X144106309Y-59944819D01*
X144106309Y-59944819D02*
X144011071Y-60087676D01*
X144011071Y-60087676D02*
X143915833Y-60182914D01*
X143915833Y-60182914D02*
X143820595Y-60230533D01*
X145249166Y-59944819D02*
X145058690Y-59944819D01*
X145058690Y-59944819D02*
X144963452Y-59992438D01*
X144963452Y-59992438D02*
X144915833Y-60040057D01*
X144915833Y-60040057D02*
X144820595Y-60182914D01*
X144820595Y-60182914D02*
X144772976Y-60373390D01*
X144772976Y-60373390D02*
X144772976Y-60754342D01*
X144772976Y-60754342D02*
X144820595Y-60849580D01*
X144820595Y-60849580D02*
X144868214Y-60897200D01*
X144868214Y-60897200D02*
X144963452Y-60944819D01*
X144963452Y-60944819D02*
X145153928Y-60944819D01*
X145153928Y-60944819D02*
X145249166Y-60897200D01*
X145249166Y-60897200D02*
X145296785Y-60849580D01*
X145296785Y-60849580D02*
X145344404Y-60754342D01*
X145344404Y-60754342D02*
X145344404Y-60516247D01*
X145344404Y-60516247D02*
X145296785Y-60421009D01*
X145296785Y-60421009D02*
X145249166Y-60373390D01*
X145249166Y-60373390D02*
X145153928Y-60325771D01*
X145153928Y-60325771D02*
X144963452Y-60325771D01*
X144963452Y-60325771D02*
X144868214Y-60373390D01*
X144868214Y-60373390D02*
X144820595Y-60421009D01*
X144820595Y-60421009D02*
X144772976Y-60516247D01*
X143439642Y-58954819D02*
X143106309Y-58478628D01*
X142868214Y-58954819D02*
X142868214Y-57954819D01*
X142868214Y-57954819D02*
X143249166Y-57954819D01*
X143249166Y-57954819D02*
X143344404Y-58002438D01*
X143344404Y-58002438D02*
X143392023Y-58050057D01*
X143392023Y-58050057D02*
X143439642Y-58145295D01*
X143439642Y-58145295D02*
X143439642Y-58288152D01*
X143439642Y-58288152D02*
X143392023Y-58383390D01*
X143392023Y-58383390D02*
X143344404Y-58431009D01*
X143344404Y-58431009D02*
X143249166Y-58478628D01*
X143249166Y-58478628D02*
X142868214Y-58478628D01*
X144392023Y-58954819D02*
X143820595Y-58954819D01*
X144106309Y-58954819D02*
X144106309Y-57954819D01*
X144106309Y-57954819D02*
X144011071Y-58097676D01*
X144011071Y-58097676D02*
X143915833Y-58192914D01*
X143915833Y-58192914D02*
X143820595Y-58240533D01*
X145296785Y-57954819D02*
X144820595Y-57954819D01*
X144820595Y-57954819D02*
X144772976Y-58431009D01*
X144772976Y-58431009D02*
X144820595Y-58383390D01*
X144820595Y-58383390D02*
X144915833Y-58335771D01*
X144915833Y-58335771D02*
X145153928Y-58335771D01*
X145153928Y-58335771D02*
X145249166Y-58383390D01*
X145249166Y-58383390D02*
X145296785Y-58431009D01*
X145296785Y-58431009D02*
X145344404Y-58526247D01*
X145344404Y-58526247D02*
X145344404Y-58764342D01*
X145344404Y-58764342D02*
X145296785Y-58859580D01*
X145296785Y-58859580D02*
X145249166Y-58907200D01*
X145249166Y-58907200D02*
X145153928Y-58954819D01*
X145153928Y-58954819D02*
X144915833Y-58954819D01*
X144915833Y-58954819D02*
X144820595Y-58907200D01*
X144820595Y-58907200D02*
X144772976Y-58859580D01*
X143439642Y-56964819D02*
X143106309Y-56488628D01*
X142868214Y-56964819D02*
X142868214Y-55964819D01*
X142868214Y-55964819D02*
X143249166Y-55964819D01*
X143249166Y-55964819D02*
X143344404Y-56012438D01*
X143344404Y-56012438D02*
X143392023Y-56060057D01*
X143392023Y-56060057D02*
X143439642Y-56155295D01*
X143439642Y-56155295D02*
X143439642Y-56298152D01*
X143439642Y-56298152D02*
X143392023Y-56393390D01*
X143392023Y-56393390D02*
X143344404Y-56441009D01*
X143344404Y-56441009D02*
X143249166Y-56488628D01*
X143249166Y-56488628D02*
X142868214Y-56488628D01*
X144392023Y-56964819D02*
X143820595Y-56964819D01*
X144106309Y-56964819D02*
X144106309Y-55964819D01*
X144106309Y-55964819D02*
X144011071Y-56107676D01*
X144011071Y-56107676D02*
X143915833Y-56202914D01*
X143915833Y-56202914D02*
X143820595Y-56250533D01*
X145249166Y-56298152D02*
X145249166Y-56964819D01*
X145011071Y-55917200D02*
X144772976Y-56631485D01*
X144772976Y-56631485D02*
X145392023Y-56631485D01*
X143439642Y-54974819D02*
X143106309Y-54498628D01*
X142868214Y-54974819D02*
X142868214Y-53974819D01*
X142868214Y-53974819D02*
X143249166Y-53974819D01*
X143249166Y-53974819D02*
X143344404Y-54022438D01*
X143344404Y-54022438D02*
X143392023Y-54070057D01*
X143392023Y-54070057D02*
X143439642Y-54165295D01*
X143439642Y-54165295D02*
X143439642Y-54308152D01*
X143439642Y-54308152D02*
X143392023Y-54403390D01*
X143392023Y-54403390D02*
X143344404Y-54451009D01*
X143344404Y-54451009D02*
X143249166Y-54498628D01*
X143249166Y-54498628D02*
X142868214Y-54498628D01*
X144392023Y-54974819D02*
X143820595Y-54974819D01*
X144106309Y-54974819D02*
X144106309Y-53974819D01*
X144106309Y-53974819D02*
X144011071Y-54117676D01*
X144011071Y-54117676D02*
X143915833Y-54212914D01*
X143915833Y-54212914D02*
X143820595Y-54260533D01*
X144725357Y-53974819D02*
X145344404Y-53974819D01*
X145344404Y-53974819D02*
X145011071Y-54355771D01*
X145011071Y-54355771D02*
X145153928Y-54355771D01*
X145153928Y-54355771D02*
X145249166Y-54403390D01*
X145249166Y-54403390D02*
X145296785Y-54451009D01*
X145296785Y-54451009D02*
X145344404Y-54546247D01*
X145344404Y-54546247D02*
X145344404Y-54784342D01*
X145344404Y-54784342D02*
X145296785Y-54879580D01*
X145296785Y-54879580D02*
X145249166Y-54927200D01*
X145249166Y-54927200D02*
X145153928Y-54974819D01*
X145153928Y-54974819D02*
X144868214Y-54974819D01*
X144868214Y-54974819D02*
X144772976Y-54927200D01*
X144772976Y-54927200D02*
X144725357Y-54879580D01*
X143439642Y-52984819D02*
X143106309Y-52508628D01*
X142868214Y-52984819D02*
X142868214Y-51984819D01*
X142868214Y-51984819D02*
X143249166Y-51984819D01*
X143249166Y-51984819D02*
X143344404Y-52032438D01*
X143344404Y-52032438D02*
X143392023Y-52080057D01*
X143392023Y-52080057D02*
X143439642Y-52175295D01*
X143439642Y-52175295D02*
X143439642Y-52318152D01*
X143439642Y-52318152D02*
X143392023Y-52413390D01*
X143392023Y-52413390D02*
X143344404Y-52461009D01*
X143344404Y-52461009D02*
X143249166Y-52508628D01*
X143249166Y-52508628D02*
X142868214Y-52508628D01*
X144392023Y-52984819D02*
X143820595Y-52984819D01*
X144106309Y-52984819D02*
X144106309Y-51984819D01*
X144106309Y-51984819D02*
X144011071Y-52127676D01*
X144011071Y-52127676D02*
X143915833Y-52222914D01*
X143915833Y-52222914D02*
X143820595Y-52270533D01*
X144772976Y-52080057D02*
X144820595Y-52032438D01*
X144820595Y-52032438D02*
X144915833Y-51984819D01*
X144915833Y-51984819D02*
X145153928Y-51984819D01*
X145153928Y-51984819D02*
X145249166Y-52032438D01*
X145249166Y-52032438D02*
X145296785Y-52080057D01*
X145296785Y-52080057D02*
X145344404Y-52175295D01*
X145344404Y-52175295D02*
X145344404Y-52270533D01*
X145344404Y-52270533D02*
X145296785Y-52413390D01*
X145296785Y-52413390D02*
X144725357Y-52984819D01*
X144725357Y-52984819D02*
X145344404Y-52984819D01*
X140529642Y-60944819D02*
X140196309Y-60468628D01*
X139958214Y-60944819D02*
X139958214Y-59944819D01*
X139958214Y-59944819D02*
X140339166Y-59944819D01*
X140339166Y-59944819D02*
X140434404Y-59992438D01*
X140434404Y-59992438D02*
X140482023Y-60040057D01*
X140482023Y-60040057D02*
X140529642Y-60135295D01*
X140529642Y-60135295D02*
X140529642Y-60278152D01*
X140529642Y-60278152D02*
X140482023Y-60373390D01*
X140482023Y-60373390D02*
X140434404Y-60421009D01*
X140434404Y-60421009D02*
X140339166Y-60468628D01*
X140339166Y-60468628D02*
X139958214Y-60468628D01*
X141482023Y-60944819D02*
X140910595Y-60944819D01*
X141196309Y-60944819D02*
X141196309Y-59944819D01*
X141196309Y-59944819D02*
X141101071Y-60087676D01*
X141101071Y-60087676D02*
X141005833Y-60182914D01*
X141005833Y-60182914D02*
X140910595Y-60230533D01*
X142434404Y-60944819D02*
X141862976Y-60944819D01*
X142148690Y-60944819D02*
X142148690Y-59944819D01*
X142148690Y-59944819D02*
X142053452Y-60087676D01*
X142053452Y-60087676D02*
X141958214Y-60182914D01*
X141958214Y-60182914D02*
X141862976Y-60230533D01*
X140529642Y-58954819D02*
X140196309Y-58478628D01*
X139958214Y-58954819D02*
X139958214Y-57954819D01*
X139958214Y-57954819D02*
X140339166Y-57954819D01*
X140339166Y-57954819D02*
X140434404Y-58002438D01*
X140434404Y-58002438D02*
X140482023Y-58050057D01*
X140482023Y-58050057D02*
X140529642Y-58145295D01*
X140529642Y-58145295D02*
X140529642Y-58288152D01*
X140529642Y-58288152D02*
X140482023Y-58383390D01*
X140482023Y-58383390D02*
X140434404Y-58431009D01*
X140434404Y-58431009D02*
X140339166Y-58478628D01*
X140339166Y-58478628D02*
X139958214Y-58478628D01*
X141482023Y-58954819D02*
X140910595Y-58954819D01*
X141196309Y-58954819D02*
X141196309Y-57954819D01*
X141196309Y-57954819D02*
X141101071Y-58097676D01*
X141101071Y-58097676D02*
X141005833Y-58192914D01*
X141005833Y-58192914D02*
X140910595Y-58240533D01*
X142101071Y-57954819D02*
X142196309Y-57954819D01*
X142196309Y-57954819D02*
X142291547Y-58002438D01*
X142291547Y-58002438D02*
X142339166Y-58050057D01*
X142339166Y-58050057D02*
X142386785Y-58145295D01*
X142386785Y-58145295D02*
X142434404Y-58335771D01*
X142434404Y-58335771D02*
X142434404Y-58573866D01*
X142434404Y-58573866D02*
X142386785Y-58764342D01*
X142386785Y-58764342D02*
X142339166Y-58859580D01*
X142339166Y-58859580D02*
X142291547Y-58907200D01*
X142291547Y-58907200D02*
X142196309Y-58954819D01*
X142196309Y-58954819D02*
X142101071Y-58954819D01*
X142101071Y-58954819D02*
X142005833Y-58907200D01*
X142005833Y-58907200D02*
X141958214Y-58859580D01*
X141958214Y-58859580D02*
X141910595Y-58764342D01*
X141910595Y-58764342D02*
X141862976Y-58573866D01*
X141862976Y-58573866D02*
X141862976Y-58335771D01*
X141862976Y-58335771D02*
X141910595Y-58145295D01*
X141910595Y-58145295D02*
X141958214Y-58050057D01*
X141958214Y-58050057D02*
X142005833Y-58002438D01*
X142005833Y-58002438D02*
X142101071Y-57954819D01*
X141005833Y-56964819D02*
X140672500Y-56488628D01*
X140434405Y-56964819D02*
X140434405Y-55964819D01*
X140434405Y-55964819D02*
X140815357Y-55964819D01*
X140815357Y-55964819D02*
X140910595Y-56012438D01*
X140910595Y-56012438D02*
X140958214Y-56060057D01*
X140958214Y-56060057D02*
X141005833Y-56155295D01*
X141005833Y-56155295D02*
X141005833Y-56298152D01*
X141005833Y-56298152D02*
X140958214Y-56393390D01*
X140958214Y-56393390D02*
X140910595Y-56441009D01*
X140910595Y-56441009D02*
X140815357Y-56488628D01*
X140815357Y-56488628D02*
X140434405Y-56488628D01*
X141482024Y-56964819D02*
X141672500Y-56964819D01*
X141672500Y-56964819D02*
X141767738Y-56917200D01*
X141767738Y-56917200D02*
X141815357Y-56869580D01*
X141815357Y-56869580D02*
X141910595Y-56726723D01*
X141910595Y-56726723D02*
X141958214Y-56536247D01*
X141958214Y-56536247D02*
X141958214Y-56155295D01*
X141958214Y-56155295D02*
X141910595Y-56060057D01*
X141910595Y-56060057D02*
X141862976Y-56012438D01*
X141862976Y-56012438D02*
X141767738Y-55964819D01*
X141767738Y-55964819D02*
X141577262Y-55964819D01*
X141577262Y-55964819D02*
X141482024Y-56012438D01*
X141482024Y-56012438D02*
X141434405Y-56060057D01*
X141434405Y-56060057D02*
X141386786Y-56155295D01*
X141386786Y-56155295D02*
X141386786Y-56393390D01*
X141386786Y-56393390D02*
X141434405Y-56488628D01*
X141434405Y-56488628D02*
X141482024Y-56536247D01*
X141482024Y-56536247D02*
X141577262Y-56583866D01*
X141577262Y-56583866D02*
X141767738Y-56583866D01*
X141767738Y-56583866D02*
X141862976Y-56536247D01*
X141862976Y-56536247D02*
X141910595Y-56488628D01*
X141910595Y-56488628D02*
X141958214Y-56393390D01*
X141005833Y-54974819D02*
X140672500Y-54498628D01*
X140434405Y-54974819D02*
X140434405Y-53974819D01*
X140434405Y-53974819D02*
X140815357Y-53974819D01*
X140815357Y-53974819D02*
X140910595Y-54022438D01*
X140910595Y-54022438D02*
X140958214Y-54070057D01*
X140958214Y-54070057D02*
X141005833Y-54165295D01*
X141005833Y-54165295D02*
X141005833Y-54308152D01*
X141005833Y-54308152D02*
X140958214Y-54403390D01*
X140958214Y-54403390D02*
X140910595Y-54451009D01*
X140910595Y-54451009D02*
X140815357Y-54498628D01*
X140815357Y-54498628D02*
X140434405Y-54498628D01*
X141577262Y-54403390D02*
X141482024Y-54355771D01*
X141482024Y-54355771D02*
X141434405Y-54308152D01*
X141434405Y-54308152D02*
X141386786Y-54212914D01*
X141386786Y-54212914D02*
X141386786Y-54165295D01*
X141386786Y-54165295D02*
X141434405Y-54070057D01*
X141434405Y-54070057D02*
X141482024Y-54022438D01*
X141482024Y-54022438D02*
X141577262Y-53974819D01*
X141577262Y-53974819D02*
X141767738Y-53974819D01*
X141767738Y-53974819D02*
X141862976Y-54022438D01*
X141862976Y-54022438D02*
X141910595Y-54070057D01*
X141910595Y-54070057D02*
X141958214Y-54165295D01*
X141958214Y-54165295D02*
X141958214Y-54212914D01*
X141958214Y-54212914D02*
X141910595Y-54308152D01*
X141910595Y-54308152D02*
X141862976Y-54355771D01*
X141862976Y-54355771D02*
X141767738Y-54403390D01*
X141767738Y-54403390D02*
X141577262Y-54403390D01*
X141577262Y-54403390D02*
X141482024Y-54451009D01*
X141482024Y-54451009D02*
X141434405Y-54498628D01*
X141434405Y-54498628D02*
X141386786Y-54593866D01*
X141386786Y-54593866D02*
X141386786Y-54784342D01*
X141386786Y-54784342D02*
X141434405Y-54879580D01*
X141434405Y-54879580D02*
X141482024Y-54927200D01*
X141482024Y-54927200D02*
X141577262Y-54974819D01*
X141577262Y-54974819D02*
X141767738Y-54974819D01*
X141767738Y-54974819D02*
X141862976Y-54927200D01*
X141862976Y-54927200D02*
X141910595Y-54879580D01*
X141910595Y-54879580D02*
X141958214Y-54784342D01*
X141958214Y-54784342D02*
X141958214Y-54593866D01*
X141958214Y-54593866D02*
X141910595Y-54498628D01*
X141910595Y-54498628D02*
X141862976Y-54451009D01*
X141862976Y-54451009D02*
X141767738Y-54403390D01*
X141005833Y-52984819D02*
X140672500Y-52508628D01*
X140434405Y-52984819D02*
X140434405Y-51984819D01*
X140434405Y-51984819D02*
X140815357Y-51984819D01*
X140815357Y-51984819D02*
X140910595Y-52032438D01*
X140910595Y-52032438D02*
X140958214Y-52080057D01*
X140958214Y-52080057D02*
X141005833Y-52175295D01*
X141005833Y-52175295D02*
X141005833Y-52318152D01*
X141005833Y-52318152D02*
X140958214Y-52413390D01*
X140958214Y-52413390D02*
X140910595Y-52461009D01*
X140910595Y-52461009D02*
X140815357Y-52508628D01*
X140815357Y-52508628D02*
X140434405Y-52508628D01*
X141339167Y-51984819D02*
X142005833Y-51984819D01*
X142005833Y-51984819D02*
X141577262Y-52984819D01*
X138095833Y-60944819D02*
X137762500Y-60468628D01*
X137524405Y-60944819D02*
X137524405Y-59944819D01*
X137524405Y-59944819D02*
X137905357Y-59944819D01*
X137905357Y-59944819D02*
X138000595Y-59992438D01*
X138000595Y-59992438D02*
X138048214Y-60040057D01*
X138048214Y-60040057D02*
X138095833Y-60135295D01*
X138095833Y-60135295D02*
X138095833Y-60278152D01*
X138095833Y-60278152D02*
X138048214Y-60373390D01*
X138048214Y-60373390D02*
X138000595Y-60421009D01*
X138000595Y-60421009D02*
X137905357Y-60468628D01*
X137905357Y-60468628D02*
X137524405Y-60468628D01*
X138952976Y-59944819D02*
X138762500Y-59944819D01*
X138762500Y-59944819D02*
X138667262Y-59992438D01*
X138667262Y-59992438D02*
X138619643Y-60040057D01*
X138619643Y-60040057D02*
X138524405Y-60182914D01*
X138524405Y-60182914D02*
X138476786Y-60373390D01*
X138476786Y-60373390D02*
X138476786Y-60754342D01*
X138476786Y-60754342D02*
X138524405Y-60849580D01*
X138524405Y-60849580D02*
X138572024Y-60897200D01*
X138572024Y-60897200D02*
X138667262Y-60944819D01*
X138667262Y-60944819D02*
X138857738Y-60944819D01*
X138857738Y-60944819D02*
X138952976Y-60897200D01*
X138952976Y-60897200D02*
X139000595Y-60849580D01*
X139000595Y-60849580D02*
X139048214Y-60754342D01*
X139048214Y-60754342D02*
X139048214Y-60516247D01*
X139048214Y-60516247D02*
X139000595Y-60421009D01*
X139000595Y-60421009D02*
X138952976Y-60373390D01*
X138952976Y-60373390D02*
X138857738Y-60325771D01*
X138857738Y-60325771D02*
X138667262Y-60325771D01*
X138667262Y-60325771D02*
X138572024Y-60373390D01*
X138572024Y-60373390D02*
X138524405Y-60421009D01*
X138524405Y-60421009D02*
X138476786Y-60516247D01*
X138095833Y-58954819D02*
X137762500Y-58478628D01*
X137524405Y-58954819D02*
X137524405Y-57954819D01*
X137524405Y-57954819D02*
X137905357Y-57954819D01*
X137905357Y-57954819D02*
X138000595Y-58002438D01*
X138000595Y-58002438D02*
X138048214Y-58050057D01*
X138048214Y-58050057D02*
X138095833Y-58145295D01*
X138095833Y-58145295D02*
X138095833Y-58288152D01*
X138095833Y-58288152D02*
X138048214Y-58383390D01*
X138048214Y-58383390D02*
X138000595Y-58431009D01*
X138000595Y-58431009D02*
X137905357Y-58478628D01*
X137905357Y-58478628D02*
X137524405Y-58478628D01*
X139000595Y-57954819D02*
X138524405Y-57954819D01*
X138524405Y-57954819D02*
X138476786Y-58431009D01*
X138476786Y-58431009D02*
X138524405Y-58383390D01*
X138524405Y-58383390D02*
X138619643Y-58335771D01*
X138619643Y-58335771D02*
X138857738Y-58335771D01*
X138857738Y-58335771D02*
X138952976Y-58383390D01*
X138952976Y-58383390D02*
X139000595Y-58431009D01*
X139000595Y-58431009D02*
X139048214Y-58526247D01*
X139048214Y-58526247D02*
X139048214Y-58764342D01*
X139048214Y-58764342D02*
X139000595Y-58859580D01*
X139000595Y-58859580D02*
X138952976Y-58907200D01*
X138952976Y-58907200D02*
X138857738Y-58954819D01*
X138857738Y-58954819D02*
X138619643Y-58954819D01*
X138619643Y-58954819D02*
X138524405Y-58907200D01*
X138524405Y-58907200D02*
X138476786Y-58859580D01*
X138095833Y-56964819D02*
X137762500Y-56488628D01*
X137524405Y-56964819D02*
X137524405Y-55964819D01*
X137524405Y-55964819D02*
X137905357Y-55964819D01*
X137905357Y-55964819D02*
X138000595Y-56012438D01*
X138000595Y-56012438D02*
X138048214Y-56060057D01*
X138048214Y-56060057D02*
X138095833Y-56155295D01*
X138095833Y-56155295D02*
X138095833Y-56298152D01*
X138095833Y-56298152D02*
X138048214Y-56393390D01*
X138048214Y-56393390D02*
X138000595Y-56441009D01*
X138000595Y-56441009D02*
X137905357Y-56488628D01*
X137905357Y-56488628D02*
X137524405Y-56488628D01*
X138952976Y-56298152D02*
X138952976Y-56964819D01*
X138714881Y-55917200D02*
X138476786Y-56631485D01*
X138476786Y-56631485D02*
X139095833Y-56631485D01*
X138645833Y-67954819D02*
X138312500Y-67478628D01*
X138074405Y-67954819D02*
X138074405Y-66954819D01*
X138074405Y-66954819D02*
X138455357Y-66954819D01*
X138455357Y-66954819D02*
X138550595Y-67002438D01*
X138550595Y-67002438D02*
X138598214Y-67050057D01*
X138598214Y-67050057D02*
X138645833Y-67145295D01*
X138645833Y-67145295D02*
X138645833Y-67288152D01*
X138645833Y-67288152D02*
X138598214Y-67383390D01*
X138598214Y-67383390D02*
X138550595Y-67431009D01*
X138550595Y-67431009D02*
X138455357Y-67478628D01*
X138455357Y-67478628D02*
X138074405Y-67478628D01*
X138979167Y-66954819D02*
X139598214Y-66954819D01*
X139598214Y-66954819D02*
X139264881Y-67335771D01*
X139264881Y-67335771D02*
X139407738Y-67335771D01*
X139407738Y-67335771D02*
X139502976Y-67383390D01*
X139502976Y-67383390D02*
X139550595Y-67431009D01*
X139550595Y-67431009D02*
X139598214Y-67526247D01*
X139598214Y-67526247D02*
X139598214Y-67764342D01*
X139598214Y-67764342D02*
X139550595Y-67859580D01*
X139550595Y-67859580D02*
X139502976Y-67907200D01*
X139502976Y-67907200D02*
X139407738Y-67954819D01*
X139407738Y-67954819D02*
X139122024Y-67954819D01*
X139122024Y-67954819D02*
X139026786Y-67907200D01*
X139026786Y-67907200D02*
X138979167Y-67859580D01*
X138095833Y-54974819D02*
X137762500Y-54498628D01*
X137524405Y-54974819D02*
X137524405Y-53974819D01*
X137524405Y-53974819D02*
X137905357Y-53974819D01*
X137905357Y-53974819D02*
X138000595Y-54022438D01*
X138000595Y-54022438D02*
X138048214Y-54070057D01*
X138048214Y-54070057D02*
X138095833Y-54165295D01*
X138095833Y-54165295D02*
X138095833Y-54308152D01*
X138095833Y-54308152D02*
X138048214Y-54403390D01*
X138048214Y-54403390D02*
X138000595Y-54451009D01*
X138000595Y-54451009D02*
X137905357Y-54498628D01*
X137905357Y-54498628D02*
X137524405Y-54498628D01*
X138476786Y-54070057D02*
X138524405Y-54022438D01*
X138524405Y-54022438D02*
X138619643Y-53974819D01*
X138619643Y-53974819D02*
X138857738Y-53974819D01*
X138857738Y-53974819D02*
X138952976Y-54022438D01*
X138952976Y-54022438D02*
X139000595Y-54070057D01*
X139000595Y-54070057D02*
X139048214Y-54165295D01*
X139048214Y-54165295D02*
X139048214Y-54260533D01*
X139048214Y-54260533D02*
X139000595Y-54403390D01*
X139000595Y-54403390D02*
X138429167Y-54974819D01*
X138429167Y-54974819D02*
X139048214Y-54974819D01*
X138095833Y-52984819D02*
X137762500Y-52508628D01*
X137524405Y-52984819D02*
X137524405Y-51984819D01*
X137524405Y-51984819D02*
X137905357Y-51984819D01*
X137905357Y-51984819D02*
X138000595Y-52032438D01*
X138000595Y-52032438D02*
X138048214Y-52080057D01*
X138048214Y-52080057D02*
X138095833Y-52175295D01*
X138095833Y-52175295D02*
X138095833Y-52318152D01*
X138095833Y-52318152D02*
X138048214Y-52413390D01*
X138048214Y-52413390D02*
X138000595Y-52461009D01*
X138000595Y-52461009D02*
X137905357Y-52508628D01*
X137905357Y-52508628D02*
X137524405Y-52508628D01*
X139048214Y-52984819D02*
X138476786Y-52984819D01*
X138762500Y-52984819D02*
X138762500Y-51984819D01*
X138762500Y-51984819D02*
X138667262Y-52127676D01*
X138667262Y-52127676D02*
X138572024Y-52222914D01*
X138572024Y-52222914D02*
X138476786Y-52270533D01*
X135997261Y-92550057D02*
X135902023Y-92502438D01*
X135902023Y-92502438D02*
X135806785Y-92407200D01*
X135806785Y-92407200D02*
X135663928Y-92264342D01*
X135663928Y-92264342D02*
X135568690Y-92216723D01*
X135568690Y-92216723D02*
X135473452Y-92216723D01*
X135521071Y-92454819D02*
X135425833Y-92407200D01*
X135425833Y-92407200D02*
X135330595Y-92311961D01*
X135330595Y-92311961D02*
X135282976Y-92121485D01*
X135282976Y-92121485D02*
X135282976Y-91788152D01*
X135282976Y-91788152D02*
X135330595Y-91597676D01*
X135330595Y-91597676D02*
X135425833Y-91502438D01*
X135425833Y-91502438D02*
X135521071Y-91454819D01*
X135521071Y-91454819D02*
X135711547Y-91454819D01*
X135711547Y-91454819D02*
X135806785Y-91502438D01*
X135806785Y-91502438D02*
X135902023Y-91597676D01*
X135902023Y-91597676D02*
X135949642Y-91788152D01*
X135949642Y-91788152D02*
X135949642Y-92121485D01*
X135949642Y-92121485D02*
X135902023Y-92311961D01*
X135902023Y-92311961D02*
X135806785Y-92407200D01*
X135806785Y-92407200D02*
X135711547Y-92454819D01*
X135711547Y-92454819D02*
X135521071Y-92454819D01*
X136806785Y-91788152D02*
X136806785Y-92454819D01*
X136568690Y-91407200D02*
X136330595Y-92121485D01*
X136330595Y-92121485D02*
X136949642Y-92121485D01*
X135997261Y-88100057D02*
X135902023Y-88052438D01*
X135902023Y-88052438D02*
X135806785Y-87957200D01*
X135806785Y-87957200D02*
X135663928Y-87814342D01*
X135663928Y-87814342D02*
X135568690Y-87766723D01*
X135568690Y-87766723D02*
X135473452Y-87766723D01*
X135521071Y-88004819D02*
X135425833Y-87957200D01*
X135425833Y-87957200D02*
X135330595Y-87861961D01*
X135330595Y-87861961D02*
X135282976Y-87671485D01*
X135282976Y-87671485D02*
X135282976Y-87338152D01*
X135282976Y-87338152D02*
X135330595Y-87147676D01*
X135330595Y-87147676D02*
X135425833Y-87052438D01*
X135425833Y-87052438D02*
X135521071Y-87004819D01*
X135521071Y-87004819D02*
X135711547Y-87004819D01*
X135711547Y-87004819D02*
X135806785Y-87052438D01*
X135806785Y-87052438D02*
X135902023Y-87147676D01*
X135902023Y-87147676D02*
X135949642Y-87338152D01*
X135949642Y-87338152D02*
X135949642Y-87671485D01*
X135949642Y-87671485D02*
X135902023Y-87861961D01*
X135902023Y-87861961D02*
X135806785Y-87957200D01*
X135806785Y-87957200D02*
X135711547Y-88004819D01*
X135711547Y-88004819D02*
X135521071Y-88004819D01*
X136330595Y-87100057D02*
X136378214Y-87052438D01*
X136378214Y-87052438D02*
X136473452Y-87004819D01*
X136473452Y-87004819D02*
X136711547Y-87004819D01*
X136711547Y-87004819D02*
X136806785Y-87052438D01*
X136806785Y-87052438D02*
X136854404Y-87100057D01*
X136854404Y-87100057D02*
X136902023Y-87195295D01*
X136902023Y-87195295D02*
X136902023Y-87290533D01*
X136902023Y-87290533D02*
X136854404Y-87433390D01*
X136854404Y-87433390D02*
X136282976Y-88004819D01*
X136282976Y-88004819D02*
X136902023Y-88004819D01*
X135997261Y-83650057D02*
X135902023Y-83602438D01*
X135902023Y-83602438D02*
X135806785Y-83507200D01*
X135806785Y-83507200D02*
X135663928Y-83364342D01*
X135663928Y-83364342D02*
X135568690Y-83316723D01*
X135568690Y-83316723D02*
X135473452Y-83316723D01*
X135521071Y-83554819D02*
X135425833Y-83507200D01*
X135425833Y-83507200D02*
X135330595Y-83411961D01*
X135330595Y-83411961D02*
X135282976Y-83221485D01*
X135282976Y-83221485D02*
X135282976Y-82888152D01*
X135282976Y-82888152D02*
X135330595Y-82697676D01*
X135330595Y-82697676D02*
X135425833Y-82602438D01*
X135425833Y-82602438D02*
X135521071Y-82554819D01*
X135521071Y-82554819D02*
X135711547Y-82554819D01*
X135711547Y-82554819D02*
X135806785Y-82602438D01*
X135806785Y-82602438D02*
X135902023Y-82697676D01*
X135902023Y-82697676D02*
X135949642Y-82888152D01*
X135949642Y-82888152D02*
X135949642Y-83221485D01*
X135949642Y-83221485D02*
X135902023Y-83411961D01*
X135902023Y-83411961D02*
X135806785Y-83507200D01*
X135806785Y-83507200D02*
X135711547Y-83554819D01*
X135711547Y-83554819D02*
X135521071Y-83554819D01*
X136902023Y-83554819D02*
X136330595Y-83554819D01*
X136616309Y-83554819D02*
X136616309Y-82554819D01*
X136616309Y-82554819D02*
X136521071Y-82697676D01*
X136521071Y-82697676D02*
X136425833Y-82792914D01*
X136425833Y-82792914D02*
X136330595Y-82840533D01*
X115072976Y-92354819D02*
X115072976Y-93069104D01*
X115072976Y-93069104D02*
X115025357Y-93211961D01*
X115025357Y-93211961D02*
X114930119Y-93307200D01*
X114930119Y-93307200D02*
X114787262Y-93354819D01*
X114787262Y-93354819D02*
X114692024Y-93354819D01*
X115453929Y-92354819D02*
X116072976Y-92354819D01*
X116072976Y-92354819D02*
X115739643Y-92735771D01*
X115739643Y-92735771D02*
X115882500Y-92735771D01*
X115882500Y-92735771D02*
X115977738Y-92783390D01*
X115977738Y-92783390D02*
X116025357Y-92831009D01*
X116025357Y-92831009D02*
X116072976Y-92926247D01*
X116072976Y-92926247D02*
X116072976Y-93164342D01*
X116072976Y-93164342D02*
X116025357Y-93259580D01*
X116025357Y-93259580D02*
X115977738Y-93307200D01*
X115977738Y-93307200D02*
X115882500Y-93354819D01*
X115882500Y-93354819D02*
X115596786Y-93354819D01*
X115596786Y-93354819D02*
X115501548Y-93307200D01*
X115501548Y-93307200D02*
X115453929Y-93259580D01*
X116692024Y-92354819D02*
X116787262Y-92354819D01*
X116787262Y-92354819D02*
X116882500Y-92402438D01*
X116882500Y-92402438D02*
X116930119Y-92450057D01*
X116930119Y-92450057D02*
X116977738Y-92545295D01*
X116977738Y-92545295D02*
X117025357Y-92735771D01*
X117025357Y-92735771D02*
X117025357Y-92973866D01*
X117025357Y-92973866D02*
X116977738Y-93164342D01*
X116977738Y-93164342D02*
X116930119Y-93259580D01*
X116930119Y-93259580D02*
X116882500Y-93307200D01*
X116882500Y-93307200D02*
X116787262Y-93354819D01*
X116787262Y-93354819D02*
X116692024Y-93354819D01*
X116692024Y-93354819D02*
X116596786Y-93307200D01*
X116596786Y-93307200D02*
X116549167Y-93259580D01*
X116549167Y-93259580D02*
X116501548Y-93164342D01*
X116501548Y-93164342D02*
X116453929Y-92973866D01*
X116453929Y-92973866D02*
X116453929Y-92735771D01*
X116453929Y-92735771D02*
X116501548Y-92545295D01*
X116501548Y-92545295D02*
X116549167Y-92450057D01*
X116549167Y-92450057D02*
X116596786Y-92402438D01*
X116596786Y-92402438D02*
X116692024Y-92354819D01*
X144812976Y-70434819D02*
X144812976Y-71149104D01*
X144812976Y-71149104D02*
X144765357Y-71291961D01*
X144765357Y-71291961D02*
X144670119Y-71387200D01*
X144670119Y-71387200D02*
X144527262Y-71434819D01*
X144527262Y-71434819D02*
X144432024Y-71434819D01*
X145241548Y-70530057D02*
X145289167Y-70482438D01*
X145289167Y-70482438D02*
X145384405Y-70434819D01*
X145384405Y-70434819D02*
X145622500Y-70434819D01*
X145622500Y-70434819D02*
X145717738Y-70482438D01*
X145717738Y-70482438D02*
X145765357Y-70530057D01*
X145765357Y-70530057D02*
X145812976Y-70625295D01*
X145812976Y-70625295D02*
X145812976Y-70720533D01*
X145812976Y-70720533D02*
X145765357Y-70863390D01*
X145765357Y-70863390D02*
X145193929Y-71434819D01*
X145193929Y-71434819D02*
X145812976Y-71434819D01*
X146289167Y-71434819D02*
X146479643Y-71434819D01*
X146479643Y-71434819D02*
X146574881Y-71387200D01*
X146574881Y-71387200D02*
X146622500Y-71339580D01*
X146622500Y-71339580D02*
X146717738Y-71196723D01*
X146717738Y-71196723D02*
X146765357Y-71006247D01*
X146765357Y-71006247D02*
X146765357Y-70625295D01*
X146765357Y-70625295D02*
X146717738Y-70530057D01*
X146717738Y-70530057D02*
X146670119Y-70482438D01*
X146670119Y-70482438D02*
X146574881Y-70434819D01*
X146574881Y-70434819D02*
X146384405Y-70434819D01*
X146384405Y-70434819D02*
X146289167Y-70482438D01*
X146289167Y-70482438D02*
X146241548Y-70530057D01*
X146241548Y-70530057D02*
X146193929Y-70625295D01*
X146193929Y-70625295D02*
X146193929Y-70863390D01*
X146193929Y-70863390D02*
X146241548Y-70958628D01*
X146241548Y-70958628D02*
X146289167Y-71006247D01*
X146289167Y-71006247D02*
X146384405Y-71053866D01*
X146384405Y-71053866D02*
X146574881Y-71053866D01*
X146574881Y-71053866D02*
X146670119Y-71006247D01*
X146670119Y-71006247D02*
X146717738Y-70958628D01*
X146717738Y-70958628D02*
X146765357Y-70863390D01*
X121352976Y-65844819D02*
X121352976Y-66559104D01*
X121352976Y-66559104D02*
X121305357Y-66701961D01*
X121305357Y-66701961D02*
X121210119Y-66797200D01*
X121210119Y-66797200D02*
X121067262Y-66844819D01*
X121067262Y-66844819D02*
X120972024Y-66844819D01*
X121781548Y-65940057D02*
X121829167Y-65892438D01*
X121829167Y-65892438D02*
X121924405Y-65844819D01*
X121924405Y-65844819D02*
X122162500Y-65844819D01*
X122162500Y-65844819D02*
X122257738Y-65892438D01*
X122257738Y-65892438D02*
X122305357Y-65940057D01*
X122305357Y-65940057D02*
X122352976Y-66035295D01*
X122352976Y-66035295D02*
X122352976Y-66130533D01*
X122352976Y-66130533D02*
X122305357Y-66273390D01*
X122305357Y-66273390D02*
X121733929Y-66844819D01*
X121733929Y-66844819D02*
X122352976Y-66844819D01*
X122924405Y-66273390D02*
X122829167Y-66225771D01*
X122829167Y-66225771D02*
X122781548Y-66178152D01*
X122781548Y-66178152D02*
X122733929Y-66082914D01*
X122733929Y-66082914D02*
X122733929Y-66035295D01*
X122733929Y-66035295D02*
X122781548Y-65940057D01*
X122781548Y-65940057D02*
X122829167Y-65892438D01*
X122829167Y-65892438D02*
X122924405Y-65844819D01*
X122924405Y-65844819D02*
X123114881Y-65844819D01*
X123114881Y-65844819D02*
X123210119Y-65892438D01*
X123210119Y-65892438D02*
X123257738Y-65940057D01*
X123257738Y-65940057D02*
X123305357Y-66035295D01*
X123305357Y-66035295D02*
X123305357Y-66082914D01*
X123305357Y-66082914D02*
X123257738Y-66178152D01*
X123257738Y-66178152D02*
X123210119Y-66225771D01*
X123210119Y-66225771D02*
X123114881Y-66273390D01*
X123114881Y-66273390D02*
X122924405Y-66273390D01*
X122924405Y-66273390D02*
X122829167Y-66321009D01*
X122829167Y-66321009D02*
X122781548Y-66368628D01*
X122781548Y-66368628D02*
X122733929Y-66463866D01*
X122733929Y-66463866D02*
X122733929Y-66654342D01*
X122733929Y-66654342D02*
X122781548Y-66749580D01*
X122781548Y-66749580D02*
X122829167Y-66797200D01*
X122829167Y-66797200D02*
X122924405Y-66844819D01*
X122924405Y-66844819D02*
X123114881Y-66844819D01*
X123114881Y-66844819D02*
X123210119Y-66797200D01*
X123210119Y-66797200D02*
X123257738Y-66749580D01*
X123257738Y-66749580D02*
X123305357Y-66654342D01*
X123305357Y-66654342D02*
X123305357Y-66463866D01*
X123305357Y-66463866D02*
X123257738Y-66368628D01*
X123257738Y-66368628D02*
X123210119Y-66321009D01*
X123210119Y-66321009D02*
X123114881Y-66273390D01*
X121352976Y-61254819D02*
X121352976Y-61969104D01*
X121352976Y-61969104D02*
X121305357Y-62111961D01*
X121305357Y-62111961D02*
X121210119Y-62207200D01*
X121210119Y-62207200D02*
X121067262Y-62254819D01*
X121067262Y-62254819D02*
X120972024Y-62254819D01*
X121781548Y-61350057D02*
X121829167Y-61302438D01*
X121829167Y-61302438D02*
X121924405Y-61254819D01*
X121924405Y-61254819D02*
X122162500Y-61254819D01*
X122162500Y-61254819D02*
X122257738Y-61302438D01*
X122257738Y-61302438D02*
X122305357Y-61350057D01*
X122305357Y-61350057D02*
X122352976Y-61445295D01*
X122352976Y-61445295D02*
X122352976Y-61540533D01*
X122352976Y-61540533D02*
X122305357Y-61683390D01*
X122305357Y-61683390D02*
X121733929Y-62254819D01*
X121733929Y-62254819D02*
X122352976Y-62254819D01*
X122686310Y-61254819D02*
X123352976Y-61254819D01*
X123352976Y-61254819D02*
X122924405Y-62254819D01*
X121352976Y-56664819D02*
X121352976Y-57379104D01*
X121352976Y-57379104D02*
X121305357Y-57521961D01*
X121305357Y-57521961D02*
X121210119Y-57617200D01*
X121210119Y-57617200D02*
X121067262Y-57664819D01*
X121067262Y-57664819D02*
X120972024Y-57664819D01*
X121781548Y-56760057D02*
X121829167Y-56712438D01*
X121829167Y-56712438D02*
X121924405Y-56664819D01*
X121924405Y-56664819D02*
X122162500Y-56664819D01*
X122162500Y-56664819D02*
X122257738Y-56712438D01*
X122257738Y-56712438D02*
X122305357Y-56760057D01*
X122305357Y-56760057D02*
X122352976Y-56855295D01*
X122352976Y-56855295D02*
X122352976Y-56950533D01*
X122352976Y-56950533D02*
X122305357Y-57093390D01*
X122305357Y-57093390D02*
X121733929Y-57664819D01*
X121733929Y-57664819D02*
X122352976Y-57664819D01*
X123210119Y-56664819D02*
X123019643Y-56664819D01*
X123019643Y-56664819D02*
X122924405Y-56712438D01*
X122924405Y-56712438D02*
X122876786Y-56760057D01*
X122876786Y-56760057D02*
X122781548Y-56902914D01*
X122781548Y-56902914D02*
X122733929Y-57093390D01*
X122733929Y-57093390D02*
X122733929Y-57474342D01*
X122733929Y-57474342D02*
X122781548Y-57569580D01*
X122781548Y-57569580D02*
X122829167Y-57617200D01*
X122829167Y-57617200D02*
X122924405Y-57664819D01*
X122924405Y-57664819D02*
X123114881Y-57664819D01*
X123114881Y-57664819D02*
X123210119Y-57617200D01*
X123210119Y-57617200D02*
X123257738Y-57569580D01*
X123257738Y-57569580D02*
X123305357Y-57474342D01*
X123305357Y-57474342D02*
X123305357Y-57236247D01*
X123305357Y-57236247D02*
X123257738Y-57141009D01*
X123257738Y-57141009D02*
X123210119Y-57093390D01*
X123210119Y-57093390D02*
X123114881Y-57045771D01*
X123114881Y-57045771D02*
X122924405Y-57045771D01*
X122924405Y-57045771D02*
X122829167Y-57093390D01*
X122829167Y-57093390D02*
X122781548Y-57141009D01*
X122781548Y-57141009D02*
X122733929Y-57236247D01*
X130532976Y-82644819D02*
X130532976Y-83359104D01*
X130532976Y-83359104D02*
X130485357Y-83501961D01*
X130485357Y-83501961D02*
X130390119Y-83597200D01*
X130390119Y-83597200D02*
X130247262Y-83644819D01*
X130247262Y-83644819D02*
X130152024Y-83644819D01*
X130961548Y-82740057D02*
X131009167Y-82692438D01*
X131009167Y-82692438D02*
X131104405Y-82644819D01*
X131104405Y-82644819D02*
X131342500Y-82644819D01*
X131342500Y-82644819D02*
X131437738Y-82692438D01*
X131437738Y-82692438D02*
X131485357Y-82740057D01*
X131485357Y-82740057D02*
X131532976Y-82835295D01*
X131532976Y-82835295D02*
X131532976Y-82930533D01*
X131532976Y-82930533D02*
X131485357Y-83073390D01*
X131485357Y-83073390D02*
X130913929Y-83644819D01*
X130913929Y-83644819D02*
X131532976Y-83644819D01*
X132437738Y-82644819D02*
X131961548Y-82644819D01*
X131961548Y-82644819D02*
X131913929Y-83121009D01*
X131913929Y-83121009D02*
X131961548Y-83073390D01*
X131961548Y-83073390D02*
X132056786Y-83025771D01*
X132056786Y-83025771D02*
X132294881Y-83025771D01*
X132294881Y-83025771D02*
X132390119Y-83073390D01*
X132390119Y-83073390D02*
X132437738Y-83121009D01*
X132437738Y-83121009D02*
X132485357Y-83216247D01*
X132485357Y-83216247D02*
X132485357Y-83454342D01*
X132485357Y-83454342D02*
X132437738Y-83549580D01*
X132437738Y-83549580D02*
X132390119Y-83597200D01*
X132390119Y-83597200D02*
X132294881Y-83644819D01*
X132294881Y-83644819D02*
X132056786Y-83644819D01*
X132056786Y-83644819D02*
X131961548Y-83597200D01*
X131961548Y-83597200D02*
X131913929Y-83549580D01*
X125942976Y-82644819D02*
X125942976Y-83359104D01*
X125942976Y-83359104D02*
X125895357Y-83501961D01*
X125895357Y-83501961D02*
X125800119Y-83597200D01*
X125800119Y-83597200D02*
X125657262Y-83644819D01*
X125657262Y-83644819D02*
X125562024Y-83644819D01*
X126371548Y-82740057D02*
X126419167Y-82692438D01*
X126419167Y-82692438D02*
X126514405Y-82644819D01*
X126514405Y-82644819D02*
X126752500Y-82644819D01*
X126752500Y-82644819D02*
X126847738Y-82692438D01*
X126847738Y-82692438D02*
X126895357Y-82740057D01*
X126895357Y-82740057D02*
X126942976Y-82835295D01*
X126942976Y-82835295D02*
X126942976Y-82930533D01*
X126942976Y-82930533D02*
X126895357Y-83073390D01*
X126895357Y-83073390D02*
X126323929Y-83644819D01*
X126323929Y-83644819D02*
X126942976Y-83644819D01*
X127800119Y-82978152D02*
X127800119Y-83644819D01*
X127562024Y-82597200D02*
X127323929Y-83311485D01*
X127323929Y-83311485D02*
X127942976Y-83311485D01*
X121352976Y-52074819D02*
X121352976Y-52789104D01*
X121352976Y-52789104D02*
X121305357Y-52931961D01*
X121305357Y-52931961D02*
X121210119Y-53027200D01*
X121210119Y-53027200D02*
X121067262Y-53074819D01*
X121067262Y-53074819D02*
X120972024Y-53074819D01*
X121781548Y-52170057D02*
X121829167Y-52122438D01*
X121829167Y-52122438D02*
X121924405Y-52074819D01*
X121924405Y-52074819D02*
X122162500Y-52074819D01*
X122162500Y-52074819D02*
X122257738Y-52122438D01*
X122257738Y-52122438D02*
X122305357Y-52170057D01*
X122305357Y-52170057D02*
X122352976Y-52265295D01*
X122352976Y-52265295D02*
X122352976Y-52360533D01*
X122352976Y-52360533D02*
X122305357Y-52503390D01*
X122305357Y-52503390D02*
X121733929Y-53074819D01*
X121733929Y-53074819D02*
X122352976Y-53074819D01*
X122686310Y-52074819D02*
X123305357Y-52074819D01*
X123305357Y-52074819D02*
X122972024Y-52455771D01*
X122972024Y-52455771D02*
X123114881Y-52455771D01*
X123114881Y-52455771D02*
X123210119Y-52503390D01*
X123210119Y-52503390D02*
X123257738Y-52551009D01*
X123257738Y-52551009D02*
X123305357Y-52646247D01*
X123305357Y-52646247D02*
X123305357Y-52884342D01*
X123305357Y-52884342D02*
X123257738Y-52979580D01*
X123257738Y-52979580D02*
X123210119Y-53027200D01*
X123210119Y-53027200D02*
X123114881Y-53074819D01*
X123114881Y-53074819D02*
X122829167Y-53074819D01*
X122829167Y-53074819D02*
X122733929Y-53027200D01*
X122733929Y-53027200D02*
X122686310Y-52979580D01*
X144302976Y-39864819D02*
X144302976Y-40579104D01*
X144302976Y-40579104D02*
X144255357Y-40721961D01*
X144255357Y-40721961D02*
X144160119Y-40817200D01*
X144160119Y-40817200D02*
X144017262Y-40864819D01*
X144017262Y-40864819D02*
X143922024Y-40864819D01*
X144731548Y-39960057D02*
X144779167Y-39912438D01*
X144779167Y-39912438D02*
X144874405Y-39864819D01*
X144874405Y-39864819D02*
X145112500Y-39864819D01*
X145112500Y-39864819D02*
X145207738Y-39912438D01*
X145207738Y-39912438D02*
X145255357Y-39960057D01*
X145255357Y-39960057D02*
X145302976Y-40055295D01*
X145302976Y-40055295D02*
X145302976Y-40150533D01*
X145302976Y-40150533D02*
X145255357Y-40293390D01*
X145255357Y-40293390D02*
X144683929Y-40864819D01*
X144683929Y-40864819D02*
X145302976Y-40864819D01*
X145683929Y-39960057D02*
X145731548Y-39912438D01*
X145731548Y-39912438D02*
X145826786Y-39864819D01*
X145826786Y-39864819D02*
X146064881Y-39864819D01*
X146064881Y-39864819D02*
X146160119Y-39912438D01*
X146160119Y-39912438D02*
X146207738Y-39960057D01*
X146207738Y-39960057D02*
X146255357Y-40055295D01*
X146255357Y-40055295D02*
X146255357Y-40150533D01*
X146255357Y-40150533D02*
X146207738Y-40293390D01*
X146207738Y-40293390D02*
X145636310Y-40864819D01*
X145636310Y-40864819D02*
X146255357Y-40864819D01*
X139712976Y-39864819D02*
X139712976Y-40579104D01*
X139712976Y-40579104D02*
X139665357Y-40721961D01*
X139665357Y-40721961D02*
X139570119Y-40817200D01*
X139570119Y-40817200D02*
X139427262Y-40864819D01*
X139427262Y-40864819D02*
X139332024Y-40864819D01*
X140141548Y-39960057D02*
X140189167Y-39912438D01*
X140189167Y-39912438D02*
X140284405Y-39864819D01*
X140284405Y-39864819D02*
X140522500Y-39864819D01*
X140522500Y-39864819D02*
X140617738Y-39912438D01*
X140617738Y-39912438D02*
X140665357Y-39960057D01*
X140665357Y-39960057D02*
X140712976Y-40055295D01*
X140712976Y-40055295D02*
X140712976Y-40150533D01*
X140712976Y-40150533D02*
X140665357Y-40293390D01*
X140665357Y-40293390D02*
X140093929Y-40864819D01*
X140093929Y-40864819D02*
X140712976Y-40864819D01*
X141665357Y-40864819D02*
X141093929Y-40864819D01*
X141379643Y-40864819D02*
X141379643Y-39864819D01*
X141379643Y-39864819D02*
X141284405Y-40007676D01*
X141284405Y-40007676D02*
X141189167Y-40102914D01*
X141189167Y-40102914D02*
X141093929Y-40150533D01*
X129762976Y-70434819D02*
X129762976Y-71149104D01*
X129762976Y-71149104D02*
X129715357Y-71291961D01*
X129715357Y-71291961D02*
X129620119Y-71387200D01*
X129620119Y-71387200D02*
X129477262Y-71434819D01*
X129477262Y-71434819D02*
X129382024Y-71434819D01*
X130191548Y-70530057D02*
X130239167Y-70482438D01*
X130239167Y-70482438D02*
X130334405Y-70434819D01*
X130334405Y-70434819D02*
X130572500Y-70434819D01*
X130572500Y-70434819D02*
X130667738Y-70482438D01*
X130667738Y-70482438D02*
X130715357Y-70530057D01*
X130715357Y-70530057D02*
X130762976Y-70625295D01*
X130762976Y-70625295D02*
X130762976Y-70720533D01*
X130762976Y-70720533D02*
X130715357Y-70863390D01*
X130715357Y-70863390D02*
X130143929Y-71434819D01*
X130143929Y-71434819D02*
X130762976Y-71434819D01*
X131382024Y-70434819D02*
X131477262Y-70434819D01*
X131477262Y-70434819D02*
X131572500Y-70482438D01*
X131572500Y-70482438D02*
X131620119Y-70530057D01*
X131620119Y-70530057D02*
X131667738Y-70625295D01*
X131667738Y-70625295D02*
X131715357Y-70815771D01*
X131715357Y-70815771D02*
X131715357Y-71053866D01*
X131715357Y-71053866D02*
X131667738Y-71244342D01*
X131667738Y-71244342D02*
X131620119Y-71339580D01*
X131620119Y-71339580D02*
X131572500Y-71387200D01*
X131572500Y-71387200D02*
X131477262Y-71434819D01*
X131477262Y-71434819D02*
X131382024Y-71434819D01*
X131382024Y-71434819D02*
X131286786Y-71387200D01*
X131286786Y-71387200D02*
X131239167Y-71339580D01*
X131239167Y-71339580D02*
X131191548Y-71244342D01*
X131191548Y-71244342D02*
X131143929Y-71053866D01*
X131143929Y-71053866D02*
X131143929Y-70815771D01*
X131143929Y-70815771D02*
X131191548Y-70625295D01*
X131191548Y-70625295D02*
X131239167Y-70530057D01*
X131239167Y-70530057D02*
X131286786Y-70482438D01*
X131286786Y-70482438D02*
X131382024Y-70434819D01*
X121352976Y-82644819D02*
X121352976Y-83359104D01*
X121352976Y-83359104D02*
X121305357Y-83501961D01*
X121305357Y-83501961D02*
X121210119Y-83597200D01*
X121210119Y-83597200D02*
X121067262Y-83644819D01*
X121067262Y-83644819D02*
X120972024Y-83644819D01*
X122352976Y-83644819D02*
X121781548Y-83644819D01*
X122067262Y-83644819D02*
X122067262Y-82644819D01*
X122067262Y-82644819D02*
X121972024Y-82787676D01*
X121972024Y-82787676D02*
X121876786Y-82882914D01*
X121876786Y-82882914D02*
X121781548Y-82930533D01*
X122686310Y-82644819D02*
X123352976Y-82644819D01*
X123352976Y-82644819D02*
X122924405Y-83644819D01*
X135122976Y-39864819D02*
X135122976Y-40579104D01*
X135122976Y-40579104D02*
X135075357Y-40721961D01*
X135075357Y-40721961D02*
X134980119Y-40817200D01*
X134980119Y-40817200D02*
X134837262Y-40864819D01*
X134837262Y-40864819D02*
X134742024Y-40864819D01*
X136122976Y-40864819D02*
X135551548Y-40864819D01*
X135837262Y-40864819D02*
X135837262Y-39864819D01*
X135837262Y-39864819D02*
X135742024Y-40007676D01*
X135742024Y-40007676D02*
X135646786Y-40102914D01*
X135646786Y-40102914D02*
X135551548Y-40150533D01*
X136980119Y-39864819D02*
X136789643Y-39864819D01*
X136789643Y-39864819D02*
X136694405Y-39912438D01*
X136694405Y-39912438D02*
X136646786Y-39960057D01*
X136646786Y-39960057D02*
X136551548Y-40102914D01*
X136551548Y-40102914D02*
X136503929Y-40293390D01*
X136503929Y-40293390D02*
X136503929Y-40674342D01*
X136503929Y-40674342D02*
X136551548Y-40769580D01*
X136551548Y-40769580D02*
X136599167Y-40817200D01*
X136599167Y-40817200D02*
X136694405Y-40864819D01*
X136694405Y-40864819D02*
X136884881Y-40864819D01*
X136884881Y-40864819D02*
X136980119Y-40817200D01*
X136980119Y-40817200D02*
X137027738Y-40769580D01*
X137027738Y-40769580D02*
X137075357Y-40674342D01*
X137075357Y-40674342D02*
X137075357Y-40436247D01*
X137075357Y-40436247D02*
X137027738Y-40341009D01*
X137027738Y-40341009D02*
X136980119Y-40293390D01*
X136980119Y-40293390D02*
X136884881Y-40245771D01*
X136884881Y-40245771D02*
X136694405Y-40245771D01*
X136694405Y-40245771D02*
X136599167Y-40293390D01*
X136599167Y-40293390D02*
X136551548Y-40341009D01*
X136551548Y-40341009D02*
X136503929Y-40436247D01*
X140222976Y-70434819D02*
X140222976Y-71149104D01*
X140222976Y-71149104D02*
X140175357Y-71291961D01*
X140175357Y-71291961D02*
X140080119Y-71387200D01*
X140080119Y-71387200D02*
X139937262Y-71434819D01*
X139937262Y-71434819D02*
X139842024Y-71434819D01*
X141222976Y-71434819D02*
X140651548Y-71434819D01*
X140937262Y-71434819D02*
X140937262Y-70434819D01*
X140937262Y-70434819D02*
X140842024Y-70577676D01*
X140842024Y-70577676D02*
X140746786Y-70672914D01*
X140746786Y-70672914D02*
X140651548Y-70720533D01*
X142175357Y-71434819D02*
X141603929Y-71434819D01*
X141889643Y-71434819D02*
X141889643Y-70434819D01*
X141889643Y-70434819D02*
X141794405Y-70577676D01*
X141794405Y-70577676D02*
X141699167Y-70672914D01*
X141699167Y-70672914D02*
X141603929Y-70720533D01*
X107482976Y-92354819D02*
X107482976Y-93069104D01*
X107482976Y-93069104D02*
X107435357Y-93211961D01*
X107435357Y-93211961D02*
X107340119Y-93307200D01*
X107340119Y-93307200D02*
X107197262Y-93354819D01*
X107197262Y-93354819D02*
X107102024Y-93354819D01*
X108482976Y-93354819D02*
X107911548Y-93354819D01*
X108197262Y-93354819D02*
X108197262Y-92354819D01*
X108197262Y-92354819D02*
X108102024Y-92497676D01*
X108102024Y-92497676D02*
X108006786Y-92592914D01*
X108006786Y-92592914D02*
X107911548Y-92640533D01*
X109102024Y-92354819D02*
X109197262Y-92354819D01*
X109197262Y-92354819D02*
X109292500Y-92402438D01*
X109292500Y-92402438D02*
X109340119Y-92450057D01*
X109340119Y-92450057D02*
X109387738Y-92545295D01*
X109387738Y-92545295D02*
X109435357Y-92735771D01*
X109435357Y-92735771D02*
X109435357Y-92973866D01*
X109435357Y-92973866D02*
X109387738Y-93164342D01*
X109387738Y-93164342D02*
X109340119Y-93259580D01*
X109340119Y-93259580D02*
X109292500Y-93307200D01*
X109292500Y-93307200D02*
X109197262Y-93354819D01*
X109197262Y-93354819D02*
X109102024Y-93354819D01*
X109102024Y-93354819D02*
X109006786Y-93307200D01*
X109006786Y-93307200D02*
X108959167Y-93259580D01*
X108959167Y-93259580D02*
X108911548Y-93164342D01*
X108911548Y-93164342D02*
X108863929Y-92973866D01*
X108863929Y-92973866D02*
X108863929Y-92735771D01*
X108863929Y-92735771D02*
X108911548Y-92545295D01*
X108911548Y-92545295D02*
X108959167Y-92450057D01*
X108959167Y-92450057D02*
X109006786Y-92402438D01*
X109006786Y-92402438D02*
X109102024Y-92354819D01*
X100369166Y-92354819D02*
X100369166Y-93069104D01*
X100369166Y-93069104D02*
X100321547Y-93211961D01*
X100321547Y-93211961D02*
X100226309Y-93307200D01*
X100226309Y-93307200D02*
X100083452Y-93354819D01*
X100083452Y-93354819D02*
X99988214Y-93354819D01*
X100892976Y-93354819D02*
X101083452Y-93354819D01*
X101083452Y-93354819D02*
X101178690Y-93307200D01*
X101178690Y-93307200D02*
X101226309Y-93259580D01*
X101226309Y-93259580D02*
X101321547Y-93116723D01*
X101321547Y-93116723D02*
X101369166Y-92926247D01*
X101369166Y-92926247D02*
X101369166Y-92545295D01*
X101369166Y-92545295D02*
X101321547Y-92450057D01*
X101321547Y-92450057D02*
X101273928Y-92402438D01*
X101273928Y-92402438D02*
X101178690Y-92354819D01*
X101178690Y-92354819D02*
X100988214Y-92354819D01*
X100988214Y-92354819D02*
X100892976Y-92402438D01*
X100892976Y-92402438D02*
X100845357Y-92450057D01*
X100845357Y-92450057D02*
X100797738Y-92545295D01*
X100797738Y-92545295D02*
X100797738Y-92783390D01*
X100797738Y-92783390D02*
X100845357Y-92878628D01*
X100845357Y-92878628D02*
X100892976Y-92926247D01*
X100892976Y-92926247D02*
X100988214Y-92973866D01*
X100988214Y-92973866D02*
X101178690Y-92973866D01*
X101178690Y-92973866D02*
X101273928Y-92926247D01*
X101273928Y-92926247D02*
X101321547Y-92878628D01*
X101321547Y-92878628D02*
X101369166Y-92783390D01*
X123099166Y-70434819D02*
X123099166Y-71149104D01*
X123099166Y-71149104D02*
X123051547Y-71291961D01*
X123051547Y-71291961D02*
X122956309Y-71387200D01*
X122956309Y-71387200D02*
X122813452Y-71434819D01*
X122813452Y-71434819D02*
X122718214Y-71434819D01*
X123718214Y-70863390D02*
X123622976Y-70815771D01*
X123622976Y-70815771D02*
X123575357Y-70768152D01*
X123575357Y-70768152D02*
X123527738Y-70672914D01*
X123527738Y-70672914D02*
X123527738Y-70625295D01*
X123527738Y-70625295D02*
X123575357Y-70530057D01*
X123575357Y-70530057D02*
X123622976Y-70482438D01*
X123622976Y-70482438D02*
X123718214Y-70434819D01*
X123718214Y-70434819D02*
X123908690Y-70434819D01*
X123908690Y-70434819D02*
X124003928Y-70482438D01*
X124003928Y-70482438D02*
X124051547Y-70530057D01*
X124051547Y-70530057D02*
X124099166Y-70625295D01*
X124099166Y-70625295D02*
X124099166Y-70672914D01*
X124099166Y-70672914D02*
X124051547Y-70768152D01*
X124051547Y-70768152D02*
X124003928Y-70815771D01*
X124003928Y-70815771D02*
X123908690Y-70863390D01*
X123908690Y-70863390D02*
X123718214Y-70863390D01*
X123718214Y-70863390D02*
X123622976Y-70911009D01*
X123622976Y-70911009D02*
X123575357Y-70958628D01*
X123575357Y-70958628D02*
X123527738Y-71053866D01*
X123527738Y-71053866D02*
X123527738Y-71244342D01*
X123527738Y-71244342D02*
X123575357Y-71339580D01*
X123575357Y-71339580D02*
X123622976Y-71387200D01*
X123622976Y-71387200D02*
X123718214Y-71434819D01*
X123718214Y-71434819D02*
X123908690Y-71434819D01*
X123908690Y-71434819D02*
X124003928Y-71387200D01*
X124003928Y-71387200D02*
X124051547Y-71339580D01*
X124051547Y-71339580D02*
X124099166Y-71244342D01*
X124099166Y-71244342D02*
X124099166Y-71053866D01*
X124099166Y-71053866D02*
X124051547Y-70958628D01*
X124051547Y-70958628D02*
X124003928Y-70911009D01*
X124003928Y-70911009D02*
X123908690Y-70863390D01*
X92779166Y-92354819D02*
X92779166Y-93069104D01*
X92779166Y-93069104D02*
X92731547Y-93211961D01*
X92731547Y-93211961D02*
X92636309Y-93307200D01*
X92636309Y-93307200D02*
X92493452Y-93354819D01*
X92493452Y-93354819D02*
X92398214Y-93354819D01*
X93160119Y-92354819D02*
X93826785Y-92354819D01*
X93826785Y-92354819D02*
X93398214Y-93354819D01*
X129649166Y-51684819D02*
X129649166Y-52399104D01*
X129649166Y-52399104D02*
X129601547Y-52541961D01*
X129601547Y-52541961D02*
X129506309Y-52637200D01*
X129506309Y-52637200D02*
X129363452Y-52684819D01*
X129363452Y-52684819D02*
X129268214Y-52684819D01*
X130553928Y-51684819D02*
X130363452Y-51684819D01*
X130363452Y-51684819D02*
X130268214Y-51732438D01*
X130268214Y-51732438D02*
X130220595Y-51780057D01*
X130220595Y-51780057D02*
X130125357Y-51922914D01*
X130125357Y-51922914D02*
X130077738Y-52113390D01*
X130077738Y-52113390D02*
X130077738Y-52494342D01*
X130077738Y-52494342D02*
X130125357Y-52589580D01*
X130125357Y-52589580D02*
X130172976Y-52637200D01*
X130172976Y-52637200D02*
X130268214Y-52684819D01*
X130268214Y-52684819D02*
X130458690Y-52684819D01*
X130458690Y-52684819D02*
X130553928Y-52637200D01*
X130553928Y-52637200D02*
X130601547Y-52589580D01*
X130601547Y-52589580D02*
X130649166Y-52494342D01*
X130649166Y-52494342D02*
X130649166Y-52256247D01*
X130649166Y-52256247D02*
X130601547Y-52161009D01*
X130601547Y-52161009D02*
X130553928Y-52113390D01*
X130553928Y-52113390D02*
X130458690Y-52065771D01*
X130458690Y-52065771D02*
X130268214Y-52065771D01*
X130268214Y-52065771D02*
X130172976Y-52113390D01*
X130172976Y-52113390D02*
X130125357Y-52161009D01*
X130125357Y-52161009D02*
X130077738Y-52256247D01*
X136109166Y-70434819D02*
X136109166Y-71149104D01*
X136109166Y-71149104D02*
X136061547Y-71291961D01*
X136061547Y-71291961D02*
X135966309Y-71387200D01*
X135966309Y-71387200D02*
X135823452Y-71434819D01*
X135823452Y-71434819D02*
X135728214Y-71434819D01*
X137061547Y-70434819D02*
X136585357Y-70434819D01*
X136585357Y-70434819D02*
X136537738Y-70911009D01*
X136537738Y-70911009D02*
X136585357Y-70863390D01*
X136585357Y-70863390D02*
X136680595Y-70815771D01*
X136680595Y-70815771D02*
X136918690Y-70815771D01*
X136918690Y-70815771D02*
X137013928Y-70863390D01*
X137013928Y-70863390D02*
X137061547Y-70911009D01*
X137061547Y-70911009D02*
X137109166Y-71006247D01*
X137109166Y-71006247D02*
X137109166Y-71244342D01*
X137109166Y-71244342D02*
X137061547Y-71339580D01*
X137061547Y-71339580D02*
X137013928Y-71387200D01*
X137013928Y-71387200D02*
X136918690Y-71434819D01*
X136918690Y-71434819D02*
X136680595Y-71434819D01*
X136680595Y-71434819D02*
X136585357Y-71387200D01*
X136585357Y-71387200D02*
X136537738Y-71339580D01*
X125869166Y-92304819D02*
X125869166Y-93019104D01*
X125869166Y-93019104D02*
X125821547Y-93161961D01*
X125821547Y-93161961D02*
X125726309Y-93257200D01*
X125726309Y-93257200D02*
X125583452Y-93304819D01*
X125583452Y-93304819D02*
X125488214Y-93304819D01*
X126773928Y-92638152D02*
X126773928Y-93304819D01*
X126535833Y-92257200D02*
X126297738Y-92971485D01*
X126297738Y-92971485D02*
X126916785Y-92971485D01*
X131009166Y-39864819D02*
X131009166Y-40579104D01*
X131009166Y-40579104D02*
X130961547Y-40721961D01*
X130961547Y-40721961D02*
X130866309Y-40817200D01*
X130866309Y-40817200D02*
X130723452Y-40864819D01*
X130723452Y-40864819D02*
X130628214Y-40864819D01*
X131390119Y-39864819D02*
X132009166Y-39864819D01*
X132009166Y-39864819D02*
X131675833Y-40245771D01*
X131675833Y-40245771D02*
X131818690Y-40245771D01*
X131818690Y-40245771D02*
X131913928Y-40293390D01*
X131913928Y-40293390D02*
X131961547Y-40341009D01*
X131961547Y-40341009D02*
X132009166Y-40436247D01*
X132009166Y-40436247D02*
X132009166Y-40674342D01*
X132009166Y-40674342D02*
X131961547Y-40769580D01*
X131961547Y-40769580D02*
X131913928Y-40817200D01*
X131913928Y-40817200D02*
X131818690Y-40864819D01*
X131818690Y-40864819D02*
X131532976Y-40864819D01*
X131532976Y-40864819D02*
X131437738Y-40817200D01*
X131437738Y-40817200D02*
X131390119Y-40769580D01*
X126419166Y-39864819D02*
X126419166Y-40579104D01*
X126419166Y-40579104D02*
X126371547Y-40721961D01*
X126371547Y-40721961D02*
X126276309Y-40817200D01*
X126276309Y-40817200D02*
X126133452Y-40864819D01*
X126133452Y-40864819D02*
X126038214Y-40864819D01*
X126847738Y-39960057D02*
X126895357Y-39912438D01*
X126895357Y-39912438D02*
X126990595Y-39864819D01*
X126990595Y-39864819D02*
X127228690Y-39864819D01*
X127228690Y-39864819D02*
X127323928Y-39912438D01*
X127323928Y-39912438D02*
X127371547Y-39960057D01*
X127371547Y-39960057D02*
X127419166Y-40055295D01*
X127419166Y-40055295D02*
X127419166Y-40150533D01*
X127419166Y-40150533D02*
X127371547Y-40293390D01*
X127371547Y-40293390D02*
X126800119Y-40864819D01*
X126800119Y-40864819D02*
X127419166Y-40864819D01*
X121829166Y-39864819D02*
X121829166Y-40579104D01*
X121829166Y-40579104D02*
X121781547Y-40721961D01*
X121781547Y-40721961D02*
X121686309Y-40817200D01*
X121686309Y-40817200D02*
X121543452Y-40864819D01*
X121543452Y-40864819D02*
X121448214Y-40864819D01*
X122829166Y-40864819D02*
X122257738Y-40864819D01*
X122543452Y-40864819D02*
X122543452Y-39864819D01*
X122543452Y-39864819D02*
X122448214Y-40007676D01*
X122448214Y-40007676D02*
X122352976Y-40102914D01*
X122352976Y-40102914D02*
X122257738Y-40150533D01*
D12*
X146416499Y-68128974D02*
X145481779Y-68128974D01*
X146327478Y-67149743D02*
X146371989Y-67194254D01*
X146371989Y-67194254D02*
X146416499Y-67327785D01*
X146416499Y-67327785D02*
X146416499Y-67416806D01*
X146416499Y-67416806D02*
X146371989Y-67550338D01*
X146371989Y-67550338D02*
X146282968Y-67639359D01*
X146282968Y-67639359D02*
X146193947Y-67683869D01*
X146193947Y-67683869D02*
X146015905Y-67728380D01*
X146015905Y-67728380D02*
X145882373Y-67728380D01*
X145882373Y-67728380D02*
X145704331Y-67683869D01*
X145704331Y-67683869D02*
X145615310Y-67639359D01*
X145615310Y-67639359D02*
X145526289Y-67550338D01*
X145526289Y-67550338D02*
X145481779Y-67416806D01*
X145481779Y-67416806D02*
X145481779Y-67327785D01*
X145481779Y-67327785D02*
X145526289Y-67194254D01*
X145526289Y-67194254D02*
X145570800Y-67149743D01*
X146416499Y-66259534D02*
X146416499Y-66793660D01*
X146416499Y-66526597D02*
X145481779Y-66526597D01*
X145481779Y-66526597D02*
X145615310Y-66615618D01*
X145615310Y-66615618D02*
X145704331Y-66704639D01*
X145704331Y-66704639D02*
X145748842Y-66793660D01*
D10*
X145248214Y-97874819D02*
X145248214Y-96874819D01*
X145248214Y-96874819D02*
X145486309Y-96874819D01*
X145486309Y-96874819D02*
X145629166Y-96922438D01*
X145629166Y-96922438D02*
X145724404Y-97017676D01*
X145724404Y-97017676D02*
X145772023Y-97112914D01*
X145772023Y-97112914D02*
X145819642Y-97303390D01*
X145819642Y-97303390D02*
X145819642Y-97446247D01*
X145819642Y-97446247D02*
X145772023Y-97636723D01*
X145772023Y-97636723D02*
X145724404Y-97731961D01*
X145724404Y-97731961D02*
X145629166Y-97827200D01*
X145629166Y-97827200D02*
X145486309Y-97874819D01*
X145486309Y-97874819D02*
X145248214Y-97874819D01*
X146772023Y-97874819D02*
X146200595Y-97874819D01*
X146486309Y-97874819D02*
X146486309Y-96874819D01*
X146486309Y-96874819D02*
X146391071Y-97017676D01*
X146391071Y-97017676D02*
X146295833Y-97112914D01*
X146295833Y-97112914D02*
X146200595Y-97160533D01*
X147391071Y-96874819D02*
X147486309Y-96874819D01*
X147486309Y-96874819D02*
X147581547Y-96922438D01*
X147581547Y-96922438D02*
X147629166Y-96970057D01*
X147629166Y-96970057D02*
X147676785Y-97065295D01*
X147676785Y-97065295D02*
X147724404Y-97255771D01*
X147724404Y-97255771D02*
X147724404Y-97493866D01*
X147724404Y-97493866D02*
X147676785Y-97684342D01*
X147676785Y-97684342D02*
X147629166Y-97779580D01*
X147629166Y-97779580D02*
X147581547Y-97827200D01*
X147581547Y-97827200D02*
X147486309Y-97874819D01*
X147486309Y-97874819D02*
X147391071Y-97874819D01*
X147391071Y-97874819D02*
X147295833Y-97827200D01*
X147295833Y-97827200D02*
X147248214Y-97779580D01*
X147248214Y-97779580D02*
X147200595Y-97684342D01*
X147200595Y-97684342D02*
X147152976Y-97493866D01*
X147152976Y-97493866D02*
X147152976Y-97255771D01*
X147152976Y-97255771D02*
X147200595Y-97065295D01*
X147200595Y-97065295D02*
X147248214Y-96970057D01*
X147248214Y-96970057D02*
X147295833Y-96922438D01*
X147295833Y-96922438D02*
X147391071Y-96874819D01*
X145724405Y-95284819D02*
X145724405Y-94284819D01*
X145724405Y-94284819D02*
X145962500Y-94284819D01*
X145962500Y-94284819D02*
X146105357Y-94332438D01*
X146105357Y-94332438D02*
X146200595Y-94427676D01*
X146200595Y-94427676D02*
X146248214Y-94522914D01*
X146248214Y-94522914D02*
X146295833Y-94713390D01*
X146295833Y-94713390D02*
X146295833Y-94856247D01*
X146295833Y-94856247D02*
X146248214Y-95046723D01*
X146248214Y-95046723D02*
X146200595Y-95141961D01*
X146200595Y-95141961D02*
X146105357Y-95237200D01*
X146105357Y-95237200D02*
X145962500Y-95284819D01*
X145962500Y-95284819D02*
X145724405Y-95284819D01*
X147152976Y-94618152D02*
X147152976Y-95284819D01*
X146914881Y-94237200D02*
X146676786Y-94951485D01*
X146676786Y-94951485D02*
X147295833Y-94951485D01*
X141879405Y-83504819D02*
X141879405Y-82504819D01*
X141879405Y-82504819D02*
X142117500Y-82504819D01*
X142117500Y-82504819D02*
X142260357Y-82552438D01*
X142260357Y-82552438D02*
X142355595Y-82647676D01*
X142355595Y-82647676D02*
X142403214Y-82742914D01*
X142403214Y-82742914D02*
X142450833Y-82933390D01*
X142450833Y-82933390D02*
X142450833Y-83076247D01*
X142450833Y-83076247D02*
X142403214Y-83266723D01*
X142403214Y-83266723D02*
X142355595Y-83361961D01*
X142355595Y-83361961D02*
X142260357Y-83457200D01*
X142260357Y-83457200D02*
X142117500Y-83504819D01*
X142117500Y-83504819D02*
X141879405Y-83504819D01*
X142831786Y-82600057D02*
X142879405Y-82552438D01*
X142879405Y-82552438D02*
X142974643Y-82504819D01*
X142974643Y-82504819D02*
X143212738Y-82504819D01*
X143212738Y-82504819D02*
X143307976Y-82552438D01*
X143307976Y-82552438D02*
X143355595Y-82600057D01*
X143355595Y-82600057D02*
X143403214Y-82695295D01*
X143403214Y-82695295D02*
X143403214Y-82790533D01*
X143403214Y-82790533D02*
X143355595Y-82933390D01*
X143355595Y-82933390D02*
X142784167Y-83504819D01*
X142784167Y-83504819D02*
X143403214Y-83504819D01*
X145724405Y-92694819D02*
X145724405Y-91694819D01*
X145724405Y-91694819D02*
X145962500Y-91694819D01*
X145962500Y-91694819D02*
X146105357Y-91742438D01*
X146105357Y-91742438D02*
X146200595Y-91837676D01*
X146200595Y-91837676D02*
X146248214Y-91932914D01*
X146248214Y-91932914D02*
X146295833Y-92123390D01*
X146295833Y-92123390D02*
X146295833Y-92266247D01*
X146295833Y-92266247D02*
X146248214Y-92456723D01*
X146248214Y-92456723D02*
X146200595Y-92551961D01*
X146200595Y-92551961D02*
X146105357Y-92647200D01*
X146105357Y-92647200D02*
X145962500Y-92694819D01*
X145962500Y-92694819D02*
X145724405Y-92694819D01*
X147248214Y-92694819D02*
X146676786Y-92694819D01*
X146962500Y-92694819D02*
X146962500Y-91694819D01*
X146962500Y-91694819D02*
X146867262Y-91837676D01*
X146867262Y-91837676D02*
X146772024Y-91932914D01*
X146772024Y-91932914D02*
X146676786Y-91980533D01*
X146795833Y-64809580D02*
X146748214Y-64857200D01*
X146748214Y-64857200D02*
X146605357Y-64904819D01*
X146605357Y-64904819D02*
X146510119Y-64904819D01*
X146510119Y-64904819D02*
X146367262Y-64857200D01*
X146367262Y-64857200D02*
X146272024Y-64761961D01*
X146272024Y-64761961D02*
X146224405Y-64666723D01*
X146224405Y-64666723D02*
X146176786Y-64476247D01*
X146176786Y-64476247D02*
X146176786Y-64333390D01*
X146176786Y-64333390D02*
X146224405Y-64142914D01*
X146224405Y-64142914D02*
X146272024Y-64047676D01*
X146272024Y-64047676D02*
X146367262Y-63952438D01*
X146367262Y-63952438D02*
X146510119Y-63904819D01*
X146510119Y-63904819D02*
X146605357Y-63904819D01*
X146605357Y-63904819D02*
X146748214Y-63952438D01*
X146748214Y-63952438D02*
X146795833Y-64000057D01*
X147652976Y-64238152D02*
X147652976Y-64904819D01*
X147414881Y-63857200D02*
X147176786Y-64571485D01*
X147176786Y-64571485D02*
X147795833Y-64571485D01*
X146795833Y-62839580D02*
X146748214Y-62887200D01*
X146748214Y-62887200D02*
X146605357Y-62934819D01*
X146605357Y-62934819D02*
X146510119Y-62934819D01*
X146510119Y-62934819D02*
X146367262Y-62887200D01*
X146367262Y-62887200D02*
X146272024Y-62791961D01*
X146272024Y-62791961D02*
X146224405Y-62696723D01*
X146224405Y-62696723D02*
X146176786Y-62506247D01*
X146176786Y-62506247D02*
X146176786Y-62363390D01*
X146176786Y-62363390D02*
X146224405Y-62172914D01*
X146224405Y-62172914D02*
X146272024Y-62077676D01*
X146272024Y-62077676D02*
X146367262Y-61982438D01*
X146367262Y-61982438D02*
X146510119Y-61934819D01*
X146510119Y-61934819D02*
X146605357Y-61934819D01*
X146605357Y-61934819D02*
X146748214Y-61982438D01*
X146748214Y-61982438D02*
X146795833Y-62030057D01*
X147129167Y-61934819D02*
X147748214Y-61934819D01*
X147748214Y-61934819D02*
X147414881Y-62315771D01*
X147414881Y-62315771D02*
X147557738Y-62315771D01*
X147557738Y-62315771D02*
X147652976Y-62363390D01*
X147652976Y-62363390D02*
X147700595Y-62411009D01*
X147700595Y-62411009D02*
X147748214Y-62506247D01*
X147748214Y-62506247D02*
X147748214Y-62744342D01*
X147748214Y-62744342D02*
X147700595Y-62839580D01*
X147700595Y-62839580D02*
X147652976Y-62887200D01*
X147652976Y-62887200D02*
X147557738Y-62934819D01*
X147557738Y-62934819D02*
X147272024Y-62934819D01*
X147272024Y-62934819D02*
X147176786Y-62887200D01*
X147176786Y-62887200D02*
X147129167Y-62839580D01*
X138645833Y-65349580D02*
X138598214Y-65397200D01*
X138598214Y-65397200D02*
X138455357Y-65444819D01*
X138455357Y-65444819D02*
X138360119Y-65444819D01*
X138360119Y-65444819D02*
X138217262Y-65397200D01*
X138217262Y-65397200D02*
X138122024Y-65301961D01*
X138122024Y-65301961D02*
X138074405Y-65206723D01*
X138074405Y-65206723D02*
X138026786Y-65016247D01*
X138026786Y-65016247D02*
X138026786Y-64873390D01*
X138026786Y-64873390D02*
X138074405Y-64682914D01*
X138074405Y-64682914D02*
X138122024Y-64587676D01*
X138122024Y-64587676D02*
X138217262Y-64492438D01*
X138217262Y-64492438D02*
X138360119Y-64444819D01*
X138360119Y-64444819D02*
X138455357Y-64444819D01*
X138455357Y-64444819D02*
X138598214Y-64492438D01*
X138598214Y-64492438D02*
X138645833Y-64540057D01*
X139026786Y-64540057D02*
X139074405Y-64492438D01*
X139074405Y-64492438D02*
X139169643Y-64444819D01*
X139169643Y-64444819D02*
X139407738Y-64444819D01*
X139407738Y-64444819D02*
X139502976Y-64492438D01*
X139502976Y-64492438D02*
X139550595Y-64540057D01*
X139550595Y-64540057D02*
X139598214Y-64635295D01*
X139598214Y-64635295D02*
X139598214Y-64730533D01*
X139598214Y-64730533D02*
X139550595Y-64873390D01*
X139550595Y-64873390D02*
X138979167Y-65444819D01*
X138979167Y-65444819D02*
X139598214Y-65444819D01*
X138645833Y-62839580D02*
X138598214Y-62887200D01*
X138598214Y-62887200D02*
X138455357Y-62934819D01*
X138455357Y-62934819D02*
X138360119Y-62934819D01*
X138360119Y-62934819D02*
X138217262Y-62887200D01*
X138217262Y-62887200D02*
X138122024Y-62791961D01*
X138122024Y-62791961D02*
X138074405Y-62696723D01*
X138074405Y-62696723D02*
X138026786Y-62506247D01*
X138026786Y-62506247D02*
X138026786Y-62363390D01*
X138026786Y-62363390D02*
X138074405Y-62172914D01*
X138074405Y-62172914D02*
X138122024Y-62077676D01*
X138122024Y-62077676D02*
X138217262Y-61982438D01*
X138217262Y-61982438D02*
X138360119Y-61934819D01*
X138360119Y-61934819D02*
X138455357Y-61934819D01*
X138455357Y-61934819D02*
X138598214Y-61982438D01*
X138598214Y-61982438D02*
X138645833Y-62030057D01*
X139598214Y-62934819D02*
X139026786Y-62934819D01*
X139312500Y-62934819D02*
X139312500Y-61934819D01*
X139312500Y-61934819D02*
X139217262Y-62077676D01*
X139217262Y-62077676D02*
X139122024Y-62172914D01*
X139122024Y-62172914D02*
X139026786Y-62220533D01*
D13*
%TO.C,D3*%
X139107500Y-91750000D02*
X144617500Y-91750000D01*
X139107500Y-88450000D02*
X144617500Y-88450000D01*
X139107500Y-88450000D02*
X139107500Y-91750000D01*
D14*
%TO.C,U3*%
X119097500Y-41270000D02*
X119097500Y-92220000D01*
X119097500Y-92220000D02*
X90587500Y-92220000D01*
X90587500Y-41270000D02*
X119097500Y-41270000D01*
X90587500Y-92220000D02*
X90587500Y-41270000D01*
D15*
X90117500Y-51230000D02*
G75*
G02*
X89917500Y-51230000I-100000J0D01*
G01*
X89917500Y-51230000D02*
G75*
G02*
X90117500Y-51230000I100000J0D01*
G01*
D14*
X90587500Y-41270000D02*
X101656500Y-41270000D01*
X101656500Y-41270000D02*
X108367500Y-41270000D01*
X108367500Y-41270000D02*
X119097500Y-41270000D01*
X90587500Y-92220000D02*
X90587500Y-41270000D01*
X119097500Y-41270000D02*
X119097500Y-92220000D01*
X90587500Y-92220000D02*
X95957500Y-92220000D01*
X95957500Y-92220000D02*
X113647500Y-92220000D01*
X113647500Y-92220000D02*
X119097500Y-92220000D01*
D16*
%TO.C,U2*%
X139825900Y-97586700D02*
G75*
G02*
X139538700Y-97586700I-143600J0D01*
G01*
X139538700Y-97586700D02*
G75*
G02*
X139825900Y-97586700I143600J0D01*
G01*
D13*
%TO.C,R27*%
X146838859Y-61280000D02*
X147146141Y-61280000D01*
X146838859Y-62040000D02*
X147146141Y-62040000D01*
%TO.C,R25*%
X146838859Y-59290000D02*
X147146141Y-59290000D01*
X146838859Y-60050000D02*
X147146141Y-60050000D01*
%TO.C,R24*%
X146838859Y-57300000D02*
X147146141Y-57300000D01*
X146838859Y-58060000D02*
X147146141Y-58060000D01*
%TO.C,R23*%
X146838859Y-55310000D02*
X147146141Y-55310000D01*
X146838859Y-56070000D02*
X147146141Y-56070000D01*
%TO.C,R22*%
X146838859Y-53320000D02*
X147146141Y-53320000D01*
X146838859Y-54080000D02*
X147146141Y-54080000D01*
%TO.C,R16*%
X143928859Y-61280000D02*
X144236141Y-61280000D01*
X143928859Y-62040000D02*
X144236141Y-62040000D01*
%TO.C,R15*%
X143928859Y-59290000D02*
X144236141Y-59290000D01*
X143928859Y-60050000D02*
X144236141Y-60050000D01*
%TO.C,R14*%
X143928859Y-57300000D02*
X144236141Y-57300000D01*
X143928859Y-58060000D02*
X144236141Y-58060000D01*
%TO.C,R13*%
X143928859Y-55310000D02*
X144236141Y-55310000D01*
X143928859Y-56070000D02*
X144236141Y-56070000D01*
%TO.C,R12*%
X143928859Y-53320000D02*
X144236141Y-53320000D01*
X143928859Y-54080000D02*
X144236141Y-54080000D01*
%TO.C,R11*%
X141018859Y-61280000D02*
X141326141Y-61280000D01*
X141018859Y-62040000D02*
X141326141Y-62040000D01*
%TO.C,R10*%
X141018859Y-59290000D02*
X141326141Y-59290000D01*
X141018859Y-60050000D02*
X141326141Y-60050000D01*
%TO.C,R9*%
X141018859Y-57300000D02*
X141326141Y-57300000D01*
X141018859Y-58060000D02*
X141326141Y-58060000D01*
%TO.C,R8*%
X141018859Y-55310000D02*
X141326141Y-55310000D01*
X141018859Y-56070000D02*
X141326141Y-56070000D01*
%TO.C,R7*%
X141018859Y-53320000D02*
X141326141Y-53320000D01*
X141018859Y-54080000D02*
X141326141Y-54080000D01*
%TO.C,R6*%
X138108859Y-61280000D02*
X138416141Y-61280000D01*
X138108859Y-62040000D02*
X138416141Y-62040000D01*
%TO.C,R5*%
X138108859Y-59290000D02*
X138416141Y-59290000D01*
X138108859Y-60050000D02*
X138416141Y-60050000D01*
%TO.C,R4*%
X138108859Y-57300000D02*
X138416141Y-57300000D01*
X138108859Y-58060000D02*
X138416141Y-58060000D01*
%TO.C,R3*%
X138575242Y-68407500D02*
X139049758Y-68407500D01*
X138575242Y-69452500D02*
X139049758Y-69452500D01*
%TO.C,R2*%
X138108859Y-55310000D02*
X138416141Y-55310000D01*
X138108859Y-56070000D02*
X138416141Y-56070000D01*
%TO.C,R1*%
X138108859Y-53320000D02*
X138416141Y-53320000D01*
X138108859Y-54080000D02*
X138416141Y-54080000D01*
%TO.C,Q4*%
X135332500Y-92840000D02*
X136852500Y-92840000D01*
X135332500Y-92890000D02*
X135332500Y-92840000D01*
X135332500Y-94790000D02*
X135332500Y-94010000D01*
X135332500Y-95960000D02*
X135332500Y-95910000D01*
X136852500Y-92840000D02*
X136852500Y-93840000D01*
X136852500Y-94960000D02*
X136852500Y-95960000D01*
X136852500Y-95960000D02*
X135332500Y-95960000D01*
X135032500Y-94350000D02*
X134552500Y-94350000D01*
X134792500Y-94020000D01*
X135032500Y-94350000D01*
G36*
X135032500Y-94350000D02*
G01*
X134552500Y-94350000D01*
X134792500Y-94020000D01*
X135032500Y-94350000D01*
G37*
%TO.C,Q2*%
X135332500Y-88390000D02*
X136852500Y-88390000D01*
X135332500Y-88440000D02*
X135332500Y-88390000D01*
X135332500Y-90340000D02*
X135332500Y-89560000D01*
X135332500Y-91510000D02*
X135332500Y-91460000D01*
X136852500Y-88390000D02*
X136852500Y-89390000D01*
X136852500Y-90510000D02*
X136852500Y-91510000D01*
X136852500Y-91510000D02*
X135332500Y-91510000D01*
X135032500Y-89900000D02*
X134552500Y-89900000D01*
X134792500Y-89570000D01*
X135032500Y-89900000D01*
G36*
X135032500Y-89900000D02*
G01*
X134552500Y-89900000D01*
X134792500Y-89570000D01*
X135032500Y-89900000D01*
G37*
%TO.C,Q1*%
X135332500Y-83940000D02*
X136852500Y-83940000D01*
X135332500Y-83990000D02*
X135332500Y-83940000D01*
X135332500Y-85890000D02*
X135332500Y-85110000D01*
X135332500Y-87060000D02*
X135332500Y-87010000D01*
X136852500Y-83940000D02*
X136852500Y-84940000D01*
X136852500Y-86060000D02*
X136852500Y-87060000D01*
X136852500Y-87060000D02*
X135332500Y-87060000D01*
X135032500Y-85450000D02*
X134552500Y-85450000D01*
X134792500Y-85120000D01*
X135032500Y-85450000D01*
G36*
X135032500Y-85450000D02*
G01*
X134552500Y-85450000D01*
X134792500Y-85120000D01*
X135032500Y-85450000D01*
G37*
%TO.C,J30*%
X112992500Y-93900000D02*
X118772500Y-93900000D01*
X112992500Y-94420000D02*
X118772500Y-94420000D01*
X112992500Y-99720000D02*
X113582500Y-99720000D01*
X112992500Y-100340000D02*
X112992500Y-93900000D01*
X113582500Y-100340000D02*
X112992500Y-100340000D01*
X115642500Y-99720000D02*
X116122500Y-99720000D01*
X116122500Y-100340000D02*
X115642500Y-100340000D01*
X118182500Y-99720000D02*
X118772500Y-99720000D01*
X118772500Y-93900000D02*
X118772500Y-100340000D01*
X118772500Y-100340000D02*
X118182500Y-100340000D01*
X115052500Y-101300000D02*
X114172500Y-101300000D01*
X114612500Y-100690000D01*
X115052500Y-101300000D01*
G36*
X115052500Y-101300000D02*
G01*
X114172500Y-101300000D01*
X114612500Y-100690000D01*
X115052500Y-101300000D01*
G37*
%TO.C,J29*%
X144242500Y-71980000D02*
X145622500Y-71980000D01*
X144242500Y-73360000D02*
X144242500Y-71980000D01*
X144242500Y-74630000D02*
X144242500Y-77280000D01*
X144242500Y-74630000D02*
X147002500Y-74630000D01*
X144242500Y-77280000D02*
X147002500Y-77280000D01*
X147002500Y-74630000D02*
X147002500Y-77280000D01*
%TO.C,J28*%
X120782500Y-67390000D02*
X122162500Y-67390000D01*
X120782500Y-68770000D02*
X120782500Y-67390000D01*
X120782500Y-70040000D02*
X120782500Y-70150000D01*
X120782500Y-70040000D02*
X123542500Y-70040000D01*
X120782500Y-70150000D02*
X123542500Y-70150000D01*
X123542500Y-70040000D02*
X123542500Y-70150000D01*
%TO.C,J27*%
X120782500Y-62800000D02*
X122162500Y-62800000D01*
X120782500Y-64180000D02*
X120782500Y-62800000D01*
X120782500Y-65450000D02*
X120782500Y-65560000D01*
X120782500Y-65450000D02*
X123542500Y-65450000D01*
X120782500Y-65560000D02*
X123542500Y-65560000D01*
X123542500Y-65450000D02*
X123542500Y-65560000D01*
%TO.C,J26*%
X120782500Y-58210000D02*
X122162500Y-58210000D01*
X120782500Y-59590000D02*
X120782500Y-58210000D01*
X120782500Y-60860000D02*
X120782500Y-60970000D01*
X120782500Y-60860000D02*
X123542500Y-60860000D01*
X120782500Y-60970000D02*
X123542500Y-60970000D01*
X123542500Y-60860000D02*
X123542500Y-60970000D01*
%TO.C,J25*%
X129962500Y-84190000D02*
X131342500Y-84190000D01*
X129962500Y-85570000D02*
X129962500Y-84190000D01*
X129962500Y-86840000D02*
X129962500Y-92030000D01*
X129962500Y-86840000D02*
X132722500Y-86840000D01*
X129962500Y-92030000D02*
X132722500Y-92030000D01*
X132722500Y-86840000D02*
X132722500Y-92030000D01*
%TO.C,J24*%
X125372500Y-84190000D02*
X126752500Y-84190000D01*
X125372500Y-85570000D02*
X125372500Y-84190000D01*
X125372500Y-86840000D02*
X125372500Y-92030000D01*
X125372500Y-86840000D02*
X128132500Y-86840000D01*
X125372500Y-92030000D02*
X128132500Y-92030000D01*
X128132500Y-86840000D02*
X128132500Y-92030000D01*
%TO.C,J23*%
X120782500Y-53620000D02*
X122162500Y-53620000D01*
X120782500Y-55000000D02*
X120782500Y-53620000D01*
X120782500Y-56270000D02*
X120782500Y-56380000D01*
X120782500Y-56270000D02*
X123542500Y-56270000D01*
X120782500Y-56380000D02*
X123542500Y-56380000D01*
X123542500Y-56270000D02*
X123542500Y-56380000D01*
%TO.C,J22*%
X143732500Y-41410000D02*
X145112500Y-41410000D01*
X143732500Y-42790000D02*
X143732500Y-41410000D01*
X143732500Y-44060000D02*
X143732500Y-51790000D01*
X143732500Y-44060000D02*
X146492500Y-44060000D01*
X143732500Y-51790000D02*
X146492500Y-51790000D01*
X146492500Y-44060000D02*
X146492500Y-51790000D01*
%TO.C,J21*%
X139142500Y-41410000D02*
X140522500Y-41410000D01*
X139142500Y-42790000D02*
X139142500Y-41410000D01*
X139142500Y-44060000D02*
X139142500Y-51790000D01*
X139142500Y-44060000D02*
X141902500Y-44060000D01*
X139142500Y-51790000D02*
X141902500Y-51790000D01*
X141902500Y-44060000D02*
X141902500Y-51790000D01*
%TO.C,J20*%
X127922500Y-71980000D02*
X129302500Y-71980000D01*
X127922500Y-73360000D02*
X127922500Y-71980000D01*
X127922500Y-74630000D02*
X127922500Y-82360000D01*
X127922500Y-74630000D02*
X130572500Y-74630000D01*
X127922500Y-82360000D02*
X133222500Y-82360000D01*
X130572500Y-71980000D02*
X133222500Y-71980000D01*
X130572500Y-74630000D02*
X130572500Y-71980000D01*
X133222500Y-71980000D02*
X133222500Y-82360000D01*
%TO.C,J17*%
X120782500Y-84190000D02*
X122162500Y-84190000D01*
X120782500Y-85570000D02*
X120782500Y-84190000D01*
X120782500Y-86840000D02*
X120782500Y-92030000D01*
X120782500Y-86840000D02*
X123542500Y-86840000D01*
X120782500Y-92030000D02*
X123542500Y-92030000D01*
X123542500Y-86840000D02*
X123542500Y-92030000D01*
%TO.C,J16*%
X134552500Y-41410000D02*
X135932500Y-41410000D01*
X134552500Y-42790000D02*
X134552500Y-41410000D01*
X134552500Y-44060000D02*
X134552500Y-51790000D01*
X134552500Y-44060000D02*
X137312500Y-44060000D01*
X134552500Y-51790000D02*
X137312500Y-51790000D01*
X137312500Y-44060000D02*
X137312500Y-51790000D01*
%TO.C,J11*%
X139652500Y-71980000D02*
X141032500Y-71980000D01*
X139652500Y-73360000D02*
X139652500Y-71980000D01*
X139652500Y-74630000D02*
X139652500Y-77280000D01*
X139652500Y-74630000D02*
X142412500Y-74630000D01*
X139652500Y-77280000D02*
X142412500Y-77280000D01*
X142412500Y-74630000D02*
X142412500Y-77280000D01*
%TO.C,J10*%
X105402500Y-93900000D02*
X111182500Y-93900000D01*
X105402500Y-94420000D02*
X111182500Y-94420000D01*
X105402500Y-99720000D02*
X105992500Y-99720000D01*
X105402500Y-100340000D02*
X105402500Y-93900000D01*
X105992500Y-100340000D02*
X105402500Y-100340000D01*
X108052500Y-99720000D02*
X108532500Y-99720000D01*
X108532500Y-100340000D02*
X108052500Y-100340000D01*
X110592500Y-99720000D02*
X111182500Y-99720000D01*
X111182500Y-93900000D02*
X111182500Y-100340000D01*
X111182500Y-100340000D02*
X110592500Y-100340000D01*
X107462500Y-101300000D02*
X106582500Y-101300000D01*
X107022500Y-100690000D01*
X107462500Y-101300000D01*
G36*
X107462500Y-101300000D02*
G01*
X106582500Y-101300000D01*
X107022500Y-100690000D01*
X107462500Y-101300000D01*
G37*
%TO.C,J9*%
X97812500Y-93900000D02*
X103592500Y-93900000D01*
X97812500Y-94420000D02*
X103592500Y-94420000D01*
X97812500Y-99720000D02*
X98402500Y-99720000D01*
X97812500Y-100340000D02*
X97812500Y-93900000D01*
X98402500Y-100340000D02*
X97812500Y-100340000D01*
X100462500Y-99720000D02*
X100942500Y-99720000D01*
X100942500Y-100340000D02*
X100462500Y-100340000D01*
X103002500Y-99720000D02*
X103592500Y-99720000D01*
X103592500Y-93900000D02*
X103592500Y-100340000D01*
X103592500Y-100340000D02*
X103002500Y-100340000D01*
X99872500Y-101300000D02*
X98992500Y-101300000D01*
X99432500Y-100690000D01*
X99872500Y-101300000D01*
G36*
X99872500Y-101300000D02*
G01*
X98992500Y-101300000D01*
X99432500Y-100690000D01*
X99872500Y-101300000D01*
G37*
%TO.C,J8*%
X120782500Y-71980000D02*
X122162500Y-71980000D01*
X120782500Y-73360000D02*
X120782500Y-71980000D01*
X120782500Y-74630000D02*
X120782500Y-82360000D01*
X120782500Y-74630000D02*
X123432500Y-74630000D01*
X120782500Y-82360000D02*
X126082500Y-82360000D01*
X123432500Y-71980000D02*
X126082500Y-71980000D01*
X123432500Y-74630000D02*
X123432500Y-71980000D01*
X126082500Y-71980000D02*
X126082500Y-82360000D01*
%TO.C,J7*%
X90222500Y-93900000D02*
X96002500Y-93900000D01*
X90222500Y-94420000D02*
X96002500Y-94420000D01*
X90222500Y-99720000D02*
X90812500Y-99720000D01*
X90222500Y-100340000D02*
X90222500Y-93900000D01*
X90812500Y-100340000D02*
X90222500Y-100340000D01*
X92872500Y-99720000D02*
X93352500Y-99720000D01*
X93352500Y-100340000D02*
X92872500Y-100340000D01*
X95412500Y-99720000D02*
X96002500Y-99720000D01*
X96002500Y-93900000D02*
X96002500Y-100340000D01*
X96002500Y-100340000D02*
X95412500Y-100340000D01*
X92282500Y-101300000D02*
X91402500Y-101300000D01*
X91842500Y-100690000D01*
X92282500Y-101300000D01*
G36*
X92282500Y-101300000D02*
G01*
X91402500Y-101300000D01*
X91842500Y-100690000D01*
X92282500Y-101300000D01*
G37*
%TO.C,J6*%
X125082500Y-53730000D02*
X125082500Y-55030000D01*
X125382500Y-54030000D02*
X127382500Y-54030000D01*
X125382500Y-68530000D02*
X125382500Y-54030000D01*
X126782500Y-53730000D02*
X125082500Y-53730000D01*
X132582500Y-54030000D02*
X134582500Y-54030000D01*
X134582500Y-54030000D02*
X134582500Y-55330000D01*
X134582500Y-59930000D02*
X134582500Y-68530000D01*
X134582500Y-68530000D02*
X125382500Y-68530000D01*
%TO.C,J5*%
X135062500Y-71980000D02*
X136442500Y-71980000D01*
X135062500Y-73360000D02*
X135062500Y-71980000D01*
X135062500Y-74630000D02*
X135062500Y-77280000D01*
X135062500Y-74630000D02*
X137822500Y-74630000D01*
X135062500Y-77280000D02*
X137822500Y-77280000D01*
X137822500Y-74630000D02*
X137822500Y-77280000D01*
%TO.C,J4*%
X120772500Y-93850000D02*
X131632500Y-93850000D01*
X120772500Y-94370000D02*
X131632500Y-94370000D01*
X120772500Y-99670000D02*
X131632500Y-99670000D01*
X120772500Y-100290000D02*
X120772500Y-93850000D01*
X122092500Y-100290000D02*
X120772500Y-100290000D01*
X131632500Y-93850000D02*
X131632500Y-100290000D01*
X131632500Y-100290000D02*
X122692500Y-100290000D01*
X122832500Y-100900000D02*
X121952500Y-100900000D01*
X122392500Y-100290000D01*
X122832500Y-100900000D01*
G36*
X122832500Y-100900000D02*
G01*
X121952500Y-100900000D01*
X122392500Y-100290000D01*
X122832500Y-100900000D01*
G37*
%TO.C,J3*%
X129962500Y-41410000D02*
X131342500Y-41410000D01*
X129962500Y-42790000D02*
X129962500Y-41410000D01*
X129962500Y-44060000D02*
X129962500Y-51790000D01*
X129962500Y-44060000D02*
X132722500Y-44060000D01*
X129962500Y-51790000D02*
X132722500Y-51790000D01*
X132722500Y-44060000D02*
X132722500Y-51790000D01*
%TO.C,J2*%
X125372500Y-41410000D02*
X126752500Y-41410000D01*
X125372500Y-42790000D02*
X125372500Y-41410000D01*
X125372500Y-44060000D02*
X125372500Y-51790000D01*
X125372500Y-44060000D02*
X128132500Y-44060000D01*
X125372500Y-51790000D02*
X128132500Y-51790000D01*
X128132500Y-44060000D02*
X128132500Y-51790000D01*
%TO.C,J1*%
X120782500Y-41410000D02*
X122162500Y-41410000D01*
X120782500Y-42790000D02*
X120782500Y-41410000D01*
X120782500Y-44060000D02*
X120782500Y-51790000D01*
X120782500Y-44060000D02*
X123542500Y-44060000D01*
X120782500Y-51790000D02*
X123542500Y-51790000D01*
X123542500Y-44060000D02*
X123542500Y-51790000D01*
D17*
%TO.C,IC1*%
X141735118Y-63455000D02*
X144735118Y-63455000D01*
X141735118Y-68455000D02*
X141735118Y-63455000D01*
X144735118Y-63455000D02*
X144735118Y-68455000D01*
X144735118Y-68455000D02*
X141735118Y-68455000D01*
X141676536Y-63555000D02*
G75*
G02*
X141393700Y-63555000I-141418J0D01*
G01*
X141393700Y-63555000D02*
G75*
G02*
X141676536Y-63555000I141418J0D01*
G01*
D13*
%TO.C,D10*%
X144977500Y-98115000D02*
X144977500Y-99585000D01*
X144977500Y-99585000D02*
X147262500Y-99585000D01*
X147262500Y-98115000D02*
X144977500Y-98115000D01*
%TO.C,D4*%
X144977500Y-95525000D02*
X144977500Y-96995000D01*
X144977500Y-96995000D02*
X147262500Y-96995000D01*
X147262500Y-95525000D02*
X144977500Y-95525000D01*
%TO.C,D2*%
X139107500Y-83900000D02*
X139107500Y-87200000D01*
X139107500Y-83900000D02*
X144617500Y-83900000D01*
X139107500Y-87200000D02*
X144617500Y-87200000D01*
%TO.C,D1*%
X144977500Y-92935000D02*
X144977500Y-94405000D01*
X144977500Y-94405000D02*
X147262500Y-94405000D01*
X147262500Y-92935000D02*
X144977500Y-92935000D01*
%TO.C,C4*%
X146854664Y-65250000D02*
X147070336Y-65250000D01*
X146854664Y-65970000D02*
X147070336Y-65970000D01*
%TO.C,C3*%
X146854664Y-63280000D02*
X147070336Y-63280000D01*
X146854664Y-64000000D02*
X147070336Y-64000000D01*
%TO.C,C2*%
X138671920Y-65910000D02*
X138953080Y-65910000D01*
X138671920Y-66930000D02*
X138953080Y-66930000D01*
%TO.C,C1*%
X138671920Y-63400000D02*
X138953080Y-63400000D01*
X138671920Y-64420000D02*
X138953080Y-64420000D01*
%TD*%
%LPC*%
D18*
%TO.C,IC1*%
G36*
X144561318Y-66428800D02*
G01*
X144661318Y-66428800D01*
X144661318Y-68281200D01*
X143858918Y-68281200D01*
X143858918Y-66128800D01*
X144561318Y-66128800D01*
X144561318Y-66428800D01*
G37*
G36*
X142611318Y-68281200D02*
G01*
X141858918Y-68281200D01*
X141858918Y-67981200D01*
X141808918Y-67981200D01*
X141808918Y-66428800D01*
X141858918Y-66428800D01*
X141858918Y-66128800D01*
X142611318Y-66128800D01*
X142611318Y-68281200D01*
G37*
%TD*%
D19*
%TO.C,D3*%
X144617500Y-90100000D03*
X140617500Y-90100000D03*
%TD*%
D20*
%TO.C,U3*%
X92167500Y-51230000D03*
D21*
X92167500Y-53770000D03*
X92167500Y-56310000D03*
X92167500Y-58850000D03*
X92167500Y-61390000D03*
X92167500Y-63930000D03*
X92167500Y-66470000D03*
X92167500Y-69010000D03*
X92167500Y-71550000D03*
X92167500Y-74090000D03*
X92167500Y-76630000D03*
X92167500Y-79170000D03*
X92167500Y-81710000D03*
X92167500Y-84250000D03*
X92167500Y-86790000D03*
X117567500Y-51230000D03*
X117567500Y-53770000D03*
X117567500Y-56310000D03*
X117567500Y-58850000D03*
X117567500Y-61390000D03*
X117567500Y-63930000D03*
X117567500Y-66470000D03*
X117567500Y-69010000D03*
X117567500Y-71550000D03*
X117567500Y-74090000D03*
X117567500Y-76630000D03*
X117567500Y-79170000D03*
X117567500Y-81710000D03*
X117567500Y-84250000D03*
X117567500Y-86790000D03*
D22*
X92587500Y-90220000D03*
X117097500Y-90220000D03*
X117097500Y-43270000D03*
X92587500Y-43270000D03*
%TD*%
D23*
%TO.C,U2*%
X139580700Y-99212300D03*
X140850700Y-99212300D03*
X142120700Y-99212300D03*
X143390700Y-99212300D03*
X143390700Y-93979900D03*
X142120700Y-93979900D03*
X140850700Y-93979900D03*
X139580700Y-93979900D03*
%TD*%
D24*
%TO.C,R27*%
X146482500Y-61660000D03*
X147502500Y-61660000D03*
%TD*%
%TO.C,R25*%
X146482500Y-59670000D03*
X147502500Y-59670000D03*
%TD*%
%TO.C,R24*%
X146482500Y-57680000D03*
X147502500Y-57680000D03*
%TD*%
%TO.C,R23*%
X146482500Y-55690000D03*
X147502500Y-55690000D03*
%TD*%
%TO.C,R22*%
X146482500Y-53700000D03*
X147502500Y-53700000D03*
%TD*%
%TO.C,R16*%
X143572500Y-61660000D03*
X144592500Y-61660000D03*
%TD*%
%TO.C,R15*%
X143572500Y-59670000D03*
X144592500Y-59670000D03*
%TD*%
%TO.C,R14*%
X143572500Y-57680000D03*
X144592500Y-57680000D03*
%TD*%
%TO.C,R13*%
X143572500Y-55690000D03*
X144592500Y-55690000D03*
%TD*%
%TO.C,R12*%
X143572500Y-53700000D03*
X144592500Y-53700000D03*
%TD*%
%TO.C,R11*%
X140662500Y-61660000D03*
X141682500Y-61660000D03*
%TD*%
%TO.C,R10*%
X140662500Y-59670000D03*
X141682500Y-59670000D03*
%TD*%
%TO.C,R9*%
X140662500Y-57680000D03*
X141682500Y-57680000D03*
%TD*%
%TO.C,R8*%
X140662500Y-55690000D03*
X141682500Y-55690000D03*
%TD*%
%TO.C,R7*%
X140662500Y-53700000D03*
X141682500Y-53700000D03*
%TD*%
%TO.C,R6*%
X137752500Y-61660000D03*
X138772500Y-61660000D03*
%TD*%
%TO.C,R5*%
X137752500Y-59670000D03*
X138772500Y-59670000D03*
%TD*%
%TO.C,R4*%
X137752500Y-57680000D03*
X138772500Y-57680000D03*
%TD*%
D25*
%TO.C,R3*%
X137987500Y-68930000D03*
X139637500Y-68930000D03*
%TD*%
D24*
%TO.C,R2*%
X137752500Y-55690000D03*
X138772500Y-55690000D03*
%TD*%
%TO.C,R1*%
X137752500Y-53700000D03*
X138772500Y-53700000D03*
%TD*%
D26*
%TO.C,Q4*%
X135155000Y-93450000D03*
X135155000Y-95350000D03*
X137030000Y-94400000D03*
%TD*%
%TO.C,Q2*%
X135155000Y-89000000D03*
X135155000Y-90900000D03*
X137030000Y-89950000D03*
%TD*%
%TO.C,Q1*%
X135155000Y-84550000D03*
X135155000Y-86450000D03*
X137030000Y-85500000D03*
%TD*%
D27*
%TO.C,J30*%
X114612500Y-99660000D03*
X117152500Y-99660000D03*
D28*
X114612500Y-97120000D03*
D29*
X117152500Y-97120000D03*
%TD*%
D30*
%TO.C,J29*%
X145622500Y-73360000D03*
D31*
X145622500Y-75900000D03*
%TD*%
D30*
%TO.C,J28*%
X122162500Y-68770000D03*
%TD*%
%TO.C,J27*%
X122162500Y-64180000D03*
%TD*%
%TO.C,J26*%
X122162500Y-59590000D03*
%TD*%
%TO.C,J25*%
X131342500Y-85570000D03*
D31*
X131342500Y-88110000D03*
X131342500Y-90650000D03*
%TD*%
D30*
%TO.C,J24*%
X126752500Y-85570000D03*
D31*
X126752500Y-88110000D03*
X126752500Y-90650000D03*
%TD*%
D30*
%TO.C,J23*%
X122162500Y-55000000D03*
%TD*%
%TO.C,J22*%
X145112500Y-42790000D03*
D31*
X145112500Y-45330000D03*
X145112500Y-47870000D03*
X145112500Y-50410000D03*
%TD*%
D30*
%TO.C,J21*%
X140522500Y-42790000D03*
D31*
X140522500Y-45330000D03*
X140522500Y-47870000D03*
X140522500Y-50410000D03*
%TD*%
D30*
%TO.C,J20*%
X129302500Y-73360000D03*
D31*
X131842500Y-73360000D03*
X129302500Y-75900000D03*
X131842500Y-75900000D03*
X129302500Y-78440000D03*
X131842500Y-78440000D03*
X129302500Y-80980000D03*
X131842500Y-80980000D03*
%TD*%
D30*
%TO.C,J17*%
X122162500Y-85570000D03*
D31*
X122162500Y-88110000D03*
X122162500Y-90650000D03*
%TD*%
D30*
%TO.C,J16*%
X135932500Y-42790000D03*
D31*
X135932500Y-45330000D03*
X135932500Y-47870000D03*
X135932500Y-50410000D03*
%TD*%
D30*
%TO.C,J11*%
X141032500Y-73360000D03*
D31*
X141032500Y-75900000D03*
%TD*%
D27*
%TO.C,J10*%
X107022500Y-99660000D03*
X109562500Y-99660000D03*
D28*
X107022500Y-97120000D03*
D29*
X109562500Y-97120000D03*
%TD*%
D27*
%TO.C,J9*%
X99432500Y-99660000D03*
X101972500Y-99660000D03*
D28*
X99432500Y-97120000D03*
D29*
X101972500Y-97120000D03*
%TD*%
D30*
%TO.C,J8*%
X122162500Y-73360000D03*
D31*
X124702500Y-73360000D03*
X122162500Y-75900000D03*
X124702500Y-75900000D03*
X122162500Y-78440000D03*
X124702500Y-78440000D03*
X122162500Y-80980000D03*
X124702500Y-80980000D03*
%TD*%
D27*
%TO.C,J7*%
X91842500Y-99660000D03*
X94382500Y-99660000D03*
D28*
X91842500Y-97120000D03*
D29*
X94382500Y-97120000D03*
%TD*%
D32*
%TO.C,J6*%
X129982500Y-54730000D03*
D33*
X129982500Y-61030000D03*
D34*
X134782500Y-57630000D03*
%TD*%
D30*
%TO.C,J5*%
X136442500Y-73360000D03*
D31*
X136442500Y-75900000D03*
%TD*%
D28*
%TO.C,J4*%
X122392500Y-97070000D03*
D29*
X124932500Y-97070000D03*
X127472500Y-97070000D03*
X130012500Y-97070000D03*
%TD*%
D30*
%TO.C,J3*%
X131342500Y-42790000D03*
D31*
X131342500Y-45330000D03*
X131342500Y-47870000D03*
X131342500Y-50410000D03*
%TD*%
D30*
%TO.C,J2*%
X126752500Y-42790000D03*
D31*
X126752500Y-45330000D03*
X126752500Y-47870000D03*
X126752500Y-50410000D03*
%TD*%
D30*
%TO.C,J1*%
X122162500Y-42790000D03*
D31*
X122162500Y-45330000D03*
X122162500Y-47870000D03*
X122162500Y-50410000D03*
%TD*%
D35*
%TO.C,IC1*%
X141785118Y-64405000D03*
D36*
X141985118Y-65055000D03*
X141985118Y-65705000D03*
D35*
X141785118Y-66355000D03*
X141785118Y-67205000D03*
X141785118Y-68055000D03*
X144685118Y-68055000D03*
X144685118Y-67205000D03*
X144685118Y-66355000D03*
D36*
X144485118Y-65705000D03*
X144485118Y-65055000D03*
D35*
X144685118Y-64405000D03*
D37*
X144485118Y-63505000D03*
X143985118Y-63505000D03*
D38*
X143485118Y-63705000D03*
X142985118Y-63705000D03*
D37*
X142485118Y-63505000D03*
X141985118Y-63505000D03*
%TD*%
D39*
%TO.C,D10*%
X145675000Y-98850000D03*
X147250000Y-98850000D03*
%TD*%
%TO.C,D4*%
X145675000Y-96260000D03*
X147250000Y-96260000D03*
%TD*%
D19*
%TO.C,D2*%
X140617500Y-85550000D03*
X144617500Y-85550000D03*
%TD*%
D39*
%TO.C,D1*%
X145675000Y-93670000D03*
X147250000Y-93670000D03*
%TD*%
D40*
%TO.C,C4*%
X146482500Y-65610000D03*
X147442500Y-65610000D03*
%TD*%
%TO.C,C3*%
X146482500Y-63640000D03*
X147442500Y-63640000D03*
%TD*%
D41*
%TO.C,C2*%
X138037500Y-66420000D03*
X139587500Y-66420000D03*
%TD*%
%TO.C,C1*%
X138037500Y-63910000D03*
X139587500Y-63910000D03*
%TD*%
%LPD*%
M02*
