%TF.GenerationSoftware,KiCad,Pcbnew,9.0.7-9.0.7~ubuntu24.04.1*%
%TF.CreationDate,2026-02-24T12:36:22-05:00*%
%TF.ProjectId,plantPartner_PCB2.0,706c616e-7450-4617-9274-6e65725f5043,rev?*%
%TF.SameCoordinates,Original*%
%TF.FileFunction,Soldermask,Top*%
%TF.FilePolarity,Negative*%
%FSLAX46Y46*%
G04 Gerber Fmt 4.6, Leading zero omitted, Abs format (unit mm)*
G04 Created by KiCad (PCBNEW 9.0.7-9.0.7~ubuntu24.04.1) date 2026-02-24 12:36:22*
%MOMM*%
%LPD*%
G01*
G04 APERTURE LIST*
G04 Aperture macros list*
%AMRoundRect*
0 Rectangle with rounded corners*
0 $1 Rounding radius*
0 $2 $3 $4 $5 $6 $7 $8 $9 X,Y pos of 4 corners*
0 Add a 4 corners polygon primitive as box body*
4,1,4,$2,$3,$4,$5,$6,$7,$8,$9,$2,$3,0*
0 Add four circle primitives for the rounded corners*
1,1,$1+$1,$2,$3*
1,1,$1+$1,$4,$5*
1,1,$1+$1,$6,$7*
1,1,$1+$1,$8,$9*
0 Add four rect primitives between the rounded corners*
20,1,$1+$1,$2,$3,$4,$5,0*
20,1,$1+$1,$4,$5,$6,$7,0*
20,1,$1+$1,$6,$7,$8,$9,0*
20,1,$1+$1,$8,$9,$2,$3,0*%
G04 Aperture macros list end*
%ADD10C,0.000000*%
%ADD11RoundRect,0.250000X-1.000000X-0.650000X1.000000X-0.650000X1.000000X0.650000X-1.000000X0.650000X0*%
%ADD12RoundRect,0.102000X-1.000000X-1.000000X1.000000X-1.000000X1.000000X1.000000X-1.000000X1.000000X0*%
%ADD13C,2.204000*%
%ADD14RoundRect,0.102000X-0.304800X-1.104900X0.304800X-1.104900X0.304800X1.104900X-0.304800X1.104900X0*%
%ADD15RoundRect,0.135000X-0.135000X-0.185000X0.135000X-0.185000X0.135000X0.185000X-0.135000X0.185000X0*%
%ADD16RoundRect,0.200000X-0.200000X-0.275000X0.200000X-0.275000X0.200000X0.275000X-0.200000X0.275000X0*%
%ADD17RoundRect,0.150000X-0.587500X-0.150000X0.587500X-0.150000X0.587500X0.150000X-0.587500X0.150000X0*%
%ADD18RoundRect,0.249999X-0.850001X-0.850001X0.850001X-0.850001X0.850001X0.850001X-0.850001X0.850001X0*%
%ADD19C,2.200000*%
%ADD20R,1.700000X1.700000*%
%ADD21C,1.700000*%
%ADD22R,4.600000X2.000000*%
%ADD23O,4.200000X2.000000*%
%ADD24O,2.000000X4.200000*%
%ADD25RoundRect,0.050800X-0.350000X-0.125000X0.350000X-0.125000X0.350000X0.125000X-0.350000X0.125000X0*%
%ADD26RoundRect,0.050800X-0.550000X-0.125000X0.550000X-0.125000X0.550000X0.125000X-0.550000X0.125000X0*%
%ADD27RoundRect,0.050800X0.125000X-0.350000X0.125000X0.350000X-0.125000X0.350000X-0.125000X-0.350000X0*%
%ADD28RoundRect,0.050800X0.125000X-0.550000X0.125000X0.550000X-0.125000X0.550000X-0.125000X-0.550000X0*%
%ADD29RoundRect,0.218750X-0.218750X-0.256250X0.218750X-0.256250X0.218750X0.256250X-0.218750X0.256250X0*%
%ADD30RoundRect,0.140000X-0.140000X-0.170000X0.140000X-0.170000X0.140000X0.170000X-0.140000X0.170000X0*%
%ADD31RoundRect,0.225000X-0.225000X-0.250000X0.225000X-0.250000X0.225000X0.250000X-0.225000X0.250000X0*%
G04 APERTURE END LIST*
D10*
%TO.C,IC1*%
G36*
X144561318Y-66428800D02*
G01*
X144661318Y-66428800D01*
X144661318Y-68281200D01*
X143858918Y-68281200D01*
X143858918Y-66128800D01*
X144561318Y-66128800D01*
X144561318Y-66428800D01*
G37*
G36*
X142611318Y-68281200D02*
G01*
X141858918Y-68281200D01*
X141858918Y-67981200D01*
X141808918Y-67981200D01*
X141808918Y-66428800D01*
X141858918Y-66428800D01*
X141858918Y-66128800D01*
X142611318Y-66128800D01*
X142611318Y-68281200D01*
G37*
%TD*%
D11*
%TO.C,D3*%
X144617500Y-90100000D03*
X140617500Y-90100000D03*
%TD*%
D12*
%TO.C,U3*%
X92167500Y-51230000D03*
D13*
X92167500Y-53770000D03*
X92167500Y-56310000D03*
X92167500Y-58850000D03*
X92167500Y-61390000D03*
X92167500Y-63930000D03*
X92167500Y-66470000D03*
X92167500Y-69010000D03*
X92167500Y-71550000D03*
X92167500Y-74090000D03*
X92167500Y-76630000D03*
X92167500Y-79170000D03*
X92167500Y-81710000D03*
X92167500Y-84250000D03*
X92167500Y-86790000D03*
X117567500Y-51230000D03*
X117567500Y-53770000D03*
X117567500Y-56310000D03*
X117567500Y-58850000D03*
X117567500Y-61390000D03*
X117567500Y-63930000D03*
X117567500Y-66470000D03*
X117567500Y-69010000D03*
X117567500Y-71550000D03*
X117567500Y-74090000D03*
X117567500Y-76630000D03*
X117567500Y-79170000D03*
X117567500Y-81710000D03*
X117567500Y-84250000D03*
X117567500Y-86790000D03*
%TD*%
D14*
%TO.C,U2*%
X139580700Y-99212300D03*
X140850700Y-99212300D03*
X142120700Y-99212300D03*
X143390700Y-99212300D03*
X143390700Y-93979900D03*
X142120700Y-93979900D03*
X140850700Y-93979900D03*
X139580700Y-93979900D03*
%TD*%
D15*
%TO.C,R27*%
X146482500Y-61660000D03*
X147502500Y-61660000D03*
%TD*%
%TO.C,R25*%
X146482500Y-59670000D03*
X147502500Y-59670000D03*
%TD*%
%TO.C,R24*%
X146482500Y-57680000D03*
X147502500Y-57680000D03*
%TD*%
%TO.C,R23*%
X146482500Y-55690000D03*
X147502500Y-55690000D03*
%TD*%
%TO.C,R22*%
X146482500Y-53700000D03*
X147502500Y-53700000D03*
%TD*%
%TO.C,R16*%
X143572500Y-61660000D03*
X144592500Y-61660000D03*
%TD*%
%TO.C,R15*%
X143572500Y-59670000D03*
X144592500Y-59670000D03*
%TD*%
%TO.C,R14*%
X143572500Y-57680000D03*
X144592500Y-57680000D03*
%TD*%
%TO.C,R13*%
X143572500Y-55690000D03*
X144592500Y-55690000D03*
%TD*%
%TO.C,R12*%
X143572500Y-53700000D03*
X144592500Y-53700000D03*
%TD*%
%TO.C,R11*%
X140662500Y-61660000D03*
X141682500Y-61660000D03*
%TD*%
%TO.C,R10*%
X140662500Y-59670000D03*
X141682500Y-59670000D03*
%TD*%
%TO.C,R9*%
X140662500Y-57680000D03*
X141682500Y-57680000D03*
%TD*%
%TO.C,R8*%
X140662500Y-55690000D03*
X141682500Y-55690000D03*
%TD*%
%TO.C,R7*%
X140662500Y-53700000D03*
X141682500Y-53700000D03*
%TD*%
%TO.C,R6*%
X137752500Y-61660000D03*
X138772500Y-61660000D03*
%TD*%
%TO.C,R5*%
X137752500Y-59670000D03*
X138772500Y-59670000D03*
%TD*%
%TO.C,R4*%
X137752500Y-57680000D03*
X138772500Y-57680000D03*
%TD*%
D16*
%TO.C,R3*%
X137987500Y-68930000D03*
X139637500Y-68930000D03*
%TD*%
D15*
%TO.C,R2*%
X137752500Y-55690000D03*
X138772500Y-55690000D03*
%TD*%
%TO.C,R1*%
X137752500Y-53700000D03*
X138772500Y-53700000D03*
%TD*%
D17*
%TO.C,Q4*%
X135155000Y-93450000D03*
X135155000Y-95350000D03*
X137030000Y-94400000D03*
%TD*%
%TO.C,Q2*%
X135155000Y-89000000D03*
X135155000Y-90900000D03*
X137030000Y-89950000D03*
%TD*%
%TO.C,Q1*%
X135155000Y-84550000D03*
X135155000Y-86450000D03*
X137030000Y-85500000D03*
%TD*%
D18*
%TO.C,J30*%
X114612500Y-97120000D03*
D19*
X117152500Y-97120000D03*
%TD*%
D20*
%TO.C,J29*%
X145622500Y-73360000D03*
D21*
X145622500Y-75900000D03*
%TD*%
D20*
%TO.C,J28*%
X122162500Y-68770000D03*
%TD*%
%TO.C,J27*%
X122162500Y-64180000D03*
%TD*%
%TO.C,J26*%
X122162500Y-59590000D03*
%TD*%
%TO.C,J25*%
X131342500Y-85570000D03*
D21*
X131342500Y-88110000D03*
X131342500Y-90650000D03*
%TD*%
D20*
%TO.C,J24*%
X126752500Y-85570000D03*
D21*
X126752500Y-88110000D03*
X126752500Y-90650000D03*
%TD*%
D20*
%TO.C,J23*%
X122162500Y-55000000D03*
%TD*%
%TO.C,J22*%
X145112500Y-42790000D03*
D21*
X145112500Y-45330000D03*
X145112500Y-47870000D03*
X145112500Y-50410000D03*
%TD*%
D20*
%TO.C,J21*%
X140522500Y-42790000D03*
D21*
X140522500Y-45330000D03*
X140522500Y-47870000D03*
X140522500Y-50410000D03*
%TD*%
D20*
%TO.C,J20*%
X129302500Y-73360000D03*
D21*
X131842500Y-73360000D03*
X129302500Y-75900000D03*
X131842500Y-75900000D03*
X129302500Y-78440000D03*
X131842500Y-78440000D03*
X129302500Y-80980000D03*
X131842500Y-80980000D03*
%TD*%
D20*
%TO.C,J17*%
X122162500Y-85570000D03*
D21*
X122162500Y-88110000D03*
X122162500Y-90650000D03*
%TD*%
D20*
%TO.C,J16*%
X135932500Y-42790000D03*
D21*
X135932500Y-45330000D03*
X135932500Y-47870000D03*
X135932500Y-50410000D03*
%TD*%
D20*
%TO.C,J11*%
X141032500Y-73360000D03*
D21*
X141032500Y-75900000D03*
%TD*%
D18*
%TO.C,J10*%
X107022500Y-97120000D03*
D19*
X109562500Y-97120000D03*
%TD*%
D18*
%TO.C,J9*%
X99432500Y-97120000D03*
D19*
X101972500Y-97120000D03*
%TD*%
D20*
%TO.C,J8*%
X122162500Y-73360000D03*
D21*
X124702500Y-73360000D03*
X122162500Y-75900000D03*
X124702500Y-75900000D03*
X122162500Y-78440000D03*
X124702500Y-78440000D03*
X122162500Y-80980000D03*
X124702500Y-80980000D03*
%TD*%
D18*
%TO.C,J7*%
X91842500Y-97120000D03*
D19*
X94382500Y-97120000D03*
%TD*%
D22*
%TO.C,J6*%
X129982500Y-54730000D03*
D23*
X129982500Y-61030000D03*
D24*
X134782500Y-57630000D03*
%TD*%
D20*
%TO.C,J5*%
X136442500Y-73360000D03*
D21*
X136442500Y-75900000D03*
%TD*%
D18*
%TO.C,J4*%
X122392500Y-97070000D03*
D19*
X124932500Y-97070000D03*
X127472500Y-97070000D03*
X130012500Y-97070000D03*
%TD*%
D20*
%TO.C,J3*%
X131342500Y-42790000D03*
D21*
X131342500Y-45330000D03*
X131342500Y-47870000D03*
X131342500Y-50410000D03*
%TD*%
D20*
%TO.C,J2*%
X126752500Y-42790000D03*
D21*
X126752500Y-45330000D03*
X126752500Y-47870000D03*
X126752500Y-50410000D03*
%TD*%
D20*
%TO.C,J1*%
X122162500Y-42790000D03*
D21*
X122162500Y-45330000D03*
X122162500Y-47870000D03*
X122162500Y-50410000D03*
%TD*%
D25*
%TO.C,IC1*%
X141785118Y-64405000D03*
D26*
X141985118Y-65055000D03*
X141985118Y-65705000D03*
D25*
X141785118Y-66355000D03*
X141785118Y-67205000D03*
X141785118Y-68055000D03*
X144685118Y-68055000D03*
X144685118Y-67205000D03*
X144685118Y-66355000D03*
D26*
X144485118Y-65705000D03*
X144485118Y-65055000D03*
D25*
X144685118Y-64405000D03*
D27*
X144485118Y-63505000D03*
X143985118Y-63505000D03*
D28*
X143485118Y-63705000D03*
X142985118Y-63705000D03*
D27*
X142485118Y-63505000D03*
X141985118Y-63505000D03*
%TD*%
D29*
%TO.C,D10*%
X145675000Y-98850000D03*
X147250000Y-98850000D03*
%TD*%
%TO.C,D4*%
X145675000Y-96260000D03*
X147250000Y-96260000D03*
%TD*%
D11*
%TO.C,D2*%
X140617500Y-85550000D03*
X144617500Y-85550000D03*
%TD*%
D29*
%TO.C,D1*%
X145675000Y-93670000D03*
X147250000Y-93670000D03*
%TD*%
D30*
%TO.C,C4*%
X146482500Y-65610000D03*
X147442500Y-65610000D03*
%TD*%
%TO.C,C3*%
X146482500Y-63640000D03*
X147442500Y-63640000D03*
%TD*%
D31*
%TO.C,C2*%
X138037500Y-66420000D03*
X139587500Y-66420000D03*
%TD*%
%TO.C,C1*%
X138037500Y-63910000D03*
X139587500Y-63910000D03*
%TD*%
M02*
