M48
; DRILL file {KiCad 9.0.7-9.0.7~ubuntu24.04.1} date 2026-03-04T15:53:27-0500
; FORMAT={-:-/ absolute / inch / decimal}
; #@! TF.CreationDate,2026-03-04T15:53:27-05:00
; #@! TF.GenerationSoftware,Kicad,Pcbnew,9.0.7-9.0.7~ubuntu24.04.1
; #@! TF.FileFunction,Plated,1,2,PTH
FMAT,2
INCH
; #@! TA.AperFunction,Plated,PTH,ViaDrill
T1C0.0118
; #@! TA.AperFunction,Plated,PTH,ViaDrill
T2C0.0197
; #@! TA.AperFunction,Plated,PTH,ComponentDrill
T3C0.0394
; #@! TA.AperFunction,Plated,PTH,ComponentDrill
T4C0.0402
; #@! TA.AperFunction,Plated,PTH,ComponentDrill
T5C0.0433
%
G90
G05
T1
X2.8917Y-1.6299
X2.9951Y-2.3583
X3.043Y-2.1463
X3.043Y-2.2998
X3.0738Y-1.6181
X3.0915Y-1.9783
X3.1295Y-2.1155
X3.1669Y-2.3911
X3.1811Y-1.9596
X3.1841Y-1.5994
X3.2815Y-2.0305
X3.3278Y-2.6043
X3.3396Y-2.7933
X3.4308Y-2.6391
X3.5226Y-2.7815
X3.5856Y-2.8031
X3.7697Y-1.9931
T2
X2.8022Y-2.4419
X3.0344Y-2.563
T3
X2.5925Y-2.6252
X2.5925Y-2.7252
X2.5925Y-2.8252
X2.5925Y-2.9252
X2.6254Y-1.2293
X2.7254Y-1.2293
X2.774Y-2.5236
X2.8254Y-1.2293
X2.874Y-2.5236
X2.9006Y-2.0677
X2.9006Y-2.1677
X2.9006Y-2.2677
X2.9006Y-2.3677
X3.2254Y-2.6496
X3.2254Y-2.7496
X3.2254Y-2.8496
X3.3568Y-1.7211
X3.3568Y-1.8211
X3.3568Y-1.9211
X3.3602Y-1.3541
X3.3602Y-1.4541
X3.3602Y-1.5541
X3.5089Y-1.5541
X3.5098Y-1.9203
X3.5324Y-3.1022
X3.5324Y-3.2022
X3.5324Y-3.3022
X3.56Y-2.0701
X3.56Y-2.1701
X3.56Y-2.2701
X3.56Y-2.3701
X3.687Y-3.1043
X3.688Y-2.6606
X3.688Y-2.7606
X3.688Y-2.8606
X3.688Y-2.9606
X3.7106Y-2.2128
X3.7106Y-2.3128
X3.7106Y-2.4128
X3.7106Y-2.5128
X3.7165Y-1.3652
X3.7165Y-1.7205
X4.6165Y-3.126
X4.6693Y-3.2746
X4.6693Y-3.3746
X4.7165Y-3.126
X4.8646Y-3.1728
X4.8646Y-3.2728
X4.8646Y-3.3728
X5.0128Y-1.5837
X5.0138Y-1.7276
X5.0138Y-1.8276
X5.0138Y-1.9276
X5.0138Y-2.0276
X5.0138Y-2.1276
X5.0138Y-2.2719
X5.0138Y-2.3719
X5.0138Y-2.4719
X5.0138Y-2.5719
X5.0157Y-2.8219
T4
X3.8652Y-1.4181
X3.8652Y-1.5181
X3.8652Y-1.6181
X3.8652Y-1.7181
X3.8652Y-1.8181
X3.8652Y-1.9181
X3.8652Y-2.0181
X3.8652Y-2.1181
X3.8652Y-2.2181
X3.8652Y-2.3181
X3.8652Y-2.4181
X3.8652Y-2.5181
X3.8652Y-2.6181
X3.8652Y-2.7181
X3.8652Y-2.8181
X4.8652Y-1.4181
X4.8652Y-1.5181
X4.8652Y-1.6181
X4.8652Y-1.7181
X4.8652Y-1.8181
X4.8652Y-1.9181
X4.8652Y-2.0181
X4.8652Y-2.1181
X4.8652Y-2.2181
X4.8652Y-2.3181
X4.8652Y-2.4181
X4.8652Y-2.5181
X4.8652Y-2.6181
X4.8652Y-2.7181
X4.8652Y-2.8181
T5
X2.6831Y-2.0563
X2.6831Y-2.1563
X2.6831Y-2.2563
X2.6831Y-2.3563
X2.814Y-1.4039
X2.814Y-1.5039
X2.8162Y-1.7752
X2.8162Y-1.8752
X3.2435Y-3.2303
X3.3435Y-3.2303
X3.8439Y-3.2047
X3.9439Y-3.2047
T3
G00X2.8238Y-2.8169
M15
G01X2.9262Y-2.8169
M16
G05
G00X2.8317Y-3.065
M15
G01X2.9183Y-3.065
M16
G05
G00X3.064Y-2.8878
M15
G01X3.064Y-2.9744
M16
G05
M30
