%TF.GenerationSoftware,KiCad,Pcbnew,9.0.7-9.0.7~ubuntu24.04.1*%
%TF.CreationDate,2026-03-04T15:53:27-05:00*%
%TF.ProjectId,plantPartner_PCB2.0,706c616e-7450-4617-9274-6e65725f5043,2*%
%TF.SameCoordinates,Original*%
%TF.FileFunction,Soldermask,Top*%
%TF.FilePolarity,Negative*%
%FSLAX46Y46*%
G04 Gerber Fmt 4.6, Leading zero omitted, Abs format (unit mm)*
G04 Created by KiCad (PCBNEW 9.0.7-9.0.7~ubuntu24.04.1) date 2026-03-04 15:53:27*
%MOMM*%
%LPD*%
G01*
G04 APERTURE LIST*
G04 Aperture macros list*
%AMRoundRect*
0 Rectangle with rounded corners*
0 $1 Rounding radius*
0 $2 $3 $4 $5 $6 $7 $8 $9 X,Y pos of 4 corners*
0 Add a 4 corners polygon primitive as box body*
4,1,4,$2,$3,$4,$5,$6,$7,$8,$9,$2,$3,0*
0 Add four circle primitives for the rounded corners*
1,1,$1+$1,$2,$3*
1,1,$1+$1,$4,$5*
1,1,$1+$1,$6,$7*
1,1,$1+$1,$8,$9*
0 Add four rect primitives between the rounded corners*
20,1,$1+$1,$2,$3,$4,$5,0*
20,1,$1+$1,$4,$5,$6,$7,0*
20,1,$1+$1,$6,$7,$8,$9,0*
20,1,$1+$1,$8,$9,$2,$3,0*%
G04 Aperture macros list end*
%ADD10RoundRect,0.250000X-0.250000X-0.475000X0.250000X-0.475000X0.250000X0.475000X-0.250000X0.475000X0*%
%ADD11RoundRect,0.250000X0.475000X-0.250000X0.475000X0.250000X-0.475000X0.250000X-0.475000X-0.250000X0*%
%ADD12R,1.700000X1.700000*%
%ADD13RoundRect,0.135000X-0.185000X0.135000X-0.185000X-0.135000X0.185000X-0.135000X0.185000X0.135000X0*%
%ADD14C,1.700000*%
%ADD15RoundRect,0.050800X0.350000X0.125000X-0.350000X0.125000X-0.350000X-0.125000X0.350000X-0.125000X0*%
%ADD16RoundRect,0.050800X0.550000X0.125000X-0.550000X0.125000X-0.550000X-0.125000X0.550000X-0.125000X0*%
%ADD17RoundRect,0.050800X-0.125000X0.350000X-0.125000X-0.350000X0.125000X-0.350000X0.125000X0.350000X0*%
%ADD18RoundRect,0.050800X-0.125000X0.550000X-0.125000X-0.550000X0.125000X-0.550000X0.125000X0.550000X0*%
%ADD19RoundRect,0.150000X-0.150000X0.587500X-0.150000X-0.587500X0.150000X-0.587500X0.150000X0.587500X0*%
%ADD20RoundRect,0.135000X-0.135000X-0.185000X0.135000X-0.185000X0.135000X0.185000X-0.135000X0.185000X0*%
%ADD21RoundRect,0.250000X0.650000X-1.000000X0.650000X1.000000X-0.650000X1.000000X-0.650000X-1.000000X0*%
%ADD22RoundRect,0.218750X-0.218750X-0.256250X0.218750X-0.256250X0.218750X0.256250X-0.218750X0.256250X0*%
%ADD23RoundRect,0.135000X0.185000X-0.135000X0.185000X0.135000X-0.185000X0.135000X-0.185000X-0.135000X0*%
%ADD24RoundRect,0.140000X0.170000X-0.140000X0.170000X0.140000X-0.170000X0.140000X-0.170000X-0.140000X0*%
%ADD25RoundRect,0.249999X-0.850001X-0.850001X0.850001X-0.850001X0.850001X0.850001X-0.850001X0.850001X0*%
%ADD26C,2.200000*%
%ADD27RoundRect,0.225000X0.225000X0.250000X-0.225000X0.250000X-0.225000X-0.250000X0.225000X-0.250000X0*%
%ADD28RoundRect,0.200000X0.275000X-0.200000X0.275000X0.200000X-0.275000X0.200000X-0.275000X-0.200000X0*%
%ADD29RoundRect,0.250000X-1.000000X-0.650000X1.000000X-0.650000X1.000000X0.650000X-1.000000X0.650000X0*%
%ADD30RoundRect,0.102000X1.104900X-0.304800X1.104900X0.304800X-1.104900X0.304800X-1.104900X-0.304800X0*%
%ADD31R,4.600000X2.000000*%
%ADD32O,4.200000X2.000000*%
%ADD33O,2.000000X4.200000*%
%ADD34RoundRect,0.150000X0.150000X-0.587500X0.150000X0.587500X-0.150000X0.587500X-0.150000X-0.587500X0*%
%ADD35RoundRect,0.135000X0.135000X0.185000X-0.135000X0.185000X-0.135000X-0.185000X0.135000X-0.185000X0*%
%ADD36RoundRect,0.225000X-0.250000X0.225000X-0.250000X-0.225000X0.250000X-0.225000X0.250000X0.225000X0*%
%ADD37RoundRect,0.102000X-1.000000X-1.000000X1.000000X-1.000000X1.000000X1.000000X-1.000000X1.000000X0*%
%ADD38C,2.204000*%
%ADD39RoundRect,0.250000X1.000000X0.650000X-1.000000X0.650000X-1.000000X-0.650000X1.000000X-0.650000X0*%
%ADD40RoundRect,0.249999X-0.850001X0.850001X-0.850001X-0.850001X0.850001X-0.850001X0.850001X0.850001X0*%
G04 APERTURE END LIST*
D10*
%TO.C,C9*%
X82000000Y-51950000D03*
X80100000Y-51950000D03*
%TD*%
%TO.C,C10*%
X70550000Y-41525000D03*
X72450000Y-41525000D03*
%TD*%
D11*
%TO.C,C5*%
X82400000Y-40425000D03*
X82400000Y-38525000D03*
%TD*%
%TO.C,C6*%
X82325000Y-49600000D03*
X82325000Y-47700000D03*
%TD*%
D12*
%TO.C,J16*%
X127400000Y-71675000D03*
%TD*%
D13*
%TO.C,R25*%
X94500000Y-81715000D03*
X94500000Y-82735000D03*
%TD*%
D12*
%TO.C,J18*%
X71765000Y-31225000D03*
D14*
X69225000Y-31225000D03*
X66685000Y-31225000D03*
%TD*%
D15*
%TO.C,IC1*%
X88983094Y-69721197D03*
D16*
X88783094Y-69071197D03*
X88783094Y-68421197D03*
D15*
X88983094Y-67771197D03*
X88983094Y-66921197D03*
X88983094Y-66071197D03*
X86083094Y-66071197D03*
X86083094Y-66921197D03*
X86083094Y-67771197D03*
D16*
X86283094Y-68421197D03*
X86283094Y-69071197D03*
D15*
X86083094Y-69721197D03*
D17*
X86283094Y-70621197D03*
X86783094Y-70621197D03*
D18*
X87283094Y-70421197D03*
X87783094Y-70421197D03*
D17*
X88283094Y-70621197D03*
X88783094Y-70621197D03*
%TD*%
D19*
%TO.C,Q4*%
X94500000Y-85087500D03*
X92600000Y-85087500D03*
X93550000Y-86962500D03*
%TD*%
D20*
%TO.C,R2*%
X90331903Y-70350000D03*
X91351903Y-70350000D03*
%TD*%
D21*
%TO.C,D6*%
X77182500Y-48271250D03*
X77182500Y-44271250D03*
%TD*%
D22*
%TO.C,D1*%
X81755000Y-59915000D03*
X83330000Y-59915000D03*
%TD*%
D23*
%TO.C,R15*%
X79634375Y-39241509D03*
X79634375Y-38221509D03*
%TD*%
D12*
%TO.C,J3*%
X73675000Y-60140000D03*
D14*
X73675000Y-57600000D03*
X73675000Y-55060000D03*
X73675000Y-52520000D03*
%TD*%
D24*
%TO.C,C4*%
X79026596Y-60825000D03*
X79026596Y-59865000D03*
%TD*%
D12*
%TO.C,J20*%
X94250000Y-56205000D03*
D14*
X94250000Y-58745000D03*
X94250000Y-61285000D03*
X94250000Y-63825000D03*
%TD*%
D12*
%TO.C,J8*%
X94400000Y-43700000D03*
%TD*%
D25*
%TO.C,J7*%
X82385000Y-82050000D03*
D26*
X84925000Y-82050000D03*
%TD*%
D12*
%TO.C,J11*%
X70460000Y-64100000D03*
D14*
X73000000Y-64100000D03*
%TD*%
D12*
%TO.C,J27*%
X89125000Y-39475000D03*
%TD*%
D23*
%TO.C,R13*%
X79575000Y-48421250D03*
X79575000Y-47401250D03*
%TD*%
D27*
%TO.C,C2*%
X87666903Y-71983097D03*
X86116903Y-71983097D03*
%TD*%
D20*
%TO.C,R12*%
X77908352Y-67561720D03*
X78928352Y-67561720D03*
%TD*%
D12*
%TO.C,J1*%
X93675000Y-75200000D03*
D14*
X93675000Y-72660000D03*
X93675000Y-70120000D03*
X93675000Y-67580000D03*
%TD*%
D28*
%TO.C,R3*%
X90441903Y-69075000D03*
X90441903Y-67425000D03*
%TD*%
D29*
%TO.C,D2*%
X70925000Y-68000000D03*
X74925000Y-68000000D03*
%TD*%
D24*
%TO.C,C3*%
X77851509Y-60818105D03*
X77851509Y-59858105D03*
%TD*%
D12*
%TO.C,J26*%
X89150000Y-48775000D03*
%TD*%
D27*
%TO.C,C7*%
X76525000Y-41350000D03*
X74975000Y-41350000D03*
%TD*%
D23*
%TO.C,R24*%
X121075000Y-83685000D03*
X121075000Y-82665000D03*
%TD*%
D12*
%TO.C,J5*%
X118600000Y-85715000D03*
D14*
X118600000Y-83175000D03*
%TD*%
D12*
%TO.C,J15*%
X81925000Y-72380000D03*
D14*
X81925000Y-69840000D03*
X81925000Y-67300000D03*
%TD*%
D27*
%TO.C,C8*%
X78525000Y-51375000D03*
X76975000Y-51375000D03*
%TD*%
D13*
%TO.C,R23*%
X95750000Y-48615000D03*
X95750000Y-49635000D03*
%TD*%
D28*
%TO.C,R17*%
X90475000Y-65900000D03*
X90475000Y-64250000D03*
%TD*%
D23*
%TO.C,R4*%
X87025000Y-59520000D03*
X87025000Y-58500000D03*
%TD*%
D12*
%TO.C,J21*%
X127350000Y-43880000D03*
D14*
X127350000Y-46420000D03*
X127350000Y-48960000D03*
X127350000Y-51500000D03*
X127350000Y-54040000D03*
%TD*%
D30*
%TO.C,U2*%
X84991200Y-58555000D03*
X84991200Y-57285000D03*
X84991200Y-56015000D03*
X84991200Y-54745000D03*
X79758800Y-54745000D03*
X79758800Y-56015000D03*
X79758800Y-57285000D03*
X79758800Y-58555000D03*
%TD*%
D12*
%TO.C,J17*%
X123560000Y-80590000D03*
D14*
X123560000Y-83130000D03*
X123560000Y-85670000D03*
%TD*%
D12*
%TO.C,J19*%
X127350000Y-57705000D03*
D14*
X127350000Y-60245000D03*
X127350000Y-62785000D03*
X127350000Y-65325000D03*
%TD*%
D13*
%TO.C,R11*%
X76075000Y-56040000D03*
X76075000Y-57060000D03*
%TD*%
D31*
%TO.C,J6*%
X73025000Y-71550000D03*
D32*
X73025000Y-77850000D03*
D33*
X77825000Y-74450000D03*
%TD*%
D34*
%TO.C,Q1*%
X79925000Y-45798750D03*
X81825000Y-45798750D03*
X80875000Y-43923750D03*
%TD*%
D22*
%TO.C,D4*%
X77537500Y-68900000D03*
X79112500Y-68900000D03*
%TD*%
D23*
%TO.C,R27*%
X92500000Y-82785000D03*
X92500000Y-81765000D03*
%TD*%
D25*
%TO.C,J30*%
X97635000Y-81400000D03*
D26*
X100175000Y-81400000D03*
%TD*%
D20*
%TO.C,R8*%
X82032500Y-61215000D03*
X83052500Y-61215000D03*
%TD*%
D35*
%TO.C,R5*%
X87985000Y-57200000D03*
X86965000Y-57200000D03*
%TD*%
D36*
%TO.C,C1*%
X84641903Y-67858097D03*
X84641903Y-69408097D03*
%TD*%
D12*
%TO.C,J28*%
X94400000Y-34675000D03*
%TD*%
D13*
%TO.C,R7*%
X87025000Y-53690000D03*
X87025000Y-54710000D03*
%TD*%
D37*
%TO.C,U3*%
X98175000Y-36020000D03*
D38*
X98175000Y-38560000D03*
X98175000Y-41100000D03*
X98175000Y-43640000D03*
X98175000Y-46180000D03*
X98175000Y-48720000D03*
X98175000Y-51260000D03*
X98175000Y-53800000D03*
X98175000Y-56340000D03*
X98175000Y-58880000D03*
X98175000Y-61420000D03*
X98175000Y-63960000D03*
X98175000Y-66500000D03*
X98175000Y-69040000D03*
X98175000Y-71580000D03*
X123575000Y-71580000D03*
X123575000Y-69040000D03*
X123575000Y-66500000D03*
X123575000Y-63960000D03*
X123575000Y-61420000D03*
X123575000Y-58880000D03*
X123575000Y-56340000D03*
X123575000Y-53800000D03*
X123575000Y-51260000D03*
X123575000Y-48720000D03*
X123575000Y-46180000D03*
X123575000Y-43640000D03*
X123575000Y-41100000D03*
X123575000Y-38560000D03*
X123575000Y-36020000D03*
%TD*%
D13*
%TO.C,R9*%
X76075000Y-58090000D03*
X76075000Y-59110000D03*
%TD*%
D21*
%TO.C,D5*%
X77125000Y-38950000D03*
X77125000Y-34950000D03*
%TD*%
D13*
%TO.C,R22*%
X129200000Y-36890000D03*
X129200000Y-37910000D03*
%TD*%
D34*
%TO.C,Q2*%
X79875000Y-36587500D03*
X81775000Y-36587500D03*
X80825000Y-34712500D03*
%TD*%
D35*
%TO.C,R6*%
X87985000Y-56023166D03*
X86965000Y-56023166D03*
%TD*%
D23*
%TO.C,R1*%
X89041903Y-72693097D03*
X89041903Y-71673097D03*
%TD*%
D12*
%TO.C,J22*%
X65850000Y-66680000D03*
D14*
X65850000Y-69220000D03*
X65850000Y-71760000D03*
X65850000Y-74300000D03*
%TD*%
D12*
%TO.C,J25*%
X93650000Y-78850000D03*
%TD*%
%TO.C,J13*%
X85350000Y-39475000D03*
D14*
X85350000Y-36935000D03*
X85350000Y-34395000D03*
%TD*%
D23*
%TO.C,R14*%
X80725000Y-48421250D03*
X80725000Y-47401250D03*
%TD*%
D39*
%TO.C,D3*%
X85675000Y-76400000D03*
X81675000Y-76400000D03*
%TD*%
D40*
%TO.C,J10*%
X71475000Y-35660000D03*
D26*
X71475000Y-38200000D03*
%TD*%
D22*
%TO.C,D10*%
X126237500Y-37600000D03*
X127812500Y-37600000D03*
%TD*%
D12*
%TO.C,J12*%
X85262500Y-43716250D03*
D14*
X85262500Y-46256250D03*
X85262500Y-48796250D03*
%TD*%
D12*
%TO.C,J23*%
X127325000Y-40225000D03*
%TD*%
%TO.C,J29*%
X119800000Y-79400000D03*
D14*
X117260000Y-79400000D03*
%TD*%
D12*
%TO.C,J2*%
X90425000Y-52580000D03*
D14*
X90425000Y-55120000D03*
X90425000Y-57660000D03*
X90425000Y-60200000D03*
%TD*%
D12*
%TO.C,J14*%
X89722097Y-78797097D03*
D14*
X89722097Y-81337097D03*
X89722097Y-83877097D03*
%TD*%
D13*
%TO.C,R10*%
X76075000Y-53990000D03*
X76075000Y-55010000D03*
%TD*%
D23*
%TO.C,R16*%
X80784375Y-39241509D03*
X80784375Y-38221509D03*
%TD*%
D40*
%TO.C,J4*%
X68150000Y-52230000D03*
D26*
X68150000Y-54770000D03*
X68150000Y-57310000D03*
X68150000Y-59850000D03*
%TD*%
D40*
%TO.C,J9*%
X71532500Y-45091250D03*
D26*
X71532500Y-47631250D03*
%TD*%
M02*
