%TF.GenerationSoftware,KiCad,Pcbnew,9.0.7-9.0.7~ubuntu24.04.1*%
%TF.CreationDate,2026-02-24T12:36:22-05:00*%
%TF.ProjectId,plantPartner_PCB2.0,706c616e-7450-4617-9274-6e65725f5043,rev?*%
%TF.SameCoordinates,Original*%
%TF.FileFunction,Legend,Bot*%
%TF.FilePolarity,Positive*%
%FSLAX46Y46*%
G04 Gerber Fmt 4.6, Leading zero omitted, Abs format (unit mm)*
G04 Created by KiCad (PCBNEW 9.0.7-9.0.7~ubuntu24.04.1) date 2026-02-24 12:36:22*
%MOMM*%
%LPD*%
G01*
G04 APERTURE LIST*
G04 Aperture macros list*
%AMRoundRect*
0 Rectangle with rounded corners*
0 $1 Rounding radius*
0 $2 $3 $4 $5 $6 $7 $8 $9 X,Y pos of 4 corners*
0 Add a 4 corners polygon primitive as box body*
4,1,4,$2,$3,$4,$5,$6,$7,$8,$9,$2,$3,0*
0 Add four circle primitives for the rounded corners*
1,1,$1+$1,$2,$3*
1,1,$1+$1,$4,$5*
1,1,$1+$1,$6,$7*
1,1,$1+$1,$8,$9*
0 Add four rect primitives between the rounded corners*
20,1,$1+$1,$2,$3,$4,$5,0*
20,1,$1+$1,$4,$5,$6,$7,0*
20,1,$1+$1,$6,$7,$8,$9,0*
20,1,$1+$1,$8,$9,$2,$3,0*%
G04 Aperture macros list end*
%ADD10RoundRect,0.102000X-1.000000X-1.000000X1.000000X-1.000000X1.000000X1.000000X-1.000000X1.000000X0*%
%ADD11C,2.204000*%
%ADD12C,3.000000*%
%ADD13C,1.100000*%
%ADD14RoundRect,0.249999X-0.850001X-0.850001X0.850001X-0.850001X0.850001X0.850001X-0.850001X0.850001X0*%
%ADD15C,2.200000*%
%ADD16R,1.700000X1.700000*%
%ADD17C,1.700000*%
%ADD18R,4.600000X2.000000*%
%ADD19O,4.200000X2.000000*%
%ADD20O,2.000000X4.200000*%
G04 APERTURE END LIST*
%LPC*%
D10*
%TO.C,U3*%
X92167500Y-51230000D03*
D11*
X92167500Y-53770000D03*
X92167500Y-56310000D03*
X92167500Y-58850000D03*
X92167500Y-61390000D03*
X92167500Y-63930000D03*
X92167500Y-66470000D03*
X92167500Y-69010000D03*
X92167500Y-71550000D03*
X92167500Y-74090000D03*
X92167500Y-76630000D03*
X92167500Y-79170000D03*
X92167500Y-81710000D03*
X92167500Y-84250000D03*
X92167500Y-86790000D03*
X117567500Y-51230000D03*
X117567500Y-53770000D03*
X117567500Y-56310000D03*
X117567500Y-58850000D03*
X117567500Y-61390000D03*
X117567500Y-63930000D03*
X117567500Y-66470000D03*
X117567500Y-69010000D03*
X117567500Y-71550000D03*
X117567500Y-74090000D03*
X117567500Y-76630000D03*
X117567500Y-79170000D03*
X117567500Y-81710000D03*
X117567500Y-84250000D03*
X117567500Y-86790000D03*
D12*
X92587500Y-90220000D03*
X117097500Y-90220000D03*
X117097500Y-43270000D03*
X92587500Y-43270000D03*
%TD*%
D13*
%TO.C,J30*%
X114612500Y-99660000D03*
X117152500Y-99660000D03*
D14*
X114612500Y-97120000D03*
D15*
X117152500Y-97120000D03*
%TD*%
D16*
%TO.C,J29*%
X145622500Y-73360000D03*
D17*
X145622500Y-75900000D03*
%TD*%
D16*
%TO.C,J28*%
X122162500Y-68770000D03*
%TD*%
%TO.C,J27*%
X122162500Y-64180000D03*
%TD*%
%TO.C,J26*%
X122162500Y-59590000D03*
%TD*%
%TO.C,J25*%
X131342500Y-85570000D03*
D17*
X131342500Y-88110000D03*
X131342500Y-90650000D03*
%TD*%
D16*
%TO.C,J24*%
X126752500Y-85570000D03*
D17*
X126752500Y-88110000D03*
X126752500Y-90650000D03*
%TD*%
D16*
%TO.C,J23*%
X122162500Y-55000000D03*
%TD*%
%TO.C,J22*%
X145112500Y-42790000D03*
D17*
X145112500Y-45330000D03*
X145112500Y-47870000D03*
X145112500Y-50410000D03*
%TD*%
D16*
%TO.C,J21*%
X140522500Y-42790000D03*
D17*
X140522500Y-45330000D03*
X140522500Y-47870000D03*
X140522500Y-50410000D03*
%TD*%
D16*
%TO.C,J20*%
X129302500Y-73360000D03*
D17*
X131842500Y-73360000D03*
X129302500Y-75900000D03*
X131842500Y-75900000D03*
X129302500Y-78440000D03*
X131842500Y-78440000D03*
X129302500Y-80980000D03*
X131842500Y-80980000D03*
%TD*%
D16*
%TO.C,J17*%
X122162500Y-85570000D03*
D17*
X122162500Y-88110000D03*
X122162500Y-90650000D03*
%TD*%
D16*
%TO.C,J16*%
X135932500Y-42790000D03*
D17*
X135932500Y-45330000D03*
X135932500Y-47870000D03*
X135932500Y-50410000D03*
%TD*%
D16*
%TO.C,J11*%
X141032500Y-73360000D03*
D17*
X141032500Y-75900000D03*
%TD*%
D13*
%TO.C,J10*%
X107022500Y-99660000D03*
X109562500Y-99660000D03*
D14*
X107022500Y-97120000D03*
D15*
X109562500Y-97120000D03*
%TD*%
D13*
%TO.C,J9*%
X99432500Y-99660000D03*
X101972500Y-99660000D03*
D14*
X99432500Y-97120000D03*
D15*
X101972500Y-97120000D03*
%TD*%
D16*
%TO.C,J8*%
X122162500Y-73360000D03*
D17*
X124702500Y-73360000D03*
X122162500Y-75900000D03*
X124702500Y-75900000D03*
X122162500Y-78440000D03*
X124702500Y-78440000D03*
X122162500Y-80980000D03*
X124702500Y-80980000D03*
%TD*%
D13*
%TO.C,J7*%
X91842500Y-99660000D03*
X94382500Y-99660000D03*
D14*
X91842500Y-97120000D03*
D15*
X94382500Y-97120000D03*
%TD*%
D18*
%TO.C,J6*%
X129982500Y-54730000D03*
D19*
X129982500Y-61030000D03*
D20*
X134782500Y-57630000D03*
%TD*%
D16*
%TO.C,J5*%
X136442500Y-73360000D03*
D17*
X136442500Y-75900000D03*
%TD*%
D14*
%TO.C,J4*%
X122392500Y-97070000D03*
D15*
X124932500Y-97070000D03*
X127472500Y-97070000D03*
X130012500Y-97070000D03*
%TD*%
D16*
%TO.C,J3*%
X131342500Y-42790000D03*
D17*
X131342500Y-45330000D03*
X131342500Y-47870000D03*
X131342500Y-50410000D03*
%TD*%
D16*
%TO.C,J2*%
X126752500Y-42790000D03*
D17*
X126752500Y-45330000D03*
X126752500Y-47870000D03*
X126752500Y-50410000D03*
%TD*%
D16*
%TO.C,J1*%
X122162500Y-42790000D03*
D17*
X122162500Y-45330000D03*
X122162500Y-47870000D03*
X122162500Y-50410000D03*
%TD*%
%LPD*%
M02*
