%TF.GenerationSoftware,KiCad,Pcbnew,9.0.7-9.0.7~ubuntu24.04.1*%
%TF.CreationDate,2026-03-04T15:53:27-05:00*%
%TF.ProjectId,plantPartner_PCB2.0,706c616e-7450-4617-9274-6e65725f5043,2*%
%TF.SameCoordinates,Original*%
%TF.FileFunction,Legend,Top*%
%TF.FilePolarity,Positive*%
%FSLAX46Y46*%
G04 Gerber Fmt 4.6, Leading zero omitted, Abs format (unit mm)*
G04 Created by KiCad (PCBNEW 9.0.7-9.0.7~ubuntu24.04.1) date 2026-03-04 15:53:27*
%MOMM*%
%LPD*%
G01*
G04 APERTURE LIST*
G04 Aperture macros list*
%AMRoundRect*
0 Rectangle with rounded corners*
0 $1 Rounding radius*
0 $2 $3 $4 $5 $6 $7 $8 $9 X,Y pos of 4 corners*
0 Add a 4 corners polygon primitive as box body*
4,1,4,$2,$3,$4,$5,$6,$7,$8,$9,$2,$3,0*
0 Add four circle primitives for the rounded corners*
1,1,$1+$1,$2,$3*
1,1,$1+$1,$4,$5*
1,1,$1+$1,$6,$7*
1,1,$1+$1,$8,$9*
0 Add four rect primitives between the rounded corners*
20,1,$1+$1,$2,$3,$4,$5,0*
20,1,$1+$1,$4,$5,$6,$7,0*
20,1,$1+$1,$6,$7,$8,$9,0*
20,1,$1+$1,$8,$9,$2,$3,0*%
G04 Aperture macros list end*
%ADD10C,0.100000*%
%ADD11C,0.120000*%
%ADD12C,0.152400*%
%ADD13C,0.203200*%
%ADD14C,0.127000*%
%ADD15C,0.200000*%
%ADD16RoundRect,0.250000X-0.250000X-0.475000X0.250000X-0.475000X0.250000X0.475000X-0.250000X0.475000X0*%
%ADD17RoundRect,0.250000X0.475000X-0.250000X0.475000X0.250000X-0.475000X0.250000X-0.475000X-0.250000X0*%
%ADD18R,1.700000X1.700000*%
%ADD19RoundRect,0.135000X-0.185000X0.135000X-0.185000X-0.135000X0.185000X-0.135000X0.185000X0.135000X0*%
%ADD20C,1.700000*%
%ADD21RoundRect,0.050800X0.350000X0.125000X-0.350000X0.125000X-0.350000X-0.125000X0.350000X-0.125000X0*%
%ADD22RoundRect,0.050800X0.550000X0.125000X-0.550000X0.125000X-0.550000X-0.125000X0.550000X-0.125000X0*%
%ADD23RoundRect,0.050800X-0.125000X0.350000X-0.125000X-0.350000X0.125000X-0.350000X0.125000X0.350000X0*%
%ADD24RoundRect,0.050800X-0.125000X0.550000X-0.125000X-0.550000X0.125000X-0.550000X0.125000X0.550000X0*%
%ADD25RoundRect,0.150000X-0.150000X0.587500X-0.150000X-0.587500X0.150000X-0.587500X0.150000X0.587500X0*%
%ADD26RoundRect,0.135000X-0.135000X-0.185000X0.135000X-0.185000X0.135000X0.185000X-0.135000X0.185000X0*%
%ADD27RoundRect,0.250000X0.650000X-1.000000X0.650000X1.000000X-0.650000X1.000000X-0.650000X-1.000000X0*%
%ADD28RoundRect,0.218750X-0.218750X-0.256250X0.218750X-0.256250X0.218750X0.256250X-0.218750X0.256250X0*%
%ADD29RoundRect,0.135000X0.185000X-0.135000X0.185000X0.135000X-0.185000X0.135000X-0.185000X-0.135000X0*%
%ADD30RoundRect,0.140000X0.170000X-0.140000X0.170000X0.140000X-0.170000X0.140000X-0.170000X-0.140000X0*%
%ADD31C,2.200000*%
%ADD32C,1.100000*%
%ADD33RoundRect,0.249999X-0.850001X-0.850001X0.850001X-0.850001X0.850001X0.850001X-0.850001X0.850001X0*%
%ADD34RoundRect,0.225000X0.225000X0.250000X-0.225000X0.250000X-0.225000X-0.250000X0.225000X-0.250000X0*%
%ADD35RoundRect,0.200000X0.275000X-0.200000X0.275000X0.200000X-0.275000X0.200000X-0.275000X-0.200000X0*%
%ADD36RoundRect,0.250000X-1.000000X-0.650000X1.000000X-0.650000X1.000000X0.650000X-1.000000X0.650000X0*%
%ADD37RoundRect,0.102000X1.104900X-0.304800X1.104900X0.304800X-1.104900X0.304800X-1.104900X-0.304800X0*%
%ADD38R,4.600000X2.000000*%
%ADD39O,4.200000X2.000000*%
%ADD40O,2.000000X4.200000*%
%ADD41RoundRect,0.150000X0.150000X-0.587500X0.150000X0.587500X-0.150000X0.587500X-0.150000X-0.587500X0*%
%ADD42RoundRect,0.135000X0.135000X0.185000X-0.135000X0.185000X-0.135000X-0.185000X0.135000X-0.185000X0*%
%ADD43RoundRect,0.225000X-0.250000X0.225000X-0.250000X-0.225000X0.250000X-0.225000X0.250000X0.225000X0*%
%ADD44C,3.000000*%
%ADD45RoundRect,0.102000X-1.000000X-1.000000X1.000000X-1.000000X1.000000X1.000000X-1.000000X1.000000X0*%
%ADD46C,2.204000*%
%ADD47RoundRect,0.250000X1.000000X0.650000X-1.000000X0.650000X-1.000000X-0.650000X1.000000X-0.650000X0*%
%ADD48RoundRect,0.249999X-0.850001X0.850001X-0.850001X-0.850001X0.850001X-0.850001X0.850001X0.850001X0*%
G04 APERTURE END LIST*
D10*
X66402693Y-63220038D02*
X66307455Y-63172419D01*
X66307455Y-63172419D02*
X66164598Y-63172419D01*
X66164598Y-63172419D02*
X66021741Y-63220038D01*
X66021741Y-63220038D02*
X65926503Y-63315276D01*
X65926503Y-63315276D02*
X65878884Y-63410514D01*
X65878884Y-63410514D02*
X65831265Y-63600990D01*
X65831265Y-63600990D02*
X65831265Y-63743847D01*
X65831265Y-63743847D02*
X65878884Y-63934323D01*
X65878884Y-63934323D02*
X65926503Y-64029561D01*
X65926503Y-64029561D02*
X66021741Y-64124800D01*
X66021741Y-64124800D02*
X66164598Y-64172419D01*
X66164598Y-64172419D02*
X66259836Y-64172419D01*
X66259836Y-64172419D02*
X66402693Y-64124800D01*
X66402693Y-64124800D02*
X66450312Y-64077180D01*
X66450312Y-64077180D02*
X66450312Y-63743847D01*
X66450312Y-63743847D02*
X66259836Y-63743847D01*
X66878884Y-64172419D02*
X66878884Y-63172419D01*
X66878884Y-63172419D02*
X67450312Y-64172419D01*
X67450312Y-64172419D02*
X67450312Y-63172419D01*
X67926503Y-64172419D02*
X67926503Y-63172419D01*
X67926503Y-63172419D02*
X68164598Y-63172419D01*
X68164598Y-63172419D02*
X68307455Y-63220038D01*
X68307455Y-63220038D02*
X68402693Y-63315276D01*
X68402693Y-63315276D02*
X68450312Y-63410514D01*
X68450312Y-63410514D02*
X68497931Y-63600990D01*
X68497931Y-63600990D02*
X68497931Y-63743847D01*
X68497931Y-63743847D02*
X68450312Y-63934323D01*
X68450312Y-63934323D02*
X68402693Y-64029561D01*
X68402693Y-64029561D02*
X68307455Y-64124800D01*
X68307455Y-64124800D02*
X68164598Y-64172419D01*
X68164598Y-64172419D02*
X67926503Y-64172419D01*
X61702693Y-74020038D02*
X61607455Y-73972419D01*
X61607455Y-73972419D02*
X61464598Y-73972419D01*
X61464598Y-73972419D02*
X61321741Y-74020038D01*
X61321741Y-74020038D02*
X61226503Y-74115276D01*
X61226503Y-74115276D02*
X61178884Y-74210514D01*
X61178884Y-74210514D02*
X61131265Y-74400990D01*
X61131265Y-74400990D02*
X61131265Y-74543847D01*
X61131265Y-74543847D02*
X61178884Y-74734323D01*
X61178884Y-74734323D02*
X61226503Y-74829561D01*
X61226503Y-74829561D02*
X61321741Y-74924800D01*
X61321741Y-74924800D02*
X61464598Y-74972419D01*
X61464598Y-74972419D02*
X61559836Y-74972419D01*
X61559836Y-74972419D02*
X61702693Y-74924800D01*
X61702693Y-74924800D02*
X61750312Y-74877180D01*
X61750312Y-74877180D02*
X61750312Y-74543847D01*
X61750312Y-74543847D02*
X61559836Y-74543847D01*
X62178884Y-74972419D02*
X62178884Y-73972419D01*
X62178884Y-73972419D02*
X62750312Y-74972419D01*
X62750312Y-74972419D02*
X62750312Y-73972419D01*
X63226503Y-74972419D02*
X63226503Y-73972419D01*
X63226503Y-73972419D02*
X63464598Y-73972419D01*
X63464598Y-73972419D02*
X63607455Y-74020038D01*
X63607455Y-74020038D02*
X63702693Y-74115276D01*
X63702693Y-74115276D02*
X63750312Y-74210514D01*
X63750312Y-74210514D02*
X63797931Y-74400990D01*
X63797931Y-74400990D02*
X63797931Y-74543847D01*
X63797931Y-74543847D02*
X63750312Y-74734323D01*
X63750312Y-74734323D02*
X63702693Y-74829561D01*
X63702693Y-74829561D02*
X63607455Y-74924800D01*
X63607455Y-74924800D02*
X63464598Y-74972419D01*
X63464598Y-74972419D02*
X63226503Y-74972419D01*
X63581265Y-54836704D02*
X64057455Y-54836704D01*
X63486027Y-55122419D02*
X63819360Y-54122419D01*
X63819360Y-54122419D02*
X64152693Y-55122419D01*
X74878884Y-63991466D02*
X75640789Y-63991466D01*
X75259836Y-64372419D02*
X75259836Y-63610514D01*
X76640788Y-64372419D02*
X76069360Y-64372419D01*
X76355074Y-64372419D02*
X76355074Y-63372419D01*
X76355074Y-63372419D02*
X76259836Y-63515276D01*
X76259836Y-63515276D02*
X76164598Y-63610514D01*
X76164598Y-63610514D02*
X76069360Y-63658133D01*
X77021741Y-63467657D02*
X77069360Y-63420038D01*
X77069360Y-63420038D02*
X77164598Y-63372419D01*
X77164598Y-63372419D02*
X77402693Y-63372419D01*
X77402693Y-63372419D02*
X77497931Y-63420038D01*
X77497931Y-63420038D02*
X77545550Y-63467657D01*
X77545550Y-63467657D02*
X77593169Y-63562895D01*
X77593169Y-63562895D02*
X77593169Y-63658133D01*
X77593169Y-63658133D02*
X77545550Y-63800990D01*
X77545550Y-63800990D02*
X76974122Y-64372419D01*
X76974122Y-64372419D02*
X77593169Y-64372419D01*
X77878884Y-63372419D02*
X78212217Y-64372419D01*
X78212217Y-64372419D02*
X78545550Y-63372419D01*
X62547931Y-38098609D02*
X62281265Y-38098609D01*
X62281265Y-38622419D02*
X62281265Y-37622419D01*
X62281265Y-37622419D02*
X62662217Y-37622419D01*
X62776503Y-38717657D02*
X63386026Y-38717657D01*
X63576503Y-38622419D02*
X63576503Y-37622419D01*
X63576503Y-37622419D02*
X63881265Y-37622419D01*
X63881265Y-37622419D02*
X63957455Y-37670038D01*
X63957455Y-37670038D02*
X63995550Y-37717657D01*
X63995550Y-37717657D02*
X64033646Y-37812895D01*
X64033646Y-37812895D02*
X64033646Y-37955752D01*
X64033646Y-37955752D02*
X63995550Y-38050990D01*
X63995550Y-38050990D02*
X63957455Y-38098609D01*
X63957455Y-38098609D02*
X63881265Y-38146228D01*
X63881265Y-38146228D02*
X63576503Y-38146228D01*
X64719360Y-37955752D02*
X64719360Y-38622419D01*
X64376503Y-37955752D02*
X64376503Y-38479561D01*
X64376503Y-38479561D02*
X64414598Y-38574800D01*
X64414598Y-38574800D02*
X64490788Y-38622419D01*
X64490788Y-38622419D02*
X64605074Y-38622419D01*
X64605074Y-38622419D02*
X64681265Y-38574800D01*
X64681265Y-38574800D02*
X64719360Y-38527180D01*
X65100313Y-38622419D02*
X65100313Y-37955752D01*
X65100313Y-38050990D02*
X65138408Y-38003371D01*
X65138408Y-38003371D02*
X65214598Y-37955752D01*
X65214598Y-37955752D02*
X65328884Y-37955752D01*
X65328884Y-37955752D02*
X65405075Y-38003371D01*
X65405075Y-38003371D02*
X65443170Y-38098609D01*
X65443170Y-38098609D02*
X65443170Y-38622419D01*
X65443170Y-38098609D02*
X65481265Y-38003371D01*
X65481265Y-38003371D02*
X65557456Y-37955752D01*
X65557456Y-37955752D02*
X65671741Y-37955752D01*
X65671741Y-37955752D02*
X65747932Y-38003371D01*
X65747932Y-38003371D02*
X65786027Y-38098609D01*
X65786027Y-38098609D02*
X65786027Y-38622419D01*
X66166980Y-37955752D02*
X66166980Y-38955752D01*
X66166980Y-38003371D02*
X66243170Y-37955752D01*
X66243170Y-37955752D02*
X66395551Y-37955752D01*
X66395551Y-37955752D02*
X66471742Y-38003371D01*
X66471742Y-38003371D02*
X66509837Y-38050990D01*
X66509837Y-38050990D02*
X66547932Y-38146228D01*
X66547932Y-38146228D02*
X66547932Y-38431942D01*
X66547932Y-38431942D02*
X66509837Y-38527180D01*
X66509837Y-38527180D02*
X66471742Y-38574800D01*
X66471742Y-38574800D02*
X66395551Y-38622419D01*
X66395551Y-38622419D02*
X66243170Y-38622419D01*
X66243170Y-38622419D02*
X66166980Y-38574800D01*
X66890790Y-38241466D02*
X67500314Y-38241466D01*
X67195552Y-38622419D02*
X67195552Y-37860514D01*
X63912217Y-57098609D02*
X64055074Y-57146228D01*
X64055074Y-57146228D02*
X64102693Y-57193847D01*
X64102693Y-57193847D02*
X64150312Y-57289085D01*
X64150312Y-57289085D02*
X64150312Y-57431942D01*
X64150312Y-57431942D02*
X64102693Y-57527180D01*
X64102693Y-57527180D02*
X64055074Y-57574800D01*
X64055074Y-57574800D02*
X63959836Y-57622419D01*
X63959836Y-57622419D02*
X63578884Y-57622419D01*
X63578884Y-57622419D02*
X63578884Y-56622419D01*
X63578884Y-56622419D02*
X63912217Y-56622419D01*
X63912217Y-56622419D02*
X64007455Y-56670038D01*
X64007455Y-56670038D02*
X64055074Y-56717657D01*
X64055074Y-56717657D02*
X64102693Y-56812895D01*
X64102693Y-56812895D02*
X64102693Y-56908133D01*
X64102693Y-56908133D02*
X64055074Y-57003371D01*
X64055074Y-57003371D02*
X64007455Y-57050990D01*
X64007455Y-57050990D02*
X63912217Y-57098609D01*
X63912217Y-57098609D02*
X63578884Y-57098609D01*
X126202693Y-82670038D02*
X126107455Y-82622419D01*
X126107455Y-82622419D02*
X125964598Y-82622419D01*
X125964598Y-82622419D02*
X125821741Y-82670038D01*
X125821741Y-82670038D02*
X125726503Y-82765276D01*
X125726503Y-82765276D02*
X125678884Y-82860514D01*
X125678884Y-82860514D02*
X125631265Y-83050990D01*
X125631265Y-83050990D02*
X125631265Y-83193847D01*
X125631265Y-83193847D02*
X125678884Y-83384323D01*
X125678884Y-83384323D02*
X125726503Y-83479561D01*
X125726503Y-83479561D02*
X125821741Y-83574800D01*
X125821741Y-83574800D02*
X125964598Y-83622419D01*
X125964598Y-83622419D02*
X126059836Y-83622419D01*
X126059836Y-83622419D02*
X126202693Y-83574800D01*
X126202693Y-83574800D02*
X126250312Y-83527180D01*
X126250312Y-83527180D02*
X126250312Y-83193847D01*
X126250312Y-83193847D02*
X126059836Y-83193847D01*
X126678884Y-83622419D02*
X126678884Y-82622419D01*
X126678884Y-82622419D02*
X127250312Y-83622419D01*
X127250312Y-83622419D02*
X127250312Y-82622419D01*
X127726503Y-83622419D02*
X127726503Y-82622419D01*
X127726503Y-82622419D02*
X127964598Y-82622419D01*
X127964598Y-82622419D02*
X128107455Y-82670038D01*
X128107455Y-82670038D02*
X128202693Y-82765276D01*
X128202693Y-82765276D02*
X128250312Y-82860514D01*
X128250312Y-82860514D02*
X128297931Y-83050990D01*
X128297931Y-83050990D02*
X128297931Y-83193847D01*
X128297931Y-83193847D02*
X128250312Y-83384323D01*
X128250312Y-83384323D02*
X128202693Y-83479561D01*
X128202693Y-83479561D02*
X128107455Y-83574800D01*
X128107455Y-83574800D02*
X127964598Y-83622419D01*
X127964598Y-83622419D02*
X127726503Y-83622419D01*
X61078884Y-69441466D02*
X61840789Y-69441466D01*
X61459836Y-69822419D02*
X61459836Y-69060514D01*
X62793169Y-68822419D02*
X62316979Y-68822419D01*
X62316979Y-68822419D02*
X62269360Y-69298609D01*
X62269360Y-69298609D02*
X62316979Y-69250990D01*
X62316979Y-69250990D02*
X62412217Y-69203371D01*
X62412217Y-69203371D02*
X62650312Y-69203371D01*
X62650312Y-69203371D02*
X62745550Y-69250990D01*
X62745550Y-69250990D02*
X62793169Y-69298609D01*
X62793169Y-69298609D02*
X62840788Y-69393847D01*
X62840788Y-69393847D02*
X62840788Y-69631942D01*
X62840788Y-69631942D02*
X62793169Y-69727180D01*
X62793169Y-69727180D02*
X62745550Y-69774800D01*
X62745550Y-69774800D02*
X62650312Y-69822419D01*
X62650312Y-69822419D02*
X62412217Y-69822419D01*
X62412217Y-69822419D02*
X62316979Y-69774800D01*
X62316979Y-69774800D02*
X62269360Y-69727180D01*
X63126503Y-68822419D02*
X63459836Y-69822419D01*
X63459836Y-69822419D02*
X63793169Y-68822419D01*
X115555074Y-83472419D02*
X115078884Y-83472419D01*
X115078884Y-83472419D02*
X115078884Y-82472419D01*
X115840789Y-83424800D02*
X115983646Y-83472419D01*
X115983646Y-83472419D02*
X116221741Y-83472419D01*
X116221741Y-83472419D02*
X116316979Y-83424800D01*
X116316979Y-83424800D02*
X116364598Y-83377180D01*
X116364598Y-83377180D02*
X116412217Y-83281942D01*
X116412217Y-83281942D02*
X116412217Y-83186704D01*
X116412217Y-83186704D02*
X116364598Y-83091466D01*
X116364598Y-83091466D02*
X116316979Y-83043847D01*
X116316979Y-83043847D02*
X116221741Y-82996228D01*
X116221741Y-82996228D02*
X116031265Y-82948609D01*
X116031265Y-82948609D02*
X115936027Y-82900990D01*
X115936027Y-82900990D02*
X115888408Y-82853371D01*
X115888408Y-82853371D02*
X115840789Y-82758133D01*
X115840789Y-82758133D02*
X115840789Y-82662895D01*
X115840789Y-82662895D02*
X115888408Y-82567657D01*
X115888408Y-82567657D02*
X115936027Y-82520038D01*
X115936027Y-82520038D02*
X116031265Y-82472419D01*
X116031265Y-82472419D02*
X116269360Y-82472419D01*
X116269360Y-82472419D02*
X116412217Y-82520038D01*
X67978884Y-28741466D02*
X68740789Y-28741466D01*
X68359836Y-29122419D02*
X68359836Y-28360514D01*
X69693169Y-28122419D02*
X69216979Y-28122419D01*
X69216979Y-28122419D02*
X69169360Y-28598609D01*
X69169360Y-28598609D02*
X69216979Y-28550990D01*
X69216979Y-28550990D02*
X69312217Y-28503371D01*
X69312217Y-28503371D02*
X69550312Y-28503371D01*
X69550312Y-28503371D02*
X69645550Y-28550990D01*
X69645550Y-28550990D02*
X69693169Y-28598609D01*
X69693169Y-28598609D02*
X69740788Y-28693847D01*
X69740788Y-28693847D02*
X69740788Y-28931942D01*
X69740788Y-28931942D02*
X69693169Y-29027180D01*
X69693169Y-29027180D02*
X69645550Y-29074800D01*
X69645550Y-29074800D02*
X69550312Y-29122419D01*
X69550312Y-29122419D02*
X69312217Y-29122419D01*
X69312217Y-29122419D02*
X69216979Y-29074800D01*
X69216979Y-29074800D02*
X69169360Y-29027180D01*
X70026503Y-28122419D02*
X70359836Y-29122419D01*
X70359836Y-29122419D02*
X70693169Y-28122419D01*
X62047931Y-35448609D02*
X61781265Y-35448609D01*
X61781265Y-35972419D02*
X61781265Y-34972419D01*
X61781265Y-34972419D02*
X62162217Y-34972419D01*
X62276503Y-36067657D02*
X62886026Y-36067657D01*
X63076503Y-35972419D02*
X63076503Y-34972419D01*
X63076503Y-34972419D02*
X63381265Y-34972419D01*
X63381265Y-34972419D02*
X63457455Y-35020038D01*
X63457455Y-35020038D02*
X63495550Y-35067657D01*
X63495550Y-35067657D02*
X63533646Y-35162895D01*
X63533646Y-35162895D02*
X63533646Y-35305752D01*
X63533646Y-35305752D02*
X63495550Y-35400990D01*
X63495550Y-35400990D02*
X63457455Y-35448609D01*
X63457455Y-35448609D02*
X63381265Y-35496228D01*
X63381265Y-35496228D02*
X63076503Y-35496228D01*
X64219360Y-35305752D02*
X64219360Y-35972419D01*
X63876503Y-35305752D02*
X63876503Y-35829561D01*
X63876503Y-35829561D02*
X63914598Y-35924800D01*
X63914598Y-35924800D02*
X63990788Y-35972419D01*
X63990788Y-35972419D02*
X64105074Y-35972419D01*
X64105074Y-35972419D02*
X64181265Y-35924800D01*
X64181265Y-35924800D02*
X64219360Y-35877180D01*
X64600313Y-35972419D02*
X64600313Y-35305752D01*
X64600313Y-35400990D02*
X64638408Y-35353371D01*
X64638408Y-35353371D02*
X64714598Y-35305752D01*
X64714598Y-35305752D02*
X64828884Y-35305752D01*
X64828884Y-35305752D02*
X64905075Y-35353371D01*
X64905075Y-35353371D02*
X64943170Y-35448609D01*
X64943170Y-35448609D02*
X64943170Y-35972419D01*
X64943170Y-35448609D02*
X64981265Y-35353371D01*
X64981265Y-35353371D02*
X65057456Y-35305752D01*
X65057456Y-35305752D02*
X65171741Y-35305752D01*
X65171741Y-35305752D02*
X65247932Y-35353371D01*
X65247932Y-35353371D02*
X65286027Y-35448609D01*
X65286027Y-35448609D02*
X65286027Y-35972419D01*
X65666980Y-35305752D02*
X65666980Y-36305752D01*
X65666980Y-35353371D02*
X65743170Y-35305752D01*
X65743170Y-35305752D02*
X65895551Y-35305752D01*
X65895551Y-35305752D02*
X65971742Y-35353371D01*
X65971742Y-35353371D02*
X66009837Y-35400990D01*
X66009837Y-35400990D02*
X66047932Y-35496228D01*
X66047932Y-35496228D02*
X66047932Y-35781942D01*
X66047932Y-35781942D02*
X66009837Y-35877180D01*
X66009837Y-35877180D02*
X65971742Y-35924800D01*
X65971742Y-35924800D02*
X65895551Y-35972419D01*
X65895551Y-35972419D02*
X65743170Y-35972419D01*
X65743170Y-35972419D02*
X65666980Y-35924800D01*
X66390790Y-35591466D02*
X67000314Y-35591466D01*
X91006265Y-39437475D02*
X91006265Y-38437475D01*
X91006265Y-38437475D02*
X91311027Y-38437475D01*
X91311027Y-38437475D02*
X91387217Y-38485094D01*
X91387217Y-38485094D02*
X91425312Y-38532713D01*
X91425312Y-38532713D02*
X91463408Y-38627951D01*
X91463408Y-38627951D02*
X91463408Y-38770808D01*
X91463408Y-38770808D02*
X91425312Y-38866046D01*
X91425312Y-38866046D02*
X91387217Y-38913665D01*
X91387217Y-38913665D02*
X91311027Y-38961284D01*
X91311027Y-38961284D02*
X91006265Y-38961284D01*
X91730074Y-38437475D02*
X91920550Y-39437475D01*
X91920550Y-39437475D02*
X92072931Y-38723189D01*
X92072931Y-38723189D02*
X92225312Y-39437475D01*
X92225312Y-39437475D02*
X92415789Y-38437475D01*
X92720551Y-39437475D02*
X92720551Y-38437475D01*
X92720551Y-38437475D02*
X92987217Y-39151760D01*
X92987217Y-39151760D02*
X93253884Y-38437475D01*
X93253884Y-38437475D02*
X93253884Y-39437475D01*
X91272931Y-40523609D02*
X91006265Y-40523609D01*
X91006265Y-41047419D02*
X91006265Y-40047419D01*
X91006265Y-40047419D02*
X91387217Y-40047419D01*
X91996741Y-40999800D02*
X91920550Y-41047419D01*
X91920550Y-41047419D02*
X91768169Y-41047419D01*
X91768169Y-41047419D02*
X91691979Y-40999800D01*
X91691979Y-40999800D02*
X91653883Y-40904561D01*
X91653883Y-40904561D02*
X91653883Y-40523609D01*
X91653883Y-40523609D02*
X91691979Y-40428371D01*
X91691979Y-40428371D02*
X91768169Y-40380752D01*
X91768169Y-40380752D02*
X91920550Y-40380752D01*
X91920550Y-40380752D02*
X91996741Y-40428371D01*
X91996741Y-40428371D02*
X92034836Y-40523609D01*
X92034836Y-40523609D02*
X92034836Y-40618847D01*
X92034836Y-40618847D02*
X91653883Y-40714085D01*
X92377693Y-41047419D02*
X92377693Y-40380752D01*
X92377693Y-40571228D02*
X92415788Y-40475990D01*
X92415788Y-40475990D02*
X92453883Y-40428371D01*
X92453883Y-40428371D02*
X92530074Y-40380752D01*
X92530074Y-40380752D02*
X92606264Y-40380752D01*
X92758645Y-40380752D02*
X93063407Y-40380752D01*
X92872931Y-40047419D02*
X92872931Y-40904561D01*
X92872931Y-40904561D02*
X92911026Y-40999800D01*
X92911026Y-40999800D02*
X92987216Y-41047419D01*
X92987216Y-41047419D02*
X93063407Y-41047419D01*
X93330074Y-41047419D02*
X93330074Y-40380752D01*
X93330074Y-40047419D02*
X93291978Y-40095038D01*
X93291978Y-40095038D02*
X93330074Y-40142657D01*
X93330074Y-40142657D02*
X93368169Y-40095038D01*
X93368169Y-40095038D02*
X93330074Y-40047419D01*
X93330074Y-40047419D02*
X93330074Y-40142657D01*
X93825311Y-41047419D02*
X93749121Y-40999800D01*
X93749121Y-40999800D02*
X93711026Y-40904561D01*
X93711026Y-40904561D02*
X93711026Y-40047419D01*
X94130074Y-41047419D02*
X94130074Y-40380752D01*
X94130074Y-40047419D02*
X94091978Y-40095038D01*
X94091978Y-40095038D02*
X94130074Y-40142657D01*
X94130074Y-40142657D02*
X94168169Y-40095038D01*
X94168169Y-40095038D02*
X94130074Y-40047419D01*
X94130074Y-40047419D02*
X94130074Y-40142657D01*
X94434835Y-40380752D02*
X94853883Y-40380752D01*
X94853883Y-40380752D02*
X94434835Y-41047419D01*
X94434835Y-41047419D02*
X94853883Y-41047419D01*
X95463407Y-40999800D02*
X95387216Y-41047419D01*
X95387216Y-41047419D02*
X95234835Y-41047419D01*
X95234835Y-41047419D02*
X95158645Y-40999800D01*
X95158645Y-40999800D02*
X95120549Y-40904561D01*
X95120549Y-40904561D02*
X95120549Y-40523609D01*
X95120549Y-40523609D02*
X95158645Y-40428371D01*
X95158645Y-40428371D02*
X95234835Y-40380752D01*
X95234835Y-40380752D02*
X95387216Y-40380752D01*
X95387216Y-40380752D02*
X95463407Y-40428371D01*
X95463407Y-40428371D02*
X95501502Y-40523609D01*
X95501502Y-40523609D02*
X95501502Y-40618847D01*
X95501502Y-40618847D02*
X95120549Y-40714085D01*
X95844359Y-41047419D02*
X95844359Y-40380752D01*
X95844359Y-40571228D02*
X95882454Y-40475990D01*
X95882454Y-40475990D02*
X95920549Y-40428371D01*
X95920549Y-40428371D02*
X95996740Y-40380752D01*
X95996740Y-40380752D02*
X96072930Y-40380752D01*
X62055074Y-47122419D02*
X62245550Y-48122419D01*
X62245550Y-48122419D02*
X62397931Y-47408133D01*
X62397931Y-47408133D02*
X62550312Y-48122419D01*
X62550312Y-48122419D02*
X62740789Y-47122419D01*
X62855075Y-48217657D02*
X63464598Y-48217657D01*
X63655075Y-48122419D02*
X63655075Y-47122419D01*
X63655075Y-47122419D02*
X63959837Y-47122419D01*
X63959837Y-47122419D02*
X64036027Y-47170038D01*
X64036027Y-47170038D02*
X64074122Y-47217657D01*
X64074122Y-47217657D02*
X64112218Y-47312895D01*
X64112218Y-47312895D02*
X64112218Y-47455752D01*
X64112218Y-47455752D02*
X64074122Y-47550990D01*
X64074122Y-47550990D02*
X64036027Y-47598609D01*
X64036027Y-47598609D02*
X63959837Y-47646228D01*
X63959837Y-47646228D02*
X63655075Y-47646228D01*
X64797932Y-47455752D02*
X64797932Y-48122419D01*
X64455075Y-47455752D02*
X64455075Y-47979561D01*
X64455075Y-47979561D02*
X64493170Y-48074800D01*
X64493170Y-48074800D02*
X64569360Y-48122419D01*
X64569360Y-48122419D02*
X64683646Y-48122419D01*
X64683646Y-48122419D02*
X64759837Y-48074800D01*
X64759837Y-48074800D02*
X64797932Y-48027180D01*
X65178885Y-48122419D02*
X65178885Y-47455752D01*
X65178885Y-47550990D02*
X65216980Y-47503371D01*
X65216980Y-47503371D02*
X65293170Y-47455752D01*
X65293170Y-47455752D02*
X65407456Y-47455752D01*
X65407456Y-47455752D02*
X65483647Y-47503371D01*
X65483647Y-47503371D02*
X65521742Y-47598609D01*
X65521742Y-47598609D02*
X65521742Y-48122419D01*
X65521742Y-47598609D02*
X65559837Y-47503371D01*
X65559837Y-47503371D02*
X65636028Y-47455752D01*
X65636028Y-47455752D02*
X65750313Y-47455752D01*
X65750313Y-47455752D02*
X65826504Y-47503371D01*
X65826504Y-47503371D02*
X65864599Y-47598609D01*
X65864599Y-47598609D02*
X65864599Y-48122419D01*
X66245552Y-47455752D02*
X66245552Y-48455752D01*
X66245552Y-47503371D02*
X66321742Y-47455752D01*
X66321742Y-47455752D02*
X66474123Y-47455752D01*
X66474123Y-47455752D02*
X66550314Y-47503371D01*
X66550314Y-47503371D02*
X66588409Y-47550990D01*
X66588409Y-47550990D02*
X66626504Y-47646228D01*
X66626504Y-47646228D02*
X66626504Y-47931942D01*
X66626504Y-47931942D02*
X66588409Y-48027180D01*
X66588409Y-48027180D02*
X66550314Y-48074800D01*
X66550314Y-48074800D02*
X66474123Y-48122419D01*
X66474123Y-48122419D02*
X66321742Y-48122419D01*
X66321742Y-48122419D02*
X66245552Y-48074800D01*
X66969362Y-47741466D02*
X67578886Y-47741466D01*
X67274124Y-48122419D02*
X67274124Y-47360514D01*
X122078884Y-88191466D02*
X122840789Y-88191466D01*
X122459836Y-88572419D02*
X122459836Y-87810514D01*
X123793169Y-87572419D02*
X123316979Y-87572419D01*
X123316979Y-87572419D02*
X123269360Y-88048609D01*
X123269360Y-88048609D02*
X123316979Y-88000990D01*
X123316979Y-88000990D02*
X123412217Y-87953371D01*
X123412217Y-87953371D02*
X123650312Y-87953371D01*
X123650312Y-87953371D02*
X123745550Y-88000990D01*
X123745550Y-88000990D02*
X123793169Y-88048609D01*
X123793169Y-88048609D02*
X123840788Y-88143847D01*
X123840788Y-88143847D02*
X123840788Y-88381942D01*
X123840788Y-88381942D02*
X123793169Y-88477180D01*
X123793169Y-88477180D02*
X123745550Y-88524800D01*
X123745550Y-88524800D02*
X123650312Y-88572419D01*
X123650312Y-88572419D02*
X123412217Y-88572419D01*
X123412217Y-88572419D02*
X123316979Y-88524800D01*
X123316979Y-88524800D02*
X123269360Y-88477180D01*
X124126503Y-87572419D02*
X124459836Y-88572419D01*
X124459836Y-88572419D02*
X124793169Y-87572419D01*
X114105074Y-79872419D02*
X113628884Y-79872419D01*
X113628884Y-79872419D02*
X113628884Y-78872419D01*
X114390789Y-79824800D02*
X114533646Y-79872419D01*
X114533646Y-79872419D02*
X114771741Y-79872419D01*
X114771741Y-79872419D02*
X114866979Y-79824800D01*
X114866979Y-79824800D02*
X114914598Y-79777180D01*
X114914598Y-79777180D02*
X114962217Y-79681942D01*
X114962217Y-79681942D02*
X114962217Y-79586704D01*
X114962217Y-79586704D02*
X114914598Y-79491466D01*
X114914598Y-79491466D02*
X114866979Y-79443847D01*
X114866979Y-79443847D02*
X114771741Y-79396228D01*
X114771741Y-79396228D02*
X114581265Y-79348609D01*
X114581265Y-79348609D02*
X114486027Y-79300990D01*
X114486027Y-79300990D02*
X114438408Y-79253371D01*
X114438408Y-79253371D02*
X114390789Y-79158133D01*
X114390789Y-79158133D02*
X114390789Y-79062895D01*
X114390789Y-79062895D02*
X114438408Y-78967657D01*
X114438408Y-78967657D02*
X114486027Y-78920038D01*
X114486027Y-78920038D02*
X114581265Y-78872419D01*
X114581265Y-78872419D02*
X114819360Y-78872419D01*
X114819360Y-78872419D02*
X114962217Y-78920038D01*
X60628884Y-60391466D02*
X61390789Y-60391466D01*
X61009836Y-60772419D02*
X61009836Y-60010514D01*
X62390788Y-60772419D02*
X61819360Y-60772419D01*
X62105074Y-60772419D02*
X62105074Y-59772419D01*
X62105074Y-59772419D02*
X62009836Y-59915276D01*
X62009836Y-59915276D02*
X61914598Y-60010514D01*
X61914598Y-60010514D02*
X61819360Y-60058133D01*
X62771741Y-59867657D02*
X62819360Y-59820038D01*
X62819360Y-59820038D02*
X62914598Y-59772419D01*
X62914598Y-59772419D02*
X63152693Y-59772419D01*
X63152693Y-59772419D02*
X63247931Y-59820038D01*
X63247931Y-59820038D02*
X63295550Y-59867657D01*
X63295550Y-59867657D02*
X63343169Y-59962895D01*
X63343169Y-59962895D02*
X63343169Y-60058133D01*
X63343169Y-60058133D02*
X63295550Y-60200990D01*
X63295550Y-60200990D02*
X62724122Y-60772419D01*
X62724122Y-60772419D02*
X63343169Y-60772419D01*
X63628884Y-59772419D02*
X63962217Y-60772419D01*
X63962217Y-60772419D02*
X64295550Y-59772419D01*
X61078884Y-66741466D02*
X61840789Y-66741466D01*
X61459836Y-67122419D02*
X61459836Y-66360514D01*
X62793169Y-66122419D02*
X62316979Y-66122419D01*
X62316979Y-66122419D02*
X62269360Y-66598609D01*
X62269360Y-66598609D02*
X62316979Y-66550990D01*
X62316979Y-66550990D02*
X62412217Y-66503371D01*
X62412217Y-66503371D02*
X62650312Y-66503371D01*
X62650312Y-66503371D02*
X62745550Y-66550990D01*
X62745550Y-66550990D02*
X62793169Y-66598609D01*
X62793169Y-66598609D02*
X62840788Y-66693847D01*
X62840788Y-66693847D02*
X62840788Y-66931942D01*
X62840788Y-66931942D02*
X62793169Y-67027180D01*
X62793169Y-67027180D02*
X62745550Y-67074800D01*
X62745550Y-67074800D02*
X62650312Y-67122419D01*
X62650312Y-67122419D02*
X62412217Y-67122419D01*
X62412217Y-67122419D02*
X62316979Y-67074800D01*
X62316979Y-67074800D02*
X62269360Y-67027180D01*
X63126503Y-66122419D02*
X63459836Y-67122419D01*
X63459836Y-67122419D02*
X63793169Y-66122419D01*
X91056265Y-48387475D02*
X91056265Y-47387475D01*
X91056265Y-47387475D02*
X91361027Y-47387475D01*
X91361027Y-47387475D02*
X91437217Y-47435094D01*
X91437217Y-47435094D02*
X91475312Y-47482713D01*
X91475312Y-47482713D02*
X91513408Y-47577951D01*
X91513408Y-47577951D02*
X91513408Y-47720808D01*
X91513408Y-47720808D02*
X91475312Y-47816046D01*
X91475312Y-47816046D02*
X91437217Y-47863665D01*
X91437217Y-47863665D02*
X91361027Y-47911284D01*
X91361027Y-47911284D02*
X91056265Y-47911284D01*
X91780074Y-47387475D02*
X91970550Y-48387475D01*
X91970550Y-48387475D02*
X92122931Y-47673189D01*
X92122931Y-47673189D02*
X92275312Y-48387475D01*
X92275312Y-48387475D02*
X92465789Y-47387475D01*
X92770551Y-48387475D02*
X92770551Y-47387475D01*
X92770551Y-47387475D02*
X93037217Y-48101760D01*
X93037217Y-48101760D02*
X93303884Y-47387475D01*
X93303884Y-47387475D02*
X93303884Y-48387475D01*
X90980074Y-48997419D02*
X91170550Y-49997419D01*
X91170550Y-49997419D02*
X91322931Y-49283133D01*
X91322931Y-49283133D02*
X91475312Y-49997419D01*
X91475312Y-49997419D02*
X91665789Y-48997419D01*
X92313408Y-49997419D02*
X92313408Y-49473609D01*
X92313408Y-49473609D02*
X92275313Y-49378371D01*
X92275313Y-49378371D02*
X92199122Y-49330752D01*
X92199122Y-49330752D02*
X92046741Y-49330752D01*
X92046741Y-49330752D02*
X91970551Y-49378371D01*
X92313408Y-49949800D02*
X92237217Y-49997419D01*
X92237217Y-49997419D02*
X92046741Y-49997419D01*
X92046741Y-49997419D02*
X91970551Y-49949800D01*
X91970551Y-49949800D02*
X91932455Y-49854561D01*
X91932455Y-49854561D02*
X91932455Y-49759323D01*
X91932455Y-49759323D02*
X91970551Y-49664085D01*
X91970551Y-49664085D02*
X92046741Y-49616466D01*
X92046741Y-49616466D02*
X92237217Y-49616466D01*
X92237217Y-49616466D02*
X92313408Y-49568847D01*
X92580075Y-49330752D02*
X92884837Y-49330752D01*
X92694361Y-48997419D02*
X92694361Y-49854561D01*
X92694361Y-49854561D02*
X92732456Y-49949800D01*
X92732456Y-49949800D02*
X92808646Y-49997419D01*
X92808646Y-49997419D02*
X92884837Y-49997419D01*
X93456266Y-49949800D02*
X93380075Y-49997419D01*
X93380075Y-49997419D02*
X93227694Y-49997419D01*
X93227694Y-49997419D02*
X93151504Y-49949800D01*
X93151504Y-49949800D02*
X93113408Y-49854561D01*
X93113408Y-49854561D02*
X93113408Y-49473609D01*
X93113408Y-49473609D02*
X93151504Y-49378371D01*
X93151504Y-49378371D02*
X93227694Y-49330752D01*
X93227694Y-49330752D02*
X93380075Y-49330752D01*
X93380075Y-49330752D02*
X93456266Y-49378371D01*
X93456266Y-49378371D02*
X93494361Y-49473609D01*
X93494361Y-49473609D02*
X93494361Y-49568847D01*
X93494361Y-49568847D02*
X93113408Y-49664085D01*
X93837218Y-49997419D02*
X93837218Y-49330752D01*
X93837218Y-49521228D02*
X93875313Y-49425990D01*
X93875313Y-49425990D02*
X93913408Y-49378371D01*
X93913408Y-49378371D02*
X93989599Y-49330752D01*
X93989599Y-49330752D02*
X94065789Y-49330752D01*
X125678884Y-81072419D02*
X125678884Y-80072419D01*
X125678884Y-80072419D02*
X126012217Y-80786704D01*
X126012217Y-80786704D02*
X126345550Y-80072419D01*
X126345550Y-80072419D02*
X126345550Y-81072419D01*
X126774122Y-81024800D02*
X126916979Y-81072419D01*
X126916979Y-81072419D02*
X127155074Y-81072419D01*
X127155074Y-81072419D02*
X127250312Y-81024800D01*
X127250312Y-81024800D02*
X127297931Y-80977180D01*
X127297931Y-80977180D02*
X127345550Y-80881942D01*
X127345550Y-80881942D02*
X127345550Y-80786704D01*
X127345550Y-80786704D02*
X127297931Y-80691466D01*
X127297931Y-80691466D02*
X127250312Y-80643847D01*
X127250312Y-80643847D02*
X127155074Y-80596228D01*
X127155074Y-80596228D02*
X126964598Y-80548609D01*
X126964598Y-80548609D02*
X126869360Y-80500990D01*
X126869360Y-80500990D02*
X126821741Y-80453371D01*
X126821741Y-80453371D02*
X126774122Y-80358133D01*
X126774122Y-80358133D02*
X126774122Y-80262895D01*
X126774122Y-80262895D02*
X126821741Y-80167657D01*
X126821741Y-80167657D02*
X126869360Y-80120038D01*
X126869360Y-80120038D02*
X126964598Y-80072419D01*
X126964598Y-80072419D02*
X127202693Y-80072419D01*
X127202693Y-80072419D02*
X127345550Y-80120038D01*
X79278884Y-87491466D02*
X80040789Y-87491466D01*
X79659836Y-87872419D02*
X79659836Y-87110514D01*
X81040788Y-87872419D02*
X80469360Y-87872419D01*
X80755074Y-87872419D02*
X80755074Y-86872419D01*
X80755074Y-86872419D02*
X80659836Y-87015276D01*
X80659836Y-87015276D02*
X80564598Y-87110514D01*
X80564598Y-87110514D02*
X80469360Y-87158133D01*
X81421741Y-86967657D02*
X81469360Y-86920038D01*
X81469360Y-86920038D02*
X81564598Y-86872419D01*
X81564598Y-86872419D02*
X81802693Y-86872419D01*
X81802693Y-86872419D02*
X81897931Y-86920038D01*
X81897931Y-86920038D02*
X81945550Y-86967657D01*
X81945550Y-86967657D02*
X81993169Y-87062895D01*
X81993169Y-87062895D02*
X81993169Y-87158133D01*
X81993169Y-87158133D02*
X81945550Y-87300990D01*
X81945550Y-87300990D02*
X81374122Y-87872419D01*
X81374122Y-87872419D02*
X81993169Y-87872419D01*
X82278884Y-86872419D02*
X82612217Y-87872419D01*
X82612217Y-87872419D02*
X82945550Y-86872419D01*
X85326503Y-86920038D02*
X85231265Y-86872419D01*
X85231265Y-86872419D02*
X85088408Y-86872419D01*
X85088408Y-86872419D02*
X84945551Y-86920038D01*
X84945551Y-86920038D02*
X84850313Y-87015276D01*
X84850313Y-87015276D02*
X84802694Y-87110514D01*
X84802694Y-87110514D02*
X84755075Y-87300990D01*
X84755075Y-87300990D02*
X84755075Y-87443847D01*
X84755075Y-87443847D02*
X84802694Y-87634323D01*
X84802694Y-87634323D02*
X84850313Y-87729561D01*
X84850313Y-87729561D02*
X84945551Y-87824800D01*
X84945551Y-87824800D02*
X85088408Y-87872419D01*
X85088408Y-87872419D02*
X85183646Y-87872419D01*
X85183646Y-87872419D02*
X85326503Y-87824800D01*
X85326503Y-87824800D02*
X85374122Y-87777180D01*
X85374122Y-87777180D02*
X85374122Y-87443847D01*
X85374122Y-87443847D02*
X85183646Y-87443847D01*
X85802694Y-87872419D02*
X85802694Y-86872419D01*
X85802694Y-86872419D02*
X86374122Y-87872419D01*
X86374122Y-87872419D02*
X86374122Y-86872419D01*
X86850313Y-87872419D02*
X86850313Y-86872419D01*
X86850313Y-86872419D02*
X87088408Y-86872419D01*
X87088408Y-86872419D02*
X87231265Y-86920038D01*
X87231265Y-86920038D02*
X87326503Y-87015276D01*
X87326503Y-87015276D02*
X87374122Y-87110514D01*
X87374122Y-87110514D02*
X87421741Y-87300990D01*
X87421741Y-87300990D02*
X87421741Y-87443847D01*
X87421741Y-87443847D02*
X87374122Y-87634323D01*
X87374122Y-87634323D02*
X87326503Y-87729561D01*
X87326503Y-87729561D02*
X87231265Y-87824800D01*
X87231265Y-87824800D02*
X87088408Y-87872419D01*
X87088408Y-87872419D02*
X86850313Y-87872419D01*
X64728884Y-28741466D02*
X65490789Y-28741466D01*
X65109836Y-29122419D02*
X65109836Y-28360514D01*
X66443169Y-28122419D02*
X65966979Y-28122419D01*
X65966979Y-28122419D02*
X65919360Y-28598609D01*
X65919360Y-28598609D02*
X65966979Y-28550990D01*
X65966979Y-28550990D02*
X66062217Y-28503371D01*
X66062217Y-28503371D02*
X66300312Y-28503371D01*
X66300312Y-28503371D02*
X66395550Y-28550990D01*
X66395550Y-28550990D02*
X66443169Y-28598609D01*
X66443169Y-28598609D02*
X66490788Y-28693847D01*
X66490788Y-28693847D02*
X66490788Y-28931942D01*
X66490788Y-28931942D02*
X66443169Y-29027180D01*
X66443169Y-29027180D02*
X66395550Y-29074800D01*
X66395550Y-29074800D02*
X66300312Y-29122419D01*
X66300312Y-29122419D02*
X66062217Y-29122419D01*
X66062217Y-29122419D02*
X65966979Y-29074800D01*
X65966979Y-29074800D02*
X65919360Y-29027180D01*
X66776503Y-28122419D02*
X67109836Y-29122419D01*
X67109836Y-29122419D02*
X67443169Y-28122419D01*
X61555074Y-44422419D02*
X61745550Y-45422419D01*
X61745550Y-45422419D02*
X61897931Y-44708133D01*
X61897931Y-44708133D02*
X62050312Y-45422419D01*
X62050312Y-45422419D02*
X62240789Y-44422419D01*
X62355075Y-45517657D02*
X62964598Y-45517657D01*
X63155075Y-45422419D02*
X63155075Y-44422419D01*
X63155075Y-44422419D02*
X63459837Y-44422419D01*
X63459837Y-44422419D02*
X63536027Y-44470038D01*
X63536027Y-44470038D02*
X63574122Y-44517657D01*
X63574122Y-44517657D02*
X63612218Y-44612895D01*
X63612218Y-44612895D02*
X63612218Y-44755752D01*
X63612218Y-44755752D02*
X63574122Y-44850990D01*
X63574122Y-44850990D02*
X63536027Y-44898609D01*
X63536027Y-44898609D02*
X63459837Y-44946228D01*
X63459837Y-44946228D02*
X63155075Y-44946228D01*
X64297932Y-44755752D02*
X64297932Y-45422419D01*
X63955075Y-44755752D02*
X63955075Y-45279561D01*
X63955075Y-45279561D02*
X63993170Y-45374800D01*
X63993170Y-45374800D02*
X64069360Y-45422419D01*
X64069360Y-45422419D02*
X64183646Y-45422419D01*
X64183646Y-45422419D02*
X64259837Y-45374800D01*
X64259837Y-45374800D02*
X64297932Y-45327180D01*
X64678885Y-45422419D02*
X64678885Y-44755752D01*
X64678885Y-44850990D02*
X64716980Y-44803371D01*
X64716980Y-44803371D02*
X64793170Y-44755752D01*
X64793170Y-44755752D02*
X64907456Y-44755752D01*
X64907456Y-44755752D02*
X64983647Y-44803371D01*
X64983647Y-44803371D02*
X65021742Y-44898609D01*
X65021742Y-44898609D02*
X65021742Y-45422419D01*
X65021742Y-44898609D02*
X65059837Y-44803371D01*
X65059837Y-44803371D02*
X65136028Y-44755752D01*
X65136028Y-44755752D02*
X65250313Y-44755752D01*
X65250313Y-44755752D02*
X65326504Y-44803371D01*
X65326504Y-44803371D02*
X65364599Y-44898609D01*
X65364599Y-44898609D02*
X65364599Y-45422419D01*
X65745552Y-44755752D02*
X65745552Y-45755752D01*
X65745552Y-44803371D02*
X65821742Y-44755752D01*
X65821742Y-44755752D02*
X65974123Y-44755752D01*
X65974123Y-44755752D02*
X66050314Y-44803371D01*
X66050314Y-44803371D02*
X66088409Y-44850990D01*
X66088409Y-44850990D02*
X66126504Y-44946228D01*
X66126504Y-44946228D02*
X66126504Y-45231942D01*
X66126504Y-45231942D02*
X66088409Y-45327180D01*
X66088409Y-45327180D02*
X66050314Y-45374800D01*
X66050314Y-45374800D02*
X65974123Y-45422419D01*
X65974123Y-45422419D02*
X65821742Y-45422419D01*
X65821742Y-45422419D02*
X65745552Y-45374800D01*
X66469362Y-45041466D02*
X67078886Y-45041466D01*
X95612217Y-87122419D02*
X95231265Y-87122419D01*
X95231265Y-87122419D02*
X95231265Y-86122419D01*
X95688408Y-87217657D02*
X96297931Y-87217657D01*
X96907455Y-86170038D02*
X96831265Y-86122419D01*
X96831265Y-86122419D02*
X96716979Y-86122419D01*
X96716979Y-86122419D02*
X96602693Y-86170038D01*
X96602693Y-86170038D02*
X96526503Y-86265276D01*
X96526503Y-86265276D02*
X96488408Y-86360514D01*
X96488408Y-86360514D02*
X96450312Y-86550990D01*
X96450312Y-86550990D02*
X96450312Y-86693847D01*
X96450312Y-86693847D02*
X96488408Y-86884323D01*
X96488408Y-86884323D02*
X96526503Y-86979561D01*
X96526503Y-86979561D02*
X96602693Y-87074800D01*
X96602693Y-87074800D02*
X96716979Y-87122419D01*
X96716979Y-87122419D02*
X96793170Y-87122419D01*
X96793170Y-87122419D02*
X96907455Y-87074800D01*
X96907455Y-87074800D02*
X96945551Y-87027180D01*
X96945551Y-87027180D02*
X96945551Y-86693847D01*
X96945551Y-86693847D02*
X96793170Y-86693847D01*
X97288408Y-87122419D02*
X97288408Y-86122419D01*
X97288408Y-86122419D02*
X97745551Y-87122419D01*
X97745551Y-87122419D02*
X97745551Y-86122419D01*
X98126503Y-87122419D02*
X98126503Y-86122419D01*
X98126503Y-86122419D02*
X98316979Y-86122419D01*
X98316979Y-86122419D02*
X98431265Y-86170038D01*
X98431265Y-86170038D02*
X98507455Y-86265276D01*
X98507455Y-86265276D02*
X98545550Y-86360514D01*
X98545550Y-86360514D02*
X98583646Y-86550990D01*
X98583646Y-86550990D02*
X98583646Y-86693847D01*
X98583646Y-86693847D02*
X98545550Y-86884323D01*
X98545550Y-86884323D02*
X98507455Y-86979561D01*
X98507455Y-86979561D02*
X98431265Y-87074800D01*
X98431265Y-87074800D02*
X98316979Y-87122419D01*
X98316979Y-87122419D02*
X98126503Y-87122419D01*
X113628884Y-86091466D02*
X114390789Y-86091466D01*
X114009836Y-86472419D02*
X114009836Y-85710514D01*
X115343169Y-85472419D02*
X114866979Y-85472419D01*
X114866979Y-85472419D02*
X114819360Y-85948609D01*
X114819360Y-85948609D02*
X114866979Y-85900990D01*
X114866979Y-85900990D02*
X114962217Y-85853371D01*
X114962217Y-85853371D02*
X115200312Y-85853371D01*
X115200312Y-85853371D02*
X115295550Y-85900990D01*
X115295550Y-85900990D02*
X115343169Y-85948609D01*
X115343169Y-85948609D02*
X115390788Y-86043847D01*
X115390788Y-86043847D02*
X115390788Y-86281942D01*
X115390788Y-86281942D02*
X115343169Y-86377180D01*
X115343169Y-86377180D02*
X115295550Y-86424800D01*
X115295550Y-86424800D02*
X115200312Y-86472419D01*
X115200312Y-86472419D02*
X114962217Y-86472419D01*
X114962217Y-86472419D02*
X114866979Y-86424800D01*
X114866979Y-86424800D02*
X114819360Y-86377180D01*
X115676503Y-85472419D02*
X116009836Y-86472419D01*
X116009836Y-86472419D02*
X116343169Y-85472419D01*
X72152693Y-28170038D02*
X72057455Y-28122419D01*
X72057455Y-28122419D02*
X71914598Y-28122419D01*
X71914598Y-28122419D02*
X71771741Y-28170038D01*
X71771741Y-28170038D02*
X71676503Y-28265276D01*
X71676503Y-28265276D02*
X71628884Y-28360514D01*
X71628884Y-28360514D02*
X71581265Y-28550990D01*
X71581265Y-28550990D02*
X71581265Y-28693847D01*
X71581265Y-28693847D02*
X71628884Y-28884323D01*
X71628884Y-28884323D02*
X71676503Y-28979561D01*
X71676503Y-28979561D02*
X71771741Y-29074800D01*
X71771741Y-29074800D02*
X71914598Y-29122419D01*
X71914598Y-29122419D02*
X72009836Y-29122419D01*
X72009836Y-29122419D02*
X72152693Y-29074800D01*
X72152693Y-29074800D02*
X72200312Y-29027180D01*
X72200312Y-29027180D02*
X72200312Y-28693847D01*
X72200312Y-28693847D02*
X72009836Y-28693847D01*
X72628884Y-29122419D02*
X72628884Y-28122419D01*
X72628884Y-28122419D02*
X73200312Y-29122419D01*
X73200312Y-29122419D02*
X73200312Y-28122419D01*
X73676503Y-29122419D02*
X73676503Y-28122419D01*
X73676503Y-28122419D02*
X73914598Y-28122419D01*
X73914598Y-28122419D02*
X74057455Y-28170038D01*
X74057455Y-28170038D02*
X74152693Y-28265276D01*
X74152693Y-28265276D02*
X74200312Y-28360514D01*
X74200312Y-28360514D02*
X74247931Y-28550990D01*
X74247931Y-28550990D02*
X74247931Y-28693847D01*
X74247931Y-28693847D02*
X74200312Y-28884323D01*
X74200312Y-28884323D02*
X74152693Y-28979561D01*
X74152693Y-28979561D02*
X74057455Y-29074800D01*
X74057455Y-29074800D02*
X73914598Y-29122419D01*
X73914598Y-29122419D02*
X73676503Y-29122419D01*
X121878884Y-78622419D02*
X121878884Y-77622419D01*
X121878884Y-77622419D02*
X122212217Y-78336704D01*
X122212217Y-78336704D02*
X122545550Y-77622419D01*
X122545550Y-77622419D02*
X122545550Y-78622419D01*
X122974122Y-78574800D02*
X123116979Y-78622419D01*
X123116979Y-78622419D02*
X123355074Y-78622419D01*
X123355074Y-78622419D02*
X123450312Y-78574800D01*
X123450312Y-78574800D02*
X123497931Y-78527180D01*
X123497931Y-78527180D02*
X123545550Y-78431942D01*
X123545550Y-78431942D02*
X123545550Y-78336704D01*
X123545550Y-78336704D02*
X123497931Y-78241466D01*
X123497931Y-78241466D02*
X123450312Y-78193847D01*
X123450312Y-78193847D02*
X123355074Y-78146228D01*
X123355074Y-78146228D02*
X123164598Y-78098609D01*
X123164598Y-78098609D02*
X123069360Y-78050990D01*
X123069360Y-78050990D02*
X123021741Y-78003371D01*
X123021741Y-78003371D02*
X122974122Y-77908133D01*
X122974122Y-77908133D02*
X122974122Y-77812895D01*
X122974122Y-77812895D02*
X123021741Y-77717657D01*
X123021741Y-77717657D02*
X123069360Y-77670038D01*
X123069360Y-77670038D02*
X123164598Y-77622419D01*
X123164598Y-77622419D02*
X123402693Y-77622419D01*
X123402693Y-77622419D02*
X123545550Y-77670038D01*
X99612217Y-87122419D02*
X99231265Y-87122419D01*
X99231265Y-87122419D02*
X99231265Y-86122419D01*
X99688408Y-87217657D02*
X100297931Y-87217657D01*
X100374122Y-86122419D02*
X100640789Y-87122419D01*
X100640789Y-87122419D02*
X100907455Y-86122419D01*
X101631265Y-87027180D02*
X101593169Y-87074800D01*
X101593169Y-87074800D02*
X101478884Y-87122419D01*
X101478884Y-87122419D02*
X101402693Y-87122419D01*
X101402693Y-87122419D02*
X101288407Y-87074800D01*
X101288407Y-87074800D02*
X101212217Y-86979561D01*
X101212217Y-86979561D02*
X101174122Y-86884323D01*
X101174122Y-86884323D02*
X101136026Y-86693847D01*
X101136026Y-86693847D02*
X101136026Y-86550990D01*
X101136026Y-86550990D02*
X101174122Y-86360514D01*
X101174122Y-86360514D02*
X101212217Y-86265276D01*
X101212217Y-86265276D02*
X101288407Y-86170038D01*
X101288407Y-86170038D02*
X101402693Y-86122419D01*
X101402693Y-86122419D02*
X101478884Y-86122419D01*
X101478884Y-86122419D02*
X101593169Y-86170038D01*
X101593169Y-86170038D02*
X101631265Y-86217657D01*
X102431265Y-87027180D02*
X102393169Y-87074800D01*
X102393169Y-87074800D02*
X102278884Y-87122419D01*
X102278884Y-87122419D02*
X102202693Y-87122419D01*
X102202693Y-87122419D02*
X102088407Y-87074800D01*
X102088407Y-87074800D02*
X102012217Y-86979561D01*
X102012217Y-86979561D02*
X101974122Y-86884323D01*
X101974122Y-86884323D02*
X101936026Y-86693847D01*
X101936026Y-86693847D02*
X101936026Y-86550990D01*
X101936026Y-86550990D02*
X101974122Y-86360514D01*
X101974122Y-86360514D02*
X102012217Y-86265276D01*
X102012217Y-86265276D02*
X102088407Y-86170038D01*
X102088407Y-86170038D02*
X102202693Y-86122419D01*
X102202693Y-86122419D02*
X102278884Y-86122419D01*
X102278884Y-86122419D02*
X102393169Y-86170038D01*
X102393169Y-86170038D02*
X102431265Y-86217657D01*
X60931265Y-71991466D02*
X61540789Y-71991466D01*
X61236027Y-72372419D02*
X61236027Y-71610514D01*
X62340788Y-72372419D02*
X61883645Y-72372419D01*
X62112217Y-72372419D02*
X62112217Y-71372419D01*
X62112217Y-71372419D02*
X62036026Y-71515276D01*
X62036026Y-71515276D02*
X61959836Y-71610514D01*
X61959836Y-71610514D02*
X61883645Y-71658133D01*
X62645550Y-71467657D02*
X62683646Y-71420038D01*
X62683646Y-71420038D02*
X62759836Y-71372419D01*
X62759836Y-71372419D02*
X62950312Y-71372419D01*
X62950312Y-71372419D02*
X63026503Y-71420038D01*
X63026503Y-71420038D02*
X63064598Y-71467657D01*
X63064598Y-71467657D02*
X63102693Y-71562895D01*
X63102693Y-71562895D02*
X63102693Y-71658133D01*
X63102693Y-71658133D02*
X63064598Y-71800990D01*
X63064598Y-71800990D02*
X62607455Y-72372419D01*
X62607455Y-72372419D02*
X63102693Y-72372419D01*
X63331265Y-71372419D02*
X63597932Y-72372419D01*
X63597932Y-72372419D02*
X63864598Y-71372419D01*
X61802693Y-51770038D02*
X61707455Y-51722419D01*
X61707455Y-51722419D02*
X61564598Y-51722419D01*
X61564598Y-51722419D02*
X61421741Y-51770038D01*
X61421741Y-51770038D02*
X61326503Y-51865276D01*
X61326503Y-51865276D02*
X61278884Y-51960514D01*
X61278884Y-51960514D02*
X61231265Y-52150990D01*
X61231265Y-52150990D02*
X61231265Y-52293847D01*
X61231265Y-52293847D02*
X61278884Y-52484323D01*
X61278884Y-52484323D02*
X61326503Y-52579561D01*
X61326503Y-52579561D02*
X61421741Y-52674800D01*
X61421741Y-52674800D02*
X61564598Y-52722419D01*
X61564598Y-52722419D02*
X61659836Y-52722419D01*
X61659836Y-52722419D02*
X61802693Y-52674800D01*
X61802693Y-52674800D02*
X61850312Y-52627180D01*
X61850312Y-52627180D02*
X61850312Y-52293847D01*
X61850312Y-52293847D02*
X61659836Y-52293847D01*
X62278884Y-52722419D02*
X62278884Y-51722419D01*
X62278884Y-51722419D02*
X62850312Y-52722419D01*
X62850312Y-52722419D02*
X62850312Y-51722419D01*
X63326503Y-52722419D02*
X63326503Y-51722419D01*
X63326503Y-51722419D02*
X63564598Y-51722419D01*
X63564598Y-51722419D02*
X63707455Y-51770038D01*
X63707455Y-51770038D02*
X63802693Y-51865276D01*
X63802693Y-51865276D02*
X63850312Y-51960514D01*
X63850312Y-51960514D02*
X63897931Y-52150990D01*
X63897931Y-52150990D02*
X63897931Y-52293847D01*
X63897931Y-52293847D02*
X63850312Y-52484323D01*
X63850312Y-52484323D02*
X63802693Y-52579561D01*
X63802693Y-52579561D02*
X63707455Y-52674800D01*
X63707455Y-52674800D02*
X63564598Y-52722419D01*
X63564598Y-52722419D02*
X63326503Y-52722419D01*
D11*
%TO.C,C9*%
X80788748Y-52685000D02*
X81311252Y-52685000D01*
X80788748Y-51215000D02*
X81311252Y-51215000D01*
%TO.C,C10*%
X71238748Y-40790000D02*
X71761252Y-40790000D01*
X71238748Y-42260000D02*
X71761252Y-42260000D01*
%TO.C,C5*%
X81665000Y-39736252D02*
X81665000Y-39213748D01*
X83135000Y-39736252D02*
X83135000Y-39213748D01*
%TO.C,C6*%
X81590000Y-48911252D02*
X81590000Y-48388748D01*
X83060000Y-48911252D02*
X83060000Y-48388748D01*
%TO.C,J16*%
X126020000Y-70295000D02*
X127400000Y-70295000D01*
X126020000Y-71675000D02*
X126020000Y-70295000D01*
X126020000Y-72945000D02*
X126020000Y-73055000D01*
X126020000Y-72945000D02*
X128780000Y-72945000D01*
X126020000Y-73055000D02*
X128780000Y-73055000D01*
X128780000Y-72945000D02*
X128780000Y-73055000D01*
%TO.C,R25*%
X94120000Y-82071359D02*
X94120000Y-82378641D01*
X94880000Y-82071359D02*
X94880000Y-82378641D01*
%TO.C,J18*%
X65305000Y-29845000D02*
X65305000Y-32605000D01*
X70495000Y-29845000D02*
X65305000Y-29845000D01*
X70495000Y-29845000D02*
X70495000Y-32605000D01*
X70495000Y-32605000D02*
X65305000Y-32605000D01*
X71765000Y-29845000D02*
X73145000Y-29845000D01*
X73145000Y-29845000D02*
X73145000Y-31225000D01*
D12*
%TO.C,IC1*%
X86033094Y-65671197D02*
X89033094Y-65671197D01*
X86033094Y-70671197D02*
X86033094Y-65671197D01*
X89033094Y-65671197D02*
X89033094Y-70671197D01*
X89033094Y-70671197D02*
X86033094Y-70671197D01*
X89374512Y-70571197D02*
G75*
G02*
X89091676Y-70571197I-141418J0D01*
G01*
X89091676Y-70571197D02*
G75*
G02*
X89374512Y-70571197I141418J0D01*
G01*
D11*
%TO.C,Q4*%
X91990000Y-85265000D02*
X92040000Y-85265000D01*
X91990000Y-86785000D02*
X91990000Y-85265000D01*
X92990000Y-86785000D02*
X91990000Y-86785000D01*
X93160000Y-85265000D02*
X93940000Y-85265000D01*
X95060000Y-85265000D02*
X95110000Y-85265000D01*
X95110000Y-85265000D02*
X95110000Y-86785000D01*
X95110000Y-86785000D02*
X94110000Y-86785000D01*
X93930000Y-84725000D02*
X93600000Y-84965000D01*
X93600000Y-84485000D01*
X93930000Y-84725000D01*
G36*
X93930000Y-84725000D02*
G01*
X93600000Y-84965000D01*
X93600000Y-84485000D01*
X93930000Y-84725000D01*
G37*
%TO.C,R2*%
X90688262Y-69970000D02*
X90995544Y-69970000D01*
X90688262Y-70730000D02*
X90995544Y-70730000D01*
%TO.C,D6*%
X75532500Y-49781250D02*
X75532500Y-44271250D01*
X75532500Y-49781250D02*
X78832500Y-49781250D01*
X78832500Y-49781250D02*
X78832500Y-44271250D01*
%TO.C,D1*%
X81057500Y-59180000D02*
X81057500Y-60650000D01*
X81057500Y-60650000D02*
X83342500Y-60650000D01*
X83342500Y-59180000D02*
X81057500Y-59180000D01*
%TO.C,R15*%
X79254375Y-38885150D02*
X79254375Y-38577868D01*
X80014375Y-38885150D02*
X80014375Y-38577868D01*
%TO.C,J3*%
X72295000Y-58870000D02*
X72295000Y-51140000D01*
X75055000Y-51140000D02*
X72295000Y-51140000D01*
X75055000Y-58870000D02*
X72295000Y-58870000D01*
X75055000Y-58870000D02*
X75055000Y-51140000D01*
X75055000Y-60140000D02*
X75055000Y-61520000D01*
X75055000Y-61520000D02*
X73675000Y-61520000D01*
%TO.C,C4*%
X78666596Y-60452836D02*
X78666596Y-60237164D01*
X79386596Y-60452836D02*
X79386596Y-60237164D01*
%TO.C,J20*%
X92870000Y-54825000D02*
X94250000Y-54825000D01*
X92870000Y-56205000D02*
X92870000Y-54825000D01*
X92870000Y-57475000D02*
X92870000Y-65205000D01*
X92870000Y-57475000D02*
X95630000Y-57475000D01*
X92870000Y-65205000D02*
X95630000Y-65205000D01*
X95630000Y-57475000D02*
X95630000Y-65205000D01*
%TO.C,J8*%
X93020000Y-42320000D02*
X94400000Y-42320000D01*
X93020000Y-43700000D02*
X93020000Y-42320000D01*
X93020000Y-44970000D02*
X93020000Y-45080000D01*
X93020000Y-44970000D02*
X95780000Y-44970000D01*
X93020000Y-45080000D02*
X95780000Y-45080000D01*
X95780000Y-44970000D02*
X95780000Y-45080000D01*
%TO.C,J7*%
X80765000Y-78830000D02*
X86545000Y-78830000D01*
X80765000Y-79350000D02*
X86545000Y-79350000D01*
X80765000Y-84650000D02*
X81355000Y-84650000D01*
X80765000Y-85270000D02*
X80765000Y-78830000D01*
X81355000Y-85270000D02*
X80765000Y-85270000D01*
X83415000Y-84650000D02*
X83895000Y-84650000D01*
X83895000Y-85270000D02*
X83415000Y-85270000D01*
X85955000Y-84650000D02*
X86545000Y-84650000D01*
X86545000Y-78830000D02*
X86545000Y-85270000D01*
X86545000Y-85270000D02*
X85955000Y-85270000D01*
X82825000Y-86230000D02*
X81945000Y-86230000D01*
X82385000Y-85620000D01*
X82825000Y-86230000D01*
G36*
X82825000Y-86230000D02*
G01*
X81945000Y-86230000D01*
X82385000Y-85620000D01*
X82825000Y-86230000D01*
G37*
%TO.C,J11*%
X69080000Y-65480000D02*
X69080000Y-64100000D01*
X70460000Y-65480000D02*
X69080000Y-65480000D01*
X71730000Y-62720000D02*
X74380000Y-62720000D01*
X71730000Y-65480000D02*
X71730000Y-62720000D01*
X71730000Y-65480000D02*
X74380000Y-65480000D01*
X74380000Y-65480000D02*
X74380000Y-62720000D01*
%TO.C,J27*%
X87745000Y-38205000D02*
X87745000Y-38095000D01*
X90505000Y-38095000D02*
X87745000Y-38095000D01*
X90505000Y-38205000D02*
X87745000Y-38205000D01*
X90505000Y-38205000D02*
X90505000Y-38095000D01*
X90505000Y-39475000D02*
X90505000Y-40855000D01*
X90505000Y-40855000D02*
X89125000Y-40855000D01*
%TO.C,R13*%
X79195000Y-48064891D02*
X79195000Y-47757609D01*
X79955000Y-48064891D02*
X79955000Y-47757609D01*
%TO.C,C2*%
X87032483Y-71473097D02*
X86751323Y-71473097D01*
X87032483Y-72493097D02*
X86751323Y-72493097D01*
%TO.C,R12*%
X78264711Y-67181720D02*
X78571993Y-67181720D01*
X78264711Y-67941720D02*
X78571993Y-67941720D01*
%TO.C,J1*%
X92295000Y-73930000D02*
X92295000Y-66200000D01*
X95055000Y-66200000D02*
X92295000Y-66200000D01*
X95055000Y-73930000D02*
X92295000Y-73930000D01*
X95055000Y-73930000D02*
X95055000Y-66200000D01*
X95055000Y-75200000D02*
X95055000Y-76580000D01*
X95055000Y-76580000D02*
X93675000Y-76580000D01*
%TO.C,R3*%
X89919403Y-68487258D02*
X89919403Y-68012742D01*
X90964403Y-68487258D02*
X90964403Y-68012742D01*
%TO.C,D2*%
X69415000Y-66350000D02*
X69415000Y-69650000D01*
X69415000Y-66350000D02*
X74925000Y-66350000D01*
X69415000Y-69650000D02*
X74925000Y-69650000D01*
%TO.C,C3*%
X77491509Y-60445941D02*
X77491509Y-60230269D01*
X78211509Y-60445941D02*
X78211509Y-60230269D01*
%TO.C,J26*%
X87770000Y-47505000D02*
X87770000Y-47395000D01*
X90530000Y-47395000D02*
X87770000Y-47395000D01*
X90530000Y-47505000D02*
X87770000Y-47505000D01*
X90530000Y-47505000D02*
X90530000Y-47395000D01*
X90530000Y-48775000D02*
X90530000Y-50155000D01*
X90530000Y-50155000D02*
X89150000Y-50155000D01*
%TO.C,C7*%
X75890580Y-40840000D02*
X75609420Y-40840000D01*
X75890580Y-41860000D02*
X75609420Y-41860000D01*
%TO.C,R24*%
X120695000Y-83328641D02*
X120695000Y-83021359D01*
X121455000Y-83328641D02*
X121455000Y-83021359D01*
%TO.C,J5*%
X117220000Y-84445000D02*
X117220000Y-81795000D01*
X119980000Y-81795000D02*
X117220000Y-81795000D01*
X119980000Y-84445000D02*
X117220000Y-84445000D01*
X119980000Y-84445000D02*
X119980000Y-81795000D01*
X119980000Y-85715000D02*
X119980000Y-87095000D01*
X119980000Y-87095000D02*
X118600000Y-87095000D01*
%TO.C,J15*%
X80545000Y-71110000D02*
X80545000Y-65920000D01*
X83305000Y-65920000D02*
X80545000Y-65920000D01*
X83305000Y-71110000D02*
X80545000Y-71110000D01*
X83305000Y-71110000D02*
X83305000Y-65920000D01*
X83305000Y-72380000D02*
X83305000Y-73760000D01*
X83305000Y-73760000D02*
X81925000Y-73760000D01*
%TO.C,C8*%
X77890580Y-50865000D02*
X77609420Y-50865000D01*
X77890580Y-51885000D02*
X77609420Y-51885000D01*
%TO.C,R23*%
X95370000Y-48971359D02*
X95370000Y-49278641D01*
X96130000Y-48971359D02*
X96130000Y-49278641D01*
%TO.C,R17*%
X89952500Y-65312258D02*
X89952500Y-64837742D01*
X90997500Y-65312258D02*
X90997500Y-64837742D01*
%TO.C,R4*%
X86645000Y-59163641D02*
X86645000Y-58856359D01*
X87405000Y-59163641D02*
X87405000Y-58856359D01*
%TO.C,J21*%
X125970000Y-42500000D02*
X127350000Y-42500000D01*
X125970000Y-43880000D02*
X125970000Y-42500000D01*
X125970000Y-45150000D02*
X125970000Y-55420000D01*
X125970000Y-45150000D02*
X128730000Y-45150000D01*
X125970000Y-55420000D02*
X128730000Y-55420000D01*
X128730000Y-45150000D02*
X128730000Y-55420000D01*
D13*
%TO.C,U2*%
X83509200Y-58453400D02*
G75*
G02*
X83222000Y-58453400I-143600J0D01*
G01*
X83222000Y-58453400D02*
G75*
G02*
X83509200Y-58453400I143600J0D01*
G01*
D11*
%TO.C,J17*%
X122180000Y-79210000D02*
X123560000Y-79210000D01*
X122180000Y-80590000D02*
X122180000Y-79210000D01*
X122180000Y-81860000D02*
X122180000Y-87050000D01*
X122180000Y-81860000D02*
X124940000Y-81860000D01*
X122180000Y-87050000D02*
X124940000Y-87050000D01*
X124940000Y-81860000D02*
X124940000Y-87050000D01*
%TO.C,J19*%
X125970000Y-56325000D02*
X127350000Y-56325000D01*
X125970000Y-57705000D02*
X125970000Y-56325000D01*
X125970000Y-58975000D02*
X125970000Y-66705000D01*
X125970000Y-58975000D02*
X128730000Y-58975000D01*
X125970000Y-66705000D02*
X128730000Y-66705000D01*
X128730000Y-58975000D02*
X128730000Y-66705000D01*
%TO.C,R11*%
X75695000Y-56396359D02*
X75695000Y-56703641D01*
X76455000Y-56396359D02*
X76455000Y-56703641D01*
%TO.C,J6*%
X68125000Y-70550000D02*
X68125000Y-71850000D01*
X68425000Y-70850000D02*
X70425000Y-70850000D01*
X68425000Y-85350000D02*
X68425000Y-70850000D01*
X69825000Y-70550000D02*
X68125000Y-70550000D01*
X75625000Y-70850000D02*
X77625000Y-70850000D01*
X77625000Y-70850000D02*
X77625000Y-72150000D01*
X77625000Y-76750000D02*
X77625000Y-85350000D01*
X77625000Y-85350000D02*
X68425000Y-85350000D01*
%TO.C,Q1*%
X79315000Y-44101250D02*
X80315000Y-44101250D01*
X79315000Y-45621250D02*
X79315000Y-44101250D01*
X79365000Y-45621250D02*
X79315000Y-45621250D01*
X81265000Y-45621250D02*
X80485000Y-45621250D01*
X81435000Y-44101250D02*
X82435000Y-44101250D01*
X82435000Y-44101250D02*
X82435000Y-45621250D01*
X82435000Y-45621250D02*
X82385000Y-45621250D01*
X80825000Y-46401250D02*
X80495000Y-46161250D01*
X80825000Y-45921250D01*
X80825000Y-46401250D01*
G36*
X80825000Y-46401250D02*
G01*
X80495000Y-46161250D01*
X80825000Y-45921250D01*
X80825000Y-46401250D01*
G37*
%TO.C,D4*%
X76840000Y-68165000D02*
X76840000Y-69635000D01*
X76840000Y-69635000D02*
X79125000Y-69635000D01*
X79125000Y-68165000D02*
X76840000Y-68165000D01*
%TO.C,R27*%
X92120000Y-82428641D02*
X92120000Y-82121359D01*
X92880000Y-82428641D02*
X92880000Y-82121359D01*
%TO.C,J30*%
X96015000Y-78180000D02*
X101795000Y-78180000D01*
X96015000Y-78700000D02*
X101795000Y-78700000D01*
X96015000Y-84000000D02*
X96605000Y-84000000D01*
X96015000Y-84620000D02*
X96015000Y-78180000D01*
X96605000Y-84620000D02*
X96015000Y-84620000D01*
X98665000Y-84000000D02*
X99145000Y-84000000D01*
X99145000Y-84620000D02*
X98665000Y-84620000D01*
X101205000Y-84000000D02*
X101795000Y-84000000D01*
X101795000Y-78180000D02*
X101795000Y-84620000D01*
X101795000Y-84620000D02*
X101205000Y-84620000D01*
X98075000Y-85580000D02*
X97195000Y-85580000D01*
X97635000Y-84970000D01*
X98075000Y-85580000D01*
G36*
X98075000Y-85580000D02*
G01*
X97195000Y-85580000D01*
X97635000Y-84970000D01*
X98075000Y-85580000D01*
G37*
%TO.C,R8*%
X82388859Y-60835000D02*
X82696141Y-60835000D01*
X82388859Y-61595000D02*
X82696141Y-61595000D01*
%TO.C,R5*%
X87628641Y-56820000D02*
X87321359Y-56820000D01*
X87628641Y-57580000D02*
X87321359Y-57580000D01*
%TO.C,C1*%
X84131903Y-68492517D02*
X84131903Y-68773677D01*
X85151903Y-68492517D02*
X85151903Y-68773677D01*
%TO.C,J28*%
X93020000Y-33295000D02*
X94400000Y-33295000D01*
X93020000Y-34675000D02*
X93020000Y-33295000D01*
X93020000Y-35945000D02*
X93020000Y-36055000D01*
X93020000Y-35945000D02*
X95780000Y-35945000D01*
X93020000Y-36055000D02*
X95780000Y-36055000D01*
X95780000Y-35945000D02*
X95780000Y-36055000D01*
%TO.C,R7*%
X86645000Y-54046359D02*
X86645000Y-54353641D01*
X87405000Y-54046359D02*
X87405000Y-54353641D01*
D14*
%TO.C,U3*%
X96595000Y-26060000D02*
X107664000Y-26060000D01*
X96595000Y-26060000D02*
X125105000Y-26060000D01*
X96595000Y-77010000D02*
X96595000Y-26060000D01*
X96595000Y-77010000D02*
X96595000Y-26060000D01*
X96595000Y-77010000D02*
X101965000Y-77010000D01*
X101965000Y-77010000D02*
X119655000Y-77010000D01*
X107664000Y-26060000D02*
X114375000Y-26060000D01*
X114375000Y-26060000D02*
X125105000Y-26060000D01*
X119655000Y-77010000D02*
X125105000Y-77010000D01*
X125105000Y-26060000D02*
X125105000Y-77010000D01*
X125105000Y-26060000D02*
X125105000Y-77010000D01*
X125105000Y-77010000D02*
X96595000Y-77010000D01*
D15*
X96125000Y-36020000D02*
G75*
G02*
X95925000Y-36020000I-100000J0D01*
G01*
X95925000Y-36020000D02*
G75*
G02*
X96125000Y-36020000I100000J0D01*
G01*
D11*
%TO.C,R9*%
X75695000Y-58446359D02*
X75695000Y-58753641D01*
X76455000Y-58446359D02*
X76455000Y-58753641D01*
%TO.C,D5*%
X75475000Y-40460000D02*
X75475000Y-34950000D01*
X75475000Y-40460000D02*
X78775000Y-40460000D01*
X78775000Y-40460000D02*
X78775000Y-34950000D01*
%TO.C,R22*%
X128820000Y-37246359D02*
X128820000Y-37553641D01*
X129580000Y-37246359D02*
X129580000Y-37553641D01*
%TO.C,Q2*%
X79265000Y-34890000D02*
X80265000Y-34890000D01*
X79265000Y-36410000D02*
X79265000Y-34890000D01*
X79315000Y-36410000D02*
X79265000Y-36410000D01*
X81215000Y-36410000D02*
X80435000Y-36410000D01*
X81385000Y-34890000D02*
X82385000Y-34890000D01*
X82385000Y-34890000D02*
X82385000Y-36410000D01*
X82385000Y-36410000D02*
X82335000Y-36410000D01*
X80775000Y-37190000D02*
X80445000Y-36950000D01*
X80775000Y-36710000D01*
X80775000Y-37190000D01*
G36*
X80775000Y-37190000D02*
G01*
X80445000Y-36950000D01*
X80775000Y-36710000D01*
X80775000Y-37190000D01*
G37*
%TO.C,R6*%
X87628641Y-55643166D02*
X87321359Y-55643166D01*
X87628641Y-56403166D02*
X87321359Y-56403166D01*
%TO.C,R1*%
X88661903Y-72336738D02*
X88661903Y-72029456D01*
X89421903Y-72336738D02*
X89421903Y-72029456D01*
%TO.C,J22*%
X64470000Y-65300000D02*
X65850000Y-65300000D01*
X64470000Y-66680000D02*
X64470000Y-65300000D01*
X64470000Y-67950000D02*
X64470000Y-75680000D01*
X64470000Y-67950000D02*
X67230000Y-67950000D01*
X64470000Y-75680000D02*
X67230000Y-75680000D01*
X67230000Y-67950000D02*
X67230000Y-75680000D01*
%TO.C,J25*%
X92270000Y-77470000D02*
X93650000Y-77470000D01*
X92270000Y-78850000D02*
X92270000Y-77470000D01*
X92270000Y-80120000D02*
X92270000Y-80230000D01*
X92270000Y-80120000D02*
X95030000Y-80120000D01*
X92270000Y-80230000D02*
X95030000Y-80230000D01*
X95030000Y-80120000D02*
X95030000Y-80230000D01*
%TO.C,J13*%
X83970000Y-38205000D02*
X83970000Y-33015000D01*
X86730000Y-33015000D02*
X83970000Y-33015000D01*
X86730000Y-38205000D02*
X83970000Y-38205000D01*
X86730000Y-38205000D02*
X86730000Y-33015000D01*
X86730000Y-39475000D02*
X86730000Y-40855000D01*
X86730000Y-40855000D02*
X85350000Y-40855000D01*
%TO.C,R14*%
X80345000Y-48064891D02*
X80345000Y-47757609D01*
X81105000Y-48064891D02*
X81105000Y-47757609D01*
%TO.C,D3*%
X87185000Y-74750000D02*
X81675000Y-74750000D01*
X87185000Y-78050000D02*
X81675000Y-78050000D01*
X87185000Y-78050000D02*
X87185000Y-74750000D01*
%TO.C,J10*%
X68255000Y-34040000D02*
X74695000Y-34040000D01*
X68255000Y-34630000D02*
X68255000Y-34040000D01*
X68255000Y-37170000D02*
X68255000Y-36690000D01*
X68255000Y-39820000D02*
X68255000Y-39230000D01*
X68875000Y-34040000D02*
X68875000Y-34630000D01*
X68875000Y-36690000D02*
X68875000Y-37170000D01*
X68875000Y-39230000D02*
X68875000Y-39820000D01*
X74175000Y-34040000D02*
X74175000Y-39820000D01*
X74695000Y-34040000D02*
X74695000Y-39820000D01*
X74695000Y-39820000D02*
X68255000Y-39820000D01*
X67905000Y-35660000D02*
X67295000Y-36100000D01*
X67295000Y-35220000D01*
X67905000Y-35660000D01*
G36*
X67905000Y-35660000D02*
G01*
X67295000Y-36100000D01*
X67295000Y-35220000D01*
X67905000Y-35660000D01*
G37*
%TO.C,D10*%
X125540000Y-36865000D02*
X125540000Y-38335000D01*
X125540000Y-38335000D02*
X127825000Y-38335000D01*
X127825000Y-36865000D02*
X125540000Y-36865000D01*
%TO.C,J12*%
X83882500Y-42336250D02*
X85262500Y-42336250D01*
X83882500Y-43716250D02*
X83882500Y-42336250D01*
X83882500Y-44986250D02*
X83882500Y-50176250D01*
X83882500Y-44986250D02*
X86642500Y-44986250D01*
X83882500Y-50176250D02*
X86642500Y-50176250D01*
X86642500Y-44986250D02*
X86642500Y-50176250D01*
%TO.C,J23*%
X125945000Y-38955000D02*
X125945000Y-38845000D01*
X128705000Y-38845000D02*
X125945000Y-38845000D01*
X128705000Y-38955000D02*
X125945000Y-38955000D01*
X128705000Y-38955000D02*
X128705000Y-38845000D01*
X128705000Y-40225000D02*
X128705000Y-41605000D01*
X128705000Y-41605000D02*
X127325000Y-41605000D01*
%TO.C,J29*%
X115880000Y-78020000D02*
X115880000Y-80780000D01*
X118530000Y-78020000D02*
X115880000Y-78020000D01*
X118530000Y-78020000D02*
X118530000Y-80780000D01*
X118530000Y-80780000D02*
X115880000Y-80780000D01*
X119800000Y-78020000D02*
X121180000Y-78020000D01*
X121180000Y-78020000D02*
X121180000Y-79400000D01*
%TO.C,J2*%
X89045000Y-51200000D02*
X90425000Y-51200000D01*
X89045000Y-52580000D02*
X89045000Y-51200000D01*
X89045000Y-53850000D02*
X89045000Y-61580000D01*
X89045000Y-53850000D02*
X91805000Y-53850000D01*
X89045000Y-61580000D02*
X91805000Y-61580000D01*
X91805000Y-53850000D02*
X91805000Y-61580000D01*
%TO.C,J14*%
X88342097Y-77417097D02*
X89722097Y-77417097D01*
X88342097Y-78797097D02*
X88342097Y-77417097D01*
X88342097Y-80067097D02*
X88342097Y-85257097D01*
X88342097Y-80067097D02*
X91102097Y-80067097D01*
X88342097Y-85257097D02*
X91102097Y-85257097D01*
X91102097Y-80067097D02*
X91102097Y-85257097D01*
%TO.C,R10*%
X75695000Y-54346359D02*
X75695000Y-54653641D01*
X76455000Y-54346359D02*
X76455000Y-54653641D01*
%TO.C,R16*%
X80404375Y-38885150D02*
X80404375Y-38577868D01*
X81164375Y-38885150D02*
X81164375Y-38577868D01*
%TO.C,J4*%
X64930000Y-50610000D02*
X71370000Y-50610000D01*
X64930000Y-51930000D02*
X64930000Y-50610000D01*
X64930000Y-61470000D02*
X64930000Y-52530000D01*
X65550000Y-50610000D02*
X65550000Y-61470000D01*
X70850000Y-50610000D02*
X70850000Y-61470000D01*
X71370000Y-50610000D02*
X71370000Y-61470000D01*
X71370000Y-61470000D02*
X64930000Y-61470000D01*
X64930000Y-52230000D02*
X64320000Y-52670000D01*
X64320000Y-51790000D01*
X64930000Y-52230000D01*
G36*
X64930000Y-52230000D02*
G01*
X64320000Y-52670000D01*
X64320000Y-51790000D01*
X64930000Y-52230000D01*
G37*
%TO.C,J9*%
X68312500Y-43471250D02*
X74752500Y-43471250D01*
X68312500Y-44061250D02*
X68312500Y-43471250D01*
X68312500Y-46601250D02*
X68312500Y-46121250D01*
X68312500Y-49251250D02*
X68312500Y-48661250D01*
X68932500Y-43471250D02*
X68932500Y-44061250D01*
X68932500Y-46121250D02*
X68932500Y-46601250D01*
X68932500Y-48661250D02*
X68932500Y-49251250D01*
X74232500Y-43471250D02*
X74232500Y-49251250D01*
X74752500Y-43471250D02*
X74752500Y-49251250D01*
X74752500Y-49251250D02*
X68312500Y-49251250D01*
X67962500Y-45091250D02*
X67352500Y-45531250D01*
X67352500Y-44651250D01*
X67962500Y-45091250D01*
G36*
X67962500Y-45091250D02*
G01*
X67352500Y-45531250D01*
X67352500Y-44651250D01*
X67962500Y-45091250D01*
G37*
%TD*%
%LPC*%
D16*
%TO.C,C9*%
X82000000Y-51950000D03*
X80100000Y-51950000D03*
%TD*%
%TO.C,C10*%
X70550000Y-41525000D03*
X72450000Y-41525000D03*
%TD*%
D17*
%TO.C,C5*%
X82400000Y-40425000D03*
X82400000Y-38525000D03*
%TD*%
%TO.C,C6*%
X82325000Y-49600000D03*
X82325000Y-47700000D03*
%TD*%
D18*
%TO.C,J16*%
X127400000Y-71675000D03*
%TD*%
D19*
%TO.C,R25*%
X94500000Y-81715000D03*
X94500000Y-82735000D03*
%TD*%
D18*
%TO.C,J18*%
X71765000Y-31225000D03*
D20*
X69225000Y-31225000D03*
X66685000Y-31225000D03*
%TD*%
D21*
%TO.C,IC1*%
X88983094Y-69721197D03*
D22*
X88783094Y-69071197D03*
X88783094Y-68421197D03*
D21*
X88983094Y-67771197D03*
X88983094Y-66921197D03*
X88983094Y-66071197D03*
X86083094Y-66071197D03*
X86083094Y-66921197D03*
X86083094Y-67771197D03*
D22*
X86283094Y-68421197D03*
X86283094Y-69071197D03*
D21*
X86083094Y-69721197D03*
D23*
X86283094Y-70621197D03*
X86783094Y-70621197D03*
D24*
X87283094Y-70421197D03*
X87783094Y-70421197D03*
D23*
X88283094Y-70621197D03*
X88783094Y-70621197D03*
%TD*%
D25*
%TO.C,Q4*%
X94500000Y-85087500D03*
X92600000Y-85087500D03*
X93550000Y-86962500D03*
%TD*%
D26*
%TO.C,R2*%
X90331903Y-70350000D03*
X91351903Y-70350000D03*
%TD*%
D27*
%TO.C,D6*%
X77182500Y-48271250D03*
X77182500Y-44271250D03*
%TD*%
D28*
%TO.C,D1*%
X81755000Y-59915000D03*
X83330000Y-59915000D03*
%TD*%
D29*
%TO.C,R15*%
X79634375Y-39241509D03*
X79634375Y-38221509D03*
%TD*%
D18*
%TO.C,J3*%
X73675000Y-60140000D03*
D20*
X73675000Y-57600000D03*
X73675000Y-55060000D03*
X73675000Y-52520000D03*
%TD*%
D30*
%TO.C,C4*%
X79026596Y-60825000D03*
X79026596Y-59865000D03*
%TD*%
D18*
%TO.C,J20*%
X94250000Y-56205000D03*
D20*
X94250000Y-58745000D03*
X94250000Y-61285000D03*
X94250000Y-63825000D03*
%TD*%
D18*
%TO.C,J8*%
X94400000Y-43700000D03*
%TD*%
D31*
%TO.C,REF\u002A\u002A*%
X62825000Y-26400000D03*
%TD*%
D32*
%TO.C,J7*%
X82385000Y-84590000D03*
X84925000Y-84590000D03*
D33*
X82385000Y-82050000D03*
D31*
X84925000Y-82050000D03*
%TD*%
D18*
%TO.C,J11*%
X70460000Y-64100000D03*
D20*
X73000000Y-64100000D03*
%TD*%
D18*
%TO.C,J27*%
X89125000Y-39475000D03*
%TD*%
D29*
%TO.C,R13*%
X79575000Y-48421250D03*
X79575000Y-47401250D03*
%TD*%
D34*
%TO.C,C2*%
X87666903Y-71983097D03*
X86116903Y-71983097D03*
%TD*%
D26*
%TO.C,R12*%
X77908352Y-67561720D03*
X78928352Y-67561720D03*
%TD*%
D18*
%TO.C,J1*%
X93675000Y-75200000D03*
D20*
X93675000Y-72660000D03*
X93675000Y-70120000D03*
X93675000Y-67580000D03*
%TD*%
D35*
%TO.C,R3*%
X90441903Y-69075000D03*
X90441903Y-67425000D03*
%TD*%
D36*
%TO.C,D2*%
X70925000Y-68000000D03*
X74925000Y-68000000D03*
%TD*%
D30*
%TO.C,C3*%
X77851509Y-60818105D03*
X77851509Y-59858105D03*
%TD*%
D18*
%TO.C,J26*%
X89150000Y-48775000D03*
%TD*%
D34*
%TO.C,C7*%
X76525000Y-41350000D03*
X74975000Y-41350000D03*
%TD*%
D29*
%TO.C,R24*%
X121075000Y-83685000D03*
X121075000Y-82665000D03*
%TD*%
D18*
%TO.C,J5*%
X118600000Y-85715000D03*
D20*
X118600000Y-83175000D03*
%TD*%
D18*
%TO.C,J15*%
X81925000Y-72380000D03*
D20*
X81925000Y-69840000D03*
X81925000Y-67300000D03*
%TD*%
D34*
%TO.C,C8*%
X78525000Y-51375000D03*
X76975000Y-51375000D03*
%TD*%
D19*
%TO.C,R23*%
X95750000Y-48615000D03*
X95750000Y-49635000D03*
%TD*%
D35*
%TO.C,R17*%
X90475000Y-65900000D03*
X90475000Y-64250000D03*
%TD*%
D29*
%TO.C,R4*%
X87025000Y-59520000D03*
X87025000Y-58500000D03*
%TD*%
D18*
%TO.C,J21*%
X127350000Y-43880000D03*
D20*
X127350000Y-46420000D03*
X127350000Y-48960000D03*
X127350000Y-51500000D03*
X127350000Y-54040000D03*
%TD*%
D37*
%TO.C,U2*%
X84991200Y-58555000D03*
X84991200Y-57285000D03*
X84991200Y-56015000D03*
X84991200Y-54745000D03*
X79758800Y-54745000D03*
X79758800Y-56015000D03*
X79758800Y-57285000D03*
X79758800Y-58555000D03*
%TD*%
D18*
%TO.C,J17*%
X123560000Y-80590000D03*
D20*
X123560000Y-83130000D03*
X123560000Y-85670000D03*
%TD*%
D18*
%TO.C,J19*%
X127350000Y-57705000D03*
D20*
X127350000Y-60245000D03*
X127350000Y-62785000D03*
X127350000Y-65325000D03*
%TD*%
D19*
%TO.C,R11*%
X76075000Y-56040000D03*
X76075000Y-57060000D03*
%TD*%
D38*
%TO.C,J6*%
X73025000Y-71550000D03*
D39*
X73025000Y-77850000D03*
D40*
X77825000Y-74450000D03*
%TD*%
D41*
%TO.C,Q1*%
X79925000Y-45798750D03*
X81825000Y-45798750D03*
X80875000Y-43923750D03*
%TD*%
D28*
%TO.C,D4*%
X77537500Y-68900000D03*
X79112500Y-68900000D03*
%TD*%
D29*
%TO.C,R27*%
X92500000Y-82785000D03*
X92500000Y-81765000D03*
%TD*%
D32*
%TO.C,J30*%
X97635000Y-83940000D03*
X100175000Y-83940000D03*
D33*
X97635000Y-81400000D03*
D31*
X100175000Y-81400000D03*
%TD*%
D26*
%TO.C,R8*%
X82032500Y-61215000D03*
X83052500Y-61215000D03*
%TD*%
D42*
%TO.C,R5*%
X87985000Y-57200000D03*
X86965000Y-57200000D03*
%TD*%
D31*
%TO.C,REF\u002A\u002A*%
X127825000Y-26400000D03*
%TD*%
%TO.C,REF\u002A\u002A*%
X127850000Y-86900000D03*
%TD*%
D43*
%TO.C,C1*%
X84641903Y-67858097D03*
X84641903Y-69408097D03*
%TD*%
D18*
%TO.C,J28*%
X94400000Y-34675000D03*
%TD*%
D19*
%TO.C,R7*%
X87025000Y-53690000D03*
X87025000Y-54710000D03*
%TD*%
D44*
%TO.C,U3*%
X98595000Y-28060000D03*
X98595000Y-75010000D03*
X123105000Y-28060000D03*
X123105000Y-75010000D03*
D45*
X98175000Y-36020000D03*
D46*
X98175000Y-38560000D03*
X98175000Y-41100000D03*
X98175000Y-43640000D03*
X98175000Y-46180000D03*
X98175000Y-48720000D03*
X98175000Y-51260000D03*
X98175000Y-53800000D03*
X98175000Y-56340000D03*
X98175000Y-58880000D03*
X98175000Y-61420000D03*
X98175000Y-63960000D03*
X98175000Y-66500000D03*
X98175000Y-69040000D03*
X98175000Y-71580000D03*
X123575000Y-71580000D03*
X123575000Y-69040000D03*
X123575000Y-66500000D03*
X123575000Y-63960000D03*
X123575000Y-61420000D03*
X123575000Y-58880000D03*
X123575000Y-56340000D03*
X123575000Y-53800000D03*
X123575000Y-51260000D03*
X123575000Y-48720000D03*
X123575000Y-46180000D03*
X123575000Y-43640000D03*
X123575000Y-41100000D03*
X123575000Y-38560000D03*
X123575000Y-36020000D03*
%TD*%
D19*
%TO.C,R9*%
X76075000Y-58090000D03*
X76075000Y-59110000D03*
%TD*%
D27*
%TO.C,D5*%
X77125000Y-38950000D03*
X77125000Y-34950000D03*
%TD*%
D19*
%TO.C,R22*%
X129200000Y-36890000D03*
X129200000Y-37910000D03*
%TD*%
D41*
%TO.C,Q2*%
X79875000Y-36587500D03*
X81775000Y-36587500D03*
X80825000Y-34712500D03*
%TD*%
D42*
%TO.C,R6*%
X87985000Y-56023166D03*
X86965000Y-56023166D03*
%TD*%
D29*
%TO.C,R1*%
X89041903Y-72693097D03*
X89041903Y-71673097D03*
%TD*%
D18*
%TO.C,J22*%
X65850000Y-66680000D03*
D20*
X65850000Y-69220000D03*
X65850000Y-71760000D03*
X65850000Y-74300000D03*
%TD*%
D18*
%TO.C,J25*%
X93650000Y-78850000D03*
%TD*%
%TO.C,J13*%
X85350000Y-39475000D03*
D20*
X85350000Y-36935000D03*
X85350000Y-34395000D03*
%TD*%
D29*
%TO.C,R14*%
X80725000Y-48421250D03*
X80725000Y-47401250D03*
%TD*%
D47*
%TO.C,D3*%
X85675000Y-76400000D03*
X81675000Y-76400000D03*
%TD*%
D32*
%TO.C,J10*%
X68935000Y-35660000D03*
X68935000Y-38200000D03*
D48*
X71475000Y-35660000D03*
D31*
X71475000Y-38200000D03*
%TD*%
D28*
%TO.C,D10*%
X126237500Y-37600000D03*
X127812500Y-37600000D03*
%TD*%
D18*
%TO.C,J12*%
X85262500Y-43716250D03*
D20*
X85262500Y-46256250D03*
X85262500Y-48796250D03*
%TD*%
D18*
%TO.C,J23*%
X127325000Y-40225000D03*
%TD*%
%TO.C,J29*%
X119800000Y-79400000D03*
D20*
X117260000Y-79400000D03*
%TD*%
D18*
%TO.C,J2*%
X90425000Y-52580000D03*
D20*
X90425000Y-55120000D03*
X90425000Y-57660000D03*
X90425000Y-60200000D03*
%TD*%
D31*
%TO.C,REF\u002A\u002A*%
X62875000Y-86900000D03*
%TD*%
D18*
%TO.C,J14*%
X89722097Y-78797097D03*
D20*
X89722097Y-81337097D03*
X89722097Y-83877097D03*
%TD*%
D19*
%TO.C,R10*%
X76075000Y-53990000D03*
X76075000Y-55010000D03*
%TD*%
D29*
%TO.C,R16*%
X80784375Y-39241509D03*
X80784375Y-38221509D03*
%TD*%
D48*
%TO.C,J4*%
X68150000Y-52230000D03*
D31*
X68150000Y-54770000D03*
X68150000Y-57310000D03*
X68150000Y-59850000D03*
%TD*%
D32*
%TO.C,J9*%
X68992500Y-45091250D03*
X68992500Y-47631250D03*
D48*
X71532500Y-45091250D03*
D31*
X71532500Y-47631250D03*
%TD*%
%LPD*%
M02*
