%TF.GenerationSoftware,KiCad,Pcbnew,9.0.7-9.0.7~ubuntu24.04.1*%
%TF.CreationDate,2026-03-04T15:53:27-05:00*%
%TF.ProjectId,plantPartner_PCB2.0,706c616e-7450-4617-9274-6e65725f5043,2*%
%TF.SameCoordinates,Original*%
%TF.FileFunction,Copper,L2,Bot*%
%TF.FilePolarity,Positive*%
%FSLAX46Y46*%
G04 Gerber Fmt 4.6, Leading zero omitted, Abs format (unit mm)*
G04 Created by KiCad (PCBNEW 9.0.7-9.0.7~ubuntu24.04.1) date 2026-03-04 15:53:27*
%MOMM*%
%LPD*%
G01*
G04 APERTURE LIST*
G04 Aperture macros list*
%AMRoundRect*
0 Rectangle with rounded corners*
0 $1 Rounding radius*
0 $2 $3 $4 $5 $6 $7 $8 $9 X,Y pos of 4 corners*
0 Add a 4 corners polygon primitive as box body*
4,1,4,$2,$3,$4,$5,$6,$7,$8,$9,$2,$3,0*
0 Add four circle primitives for the rounded corners*
1,1,$1+$1,$2,$3*
1,1,$1+$1,$4,$5*
1,1,$1+$1,$6,$7*
1,1,$1+$1,$8,$9*
0 Add four rect primitives between the rounded corners*
20,1,$1+$1,$2,$3,$4,$5,0*
20,1,$1+$1,$4,$5,$6,$7,0*
20,1,$1+$1,$6,$7,$8,$9,0*
20,1,$1+$1,$8,$9,$2,$3,0*%
G04 Aperture macros list end*
%TA.AperFunction,ComponentPad*%
%ADD10R,1.700000X1.700000*%
%TD*%
%TA.AperFunction,ComponentPad*%
%ADD11C,1.700000*%
%TD*%
%TA.AperFunction,ComponentPad*%
%ADD12RoundRect,0.249999X-0.850001X-0.850001X0.850001X-0.850001X0.850001X0.850001X-0.850001X0.850001X0*%
%TD*%
%TA.AperFunction,ComponentPad*%
%ADD13C,2.200000*%
%TD*%
%TA.AperFunction,ComponentPad*%
%ADD14R,4.600000X2.000000*%
%TD*%
%TA.AperFunction,ComponentPad*%
%ADD15O,4.200000X2.000000*%
%TD*%
%TA.AperFunction,ComponentPad*%
%ADD16O,2.000000X4.200000*%
%TD*%
%TA.AperFunction,ComponentPad*%
%ADD17R,2.000000X2.000000*%
%TD*%
%TA.AperFunction,ComponentPad*%
%ADD18C,2.000000*%
%TD*%
%TA.AperFunction,ComponentPad*%
%ADD19RoundRect,0.249999X-0.850001X0.850001X-0.850001X-0.850001X0.850001X-0.850001X0.850001X0.850001X0*%
%TD*%
%TA.AperFunction,ViaPad*%
%ADD20C,0.600000*%
%TD*%
%TA.AperFunction,ViaPad*%
%ADD21C,1.000000*%
%TD*%
%TA.AperFunction,Conductor*%
%ADD22C,0.200000*%
%TD*%
%TA.AperFunction,Conductor*%
%ADD23C,1.000000*%
%TD*%
%TA.AperFunction,Conductor*%
%ADD24C,0.500000*%
%TD*%
G04 APERTURE END LIST*
D10*
%TO.P,J16,1,Pin_1*%
%TO.N,/ESP_EN*%
X127400000Y-71675000D03*
%TD*%
%TO.P,J18,1,Pin_1*%
%TO.N,GND*%
X71765000Y-31225000D03*
D11*
%TO.P,J18,2,Pin_2*%
%TO.N,+5V*%
X69225000Y-31225000D03*
%TO.P,J18,3,Pin_3*%
X66685000Y-31225000D03*
%TD*%
D10*
%TO.P,J3,1,Pin_1*%
%TO.N,+5V*%
X73675000Y-60140000D03*
D11*
%TO.P,J3,2,Pin_2*%
%TO.N,/B*%
X73675000Y-57600000D03*
%TO.P,J3,3,Pin_3*%
%TO.N,/A*%
X73675000Y-55060000D03*
%TO.P,J3,4,Pin_4*%
%TO.N,GND*%
X73675000Y-52520000D03*
%TD*%
D10*
%TO.P,J20,1,Pin_1*%
%TO.N,/SCK{slash}VSPI_CLK*%
X94250000Y-56205000D03*
D11*
%TO.P,J20,2,Pin_2*%
%TO.N,/MISO{slash}VSPI_MISO*%
X94250000Y-58745000D03*
%TO.P,J20,3,Pin_3*%
%TO.N,/SDA*%
X94250000Y-61285000D03*
%TO.P,J20,4,Pin_4*%
%TO.N,/SCL*%
X94250000Y-63825000D03*
%TD*%
D10*
%TO.P,J8,1,Pin_1*%
%TO.N,/INTERNAL LED*%
X94400000Y-43700000D03*
%TD*%
D12*
%TO.P,J7,1,Pin_1*%
%TO.N,/12V_SCREW*%
X82385000Y-82050000D03*
D13*
%TO.P,J7,2,Pin_2*%
%TO.N,GND*%
X84925000Y-82050000D03*
%TD*%
D10*
%TO.P,J11,1,Pin_1*%
%TO.N,GND*%
X70460000Y-64100000D03*
D11*
%TO.P,J11,2,Pin_2*%
%TO.N,+12V*%
X73000000Y-64100000D03*
%TD*%
D10*
%TO.P,J27,1,Pin_1*%
%TO.N,/PWM_FERTIL_PIN*%
X89125000Y-39475000D03*
%TD*%
%TO.P,J1,1,Pin_1*%
%TO.N,+12V*%
X93675000Y-75200000D03*
D11*
%TO.P,J1,2,Pin_2*%
%TO.N,/EN*%
X93675000Y-72660000D03*
%TO.P,J1,3,Pin_3*%
%TO.N,+5V*%
X93675000Y-70120000D03*
%TO.P,J1,4,Pin_4*%
%TO.N,GND*%
X93675000Y-67580000D03*
%TD*%
D10*
%TO.P,J26,1,Pin_1*%
%TO.N,/PWM_WATER_PIN*%
X89150000Y-48775000D03*
%TD*%
%TO.P,J5,1,Pin_1*%
%TO.N,+5V*%
X118600000Y-85715000D03*
D11*
%TO.P,J5,2,Pin_2*%
%TO.N,/ADC_LIGHT_SENSOR*%
X118600000Y-83175000D03*
%TD*%
D10*
%TO.P,J15,1,Pin_1*%
%TO.N,/FB*%
X81925000Y-72380000D03*
D11*
%TO.P,J15,2,Pin_2*%
%TO.N,+12V*%
X81925000Y-69840000D03*
%TO.P,J15,3,Pin_3*%
%TO.N,+5V*%
X81925000Y-67300000D03*
%TD*%
D10*
%TO.P,J21,1,Pin_1*%
%TO.N,/ADC2_5{slash}Touch5*%
X127350000Y-43880000D03*
D11*
%TO.P,J21,2,Pin_2*%
%TO.N,/ADC2_6{slash}Touch6*%
X127350000Y-46420000D03*
%TO.P,J21,3,Pin_3*%
%TO.N,/ADC2_7{slash}Touch7*%
X127350000Y-48960000D03*
%TO.P,J21,4,Pin_4*%
%TO.N,/ADC2_9{slash}DAC2*%
X127350000Y-51500000D03*
%TO.P,J21,5,Pin_5*%
%TO.N,/ADC2_8{slash}DAC1*%
X127350000Y-54040000D03*
%TD*%
D10*
%TO.P,J17,1,Pin_1*%
%TO.N,/ADC_MOISTURE_SENSOR*%
X123560000Y-80590000D03*
D11*
%TO.P,J17,2,Pin_2*%
%TO.N,GND*%
X123560000Y-83130000D03*
%TO.P,J17,3,Pin_3*%
%TO.N,+5V*%
X123560000Y-85670000D03*
%TD*%
D10*
%TO.P,J19,1,Pin_1*%
%TO.N,/ADC1_5{slash}Touch8*%
X127350000Y-57705000D03*
D11*
%TO.P,J19,2,Pin_2*%
%TO.N,/ADC1_4{slash}Touch9*%
X127350000Y-60245000D03*
%TO.P,J19,3,Pin_3*%
%TO.N,/ADC1_7*%
X127350000Y-62785000D03*
%TO.P,J19,4,Pin_4*%
%TO.N,/ADC1_6*%
X127350000Y-65325000D03*
%TD*%
D14*
%TO.P,J6,1*%
%TO.N,/12V_JACK*%
X73025000Y-71550000D03*
D15*
%TO.P,J6,2*%
%TO.N,GND*%
X73025000Y-77850000D03*
D16*
%TO.P,J6,3*%
%TO.N,N/C*%
X77825000Y-74450000D03*
%TD*%
D12*
%TO.P,J30,1,Pin_1*%
%TO.N,/L_Drain*%
X97635000Y-81400000D03*
D13*
%TO.P,J30,2,Pin_2*%
%TO.N,+5V*%
X100175000Y-81400000D03*
%TD*%
D10*
%TO.P,J28,1,Pin_1*%
%TO.N,/ESP_3.3V*%
X94400000Y-34675000D03*
%TD*%
D17*
%TO.P,U3,1,3V3*%
%TO.N,/ESP_3.3V*%
X98175000Y-36020000D03*
D18*
%TO.P,U3,2,GND*%
%TO.N,GND*%
X98175000Y-38560000D03*
%TO.P,U3,3,D15*%
%TO.N,/PWM_FERTIL_PIN*%
X98175000Y-41100000D03*
%TO.P,U3,4,D2*%
%TO.N,/INTERNAL LED*%
X98175000Y-43640000D03*
%TO.P,U3,5,D4*%
%TO.N,/PWM_WATER_PIN*%
X98175000Y-46180000D03*
%TO.P,U3,6,RX2*%
%TO.N,Net-(U3-RX2)*%
X98175000Y-48720000D03*
%TO.P,U3,7,TX2*%
%TO.N,/DI*%
X98175000Y-51260000D03*
%TO.P,U3,8,D5*%
%TO.N,/DE*%
X98175000Y-53800000D03*
%TO.P,U3,9,D18*%
%TO.N,/SCK{slash}VSPI_CLK*%
X98175000Y-56340000D03*
%TO.P,U3,10,D19*%
%TO.N,/MISO{slash}VSPI_MISO*%
X98175000Y-58880000D03*
%TO.P,U3,11,D21*%
%TO.N,/SDA*%
X98175000Y-61420000D03*
%TO.P,U3,12,RX0*%
%TO.N,/RX0*%
X98175000Y-63960000D03*
%TO.P,U3,13,TX0*%
%TO.N,/TX0*%
X98175000Y-66500000D03*
%TO.P,U3,14,D22*%
%TO.N,/SCL*%
X98175000Y-69040000D03*
%TO.P,U3,15,D23*%
%TO.N,/LAMP_PIN*%
X98175000Y-71580000D03*
%TO.P,U3,16,EN*%
%TO.N,/ESP_EN*%
X123575000Y-71580000D03*
%TO.P,U3,17,VP*%
%TO.N,/ADC_MOISTURE_SENSOR*%
X123575000Y-69040000D03*
%TO.P,U3,18,VN*%
%TO.N,/ADC_LIGHT_SENSOR*%
X123575000Y-66500000D03*
%TO.P,U3,19,D34*%
%TO.N,/ADC1_6*%
X123575000Y-63960000D03*
%TO.P,U3,20,D35*%
%TO.N,/ADC1_7*%
X123575000Y-61420000D03*
%TO.P,U3,21,D32*%
%TO.N,/ADC1_4{slash}Touch9*%
X123575000Y-58880000D03*
%TO.P,U3,22,D33*%
%TO.N,/ADC1_5{slash}Touch8*%
X123575000Y-56340000D03*
%TO.P,U3,23,D25*%
%TO.N,/ADC2_8{slash}DAC1*%
X123575000Y-53800000D03*
%TO.P,U3,24,D26*%
%TO.N,/ADC2_9{slash}DAC2*%
X123575000Y-51260000D03*
%TO.P,U3,25,D27*%
%TO.N,/ADC2_7{slash}Touch7*%
X123575000Y-48720000D03*
%TO.P,U3,26,D14*%
%TO.N,/ADC2_6{slash}Touch6*%
X123575000Y-46180000D03*
%TO.P,U3,27,D12*%
%TO.N,/ADC2_5{slash}Touch5*%
X123575000Y-43640000D03*
%TO.P,U3,28,D13*%
%TO.N,/EXTERNAL LED*%
X123575000Y-41100000D03*
%TO.P,U3,29,GND*%
%TO.N,GND*%
X123575000Y-38560000D03*
%TO.P,U3,30,VIN*%
%TO.N,+5V*%
X123575000Y-36020000D03*
%TD*%
D10*
%TO.P,J22,1,Pin_1*%
%TO.N,+5V*%
X65850000Y-66680000D03*
D11*
%TO.P,J22,2,Pin_2*%
X65850000Y-69220000D03*
%TO.P,J22,3,Pin_3*%
%TO.N,+12V*%
X65850000Y-71760000D03*
%TO.P,J22,4,Pin_4*%
%TO.N,GND*%
X65850000Y-74300000D03*
%TD*%
D10*
%TO.P,J25,1,Pin_1*%
%TO.N,/LAMP_PIN*%
X93650000Y-78850000D03*
%TD*%
%TO.P,J13,1,Pin_1*%
%TO.N,/F_Gate*%
X85350000Y-39475000D03*
D11*
%TO.P,J13,2,Pin_2*%
%TO.N,GND*%
X85350000Y-36935000D03*
%TO.P,J13,3,Pin_3*%
%TO.N,/F_Drain*%
X85350000Y-34395000D03*
%TD*%
D19*
%TO.P,J10,1,Pin_1*%
%TO.N,/F_Drain*%
X71475000Y-35660000D03*
D13*
%TO.P,J10,2,Pin_2*%
%TO.N,+5V*%
X71475000Y-38200000D03*
%TD*%
D10*
%TO.P,J12,1,Pin_1*%
%TO.N,/W_Drain*%
X85262500Y-43716250D03*
D11*
%TO.P,J12,2,Pin_2*%
%TO.N,GND*%
X85262500Y-46256250D03*
%TO.P,J12,3,Pin_3*%
%TO.N,/W_Gate*%
X85262500Y-48796250D03*
%TD*%
D10*
%TO.P,J23,1,Pin_1*%
%TO.N,/EXTERNAL LED*%
X127325000Y-40225000D03*
%TD*%
%TO.P,J29,1,Pin_1*%
%TO.N,/ADC_MOISTURE_SENSOR*%
X119800000Y-79400000D03*
D11*
%TO.P,J29,2,Pin_2*%
%TO.N,/ADC_LIGHT_SENSOR*%
X117260000Y-79400000D03*
%TD*%
D10*
%TO.P,J2,1,Pin_1*%
%TO.N,/DI*%
X90425000Y-52580000D03*
D11*
%TO.P,J2,2,Pin_2*%
%TO.N,/DE*%
X90425000Y-55120000D03*
%TO.P,J2,3,Pin_3*%
X90425000Y-57660000D03*
%TO.P,J2,4,Pin_4*%
%TO.N,/RO*%
X90425000Y-60200000D03*
%TD*%
D10*
%TO.P,J14,1,Pin_1*%
%TO.N,GND*%
X89722097Y-78797097D03*
D11*
%TO.P,J14,2,Pin_2*%
%TO.N,/L_Gate*%
X89722097Y-81337097D03*
%TO.P,J14,3,Pin_3*%
%TO.N,/L_Drain*%
X89722097Y-83877097D03*
%TD*%
D19*
%TO.P,J4,1,Pin_1*%
%TO.N,GND*%
X68150000Y-52230000D03*
D13*
%TO.P,J4,2,Pin_2*%
%TO.N,/A*%
X68150000Y-54770000D03*
%TO.P,J4,3,Pin_3*%
%TO.N,/B*%
X68150000Y-57310000D03*
%TO.P,J4,4,Pin_4*%
%TO.N,+12V*%
X68150000Y-59850000D03*
%TD*%
D19*
%TO.P,J9,1,Pin_1*%
%TO.N,/W_Drain*%
X71532500Y-45091250D03*
D13*
%TO.P,J9,2,Pin_2*%
%TO.N,+5V*%
X71532500Y-47631250D03*
%TD*%
D20*
%TO.N,GND*%
X83350000Y-51575000D03*
X79488880Y-53734000D03*
X80438880Y-60734000D03*
X73450000Y-41400000D03*
X76075000Y-59900000D03*
X84825000Y-70950000D03*
X84525000Y-66150000D03*
%TO.N,+5V*%
X77292500Y-58415000D03*
X78525000Y-50250000D03*
X89475000Y-70650000D03*
X78075000Y-41100000D03*
X80875000Y-40625000D03*
D21*
X77075000Y-65100000D03*
D20*
X80800000Y-49775000D03*
X87141903Y-67033097D03*
X77292500Y-54515000D03*
D21*
%TO.N,+12V*%
X71175000Y-62025000D03*
D20*
%TO.N,/FB*%
X91075000Y-71200000D03*
%TO.N,/RO*%
X95750000Y-50625000D03*
%TD*%
D22*
%TO.N,GND*%
X98175000Y-38560000D02*
X97175000Y-37560000D01*
X85975000Y-37560000D02*
X85350000Y-36935000D01*
X97175000Y-37560000D02*
X85975000Y-37560000D01*
X85262500Y-46256250D02*
X87550000Y-43968750D01*
X87550000Y-43968750D02*
X87550000Y-39135000D01*
X87550000Y-39135000D02*
X85350000Y-36935000D01*
X84887500Y-46181250D02*
X86600000Y-47893750D01*
X84500000Y-51825000D02*
X84075000Y-51825000D01*
X86600000Y-47893750D02*
X86600000Y-49725000D01*
X86600000Y-49725000D02*
X84500000Y-51825000D01*
X83350000Y-51575000D02*
X83825000Y-51575000D01*
X83825000Y-51575000D02*
X84075000Y-51825000D01*
D23*
X63375000Y-65275000D02*
X63375000Y-55905001D01*
X64200000Y-29950000D02*
X65500000Y-28650000D01*
X63375000Y-55905001D02*
X64200000Y-55080001D01*
X68150000Y-52230000D02*
X73385000Y-52230000D01*
X125500000Y-86600000D02*
X124425000Y-87675000D01*
X69190000Y-28650000D02*
X71765000Y-31225000D01*
X73025000Y-81000000D02*
X78325000Y-86300000D01*
X125500000Y-83525000D02*
X125500000Y-86600000D01*
X64550000Y-64100000D02*
X63375000Y-65275000D01*
X63375000Y-72825000D02*
X64850000Y-74300000D01*
X70460000Y-64100000D02*
X64550000Y-64100000D01*
X63375000Y-65275000D02*
X64200000Y-64450000D01*
X69400000Y-77850000D02*
X65850000Y-74300000D01*
X85725000Y-86300000D02*
X86534000Y-85491000D01*
X90550000Y-87675000D02*
X84925000Y-82050000D01*
D22*
X76075000Y-54920000D02*
X73675000Y-52520000D01*
D23*
X64200000Y-55080001D02*
X67050001Y-52230000D01*
X63375000Y-65275000D02*
X63375000Y-72825000D01*
X86575000Y-83700000D02*
X84925000Y-82050000D01*
D22*
X76075000Y-59900000D02*
X76075000Y-54920000D01*
D23*
X64850000Y-74300000D02*
X65850000Y-74300000D01*
X125105000Y-83130000D02*
X125500000Y-83525000D01*
D22*
X87325000Y-35750000D02*
X87325000Y-33900000D01*
X80975000Y-62600000D02*
X71960000Y-62600000D01*
X84525000Y-70650000D02*
X84825000Y-70950000D01*
D23*
X73025000Y-77850000D02*
X73025000Y-81000000D01*
X64200000Y-29950000D02*
X64200000Y-41500000D01*
D22*
X80438880Y-60734000D02*
X80438880Y-62063880D01*
D23*
X67050001Y-52230000D02*
X68150000Y-52230000D01*
D22*
X84075000Y-51825000D02*
X82166000Y-53734000D01*
X86534000Y-85491000D02*
X86575000Y-85450000D01*
D23*
X86469194Y-82050000D02*
X89722097Y-78797097D01*
X124425000Y-87675000D02*
X90550000Y-87675000D01*
X84925000Y-82050000D02*
X86469194Y-82050000D01*
X65500000Y-28650000D02*
X69190000Y-28650000D01*
D22*
X79002880Y-52520000D02*
X73675000Y-52520000D01*
X64300000Y-41400000D02*
X64200000Y-41500000D01*
D23*
X123560000Y-83130000D02*
X125105000Y-83130000D01*
D22*
X73450000Y-41400000D02*
X64300000Y-41400000D01*
X84650000Y-31225000D02*
X71765000Y-31225000D01*
D23*
X86575000Y-85450000D02*
X86575000Y-83700000D01*
D22*
X80438880Y-62063880D02*
X80975000Y-62600000D01*
D23*
X78325000Y-86300000D02*
X85725000Y-86300000D01*
D22*
X86165000Y-36910000D02*
X87325000Y-35750000D01*
D23*
X98175000Y-38560000D02*
X123575000Y-38560000D01*
D22*
X80975000Y-62600000D02*
X84525000Y-66150000D01*
X87325000Y-33900000D02*
X84650000Y-31225000D01*
D23*
X64200000Y-41500000D02*
X64200000Y-55080001D01*
D22*
X84525000Y-66150000D02*
X84525000Y-70650000D01*
X79002880Y-53248000D02*
X79488880Y-53734000D01*
D23*
X73385000Y-52230000D02*
X73675000Y-52520000D01*
D22*
X82166000Y-53734000D02*
X79488880Y-53734000D01*
X84875000Y-36910000D02*
X86165000Y-36910000D01*
X79002880Y-52520000D02*
X79002880Y-53248000D01*
D23*
X73025000Y-77850000D02*
X69400000Y-77850000D01*
D22*
X71960000Y-62600000D02*
X70460000Y-64100000D01*
D23*
%TO.N,+5V*%
X65850000Y-69220000D02*
X65850000Y-66680000D01*
X66925000Y-65675000D02*
X65920000Y-66680000D01*
D22*
X95925000Y-72370000D02*
X93675000Y-70120000D01*
X77075000Y-65100000D02*
X77011120Y-65036120D01*
X80400000Y-41100000D02*
X78075000Y-41100000D01*
D23*
X77075000Y-65100000D02*
X76500000Y-65675000D01*
D22*
X65920000Y-66680000D02*
X65850000Y-66680000D01*
X87591903Y-68816904D02*
X87591903Y-67483097D01*
X76992500Y-58715000D02*
X76992500Y-60132500D01*
X77292500Y-58415000D02*
X76992500Y-58715000D01*
X87591903Y-67483097D02*
X87141903Y-67033097D01*
X80875000Y-40625000D02*
X80400000Y-41100000D01*
X80325000Y-50250000D02*
X78525000Y-50250000D01*
D23*
X76500000Y-65675000D02*
X66925000Y-65675000D01*
D22*
X76310000Y-60815000D02*
X74350000Y-60815000D01*
X74350000Y-60815000D02*
X73675000Y-60140000D01*
X80800000Y-49775000D02*
X80325000Y-50250000D01*
X95925000Y-77150000D02*
X95925000Y-72370000D01*
X89475000Y-70700000D02*
X87591903Y-68816904D01*
X76992500Y-60132500D02*
X76310000Y-60815000D01*
X100175000Y-81400000D02*
X95925000Y-77150000D01*
X77292500Y-54515000D02*
X77292500Y-58415000D01*
X89475000Y-70700000D02*
X89475000Y-70650000D01*
D24*
%TO.N,+12V*%
X68150000Y-59850000D02*
X70325000Y-62025000D01*
X70325000Y-62025000D02*
X71175000Y-62025000D01*
X81925000Y-69840000D02*
X67770000Y-69840000D01*
D22*
X67770000Y-69840000D02*
X65850000Y-71760000D01*
%TO.N,/FB*%
X91075000Y-71200000D02*
X91075000Y-72200000D01*
X89575000Y-73700000D02*
X84275000Y-73700000D01*
X84275000Y-73700000D02*
X82955000Y-72380000D01*
X91075000Y-72200000D02*
X89575000Y-73700000D01*
X82955000Y-72380000D02*
X81925000Y-72380000D01*
%TO.N,/DE*%
X90425000Y-57660000D02*
X90425000Y-55120000D01*
%TO.N,/RO*%
X92413880Y-58211120D02*
X90425000Y-60200000D01*
X92413880Y-53961120D02*
X92413880Y-58211120D01*
X95750000Y-50625000D02*
X92413880Y-53961120D01*
%TO.N,/ADC_LIGHT_SENSOR*%
X120350000Y-69725000D02*
X123575000Y-66500000D01*
X120350000Y-76625000D02*
X120350000Y-69725000D01*
X117575000Y-79400000D02*
X120350000Y-76625000D01*
X117260000Y-79400000D02*
X117575000Y-79400000D01*
%TO.N,/ADC_MOISTURE_SENSOR*%
X121125000Y-78075000D02*
X121125000Y-71490000D01*
X119800000Y-79400000D02*
X121125000Y-78075000D01*
X121125000Y-71490000D02*
X123575000Y-69040000D01*
%TD*%
%TA.AperFunction,Conductor*%
%TO.N,GND*%
G36*
X129717539Y-24420185D02*
G01*
X129763294Y-24472989D01*
X129774500Y-24524500D01*
X129774500Y-88825500D01*
X129754815Y-88892539D01*
X129702011Y-88938294D01*
X129650500Y-88949500D01*
X60949500Y-88949500D01*
X60882461Y-88929815D01*
X60836706Y-88877011D01*
X60825500Y-88825500D01*
X60825500Y-86793713D01*
X61524500Y-86793713D01*
X61524500Y-87006287D01*
X61524898Y-87008797D01*
X61557753Y-87216239D01*
X61623444Y-87418414D01*
X61719951Y-87607820D01*
X61844890Y-87779786D01*
X61995213Y-87930109D01*
X62167179Y-88055048D01*
X62167181Y-88055049D01*
X62167184Y-88055051D01*
X62356588Y-88151557D01*
X62558757Y-88217246D01*
X62768713Y-88250500D01*
X62768714Y-88250500D01*
X62981286Y-88250500D01*
X62981287Y-88250500D01*
X63191243Y-88217246D01*
X63393412Y-88151557D01*
X63582816Y-88055051D01*
X63604789Y-88039086D01*
X63754786Y-87930109D01*
X63754788Y-87930106D01*
X63754792Y-87930104D01*
X63905104Y-87779792D01*
X63905106Y-87779788D01*
X63905109Y-87779786D01*
X64030048Y-87607820D01*
X64030047Y-87607820D01*
X64030051Y-87607816D01*
X64126557Y-87418412D01*
X64192246Y-87216243D01*
X64225500Y-87006287D01*
X64225500Y-86793713D01*
X64192246Y-86583757D01*
X64126557Y-86381588D01*
X64030051Y-86192184D01*
X64030049Y-86192181D01*
X64030048Y-86192179D01*
X63905109Y-86020213D01*
X63754786Y-85869890D01*
X63582820Y-85744951D01*
X63393414Y-85648444D01*
X63393413Y-85648443D01*
X63393412Y-85648443D01*
X63191243Y-85582754D01*
X63191241Y-85582753D01*
X63191240Y-85582753D01*
X63029957Y-85557208D01*
X62981287Y-85549500D01*
X62768713Y-85549500D01*
X62720042Y-85557208D01*
X62558760Y-85582753D01*
X62356585Y-85648444D01*
X62167179Y-85744951D01*
X61995213Y-85869890D01*
X61844890Y-86020213D01*
X61719951Y-86192179D01*
X61623444Y-86381585D01*
X61557753Y-86583760D01*
X61524500Y-86793713D01*
X60825500Y-86793713D01*
X60825500Y-81149982D01*
X80784500Y-81149982D01*
X80784500Y-82950017D01*
X80795000Y-83052796D01*
X80850185Y-83219332D01*
X80850187Y-83219337D01*
X80857138Y-83230606D01*
X80942288Y-83368656D01*
X81066344Y-83492712D01*
X81215665Y-83584814D01*
X81382202Y-83639999D01*
X81484990Y-83650500D01*
X81484995Y-83650500D01*
X81941425Y-83650500D01*
X82008464Y-83670185D01*
X82054219Y-83722989D01*
X82064163Y-83792147D01*
X82035138Y-83855703D01*
X82010316Y-83877602D01*
X81874711Y-83968210D01*
X81874707Y-83968213D01*
X81763213Y-84079707D01*
X81763210Y-84079711D01*
X81675609Y-84210814D01*
X81675602Y-84210827D01*
X81615264Y-84356498D01*
X81615261Y-84356510D01*
X81584500Y-84511153D01*
X81584500Y-84668846D01*
X81615261Y-84823489D01*
X81615264Y-84823501D01*
X81675602Y-84969172D01*
X81675609Y-84969185D01*
X81763210Y-85100288D01*
X81763213Y-85100292D01*
X81874707Y-85211786D01*
X81874711Y-85211789D01*
X82005814Y-85299390D01*
X82005827Y-85299397D01*
X82137066Y-85353757D01*
X82151503Y-85359737D01*
X82306153Y-85390499D01*
X82306156Y-85390500D01*
X82306158Y-85390500D01*
X82463844Y-85390500D01*
X82463845Y-85390499D01*
X82618497Y-85359737D01*
X82764179Y-85299394D01*
X82895289Y-85211789D01*
X83006789Y-85100289D01*
X83094394Y-84969179D01*
X83097294Y-84962179D01*
X83154735Y-84823501D01*
X83154737Y-84823497D01*
X83185500Y-84668842D01*
X83185500Y-84511158D01*
X83185500Y-84511155D01*
X83185499Y-84511153D01*
X83177545Y-84471164D01*
X83154737Y-84356503D01*
X83139410Y-84319500D01*
X83094397Y-84210827D01*
X83094390Y-84210814D01*
X83006789Y-84079711D01*
X83006786Y-84079707D01*
X82895292Y-83968213D01*
X82895288Y-83968210D01*
X82759684Y-83877602D01*
X82714879Y-83823990D01*
X82706172Y-83754665D01*
X82736326Y-83691637D01*
X82795770Y-83654918D01*
X82828575Y-83650500D01*
X83285005Y-83650500D01*
X83285010Y-83650500D01*
X83387798Y-83639999D01*
X83554335Y-83584814D01*
X83703656Y-83492712D01*
X83827712Y-83368656D01*
X83827712Y-83368655D01*
X83832819Y-83363549D01*
X83835328Y-83366058D01*
X83878722Y-83334452D01*
X83948473Y-83330380D01*
X83993416Y-83350873D01*
X84086416Y-83418442D01*
X84310815Y-83532780D01*
X84550331Y-83610603D01*
X84584350Y-83615991D01*
X84647485Y-83645920D01*
X84684417Y-83705231D01*
X84683419Y-83775094D01*
X84644810Y-83833326D01*
X84612406Y-83853025D01*
X84545824Y-83880604D01*
X84545814Y-83880609D01*
X84414711Y-83968210D01*
X84414707Y-83968213D01*
X84303213Y-84079707D01*
X84303210Y-84079711D01*
X84215609Y-84210814D01*
X84215602Y-84210827D01*
X84155264Y-84356498D01*
X84155261Y-84356510D01*
X84124500Y-84511153D01*
X84124500Y-84668846D01*
X84155261Y-84823489D01*
X84155264Y-84823501D01*
X84215602Y-84969172D01*
X84215609Y-84969185D01*
X84303210Y-85100288D01*
X84303213Y-85100292D01*
X84414707Y-85211786D01*
X84414711Y-85211789D01*
X84545814Y-85299390D01*
X84545827Y-85299397D01*
X84677066Y-85353757D01*
X84691503Y-85359737D01*
X84846153Y-85390499D01*
X84846156Y-85390500D01*
X84846158Y-85390500D01*
X85003844Y-85390500D01*
X85003845Y-85390499D01*
X85158497Y-85359737D01*
X85304179Y-85299394D01*
X85435289Y-85211789D01*
X85546789Y-85100289D01*
X85634394Y-84969179D01*
X85637294Y-84962179D01*
X85694735Y-84823501D01*
X85694737Y-84823497D01*
X85725500Y-84668842D01*
X85725500Y-84511158D01*
X85725500Y-84511155D01*
X85725499Y-84511153D01*
X85717545Y-84471164D01*
X85694737Y-84356503D01*
X85679410Y-84319500D01*
X85634397Y-84210827D01*
X85634390Y-84210814D01*
X85546789Y-84079711D01*
X85546786Y-84079707D01*
X85435292Y-83968213D01*
X85435288Y-83968210D01*
X85304185Y-83880609D01*
X85304176Y-83880604D01*
X85237593Y-83853025D01*
X85183190Y-83809184D01*
X85161125Y-83742890D01*
X85178404Y-83675191D01*
X85229541Y-83627580D01*
X85265649Y-83615990D01*
X85299674Y-83610601D01*
X85539184Y-83532780D01*
X85763575Y-83418446D01*
X85763581Y-83418442D01*
X85865697Y-83344250D01*
X85865698Y-83344250D01*
X85095234Y-82573787D01*
X85137292Y-82562518D01*
X85262708Y-82490110D01*
X85365110Y-82387708D01*
X85437518Y-82262292D01*
X85448787Y-82220235D01*
X86219250Y-82990698D01*
X86219250Y-82990697D01*
X86293442Y-82888581D01*
X86293446Y-82888575D01*
X86407780Y-82664184D01*
X86485602Y-82424669D01*
X86525000Y-82175928D01*
X86525000Y-81924071D01*
X86485602Y-81675330D01*
X86407780Y-81435815D01*
X86329526Y-81282233D01*
X86329525Y-81282231D01*
X86303325Y-81230810D01*
X88371597Y-81230810D01*
X88371597Y-81443384D01*
X88404851Y-81653340D01*
X88447806Y-81785542D01*
X88470541Y-81855511D01*
X88567048Y-82044917D01*
X88691987Y-82216883D01*
X88842310Y-82367206D01*
X89014279Y-82492147D01*
X89023043Y-82496613D01*
X89073839Y-82544588D01*
X89090633Y-82612409D01*
X89068095Y-82678544D01*
X89023043Y-82717581D01*
X89014279Y-82722046D01*
X88842310Y-82846987D01*
X88691987Y-82997310D01*
X88567048Y-83169276D01*
X88470541Y-83358682D01*
X88404850Y-83560857D01*
X88371597Y-83770810D01*
X88371597Y-83983383D01*
X88401708Y-84173501D01*
X88404851Y-84193340D01*
X88457868Y-84356510D01*
X88470541Y-84395511D01*
X88567048Y-84584917D01*
X88691987Y-84756883D01*
X88842310Y-84907206D01*
X89014276Y-85032145D01*
X89014278Y-85032146D01*
X89014281Y-85032148D01*
X89203685Y-85128654D01*
X89405854Y-85194343D01*
X89615810Y-85227597D01*
X89615811Y-85227597D01*
X89828383Y-85227597D01*
X89828384Y-85227597D01*
X90038340Y-85194343D01*
X90240509Y-85128654D01*
X90429913Y-85032148D01*
X90526218Y-84962179D01*
X90601883Y-84907206D01*
X90601885Y-84907203D01*
X90601889Y-84907201D01*
X90752201Y-84756889D01*
X90752203Y-84756885D01*
X90752206Y-84756883D01*
X90877145Y-84584917D01*
X90877144Y-84584917D01*
X90877148Y-84584913D01*
X90973654Y-84395509D01*
X91039343Y-84193340D01*
X91072597Y-83983384D01*
X91072597Y-83770810D01*
X91039343Y-83560854D01*
X90973654Y-83358685D01*
X90877148Y-83169281D01*
X90877146Y-83169278D01*
X90877145Y-83169276D01*
X90752206Y-82997310D01*
X90601883Y-82846987D01*
X90429917Y-82722048D01*
X90429212Y-82721688D01*
X90421151Y-82717582D01*
X90370356Y-82669609D01*
X90353560Y-82601789D01*
X90376096Y-82535653D01*
X90421151Y-82496612D01*
X90429913Y-82492148D01*
X90464280Y-82467179D01*
X90601883Y-82367206D01*
X90601885Y-82367203D01*
X90601889Y-82367201D01*
X90752201Y-82216889D01*
X90752203Y-82216885D01*
X90752206Y-82216883D01*
X90877145Y-82044917D01*
X90877144Y-82044917D01*
X90877148Y-82044913D01*
X90973654Y-81855509D01*
X91039343Y-81653340D01*
X91072597Y-81443384D01*
X91072597Y-81230810D01*
X91039343Y-81020854D01*
X90973654Y-80818685D01*
X90877148Y-80629281D01*
X90877146Y-80629278D01*
X90877145Y-80629276D01*
X90752206Y-80457310D01*
X90638278Y-80343382D01*
X90604793Y-80282059D01*
X90609777Y-80212367D01*
X90651649Y-80156434D01*
X90682626Y-80139519D01*
X90814183Y-80090451D01*
X90814190Y-80090447D01*
X90929284Y-80004287D01*
X90929287Y-80004284D01*
X91015447Y-79889190D01*
X91015451Y-79889183D01*
X91065693Y-79754476D01*
X91065695Y-79754469D01*
X91072096Y-79694941D01*
X91072097Y-79694924D01*
X91072097Y-79047097D01*
X90155109Y-79047097D01*
X90188022Y-78990090D01*
X90222097Y-78862923D01*
X90222097Y-78731271D01*
X90188022Y-78604104D01*
X90155109Y-78547097D01*
X91072097Y-78547097D01*
X91072097Y-77952135D01*
X92299500Y-77952135D01*
X92299500Y-79747870D01*
X92299501Y-79747876D01*
X92305908Y-79807483D01*
X92356202Y-79942328D01*
X92356206Y-79942335D01*
X92442452Y-80057544D01*
X92442455Y-80057547D01*
X92557664Y-80143793D01*
X92557671Y-80143797D01*
X92692517Y-80194091D01*
X92692516Y-80194091D01*
X92699444Y-80194835D01*
X92752127Y-80200500D01*
X94547872Y-80200499D01*
X94607483Y-80194091D01*
X94742331Y-80143796D01*
X94857546Y-80057546D01*
X94943796Y-79942331D01*
X94994091Y-79807483D01*
X95000500Y-79747873D01*
X95000499Y-77952128D01*
X94994091Y-77892517D01*
X94982926Y-77862583D01*
X94943797Y-77757671D01*
X94943793Y-77757664D01*
X94857547Y-77642455D01*
X94857544Y-77642452D01*
X94742335Y-77556206D01*
X94742328Y-77556202D01*
X94607482Y-77505908D01*
X94607483Y-77505908D01*
X94547883Y-77499501D01*
X94547881Y-77499500D01*
X94547873Y-77499500D01*
X94547864Y-77499500D01*
X92752129Y-77499500D01*
X92752123Y-77499501D01*
X92692516Y-77505908D01*
X92557671Y-77556202D01*
X92557664Y-77556206D01*
X92442455Y-77642452D01*
X92442452Y-77642455D01*
X92356206Y-77757664D01*
X92356202Y-77757671D01*
X92305908Y-77892517D01*
X92299501Y-77952116D01*
X92299501Y-77952123D01*
X92299500Y-77952135D01*
X91072097Y-77952135D01*
X91072097Y-77899269D01*
X91072096Y-77899252D01*
X91065695Y-77839724D01*
X91065693Y-77839717D01*
X91015451Y-77705010D01*
X91015447Y-77705003D01*
X90929287Y-77589909D01*
X90929284Y-77589906D01*
X90814190Y-77503746D01*
X90814183Y-77503742D01*
X90679476Y-77453500D01*
X90679469Y-77453498D01*
X90619941Y-77447097D01*
X89972097Y-77447097D01*
X89972097Y-78364085D01*
X89915090Y-78331172D01*
X89787923Y-78297097D01*
X89656271Y-78297097D01*
X89529104Y-78331172D01*
X89472097Y-78364085D01*
X89472097Y-77447097D01*
X88824252Y-77447097D01*
X88764724Y-77453498D01*
X88764717Y-77453500D01*
X88630010Y-77503742D01*
X88630003Y-77503746D01*
X88514909Y-77589906D01*
X88514906Y-77589909D01*
X88428746Y-77705003D01*
X88428742Y-77705010D01*
X88378500Y-77839717D01*
X88378498Y-77839724D01*
X88372097Y-77899252D01*
X88372097Y-78547097D01*
X89289085Y-78547097D01*
X89256172Y-78604104D01*
X89222097Y-78731271D01*
X89222097Y-78862923D01*
X89256172Y-78990090D01*
X89289085Y-79047097D01*
X88372097Y-79047097D01*
X88372097Y-79694941D01*
X88378498Y-79754469D01*
X88378500Y-79754476D01*
X88428742Y-79889183D01*
X88428746Y-79889190D01*
X88514906Y-80004284D01*
X88514909Y-80004287D01*
X88630003Y-80090447D01*
X88630010Y-80090451D01*
X88761567Y-80139519D01*
X88817501Y-80181390D01*
X88841918Y-80246855D01*
X88827066Y-80315128D01*
X88805916Y-80343382D01*
X88691986Y-80457312D01*
X88567048Y-80629276D01*
X88470541Y-80818682D01*
X88404850Y-81020857D01*
X88390842Y-81109300D01*
X88371597Y-81230810D01*
X86303325Y-81230810D01*
X86293444Y-81211418D01*
X86219250Y-81109301D01*
X86219250Y-81109300D01*
X85448787Y-81879764D01*
X85437518Y-81837708D01*
X85365110Y-81712292D01*
X85262708Y-81609890D01*
X85137292Y-81537482D01*
X85095233Y-81526212D01*
X85865698Y-80755748D01*
X85763583Y-80681557D01*
X85539184Y-80567219D01*
X85299669Y-80489397D01*
X85050928Y-80450000D01*
X84799072Y-80450000D01*
X84550330Y-80489397D01*
X84310815Y-80567219D01*
X84086413Y-80681559D01*
X83993415Y-80749126D01*
X83927609Y-80772606D01*
X83859555Y-80756780D01*
X83834204Y-80735065D01*
X83832819Y-80736451D01*
X83703657Y-80607289D01*
X83703656Y-80607288D01*
X83554335Y-80515186D01*
X83387798Y-80460001D01*
X83387796Y-80460000D01*
X83285017Y-80449500D01*
X83285010Y-80449500D01*
X81484990Y-80449500D01*
X81484982Y-80449500D01*
X81382203Y-80460000D01*
X81382202Y-80460001D01*
X81299669Y-80487349D01*
X81215667Y-80515185D01*
X81215662Y-80515187D01*
X81066342Y-80607289D01*
X80942289Y-80731342D01*
X80850187Y-80880662D01*
X80850186Y-80880665D01*
X80795001Y-81047202D01*
X80795001Y-81047203D01*
X80795000Y-81047203D01*
X80784500Y-81149982D01*
X60825500Y-81149982D01*
X60825500Y-77600000D01*
X70445898Y-77600000D01*
X71491988Y-77600000D01*
X71459075Y-77657007D01*
X71425000Y-77784174D01*
X71425000Y-77915826D01*
X71459075Y-78042993D01*
X71491988Y-78100000D01*
X70445898Y-78100000D01*
X70461934Y-78201247D01*
X70534897Y-78425802D01*
X70642085Y-78636171D01*
X70780866Y-78827186D01*
X70947813Y-78994133D01*
X71138828Y-79132914D01*
X71349197Y-79240102D01*
X71573752Y-79313065D01*
X71573751Y-79313065D01*
X71806948Y-79350000D01*
X72775000Y-79350000D01*
X72775000Y-78350000D01*
X73275000Y-78350000D01*
X73275000Y-79350000D01*
X74243052Y-79350000D01*
X74476247Y-79313065D01*
X74700802Y-79240102D01*
X74911171Y-79132914D01*
X75102186Y-78994133D01*
X75269133Y-78827186D01*
X75407914Y-78636171D01*
X75515102Y-78425802D01*
X75588065Y-78201247D01*
X75604102Y-78100000D01*
X74558012Y-78100000D01*
X74590925Y-78042993D01*
X74625000Y-77915826D01*
X74625000Y-77784174D01*
X74590925Y-77657007D01*
X74558012Y-77600000D01*
X75604102Y-77600000D01*
X75588065Y-77498752D01*
X75515102Y-77274197D01*
X75407914Y-77063828D01*
X75269133Y-76872813D01*
X75102186Y-76705866D01*
X74911171Y-76567085D01*
X74700802Y-76459897D01*
X74476247Y-76386934D01*
X74476248Y-76386934D01*
X74243052Y-76350000D01*
X73275000Y-76350000D01*
X73275000Y-77350000D01*
X72775000Y-77350000D01*
X72775000Y-76350000D01*
X71806948Y-76350000D01*
X71573752Y-76386934D01*
X71349197Y-76459897D01*
X71138828Y-76567085D01*
X70947813Y-76705866D01*
X70780866Y-76872813D01*
X70642085Y-77063828D01*
X70534897Y-77274197D01*
X70461934Y-77498752D01*
X70445898Y-77600000D01*
X60825500Y-77600000D01*
X60825500Y-65782135D01*
X64499500Y-65782135D01*
X64499500Y-67577870D01*
X64499501Y-67577876D01*
X64505908Y-67637483D01*
X64556202Y-67772328D01*
X64556206Y-67772335D01*
X64642452Y-67887544D01*
X64642455Y-67887547D01*
X64757665Y-67973794D01*
X64757667Y-67973794D01*
X64757669Y-67973796D01*
X64768830Y-67977958D01*
X64786557Y-67991227D01*
X64806703Y-68000428D01*
X64813983Y-68011756D01*
X64824764Y-68019826D01*
X64832504Y-68040576D01*
X64844477Y-68059206D01*
X64847627Y-68081115D01*
X64849184Y-68085289D01*
X64849500Y-68094141D01*
X64849500Y-68259800D01*
X64829815Y-68326839D01*
X64820506Y-68339365D01*
X64694951Y-68512179D01*
X64598444Y-68701585D01*
X64532753Y-68903760D01*
X64499500Y-69113713D01*
X64499500Y-69326286D01*
X64529795Y-69517564D01*
X64532754Y-69536243D01*
X64596916Y-69733713D01*
X64598444Y-69738414D01*
X64694951Y-69927820D01*
X64819890Y-70099786D01*
X64970213Y-70250109D01*
X65142182Y-70375050D01*
X65150946Y-70379516D01*
X65201742Y-70427491D01*
X65218536Y-70495312D01*
X65195998Y-70561447D01*
X65150946Y-70600484D01*
X65142182Y-70604949D01*
X64970213Y-70729890D01*
X64819890Y-70880213D01*
X64694951Y-71052179D01*
X64598444Y-71241585D01*
X64598443Y-71241587D01*
X64598443Y-71241588D01*
X64587570Y-71275051D01*
X64532753Y-71443760D01*
X64526676Y-71482129D01*
X64499500Y-71653713D01*
X64499500Y-71866287D01*
X64504757Y-71899480D01*
X64531235Y-72066657D01*
X64532754Y-72076243D01*
X64574747Y-72205485D01*
X64598444Y-72278414D01*
X64694951Y-72467820D01*
X64819890Y-72639786D01*
X64970213Y-72790109D01*
X65142179Y-72915048D01*
X65142181Y-72915049D01*
X65142184Y-72915051D01*
X65151493Y-72919794D01*
X65202290Y-72967766D01*
X65219087Y-73035587D01*
X65196552Y-73101722D01*
X65151505Y-73140760D01*
X65142446Y-73145376D01*
X65142440Y-73145380D01*
X65088282Y-73184727D01*
X65088282Y-73184728D01*
X65720591Y-73817037D01*
X65657007Y-73834075D01*
X65542993Y-73899901D01*
X65449901Y-73992993D01*
X65384075Y-74107007D01*
X65367037Y-74170591D01*
X64734728Y-73538282D01*
X64734727Y-73538282D01*
X64695380Y-73592439D01*
X64598904Y-73781782D01*
X64533242Y-73983869D01*
X64533242Y-73983872D01*
X64500000Y-74193753D01*
X64500000Y-74406246D01*
X64533242Y-74616127D01*
X64533242Y-74616130D01*
X64598904Y-74818217D01*
X64695375Y-75007550D01*
X64734728Y-75061716D01*
X65367037Y-74429408D01*
X65384075Y-74492993D01*
X65449901Y-74607007D01*
X65542993Y-74700099D01*
X65657007Y-74765925D01*
X65720590Y-74782962D01*
X65088282Y-75415269D01*
X65088282Y-75415270D01*
X65142449Y-75454624D01*
X65331782Y-75551095D01*
X65533870Y-75616757D01*
X65743754Y-75650000D01*
X65956246Y-75650000D01*
X66166127Y-75616757D01*
X66166130Y-75616757D01*
X66368217Y-75551095D01*
X66557554Y-75454622D01*
X66611716Y-75415270D01*
X66611717Y-75415270D01*
X65979408Y-74782962D01*
X66042993Y-74765925D01*
X66157007Y-74700099D01*
X66250099Y-74607007D01*
X66315925Y-74492993D01*
X66332962Y-74429408D01*
X66965270Y-75061717D01*
X66965270Y-75061716D01*
X67004622Y-75007554D01*
X67101095Y-74818217D01*
X67166757Y-74616130D01*
X67166757Y-74616127D01*
X67200000Y-74406246D01*
X67200000Y-74193753D01*
X67166757Y-73983872D01*
X67166757Y-73983869D01*
X67101095Y-73781782D01*
X67004624Y-73592449D01*
X66965270Y-73538282D01*
X66965269Y-73538282D01*
X66332962Y-74170590D01*
X66315925Y-74107007D01*
X66250099Y-73992993D01*
X66157007Y-73899901D01*
X66042993Y-73834075D01*
X65979409Y-73817037D01*
X66564542Y-73231902D01*
X76324500Y-73231902D01*
X76324500Y-75668097D01*
X76361446Y-75901368D01*
X76434433Y-76125996D01*
X76455158Y-76166670D01*
X76541657Y-76336433D01*
X76680483Y-76527510D01*
X76847490Y-76694517D01*
X77038567Y-76833343D01*
X77137991Y-76884002D01*
X77249003Y-76940566D01*
X77249005Y-76940566D01*
X77249008Y-76940568D01*
X77369412Y-76979689D01*
X77473631Y-77013553D01*
X77706903Y-77050500D01*
X77706908Y-77050500D01*
X77943097Y-77050500D01*
X78176368Y-77013553D01*
X78187303Y-77010000D01*
X78400992Y-76940568D01*
X78611433Y-76833343D01*
X78802510Y-76694517D01*
X78969517Y-76527510D01*
X79108343Y-76336433D01*
X79215568Y-76125992D01*
X79288553Y-75901368D01*
X79306845Y-75785876D01*
X79325500Y-75668097D01*
X79325500Y-73231902D01*
X79288553Y-72998631D01*
X79221523Y-72792335D01*
X79215568Y-72774008D01*
X79215566Y-72774005D01*
X79215566Y-72774003D01*
X79149193Y-72643739D01*
X79108343Y-72563567D01*
X78969517Y-72372490D01*
X78802510Y-72205483D01*
X78611433Y-72066657D01*
X78400996Y-71959433D01*
X78176368Y-71886446D01*
X77943097Y-71849500D01*
X77943092Y-71849500D01*
X77706908Y-71849500D01*
X77706903Y-71849500D01*
X77473631Y-71886446D01*
X77249003Y-71959433D01*
X77038566Y-72066657D01*
X76940075Y-72138216D01*
X76847490Y-72205483D01*
X76847488Y-72205485D01*
X76847487Y-72205485D01*
X76680485Y-72372487D01*
X76680485Y-72372488D01*
X76680483Y-72372490D01*
X76637403Y-72431784D01*
X76541657Y-72563566D01*
X76434433Y-72774003D01*
X76361446Y-72998631D01*
X76324500Y-73231902D01*
X66564542Y-73231902D01*
X66581147Y-73215297D01*
X66502462Y-73100304D01*
X66501042Y-73095939D01*
X66497706Y-73092788D01*
X66490335Y-73063023D01*
X66480850Y-73033861D01*
X66482015Y-73029421D01*
X66480912Y-73024966D01*
X66490804Y-72995938D01*
X66498590Y-72966281D01*
X66501970Y-72963176D01*
X66503451Y-72958832D01*
X66548508Y-72919793D01*
X66557816Y-72915051D01*
X66637007Y-72857515D01*
X66729786Y-72790109D01*
X66729788Y-72790106D01*
X66729792Y-72790104D01*
X66880104Y-72639792D01*
X66880106Y-72639788D01*
X66880109Y-72639786D01*
X67005048Y-72467820D01*
X67005047Y-72467820D01*
X67005051Y-72467816D01*
X67101557Y-72278412D01*
X67167246Y-72076243D01*
X67200500Y-71866287D01*
X67200500Y-71653713D01*
X67167246Y-71443757D01*
X67153506Y-71401473D01*
X67151512Y-71331635D01*
X67183755Y-71275478D01*
X67832416Y-70626819D01*
X67893739Y-70593334D01*
X67920097Y-70590500D01*
X70100500Y-70590500D01*
X70167539Y-70610185D01*
X70213294Y-70662989D01*
X70224500Y-70714500D01*
X70224500Y-72597870D01*
X70224501Y-72597876D01*
X70230908Y-72657483D01*
X70281202Y-72792328D01*
X70281206Y-72792335D01*
X70367452Y-72907544D01*
X70367455Y-72907547D01*
X70482664Y-72993793D01*
X70482671Y-72993797D01*
X70617517Y-73044091D01*
X70617516Y-73044091D01*
X70624444Y-73044835D01*
X70677127Y-73050500D01*
X75372872Y-73050499D01*
X75432483Y-73044091D01*
X75567331Y-72993796D01*
X75682546Y-72907546D01*
X75768796Y-72792331D01*
X75819091Y-72657483D01*
X75825500Y-72597873D01*
X75825499Y-70714499D01*
X75845184Y-70647461D01*
X75897987Y-70601706D01*
X75949499Y-70590500D01*
X80737779Y-70590500D01*
X80804818Y-70610185D01*
X80838097Y-70641615D01*
X80894892Y-70719788D01*
X81008430Y-70833326D01*
X81041915Y-70894649D01*
X81036931Y-70964341D01*
X80995059Y-71020274D01*
X80964083Y-71037189D01*
X80832669Y-71086203D01*
X80832664Y-71086206D01*
X80717455Y-71172452D01*
X80717452Y-71172455D01*
X80631206Y-71287664D01*
X80631202Y-71287671D01*
X80580908Y-71422517D01*
X80574501Y-71482116D01*
X80574501Y-71482123D01*
X80574500Y-71482135D01*
X80574500Y-73277870D01*
X80574501Y-73277876D01*
X80580908Y-73337483D01*
X80631202Y-73472328D01*
X80631206Y-73472335D01*
X80717452Y-73587544D01*
X80717455Y-73587547D01*
X80832664Y-73673793D01*
X80832671Y-73673797D01*
X80967517Y-73724091D01*
X80967516Y-73724091D01*
X80974444Y-73724835D01*
X81027127Y-73730500D01*
X82822872Y-73730499D01*
X82882483Y-73724091D01*
X83017331Y-73673796D01*
X83132546Y-73587546D01*
X83132551Y-73587538D01*
X83135242Y-73584849D01*
X83138595Y-73583017D01*
X83139645Y-73582232D01*
X83139757Y-73582382D01*
X83196563Y-73551360D01*
X83266255Y-73556341D01*
X83310609Y-73584844D01*
X83790139Y-74064374D01*
X83790149Y-74064385D01*
X83794479Y-74068715D01*
X83794480Y-74068716D01*
X83906284Y-74180520D01*
X83993095Y-74230639D01*
X83993097Y-74230641D01*
X84013667Y-74242517D01*
X84043215Y-74259577D01*
X84195943Y-74300501D01*
X84195946Y-74300501D01*
X84361653Y-74300501D01*
X84361669Y-74300500D01*
X89488331Y-74300500D01*
X89488347Y-74300501D01*
X89495943Y-74300501D01*
X89654054Y-74300501D01*
X89654057Y-74300501D01*
X89806785Y-74259577D01*
X89856904Y-74230639D01*
X89943716Y-74180520D01*
X90055520Y-74068716D01*
X90055520Y-74068714D01*
X90065728Y-74058507D01*
X90065730Y-74058504D01*
X91433506Y-72690728D01*
X91433511Y-72690724D01*
X91443714Y-72680520D01*
X91443716Y-72680520D01*
X91555520Y-72568716D01*
X91634577Y-72431784D01*
X91672314Y-72290947D01*
X91672315Y-72290945D01*
X91675500Y-72279059D01*
X91675500Y-71779765D01*
X91695185Y-71712726D01*
X91696398Y-71710874D01*
X91784390Y-71579185D01*
X91784390Y-71579184D01*
X91784394Y-71579179D01*
X91789054Y-71567930D01*
X91816990Y-71500484D01*
X91844737Y-71433497D01*
X91875500Y-71278842D01*
X91875500Y-71121158D01*
X91875500Y-71121155D01*
X91875499Y-71121153D01*
X91844737Y-70966503D01*
X91844735Y-70966498D01*
X91784397Y-70820827D01*
X91784390Y-70820814D01*
X91696789Y-70689711D01*
X91696786Y-70689707D01*
X91585292Y-70578213D01*
X91585288Y-70578210D01*
X91454185Y-70490609D01*
X91454172Y-70490602D01*
X91308501Y-70430264D01*
X91308489Y-70430261D01*
X91153845Y-70399500D01*
X91153842Y-70399500D01*
X90996158Y-70399500D01*
X90996155Y-70399500D01*
X90841510Y-70430261D01*
X90841498Y-70430264D01*
X90695827Y-70490602D01*
X90695814Y-70490609D01*
X90564711Y-70578210D01*
X90564707Y-70578213D01*
X90487181Y-70655740D01*
X90425858Y-70689225D01*
X90356166Y-70684241D01*
X90300233Y-70642369D01*
X90275816Y-70576905D01*
X90275673Y-70572918D01*
X90275500Y-70571163D01*
X90275500Y-70571158D01*
X90244737Y-70416503D01*
X90236419Y-70396421D01*
X90184397Y-70270827D01*
X90184390Y-70270814D01*
X90096789Y-70139711D01*
X90096786Y-70139707D01*
X89985292Y-70028213D01*
X89985288Y-70028210D01*
X89963592Y-70013713D01*
X92324500Y-70013713D01*
X92324500Y-70226287D01*
X92332775Y-70278532D01*
X92357753Y-70436239D01*
X92357753Y-70436241D01*
X92357754Y-70436243D01*
X92423006Y-70637068D01*
X92423444Y-70638414D01*
X92519951Y-70827820D01*
X92644890Y-70999786D01*
X92795213Y-71150109D01*
X92967182Y-71275050D01*
X92975946Y-71279516D01*
X93026742Y-71327491D01*
X93043536Y-71395312D01*
X93020998Y-71461447D01*
X92975946Y-71500484D01*
X92967182Y-71504949D01*
X92795213Y-71629890D01*
X92644890Y-71780213D01*
X92519951Y-71952179D01*
X92423444Y-72141585D01*
X92357753Y-72343760D01*
X92327059Y-72537558D01*
X92324500Y-72553713D01*
X92324500Y-72766287D01*
X92324666Y-72767335D01*
X92356854Y-72970566D01*
X92357754Y-72976243D01*
X92416059Y-73155688D01*
X92423444Y-73178414D01*
X92519951Y-73367820D01*
X92644890Y-73539786D01*
X92758430Y-73653326D01*
X92791915Y-73714649D01*
X92786931Y-73784341D01*
X92745059Y-73840274D01*
X92714083Y-73857189D01*
X92582669Y-73906203D01*
X92582664Y-73906206D01*
X92467455Y-73992452D01*
X92467452Y-73992455D01*
X92381206Y-74107664D01*
X92381202Y-74107671D01*
X92330908Y-74242517D01*
X92324675Y-74300500D01*
X92324501Y-74302123D01*
X92324500Y-74302135D01*
X92324500Y-76097870D01*
X92324501Y-76097876D01*
X92330908Y-76157483D01*
X92381202Y-76292328D01*
X92381206Y-76292335D01*
X92467452Y-76407544D01*
X92467455Y-76407547D01*
X92582664Y-76493793D01*
X92582671Y-76493797D01*
X92717517Y-76544091D01*
X92717516Y-76544091D01*
X92724444Y-76544835D01*
X92777127Y-76550500D01*
X94572872Y-76550499D01*
X94632483Y-76544091D01*
X94767331Y-76493796D01*
X94882546Y-76407546D01*
X94968796Y-76292331D01*
X95019091Y-76157483D01*
X95025500Y-76097873D01*
X95025499Y-74302128D01*
X95019091Y-74242517D01*
X95015979Y-74234174D01*
X94968797Y-74107671D01*
X94968793Y-74107664D01*
X94882547Y-73992455D01*
X94882544Y-73992452D01*
X94767335Y-73906206D01*
X94767328Y-73906202D01*
X94635917Y-73857189D01*
X94579983Y-73815318D01*
X94555566Y-73749853D01*
X94570418Y-73681580D01*
X94591563Y-73653332D01*
X94705104Y-73539792D01*
X94830051Y-73367816D01*
X94926557Y-73178412D01*
X94992246Y-72976243D01*
X95025500Y-72766287D01*
X95025500Y-72619097D01*
X95031738Y-72597851D01*
X95033318Y-72575763D01*
X95041390Y-72564979D01*
X95045185Y-72552058D01*
X95061918Y-72537558D01*
X95075190Y-72519830D01*
X95087810Y-72515122D01*
X95097989Y-72506303D01*
X95119906Y-72503151D01*
X95140654Y-72495413D01*
X95153814Y-72498275D01*
X95167147Y-72496359D01*
X95187290Y-72505558D01*
X95208927Y-72510265D01*
X95226652Y-72523533D01*
X95230703Y-72525384D01*
X95237181Y-72531416D01*
X95288181Y-72582416D01*
X95321666Y-72643739D01*
X95324500Y-72670097D01*
X95324500Y-77063330D01*
X95324499Y-77063348D01*
X95324499Y-77229054D01*
X95324498Y-77229054D01*
X95365423Y-77381785D01*
X95394358Y-77431900D01*
X95394359Y-77431904D01*
X95394360Y-77431904D01*
X95440265Y-77511416D01*
X95444479Y-77518714D01*
X95444481Y-77518717D01*
X95563349Y-77637585D01*
X95563355Y-77637590D01*
X97513583Y-79587819D01*
X97547068Y-79649142D01*
X97542084Y-79718834D01*
X97500212Y-79774767D01*
X97434748Y-79799184D01*
X97425902Y-79799500D01*
X96734982Y-79799500D01*
X96632203Y-79810000D01*
X96632202Y-79810001D01*
X96549669Y-79837349D01*
X96465667Y-79865185D01*
X96465662Y-79865187D01*
X96316342Y-79957289D01*
X96192289Y-80081342D01*
X96100187Y-80230662D01*
X96100186Y-80230665D01*
X96045001Y-80397202D01*
X96045001Y-80397203D01*
X96045000Y-80397203D01*
X96034500Y-80499982D01*
X96034500Y-82300017D01*
X96045000Y-82402796D01*
X96100185Y-82569332D01*
X96100187Y-82569337D01*
X96126754Y-82612409D01*
X96192288Y-82718656D01*
X96316344Y-82842712D01*
X96465665Y-82934814D01*
X96632202Y-82989999D01*
X96734990Y-83000500D01*
X96734995Y-83000500D01*
X97191425Y-83000500D01*
X97258464Y-83020185D01*
X97304219Y-83072989D01*
X97314163Y-83142147D01*
X97285138Y-83205703D01*
X97260316Y-83227602D01*
X97124711Y-83318210D01*
X97124707Y-83318213D01*
X97013213Y-83429707D01*
X97013210Y-83429711D01*
X96925609Y-83560814D01*
X96925602Y-83560827D01*
X96865264Y-83706498D01*
X96865261Y-83706510D01*
X96834500Y-83861153D01*
X96834500Y-84018846D01*
X96865261Y-84173489D01*
X96865264Y-84173501D01*
X96925602Y-84319172D01*
X96925609Y-84319185D01*
X97013210Y-84450288D01*
X97013213Y-84450292D01*
X97124707Y-84561786D01*
X97124711Y-84561789D01*
X97255814Y-84649390D01*
X97255827Y-84649397D01*
X97401498Y-84709735D01*
X97401503Y-84709737D01*
X97556153Y-84740499D01*
X97556156Y-84740500D01*
X97556158Y-84740500D01*
X97713844Y-84740500D01*
X97713845Y-84740499D01*
X97868497Y-84709737D01*
X98014179Y-84649394D01*
X98145289Y-84561789D01*
X98256789Y-84450289D01*
X98344394Y-84319179D01*
X98404737Y-84173497D01*
X98435500Y-84018842D01*
X98435500Y-83861158D01*
X98435500Y-83861155D01*
X98435499Y-83861153D01*
X98421246Y-83789500D01*
X98404737Y-83706503D01*
X98404210Y-83705231D01*
X98344397Y-83560827D01*
X98344390Y-83560814D01*
X98256789Y-83429711D01*
X98256786Y-83429707D01*
X98145292Y-83318213D01*
X98145288Y-83318210D01*
X98009684Y-83227602D01*
X97964879Y-83173990D01*
X97956172Y-83104665D01*
X97986326Y-83041637D01*
X98045770Y-83004918D01*
X98078575Y-83000500D01*
X98535005Y-83000500D01*
X98535010Y-83000500D01*
X98637798Y-82989999D01*
X98804335Y-82934814D01*
X98953656Y-82842712D01*
X99077712Y-82718656D01*
X99077715Y-82718650D01*
X99082495Y-82713871D01*
X99143818Y-82680386D01*
X99213510Y-82685370D01*
X99243058Y-82701231D01*
X99336155Y-82768870D01*
X99424471Y-82813869D01*
X99560616Y-82883239D01*
X99560618Y-82883239D01*
X99560621Y-82883241D01*
X99800215Y-82961090D01*
X99831866Y-82966103D01*
X99833469Y-82966357D01*
X99896603Y-82996286D01*
X99933535Y-83055597D01*
X99932537Y-83125460D01*
X99893927Y-83183693D01*
X99861523Y-83203391D01*
X99795827Y-83230602D01*
X99795814Y-83230609D01*
X99664711Y-83318210D01*
X99664707Y-83318213D01*
X99553213Y-83429707D01*
X99553210Y-83429711D01*
X99465609Y-83560814D01*
X99465602Y-83560827D01*
X99405264Y-83706498D01*
X99405261Y-83706510D01*
X99374500Y-83861153D01*
X99374500Y-84018846D01*
X99405261Y-84173489D01*
X99405264Y-84173501D01*
X99465602Y-84319172D01*
X99465609Y-84319185D01*
X99553210Y-84450288D01*
X99553213Y-84450292D01*
X99664707Y-84561786D01*
X99664711Y-84561789D01*
X99795814Y-84649390D01*
X99795827Y-84649397D01*
X99941498Y-84709735D01*
X99941503Y-84709737D01*
X100096153Y-84740499D01*
X100096156Y-84740500D01*
X100096158Y-84740500D01*
X100253844Y-84740500D01*
X100253845Y-84740499D01*
X100408497Y-84709737D01*
X100554179Y-84649394D01*
X100685289Y-84561789D01*
X100796789Y-84450289D01*
X100884394Y-84319179D01*
X100944737Y-84173497D01*
X100975500Y-84018842D01*
X100975500Y-83861158D01*
X100975500Y-83861155D01*
X100975499Y-83861153D01*
X100961246Y-83789500D01*
X100944737Y-83706503D01*
X100944210Y-83705231D01*
X100884397Y-83560827D01*
X100884390Y-83560814D01*
X100796789Y-83429711D01*
X100796786Y-83429707D01*
X100685292Y-83318213D01*
X100685288Y-83318210D01*
X100554185Y-83230609D01*
X100554173Y-83230602D01*
X100488476Y-83203391D01*
X100464468Y-83184044D01*
X100439190Y-83166404D01*
X100437510Y-83162321D01*
X100434072Y-83159551D01*
X100424334Y-83130295D01*
X100412607Y-83101789D01*
X100413401Y-83097446D01*
X100412007Y-83093257D01*
X100418271Y-83068713D01*
X117249500Y-83068713D01*
X117249500Y-83281286D01*
X117275608Y-83446130D01*
X117282754Y-83491243D01*
X117347866Y-83691637D01*
X117348444Y-83693414D01*
X117444951Y-83882820D01*
X117569890Y-84054786D01*
X117683430Y-84168326D01*
X117716915Y-84229649D01*
X117711931Y-84299341D01*
X117670059Y-84355274D01*
X117639083Y-84372189D01*
X117507669Y-84421203D01*
X117507664Y-84421206D01*
X117392455Y-84507452D01*
X117392452Y-84507455D01*
X117306206Y-84622664D01*
X117306202Y-84622671D01*
X117255908Y-84757517D01*
X117249501Y-84817116D01*
X117249501Y-84817123D01*
X117249500Y-84817135D01*
X117249500Y-86612870D01*
X117249501Y-86612876D01*
X117255908Y-86672483D01*
X117306202Y-86807328D01*
X117306206Y-86807335D01*
X117392452Y-86922544D01*
X117392455Y-86922547D01*
X117507664Y-87008793D01*
X117507671Y-87008797D01*
X117642517Y-87059091D01*
X117642516Y-87059091D01*
X117649444Y-87059835D01*
X117702127Y-87065500D01*
X119497872Y-87065499D01*
X119557483Y-87059091D01*
X119692331Y-87008796D01*
X119807546Y-86922546D01*
X119893796Y-86807331D01*
X119944091Y-86672483D01*
X119950500Y-86612873D01*
X119950499Y-84817128D01*
X119944091Y-84757517D01*
X119926270Y-84709737D01*
X119893797Y-84622671D01*
X119893793Y-84622664D01*
X119807547Y-84507455D01*
X119807544Y-84507452D01*
X119692335Y-84421206D01*
X119692328Y-84421202D01*
X119560917Y-84372189D01*
X119504983Y-84330318D01*
X119480566Y-84264853D01*
X119495418Y-84196580D01*
X119516563Y-84168332D01*
X119630104Y-84054792D01*
X119755051Y-83882816D01*
X119851557Y-83693412D01*
X119917246Y-83491243D01*
X119950500Y-83281287D01*
X119950500Y-83068713D01*
X119917246Y-82858757D01*
X119851557Y-82656588D01*
X119755051Y-82467184D01*
X119755049Y-82467181D01*
X119755048Y-82467179D01*
X119630109Y-82295213D01*
X119479786Y-82144890D01*
X119307820Y-82019951D01*
X119118414Y-81923444D01*
X119118413Y-81923443D01*
X119118412Y-81923443D01*
X118916243Y-81857754D01*
X118916241Y-81857753D01*
X118916240Y-81857753D01*
X118754957Y-81832208D01*
X118706287Y-81824500D01*
X118493713Y-81824500D01*
X118445042Y-81832208D01*
X118283760Y-81857753D01*
X118081585Y-81923444D01*
X117892179Y-82019951D01*
X117720213Y-82144890D01*
X117569890Y-82295213D01*
X117444951Y-82467179D01*
X117348444Y-82656585D01*
X117282753Y-82858760D01*
X117249500Y-83068713D01*
X100418271Y-83068713D01*
X100419629Y-83063390D01*
X100425177Y-83033060D01*
X100428194Y-83029834D01*
X100429286Y-83025557D01*
X100451844Y-83004554D01*
X100472910Y-82982037D01*
X100477992Y-82980210D01*
X100480423Y-82977947D01*
X100505550Y-82968609D01*
X100510988Y-82967234D01*
X100549785Y-82961090D01*
X100789379Y-82883241D01*
X101013845Y-82768870D01*
X101217656Y-82620793D01*
X101395793Y-82442656D01*
X101543870Y-82238845D01*
X101658241Y-82014379D01*
X101736090Y-81774785D01*
X101775500Y-81525962D01*
X101775500Y-81274038D01*
X101736090Y-81025215D01*
X101658241Y-80785621D01*
X101658239Y-80785618D01*
X101658239Y-80785616D01*
X101589931Y-80651555D01*
X101543870Y-80561155D01*
X101499425Y-80499982D01*
X101395798Y-80357350D01*
X101395794Y-80357345D01*
X101217654Y-80179205D01*
X101217649Y-80179201D01*
X101013848Y-80031132D01*
X101013847Y-80031131D01*
X101013845Y-80031130D01*
X100926444Y-79986597D01*
X100789383Y-79916760D01*
X100549785Y-79838910D01*
X100300962Y-79799500D01*
X100049038Y-79799500D01*
X99998642Y-79807482D01*
X99800213Y-79838910D01*
X99800210Y-79838910D01*
X99618075Y-79898090D01*
X99548234Y-79900085D01*
X99492076Y-79867840D01*
X96561819Y-76937583D01*
X96528334Y-76876260D01*
X96525500Y-76849902D01*
X96525500Y-72459060D01*
X96525501Y-72459047D01*
X96525501Y-72290944D01*
X96525501Y-72290943D01*
X96484577Y-72138216D01*
X96443263Y-72066657D01*
X96405524Y-72001290D01*
X96405518Y-72001282D01*
X95731727Y-71327491D01*
X95008756Y-70604521D01*
X94975272Y-70543199D01*
X94978507Y-70478523D01*
X94992246Y-70436243D01*
X95025500Y-70226287D01*
X95025500Y-70013713D01*
X94992246Y-69803757D01*
X94926557Y-69601588D01*
X94830051Y-69412184D01*
X94830049Y-69412181D01*
X94830048Y-69412179D01*
X94705109Y-69240213D01*
X94554786Y-69089890D01*
X94382817Y-68964949D01*
X94373504Y-68960204D01*
X94322707Y-68912230D01*
X94305912Y-68844409D01*
X94328449Y-68778274D01*
X94373507Y-68739232D01*
X94382555Y-68734622D01*
X94436716Y-68695270D01*
X94436717Y-68695270D01*
X93804408Y-68062962D01*
X93867993Y-68045925D01*
X93982007Y-67980099D01*
X94075099Y-67887007D01*
X94140925Y-67772993D01*
X94157962Y-67709408D01*
X94790270Y-68341717D01*
X94790270Y-68341716D01*
X94829622Y-68287554D01*
X94926095Y-68098217D01*
X94991757Y-67896130D01*
X94991757Y-67896127D01*
X95025000Y-67686246D01*
X95025000Y-67473753D01*
X94991757Y-67263872D01*
X94991757Y-67263869D01*
X94926095Y-67061782D01*
X94829624Y-66872449D01*
X94790270Y-66818282D01*
X94790269Y-66818282D01*
X94157962Y-67450590D01*
X94140925Y-67387007D01*
X94075099Y-67272993D01*
X93982007Y-67179901D01*
X93867993Y-67114075D01*
X93804409Y-67097037D01*
X94436716Y-66464728D01*
X94382550Y-66425375D01*
X94193217Y-66328904D01*
X93991129Y-66263242D01*
X93781246Y-66230000D01*
X93568754Y-66230000D01*
X93358872Y-66263242D01*
X93358869Y-66263242D01*
X93156782Y-66328904D01*
X92967439Y-66425380D01*
X92913282Y-66464727D01*
X92913282Y-66464728D01*
X93545591Y-67097037D01*
X93482007Y-67114075D01*
X93367993Y-67179901D01*
X93274901Y-67272993D01*
X93209075Y-67387007D01*
X93192037Y-67450591D01*
X92559728Y-66818282D01*
X92559727Y-66818282D01*
X92520380Y-66872439D01*
X92423904Y-67061782D01*
X92358242Y-67263869D01*
X92358242Y-67263872D01*
X92325000Y-67473753D01*
X92325000Y-67686246D01*
X92358242Y-67896127D01*
X92358242Y-67896130D01*
X92423904Y-68098217D01*
X92520375Y-68287550D01*
X92559728Y-68341716D01*
X93192037Y-67709408D01*
X93209075Y-67772993D01*
X93274901Y-67887007D01*
X93367993Y-67980099D01*
X93482007Y-68045925D01*
X93545590Y-68062962D01*
X92913282Y-68695269D01*
X92913282Y-68695270D01*
X92967452Y-68734626D01*
X92967451Y-68734626D01*
X92976495Y-68739234D01*
X93027292Y-68787208D01*
X93044087Y-68855029D01*
X93021550Y-68921164D01*
X92976499Y-68960202D01*
X92967182Y-68964949D01*
X92795213Y-69089890D01*
X92644890Y-69240213D01*
X92519951Y-69412179D01*
X92423444Y-69601585D01*
X92357753Y-69803760D01*
X92335179Y-69946286D01*
X92324500Y-70013713D01*
X89963592Y-70013713D01*
X89854185Y-69940609D01*
X89854172Y-69940602D01*
X89708501Y-69880264D01*
X89708489Y-69880261D01*
X89553845Y-69849500D01*
X89553842Y-69849500D01*
X89525098Y-69849500D01*
X89458059Y-69829815D01*
X89437417Y-69813181D01*
X88228722Y-68604486D01*
X88195237Y-68543163D01*
X88192403Y-68516805D01*
X88192403Y-67404042D01*
X88192403Y-67404040D01*
X88169290Y-67317781D01*
X88151480Y-67251312D01*
X88089613Y-67144156D01*
X88072423Y-67114381D01*
X87973618Y-67015576D01*
X87970949Y-67012534D01*
X87957872Y-66984363D01*
X87942991Y-66957110D01*
X87942540Y-66954943D01*
X87921938Y-66851372D01*
X87911640Y-66799600D01*
X87911638Y-66799595D01*
X87851300Y-66653924D01*
X87851293Y-66653911D01*
X87802494Y-66580878D01*
X87763692Y-66522808D01*
X87763689Y-66522804D01*
X87652195Y-66411310D01*
X87652191Y-66411307D01*
X87521088Y-66323706D01*
X87521075Y-66323699D01*
X87375404Y-66263361D01*
X87375392Y-66263358D01*
X87220748Y-66232597D01*
X87220745Y-66232597D01*
X87063061Y-66232597D01*
X87063058Y-66232597D01*
X86908413Y-66263358D01*
X86908401Y-66263361D01*
X86762730Y-66323699D01*
X86762717Y-66323706D01*
X86631614Y-66411307D01*
X86631610Y-66411310D01*
X86520116Y-66522804D01*
X86520113Y-66522808D01*
X86432512Y-66653911D01*
X86432505Y-66653924D01*
X86372167Y-66799595D01*
X86372164Y-66799607D01*
X86341403Y-66954250D01*
X86341403Y-67111943D01*
X86372164Y-67266586D01*
X86372167Y-67266598D01*
X86432505Y-67412269D01*
X86432512Y-67412282D01*
X86520113Y-67543385D01*
X86520116Y-67543389D01*
X86631610Y-67654883D01*
X86631614Y-67654886D01*
X86762717Y-67742487D01*
X86762730Y-67742494D01*
X86914034Y-67805165D01*
X86913017Y-67807619D01*
X86961833Y-67839607D01*
X86990293Y-67903418D01*
X86991403Y-67919975D01*
X86991403Y-68730234D01*
X86991402Y-68730252D01*
X86991402Y-68737847D01*
X86991402Y-68895962D01*
X87008616Y-68960204D01*
X87032326Y-69048691D01*
X87032328Y-69048694D01*
X87056116Y-69089895D01*
X87056117Y-69089897D01*
X87111378Y-69185613D01*
X87111384Y-69185621D01*
X87230252Y-69304489D01*
X87230258Y-69304494D01*
X87950861Y-70025097D01*
X88652841Y-70727076D01*
X88686326Y-70788399D01*
X88686777Y-70790565D01*
X88705261Y-70883491D01*
X88705264Y-70883501D01*
X88765602Y-71029172D01*
X88765609Y-71029185D01*
X88853210Y-71160288D01*
X88853213Y-71160292D01*
X88964707Y-71271786D01*
X88964711Y-71271789D01*
X89095814Y-71359390D01*
X89095827Y-71359397D01*
X89241498Y-71419735D01*
X89241503Y-71419737D01*
X89362259Y-71443757D01*
X89396153Y-71450499D01*
X89396156Y-71450500D01*
X89396158Y-71450500D01*
X89553844Y-71450500D01*
X89553845Y-71450499D01*
X89708497Y-71419737D01*
X89854179Y-71359394D01*
X89985289Y-71271789D01*
X90015493Y-71241585D01*
X90062819Y-71194260D01*
X90124142Y-71160775D01*
X90193834Y-71165759D01*
X90249767Y-71207631D01*
X90274184Y-71273095D01*
X90274326Y-71277081D01*
X90274500Y-71278846D01*
X90305261Y-71433489D01*
X90305264Y-71433501D01*
X90365602Y-71579172D01*
X90365609Y-71579185D01*
X90453602Y-71710874D01*
X90459252Y-71728920D01*
X90469477Y-71744830D01*
X90473928Y-71775789D01*
X90474480Y-71777551D01*
X90474500Y-71779765D01*
X90474500Y-71899903D01*
X90454815Y-71966942D01*
X90438181Y-71987584D01*
X89362584Y-73063181D01*
X89301261Y-73096666D01*
X89274903Y-73099500D01*
X84575097Y-73099500D01*
X84508058Y-73079815D01*
X84487416Y-73063181D01*
X83442889Y-72018654D01*
X83435521Y-72011286D01*
X83435520Y-72011284D01*
X83323716Y-71899480D01*
X83320550Y-71897652D01*
X83312301Y-71889493D01*
X83299001Y-71865452D01*
X83282805Y-71843265D01*
X83281001Y-71832914D01*
X83278479Y-71828354D01*
X83278953Y-71821160D01*
X83275499Y-71801331D01*
X83275499Y-71482129D01*
X83275498Y-71482123D01*
X83275497Y-71482116D01*
X83269091Y-71422517D01*
X83268053Y-71419735D01*
X83218797Y-71287671D01*
X83218793Y-71287664D01*
X83132547Y-71172455D01*
X83132544Y-71172452D01*
X83017335Y-71086206D01*
X83017328Y-71086202D01*
X82885917Y-71037189D01*
X82829983Y-70995318D01*
X82805566Y-70929853D01*
X82820418Y-70861580D01*
X82841563Y-70833332D01*
X82955104Y-70719792D01*
X83080051Y-70547816D01*
X83176557Y-70358412D01*
X83242246Y-70156243D01*
X83275500Y-69946287D01*
X83275500Y-69733713D01*
X83242246Y-69523757D01*
X83176557Y-69321588D01*
X83080051Y-69132184D01*
X83080049Y-69132181D01*
X83080048Y-69132179D01*
X82955109Y-68960213D01*
X82804786Y-68809890D01*
X82632820Y-68684951D01*
X82632115Y-68684591D01*
X82624054Y-68680485D01*
X82573259Y-68632512D01*
X82556463Y-68564692D01*
X82578999Y-68498556D01*
X82624054Y-68459515D01*
X82632816Y-68455051D01*
X82654789Y-68439086D01*
X82804786Y-68330109D01*
X82804788Y-68330106D01*
X82804792Y-68330104D01*
X82955104Y-68179792D01*
X82955106Y-68179788D01*
X82955109Y-68179786D01*
X83080048Y-68007820D01*
X83080047Y-68007820D01*
X83080051Y-68007816D01*
X83176557Y-67818412D01*
X83242246Y-67616243D01*
X83275500Y-67406287D01*
X83275500Y-67193713D01*
X83242246Y-66983757D01*
X83176557Y-66781588D01*
X83080051Y-66592184D01*
X83080049Y-66592181D01*
X83080048Y-66592179D01*
X82955109Y-66420213D01*
X82804786Y-66269890D01*
X82632820Y-66144951D01*
X82443414Y-66048444D01*
X82443413Y-66048443D01*
X82443412Y-66048443D01*
X82241243Y-65982754D01*
X82241241Y-65982753D01*
X82241240Y-65982753D01*
X82079957Y-65957208D01*
X82031287Y-65949500D01*
X81818713Y-65949500D01*
X81770042Y-65957208D01*
X81608760Y-65982753D01*
X81406585Y-66048444D01*
X81217179Y-66144951D01*
X81045213Y-66269890D01*
X80894890Y-66420213D01*
X80769951Y-66592179D01*
X80673444Y-66781585D01*
X80607753Y-66983760D01*
X80587065Y-67114381D01*
X80574500Y-67193713D01*
X80574500Y-67406287D01*
X80575449Y-67412276D01*
X80602013Y-67580000D01*
X80607754Y-67616243D01*
X80668381Y-67802834D01*
X80673444Y-67818414D01*
X80769951Y-68007820D01*
X80894890Y-68179786D01*
X81045213Y-68330109D01*
X81217182Y-68455050D01*
X81225946Y-68459516D01*
X81276742Y-68507491D01*
X81293536Y-68575312D01*
X81270998Y-68641447D01*
X81225946Y-68680484D01*
X81217182Y-68684949D01*
X81045213Y-68809890D01*
X81045209Y-68809894D01*
X80894900Y-68960204D01*
X80894892Y-68960211D01*
X80838097Y-69038385D01*
X80782767Y-69081051D01*
X80737779Y-69089500D01*
X67696080Y-69089500D01*
X67551092Y-69118340D01*
X67551082Y-69118343D01*
X67414511Y-69174912D01*
X67414502Y-69174917D01*
X67390805Y-69190751D01*
X67324127Y-69211627D01*
X67256747Y-69193141D01*
X67210058Y-69141161D01*
X67199444Y-69107048D01*
X67176188Y-68960213D01*
X67167247Y-68903761D01*
X67167246Y-68903760D01*
X67167246Y-68903757D01*
X67101557Y-68701588D01*
X67005051Y-68512184D01*
X67005049Y-68512181D01*
X67005048Y-68512179D01*
X66877241Y-68336266D01*
X66878108Y-68335635D01*
X66869582Y-68316612D01*
X66855523Y-68294735D01*
X66853513Y-68280758D01*
X66851641Y-68276581D01*
X66850500Y-68259800D01*
X66850500Y-68094141D01*
X66870185Y-68027102D01*
X66922989Y-67981347D01*
X66931149Y-67977966D01*
X66942331Y-67973796D01*
X67057546Y-67887546D01*
X67143796Y-67772331D01*
X67194091Y-67637483D01*
X67200500Y-67577873D01*
X67200499Y-66865782D01*
X67209144Y-66836339D01*
X67215667Y-66806355D01*
X67219420Y-66801341D01*
X67220183Y-66798744D01*
X67236815Y-66778103D01*
X67303103Y-66711817D01*
X67364426Y-66678334D01*
X67390783Y-66675500D01*
X76598543Y-66675500D01*
X76639218Y-66667408D01*
X76707040Y-66653918D01*
X76791836Y-66637051D01*
X76845165Y-66614961D01*
X76973914Y-66561632D01*
X77137782Y-66452139D01*
X77277139Y-66312782D01*
X77277140Y-66312779D01*
X77284206Y-66305714D01*
X77284209Y-66305710D01*
X77712778Y-65877141D01*
X77712782Y-65877139D01*
X77852139Y-65737782D01*
X77961632Y-65573914D01*
X78037051Y-65391835D01*
X78037051Y-65391832D01*
X78037053Y-65391828D01*
X78048176Y-65335910D01*
X78075499Y-65198544D01*
X78075500Y-65198541D01*
X78075500Y-65001459D01*
X78074773Y-64997807D01*
X78071241Y-64980051D01*
X78037051Y-64808165D01*
X78036906Y-64807816D01*
X78005206Y-64731284D01*
X77961632Y-64626086D01*
X77901436Y-64535996D01*
X77852139Y-64462217D01*
X77712785Y-64322863D01*
X77712781Y-64322860D01*
X77548920Y-64213371D01*
X77548911Y-64213366D01*
X77434138Y-64165826D01*
X77420165Y-64160038D01*
X77366836Y-64137949D01*
X77260689Y-64116835D01*
X77256315Y-64115965D01*
X77256308Y-64115963D01*
X77173543Y-64099500D01*
X77173541Y-64099500D01*
X76976459Y-64099500D01*
X76976457Y-64099500D01*
X76918360Y-64111056D01*
X76889311Y-64116835D01*
X76783167Y-64137947D01*
X76783159Y-64137950D01*
X76729834Y-64160037D01*
X76729834Y-64160038D01*
X76684315Y-64178892D01*
X76601089Y-64213366D01*
X76601079Y-64213371D01*
X76437219Y-64322859D01*
X76367540Y-64392538D01*
X76297861Y-64462218D01*
X76297858Y-64462221D01*
X76194155Y-64565925D01*
X76121899Y-64638181D01*
X76060576Y-64671666D01*
X76034218Y-64674500D01*
X74404004Y-64674500D01*
X74336965Y-64654815D01*
X74291210Y-64602011D01*
X74281266Y-64532853D01*
X74286073Y-64512182D01*
X74289999Y-64500099D01*
X74317246Y-64416243D01*
X74350500Y-64206287D01*
X74350500Y-63993713D01*
X74317246Y-63783757D01*
X74251557Y-63581588D01*
X74155051Y-63392184D01*
X74155049Y-63392181D01*
X74155048Y-63392179D01*
X74030109Y-63220213D01*
X73879786Y-63069890D01*
X73707820Y-62944951D01*
X73518414Y-62848444D01*
X73518413Y-62848443D01*
X73518412Y-62848443D01*
X73316243Y-62782754D01*
X73316241Y-62782753D01*
X73316240Y-62782753D01*
X73154957Y-62757208D01*
X73106287Y-62749500D01*
X72893713Y-62749500D01*
X72845042Y-62757208D01*
X72683760Y-62782753D01*
X72481585Y-62848444D01*
X72292179Y-62944951D01*
X72120215Y-63069889D01*
X72006285Y-63183819D01*
X71977652Y-63199453D01*
X71949667Y-63216183D01*
X71947161Y-63216101D01*
X71944962Y-63217303D01*
X71912425Y-63214976D01*
X71879834Y-63213920D01*
X71877771Y-63212497D01*
X71875270Y-63212319D01*
X71849160Y-63192773D01*
X71822310Y-63174262D01*
X71820721Y-63171483D01*
X71819337Y-63170447D01*
X71804200Y-63143968D01*
X71733751Y-62975467D01*
X71731526Y-62955400D01*
X71724471Y-62936485D01*
X71727755Y-62921383D01*
X71726053Y-62906023D01*
X71735030Y-62887938D01*
X71739322Y-62868211D01*
X71751357Y-62855050D01*
X71757121Y-62843441D01*
X71767828Y-62837040D01*
X71779264Y-62824534D01*
X71812782Y-62802139D01*
X71952139Y-62662782D01*
X72061632Y-62498914D01*
X72064293Y-62492491D01*
X72103634Y-62397511D01*
X72137051Y-62316835D01*
X72175500Y-62123541D01*
X72175500Y-61926459D01*
X72175500Y-61926456D01*
X72137052Y-61733170D01*
X72137051Y-61733169D01*
X72137051Y-61733165D01*
X72094298Y-61629949D01*
X72061635Y-61551092D01*
X72061628Y-61551079D01*
X71952139Y-61387218D01*
X71952136Y-61387214D01*
X71812785Y-61247863D01*
X71812781Y-61247860D01*
X71648920Y-61138371D01*
X71648907Y-61138364D01*
X71466839Y-61062950D01*
X71466829Y-61062947D01*
X71273543Y-61024500D01*
X71273541Y-61024500D01*
X71076459Y-61024500D01*
X71076457Y-61024500D01*
X70883170Y-61062947D01*
X70883160Y-61062950D01*
X70701093Y-61138364D01*
X70701084Y-61138369D01*
X70664996Y-61162482D01*
X70598318Y-61183358D01*
X70530938Y-61164872D01*
X70508426Y-61147059D01*
X69734181Y-60372814D01*
X69700696Y-60311491D01*
X69703931Y-60246815D01*
X69711090Y-60224785D01*
X69750500Y-59975962D01*
X69750500Y-59724038D01*
X69711090Y-59475215D01*
X69633241Y-59235621D01*
X69633239Y-59235618D01*
X69633239Y-59235616D01*
X69546165Y-59064725D01*
X69518870Y-59011155D01*
X69456484Y-58925288D01*
X69370798Y-58807350D01*
X69370794Y-58807345D01*
X69231130Y-58667681D01*
X69197645Y-58606358D01*
X69202629Y-58536666D01*
X69231130Y-58492319D01*
X69294694Y-58428755D01*
X69370793Y-58352656D01*
X69518870Y-58148845D01*
X69633241Y-57924379D01*
X69711090Y-57684785D01*
X69750500Y-57435962D01*
X69750500Y-57184038D01*
X69711090Y-56935215D01*
X69633241Y-56695621D01*
X69633239Y-56695618D01*
X69633239Y-56695616D01*
X69569178Y-56569890D01*
X69518870Y-56471155D01*
X69434116Y-56354501D01*
X69370798Y-56267350D01*
X69370794Y-56267345D01*
X69231130Y-56127681D01*
X69197645Y-56066358D01*
X69202629Y-55996666D01*
X69231130Y-55952319D01*
X69297070Y-55886379D01*
X69370793Y-55812656D01*
X69518870Y-55608845D01*
X69633241Y-55384379D01*
X69711090Y-55144785D01*
X69741353Y-54953713D01*
X72324500Y-54953713D01*
X72324500Y-55166287D01*
X72329055Y-55195048D01*
X72355575Y-55362490D01*
X72357754Y-55376243D01*
X72415370Y-55553567D01*
X72423444Y-55578414D01*
X72519951Y-55767820D01*
X72644890Y-55939786D01*
X72795213Y-56090109D01*
X72967182Y-56215050D01*
X72975946Y-56219516D01*
X73026742Y-56267491D01*
X73043536Y-56335312D01*
X73020998Y-56401447D01*
X72975946Y-56440484D01*
X72967182Y-56444949D01*
X72795213Y-56569890D01*
X72644890Y-56720213D01*
X72519951Y-56892179D01*
X72423444Y-57081585D01*
X72423443Y-57081587D01*
X72423443Y-57081588D01*
X72390598Y-57182672D01*
X72357753Y-57283760D01*
X72325956Y-57484519D01*
X72324500Y-57493713D01*
X72324500Y-57706287D01*
X72334003Y-57766286D01*
X72355834Y-57904125D01*
X72357754Y-57916243D01*
X72415370Y-58093567D01*
X72423444Y-58118414D01*
X72519951Y-58307820D01*
X72644890Y-58479786D01*
X72758430Y-58593326D01*
X72791915Y-58654649D01*
X72786931Y-58724341D01*
X72745059Y-58780274D01*
X72714083Y-58797189D01*
X72582669Y-58846203D01*
X72582664Y-58846206D01*
X72467455Y-58932452D01*
X72467452Y-58932455D01*
X72381206Y-59047664D01*
X72381202Y-59047671D01*
X72330908Y-59182517D01*
X72325200Y-59235616D01*
X72324501Y-59242123D01*
X72324500Y-59242135D01*
X72324500Y-61037870D01*
X72324501Y-61037876D01*
X72330908Y-61097483D01*
X72381202Y-61232328D01*
X72381206Y-61232335D01*
X72467452Y-61347544D01*
X72467455Y-61347547D01*
X72582664Y-61433793D01*
X72582671Y-61433797D01*
X72717517Y-61484091D01*
X72717516Y-61484091D01*
X72724444Y-61484835D01*
X72777127Y-61490500D01*
X74572872Y-61490499D01*
X74632483Y-61484091D01*
X74767331Y-61433796D01*
X74767333Y-61433793D01*
X74773058Y-61430669D01*
X74832487Y-61415500D01*
X76223331Y-61415500D01*
X76223347Y-61415501D01*
X76230943Y-61415501D01*
X76389054Y-61415501D01*
X76389057Y-61415501D01*
X76541785Y-61374577D01*
X76591904Y-61345639D01*
X76678716Y-61295520D01*
X76790520Y-61183716D01*
X76790520Y-61183714D01*
X76800728Y-61173507D01*
X76800729Y-61173504D01*
X77473020Y-60501216D01*
X77552077Y-60364284D01*
X77593001Y-60211557D01*
X77593001Y-60053442D01*
X77593001Y-60045847D01*
X77593000Y-60045829D01*
X77593000Y-59239837D01*
X77612685Y-59172798D01*
X77665489Y-59127043D01*
X77669486Y-59125302D01*
X77671679Y-59124394D01*
X77802789Y-59036789D01*
X77914289Y-58925289D01*
X78001894Y-58794179D01*
X78062237Y-58648497D01*
X78093000Y-58493842D01*
X78093000Y-58336158D01*
X78093000Y-58336155D01*
X78092999Y-58336153D01*
X78062238Y-58181510D01*
X78062237Y-58181503D01*
X78048710Y-58148845D01*
X78001897Y-58035827D01*
X78001890Y-58035814D01*
X77913898Y-57904125D01*
X77893020Y-57837447D01*
X77893000Y-57835234D01*
X77893000Y-55094765D01*
X77912685Y-55027726D01*
X77913898Y-55025874D01*
X77968261Y-54944515D01*
X78001894Y-54894179D01*
X78018330Y-54854500D01*
X78062237Y-54748497D01*
X78093000Y-54593842D01*
X78093000Y-54436158D01*
X78093000Y-54436155D01*
X78092999Y-54436153D01*
X78062238Y-54281510D01*
X78062237Y-54281503D01*
X78017516Y-54173536D01*
X78001897Y-54135827D01*
X78001890Y-54135814D01*
X77914289Y-54004711D01*
X77914286Y-54004707D01*
X77802792Y-53893213D01*
X77802788Y-53893210D01*
X77671685Y-53805609D01*
X77671672Y-53805602D01*
X77526001Y-53745264D01*
X77525989Y-53745261D01*
X77371345Y-53714500D01*
X77371342Y-53714500D01*
X77213658Y-53714500D01*
X77213655Y-53714500D01*
X77059010Y-53745261D01*
X77058998Y-53745264D01*
X76913327Y-53805602D01*
X76913314Y-53805609D01*
X76782211Y-53893210D01*
X76782207Y-53893213D01*
X76670713Y-54004707D01*
X76670710Y-54004711D01*
X76583109Y-54135814D01*
X76583102Y-54135827D01*
X76522764Y-54281498D01*
X76522761Y-54281510D01*
X76492000Y-54436153D01*
X76492000Y-54593846D01*
X76522761Y-54748489D01*
X76522763Y-54748497D01*
X76583102Y-54894172D01*
X76583109Y-54894185D01*
X76671102Y-55025874D01*
X76691980Y-55092551D01*
X76692000Y-55094765D01*
X76692000Y-57835234D01*
X76672315Y-57902273D01*
X76671102Y-57904125D01*
X76583109Y-58035814D01*
X76583102Y-58035827D01*
X76522764Y-58181498D01*
X76522761Y-58181510D01*
X76492000Y-58336153D01*
X76492000Y-58347665D01*
X76487850Y-58363153D01*
X76488505Y-58376898D01*
X76475388Y-58409664D01*
X76464366Y-58428755D01*
X76464365Y-58428756D01*
X76432923Y-58483214D01*
X76432923Y-58483215D01*
X76391999Y-58635943D01*
X76391999Y-58635945D01*
X76391999Y-58804046D01*
X76392000Y-58804059D01*
X76392000Y-59832402D01*
X76372315Y-59899441D01*
X76355681Y-59920083D01*
X76097584Y-60178181D01*
X76036261Y-60211666D01*
X76009903Y-60214500D01*
X75149500Y-60214500D01*
X75082461Y-60194815D01*
X75036706Y-60142011D01*
X75025500Y-60090500D01*
X75025499Y-59242129D01*
X75025498Y-59242123D01*
X75025497Y-59242116D01*
X75019091Y-59182517D01*
X75014381Y-59169890D01*
X74968797Y-59047671D01*
X74968793Y-59047664D01*
X74882547Y-58932455D01*
X74882544Y-58932452D01*
X74767335Y-58846206D01*
X74767328Y-58846202D01*
X74635917Y-58797189D01*
X74579983Y-58755318D01*
X74555566Y-58689853D01*
X74570418Y-58621580D01*
X74591563Y-58593332D01*
X74705104Y-58479792D01*
X74830051Y-58307816D01*
X74926557Y-58118412D01*
X74992246Y-57916243D01*
X75025500Y-57706287D01*
X75025500Y-57493713D01*
X74992246Y-57283757D01*
X74926557Y-57081588D01*
X74830051Y-56892184D01*
X74830049Y-56892181D01*
X74830048Y-56892179D01*
X74705109Y-56720213D01*
X74554786Y-56569890D01*
X74382820Y-56444951D01*
X74382115Y-56444591D01*
X74374054Y-56440485D01*
X74323259Y-56392512D01*
X74306463Y-56324692D01*
X74328999Y-56258556D01*
X74374054Y-56219515D01*
X74382816Y-56215051D01*
X74472209Y-56150104D01*
X74554786Y-56090109D01*
X74554788Y-56090106D01*
X74554792Y-56090104D01*
X74705104Y-55939792D01*
X74705106Y-55939788D01*
X74705109Y-55939786D01*
X74830048Y-55767820D01*
X74830047Y-55767820D01*
X74830051Y-55767816D01*
X74926557Y-55578412D01*
X74992246Y-55376243D01*
X75025500Y-55166287D01*
X75025500Y-54953713D01*
X74992246Y-54743757D01*
X74926557Y-54541588D01*
X74830051Y-54352184D01*
X74830049Y-54352181D01*
X74830048Y-54352179D01*
X74705109Y-54180213D01*
X74554786Y-54029890D01*
X74382817Y-53904949D01*
X74373504Y-53900204D01*
X74322707Y-53852230D01*
X74305912Y-53784409D01*
X74328449Y-53718274D01*
X74373507Y-53679232D01*
X74382555Y-53674622D01*
X74436716Y-53635270D01*
X74436717Y-53635270D01*
X73804408Y-53002962D01*
X73867993Y-52985925D01*
X73982007Y-52920099D01*
X74075099Y-52827007D01*
X74140925Y-52712993D01*
X74157962Y-52649408D01*
X74790270Y-53281717D01*
X74790270Y-53281716D01*
X74829622Y-53227554D01*
X74926095Y-53038217D01*
X74991757Y-52836130D01*
X74991757Y-52836127D01*
X75025000Y-52626246D01*
X75025000Y-52413753D01*
X74991757Y-52203872D01*
X74991757Y-52203869D01*
X74926095Y-52001782D01*
X74829623Y-51812447D01*
X74829621Y-51812443D01*
X74790271Y-51758282D01*
X74790269Y-51758282D01*
X74157962Y-52390590D01*
X74140925Y-52327007D01*
X74075099Y-52212993D01*
X73982007Y-52119901D01*
X73867993Y-52054075D01*
X73804409Y-52037037D01*
X74159310Y-51682135D01*
X89074500Y-51682135D01*
X89074500Y-53477870D01*
X89074501Y-53477876D01*
X89080908Y-53537483D01*
X89131202Y-53672328D01*
X89131206Y-53672335D01*
X89217452Y-53787544D01*
X89217455Y-53787547D01*
X89332664Y-53873793D01*
X89332671Y-53873797D01*
X89464082Y-53922810D01*
X89520016Y-53964681D01*
X89544433Y-54030145D01*
X89529582Y-54098418D01*
X89508431Y-54126673D01*
X89394889Y-54240215D01*
X89269951Y-54412179D01*
X89173444Y-54601585D01*
X89107753Y-54803760D01*
X89074500Y-55013713D01*
X89074500Y-55226286D01*
X89096072Y-55362490D01*
X89107754Y-55436243D01*
X89153948Y-55578414D01*
X89173444Y-55638414D01*
X89269951Y-55827820D01*
X89394890Y-55999786D01*
X89545213Y-56150109D01*
X89717182Y-56275050D01*
X89725946Y-56279516D01*
X89776742Y-56327491D01*
X89793536Y-56395312D01*
X89770998Y-56461447D01*
X89725946Y-56500484D01*
X89717182Y-56504949D01*
X89545213Y-56629890D01*
X89394890Y-56780213D01*
X89269951Y-56952179D01*
X89173444Y-57141585D01*
X89107753Y-57343760D01*
X89074500Y-57553713D01*
X89074500Y-57766286D01*
X89096331Y-57904125D01*
X89107754Y-57976243D01*
X89158383Y-58132063D01*
X89173444Y-58178414D01*
X89269951Y-58367820D01*
X89394890Y-58539786D01*
X89545213Y-58690109D01*
X89717182Y-58815050D01*
X89725946Y-58819516D01*
X89776742Y-58867491D01*
X89793536Y-58935312D01*
X89770998Y-59001447D01*
X89725946Y-59040484D01*
X89717182Y-59044949D01*
X89545213Y-59169890D01*
X89394890Y-59320213D01*
X89269951Y-59492179D01*
X89173444Y-59681585D01*
X89107753Y-59883760D01*
X89074500Y-60093713D01*
X89074500Y-60306286D01*
X89096072Y-60442490D01*
X89107754Y-60516243D01*
X89127553Y-60577179D01*
X89173444Y-60718414D01*
X89269951Y-60907820D01*
X89394890Y-61079786D01*
X89545213Y-61230109D01*
X89717179Y-61355048D01*
X89717181Y-61355049D01*
X89717184Y-61355051D01*
X89906588Y-61451557D01*
X90108757Y-61517246D01*
X90318713Y-61550500D01*
X90318714Y-61550500D01*
X90531286Y-61550500D01*
X90531287Y-61550500D01*
X90741243Y-61517246D01*
X90943412Y-61451557D01*
X91132816Y-61355051D01*
X91214754Y-61295520D01*
X91304786Y-61230109D01*
X91304788Y-61230106D01*
X91304792Y-61230104D01*
X91455104Y-61079792D01*
X91455106Y-61079788D01*
X91455109Y-61079786D01*
X91580048Y-60907820D01*
X91580047Y-60907820D01*
X91580051Y-60907816D01*
X91676557Y-60718412D01*
X91742246Y-60516243D01*
X91775500Y-60306287D01*
X91775500Y-60093713D01*
X91742246Y-59883757D01*
X91728506Y-59841473D01*
X91726512Y-59771635D01*
X91758755Y-59715478D01*
X92689605Y-58784628D01*
X92750926Y-58751145D01*
X92820618Y-58756129D01*
X92876551Y-58798001D01*
X92899757Y-58852913D01*
X92929466Y-59040484D01*
X92932754Y-59061243D01*
X92991527Y-59242128D01*
X92998444Y-59263414D01*
X93094951Y-59452820D01*
X93219890Y-59624786D01*
X93370213Y-59775109D01*
X93542182Y-59900050D01*
X93550946Y-59904516D01*
X93601742Y-59952491D01*
X93618536Y-60020312D01*
X93595998Y-60086447D01*
X93550946Y-60125484D01*
X93542182Y-60129949D01*
X93370213Y-60254890D01*
X93219890Y-60405213D01*
X93094951Y-60577179D01*
X92998444Y-60766585D01*
X92932753Y-60968760D01*
X92900325Y-61173507D01*
X92899500Y-61178713D01*
X92899500Y-61391287D01*
X92901503Y-61403932D01*
X92930410Y-61586447D01*
X92932754Y-61601243D01*
X92988031Y-61771368D01*
X92998444Y-61803414D01*
X93094951Y-61992820D01*
X93219890Y-62164786D01*
X93370213Y-62315109D01*
X93542182Y-62440050D01*
X93550946Y-62444516D01*
X93601742Y-62492491D01*
X93618536Y-62560312D01*
X93595998Y-62626447D01*
X93550946Y-62665484D01*
X93542182Y-62669949D01*
X93370213Y-62794890D01*
X93219890Y-62945213D01*
X93094951Y-63117179D01*
X92998444Y-63306585D01*
X92932753Y-63508760D01*
X92899500Y-63718713D01*
X92899500Y-63931286D01*
X92930410Y-64126447D01*
X92932754Y-64141243D01*
X92991766Y-64322863D01*
X92998444Y-64343414D01*
X93094951Y-64532820D01*
X93219890Y-64704786D01*
X93370213Y-64855109D01*
X93542179Y-64980048D01*
X93542181Y-64980049D01*
X93542184Y-64980051D01*
X93731588Y-65076557D01*
X93933757Y-65142246D01*
X94143713Y-65175500D01*
X94143714Y-65175500D01*
X94356286Y-65175500D01*
X94356287Y-65175500D01*
X94566243Y-65142246D01*
X94768412Y-65076557D01*
X94957816Y-64980051D01*
X94979789Y-64964086D01*
X95129786Y-64855109D01*
X95129788Y-64855106D01*
X95129792Y-64855104D01*
X95280104Y-64704792D01*
X95280106Y-64704788D01*
X95280109Y-64704786D01*
X95402741Y-64535996D01*
X95405051Y-64532816D01*
X95501557Y-64343412D01*
X95567246Y-64141243D01*
X95600500Y-63931287D01*
X95600500Y-63718713D01*
X95567246Y-63508757D01*
X95501557Y-63306588D01*
X95405051Y-63117184D01*
X95405049Y-63117181D01*
X95405048Y-63117179D01*
X95280109Y-62945213D01*
X95129786Y-62794890D01*
X94957820Y-62669951D01*
X94956609Y-62669334D01*
X94949054Y-62665485D01*
X94898259Y-62617512D01*
X94881463Y-62549692D01*
X94903999Y-62483556D01*
X94949054Y-62444515D01*
X94957816Y-62440051D01*
X94979789Y-62424086D01*
X95129786Y-62315109D01*
X95129788Y-62315106D01*
X95129792Y-62315104D01*
X95280104Y-62164792D01*
X95280106Y-62164788D01*
X95280109Y-62164786D01*
X95402741Y-61995996D01*
X95405051Y-61992816D01*
X95501557Y-61803412D01*
X95567246Y-61601243D01*
X95600500Y-61391287D01*
X95600500Y-61178713D01*
X95567246Y-60968757D01*
X95501557Y-60766588D01*
X95405051Y-60577184D01*
X95405049Y-60577181D01*
X95405048Y-60577179D01*
X95280109Y-60405213D01*
X95129786Y-60254890D01*
X94957820Y-60129951D01*
X94957115Y-60129591D01*
X94949054Y-60125485D01*
X94898259Y-60077512D01*
X94881463Y-60009692D01*
X94903999Y-59943556D01*
X94949054Y-59904515D01*
X94957816Y-59900051D01*
X94980243Y-59883757D01*
X95129786Y-59775109D01*
X95129788Y-59775106D01*
X95129792Y-59775104D01*
X95280104Y-59624792D01*
X95280106Y-59624788D01*
X95280109Y-59624786D01*
X95402741Y-59455996D01*
X95405051Y-59452816D01*
X95501557Y-59263412D01*
X95567246Y-59061243D01*
X95600500Y-58851287D01*
X95600500Y-58638713D01*
X95567246Y-58428757D01*
X95501557Y-58226588D01*
X95405051Y-58037184D01*
X95405049Y-58037181D01*
X95405048Y-58037179D01*
X95280109Y-57865213D01*
X95166569Y-57751673D01*
X95133084Y-57690350D01*
X95138068Y-57620658D01*
X95179940Y-57564725D01*
X95210915Y-57547810D01*
X95342331Y-57498796D01*
X95457546Y-57412546D01*
X95543796Y-57297331D01*
X95594091Y-57162483D01*
X95600500Y-57102873D01*
X95600499Y-55307128D01*
X95594091Y-55247517D01*
X95586172Y-55226286D01*
X95543797Y-55112671D01*
X95543793Y-55112664D01*
X95457547Y-54997455D01*
X95457544Y-54997452D01*
X95342335Y-54911206D01*
X95342328Y-54911202D01*
X95207482Y-54860908D01*
X95207483Y-54860908D01*
X95147883Y-54854501D01*
X95147881Y-54854500D01*
X95147873Y-54854500D01*
X95147864Y-54854500D01*
X93352129Y-54854500D01*
X93352123Y-54854501D01*
X93292515Y-54860909D01*
X93181712Y-54902235D01*
X93112020Y-54907219D01*
X93050698Y-54873733D01*
X93017213Y-54812410D01*
X93014380Y-54786053D01*
X93014380Y-54261217D01*
X93034065Y-54194178D01*
X93050699Y-54173536D01*
X94401748Y-52822487D01*
X95764662Y-51459572D01*
X95825983Y-51426089D01*
X95828150Y-51425638D01*
X95886085Y-51414113D01*
X95983497Y-51394737D01*
X96129179Y-51334394D01*
X96260289Y-51246789D01*
X96371789Y-51135289D01*
X96448998Y-51019738D01*
X96455934Y-51009358D01*
X96509546Y-50964552D01*
X96578871Y-50955845D01*
X96641898Y-50985999D01*
X96678618Y-51045442D01*
X96681510Y-51097645D01*
X96674500Y-51141907D01*
X96674500Y-51378097D01*
X96711446Y-51611368D01*
X96784433Y-51835996D01*
X96878189Y-52020000D01*
X96891657Y-52046433D01*
X97030483Y-52237510D01*
X97197490Y-52404517D01*
X97232127Y-52429683D01*
X97274792Y-52485013D01*
X97280771Y-52554626D01*
X97248165Y-52616421D01*
X97232130Y-52630315D01*
X97214365Y-52643222D01*
X97197488Y-52655484D01*
X97030485Y-52822487D01*
X97030485Y-52822488D01*
X97030483Y-52822490D01*
X97020573Y-52836130D01*
X96891657Y-53013566D01*
X96784433Y-53224003D01*
X96711446Y-53448631D01*
X96674500Y-53681902D01*
X96674500Y-53918097D01*
X96711446Y-54151368D01*
X96784433Y-54375996D01*
X96891657Y-54586433D01*
X97030483Y-54777510D01*
X97197490Y-54944517D01*
X97232127Y-54969683D01*
X97274792Y-55025013D01*
X97280771Y-55094626D01*
X97248165Y-55156421D01*
X97232130Y-55170315D01*
X97214365Y-55183222D01*
X97197488Y-55195484D01*
X97030485Y-55362487D01*
X97030485Y-55362488D01*
X97030483Y-55362490D01*
X96976901Y-55436239D01*
X96891657Y-55553566D01*
X96784433Y-55764003D01*
X96711446Y-55988631D01*
X96674500Y-56221902D01*
X96674500Y-56458097D01*
X96711446Y-56691368D01*
X96784433Y-56915996D01*
X96879658Y-57102883D01*
X96891657Y-57126433D01*
X97030483Y-57317510D01*
X97197490Y-57484517D01*
X97232127Y-57509683D01*
X97274792Y-57565013D01*
X97280771Y-57634626D01*
X97248165Y-57696421D01*
X97232130Y-57710315D01*
X97214365Y-57723222D01*
X97197488Y-57735484D01*
X97030485Y-57902487D01*
X97030485Y-57902488D01*
X97030483Y-57902490D01*
X97020494Y-57916239D01*
X96891657Y-58093566D01*
X96784433Y-58304003D01*
X96711446Y-58528631D01*
X96674500Y-58761902D01*
X96674500Y-58998097D01*
X96711446Y-59231368D01*
X96784433Y-59455996D01*
X96825801Y-59537184D01*
X96891657Y-59666433D01*
X97030483Y-59857510D01*
X97197490Y-60024517D01*
X97232127Y-60049683D01*
X97274792Y-60105013D01*
X97280771Y-60174626D01*
X97248165Y-60236421D01*
X97232130Y-60250315D01*
X97214365Y-60263222D01*
X97197488Y-60275484D01*
X97030485Y-60442487D01*
X97030485Y-60442488D01*
X97030483Y-60442490D01*
X97014580Y-60464379D01*
X96891657Y-60633566D01*
X96784433Y-60844003D01*
X96711446Y-61068631D01*
X96674500Y-61301902D01*
X96674500Y-61538097D01*
X96711446Y-61771368D01*
X96784433Y-61995996D01*
X96825801Y-62077184D01*
X96891657Y-62206433D01*
X97030483Y-62397510D01*
X97197490Y-62564517D01*
X97232127Y-62589683D01*
X97274792Y-62645013D01*
X97280771Y-62714626D01*
X97248165Y-62776421D01*
X97232130Y-62790315D01*
X97215858Y-62802138D01*
X97197488Y-62815484D01*
X97030485Y-62982487D01*
X97030485Y-62982488D01*
X97030483Y-62982490D01*
X96970862Y-63064550D01*
X96891657Y-63173566D01*
X96784433Y-63384003D01*
X96711446Y-63608631D01*
X96674500Y-63841902D01*
X96674500Y-64078097D01*
X96711446Y-64311368D01*
X96784433Y-64535996D01*
X96883938Y-64731284D01*
X96891657Y-64746433D01*
X97030483Y-64937510D01*
X97197490Y-65104517D01*
X97232127Y-65129683D01*
X97274792Y-65185013D01*
X97280771Y-65254626D01*
X97248165Y-65316421D01*
X97232130Y-65330315D01*
X97224431Y-65335909D01*
X97197488Y-65355484D01*
X97030485Y-65522487D01*
X97030485Y-65522488D01*
X97030483Y-65522490D01*
X96993126Y-65573907D01*
X96891657Y-65713566D01*
X96784433Y-65924003D01*
X96711446Y-66148631D01*
X96674500Y-66381902D01*
X96674500Y-66618097D01*
X96711446Y-66851368D01*
X96784433Y-67075996D01*
X96884809Y-67272993D01*
X96891657Y-67286433D01*
X97030483Y-67477510D01*
X97197490Y-67644517D01*
X97232127Y-67669683D01*
X97274792Y-67725013D01*
X97280771Y-67794626D01*
X97248165Y-67856421D01*
X97232130Y-67870315D01*
X97214365Y-67883222D01*
X97197488Y-67895484D01*
X97030485Y-68062487D01*
X97030485Y-68062488D01*
X97030483Y-68062490D01*
X97013919Y-68085289D01*
X96891657Y-68253566D01*
X96784433Y-68464003D01*
X96711446Y-68688631D01*
X96674500Y-68921902D01*
X96674500Y-69158097D01*
X96711446Y-69391368D01*
X96784433Y-69615996D01*
X96885352Y-69814059D01*
X96891657Y-69826433D01*
X97030483Y-70017510D01*
X97197490Y-70184517D01*
X97232127Y-70209683D01*
X97274792Y-70265013D01*
X97280771Y-70334626D01*
X97248165Y-70396421D01*
X97232130Y-70410315D01*
X97223604Y-70416510D01*
X97197488Y-70435484D01*
X97030485Y-70602487D01*
X97030485Y-70602488D01*
X97030483Y-70602490D01*
X96986528Y-70662989D01*
X96891657Y-70793566D01*
X96784433Y-71004003D01*
X96711446Y-71228631D01*
X96674500Y-71461902D01*
X96674500Y-71698097D01*
X96711446Y-71931368D01*
X96784433Y-72155996D01*
X96891657Y-72366433D01*
X97030483Y-72557510D01*
X97197490Y-72724517D01*
X97388567Y-72863343D01*
X97475320Y-72907546D01*
X97599003Y-72970566D01*
X97599005Y-72970566D01*
X97599008Y-72970568D01*
X97677089Y-72995938D01*
X97823631Y-73043553D01*
X98056903Y-73080500D01*
X98090708Y-73080500D01*
X98157747Y-73100185D01*
X98203502Y-73152989D01*
X98213446Y-73222147D01*
X98184421Y-73285703D01*
X98125643Y-73323477D01*
X98122835Y-73324265D01*
X98073506Y-73337483D01*
X98031112Y-73348842D01*
X97819123Y-73436650D01*
X97819109Y-73436657D01*
X97620382Y-73551392D01*
X97438338Y-73691081D01*
X97276081Y-73853338D01*
X97136392Y-74035382D01*
X97021657Y-74234109D01*
X97021650Y-74234123D01*
X96933842Y-74446112D01*
X96874453Y-74667759D01*
X96874451Y-74667770D01*
X96844500Y-74895258D01*
X96844500Y-75124741D01*
X96869446Y-75314215D01*
X96874452Y-75352238D01*
X96901886Y-75454624D01*
X96933842Y-75573887D01*
X97021650Y-75785876D01*
X97021657Y-75785890D01*
X97136392Y-75984617D01*
X97276081Y-76166661D01*
X97276089Y-76166670D01*
X97438330Y-76328911D01*
X97438338Y-76328918D01*
X97438339Y-76328919D01*
X97450700Y-76338404D01*
X97620382Y-76468607D01*
X97620385Y-76468608D01*
X97620388Y-76468611D01*
X97819112Y-76583344D01*
X97819117Y-76583346D01*
X97819123Y-76583349D01*
X97910480Y-76621190D01*
X98031113Y-76671158D01*
X98252762Y-76730548D01*
X98480266Y-76760500D01*
X98480273Y-76760500D01*
X98709727Y-76760500D01*
X98709734Y-76760500D01*
X98937238Y-76730548D01*
X99158887Y-76671158D01*
X99370888Y-76583344D01*
X99569612Y-76468611D01*
X99751661Y-76328919D01*
X99751665Y-76328914D01*
X99751670Y-76328911D01*
X99913911Y-76166670D01*
X99913914Y-76166665D01*
X99913919Y-76166661D01*
X100053611Y-75984612D01*
X100168344Y-75785888D01*
X100256158Y-75573887D01*
X100315548Y-75352238D01*
X100345500Y-75124734D01*
X100345500Y-74895266D01*
X100315548Y-74667762D01*
X100256158Y-74446113D01*
X100195636Y-74300000D01*
X100168349Y-74234123D01*
X100168346Y-74234117D01*
X100168344Y-74234112D01*
X100053611Y-74035388D01*
X100053608Y-74035385D01*
X100053607Y-74035382D01*
X99952764Y-73903962D01*
X99913919Y-73853339D01*
X99913918Y-73853338D01*
X99913911Y-73853330D01*
X99751670Y-73691089D01*
X99751661Y-73691081D01*
X99569617Y-73551392D01*
X99370890Y-73436657D01*
X99370876Y-73436650D01*
X99158887Y-73348842D01*
X99116494Y-73337483D01*
X98937238Y-73289452D01*
X98899215Y-73284446D01*
X98709741Y-73259500D01*
X98709734Y-73259500D01*
X98644657Y-73259500D01*
X98577618Y-73239815D01*
X98531863Y-73187011D01*
X98521919Y-73117853D01*
X98550944Y-73054297D01*
X98606338Y-73017569D01*
X98624841Y-73011557D01*
X98750992Y-72970568D01*
X98961433Y-72863343D01*
X99152510Y-72724517D01*
X99319517Y-72557510D01*
X99458343Y-72366433D01*
X99565568Y-72155992D01*
X99638553Y-71931368D01*
X99652507Y-71843265D01*
X99675500Y-71698097D01*
X99675500Y-71461902D01*
X99638553Y-71228631D01*
X99592275Y-71086203D01*
X99565568Y-71004008D01*
X99565566Y-71004005D01*
X99565566Y-71004003D01*
X99502489Y-70880208D01*
X99458343Y-70793567D01*
X99319517Y-70602490D01*
X99237027Y-70520000D01*
X101965000Y-70520000D01*
X101965000Y-77010000D01*
X118816402Y-77010000D01*
X118883441Y-77029685D01*
X118929196Y-77082489D01*
X118939140Y-77151647D01*
X118910115Y-77215203D01*
X118904083Y-77221681D01*
X117973885Y-78151877D01*
X117912562Y-78185362D01*
X117842870Y-78180378D01*
X117829911Y-78174682D01*
X117778414Y-78148444D01*
X117778413Y-78148443D01*
X117778412Y-78148443D01*
X117576243Y-78082754D01*
X117576241Y-78082753D01*
X117576240Y-78082753D01*
X117414957Y-78057208D01*
X117366287Y-78049500D01*
X117153713Y-78049500D01*
X117105042Y-78057208D01*
X116943760Y-78082753D01*
X116741585Y-78148444D01*
X116552179Y-78244951D01*
X116380213Y-78369890D01*
X116229890Y-78520213D01*
X116104951Y-78692179D01*
X116008444Y-78881585D01*
X115942753Y-79083760D01*
X115909500Y-79293713D01*
X115909500Y-79506286D01*
X115938935Y-79692135D01*
X115942754Y-79716243D01*
X116007906Y-79916760D01*
X116008444Y-79918414D01*
X116104951Y-80107820D01*
X116229890Y-80279786D01*
X116380213Y-80430109D01*
X116552179Y-80555048D01*
X116552181Y-80555049D01*
X116552184Y-80555051D01*
X116741588Y-80651557D01*
X116943757Y-80717246D01*
X117153713Y-80750500D01*
X117153714Y-80750500D01*
X117366286Y-80750500D01*
X117366287Y-80750500D01*
X117576243Y-80717246D01*
X117778412Y-80651557D01*
X117967816Y-80555051D01*
X118025141Y-80513402D01*
X118139784Y-80430110D01*
X118139784Y-80430109D01*
X118139792Y-80430104D01*
X118253329Y-80316566D01*
X118314648Y-80283084D01*
X118384340Y-80288068D01*
X118440274Y-80329939D01*
X118457189Y-80360917D01*
X118506202Y-80492328D01*
X118506206Y-80492335D01*
X118592452Y-80607544D01*
X118592455Y-80607547D01*
X118707664Y-80693793D01*
X118707671Y-80693797D01*
X118842517Y-80744091D01*
X118842516Y-80744091D01*
X118849444Y-80744835D01*
X118902127Y-80750500D01*
X120697872Y-80750499D01*
X120757483Y-80744091D01*
X120892331Y-80693796D01*
X121007546Y-80607546D01*
X121093796Y-80492331D01*
X121144091Y-80357483D01*
X121150500Y-80297873D01*
X121150499Y-79692135D01*
X122209500Y-79692135D01*
X122209500Y-81487870D01*
X122209501Y-81487876D01*
X122215908Y-81547483D01*
X122266202Y-81682328D01*
X122266206Y-81682335D01*
X122352452Y-81797544D01*
X122352455Y-81797547D01*
X122467664Y-81883793D01*
X122467671Y-81883797D01*
X122509991Y-81899581D01*
X122602517Y-81934091D01*
X122662127Y-81940500D01*
X122672685Y-81940499D01*
X122739723Y-81960179D01*
X122760372Y-81976818D01*
X123430591Y-82647037D01*
X123367007Y-82664075D01*
X123252993Y-82729901D01*
X123159901Y-82822993D01*
X123094075Y-82937007D01*
X123077037Y-83000591D01*
X122444728Y-82368282D01*
X122444727Y-82368282D01*
X122405380Y-82422439D01*
X122308904Y-82611782D01*
X122243242Y-82813869D01*
X122243242Y-82813872D01*
X122210000Y-83023753D01*
X122210000Y-83236246D01*
X122243242Y-83446127D01*
X122243242Y-83446130D01*
X122308904Y-83648217D01*
X122405375Y-83837550D01*
X122444728Y-83891716D01*
X123077037Y-83259408D01*
X123094075Y-83322993D01*
X123159901Y-83437007D01*
X123252993Y-83530099D01*
X123367007Y-83595925D01*
X123430590Y-83612962D01*
X122798282Y-84245269D01*
X122798282Y-84245270D01*
X122852452Y-84284626D01*
X122852451Y-84284626D01*
X122861495Y-84289234D01*
X122912292Y-84337208D01*
X122929087Y-84405029D01*
X122906550Y-84471164D01*
X122861499Y-84510202D01*
X122852182Y-84514949D01*
X122680213Y-84639890D01*
X122529890Y-84790213D01*
X122404951Y-84962179D01*
X122308444Y-85151585D01*
X122242753Y-85353760D01*
X122209500Y-85563713D01*
X122209500Y-85776286D01*
X122242753Y-85986239D01*
X122308444Y-86188414D01*
X122404951Y-86377820D01*
X122529890Y-86549786D01*
X122680213Y-86700109D01*
X122852179Y-86825048D01*
X122852181Y-86825049D01*
X122852184Y-86825051D01*
X123041588Y-86921557D01*
X123243757Y-86987246D01*
X123453713Y-87020500D01*
X123453714Y-87020500D01*
X123666286Y-87020500D01*
X123666287Y-87020500D01*
X123876243Y-86987246D01*
X124078412Y-86921557D01*
X124267816Y-86825051D01*
X124310949Y-86793713D01*
X126499500Y-86793713D01*
X126499500Y-87006287D01*
X126499898Y-87008797D01*
X126532753Y-87216239D01*
X126598444Y-87418414D01*
X126694951Y-87607820D01*
X126819890Y-87779786D01*
X126970213Y-87930109D01*
X127142179Y-88055048D01*
X127142181Y-88055049D01*
X127142184Y-88055051D01*
X127331588Y-88151557D01*
X127533757Y-88217246D01*
X127743713Y-88250500D01*
X127743714Y-88250500D01*
X127956286Y-88250500D01*
X127956287Y-88250500D01*
X128166243Y-88217246D01*
X128368412Y-88151557D01*
X128557816Y-88055051D01*
X128579789Y-88039086D01*
X128729786Y-87930109D01*
X128729788Y-87930106D01*
X128729792Y-87930104D01*
X128880104Y-87779792D01*
X128880106Y-87779788D01*
X128880109Y-87779786D01*
X129005048Y-87607820D01*
X129005047Y-87607820D01*
X129005051Y-87607816D01*
X129101557Y-87418412D01*
X129167246Y-87216243D01*
X129200500Y-87006287D01*
X129200500Y-86793713D01*
X129167246Y-86583757D01*
X129101557Y-86381588D01*
X129005051Y-86192184D01*
X129005049Y-86192181D01*
X129005048Y-86192179D01*
X128880109Y-86020213D01*
X128729786Y-85869890D01*
X128557820Y-85744951D01*
X128368414Y-85648444D01*
X128368413Y-85648443D01*
X128368412Y-85648443D01*
X128166243Y-85582754D01*
X128166241Y-85582753D01*
X128166240Y-85582753D01*
X128004957Y-85557208D01*
X127956287Y-85549500D01*
X127743713Y-85549500D01*
X127695042Y-85557208D01*
X127533760Y-85582753D01*
X127331585Y-85648444D01*
X127142179Y-85744951D01*
X126970213Y-85869890D01*
X126819890Y-86020213D01*
X126694951Y-86192179D01*
X126598444Y-86381585D01*
X126532753Y-86583760D01*
X126499500Y-86793713D01*
X124310949Y-86793713D01*
X124439786Y-86700109D01*
X124439788Y-86700106D01*
X124439792Y-86700104D01*
X124590104Y-86549792D01*
X124590106Y-86549788D01*
X124590109Y-86549786D01*
X124699086Y-86399789D01*
X124715051Y-86377816D01*
X124811557Y-86188412D01*
X124877246Y-85986243D01*
X124910500Y-85776287D01*
X124910500Y-85563713D01*
X124877246Y-85353757D01*
X124811557Y-85151588D01*
X124715051Y-84962184D01*
X124715049Y-84962181D01*
X124715048Y-84962179D01*
X124590109Y-84790213D01*
X124439786Y-84639890D01*
X124267817Y-84514949D01*
X124258504Y-84510204D01*
X124207707Y-84462230D01*
X124190912Y-84394409D01*
X124213449Y-84328274D01*
X124258507Y-84289232D01*
X124267555Y-84284622D01*
X124321716Y-84245270D01*
X124321717Y-84245270D01*
X123689408Y-83612962D01*
X123752993Y-83595925D01*
X123867007Y-83530099D01*
X123960099Y-83437007D01*
X124025925Y-83322993D01*
X124042962Y-83259409D01*
X124675270Y-83891717D01*
X124675270Y-83891716D01*
X124714622Y-83837554D01*
X124811095Y-83648217D01*
X124876757Y-83446130D01*
X124876757Y-83446127D01*
X124910000Y-83236246D01*
X124910000Y-83023753D01*
X124876757Y-82813872D01*
X124876757Y-82813869D01*
X124811095Y-82611782D01*
X124714624Y-82422449D01*
X124675270Y-82368282D01*
X124675269Y-82368282D01*
X124042962Y-83000590D01*
X124025925Y-82937007D01*
X123960099Y-82822993D01*
X123867007Y-82729901D01*
X123752993Y-82664075D01*
X123689409Y-82647037D01*
X124359627Y-81976818D01*
X124420950Y-81943333D01*
X124447307Y-81940499D01*
X124457872Y-81940499D01*
X124517483Y-81934091D01*
X124652331Y-81883796D01*
X124767546Y-81797546D01*
X124853796Y-81682331D01*
X124904091Y-81547483D01*
X124910500Y-81487873D01*
X124910499Y-79692128D01*
X124904091Y-79632517D01*
X124857010Y-79506287D01*
X124853797Y-79497671D01*
X124853793Y-79497664D01*
X124767547Y-79382455D01*
X124767544Y-79382452D01*
X124652335Y-79296206D01*
X124652328Y-79296202D01*
X124517482Y-79245908D01*
X124517483Y-79245908D01*
X124457883Y-79239501D01*
X124457881Y-79239500D01*
X124457873Y-79239500D01*
X124457864Y-79239500D01*
X122662129Y-79239500D01*
X122662123Y-79239501D01*
X122602516Y-79245908D01*
X122467671Y-79296202D01*
X122467664Y-79296206D01*
X122352455Y-79382452D01*
X122352452Y-79382455D01*
X122266206Y-79497664D01*
X122266202Y-79497671D01*
X122215908Y-79632517D01*
X122209857Y-79688805D01*
X122209501Y-79692123D01*
X122209500Y-79692135D01*
X121150499Y-79692135D01*
X121150499Y-79587819D01*
X121150499Y-78950096D01*
X121170183Y-78883057D01*
X121186813Y-78862420D01*
X121493713Y-78555521D01*
X121493716Y-78555520D01*
X121605520Y-78443716D01*
X121655639Y-78356904D01*
X121684577Y-78306785D01*
X121725501Y-78154057D01*
X121725501Y-77995943D01*
X121725501Y-77988348D01*
X121725500Y-77988330D01*
X121725500Y-76405443D01*
X121745185Y-76338404D01*
X121797989Y-76292649D01*
X121867147Y-76282705D01*
X121930703Y-76311730D01*
X121937181Y-76317762D01*
X121948330Y-76328911D01*
X121948338Y-76328918D01*
X121948339Y-76328919D01*
X121960700Y-76338404D01*
X122130382Y-76468607D01*
X122130385Y-76468608D01*
X122130388Y-76468611D01*
X122329112Y-76583344D01*
X122329117Y-76583346D01*
X122329123Y-76583349D01*
X122420480Y-76621190D01*
X122541113Y-76671158D01*
X122762762Y-76730548D01*
X122990266Y-76760500D01*
X122990273Y-76760500D01*
X123219727Y-76760500D01*
X123219734Y-76760500D01*
X123447238Y-76730548D01*
X123668887Y-76671158D01*
X123880888Y-76583344D01*
X124079612Y-76468611D01*
X124261661Y-76328919D01*
X124261665Y-76328914D01*
X124261670Y-76328911D01*
X124423911Y-76166670D01*
X124423914Y-76166665D01*
X124423919Y-76166661D01*
X124563611Y-75984612D01*
X124678344Y-75785888D01*
X124766158Y-75573887D01*
X124825548Y-75352238D01*
X124855500Y-75124734D01*
X124855500Y-74895266D01*
X124825548Y-74667762D01*
X124766158Y-74446113D01*
X124705636Y-74300000D01*
X124678349Y-74234123D01*
X124678346Y-74234117D01*
X124678344Y-74234112D01*
X124563611Y-74035388D01*
X124563608Y-74035385D01*
X124563607Y-74035382D01*
X124462764Y-73903962D01*
X124423919Y-73853339D01*
X124423918Y-73853338D01*
X124423911Y-73853330D01*
X124261670Y-73691089D01*
X124261661Y-73691081D01*
X124079617Y-73551392D01*
X123880890Y-73436657D01*
X123880876Y-73436650D01*
X123668887Y-73348842D01*
X123577197Y-73324274D01*
X123517538Y-73287910D01*
X123487009Y-73225063D01*
X123495304Y-73155688D01*
X123539789Y-73101810D01*
X123606341Y-73080535D01*
X123609292Y-73080500D01*
X123693097Y-73080500D01*
X123926368Y-73043553D01*
X123956197Y-73033861D01*
X124150992Y-72970568D01*
X124361433Y-72863343D01*
X124552510Y-72724517D01*
X124719517Y-72557510D01*
X124858343Y-72366433D01*
X124965568Y-72155992D01*
X125038553Y-71931368D01*
X125052507Y-71843265D01*
X125075500Y-71698097D01*
X125075500Y-71461902D01*
X125038553Y-71228631D01*
X124992275Y-71086203D01*
X124965568Y-71004008D01*
X124965566Y-71004005D01*
X124965566Y-71004003D01*
X124876958Y-70830101D01*
X124872233Y-70820827D01*
X124858343Y-70793567D01*
X124846404Y-70777135D01*
X126049500Y-70777135D01*
X126049500Y-72572870D01*
X126049501Y-72572876D01*
X126055908Y-72632483D01*
X126106202Y-72767328D01*
X126106206Y-72767335D01*
X126192452Y-72882544D01*
X126192455Y-72882547D01*
X126307664Y-72968793D01*
X126307671Y-72968797D01*
X126442517Y-73019091D01*
X126442516Y-73019091D01*
X126449444Y-73019835D01*
X126502127Y-73025500D01*
X128297872Y-73025499D01*
X128357483Y-73019091D01*
X128492331Y-72968796D01*
X128607546Y-72882546D01*
X128693796Y-72767331D01*
X128744091Y-72632483D01*
X128750500Y-72572873D01*
X128750499Y-70777128D01*
X128744091Y-70717517D01*
X128723753Y-70662989D01*
X128693797Y-70582671D01*
X128693793Y-70582664D01*
X128607547Y-70467455D01*
X128607544Y-70467452D01*
X128492335Y-70381206D01*
X128492328Y-70381202D01*
X128357482Y-70330908D01*
X128357483Y-70330908D01*
X128297883Y-70324501D01*
X128297881Y-70324500D01*
X128297873Y-70324500D01*
X128297864Y-70324500D01*
X126502129Y-70324500D01*
X126502123Y-70324501D01*
X126442516Y-70330908D01*
X126307671Y-70381202D01*
X126307664Y-70381206D01*
X126192455Y-70467452D01*
X126192452Y-70467455D01*
X126106206Y-70582664D01*
X126106202Y-70582671D01*
X126055908Y-70717517D01*
X126049501Y-70777116D01*
X126049501Y-70777123D01*
X126049500Y-70777135D01*
X124846404Y-70777135D01*
X124719517Y-70602490D01*
X124552510Y-70435483D01*
X124517872Y-70410317D01*
X124475207Y-70354989D01*
X124469228Y-70285375D01*
X124501833Y-70223580D01*
X124517873Y-70209682D01*
X124552510Y-70184517D01*
X124719517Y-70017510D01*
X124858343Y-69826433D01*
X124965568Y-69615992D01*
X125038553Y-69391368D01*
X125049605Y-69321588D01*
X125075500Y-69158097D01*
X125075500Y-68921902D01*
X125038553Y-68688631D01*
X124981220Y-68512179D01*
X124965568Y-68464008D01*
X124965566Y-68464005D01*
X124965566Y-68464003D01*
X124897343Y-68330109D01*
X124858343Y-68253567D01*
X124719517Y-68062490D01*
X124552510Y-67895483D01*
X124517872Y-67870317D01*
X124475207Y-67814989D01*
X124469228Y-67745375D01*
X124501833Y-67683580D01*
X124517873Y-67669682D01*
X124552510Y-67644517D01*
X124719517Y-67477510D01*
X124858343Y-67286433D01*
X124965568Y-67075992D01*
X125038553Y-66851368D01*
X125045682Y-66806355D01*
X125075500Y-66618097D01*
X125075500Y-66381902D01*
X125038553Y-66148631D01*
X124965566Y-65924003D01*
X124858342Y-65713566D01*
X124805793Y-65641239D01*
X124719517Y-65522490D01*
X124552510Y-65355483D01*
X124517872Y-65330317D01*
X124475207Y-65274989D01*
X124469228Y-65205375D01*
X124501833Y-65143580D01*
X124517873Y-65129682D01*
X124552510Y-65104517D01*
X124719517Y-64937510D01*
X124858343Y-64746433D01*
X124965568Y-64535992D01*
X125038553Y-64311368D01*
X125055196Y-64206287D01*
X125075500Y-64078097D01*
X125075500Y-63841902D01*
X125038553Y-63608631D01*
X125000922Y-63492816D01*
X124965568Y-63384008D01*
X124965566Y-63384005D01*
X124965566Y-63384003D01*
X124882108Y-63220208D01*
X124858343Y-63173567D01*
X124719517Y-62982490D01*
X124552510Y-62815483D01*
X124517872Y-62790317D01*
X124475207Y-62734989D01*
X124469228Y-62665375D01*
X124501833Y-62603580D01*
X124517873Y-62589682D01*
X124552510Y-62564517D01*
X124719517Y-62397510D01*
X124858343Y-62206433D01*
X124965568Y-61995992D01*
X125038553Y-61771368D01*
X125044605Y-61733160D01*
X125075500Y-61538097D01*
X125075500Y-61301902D01*
X125038553Y-61068631D01*
X124986302Y-60907820D01*
X124965568Y-60844008D01*
X124965566Y-60844005D01*
X124965566Y-60844003D01*
X124886510Y-60688848D01*
X124858343Y-60633567D01*
X124719517Y-60442490D01*
X124552510Y-60275483D01*
X124517872Y-60250317D01*
X124475207Y-60194989D01*
X124469228Y-60125375D01*
X124501833Y-60063580D01*
X124517873Y-60049682D01*
X124552510Y-60024517D01*
X124719517Y-59857510D01*
X124858343Y-59666433D01*
X124965568Y-59455992D01*
X125038553Y-59231368D01*
X125046290Y-59182517D01*
X125075500Y-58998097D01*
X125075500Y-58761902D01*
X125038553Y-58528631D01*
X124999898Y-58409664D01*
X124965568Y-58304008D01*
X124965566Y-58304005D01*
X124965566Y-58304003D01*
X124886510Y-58148848D01*
X124858343Y-58093567D01*
X124719517Y-57902490D01*
X124552510Y-57735483D01*
X124517872Y-57710317D01*
X124475207Y-57654989D01*
X124469228Y-57585375D01*
X124501833Y-57523580D01*
X124517873Y-57509682D01*
X124532855Y-57498797D01*
X124552510Y-57484517D01*
X124719517Y-57317510D01*
X124858343Y-57126433D01*
X124965568Y-56915992D01*
X125000938Y-56807135D01*
X125999500Y-56807135D01*
X125999500Y-58602870D01*
X125999501Y-58602876D01*
X126005908Y-58662483D01*
X126056202Y-58797328D01*
X126056206Y-58797335D01*
X126142452Y-58912544D01*
X126142455Y-58912547D01*
X126257664Y-58998793D01*
X126257671Y-58998797D01*
X126389082Y-59047810D01*
X126445016Y-59089681D01*
X126469433Y-59155145D01*
X126454582Y-59223418D01*
X126433431Y-59251673D01*
X126319889Y-59365215D01*
X126194951Y-59537179D01*
X126098444Y-59726585D01*
X126098443Y-59726587D01*
X126098443Y-59726588D01*
X126065598Y-59827672D01*
X126032753Y-59928760D01*
X126011400Y-60063580D01*
X125999500Y-60138713D01*
X125999500Y-60351287D01*
X126002910Y-60372814D01*
X126025626Y-60516243D01*
X126032754Y-60561243D01*
X126083822Y-60718414D01*
X126098444Y-60763414D01*
X126194951Y-60952820D01*
X126319890Y-61124786D01*
X126470213Y-61275109D01*
X126642182Y-61400050D01*
X126650946Y-61404516D01*
X126701742Y-61452491D01*
X126718536Y-61520312D01*
X126695998Y-61586447D01*
X126650946Y-61625484D01*
X126642182Y-61629949D01*
X126470213Y-61754890D01*
X126319890Y-61905213D01*
X126194951Y-62077179D01*
X126098444Y-62266585D01*
X126098443Y-62266587D01*
X126098443Y-62266588D01*
X126082119Y-62316829D01*
X126032753Y-62468760D01*
X126016173Y-62573443D01*
X125999500Y-62678713D01*
X125999500Y-62891287D01*
X126032754Y-63101243D01*
X126071408Y-63220208D01*
X126098444Y-63303414D01*
X126194951Y-63492820D01*
X126319890Y-63664786D01*
X126470213Y-63815109D01*
X126642182Y-63940050D01*
X126650946Y-63944516D01*
X126701742Y-63992491D01*
X126718536Y-64060312D01*
X126695998Y-64126447D01*
X126650946Y-64165484D01*
X126642182Y-64169949D01*
X126470213Y-64294890D01*
X126319890Y-64445213D01*
X126194951Y-64617179D01*
X126098444Y-64806585D01*
X126098443Y-64806587D01*
X126098443Y-64806588D01*
X126068787Y-64897859D01*
X126032753Y-65008760D01*
X125999500Y-65218713D01*
X125999500Y-65431286D01*
X126024268Y-65587669D01*
X126032754Y-65641243D01*
X126078530Y-65782127D01*
X126098444Y-65843414D01*
X126194951Y-66032820D01*
X126319890Y-66204786D01*
X126470213Y-66355109D01*
X126642179Y-66480048D01*
X126642181Y-66480049D01*
X126642184Y-66480051D01*
X126831588Y-66576557D01*
X127033757Y-66642246D01*
X127243713Y-66675500D01*
X127243714Y-66675500D01*
X127456286Y-66675500D01*
X127456287Y-66675500D01*
X127666243Y-66642246D01*
X127868412Y-66576557D01*
X128057816Y-66480051D01*
X128140177Y-66420213D01*
X128229786Y-66355109D01*
X128229788Y-66355106D01*
X128229792Y-66355104D01*
X128380104Y-66204792D01*
X128380106Y-66204788D01*
X128380109Y-66204786D01*
X128505048Y-66032820D01*
X128505047Y-66032820D01*
X128505051Y-66032816D01*
X128601557Y-65843412D01*
X128667246Y-65641243D01*
X128700500Y-65431287D01*
X128700500Y-65218713D01*
X128667246Y-65008757D01*
X128601557Y-64806588D01*
X128505051Y-64617184D01*
X128505049Y-64617181D01*
X128505048Y-64617179D01*
X128380109Y-64445213D01*
X128229786Y-64294890D01*
X128057820Y-64169951D01*
X128057115Y-64169591D01*
X128049054Y-64165485D01*
X127998259Y-64117512D01*
X127981463Y-64049692D01*
X128003999Y-63983556D01*
X128049054Y-63944515D01*
X128057816Y-63940051D01*
X128081988Y-63922489D01*
X128229786Y-63815109D01*
X128229788Y-63815106D01*
X128229792Y-63815104D01*
X128380104Y-63664792D01*
X128380106Y-63664788D01*
X128380109Y-63664786D01*
X128505048Y-63492820D01*
X128505047Y-63492820D01*
X128505051Y-63492816D01*
X128601557Y-63303412D01*
X128667246Y-63101243D01*
X128700500Y-62891287D01*
X128700500Y-62678713D01*
X128667246Y-62468757D01*
X128601557Y-62266588D01*
X128505051Y-62077184D01*
X128505049Y-62077181D01*
X128505048Y-62077179D01*
X128380109Y-61905213D01*
X128229786Y-61754890D01*
X128057820Y-61629951D01*
X128057115Y-61629591D01*
X128049054Y-61625485D01*
X127998259Y-61577512D01*
X127981463Y-61509692D01*
X128003999Y-61443556D01*
X128049054Y-61404515D01*
X128057816Y-61400051D01*
X128130082Y-61347547D01*
X128229786Y-61275109D01*
X128229788Y-61275106D01*
X128229792Y-61275104D01*
X128380104Y-61124792D01*
X128380106Y-61124788D01*
X128380109Y-61124786D01*
X128505048Y-60952820D01*
X128505047Y-60952820D01*
X128505051Y-60952816D01*
X128601557Y-60763412D01*
X128667246Y-60561243D01*
X128700500Y-60351287D01*
X128700500Y-60138713D01*
X128667246Y-59928757D01*
X128601557Y-59726588D01*
X128505051Y-59537184D01*
X128505049Y-59537181D01*
X128505048Y-59537179D01*
X128380109Y-59365213D01*
X128266569Y-59251673D01*
X128233084Y-59190350D01*
X128238068Y-59120658D01*
X128279940Y-59064725D01*
X128310915Y-59047810D01*
X128442331Y-58998796D01*
X128557546Y-58912546D01*
X128643796Y-58797331D01*
X128694091Y-58662483D01*
X128700500Y-58602873D01*
X128700499Y-56807128D01*
X128694091Y-56747517D01*
X128683907Y-56720213D01*
X128643797Y-56612671D01*
X128643793Y-56612664D01*
X128557547Y-56497455D01*
X128557544Y-56497452D01*
X128442335Y-56411206D01*
X128442328Y-56411202D01*
X128307482Y-56360908D01*
X128307483Y-56360908D01*
X128247883Y-56354501D01*
X128247881Y-56354500D01*
X128247873Y-56354500D01*
X128247864Y-56354500D01*
X126452129Y-56354500D01*
X126452123Y-56354501D01*
X126392516Y-56360908D01*
X126257671Y-56411202D01*
X126257664Y-56411206D01*
X126142455Y-56497452D01*
X126142452Y-56497455D01*
X126056206Y-56612664D01*
X126056202Y-56612671D01*
X126005908Y-56747517D01*
X125999501Y-56807116D01*
X125999501Y-56807123D01*
X125999500Y-56807135D01*
X125000938Y-56807135D01*
X125038553Y-56691368D01*
X125048290Y-56629890D01*
X125075500Y-56458097D01*
X125075500Y-56221902D01*
X125038553Y-55988631D01*
X124986302Y-55827820D01*
X124965568Y-55764008D01*
X124965566Y-55764005D01*
X124965566Y-55764003D01*
X124886510Y-55608848D01*
X124858343Y-55553567D01*
X124719517Y-55362490D01*
X124552510Y-55195483D01*
X124551915Y-55195051D01*
X124517873Y-55170318D01*
X124475207Y-55114989D01*
X124469228Y-55045375D01*
X124501833Y-54983580D01*
X124517873Y-54969682D01*
X124552510Y-54944517D01*
X124719517Y-54777510D01*
X124858343Y-54586433D01*
X124965568Y-54375992D01*
X125038553Y-54151368D01*
X125041015Y-54135821D01*
X125075500Y-53918097D01*
X125075500Y-53681902D01*
X125038553Y-53448631D01*
X124984319Y-53281717D01*
X124965568Y-53224008D01*
X124965566Y-53224005D01*
X124965566Y-53224003D01*
X124909002Y-53112991D01*
X124858343Y-53013567D01*
X124719517Y-52822490D01*
X124552510Y-52655483D01*
X124551915Y-52655051D01*
X124517873Y-52630318D01*
X124475207Y-52574989D01*
X124469228Y-52505375D01*
X124501833Y-52443580D01*
X124517873Y-52429682D01*
X124552510Y-52404517D01*
X124719517Y-52237510D01*
X124858343Y-52046433D01*
X124965568Y-51835992D01*
X125038553Y-51611368D01*
X125062595Y-51459574D01*
X125075500Y-51378097D01*
X125075500Y-51141902D01*
X125038553Y-50908631D01*
X124981720Y-50733718D01*
X124965568Y-50684008D01*
X124965566Y-50684005D01*
X124965566Y-50684003D01*
X124909002Y-50572991D01*
X124858343Y-50473567D01*
X124719517Y-50282490D01*
X124552510Y-50115483D01*
X124551915Y-50115051D01*
X124517873Y-50090318D01*
X124475207Y-50034989D01*
X124469228Y-49965375D01*
X124501833Y-49903580D01*
X124517873Y-49889682D01*
X124552510Y-49864517D01*
X124719517Y-49697510D01*
X124858343Y-49506433D01*
X124965568Y-49295992D01*
X125038553Y-49071368D01*
X125049023Y-49005261D01*
X125075500Y-48838097D01*
X125075500Y-48601902D01*
X125038553Y-48368631D01*
X124965566Y-48144003D01*
X124897504Y-48010425D01*
X124858343Y-47933567D01*
X124719517Y-47742490D01*
X124552510Y-47575483D01*
X124551915Y-47575051D01*
X124517873Y-47550318D01*
X124475207Y-47494989D01*
X124469228Y-47425375D01*
X124501833Y-47363580D01*
X124517873Y-47349682D01*
X124552510Y-47324517D01*
X124719517Y-47157510D01*
X124858343Y-46966433D01*
X124965568Y-46755992D01*
X125038553Y-46531368D01*
X125051560Y-46449243D01*
X125075500Y-46298097D01*
X125075500Y-46061902D01*
X125038553Y-45828631D01*
X124965566Y-45604003D01*
X124897506Y-45470429D01*
X124858343Y-45393567D01*
X124719517Y-45202490D01*
X124552510Y-45035483D01*
X124517872Y-45010317D01*
X124475207Y-44954989D01*
X124469228Y-44885375D01*
X124501833Y-44823580D01*
X124517873Y-44809682D01*
X124519383Y-44808585D01*
X124552510Y-44784517D01*
X124719517Y-44617510D01*
X124858343Y-44426433D01*
X124965568Y-44215992D01*
X125038553Y-43991368D01*
X125049554Y-43921912D01*
X125075500Y-43758097D01*
X125075500Y-43521902D01*
X125038553Y-43288631D01*
X125015977Y-43219151D01*
X124965568Y-43064008D01*
X124965565Y-43064004D01*
X124965565Y-43064001D01*
X124950840Y-43035102D01*
X124950839Y-43035101D01*
X124923852Y-42982135D01*
X125999500Y-42982135D01*
X125999500Y-44777870D01*
X125999501Y-44777876D01*
X126005908Y-44837483D01*
X126056202Y-44972328D01*
X126056206Y-44972335D01*
X126142452Y-45087544D01*
X126142455Y-45087547D01*
X126257664Y-45173793D01*
X126257671Y-45173797D01*
X126389082Y-45222810D01*
X126445016Y-45264681D01*
X126469433Y-45330145D01*
X126454582Y-45398418D01*
X126433431Y-45426673D01*
X126319889Y-45540215D01*
X126194951Y-45712179D01*
X126098444Y-45901585D01*
X126098443Y-45901587D01*
X126098443Y-45901588D01*
X126082959Y-45949243D01*
X126032753Y-46103760D01*
X126025429Y-46150003D01*
X125999500Y-46313713D01*
X125999500Y-46526287D01*
X126009534Y-46589644D01*
X126026904Y-46699312D01*
X126032754Y-46736243D01*
X126093062Y-46921852D01*
X126098444Y-46938414D01*
X126194951Y-47127820D01*
X126319890Y-47299786D01*
X126470213Y-47450109D01*
X126642182Y-47575050D01*
X126650946Y-47579516D01*
X126701742Y-47627491D01*
X126718536Y-47695312D01*
X126695998Y-47761447D01*
X126650946Y-47800484D01*
X126642182Y-47804949D01*
X126470213Y-47929890D01*
X126319890Y-48080213D01*
X126194951Y-48252179D01*
X126098444Y-48441585D01*
X126098443Y-48441587D01*
X126098443Y-48441588D01*
X126085960Y-48480007D01*
X126032753Y-48643760D01*
X125999500Y-48853713D01*
X125999500Y-49066286D01*
X126013267Y-49153211D01*
X126032754Y-49276243D01*
X126071609Y-49395827D01*
X126098444Y-49478414D01*
X126194951Y-49667820D01*
X126319890Y-49839786D01*
X126470213Y-49990109D01*
X126642182Y-50115050D01*
X126650946Y-50119516D01*
X126701742Y-50167491D01*
X126718536Y-50235312D01*
X126695998Y-50301447D01*
X126650946Y-50340484D01*
X126642182Y-50344949D01*
X126470213Y-50469890D01*
X126319890Y-50620213D01*
X126194951Y-50792179D01*
X126098444Y-50981585D01*
X126032753Y-51183760D01*
X126002867Y-51372452D01*
X125999500Y-51393713D01*
X125999500Y-51606287D01*
X126002071Y-51622517D01*
X126032152Y-51812447D01*
X126032754Y-51816243D01*
X126098214Y-52017708D01*
X126098444Y-52018414D01*
X126194951Y-52207820D01*
X126319890Y-52379786D01*
X126470213Y-52530109D01*
X126642182Y-52655050D01*
X126650946Y-52659516D01*
X126701742Y-52707491D01*
X126718536Y-52775312D01*
X126695998Y-52841447D01*
X126650946Y-52880484D01*
X126642182Y-52884949D01*
X126470213Y-53009890D01*
X126319890Y-53160213D01*
X126194951Y-53332179D01*
X126098444Y-53521585D01*
X126098443Y-53521587D01*
X126098443Y-53521588D01*
X126093278Y-53537483D01*
X126032753Y-53723760D01*
X126005915Y-53893210D01*
X125999500Y-53933713D01*
X125999500Y-54146287D01*
X126003816Y-54173536D01*
X126032338Y-54353620D01*
X126032754Y-54356243D01*
X126058718Y-54436153D01*
X126098444Y-54558414D01*
X126194951Y-54747820D01*
X126319890Y-54919786D01*
X126470213Y-55070109D01*
X126642179Y-55195048D01*
X126642181Y-55195049D01*
X126642184Y-55195051D01*
X126831588Y-55291557D01*
X127033757Y-55357246D01*
X127243713Y-55390500D01*
X127243714Y-55390500D01*
X127456286Y-55390500D01*
X127456287Y-55390500D01*
X127666243Y-55357246D01*
X127868412Y-55291557D01*
X128057816Y-55195051D01*
X128168013Y-55114989D01*
X128229786Y-55070109D01*
X128229788Y-55070106D01*
X128229792Y-55070104D01*
X128380104Y-54919792D01*
X128380106Y-54919788D01*
X128380109Y-54919786D01*
X128505048Y-54747820D01*
X128505047Y-54747820D01*
X128505051Y-54747816D01*
X128601557Y-54558412D01*
X128667246Y-54356243D01*
X128700500Y-54146287D01*
X128700500Y-53933713D01*
X128667246Y-53723757D01*
X128601557Y-53521588D01*
X128505051Y-53332184D01*
X128505049Y-53332181D01*
X128505048Y-53332179D01*
X128380109Y-53160213D01*
X128229786Y-53009890D01*
X128057820Y-52884951D01*
X128057115Y-52884591D01*
X128049054Y-52880485D01*
X127998259Y-52832512D01*
X127981463Y-52764692D01*
X128003999Y-52698556D01*
X128049054Y-52659515D01*
X128057816Y-52655051D01*
X128168013Y-52574989D01*
X128229786Y-52530109D01*
X128229788Y-52530106D01*
X128229792Y-52530104D01*
X128380104Y-52379792D01*
X128380106Y-52379788D01*
X128380109Y-52379786D01*
X128505048Y-52207820D01*
X128505047Y-52207820D01*
X128505051Y-52207816D01*
X128601557Y-52018412D01*
X128667246Y-51816243D01*
X128700500Y-51606287D01*
X128700500Y-51393713D01*
X128667246Y-51183757D01*
X128601557Y-50981588D01*
X128505051Y-50792184D01*
X128505049Y-50792181D01*
X128505048Y-50792179D01*
X128380109Y-50620213D01*
X128229786Y-50469890D01*
X128057820Y-50344951D01*
X128057115Y-50344591D01*
X128049054Y-50340485D01*
X127998259Y-50292512D01*
X127981463Y-50224692D01*
X128003999Y-50158556D01*
X128049054Y-50119515D01*
X128057816Y-50115051D01*
X128168013Y-50034989D01*
X128229786Y-49990109D01*
X128229788Y-49990106D01*
X128229792Y-49990104D01*
X128380104Y-49839792D01*
X128380106Y-49839788D01*
X128380109Y-49839786D01*
X128489086Y-49689789D01*
X128505051Y-49667816D01*
X128601557Y-49478412D01*
X128667246Y-49276243D01*
X128700500Y-49066287D01*
X128700500Y-48853713D01*
X128667246Y-48643757D01*
X128601557Y-48441588D01*
X128505051Y-48252184D01*
X128505049Y-48252181D01*
X128505048Y-48252179D01*
X128380109Y-48080213D01*
X128229786Y-47929890D01*
X128057820Y-47804951D01*
X128057115Y-47804591D01*
X128049054Y-47800485D01*
X127998259Y-47752512D01*
X127981463Y-47684692D01*
X128003999Y-47618556D01*
X128049054Y-47579515D01*
X128057816Y-47575051D01*
X128091858Y-47550318D01*
X128229786Y-47450109D01*
X128229788Y-47450106D01*
X128229792Y-47450104D01*
X128380104Y-47299792D01*
X128380106Y-47299788D01*
X128380109Y-47299786D01*
X128505048Y-47127820D01*
X128505047Y-47127820D01*
X128505051Y-47127816D01*
X128601557Y-46938412D01*
X128667246Y-46736243D01*
X128700500Y-46526287D01*
X128700500Y-46313713D01*
X128667246Y-46103757D01*
X128601557Y-45901588D01*
X128505051Y-45712184D01*
X128505049Y-45712181D01*
X128505048Y-45712179D01*
X128380109Y-45540213D01*
X128266569Y-45426673D01*
X128233084Y-45365350D01*
X128238068Y-45295658D01*
X128279940Y-45239725D01*
X128310915Y-45222810D01*
X128442331Y-45173796D01*
X128557546Y-45087546D01*
X128643796Y-44972331D01*
X128694091Y-44837483D01*
X128700500Y-44777873D01*
X128700499Y-42982128D01*
X128694091Y-42922517D01*
X128668374Y-42853567D01*
X128643797Y-42787671D01*
X128643793Y-42787664D01*
X128557547Y-42672455D01*
X128557544Y-42672452D01*
X128442335Y-42586206D01*
X128442328Y-42586202D01*
X128307482Y-42535908D01*
X128307483Y-42535908D01*
X128247883Y-42529501D01*
X128247881Y-42529500D01*
X128247873Y-42529500D01*
X128247864Y-42529500D01*
X126452129Y-42529500D01*
X126452123Y-42529501D01*
X126392516Y-42535908D01*
X126257671Y-42586202D01*
X126257664Y-42586206D01*
X126142455Y-42672452D01*
X126142452Y-42672455D01*
X126056206Y-42787664D01*
X126056202Y-42787671D01*
X126005908Y-42922517D01*
X125999501Y-42982116D01*
X125999501Y-42982123D01*
X125999500Y-42982135D01*
X124923852Y-42982135D01*
X124858343Y-42853567D01*
X124719517Y-42662490D01*
X124552510Y-42495483D01*
X124517872Y-42470317D01*
X124475207Y-42414989D01*
X124469228Y-42345375D01*
X124501833Y-42283580D01*
X124517873Y-42269682D01*
X124552510Y-42244517D01*
X124719517Y-42077510D01*
X124858343Y-41886433D01*
X124965568Y-41675992D01*
X125038553Y-41451368D01*
X125047522Y-41394738D01*
X125075500Y-41218097D01*
X125075500Y-40981902D01*
X125038553Y-40748631D01*
X124979646Y-40567335D01*
X124965568Y-40524008D01*
X124965566Y-40524005D01*
X124965566Y-40524003D01*
X124888556Y-40372864D01*
X124858343Y-40313567D01*
X124719517Y-40122490D01*
X124552510Y-39955483D01*
X124493282Y-39912451D01*
X124450617Y-39857122D01*
X124442550Y-39802404D01*
X124444104Y-39782657D01*
X123712574Y-39051128D01*
X123771853Y-39035245D01*
X123888147Y-38968102D01*
X123983102Y-38873147D01*
X124050245Y-38756853D01*
X124066128Y-38697575D01*
X124797658Y-39429105D01*
X124797658Y-39429104D01*
X124857914Y-39346169D01*
X124857918Y-39346163D01*
X124867613Y-39327135D01*
X125974500Y-39327135D01*
X125974500Y-41122870D01*
X125974501Y-41122876D01*
X125980908Y-41182483D01*
X126031202Y-41317328D01*
X126031206Y-41317335D01*
X126117452Y-41432544D01*
X126117455Y-41432547D01*
X126232664Y-41518793D01*
X126232671Y-41518797D01*
X126367517Y-41569091D01*
X126367516Y-41569091D01*
X126374444Y-41569835D01*
X126427127Y-41575500D01*
X128222872Y-41575499D01*
X128282483Y-41569091D01*
X128417331Y-41518796D01*
X128532546Y-41432546D01*
X128618796Y-41317331D01*
X128669091Y-41182483D01*
X128675500Y-41122873D01*
X128675499Y-39327128D01*
X128669091Y-39267517D01*
X128659818Y-39242656D01*
X128618797Y-39132671D01*
X128618793Y-39132664D01*
X128532547Y-39017455D01*
X128532544Y-39017452D01*
X128417335Y-38931206D01*
X128417328Y-38931202D01*
X128282482Y-38880908D01*
X128282483Y-38880908D01*
X128222883Y-38874501D01*
X128222881Y-38874500D01*
X128222873Y-38874500D01*
X128222864Y-38874500D01*
X126427129Y-38874500D01*
X126427123Y-38874501D01*
X126367516Y-38880908D01*
X126232671Y-38931202D01*
X126232664Y-38931206D01*
X126117455Y-39017452D01*
X126117452Y-39017455D01*
X126031206Y-39132664D01*
X126031202Y-39132671D01*
X125980908Y-39267517D01*
X125974501Y-39327116D01*
X125974501Y-39327123D01*
X125974500Y-39327135D01*
X124867613Y-39327135D01*
X124897994Y-39267511D01*
X124965102Y-39135802D01*
X125038065Y-38911247D01*
X125075000Y-38678052D01*
X125075000Y-38441947D01*
X125038065Y-38208752D01*
X124965102Y-37984197D01*
X124857914Y-37773828D01*
X124797658Y-37690894D01*
X124797658Y-37690893D01*
X124066128Y-38422424D01*
X124050245Y-38363147D01*
X123983102Y-38246853D01*
X123888147Y-38151898D01*
X123771853Y-38084755D01*
X123712574Y-38068871D01*
X124444105Y-37337340D01*
X124442551Y-37317594D01*
X124456915Y-37249216D01*
X124493284Y-37207547D01*
X124552510Y-37164517D01*
X124719517Y-36997510D01*
X124858343Y-36806433D01*
X124965568Y-36595992D01*
X125038553Y-36371368D01*
X125052741Y-36281789D01*
X125075500Y-36138097D01*
X125075500Y-35901902D01*
X125038553Y-35668631D01*
X124965566Y-35444003D01*
X124882420Y-35280821D01*
X124858343Y-35233567D01*
X124719517Y-35042490D01*
X124552510Y-34875483D01*
X124361433Y-34736657D01*
X124150996Y-34629433D01*
X123926368Y-34556446D01*
X123693097Y-34519500D01*
X123693092Y-34519500D01*
X123456908Y-34519500D01*
X123456903Y-34519500D01*
X123223631Y-34556446D01*
X122999003Y-34629433D01*
X122788566Y-34736657D01*
X122732119Y-34777669D01*
X122597490Y-34875483D01*
X122597488Y-34875485D01*
X122597487Y-34875485D01*
X122430485Y-35042487D01*
X122430485Y-35042488D01*
X122430483Y-35042490D01*
X122386651Y-35102820D01*
X122291657Y-35233566D01*
X122184433Y-35444003D01*
X122111446Y-35668631D01*
X122074500Y-35901902D01*
X122074500Y-36138097D01*
X122111446Y-36371368D01*
X122184433Y-36595996D01*
X122218471Y-36662798D01*
X122291657Y-36806433D01*
X122430483Y-36997510D01*
X122597490Y-37164517D01*
X122656716Y-37207547D01*
X122699381Y-37262875D01*
X122707448Y-37317593D01*
X122705893Y-37337340D01*
X123437425Y-38068871D01*
X123378147Y-38084755D01*
X123261853Y-38151898D01*
X123166898Y-38246853D01*
X123099755Y-38363147D01*
X123083871Y-38422425D01*
X122352340Y-37690894D01*
X122292084Y-37773830D01*
X122184897Y-37984197D01*
X122111934Y-38208752D01*
X122075000Y-38441947D01*
X122075000Y-38678052D01*
X122111934Y-38911247D01*
X122184897Y-39135802D01*
X122292087Y-39346174D01*
X122352338Y-39429104D01*
X122352340Y-39429105D01*
X123083871Y-38697574D01*
X123099755Y-38756853D01*
X123166898Y-38873147D01*
X123261853Y-38968102D01*
X123378147Y-39035245D01*
X123437425Y-39051128D01*
X122705893Y-39782658D01*
X122707448Y-39802405D01*
X122693084Y-39870783D01*
X122656717Y-39912451D01*
X122597490Y-39955482D01*
X122430485Y-40122487D01*
X122430485Y-40122488D01*
X122430483Y-40122490D01*
X122370862Y-40204550D01*
X122291657Y-40313566D01*
X122184433Y-40524003D01*
X122111446Y-40748631D01*
X122074500Y-40981902D01*
X122074500Y-41218097D01*
X122111446Y-41451368D01*
X122184433Y-41675996D01*
X122252405Y-41809397D01*
X122291657Y-41886433D01*
X122430483Y-42077510D01*
X122597490Y-42244517D01*
X122632127Y-42269683D01*
X122674792Y-42325013D01*
X122680771Y-42394626D01*
X122648165Y-42456421D01*
X122632130Y-42470315D01*
X122614365Y-42483222D01*
X122597488Y-42495484D01*
X122430485Y-42662487D01*
X122430485Y-42662488D01*
X122430483Y-42662490D01*
X122423244Y-42672454D01*
X122291657Y-42853566D01*
X122184433Y-43064003D01*
X122111446Y-43288631D01*
X122074500Y-43521902D01*
X122074500Y-43758097D01*
X122111446Y-43991368D01*
X122184433Y-44215996D01*
X122238198Y-44321514D01*
X122291657Y-44426433D01*
X122430483Y-44617510D01*
X122597490Y-44784517D01*
X122632127Y-44809683D01*
X122674792Y-44865013D01*
X122680771Y-44934626D01*
X122648165Y-44996421D01*
X122632130Y-45010315D01*
X122629257Y-45012403D01*
X122597488Y-45035484D01*
X122430485Y-45202487D01*
X122430485Y-45202488D01*
X122430483Y-45202490D01*
X122385104Y-45264949D01*
X122291657Y-45393566D01*
X122184433Y-45604003D01*
X122111446Y-45828631D01*
X122074500Y-46061902D01*
X122074500Y-46298097D01*
X122111446Y-46531368D01*
X122184433Y-46755996D01*
X122290315Y-46963800D01*
X122291657Y-46966433D01*
X122430483Y-47157510D01*
X122597490Y-47324517D01*
X122632127Y-47349683D01*
X122674792Y-47405013D01*
X122680771Y-47474626D01*
X122648165Y-47536421D01*
X122632130Y-47550315D01*
X122629257Y-47552403D01*
X122597488Y-47575484D01*
X122430485Y-47742487D01*
X122430485Y-47742488D01*
X122430483Y-47742490D01*
X122413296Y-47766146D01*
X122291657Y-47933566D01*
X122184433Y-48144003D01*
X122111446Y-48368631D01*
X122074500Y-48601902D01*
X122074500Y-48838097D01*
X122111446Y-49071368D01*
X122184433Y-49295996D01*
X122278322Y-49480261D01*
X122291657Y-49506433D01*
X122430483Y-49697510D01*
X122597490Y-49864517D01*
X122632127Y-49889683D01*
X122674792Y-49945013D01*
X122680771Y-50014626D01*
X122648165Y-50076421D01*
X122632130Y-50090315D01*
X122614365Y-50103222D01*
X122597488Y-50115484D01*
X122430485Y-50282487D01*
X122430485Y-50282488D01*
X122430483Y-50282490D01*
X122388348Y-50340484D01*
X122291657Y-50473566D01*
X122184433Y-50684003D01*
X122111446Y-50908631D01*
X122074500Y-51141902D01*
X122074500Y-51378097D01*
X122111446Y-51611368D01*
X122184433Y-51835996D01*
X122278189Y-52020000D01*
X122291657Y-52046433D01*
X122430483Y-52237510D01*
X122597490Y-52404517D01*
X122632127Y-52429683D01*
X122674792Y-52485013D01*
X122680771Y-52554626D01*
X122648165Y-52616421D01*
X122632130Y-52630315D01*
X122614365Y-52643222D01*
X122597488Y-52655484D01*
X122430485Y-52822487D01*
X122430485Y-52822488D01*
X122430483Y-52822490D01*
X122420573Y-52836130D01*
X122291657Y-53013566D01*
X122184433Y-53224003D01*
X122111446Y-53448631D01*
X122074500Y-53681902D01*
X122074500Y-53918097D01*
X122111446Y-54151368D01*
X122184433Y-54375996D01*
X122291657Y-54586433D01*
X122430483Y-54777510D01*
X122597490Y-54944517D01*
X122632127Y-54969683D01*
X122674792Y-55025013D01*
X122680771Y-55094626D01*
X122648165Y-55156421D01*
X122632130Y-55170315D01*
X122614365Y-55183222D01*
X122597488Y-55195484D01*
X122430485Y-55362487D01*
X122430485Y-55362488D01*
X122430483Y-55362490D01*
X122376901Y-55436239D01*
X122291657Y-55553566D01*
X122184433Y-55764003D01*
X122111446Y-55988631D01*
X122074500Y-56221902D01*
X122074500Y-56458097D01*
X122111446Y-56691368D01*
X122184433Y-56915996D01*
X122279658Y-57102883D01*
X122291657Y-57126433D01*
X122430483Y-57317510D01*
X122597490Y-57484517D01*
X122632127Y-57509683D01*
X122674792Y-57565013D01*
X122680771Y-57634626D01*
X122648165Y-57696421D01*
X122632130Y-57710315D01*
X122614365Y-57723222D01*
X122597488Y-57735484D01*
X122430485Y-57902487D01*
X122430485Y-57902488D01*
X122430483Y-57902490D01*
X122420494Y-57916239D01*
X122291657Y-58093566D01*
X122184433Y-58304003D01*
X122111446Y-58528631D01*
X122074500Y-58761902D01*
X122074500Y-58998097D01*
X122111446Y-59231368D01*
X122184433Y-59455996D01*
X122225801Y-59537184D01*
X122291657Y-59666433D01*
X122430483Y-59857510D01*
X122597490Y-60024517D01*
X122632127Y-60049683D01*
X122674792Y-60105013D01*
X122680771Y-60174626D01*
X122648165Y-60236421D01*
X122632130Y-60250315D01*
X122614365Y-60263222D01*
X122597488Y-60275484D01*
X122430485Y-60442487D01*
X122430485Y-60442488D01*
X122430483Y-60442490D01*
X122414580Y-60464379D01*
X122291657Y-60633566D01*
X122184433Y-60844003D01*
X122111446Y-61068631D01*
X122074500Y-61301902D01*
X122074500Y-61538097D01*
X122111446Y-61771368D01*
X122184433Y-61995996D01*
X122225801Y-62077184D01*
X122291657Y-62206433D01*
X122430483Y-62397510D01*
X122597490Y-62564517D01*
X122632127Y-62589683D01*
X122674792Y-62645013D01*
X122680771Y-62714626D01*
X122648165Y-62776421D01*
X122632130Y-62790315D01*
X122615858Y-62802138D01*
X122597488Y-62815484D01*
X122430485Y-62982487D01*
X122430485Y-62982488D01*
X122430483Y-62982490D01*
X122370862Y-63064550D01*
X122291657Y-63173566D01*
X122184433Y-63384003D01*
X122111446Y-63608631D01*
X122074500Y-63841902D01*
X122074500Y-64078097D01*
X122111446Y-64311368D01*
X122184433Y-64535996D01*
X122283938Y-64731284D01*
X122291657Y-64746433D01*
X122430483Y-64937510D01*
X122597490Y-65104517D01*
X122632127Y-65129683D01*
X122674792Y-65185013D01*
X122680771Y-65254626D01*
X122648165Y-65316421D01*
X122632130Y-65330315D01*
X122624431Y-65335909D01*
X122597488Y-65355484D01*
X122430485Y-65522487D01*
X122430485Y-65522488D01*
X122430483Y-65522490D01*
X122393126Y-65573907D01*
X122291657Y-65713566D01*
X122184433Y-65924003D01*
X122111446Y-66148631D01*
X122074500Y-66381902D01*
X122074500Y-66618097D01*
X122111447Y-66851369D01*
X122111447Y-66851372D01*
X122152450Y-66977564D01*
X122154445Y-67047405D01*
X122122200Y-67103563D01*
X119981286Y-69244478D01*
X119869481Y-69356282D01*
X119869475Y-69356290D01*
X119834193Y-69417402D01*
X119834193Y-69417404D01*
X119790423Y-69493214D01*
X119782239Y-69523757D01*
X119749499Y-69645943D01*
X119749499Y-69645945D01*
X119749499Y-69814046D01*
X119749500Y-69814059D01*
X119749500Y-70396000D01*
X119729815Y-70463039D01*
X119677011Y-70508794D01*
X119625500Y-70520000D01*
X101965000Y-70520000D01*
X99237027Y-70520000D01*
X99152510Y-70435483D01*
X99111755Y-70405872D01*
X99106230Y-70400725D01*
X99092111Y-70376911D01*
X99075207Y-70354989D01*
X99074544Y-70347279D01*
X99070599Y-70340624D01*
X99071596Y-70312954D01*
X99069228Y-70285375D01*
X99072838Y-70278532D01*
X99073117Y-70270799D01*
X99088914Y-70248063D01*
X99101833Y-70223580D01*
X99112121Y-70214665D01*
X99112986Y-70213421D01*
X99114080Y-70212968D01*
X99117873Y-70209682D01*
X99152510Y-70184517D01*
X99319517Y-70017510D01*
X99458343Y-69826433D01*
X99565568Y-69615992D01*
X99638553Y-69391368D01*
X99649605Y-69321588D01*
X99675500Y-69158097D01*
X99675500Y-68921902D01*
X99638553Y-68688631D01*
X99581220Y-68512179D01*
X99565568Y-68464008D01*
X99565566Y-68464005D01*
X99565566Y-68464003D01*
X99497343Y-68330109D01*
X99458343Y-68253567D01*
X99319517Y-68062490D01*
X99152510Y-67895483D01*
X99117872Y-67870317D01*
X99075207Y-67814989D01*
X99069228Y-67745375D01*
X99101833Y-67683580D01*
X99117873Y-67669682D01*
X99152510Y-67644517D01*
X99319517Y-67477510D01*
X99458343Y-67286433D01*
X99565568Y-67075992D01*
X99638553Y-66851368D01*
X99645682Y-66806355D01*
X99675500Y-66618097D01*
X99675500Y-66381902D01*
X99638553Y-66148631D01*
X99565566Y-65924003D01*
X99458342Y-65713566D01*
X99405793Y-65641239D01*
X99319517Y-65522490D01*
X99152510Y-65355483D01*
X99117872Y-65330317D01*
X99075207Y-65274989D01*
X99069228Y-65205375D01*
X99101833Y-65143580D01*
X99117873Y-65129682D01*
X99152510Y-65104517D01*
X99319517Y-64937510D01*
X99458343Y-64746433D01*
X99565568Y-64535992D01*
X99638553Y-64311368D01*
X99655196Y-64206287D01*
X99675500Y-64078097D01*
X99675500Y-63841902D01*
X99638553Y-63608631D01*
X99600922Y-63492816D01*
X99565568Y-63384008D01*
X99565566Y-63384005D01*
X99565566Y-63384003D01*
X99482108Y-63220208D01*
X99458343Y-63173567D01*
X99319517Y-62982490D01*
X99152510Y-62815483D01*
X99117872Y-62790317D01*
X99075207Y-62734989D01*
X99069228Y-62665375D01*
X99101833Y-62603580D01*
X99117873Y-62589682D01*
X99152510Y-62564517D01*
X99319517Y-62397510D01*
X99458343Y-62206433D01*
X99565568Y-61995992D01*
X99638553Y-61771368D01*
X99644605Y-61733160D01*
X99675500Y-61538097D01*
X99675500Y-61301902D01*
X99638553Y-61068631D01*
X99586302Y-60907820D01*
X99565568Y-60844008D01*
X99565566Y-60844005D01*
X99565566Y-60844003D01*
X99486510Y-60688848D01*
X99458343Y-60633567D01*
X99319517Y-60442490D01*
X99152510Y-60275483D01*
X99117872Y-60250317D01*
X99075207Y-60194989D01*
X99069228Y-60125375D01*
X99101833Y-60063580D01*
X99117873Y-60049682D01*
X99152510Y-60024517D01*
X99319517Y-59857510D01*
X99458343Y-59666433D01*
X99565568Y-59455992D01*
X99638553Y-59231368D01*
X99646290Y-59182517D01*
X99675500Y-58998097D01*
X99675500Y-58761902D01*
X99638553Y-58528631D01*
X99599898Y-58409664D01*
X99565568Y-58304008D01*
X99565566Y-58304005D01*
X99565566Y-58304003D01*
X99486510Y-58148848D01*
X99458343Y-58093567D01*
X99319517Y-57902490D01*
X99152510Y-57735483D01*
X99117872Y-57710317D01*
X99075207Y-57654989D01*
X99069228Y-57585375D01*
X99101833Y-57523580D01*
X99117873Y-57509682D01*
X99132855Y-57498797D01*
X99152510Y-57484517D01*
X99319517Y-57317510D01*
X99458343Y-57126433D01*
X99565568Y-56915992D01*
X99638553Y-56691368D01*
X99648290Y-56629890D01*
X99675500Y-56458097D01*
X99675500Y-56221902D01*
X99638553Y-55988631D01*
X99586302Y-55827820D01*
X99565568Y-55764008D01*
X99565566Y-55764005D01*
X99565566Y-55764003D01*
X99486510Y-55608848D01*
X99458343Y-55553567D01*
X99319517Y-55362490D01*
X99152510Y-55195483D01*
X99151915Y-55195051D01*
X99117873Y-55170318D01*
X99075207Y-55114989D01*
X99069228Y-55045375D01*
X99101833Y-54983580D01*
X99117873Y-54969682D01*
X99152510Y-54944517D01*
X99319517Y-54777510D01*
X99458343Y-54586433D01*
X99565568Y-54375992D01*
X99638553Y-54151368D01*
X99641015Y-54135821D01*
X99675500Y-53918097D01*
X99675500Y-53681902D01*
X99638553Y-53448631D01*
X99584319Y-53281717D01*
X99565568Y-53224008D01*
X99565566Y-53224005D01*
X99565566Y-53224003D01*
X99509002Y-53112991D01*
X99458343Y-53013567D01*
X99319517Y-52822490D01*
X99152510Y-52655483D01*
X99151915Y-52655051D01*
X99117873Y-52630318D01*
X99075207Y-52574989D01*
X99069228Y-52505375D01*
X99101833Y-52443580D01*
X99117873Y-52429682D01*
X99152510Y-52404517D01*
X99319517Y-52237510D01*
X99458343Y-52046433D01*
X99565568Y-51835992D01*
X99638553Y-51611368D01*
X99662595Y-51459574D01*
X99675500Y-51378097D01*
X99675500Y-51141902D01*
X99638553Y-50908631D01*
X99581720Y-50733718D01*
X99565568Y-50684008D01*
X99565566Y-50684005D01*
X99565566Y-50684003D01*
X99509002Y-50572991D01*
X99458343Y-50473567D01*
X99319517Y-50282490D01*
X99152510Y-50115483D01*
X99151915Y-50115051D01*
X99117873Y-50090318D01*
X99075207Y-50034989D01*
X99069228Y-49965375D01*
X99101833Y-49903580D01*
X99117873Y-49889682D01*
X99152510Y-49864517D01*
X99319517Y-49697510D01*
X99458343Y-49506433D01*
X99565568Y-49295992D01*
X99638553Y-49071368D01*
X99649023Y-49005261D01*
X99675500Y-48838097D01*
X99675500Y-48601902D01*
X99638553Y-48368631D01*
X99565566Y-48144003D01*
X99497504Y-48010425D01*
X99458343Y-47933567D01*
X99319517Y-47742490D01*
X99152510Y-47575483D01*
X99151915Y-47575051D01*
X99117873Y-47550318D01*
X99075207Y-47494989D01*
X99069228Y-47425375D01*
X99101833Y-47363580D01*
X99117873Y-47349682D01*
X99152510Y-47324517D01*
X99319517Y-47157510D01*
X99458343Y-46966433D01*
X99565568Y-46755992D01*
X99638553Y-46531368D01*
X99651560Y-46449243D01*
X99675500Y-46298097D01*
X99675500Y-46061902D01*
X99638553Y-45828631D01*
X99565566Y-45604003D01*
X99497506Y-45470429D01*
X99458343Y-45393567D01*
X99319517Y-45202490D01*
X99152510Y-45035483D01*
X99117872Y-45010317D01*
X99075207Y-44954989D01*
X99069228Y-44885375D01*
X99101833Y-44823580D01*
X99117873Y-44809682D01*
X99119383Y-44808585D01*
X99152510Y-44784517D01*
X99319517Y-44617510D01*
X99458343Y-44426433D01*
X99565568Y-44215992D01*
X99638553Y-43991368D01*
X99649554Y-43921912D01*
X99675500Y-43758097D01*
X99675500Y-43521902D01*
X99638553Y-43288631D01*
X99565566Y-43064003D01*
X99458342Y-42853566D01*
X99319517Y-42662490D01*
X99152510Y-42495483D01*
X99117872Y-42470317D01*
X99075207Y-42414989D01*
X99069228Y-42345375D01*
X99101833Y-42283580D01*
X99117873Y-42269682D01*
X99152510Y-42244517D01*
X99319517Y-42077510D01*
X99458343Y-41886433D01*
X99565568Y-41675992D01*
X99638553Y-41451368D01*
X99647522Y-41394738D01*
X99675500Y-41218097D01*
X99675500Y-40981902D01*
X99638553Y-40748631D01*
X99579646Y-40567335D01*
X99565568Y-40524008D01*
X99565566Y-40524005D01*
X99565566Y-40524003D01*
X99488556Y-40372864D01*
X99458343Y-40313567D01*
X99319517Y-40122490D01*
X99152510Y-39955483D01*
X99093282Y-39912451D01*
X99050617Y-39857122D01*
X99042550Y-39802404D01*
X99044104Y-39782657D01*
X98312574Y-39051128D01*
X98371853Y-39035245D01*
X98488147Y-38968102D01*
X98583102Y-38873147D01*
X98650245Y-38756853D01*
X98666128Y-38697575D01*
X99397658Y-39429105D01*
X99397658Y-39429104D01*
X99457914Y-39346169D01*
X99457918Y-39346163D01*
X99565102Y-39135802D01*
X99638065Y-38911247D01*
X99675000Y-38678052D01*
X99675000Y-38441947D01*
X99638065Y-38208752D01*
X99565102Y-37984197D01*
X99457914Y-37773828D01*
X99367964Y-37650023D01*
X99344484Y-37584216D01*
X99360309Y-37516162D01*
X99409640Y-37468220D01*
X99409546Y-37468047D01*
X99410169Y-37467706D01*
X99410415Y-37467468D01*
X99411480Y-37466990D01*
X99417326Y-37463797D01*
X99417331Y-37463796D01*
X99532546Y-37377546D01*
X99618796Y-37262331D01*
X99669091Y-37127483D01*
X99675500Y-37067873D01*
X99675499Y-34972128D01*
X99670299Y-34923757D01*
X99669091Y-34912516D01*
X99618797Y-34777671D01*
X99618793Y-34777664D01*
X99532547Y-34662455D01*
X99532544Y-34662452D01*
X99417335Y-34576206D01*
X99417328Y-34576202D01*
X99282482Y-34525908D01*
X99282483Y-34525908D01*
X99222883Y-34519501D01*
X99222881Y-34519500D01*
X99222873Y-34519500D01*
X99222864Y-34519500D01*
X97127129Y-34519500D01*
X97127123Y-34519501D01*
X97067516Y-34525908D01*
X96932671Y-34576202D01*
X96932664Y-34576206D01*
X96817455Y-34662452D01*
X96817452Y-34662455D01*
X96731206Y-34777664D01*
X96731202Y-34777671D01*
X96680908Y-34912517D01*
X96674857Y-34968806D01*
X96674501Y-34972123D01*
X96674500Y-34972135D01*
X96674500Y-37067870D01*
X96674501Y-37067876D01*
X96680908Y-37127483D01*
X96731202Y-37262328D01*
X96731206Y-37262335D01*
X96817452Y-37377544D01*
X96817455Y-37377547D01*
X96932664Y-37463793D01*
X96940454Y-37468047D01*
X96938725Y-37471211D01*
X96980915Y-37502734D01*
X97005393Y-37568175D01*
X96990604Y-37636462D01*
X96982036Y-37650021D01*
X96892084Y-37773829D01*
X96784897Y-37984197D01*
X96711934Y-38208752D01*
X96675000Y-38441947D01*
X96675000Y-38678052D01*
X96711934Y-38911247D01*
X96784897Y-39135802D01*
X96892087Y-39346174D01*
X96952338Y-39429104D01*
X96952340Y-39429105D01*
X97683871Y-38697574D01*
X97699755Y-38756853D01*
X97766898Y-38873147D01*
X97861853Y-38968102D01*
X97978147Y-39035245D01*
X98037425Y-39051128D01*
X97305893Y-39782658D01*
X97307448Y-39802405D01*
X97293084Y-39870783D01*
X97256717Y-39912451D01*
X97197490Y-39955482D01*
X97030485Y-40122487D01*
X97030485Y-40122488D01*
X97030483Y-40122490D01*
X96970862Y-40204550D01*
X96891657Y-40313566D01*
X96784433Y-40524003D01*
X96711446Y-40748631D01*
X96674500Y-40981902D01*
X96674500Y-41218097D01*
X96711446Y-41451368D01*
X96784433Y-41675996D01*
X96852405Y-41809397D01*
X96891657Y-41886433D01*
X97030483Y-42077510D01*
X97197490Y-42244517D01*
X97232127Y-42269683D01*
X97274792Y-42325013D01*
X97280771Y-42394626D01*
X97248165Y-42456421D01*
X97232130Y-42470315D01*
X97214365Y-42483222D01*
X97197488Y-42495484D01*
X97030485Y-42662487D01*
X97030485Y-42662488D01*
X97030483Y-42662490D01*
X97023244Y-42672454D01*
X96891657Y-42853566D01*
X96784433Y-43064003D01*
X96711446Y-43288631D01*
X96674500Y-43521902D01*
X96674500Y-43758097D01*
X96711446Y-43991368D01*
X96784433Y-44215996D01*
X96838198Y-44321514D01*
X96891657Y-44426433D01*
X97030483Y-44617510D01*
X97197490Y-44784517D01*
X97232127Y-44809683D01*
X97274792Y-44865013D01*
X97280771Y-44934626D01*
X97248165Y-44996421D01*
X97232130Y-45010315D01*
X97229257Y-45012403D01*
X97197488Y-45035484D01*
X97030485Y-45202487D01*
X97030485Y-45202488D01*
X97030483Y-45202490D01*
X96985104Y-45264949D01*
X96891657Y-45393566D01*
X96784433Y-45604003D01*
X96711446Y-45828631D01*
X96674500Y-46061902D01*
X96674500Y-46298097D01*
X96711446Y-46531368D01*
X96784433Y-46755996D01*
X96890315Y-46963800D01*
X96891657Y-46966433D01*
X97030483Y-47157510D01*
X97197490Y-47324517D01*
X97232127Y-47349683D01*
X97274792Y-47405013D01*
X97280771Y-47474626D01*
X97248165Y-47536421D01*
X97232130Y-47550315D01*
X97229257Y-47552403D01*
X97197488Y-47575484D01*
X97030485Y-47742487D01*
X97030485Y-47742488D01*
X97030483Y-47742490D01*
X97013296Y-47766146D01*
X96891657Y-47933566D01*
X96784433Y-48144003D01*
X96711446Y-48368631D01*
X96674500Y-48601902D01*
X96674500Y-48838097D01*
X96711446Y-49071368D01*
X96784433Y-49295996D01*
X96878322Y-49480261D01*
X96891657Y-49506433D01*
X97030483Y-49697510D01*
X97197490Y-49864517D01*
X97232127Y-49889683D01*
X97274792Y-49945013D01*
X97280771Y-50014626D01*
X97248165Y-50076421D01*
X97232130Y-50090315D01*
X97214365Y-50103222D01*
X97197488Y-50115484D01*
X97030485Y-50282487D01*
X97030485Y-50282488D01*
X97030483Y-50282490D01*
X96988348Y-50340484D01*
X96891657Y-50473566D01*
X96784985Y-50682922D01*
X96737010Y-50733718D01*
X96669189Y-50750513D01*
X96603054Y-50727976D01*
X96559603Y-50673260D01*
X96550500Y-50626627D01*
X96550500Y-50546155D01*
X96550499Y-50546153D01*
X96538034Y-50483489D01*
X96519737Y-50391503D01*
X96498605Y-50340486D01*
X96459397Y-50245827D01*
X96459390Y-50245814D01*
X96371789Y-50114711D01*
X96371786Y-50114707D01*
X96260292Y-50003213D01*
X96260288Y-50003210D01*
X96129185Y-49915609D01*
X96129172Y-49915602D01*
X95983501Y-49855264D01*
X95983489Y-49855261D01*
X95828845Y-49824500D01*
X95828842Y-49824500D01*
X95671158Y-49824500D01*
X95671155Y-49824500D01*
X95516510Y-49855261D01*
X95516498Y-49855264D01*
X95370827Y-49915602D01*
X95370814Y-49915609D01*
X95239711Y-50003210D01*
X95239707Y-50003213D01*
X95128213Y-50114707D01*
X95128210Y-50114711D01*
X95040609Y-50245814D01*
X95040602Y-50245827D01*
X94980264Y-50391498D01*
X94980261Y-50391508D01*
X94949361Y-50546850D01*
X94916976Y-50608761D01*
X94915425Y-50610339D01*
X92045163Y-53480601D01*
X91987179Y-53538584D01*
X91925856Y-53572068D01*
X91856164Y-53567083D01*
X91800231Y-53525212D01*
X91775815Y-53459747D01*
X91775499Y-53450929D01*
X91775499Y-51682128D01*
X91769091Y-51622517D01*
X91763037Y-51606286D01*
X91718797Y-51487671D01*
X91718793Y-51487664D01*
X91632547Y-51372455D01*
X91632544Y-51372452D01*
X91517335Y-51286206D01*
X91517328Y-51286202D01*
X91382482Y-51235908D01*
X91382483Y-51235908D01*
X91322883Y-51229501D01*
X91322881Y-51229500D01*
X91322873Y-51229500D01*
X91322864Y-51229500D01*
X89527129Y-51229500D01*
X89527123Y-51229501D01*
X89467516Y-51235908D01*
X89332671Y-51286202D01*
X89332664Y-51286206D01*
X89217455Y-51372452D01*
X89217452Y-51372455D01*
X89131206Y-51487664D01*
X89131202Y-51487671D01*
X89080908Y-51622517D01*
X89074501Y-51682116D01*
X89074501Y-51682123D01*
X89074500Y-51682135D01*
X74159310Y-51682135D01*
X74436716Y-51404728D01*
X74382550Y-51365375D01*
X74193217Y-51268904D01*
X73991129Y-51203242D01*
X73781246Y-51170000D01*
X73568754Y-51170000D01*
X73358872Y-51203242D01*
X73358869Y-51203242D01*
X73156782Y-51268904D01*
X72967439Y-51365380D01*
X72913282Y-51404727D01*
X72913282Y-51404728D01*
X73545591Y-52037037D01*
X73482007Y-52054075D01*
X73367993Y-52119901D01*
X73274901Y-52212993D01*
X73209075Y-52327007D01*
X73192037Y-52390591D01*
X72559728Y-51758282D01*
X72559727Y-51758282D01*
X72520380Y-51812439D01*
X72423904Y-52001782D01*
X72358242Y-52203869D01*
X72358242Y-52203872D01*
X72325000Y-52413753D01*
X72325000Y-52626246D01*
X72358242Y-52836127D01*
X72358242Y-52836130D01*
X72423904Y-53038217D01*
X72520375Y-53227550D01*
X72559728Y-53281716D01*
X73192037Y-52649408D01*
X73209075Y-52712993D01*
X73274901Y-52827007D01*
X73367993Y-52920099D01*
X73482007Y-52985925D01*
X73545590Y-53002962D01*
X72913282Y-53635269D01*
X72913282Y-53635270D01*
X72967452Y-53674626D01*
X72967451Y-53674626D01*
X72976495Y-53679234D01*
X73027292Y-53727208D01*
X73044087Y-53795029D01*
X73021550Y-53861164D01*
X72976499Y-53900202D01*
X72967182Y-53904949D01*
X72795213Y-54029890D01*
X72644890Y-54180213D01*
X72519951Y-54352179D01*
X72423444Y-54541585D01*
X72357753Y-54743760D01*
X72325956Y-54944519D01*
X72324500Y-54953713D01*
X69741353Y-54953713D01*
X69750500Y-54895962D01*
X69750500Y-54644038D01*
X69711090Y-54395215D01*
X69633241Y-54155621D01*
X69633239Y-54155618D01*
X69633239Y-54155616D01*
X69569178Y-54029890D01*
X69518870Y-53931155D01*
X69496383Y-53900204D01*
X69450937Y-53837652D01*
X69427457Y-53771846D01*
X69443283Y-53703792D01*
X69463574Y-53677085D01*
X69592320Y-53548339D01*
X69684354Y-53399130D01*
X69684359Y-53399119D01*
X69739505Y-53232697D01*
X69749999Y-53129986D01*
X69750000Y-53129973D01*
X69750000Y-52480000D01*
X68640748Y-52480000D01*
X68662518Y-52442292D01*
X68700000Y-52302409D01*
X68700000Y-52157591D01*
X68662518Y-52017708D01*
X68640748Y-51980000D01*
X69749999Y-51980000D01*
X69749999Y-51330028D01*
X69749998Y-51330013D01*
X69739505Y-51227303D01*
X69739505Y-51227301D01*
X69684359Y-51060880D01*
X69684354Y-51060869D01*
X69592319Y-50911659D01*
X69592316Y-50911655D01*
X69468344Y-50787683D01*
X69468340Y-50787680D01*
X69319130Y-50695645D01*
X69319119Y-50695640D01*
X69152697Y-50640494D01*
X69049986Y-50630000D01*
X68400000Y-50630000D01*
X68400000Y-51739252D01*
X68362292Y-51717482D01*
X68222409Y-51680000D01*
X68077591Y-51680000D01*
X67937708Y-51717482D01*
X67900000Y-51739252D01*
X67900000Y-50630000D01*
X67250028Y-50630000D01*
X67250012Y-50630001D01*
X67147303Y-50640494D01*
X67147301Y-50640494D01*
X66980880Y-50695640D01*
X66980869Y-50695645D01*
X66831659Y-50787680D01*
X66831655Y-50787683D01*
X66707683Y-50911655D01*
X66707680Y-50911659D01*
X66615645Y-51060869D01*
X66615640Y-51060880D01*
X66560494Y-51227302D01*
X66550000Y-51330013D01*
X66550000Y-51980000D01*
X67659252Y-51980000D01*
X67637482Y-52017708D01*
X67600000Y-52157591D01*
X67600000Y-52302409D01*
X67637482Y-52442292D01*
X67659252Y-52480000D01*
X66550001Y-52480000D01*
X66550001Y-53129986D01*
X66560494Y-53232696D01*
X66560494Y-53232698D01*
X66615640Y-53399119D01*
X66615645Y-53399130D01*
X66707680Y-53548340D01*
X66707683Y-53548344D01*
X66836425Y-53677086D01*
X66869910Y-53738409D01*
X66864926Y-53808101D01*
X66849063Y-53837651D01*
X66781130Y-53931154D01*
X66781129Y-53931156D01*
X66666760Y-54155616D01*
X66588910Y-54395214D01*
X66585565Y-54416336D01*
X66549500Y-54644038D01*
X66549500Y-54895962D01*
X66583823Y-55112669D01*
X66588910Y-55144785D01*
X66666760Y-55384383D01*
X66745413Y-55538747D01*
X66752964Y-55553567D01*
X66781132Y-55608848D01*
X66929201Y-55812649D01*
X66929205Y-55812654D01*
X67068870Y-55952319D01*
X67102355Y-56013642D01*
X67097371Y-56083334D01*
X67068870Y-56127681D01*
X66929205Y-56267345D01*
X66929201Y-56267350D01*
X66781132Y-56471151D01*
X66666760Y-56695616D01*
X66588910Y-56935214D01*
X66585565Y-56956336D01*
X66549500Y-57184038D01*
X66549500Y-57435962D01*
X66567215Y-57547810D01*
X66588910Y-57684785D01*
X66666760Y-57924383D01*
X66745413Y-58078747D01*
X66772579Y-58132063D01*
X66781132Y-58148848D01*
X66929201Y-58352649D01*
X66929205Y-58352654D01*
X67068870Y-58492319D01*
X67102355Y-58553642D01*
X67097371Y-58623334D01*
X67068870Y-58667681D01*
X66929205Y-58807345D01*
X66929201Y-58807350D01*
X66781132Y-59011151D01*
X66666760Y-59235616D01*
X66588910Y-59475214D01*
X66588910Y-59475215D01*
X66549500Y-59724038D01*
X66549500Y-59975962D01*
X66573889Y-60129949D01*
X66588910Y-60224785D01*
X66666760Y-60464383D01*
X66724233Y-60577179D01*
X66752964Y-60633567D01*
X66781132Y-60688848D01*
X66929201Y-60892649D01*
X66929205Y-60892654D01*
X67107345Y-61070794D01*
X67107350Y-61070798D01*
X67285117Y-61199952D01*
X67311155Y-61218870D01*
X67454184Y-61291747D01*
X67535616Y-61333239D01*
X67535618Y-61333239D01*
X67535621Y-61333241D01*
X67775215Y-61411090D01*
X68024038Y-61450500D01*
X68024039Y-61450500D01*
X68275961Y-61450500D01*
X68275962Y-61450500D01*
X68524785Y-61411090D01*
X68546814Y-61403931D01*
X68616653Y-61401935D01*
X68672814Y-61434181D01*
X69776952Y-62538319D01*
X69810437Y-62599642D01*
X69805453Y-62669334D01*
X69763581Y-62725267D01*
X69698117Y-62749684D01*
X69689271Y-62750000D01*
X69562155Y-62750000D01*
X69502627Y-62756401D01*
X69502620Y-62756403D01*
X69367913Y-62806645D01*
X69367906Y-62806649D01*
X69252812Y-62892809D01*
X69252809Y-62892812D01*
X69166649Y-63007906D01*
X69166645Y-63007913D01*
X69116403Y-63142620D01*
X69116401Y-63142627D01*
X69110000Y-63202155D01*
X69110000Y-63850000D01*
X70026988Y-63850000D01*
X69994075Y-63907007D01*
X69960000Y-64034174D01*
X69960000Y-64165826D01*
X69994075Y-64292993D01*
X70026988Y-64350000D01*
X69110000Y-64350000D01*
X69110000Y-64550500D01*
X69090315Y-64617539D01*
X69037511Y-64663294D01*
X68986000Y-64674500D01*
X66826454Y-64674500D01*
X66794391Y-64680876D01*
X66794392Y-64680877D01*
X66633170Y-64712946D01*
X66633164Y-64712948D01*
X66451088Y-64788366D01*
X66451079Y-64788371D01*
X66287219Y-64897859D01*
X66287215Y-64897862D01*
X65891896Y-65293181D01*
X65830573Y-65326666D01*
X65804215Y-65329500D01*
X64952129Y-65329500D01*
X64952123Y-65329501D01*
X64892516Y-65335908D01*
X64757671Y-65386202D01*
X64757664Y-65386206D01*
X64642455Y-65472452D01*
X64642452Y-65472455D01*
X64556206Y-65587664D01*
X64556202Y-65587671D01*
X64505908Y-65722517D01*
X64499501Y-65782116D01*
X64499500Y-65782135D01*
X60825500Y-65782135D01*
X60825500Y-50171153D01*
X77724500Y-50171153D01*
X77724500Y-50328846D01*
X77755261Y-50483489D01*
X77755264Y-50483501D01*
X77815602Y-50629172D01*
X77815609Y-50629185D01*
X77903210Y-50760288D01*
X77903213Y-50760292D01*
X78014707Y-50871786D01*
X78014711Y-50871789D01*
X78145814Y-50959390D01*
X78145827Y-50959397D01*
X78291498Y-51019735D01*
X78291503Y-51019737D01*
X78420730Y-51045442D01*
X78446153Y-51050499D01*
X78446156Y-51050500D01*
X78446158Y-51050500D01*
X78603844Y-51050500D01*
X78603845Y-51050499D01*
X78758497Y-51019737D01*
X78871166Y-50973067D01*
X78904172Y-50959397D01*
X78904172Y-50959396D01*
X78904179Y-50959394D01*
X78909490Y-50955845D01*
X79035875Y-50871398D01*
X79102553Y-50850520D01*
X79104766Y-50850500D01*
X80238331Y-50850500D01*
X80238347Y-50850501D01*
X80245943Y-50850501D01*
X80404054Y-50850501D01*
X80404057Y-50850501D01*
X80556785Y-50809577D01*
X80606904Y-50780639D01*
X80693716Y-50730520D01*
X80805520Y-50618716D01*
X80805521Y-50618713D01*
X80814661Y-50609572D01*
X80875984Y-50576088D01*
X80878152Y-50575637D01*
X80878841Y-50575500D01*
X80878842Y-50575500D01*
X81033497Y-50544737D01*
X81179179Y-50484394D01*
X81310289Y-50396789D01*
X81421789Y-50285289D01*
X81509394Y-50154179D01*
X81569737Y-50008497D01*
X81600500Y-49853842D01*
X81600500Y-49696158D01*
X81600500Y-49696155D01*
X81600499Y-49696153D01*
X81595868Y-49672870D01*
X81569737Y-49541503D01*
X81569367Y-49540609D01*
X81509397Y-49395827D01*
X81509390Y-49395814D01*
X81421789Y-49264711D01*
X81421786Y-49264707D01*
X81310292Y-49153213D01*
X81310288Y-49153210D01*
X81179185Y-49065609D01*
X81179172Y-49065602D01*
X81033501Y-49005264D01*
X81033489Y-49005261D01*
X80878845Y-48974500D01*
X80878842Y-48974500D01*
X80721158Y-48974500D01*
X80721155Y-48974500D01*
X80566510Y-49005261D01*
X80566498Y-49005264D01*
X80420827Y-49065602D01*
X80420814Y-49065609D01*
X80289711Y-49153210D01*
X80289707Y-49153213D01*
X80178213Y-49264707D01*
X80178210Y-49264711D01*
X80090609Y-49395814D01*
X80090602Y-49395827D01*
X80030263Y-49541501D01*
X80030263Y-49541502D01*
X80029799Y-49543831D01*
X80028634Y-49549691D01*
X79996250Y-49611601D01*
X79935535Y-49646176D01*
X79907017Y-49649500D01*
X79104766Y-49649500D01*
X79037727Y-49629815D01*
X79035875Y-49628602D01*
X78904185Y-49540609D01*
X78904172Y-49540602D01*
X78758501Y-49480264D01*
X78758489Y-49480261D01*
X78603845Y-49449500D01*
X78603842Y-49449500D01*
X78446158Y-49449500D01*
X78446155Y-49449500D01*
X78291510Y-49480261D01*
X78291498Y-49480264D01*
X78145827Y-49540602D01*
X78145814Y-49540609D01*
X78014711Y-49628210D01*
X78014707Y-49628213D01*
X77903213Y-49739707D01*
X77903210Y-49739711D01*
X77815609Y-49870814D01*
X77815602Y-49870827D01*
X77755264Y-50016498D01*
X77755261Y-50016510D01*
X77724500Y-50171153D01*
X60825500Y-50171153D01*
X60825500Y-45012403D01*
X68192000Y-45012403D01*
X68192000Y-45170096D01*
X68222761Y-45324739D01*
X68222764Y-45324751D01*
X68283102Y-45470422D01*
X68283109Y-45470435D01*
X68370710Y-45601538D01*
X68370713Y-45601542D01*
X68482207Y-45713036D01*
X68482211Y-45713039D01*
X68613314Y-45800640D01*
X68613327Y-45800647D01*
X68747328Y-45856151D01*
X68759003Y-45860987D01*
X68913653Y-45891749D01*
X68913656Y-45891750D01*
X68913658Y-45891750D01*
X69071344Y-45891750D01*
X69071345Y-45891749D01*
X69225997Y-45860987D01*
X69371679Y-45800644D01*
X69502789Y-45713039D01*
X69614289Y-45601539D01*
X69701894Y-45470429D01*
X69704898Y-45465934D01*
X69758510Y-45421129D01*
X69827835Y-45412422D01*
X69890863Y-45442576D01*
X69927582Y-45502020D01*
X69932000Y-45534825D01*
X69932000Y-45991267D01*
X69942500Y-46094046D01*
X69997685Y-46260582D01*
X69997687Y-46260587D01*
X70089789Y-46409907D01*
X70218628Y-46538746D01*
X70252113Y-46600069D01*
X70247129Y-46669761D01*
X70231267Y-46699308D01*
X70189898Y-46756250D01*
X70163628Y-46792408D01*
X70049260Y-47016866D01*
X69971410Y-47256461D01*
X69966142Y-47289722D01*
X69936211Y-47352856D01*
X69876898Y-47389786D01*
X69807036Y-47388786D01*
X69748804Y-47350175D01*
X69729110Y-47317777D01*
X69701894Y-47252071D01*
X69701890Y-47252064D01*
X69614289Y-47120961D01*
X69614286Y-47120957D01*
X69502792Y-47009463D01*
X69502788Y-47009460D01*
X69371685Y-46921859D01*
X69371672Y-46921852D01*
X69226001Y-46861514D01*
X69225989Y-46861511D01*
X69071345Y-46830750D01*
X69071342Y-46830750D01*
X68913658Y-46830750D01*
X68913655Y-46830750D01*
X68759010Y-46861511D01*
X68758998Y-46861514D01*
X68613327Y-46921852D01*
X68613314Y-46921859D01*
X68482211Y-47009460D01*
X68482207Y-47009463D01*
X68370713Y-47120957D01*
X68370710Y-47120961D01*
X68283109Y-47252064D01*
X68283102Y-47252077D01*
X68222764Y-47397748D01*
X68222761Y-47397760D01*
X68192000Y-47552403D01*
X68192000Y-47710096D01*
X68222761Y-47864739D01*
X68222764Y-47864751D01*
X68283102Y-48010422D01*
X68283109Y-48010435D01*
X68370710Y-48141538D01*
X68370713Y-48141542D01*
X68482207Y-48253036D01*
X68482211Y-48253039D01*
X68613314Y-48340640D01*
X68613327Y-48340647D01*
X68758998Y-48400985D01*
X68759003Y-48400987D01*
X68913653Y-48431749D01*
X68913656Y-48431750D01*
X68913658Y-48431750D01*
X69071344Y-48431750D01*
X69071345Y-48431749D01*
X69225997Y-48400987D01*
X69371679Y-48340644D01*
X69502789Y-48253039D01*
X69614289Y-48141539D01*
X69701894Y-48010429D01*
X69729109Y-47944725D01*
X69772947Y-47890323D01*
X69839241Y-47868257D01*
X69906940Y-47885535D01*
X69954552Y-47936671D01*
X69966142Y-47972778D01*
X69971410Y-48006037D01*
X70049260Y-48245633D01*
X70111932Y-48368632D01*
X70149103Y-48441585D01*
X70163632Y-48470098D01*
X70311701Y-48673899D01*
X70311705Y-48673904D01*
X70489845Y-48852044D01*
X70489850Y-48852048D01*
X70559343Y-48902537D01*
X70693655Y-49000120D01*
X70822171Y-49065602D01*
X70918116Y-49114489D01*
X70918118Y-49114489D01*
X70918121Y-49114491D01*
X71157715Y-49192340D01*
X71406538Y-49231750D01*
X71406539Y-49231750D01*
X71658461Y-49231750D01*
X71658462Y-49231750D01*
X71907285Y-49192340D01*
X72146879Y-49114491D01*
X72371345Y-49000120D01*
X72575156Y-48852043D01*
X72753293Y-48673906D01*
X72901370Y-48470095D01*
X73015741Y-48245629D01*
X73093590Y-48006035D01*
X73133000Y-47757212D01*
X73133000Y-47505288D01*
X73093590Y-47256465D01*
X73015741Y-47016871D01*
X73015739Y-47016868D01*
X73015739Y-47016866D01*
X72936581Y-46861511D01*
X72901370Y-46792405D01*
X72833733Y-46699310D01*
X72810254Y-46633507D01*
X72826079Y-46565453D01*
X72846371Y-46538745D01*
X72851150Y-46533965D01*
X72851156Y-46533962D01*
X72975212Y-46409906D01*
X73067314Y-46260585D01*
X73122499Y-46094048D01*
X73133000Y-45991260D01*
X73133000Y-44191240D01*
X73122499Y-44088452D01*
X73067314Y-43921915D01*
X72975212Y-43772594D01*
X72851156Y-43648538D01*
X72701835Y-43556436D01*
X72535298Y-43501251D01*
X72535296Y-43501250D01*
X72432517Y-43490750D01*
X72432510Y-43490750D01*
X70632490Y-43490750D01*
X70632482Y-43490750D01*
X70529703Y-43501250D01*
X70529702Y-43501251D01*
X70447169Y-43528599D01*
X70363167Y-43556435D01*
X70363162Y-43556437D01*
X70213842Y-43648539D01*
X70089789Y-43772592D01*
X69997687Y-43921912D01*
X69997685Y-43921917D01*
X69969849Y-44005919D01*
X69942501Y-44088452D01*
X69942501Y-44088453D01*
X69942500Y-44088453D01*
X69932000Y-44191232D01*
X69932000Y-44647674D01*
X69912315Y-44714713D01*
X69859511Y-44760468D01*
X69790353Y-44770412D01*
X69726797Y-44741387D01*
X69704898Y-44716565D01*
X69614289Y-44580961D01*
X69614286Y-44580957D01*
X69502792Y-44469463D01*
X69502788Y-44469460D01*
X69371685Y-44381859D01*
X69371672Y-44381852D01*
X69226001Y-44321514D01*
X69225989Y-44321511D01*
X69071345Y-44290750D01*
X69071342Y-44290750D01*
X68913658Y-44290750D01*
X68913655Y-44290750D01*
X68759010Y-44321511D01*
X68758998Y-44321514D01*
X68613327Y-44381852D01*
X68613314Y-44381859D01*
X68482211Y-44469460D01*
X68482207Y-44469463D01*
X68370713Y-44580957D01*
X68370710Y-44580961D01*
X68283109Y-44712064D01*
X68283102Y-44712077D01*
X68222764Y-44857748D01*
X68222761Y-44857760D01*
X68192000Y-45012403D01*
X60825500Y-45012403D01*
X60825500Y-42818385D01*
X83912000Y-42818385D01*
X83912000Y-44614120D01*
X83912001Y-44614126D01*
X83918408Y-44673733D01*
X83968702Y-44808578D01*
X83968706Y-44808585D01*
X84054952Y-44923794D01*
X84054955Y-44923797D01*
X84170164Y-45010043D01*
X84170171Y-45010047D01*
X84215118Y-45026811D01*
X84305017Y-45060341D01*
X84364627Y-45066750D01*
X84375185Y-45066749D01*
X84442223Y-45086429D01*
X84462872Y-45103068D01*
X85133091Y-45773287D01*
X85069507Y-45790325D01*
X84955493Y-45856151D01*
X84862401Y-45949243D01*
X84796575Y-46063257D01*
X84779537Y-46126841D01*
X84147228Y-45494532D01*
X84147227Y-45494532D01*
X84107880Y-45548689D01*
X84011404Y-45738032D01*
X83945742Y-45940119D01*
X83945742Y-45940122D01*
X83912500Y-46150003D01*
X83912500Y-46362496D01*
X83945742Y-46572377D01*
X83945742Y-46572380D01*
X84011404Y-46774467D01*
X84107875Y-46963800D01*
X84147228Y-47017966D01*
X84779537Y-46385658D01*
X84796575Y-46449243D01*
X84862401Y-46563257D01*
X84955493Y-46656349D01*
X85069507Y-46722175D01*
X85133090Y-46739212D01*
X84500782Y-47371519D01*
X84500782Y-47371520D01*
X84554952Y-47410876D01*
X84554951Y-47410876D01*
X84563995Y-47415484D01*
X84614792Y-47463458D01*
X84631587Y-47531279D01*
X84609050Y-47597414D01*
X84563999Y-47636452D01*
X84554682Y-47641199D01*
X84382713Y-47766140D01*
X84232390Y-47916463D01*
X84107451Y-48088429D01*
X84010944Y-48277835D01*
X83945253Y-48480010D01*
X83912000Y-48689963D01*
X83912000Y-48902536D01*
X83945253Y-49112489D01*
X84010944Y-49314664D01*
X84107451Y-49504070D01*
X84232390Y-49676036D01*
X84382713Y-49826359D01*
X84554679Y-49951298D01*
X84554681Y-49951299D01*
X84554684Y-49951301D01*
X84744088Y-50047807D01*
X84946257Y-50113496D01*
X85156213Y-50146750D01*
X85156214Y-50146750D01*
X85368786Y-50146750D01*
X85368787Y-50146750D01*
X85578743Y-50113496D01*
X85780912Y-50047807D01*
X85970316Y-49951301D01*
X86081080Y-49870827D01*
X86142286Y-49826359D01*
X86142288Y-49826356D01*
X86142292Y-49826354D01*
X86292604Y-49676042D01*
X86292606Y-49676038D01*
X86292609Y-49676036D01*
X86417548Y-49504070D01*
X86417547Y-49504070D01*
X86417551Y-49504066D01*
X86514057Y-49314662D01*
X86579746Y-49112493D01*
X86613000Y-48902537D01*
X86613000Y-48689963D01*
X86579746Y-48480007D01*
X86514057Y-48277838D01*
X86417551Y-48088434D01*
X86360882Y-48010435D01*
X86314570Y-47946691D01*
X86314569Y-47946690D01*
X86292607Y-47916461D01*
X86253281Y-47877135D01*
X87799500Y-47877135D01*
X87799500Y-49672870D01*
X87799501Y-49672876D01*
X87805908Y-49732483D01*
X87856202Y-49867328D01*
X87856206Y-49867335D01*
X87942452Y-49982544D01*
X87942455Y-49982547D01*
X88057664Y-50068793D01*
X88057671Y-50068797D01*
X88192517Y-50119091D01*
X88192516Y-50119091D01*
X88199444Y-50119835D01*
X88252127Y-50125500D01*
X90047872Y-50125499D01*
X90107483Y-50119091D01*
X90242331Y-50068796D01*
X90357546Y-49982546D01*
X90443796Y-49867331D01*
X90494091Y-49732483D01*
X90500500Y-49672873D01*
X90500499Y-47877128D01*
X90494091Y-47817517D01*
X90489404Y-47804951D01*
X90443797Y-47682671D01*
X90443793Y-47682664D01*
X90357547Y-47567455D01*
X90357544Y-47567452D01*
X90242335Y-47481206D01*
X90242328Y-47481202D01*
X90107482Y-47430908D01*
X90107483Y-47430908D01*
X90047883Y-47424501D01*
X90047881Y-47424500D01*
X90047873Y-47424500D01*
X90047864Y-47424500D01*
X88252129Y-47424500D01*
X88252123Y-47424501D01*
X88192516Y-47430908D01*
X88057671Y-47481202D01*
X88057664Y-47481206D01*
X87942455Y-47567452D01*
X87942452Y-47567455D01*
X87856206Y-47682664D01*
X87856202Y-47682671D01*
X87805908Y-47817517D01*
X87799501Y-47877116D01*
X87799501Y-47877123D01*
X87799500Y-47877135D01*
X86253281Y-47877135D01*
X86142286Y-47766140D01*
X85970317Y-47641199D01*
X85961004Y-47636454D01*
X85910207Y-47588480D01*
X85893412Y-47520659D01*
X85915949Y-47454524D01*
X85961007Y-47415482D01*
X85970055Y-47410872D01*
X86024216Y-47371520D01*
X86024217Y-47371520D01*
X85391908Y-46739212D01*
X85455493Y-46722175D01*
X85569507Y-46656349D01*
X85662599Y-46563257D01*
X85728425Y-46449243D01*
X85745462Y-46385658D01*
X86377770Y-47017967D01*
X86377770Y-47017966D01*
X86417122Y-46963804D01*
X86513595Y-46774467D01*
X86579257Y-46572380D01*
X86579257Y-46572377D01*
X86612500Y-46362496D01*
X86612500Y-46150003D01*
X86579257Y-45940122D01*
X86579257Y-45940119D01*
X86513595Y-45738032D01*
X86417124Y-45548699D01*
X86377770Y-45494532D01*
X86377769Y-45494532D01*
X85745462Y-46126840D01*
X85728425Y-46063257D01*
X85662599Y-45949243D01*
X85569507Y-45856151D01*
X85455493Y-45790325D01*
X85391909Y-45773287D01*
X86062127Y-45103068D01*
X86123450Y-45069583D01*
X86149807Y-45066749D01*
X86160372Y-45066749D01*
X86219983Y-45060341D01*
X86354831Y-45010046D01*
X86470046Y-44923796D01*
X86556296Y-44808581D01*
X86606591Y-44673733D01*
X86613000Y-44614123D01*
X86612999Y-42818378D01*
X86611253Y-42802135D01*
X93049500Y-42802135D01*
X93049500Y-44597870D01*
X93049501Y-44597876D01*
X93055908Y-44657483D01*
X93106202Y-44792328D01*
X93106206Y-44792335D01*
X93192452Y-44907544D01*
X93192455Y-44907547D01*
X93307664Y-44993793D01*
X93307671Y-44993797D01*
X93442517Y-45044091D01*
X93442516Y-45044091D01*
X93449444Y-45044835D01*
X93502127Y-45050500D01*
X95297872Y-45050499D01*
X95357483Y-45044091D01*
X95492331Y-44993796D01*
X95607546Y-44907546D01*
X95693796Y-44792331D01*
X95744091Y-44657483D01*
X95750500Y-44597873D01*
X95750499Y-42802128D01*
X95744091Y-42742517D01*
X95717959Y-42672454D01*
X95693797Y-42607671D01*
X95693793Y-42607664D01*
X95607547Y-42492455D01*
X95607544Y-42492452D01*
X95492335Y-42406206D01*
X95492328Y-42406202D01*
X95357482Y-42355908D01*
X95357483Y-42355908D01*
X95297883Y-42349501D01*
X95297881Y-42349500D01*
X95297873Y-42349500D01*
X95297864Y-42349500D01*
X93502129Y-42349500D01*
X93502123Y-42349501D01*
X93442516Y-42355908D01*
X93307671Y-42406202D01*
X93307664Y-42406206D01*
X93192455Y-42492452D01*
X93192452Y-42492455D01*
X93106206Y-42607664D01*
X93106202Y-42607671D01*
X93055908Y-42742517D01*
X93051055Y-42787664D01*
X93049501Y-42802123D01*
X93049500Y-42802135D01*
X86611253Y-42802135D01*
X86606591Y-42758767D01*
X86556296Y-42623919D01*
X86556295Y-42623918D01*
X86556293Y-42623914D01*
X86470047Y-42508705D01*
X86470044Y-42508702D01*
X86354835Y-42422456D01*
X86354828Y-42422452D01*
X86219982Y-42372158D01*
X86219983Y-42372158D01*
X86160383Y-42365751D01*
X86160381Y-42365750D01*
X86160373Y-42365750D01*
X86160364Y-42365750D01*
X84364629Y-42365750D01*
X84364623Y-42365751D01*
X84305016Y-42372158D01*
X84170171Y-42422452D01*
X84170164Y-42422456D01*
X84054955Y-42508702D01*
X84054952Y-42508705D01*
X83968706Y-42623914D01*
X83968702Y-42623921D01*
X83918408Y-42758767D01*
X83912001Y-42818366D01*
X83912000Y-42818385D01*
X60825500Y-42818385D01*
X60825500Y-41021153D01*
X77274500Y-41021153D01*
X77274500Y-41178846D01*
X77305261Y-41333489D01*
X77305264Y-41333501D01*
X77365602Y-41479172D01*
X77365609Y-41479185D01*
X77453210Y-41610288D01*
X77453213Y-41610292D01*
X77564707Y-41721786D01*
X77564711Y-41721789D01*
X77695814Y-41809390D01*
X77695827Y-41809397D01*
X77841498Y-41869735D01*
X77841503Y-41869737D01*
X77996153Y-41900499D01*
X77996156Y-41900500D01*
X77996158Y-41900500D01*
X78153844Y-41900500D01*
X78153845Y-41900499D01*
X78308497Y-41869737D01*
X78454179Y-41809394D01*
X78454185Y-41809390D01*
X78585875Y-41721398D01*
X78652553Y-41700520D01*
X78654766Y-41700500D01*
X80313331Y-41700500D01*
X80313347Y-41700501D01*
X80320943Y-41700501D01*
X80479054Y-41700501D01*
X80479057Y-41700501D01*
X80631785Y-41659577D01*
X80681904Y-41630639D01*
X80768716Y-41580520D01*
X80880520Y-41468716D01*
X80880521Y-41468713D01*
X80889661Y-41459572D01*
X80950984Y-41426088D01*
X80953152Y-41425637D01*
X80953841Y-41425500D01*
X80953842Y-41425500D01*
X81108497Y-41394737D01*
X81254179Y-41334394D01*
X81385289Y-41246789D01*
X81496789Y-41135289D01*
X81584394Y-41004179D01*
X81644737Y-40858497D01*
X81675500Y-40703842D01*
X81675500Y-40546158D01*
X81675500Y-40546155D01*
X81675499Y-40546153D01*
X81652888Y-40432482D01*
X81644737Y-40391503D01*
X81644367Y-40390609D01*
X81584397Y-40245827D01*
X81584390Y-40245814D01*
X81496789Y-40114711D01*
X81496786Y-40114707D01*
X81385292Y-40003213D01*
X81385288Y-40003210D01*
X81254185Y-39915609D01*
X81254172Y-39915602D01*
X81108501Y-39855264D01*
X81108489Y-39855261D01*
X80953845Y-39824500D01*
X80953842Y-39824500D01*
X80796158Y-39824500D01*
X80796155Y-39824500D01*
X80641510Y-39855261D01*
X80641498Y-39855264D01*
X80495827Y-39915602D01*
X80495814Y-39915609D01*
X80364711Y-40003210D01*
X80364707Y-40003213D01*
X80253213Y-40114707D01*
X80253210Y-40114711D01*
X80165609Y-40245814D01*
X80165602Y-40245827D01*
X80105263Y-40391501D01*
X80105263Y-40391502D01*
X80104799Y-40393831D01*
X80103634Y-40399691D01*
X80071250Y-40461601D01*
X80010535Y-40496176D01*
X79982017Y-40499500D01*
X78654766Y-40499500D01*
X78587727Y-40479815D01*
X78585875Y-40478602D01*
X78454185Y-40390609D01*
X78454172Y-40390602D01*
X78308501Y-40330264D01*
X78308489Y-40330261D01*
X78153845Y-40299500D01*
X78153842Y-40299500D01*
X77996158Y-40299500D01*
X77996155Y-40299500D01*
X77841510Y-40330261D01*
X77841498Y-40330264D01*
X77695827Y-40390602D01*
X77695814Y-40390609D01*
X77564711Y-40478210D01*
X77564707Y-40478213D01*
X77453213Y-40589707D01*
X77453210Y-40589711D01*
X77365609Y-40720814D01*
X77365602Y-40720827D01*
X77305264Y-40866498D01*
X77305261Y-40866510D01*
X77274500Y-41021153D01*
X60825500Y-41021153D01*
X60825500Y-35581153D01*
X68134500Y-35581153D01*
X68134500Y-35738846D01*
X68165261Y-35893489D01*
X68165264Y-35893501D01*
X68225602Y-36039172D01*
X68225609Y-36039185D01*
X68313210Y-36170288D01*
X68313213Y-36170292D01*
X68424707Y-36281786D01*
X68424711Y-36281789D01*
X68555814Y-36369390D01*
X68555827Y-36369397D01*
X68701498Y-36429735D01*
X68701503Y-36429737D01*
X68856153Y-36460499D01*
X68856156Y-36460500D01*
X68856158Y-36460500D01*
X69013844Y-36460500D01*
X69013845Y-36460499D01*
X69168497Y-36429737D01*
X69281166Y-36383067D01*
X69314172Y-36369397D01*
X69314172Y-36369396D01*
X69314179Y-36369394D01*
X69445289Y-36281789D01*
X69556789Y-36170289D01*
X69644394Y-36039179D01*
X69647398Y-36034684D01*
X69701010Y-35989879D01*
X69770335Y-35981172D01*
X69833363Y-36011326D01*
X69870082Y-36070770D01*
X69874500Y-36103575D01*
X69874500Y-36560017D01*
X69885000Y-36662796D01*
X69940185Y-36829332D01*
X69940187Y-36829337D01*
X70032289Y-36978657D01*
X70161128Y-37107496D01*
X70194613Y-37168819D01*
X70189629Y-37238511D01*
X70173767Y-37268058D01*
X70106131Y-37361154D01*
X70106128Y-37361158D01*
X69991760Y-37585616D01*
X69913910Y-37825211D01*
X69908642Y-37858472D01*
X69878711Y-37921606D01*
X69819398Y-37958536D01*
X69749536Y-37957536D01*
X69691304Y-37918925D01*
X69671610Y-37886527D01*
X69644394Y-37820821D01*
X69644390Y-37820814D01*
X69556789Y-37689711D01*
X69556786Y-37689707D01*
X69445292Y-37578213D01*
X69445288Y-37578210D01*
X69314185Y-37490609D01*
X69314172Y-37490602D01*
X69168501Y-37430264D01*
X69168489Y-37430261D01*
X69013845Y-37399500D01*
X69013842Y-37399500D01*
X68856158Y-37399500D01*
X68856155Y-37399500D01*
X68701510Y-37430261D01*
X68701498Y-37430264D01*
X68555827Y-37490602D01*
X68555814Y-37490609D01*
X68424711Y-37578210D01*
X68424707Y-37578213D01*
X68313213Y-37689707D01*
X68313210Y-37689711D01*
X68225609Y-37820814D01*
X68225602Y-37820827D01*
X68165264Y-37966498D01*
X68165261Y-37966510D01*
X68134500Y-38121153D01*
X68134500Y-38278846D01*
X68165261Y-38433489D01*
X68165264Y-38433501D01*
X68225602Y-38579172D01*
X68225609Y-38579185D01*
X68313210Y-38710288D01*
X68313213Y-38710292D01*
X68424707Y-38821786D01*
X68424711Y-38821789D01*
X68555814Y-38909390D01*
X68555827Y-38909397D01*
X68697556Y-38968102D01*
X68701503Y-38969737D01*
X68856153Y-39000499D01*
X68856156Y-39000500D01*
X68856158Y-39000500D01*
X69013844Y-39000500D01*
X69013845Y-39000499D01*
X69168497Y-38969737D01*
X69304136Y-38913554D01*
X69314172Y-38909397D01*
X69314172Y-38909396D01*
X69314179Y-38909394D01*
X69445289Y-38821789D01*
X69556789Y-38710289D01*
X69644394Y-38579179D01*
X69671609Y-38513475D01*
X69715447Y-38459073D01*
X69781741Y-38437007D01*
X69849440Y-38454285D01*
X69897052Y-38505421D01*
X69908642Y-38541528D01*
X69913910Y-38574787D01*
X69991760Y-38814383D01*
X70042291Y-38913554D01*
X70095231Y-39017455D01*
X70106132Y-39038848D01*
X70254201Y-39242649D01*
X70254205Y-39242654D01*
X70432345Y-39420794D01*
X70432350Y-39420798D01*
X70610117Y-39549952D01*
X70636155Y-39568870D01*
X70779184Y-39641747D01*
X70860616Y-39683239D01*
X70860618Y-39683239D01*
X70860621Y-39683241D01*
X71100215Y-39761090D01*
X71349038Y-39800500D01*
X71349039Y-39800500D01*
X71600961Y-39800500D01*
X71600962Y-39800500D01*
X71849785Y-39761090D01*
X72089379Y-39683241D01*
X72313845Y-39568870D01*
X72517656Y-39420793D01*
X72695793Y-39242656D01*
X72843870Y-39038845D01*
X72958241Y-38814379D01*
X73036090Y-38574785D01*
X73075500Y-38325962D01*
X73075500Y-38074038D01*
X73036090Y-37825215D01*
X72958241Y-37585621D01*
X72958239Y-37585618D01*
X72958239Y-37585616D01*
X72869047Y-37410568D01*
X72843870Y-37361155D01*
X72776233Y-37268060D01*
X72752754Y-37202257D01*
X72768579Y-37134203D01*
X72788871Y-37107495D01*
X72793650Y-37102715D01*
X72793656Y-37102712D01*
X72917712Y-36978656D01*
X73009814Y-36829335D01*
X73064999Y-36662798D01*
X73075500Y-36560010D01*
X73075500Y-34759990D01*
X73064999Y-34657202D01*
X73009814Y-34490665D01*
X72922395Y-34348937D01*
X72922395Y-34348935D01*
X72917714Y-34341347D01*
X72917711Y-34341343D01*
X72865081Y-34288713D01*
X83999500Y-34288713D01*
X83999500Y-34501286D01*
X84025026Y-34662455D01*
X84032754Y-34711243D01*
X84098152Y-34912517D01*
X84098444Y-34913414D01*
X84194951Y-35102820D01*
X84319890Y-35274786D01*
X84470213Y-35425109D01*
X84642179Y-35550048D01*
X84642181Y-35550049D01*
X84642184Y-35550051D01*
X84651493Y-35554794D01*
X84702290Y-35602766D01*
X84719087Y-35670587D01*
X84696552Y-35736722D01*
X84651505Y-35775760D01*
X84642446Y-35780376D01*
X84642440Y-35780380D01*
X84588282Y-35819727D01*
X84588282Y-35819728D01*
X85220591Y-36452037D01*
X85157007Y-36469075D01*
X85042993Y-36534901D01*
X84949901Y-36627993D01*
X84884075Y-36742007D01*
X84867037Y-36805591D01*
X84234728Y-36173282D01*
X84234727Y-36173282D01*
X84195380Y-36227439D01*
X84098904Y-36416782D01*
X84033242Y-36618869D01*
X84033242Y-36618872D01*
X84000000Y-36828753D01*
X84000000Y-37041246D01*
X84033242Y-37251127D01*
X84033242Y-37251130D01*
X84098904Y-37453217D01*
X84195375Y-37642550D01*
X84234728Y-37696716D01*
X84867037Y-37064408D01*
X84884075Y-37127993D01*
X84949901Y-37242007D01*
X85042993Y-37335099D01*
X85157007Y-37400925D01*
X85220590Y-37417962D01*
X84550370Y-38088181D01*
X84489047Y-38121666D01*
X84462698Y-38124500D01*
X84452134Y-38124500D01*
X84452123Y-38124501D01*
X84392516Y-38130908D01*
X84257671Y-38181202D01*
X84257664Y-38181206D01*
X84142455Y-38267452D01*
X84142452Y-38267455D01*
X84056206Y-38382664D01*
X84056202Y-38382671D01*
X84005908Y-38517517D01*
X83999501Y-38577116D01*
X83999501Y-38577123D01*
X83999500Y-38577135D01*
X83999500Y-40372870D01*
X83999501Y-40372876D01*
X84005908Y-40432483D01*
X84056202Y-40567328D01*
X84056206Y-40567335D01*
X84142452Y-40682544D01*
X84142455Y-40682547D01*
X84257664Y-40768793D01*
X84257671Y-40768797D01*
X84392517Y-40819091D01*
X84392516Y-40819091D01*
X84399444Y-40819835D01*
X84452127Y-40825500D01*
X86247872Y-40825499D01*
X86307483Y-40819091D01*
X86442331Y-40768796D01*
X86557546Y-40682546D01*
X86643796Y-40567331D01*
X86694091Y-40432483D01*
X86700500Y-40372873D01*
X86700499Y-38577135D01*
X87774500Y-38577135D01*
X87774500Y-40372870D01*
X87774501Y-40372876D01*
X87780908Y-40432483D01*
X87831202Y-40567328D01*
X87831206Y-40567335D01*
X87917452Y-40682544D01*
X87917455Y-40682547D01*
X88032664Y-40768793D01*
X88032671Y-40768797D01*
X88167517Y-40819091D01*
X88167516Y-40819091D01*
X88174444Y-40819835D01*
X88227127Y-40825500D01*
X90022872Y-40825499D01*
X90082483Y-40819091D01*
X90217331Y-40768796D01*
X90332546Y-40682546D01*
X90418796Y-40567331D01*
X90469091Y-40432483D01*
X90475500Y-40372873D01*
X90475499Y-38577128D01*
X90469091Y-38517517D01*
X90464579Y-38505421D01*
X90418797Y-38382671D01*
X90418793Y-38382664D01*
X90332547Y-38267455D01*
X90332544Y-38267452D01*
X90217335Y-38181206D01*
X90217328Y-38181202D01*
X90082482Y-38130908D01*
X90082483Y-38130908D01*
X90022883Y-38124501D01*
X90022881Y-38124500D01*
X90022873Y-38124500D01*
X90022864Y-38124500D01*
X88227129Y-38124500D01*
X88227123Y-38124501D01*
X88167516Y-38130908D01*
X88032671Y-38181202D01*
X88032664Y-38181206D01*
X87917455Y-38267452D01*
X87917452Y-38267455D01*
X87831206Y-38382664D01*
X87831202Y-38382671D01*
X87780908Y-38517517D01*
X87774501Y-38577116D01*
X87774501Y-38577123D01*
X87774500Y-38577135D01*
X86700499Y-38577135D01*
X86700499Y-38577128D01*
X86694091Y-38517517D01*
X86689579Y-38505421D01*
X86643797Y-38382671D01*
X86643793Y-38382664D01*
X86557547Y-38267455D01*
X86557544Y-38267452D01*
X86442335Y-38181206D01*
X86442328Y-38181202D01*
X86307482Y-38130908D01*
X86307483Y-38130908D01*
X86247883Y-38124501D01*
X86247881Y-38124500D01*
X86247873Y-38124500D01*
X86247865Y-38124500D01*
X86237309Y-38124500D01*
X86170270Y-38104815D01*
X86149628Y-38088181D01*
X85479408Y-37417962D01*
X85542993Y-37400925D01*
X85657007Y-37335099D01*
X85750099Y-37242007D01*
X85815925Y-37127993D01*
X85832962Y-37064408D01*
X86465270Y-37696717D01*
X86465270Y-37696716D01*
X86504622Y-37642554D01*
X86601095Y-37453217D01*
X86666757Y-37251130D01*
X86666757Y-37251127D01*
X86700000Y-37041246D01*
X86700000Y-36828753D01*
X86666757Y-36618872D01*
X86666757Y-36618869D01*
X86601095Y-36416782D01*
X86504624Y-36227449D01*
X86465270Y-36173282D01*
X86465269Y-36173282D01*
X85832962Y-36805590D01*
X85815925Y-36742007D01*
X85750099Y-36627993D01*
X85657007Y-36534901D01*
X85542993Y-36469075D01*
X85479409Y-36452037D01*
X86111716Y-35819728D01*
X86057547Y-35780373D01*
X86057547Y-35780372D01*
X86048500Y-35775763D01*
X85997706Y-35727788D01*
X85980912Y-35659966D01*
X86003451Y-35593832D01*
X86048508Y-35554793D01*
X86057816Y-35550051D01*
X86203780Y-35444003D01*
X86229786Y-35425109D01*
X86229788Y-35425106D01*
X86229792Y-35425104D01*
X86380104Y-35274792D01*
X86380106Y-35274788D01*
X86380109Y-35274786D01*
X86505048Y-35102820D01*
X86505047Y-35102820D01*
X86505051Y-35102816D01*
X86601557Y-34913412D01*
X86667246Y-34711243D01*
X86700500Y-34501287D01*
X86700500Y-34288713D01*
X86667246Y-34078757D01*
X86601557Y-33876588D01*
X86550883Y-33777135D01*
X93049500Y-33777135D01*
X93049500Y-35572870D01*
X93049501Y-35572876D01*
X93055908Y-35632483D01*
X93106202Y-35767328D01*
X93106206Y-35767335D01*
X93192452Y-35882544D01*
X93192455Y-35882547D01*
X93307664Y-35968793D01*
X93307671Y-35968797D01*
X93442517Y-36019091D01*
X93442516Y-36019091D01*
X93449444Y-36019835D01*
X93502127Y-36025500D01*
X95297872Y-36025499D01*
X95357483Y-36019091D01*
X95492331Y-35968796D01*
X95607546Y-35882546D01*
X95693796Y-35767331D01*
X95744091Y-35632483D01*
X95750500Y-35572873D01*
X95750499Y-34662455D01*
X95750499Y-33777129D01*
X95750498Y-33777123D01*
X95750497Y-33777116D01*
X95744091Y-33717517D01*
X95693796Y-33582669D01*
X95693795Y-33582668D01*
X95693793Y-33582664D01*
X95607547Y-33467455D01*
X95607544Y-33467452D01*
X95492335Y-33381206D01*
X95492328Y-33381202D01*
X95357482Y-33330908D01*
X95357483Y-33330908D01*
X95297883Y-33324501D01*
X95297881Y-33324500D01*
X95297873Y-33324500D01*
X95297864Y-33324500D01*
X93502129Y-33324500D01*
X93502123Y-33324501D01*
X93442516Y-33330908D01*
X93307671Y-33381202D01*
X93307664Y-33381206D01*
X93192455Y-33467452D01*
X93192452Y-33467455D01*
X93106206Y-33582664D01*
X93106202Y-33582671D01*
X93055908Y-33717517D01*
X93049501Y-33777116D01*
X93049501Y-33777123D01*
X93049500Y-33777135D01*
X86550883Y-33777135D01*
X86505051Y-33687184D01*
X86497023Y-33676134D01*
X86380109Y-33515213D01*
X86229786Y-33364890D01*
X86057820Y-33239951D01*
X85868414Y-33143444D01*
X85868413Y-33143443D01*
X85868412Y-33143443D01*
X85666243Y-33077754D01*
X85666241Y-33077753D01*
X85666240Y-33077753D01*
X85504957Y-33052208D01*
X85456287Y-33044500D01*
X85243713Y-33044500D01*
X85195042Y-33052208D01*
X85033760Y-33077753D01*
X84831585Y-33143444D01*
X84642179Y-33239951D01*
X84470213Y-33364890D01*
X84319890Y-33515213D01*
X84194951Y-33687179D01*
X84098444Y-33876585D01*
X84032753Y-34078760D01*
X83999500Y-34288713D01*
X72865081Y-34288713D01*
X72793657Y-34217289D01*
X72793656Y-34217288D01*
X72644335Y-34125186D01*
X72477798Y-34070001D01*
X72477796Y-34070000D01*
X72375017Y-34059500D01*
X72375010Y-34059500D01*
X70574990Y-34059500D01*
X70574982Y-34059500D01*
X70472203Y-34070000D01*
X70472202Y-34070001D01*
X70389669Y-34097349D01*
X70305667Y-34125185D01*
X70305662Y-34125187D01*
X70156342Y-34217289D01*
X70032289Y-34341342D01*
X69940187Y-34490662D01*
X69940185Y-34490667D01*
X69928507Y-34525909D01*
X69885001Y-34657202D01*
X69885001Y-34657203D01*
X69885000Y-34657203D01*
X69874500Y-34759982D01*
X69874500Y-35216424D01*
X69854815Y-35283463D01*
X69802011Y-35329218D01*
X69732853Y-35339162D01*
X69669297Y-35310137D01*
X69647398Y-35285315D01*
X69556789Y-35149711D01*
X69556786Y-35149707D01*
X69445292Y-35038213D01*
X69445288Y-35038210D01*
X69314185Y-34950609D01*
X69314172Y-34950602D01*
X69168501Y-34890264D01*
X69168489Y-34890261D01*
X69013845Y-34859500D01*
X69013842Y-34859500D01*
X68856158Y-34859500D01*
X68856155Y-34859500D01*
X68701510Y-34890261D01*
X68701498Y-34890264D01*
X68555827Y-34950602D01*
X68555814Y-34950609D01*
X68424711Y-35038210D01*
X68424707Y-35038213D01*
X68313213Y-35149707D01*
X68313210Y-35149711D01*
X68225609Y-35280814D01*
X68225602Y-35280827D01*
X68165264Y-35426498D01*
X68165261Y-35426510D01*
X68134500Y-35581153D01*
X60825500Y-35581153D01*
X60825500Y-31118713D01*
X65334500Y-31118713D01*
X65334500Y-31331286D01*
X65367753Y-31541239D01*
X65433444Y-31743414D01*
X65529951Y-31932820D01*
X65654890Y-32104786D01*
X65805213Y-32255109D01*
X65977179Y-32380048D01*
X65977181Y-32380049D01*
X65977184Y-32380051D01*
X66166588Y-32476557D01*
X66368757Y-32542246D01*
X66578713Y-32575500D01*
X66578714Y-32575500D01*
X66791286Y-32575500D01*
X66791287Y-32575500D01*
X67001243Y-32542246D01*
X67203412Y-32476557D01*
X67392816Y-32380051D01*
X67479478Y-32317088D01*
X67564786Y-32255109D01*
X67564788Y-32255106D01*
X67564792Y-32255104D01*
X67715104Y-32104792D01*
X67715106Y-32104788D01*
X67715109Y-32104786D01*
X67840048Y-31932820D01*
X67840047Y-31932820D01*
X67840051Y-31932816D01*
X67844514Y-31924054D01*
X67892488Y-31873259D01*
X67960308Y-31856463D01*
X68026444Y-31878999D01*
X68065486Y-31924056D01*
X68069951Y-31932820D01*
X68194890Y-32104786D01*
X68345213Y-32255109D01*
X68517179Y-32380048D01*
X68517181Y-32380049D01*
X68517184Y-32380051D01*
X68706588Y-32476557D01*
X68908757Y-32542246D01*
X69118713Y-32575500D01*
X69118714Y-32575500D01*
X69331286Y-32575500D01*
X69331287Y-32575500D01*
X69541243Y-32542246D01*
X69743412Y-32476557D01*
X69932816Y-32380051D01*
X70019478Y-32317088D01*
X70104784Y-32255110D01*
X70104784Y-32255109D01*
X70104792Y-32255104D01*
X70218717Y-32141178D01*
X70280036Y-32107696D01*
X70349728Y-32112680D01*
X70405662Y-32154551D01*
X70422577Y-32185528D01*
X70471646Y-32317088D01*
X70471649Y-32317093D01*
X70557809Y-32432187D01*
X70557812Y-32432190D01*
X70672906Y-32518350D01*
X70672913Y-32518354D01*
X70807620Y-32568596D01*
X70807627Y-32568598D01*
X70867155Y-32574999D01*
X70867172Y-32575000D01*
X71515000Y-32575000D01*
X71515000Y-31658012D01*
X71572007Y-31690925D01*
X71699174Y-31725000D01*
X71830826Y-31725000D01*
X71957993Y-31690925D01*
X72015000Y-31658012D01*
X72015000Y-32575000D01*
X72662828Y-32575000D01*
X72662844Y-32574999D01*
X72722372Y-32568598D01*
X72722379Y-32568596D01*
X72857086Y-32518354D01*
X72857093Y-32518350D01*
X72972187Y-32432190D01*
X72972190Y-32432187D01*
X73058350Y-32317093D01*
X73058354Y-32317086D01*
X73108596Y-32182379D01*
X73108598Y-32182372D01*
X73114999Y-32122844D01*
X73115000Y-32122827D01*
X73115000Y-31475000D01*
X72198012Y-31475000D01*
X72230925Y-31417993D01*
X72265000Y-31290826D01*
X72265000Y-31159174D01*
X72230925Y-31032007D01*
X72198012Y-30975000D01*
X73115000Y-30975000D01*
X73115000Y-30327172D01*
X73114999Y-30327155D01*
X73108598Y-30267627D01*
X73108596Y-30267620D01*
X73058354Y-30132913D01*
X73058350Y-30132906D01*
X72972190Y-30017812D01*
X72972187Y-30017809D01*
X72857093Y-29931649D01*
X72857086Y-29931645D01*
X72722379Y-29881403D01*
X72722372Y-29881401D01*
X72662844Y-29875000D01*
X72015000Y-29875000D01*
X72015000Y-30791988D01*
X71957993Y-30759075D01*
X71830826Y-30725000D01*
X71699174Y-30725000D01*
X71572007Y-30759075D01*
X71515000Y-30791988D01*
X71515000Y-29875000D01*
X70867155Y-29875000D01*
X70807627Y-29881401D01*
X70807620Y-29881403D01*
X70672913Y-29931645D01*
X70672906Y-29931649D01*
X70557812Y-30017809D01*
X70557809Y-30017812D01*
X70471649Y-30132906D01*
X70471646Y-30132912D01*
X70422577Y-30264471D01*
X70380705Y-30320404D01*
X70315241Y-30344821D01*
X70246968Y-30329969D01*
X70218714Y-30308818D01*
X70104786Y-30194890D01*
X69932820Y-30069951D01*
X69743414Y-29973444D01*
X69743413Y-29973443D01*
X69743412Y-29973443D01*
X69541243Y-29907754D01*
X69541241Y-29907753D01*
X69541240Y-29907753D01*
X69379957Y-29882208D01*
X69331287Y-29874500D01*
X69118713Y-29874500D01*
X69070042Y-29882208D01*
X68908760Y-29907753D01*
X68706585Y-29973444D01*
X68517179Y-30069951D01*
X68345213Y-30194890D01*
X68194890Y-30345213D01*
X68069949Y-30517182D01*
X68065484Y-30525946D01*
X68017509Y-30576742D01*
X67949688Y-30593536D01*
X67883553Y-30570998D01*
X67844516Y-30525946D01*
X67840050Y-30517182D01*
X67715109Y-30345213D01*
X67564786Y-30194890D01*
X67392820Y-30069951D01*
X67203414Y-29973444D01*
X67203413Y-29973443D01*
X67203412Y-29973443D01*
X67001243Y-29907754D01*
X67001241Y-29907753D01*
X67001240Y-29907753D01*
X66839957Y-29882208D01*
X66791287Y-29874500D01*
X66578713Y-29874500D01*
X66530042Y-29882208D01*
X66368760Y-29907753D01*
X66166585Y-29973444D01*
X65977179Y-30069951D01*
X65805213Y-30194890D01*
X65654890Y-30345213D01*
X65529951Y-30517179D01*
X65433444Y-30706585D01*
X65367753Y-30908760D01*
X65334500Y-31118713D01*
X60825500Y-31118713D01*
X60825500Y-27945258D01*
X96844500Y-27945258D01*
X96844500Y-28174741D01*
X96869446Y-28364215D01*
X96874452Y-28402238D01*
X96874453Y-28402240D01*
X96933842Y-28623887D01*
X97021650Y-28835876D01*
X97021657Y-28835890D01*
X97136392Y-29034617D01*
X97276081Y-29216661D01*
X97276089Y-29216670D01*
X97438330Y-29378911D01*
X97438338Y-29378918D01*
X97620382Y-29518607D01*
X97620385Y-29518608D01*
X97620388Y-29518611D01*
X97819112Y-29633344D01*
X97819117Y-29633346D01*
X97819123Y-29633349D01*
X97910480Y-29671190D01*
X98031113Y-29721158D01*
X98252762Y-29780548D01*
X98480266Y-29810500D01*
X98480273Y-29810500D01*
X98709727Y-29810500D01*
X98709734Y-29810500D01*
X98937238Y-29780548D01*
X99158887Y-29721158D01*
X99370888Y-29633344D01*
X99569612Y-29518611D01*
X99751661Y-29378919D01*
X99751665Y-29378914D01*
X99751670Y-29378911D01*
X99913911Y-29216670D01*
X99913914Y-29216665D01*
X99913919Y-29216661D01*
X100053611Y-29034612D01*
X100168344Y-28835888D01*
X100256158Y-28623887D01*
X100315548Y-28402238D01*
X100345500Y-28174734D01*
X100345500Y-27945266D01*
X100345499Y-27945258D01*
X121354500Y-27945258D01*
X121354500Y-28174741D01*
X121379446Y-28364215D01*
X121384452Y-28402238D01*
X121384453Y-28402240D01*
X121443842Y-28623887D01*
X121531650Y-28835876D01*
X121531657Y-28835890D01*
X121646392Y-29034617D01*
X121786081Y-29216661D01*
X121786089Y-29216670D01*
X121948330Y-29378911D01*
X121948338Y-29378918D01*
X122130382Y-29518607D01*
X122130385Y-29518608D01*
X122130388Y-29518611D01*
X122329112Y-29633344D01*
X122329117Y-29633346D01*
X122329123Y-29633349D01*
X122420480Y-29671190D01*
X122541113Y-29721158D01*
X122762762Y-29780548D01*
X122990266Y-29810500D01*
X122990273Y-29810500D01*
X123219727Y-29810500D01*
X123219734Y-29810500D01*
X123447238Y-29780548D01*
X123668887Y-29721158D01*
X123880888Y-29633344D01*
X124079612Y-29518611D01*
X124261661Y-29378919D01*
X124261665Y-29378914D01*
X124261670Y-29378911D01*
X124423911Y-29216670D01*
X124423914Y-29216665D01*
X124423919Y-29216661D01*
X124563611Y-29034612D01*
X124678344Y-28835888D01*
X124766158Y-28623887D01*
X124825548Y-28402238D01*
X124855500Y-28174734D01*
X124855500Y-27945266D01*
X124825548Y-27717762D01*
X124766158Y-27496113D01*
X124678344Y-27284112D01*
X124563611Y-27085388D01*
X124563608Y-27085385D01*
X124563607Y-27085382D01*
X124462764Y-26953962D01*
X124423919Y-26903339D01*
X124423918Y-26903338D01*
X124423911Y-26903330D01*
X124261670Y-26741089D01*
X124261661Y-26741081D01*
X124079617Y-26601392D01*
X123880890Y-26486657D01*
X123880876Y-26486650D01*
X123727666Y-26423189D01*
X123668887Y-26398842D01*
X123668885Y-26398841D01*
X123668884Y-26398841D01*
X123603035Y-26381197D01*
X123447238Y-26339452D01*
X123409215Y-26334446D01*
X123219741Y-26309500D01*
X123219734Y-26309500D01*
X122990266Y-26309500D01*
X122990258Y-26309500D01*
X122773715Y-26338009D01*
X122762762Y-26339452D01*
X122669076Y-26364554D01*
X122541112Y-26398842D01*
X122329123Y-26486650D01*
X122329109Y-26486657D01*
X122130382Y-26601392D01*
X121948338Y-26741081D01*
X121786081Y-26903338D01*
X121646392Y-27085382D01*
X121531657Y-27284109D01*
X121531650Y-27284123D01*
X121443842Y-27496112D01*
X121384453Y-27717759D01*
X121384451Y-27717770D01*
X121354500Y-27945258D01*
X100345499Y-27945258D01*
X100315548Y-27717762D01*
X100256158Y-27496113D01*
X100168344Y-27284112D01*
X100053611Y-27085388D01*
X100053608Y-27085385D01*
X100053607Y-27085382D01*
X99952764Y-26953962D01*
X99913919Y-26903339D01*
X99913918Y-26903338D01*
X99913911Y-26903330D01*
X99751670Y-26741089D01*
X99751661Y-26741081D01*
X99569617Y-26601392D01*
X99370890Y-26486657D01*
X99370876Y-26486650D01*
X99158887Y-26398842D01*
X99158883Y-26398841D01*
X98937238Y-26339452D01*
X98899215Y-26334446D01*
X98709741Y-26309500D01*
X98709734Y-26309500D01*
X98480266Y-26309500D01*
X98480258Y-26309500D01*
X98263715Y-26338009D01*
X98252762Y-26339452D01*
X98159076Y-26364554D01*
X98031112Y-26398842D01*
X97819123Y-26486650D01*
X97819109Y-26486657D01*
X97620382Y-26601392D01*
X97438338Y-26741081D01*
X97276081Y-26903338D01*
X97136392Y-27085382D01*
X97021657Y-27284109D01*
X97021650Y-27284123D01*
X96933842Y-27496112D01*
X96874453Y-27717759D01*
X96874451Y-27717770D01*
X96844500Y-27945258D01*
X60825500Y-27945258D01*
X60825500Y-26293713D01*
X61474500Y-26293713D01*
X61474500Y-26506287D01*
X61507754Y-26716243D01*
X61568545Y-26903339D01*
X61573444Y-26918414D01*
X61669951Y-27107820D01*
X61794890Y-27279786D01*
X61945213Y-27430109D01*
X62117179Y-27555048D01*
X62117181Y-27555049D01*
X62117184Y-27555051D01*
X62306588Y-27651557D01*
X62508757Y-27717246D01*
X62718713Y-27750500D01*
X62718714Y-27750500D01*
X62931286Y-27750500D01*
X62931287Y-27750500D01*
X63141243Y-27717246D01*
X63343412Y-27651557D01*
X63532816Y-27555051D01*
X63613939Y-27496112D01*
X63704786Y-27430109D01*
X63704788Y-27430106D01*
X63704792Y-27430104D01*
X63855104Y-27279792D01*
X63855106Y-27279788D01*
X63855109Y-27279786D01*
X63980048Y-27107820D01*
X63980047Y-27107820D01*
X63980051Y-27107816D01*
X64076557Y-26918412D01*
X64142246Y-26716243D01*
X64175500Y-26506287D01*
X64175500Y-26293713D01*
X126474500Y-26293713D01*
X126474500Y-26506287D01*
X126507754Y-26716243D01*
X126568545Y-26903339D01*
X126573444Y-26918414D01*
X126669951Y-27107820D01*
X126794890Y-27279786D01*
X126945213Y-27430109D01*
X127117179Y-27555048D01*
X127117181Y-27555049D01*
X127117184Y-27555051D01*
X127306588Y-27651557D01*
X127508757Y-27717246D01*
X127718713Y-27750500D01*
X127718714Y-27750500D01*
X127931286Y-27750500D01*
X127931287Y-27750500D01*
X128141243Y-27717246D01*
X128343412Y-27651557D01*
X128532816Y-27555051D01*
X128613939Y-27496112D01*
X128704786Y-27430109D01*
X128704788Y-27430106D01*
X128704792Y-27430104D01*
X128855104Y-27279792D01*
X128855106Y-27279788D01*
X128855109Y-27279786D01*
X128980048Y-27107820D01*
X128980047Y-27107820D01*
X128980051Y-27107816D01*
X129076557Y-26918412D01*
X129142246Y-26716243D01*
X129175500Y-26506287D01*
X129175500Y-26293713D01*
X129142246Y-26083757D01*
X129076557Y-25881588D01*
X128980051Y-25692184D01*
X128980049Y-25692181D01*
X128980048Y-25692179D01*
X128855109Y-25520213D01*
X128704786Y-25369890D01*
X128532820Y-25244951D01*
X128343414Y-25148444D01*
X128343413Y-25148443D01*
X128343412Y-25148443D01*
X128141243Y-25082754D01*
X128141241Y-25082753D01*
X128141240Y-25082753D01*
X127979957Y-25057208D01*
X127931287Y-25049500D01*
X127718713Y-25049500D01*
X127670042Y-25057208D01*
X127508760Y-25082753D01*
X127306585Y-25148444D01*
X127117179Y-25244951D01*
X126945213Y-25369890D01*
X126794890Y-25520213D01*
X126669951Y-25692179D01*
X126573444Y-25881585D01*
X126507753Y-26083760D01*
X126474500Y-26293713D01*
X64175500Y-26293713D01*
X64142246Y-26083757D01*
X64076557Y-25881588D01*
X63980051Y-25692184D01*
X63980049Y-25692181D01*
X63980048Y-25692179D01*
X63855109Y-25520213D01*
X63704786Y-25369890D01*
X63532820Y-25244951D01*
X63343414Y-25148444D01*
X63343413Y-25148443D01*
X63343412Y-25148443D01*
X63141243Y-25082754D01*
X63141241Y-25082753D01*
X63141240Y-25082753D01*
X62979957Y-25057208D01*
X62931287Y-25049500D01*
X62718713Y-25049500D01*
X62670042Y-25057208D01*
X62508760Y-25082753D01*
X62306585Y-25148444D01*
X62117179Y-25244951D01*
X61945213Y-25369890D01*
X61794890Y-25520213D01*
X61669951Y-25692179D01*
X61573444Y-25881585D01*
X61507753Y-26083760D01*
X61474500Y-26293713D01*
X60825500Y-26293713D01*
X60825500Y-24524500D01*
X60845185Y-24457461D01*
X60897989Y-24411706D01*
X60949500Y-24400500D01*
X129650500Y-24400500D01*
X129717539Y-24420185D01*
G37*
%TD.AperFunction*%
%TD*%
M02*
