M48
; DRILL file {KiCad 9.0.7-9.0.7~ubuntu24.04.1} date 2026-02-24T12:36:22-0500
; FORMAT={-:-/ absolute / inch / decimal}
; #@! TF.CreationDate,2026-02-24T12:36:22-05:00
; #@! TF.GenerationSoftware,Kicad,Pcbnew,9.0.7-9.0.7~ubuntu24.04.1
; #@! TF.FileFunction,Plated,1,2,PTH
FMAT,2
INCH
; #@! TA.AperFunction,Plated,PTH,ComponentDrill
T1C0.0394
; #@! TA.AperFunction,Plated,PTH,ComponentDrill
T2C0.0402
; #@! TA.AperFunction,Plated,PTH,ComponentDrill
T3C0.0433
%
G90
G05
T1
X4.8095Y-1.6846
X4.8095Y-1.7846
X4.8095Y-1.8846
X4.8095Y-1.9846
X4.8095Y-2.1654
X4.8095Y-2.3461
X4.8095Y-2.5268
X4.8095Y-2.7075
X4.8095Y-2.8882
X4.8095Y-2.9882
X4.8095Y-3.0882
X4.8095Y-3.1882
X4.8095Y-3.3689
X4.8095Y-3.4689
X4.8095Y-3.5689
X4.9095Y-2.8882
X4.9095Y-2.9882
X4.9095Y-3.0882
X4.9095Y-3.1882
X4.9903Y-1.6846
X4.9903Y-1.7846
X4.9903Y-1.8846
X4.9903Y-1.9846
X4.9903Y-3.3689
X4.9903Y-3.4689
X4.9903Y-3.5689
X5.0906Y-2.8882
X5.0906Y-2.9882
X5.0906Y-3.0882
X5.0906Y-3.1882
X5.171Y-1.6846
X5.171Y-1.7846
X5.171Y-1.8846
X5.171Y-1.9846
X5.171Y-3.3689
X5.171Y-3.4689
X5.171Y-3.5689
X5.1906Y-2.8882
X5.1906Y-2.9882
X5.1906Y-3.0882
X5.1906Y-3.1882
X5.3517Y-1.6846
X5.3517Y-1.7846
X5.3517Y-1.8846
X5.3517Y-1.9846
X5.3718Y-2.8882
X5.3718Y-2.9882
X5.5324Y-1.6846
X5.5324Y-1.7846
X5.5324Y-1.8846
X5.5324Y-1.9846
X5.5525Y-2.8882
X5.5525Y-2.9882
X5.7131Y-1.6846
X5.7131Y-1.7846
X5.7131Y-1.8846
X5.7131Y-1.9846
X5.7332Y-2.8882
X5.7332Y-2.9882
T2
X3.6286Y-2.0169
X3.6286Y-2.1169
X3.6286Y-2.2169
X3.6286Y-2.3169
X3.6286Y-2.4169
X3.6286Y-2.5169
X3.6286Y-2.6169
X3.6286Y-2.7169
X3.6286Y-2.8169
X3.6286Y-2.9169
X3.6286Y-3.0169
X3.6286Y-3.1169
X3.6286Y-3.2169
X3.6286Y-3.3169
X3.6286Y-3.4169
X4.6286Y-2.0169
X4.6286Y-2.1169
X4.6286Y-2.2169
X4.6286Y-2.3169
X4.6286Y-2.4169
X4.6286Y-2.5169
X4.6286Y-2.6169
X4.6286Y-2.7169
X4.6286Y-2.8169
X4.6286Y-2.9169
X4.6286Y-3.0169
X4.6286Y-3.1169
X4.6286Y-3.2169
X4.6286Y-3.3169
X4.6286Y-3.4169
T3
X3.6158Y-3.8236
X3.7158Y-3.8236
X3.9147Y-3.8236
X4.0147Y-3.8236
X4.2135Y-3.8236
X4.3135Y-3.8236
X4.5123Y-3.8236
X4.6123Y-3.8236
X4.8186Y-3.8217
X4.9186Y-3.8217
X5.0186Y-3.8217
X5.1186Y-3.8217
T1
G00X5.0662Y-2.1547
M15
G01X5.1686Y-2.1547
M16
G05
G00X5.0741Y-2.4028
M15
G01X5.1607Y-2.4028
M16
G05
G00X5.3064Y-2.2256
M15
G01X5.3064Y-2.3122
M16
G05
M30
