M48
; DRILL file {KiCad 9.0.7-9.0.7~ubuntu24.04.1} date 2026-02-15T23:14:33-0500
; FORMAT={-:-/ absolute / metric / decimal}
; #@! TF.CreationDate,2026-02-15T23:14:33-05:00
; #@! TF.GenerationSoftware,Kicad,Pcbnew,9.0.7-9.0.7~ubuntu24.04.1
; #@! TF.FileFunction,Plated,1,2,PTH
FMAT,2
METRIC
; #@! TA.AperFunction,Plated,PTH,ViaDrill
T1C0.300
; #@! TA.AperFunction,Plated,PTH,ComponentDrill
T2C0.750
; #@! TA.AperFunction,Plated,PTH,ComponentDrill
T3C0.900
; #@! TA.AperFunction,Plated,PTH,ComponentDrill
T4C1.000
; #@! TA.AperFunction,Plated,PTH,ComponentDrill
T5C1.020
; #@! TA.AperFunction,Plated,PTH,ComponentDrill
T6C1.290
; #@! TA.AperFunction,Plated,PTH,ComponentDrill
T7C1.300
; #@! TA.AperFunction,Plated,PTH,ComponentDrill
T8C1.320
%
G90
G05
T1
X84.25Y-73.45
X86.5Y-74.8
X90.8Y-76.4
X93.236Y-67.064
X95.7Y-84.65
X99.5Y-89.05
X107.205Y-77.7
X110.205Y-72.4
X112.205Y-70.0
X114.35Y-99.2
X117.4Y-82.75
X118.1Y-78.6
X122.6Y-100.2
X123.05Y-95.45
X123.4Y-85.5
X126.0Y-93.6
X127.8Y-95.4
X129.9Y-97.0
X143.6Y-101.9
X155.405Y-58.1
X157.0Y-101.45
X162.4Y-91.2
X162.5Y-98.2
X162.7Y-107.6
X168.8Y-104.8
X170.1Y-103.5
X170.6Y-108.5
X177.0Y-106.4
X178.4Y-113.15
X199.0Y-104.3
X202.2Y-104.3
T2
X100.865Y-102.6
X102.135Y-101.33
X103.405Y-102.6
X191.58Y-91.115
X191.58Y-93.655
X192.85Y-92.385
T3
X87.895Y-108.8
X95.515Y-108.8
X187.75Y-90.785
X187.75Y-98.405
T4
X72.025Y-92.9
X74.565Y-92.9
X77.105Y-92.9
X81.355Y-69.35
X81.355Y-71.89
X81.355Y-74.43
X81.355Y-76.97
X94.655Y-78.185
X94.655Y-80.725
X99.389Y-70.115
X99.389Y-72.655
X99.389Y-75.195
X99.389Y-77.735
X102.205Y-91.3
X104.745Y-91.3
X105.695Y-83.1
X107.285Y-91.3
X108.235Y-83.1
X108.305Y-99.96
X108.305Y-102.5
X108.305Y-105.04
X110.775Y-83.1
X113.315Y-83.1
X118.405Y-94.4
X119.726Y-100.23
X119.726Y-102.77
X119.726Y-105.31
X119.726Y-107.85
X132.565Y-92.2
X135.105Y-92.2
X137.525Y-56.1
X137.525Y-58.64
X137.645Y-92.2
X140.065Y-56.1
X140.065Y-58.64
X142.605Y-56.1
X142.605Y-58.64
X144.995Y-93.26
X144.995Y-95.8
X145.145Y-56.1
X145.145Y-58.64
X147.535Y-93.26
X147.535Y-95.8
X150.075Y-93.26
X150.075Y-95.8
X152.615Y-93.26
X152.615Y-95.8
X157.605Y-93.8
X158.06Y-58.0
X160.2Y-101.19
X160.2Y-103.73
X160.2Y-106.27
X160.2Y-108.81
X160.6Y-58.0
X163.14Y-58.0
X168.05Y-58.05
X173.1Y-101.33
X173.1Y-103.87
X173.1Y-106.41
X173.1Y-108.95
X173.96Y-92.3
X176.5Y-92.3
X184.55Y-103.21
X194.95Y-100.11
X197.49Y-100.11
X197.825Y-112.9
X197.86Y-107.8
X200.03Y-100.11
X200.365Y-112.9
X200.4Y-107.8
X202.65Y-73.11
X202.65Y-75.65
X202.65Y-78.19
X202.94Y-107.8
X202.95Y-91.21
X202.95Y-93.75
X202.95Y-96.29
T5
X132.56Y-62.9
X132.56Y-88.3
X135.1Y-62.9
X135.1Y-88.3
X137.64Y-62.9
X137.64Y-88.3
X140.18Y-62.9
X140.18Y-88.3
X142.72Y-62.9
X142.72Y-88.3
X145.26Y-62.9
X145.26Y-88.3
X147.8Y-62.9
X147.8Y-88.3
X150.34Y-62.9
X150.34Y-88.3
X152.88Y-62.9
X152.88Y-88.3
X155.42Y-62.9
X155.42Y-88.3
X157.96Y-62.9
X157.96Y-88.3
X160.5Y-62.9
X160.5Y-88.3
X163.04Y-62.9
X163.04Y-88.3
X165.58Y-62.9
X165.58Y-88.3
X168.12Y-62.9
X168.12Y-88.3
T6
X97.505Y-98.9
X192.75Y-87.41
T7
X73.233Y-98.215
X73.233Y-103.295
X73.233Y-108.375
X73.55Y-65.8
X73.55Y-70.88
X73.55Y-75.96
X73.55Y-81.04
X116.665Y-72.328
X121.745Y-72.328
X144.855Y-109.472
X149.935Y-109.472
X190.14Y-63.45
X195.22Y-63.45
X200.3Y-63.45
T8
X83.305Y-92.9
X83.305Y-104.9
X95.505Y-92.9
X95.505Y-104.9
X186.75Y-73.21
X186.75Y-85.41
X198.75Y-73.21
X198.75Y-85.41
T4
G00X133.04Y-100.272
M15
G01X135.64Y-100.272
M16
G05
G00X133.24Y-106.572
M15
G01X135.44Y-106.572
M16
G05
G00X139.14Y-102.072
M15
G01X139.14Y-104.272
M16
G05
M30
