%TF.GenerationSoftware,KiCad,Pcbnew,9.0.7-9.0.7~ubuntu24.04.1*%
%TF.CreationDate,2026-02-15T23:13:21-05:00*%
%TF.ProjectId,plantPartner_PCB1.0,706c616e-7450-4617-9274-6e65725f5043,rev?*%
%TF.SameCoordinates,Original*%
%TF.FileFunction,Legend,Top*%
%TF.FilePolarity,Positive*%
%FSLAX46Y46*%
G04 Gerber Fmt 4.6, Leading zero omitted, Abs format (unit mm)*
G04 Created by KiCad (PCBNEW 9.0.7-9.0.7~ubuntu24.04.1) date 2026-02-15 23:13:21*
%MOMM*%
%LPD*%
G01*
G04 APERTURE LIST*
G04 Aperture macros list*
%AMRoundRect*
0 Rectangle with rounded corners*
0 $1 Rounding radius*
0 $2 $3 $4 $5 $6 $7 $8 $9 X,Y pos of 4 corners*
0 Add a 4 corners polygon primitive as box body*
4,1,4,$2,$3,$4,$5,$6,$7,$8,$9,$2,$3,0*
0 Add four circle primitives for the rounded corners*
1,1,$1+$1,$2,$3*
1,1,$1+$1,$4,$5*
1,1,$1+$1,$6,$7*
1,1,$1+$1,$8,$9*
0 Add four rect primitives between the rounded corners*
20,1,$1+$1,$2,$3,$4,$5,0*
20,1,$1+$1,$4,$5,$6,$7,0*
20,1,$1+$1,$6,$7,$8,$9,0*
20,1,$1+$1,$8,$9,$2,$3,0*%
G04 Aperture macros list end*
%ADD10C,0.100000*%
%ADD11C,0.087500*%
%ADD12C,0.150000*%
%ADD13C,0.140000*%
%ADD14C,0.120000*%
%ADD15C,0.203200*%
%ADD16C,0.127000*%
%ADD17C,0.300000*%
%ADD18C,0.200000*%
%ADD19C,0.152400*%
%ADD20RoundRect,0.100000X0.100000X-0.130000X0.100000X0.130000X-0.100000X0.130000X-0.100000X-0.130000X0*%
%ADD21R,1.700000X1.700000*%
%ADD22C,1.700000*%
%ADD23RoundRect,0.100000X-0.100000X0.130000X-0.100000X-0.130000X0.100000X-0.130000X0.100000X0.130000X0*%
%ADD24RoundRect,0.100000X-0.130000X-0.100000X0.130000X-0.100000X0.130000X0.100000X-0.130000X0.100000X0*%
%ADD25RoundRect,0.250000X1.050000X1.050000X-1.050000X1.050000X-1.050000X-1.050000X1.050000X-1.050000X0*%
%ADD26C,2.600000*%
%ADD27C,3.200000*%
%ADD28RoundRect,0.250000X-1.050000X1.050000X-1.050000X-1.050000X1.050000X-1.050000X1.050000X1.050000X0*%
%ADD29RoundRect,0.250000X-1.000000X-0.650000X1.000000X-0.650000X1.000000X0.650000X-1.000000X0.650000X0*%
%ADD30RoundRect,0.250000X0.650000X0.650000X-0.650000X0.650000X-0.650000X-0.650000X0.650000X-0.650000X0*%
%ADD31C,1.800000*%
%ADD32RoundRect,0.102000X1.104900X-0.304800X1.104900X0.304800X-1.104900X0.304800X-1.104900X-0.304800X0*%
%ADD33RoundRect,0.100000X0.130000X0.100000X-0.130000X0.100000X-0.130000X-0.100000X0.130000X-0.100000X0*%
%ADD34RoundRect,0.102000X0.990000X-0.990000X0.990000X0.990000X-0.990000X0.990000X-0.990000X-0.990000X0*%
%ADD35C,2.184000*%
%ADD36C,2.139000*%
%ADD37RoundRect,0.102000X0.300000X-0.750000X0.300000X0.750000X-0.300000X0.750000X-0.300000X-0.750000X0*%
%ADD38RoundRect,0.150000X-0.587500X-0.150000X0.587500X-0.150000X0.587500X0.150000X-0.587500X0.150000X0*%
%ADD39RoundRect,0.050800X-0.350000X-0.125000X0.350000X-0.125000X0.350000X0.125000X-0.350000X0.125000X0*%
%ADD40RoundRect,0.050800X-0.550000X-0.125000X0.550000X-0.125000X0.550000X0.125000X-0.550000X0.125000X0*%
%ADD41RoundRect,0.050800X0.125000X-0.350000X0.125000X0.350000X-0.125000X0.350000X-0.125000X-0.350000X0*%
%ADD42RoundRect,0.050800X0.125000X-0.550000X0.125000X0.550000X-0.125000X0.550000X-0.125000X-0.550000X0*%
%ADD43RoundRect,0.250000X-1.050000X-1.050000X1.050000X-1.050000X1.050000X1.050000X-1.050000X1.050000X0*%
%ADD44C,3.000000*%
%ADD45RoundRect,0.102000X-1.000000X1.000000X-1.000000X-1.000000X1.000000X-1.000000X1.000000X1.000000X0*%
%ADD46C,2.204000*%
%ADD47RoundRect,0.250000X-0.650000X0.650000X-0.650000X-0.650000X0.650000X-0.650000X0.650000X0.650000X0*%
%ADD48RoundRect,0.102000X0.990000X0.990000X-0.990000X0.990000X-0.990000X-0.990000X0.990000X-0.990000X0*%
%ADD49R,1.300000X1.300000*%
%ADD50C,1.300000*%
%ADD51R,4.600000X2.000000*%
%ADD52O,4.200000X2.000000*%
%ADD53O,2.000000X4.200000*%
%ADD54RoundRect,0.102000X0.750000X0.300000X-0.750000X0.300000X-0.750000X-0.300000X0.750000X-0.300000X0*%
G04 APERTURE END LIST*
D10*
X155500000Y-99000000D02*
X177900000Y-99000000D01*
X177900000Y-112600000D01*
X155500000Y-112600000D01*
X155500000Y-99000000D01*
X182150000Y-55110000D02*
X208150000Y-55110000D01*
X208150000Y-105510000D01*
X182150000Y-105510000D01*
X182150000Y-55110000D01*
X65605000Y-87800000D02*
X116005000Y-87800000D01*
X116005000Y-113800000D01*
X65605000Y-113800000D01*
X65605000Y-87800000D01*
X65755000Y-62150000D02*
X103355000Y-62150000D01*
X103355000Y-84950000D01*
X65755000Y-84950000D01*
X65755000Y-62150000D01*
X104256265Y-80792133D02*
X104865789Y-80792133D01*
X104561027Y-81096895D02*
X104561027Y-80487371D01*
X105627693Y-80296895D02*
X105246741Y-80296895D01*
X105246741Y-80296895D02*
X105208645Y-80677847D01*
X105208645Y-80677847D02*
X105246741Y-80639752D01*
X105246741Y-80639752D02*
X105322931Y-80601657D01*
X105322931Y-80601657D02*
X105513407Y-80601657D01*
X105513407Y-80601657D02*
X105589598Y-80639752D01*
X105589598Y-80639752D02*
X105627693Y-80677847D01*
X105627693Y-80677847D02*
X105665788Y-80754038D01*
X105665788Y-80754038D02*
X105665788Y-80944514D01*
X105665788Y-80944514D02*
X105627693Y-81020704D01*
X105627693Y-81020704D02*
X105589598Y-81058800D01*
X105589598Y-81058800D02*
X105513407Y-81096895D01*
X105513407Y-81096895D02*
X105322931Y-81096895D01*
X105322931Y-81096895D02*
X105246741Y-81058800D01*
X105246741Y-81058800D02*
X105208645Y-81020704D01*
X105894360Y-80296895D02*
X106161027Y-81096895D01*
X106161027Y-81096895D02*
X106427693Y-80296895D01*
X176537217Y-95096895D02*
X176156265Y-95096895D01*
X176156265Y-95096895D02*
X176156265Y-94296895D01*
X176765788Y-95058800D02*
X176880074Y-95096895D01*
X176880074Y-95096895D02*
X177070550Y-95096895D01*
X177070550Y-95096895D02*
X177146741Y-95058800D01*
X177146741Y-95058800D02*
X177184836Y-95020704D01*
X177184836Y-95020704D02*
X177222931Y-94944514D01*
X177222931Y-94944514D02*
X177222931Y-94868323D01*
X177222931Y-94868323D02*
X177184836Y-94792133D01*
X177184836Y-94792133D02*
X177146741Y-94754038D01*
X177146741Y-94754038D02*
X177070550Y-94715942D01*
X177070550Y-94715942D02*
X176918169Y-94677847D01*
X176918169Y-94677847D02*
X176841979Y-94639752D01*
X176841979Y-94639752D02*
X176803884Y-94601657D01*
X176803884Y-94601657D02*
X176765788Y-94525466D01*
X176765788Y-94525466D02*
X176765788Y-94449276D01*
X176765788Y-94449276D02*
X176803884Y-94373085D01*
X176803884Y-94373085D02*
X176841979Y-94334990D01*
X176841979Y-94334990D02*
X176918169Y-94296895D01*
X176918169Y-94296895D02*
X177108646Y-94296895D01*
X177108646Y-94296895D02*
X177222931Y-94334990D01*
D11*
X155824231Y-106743116D02*
X156357565Y-106743116D01*
X156090898Y-107009783D02*
X156090898Y-106476450D01*
X157057565Y-107009783D02*
X156657565Y-107009783D01*
X156857565Y-107009783D02*
X156857565Y-106309783D01*
X156857565Y-106309783D02*
X156790898Y-106409783D01*
X156790898Y-106409783D02*
X156724232Y-106476450D01*
X156724232Y-106476450D02*
X156657565Y-106509783D01*
X157324232Y-106376450D02*
X157357565Y-106343116D01*
X157357565Y-106343116D02*
X157424232Y-106309783D01*
X157424232Y-106309783D02*
X157590899Y-106309783D01*
X157590899Y-106309783D02*
X157657565Y-106343116D01*
X157657565Y-106343116D02*
X157690899Y-106376450D01*
X157690899Y-106376450D02*
X157724232Y-106443116D01*
X157724232Y-106443116D02*
X157724232Y-106509783D01*
X157724232Y-106509783D02*
X157690899Y-106609783D01*
X157690899Y-106609783D02*
X157290899Y-107009783D01*
X157290899Y-107009783D02*
X157724232Y-107009783D01*
X157924232Y-106309783D02*
X158157566Y-107009783D01*
X158157566Y-107009783D02*
X158390899Y-106309783D01*
D10*
X116656265Y-90896895D02*
X116656265Y-90096895D01*
X116656265Y-90096895D02*
X116961027Y-90096895D01*
X116961027Y-90096895D02*
X117037217Y-90134990D01*
X117037217Y-90134990D02*
X117075312Y-90173085D01*
X117075312Y-90173085D02*
X117113408Y-90249276D01*
X117113408Y-90249276D02*
X117113408Y-90363561D01*
X117113408Y-90363561D02*
X117075312Y-90439752D01*
X117075312Y-90439752D02*
X117037217Y-90477847D01*
X117037217Y-90477847D02*
X116961027Y-90515942D01*
X116961027Y-90515942D02*
X116656265Y-90515942D01*
X117380074Y-90096895D02*
X117570550Y-90896895D01*
X117570550Y-90896895D02*
X117722931Y-90325466D01*
X117722931Y-90325466D02*
X117875312Y-90896895D01*
X117875312Y-90896895D02*
X118065789Y-90096895D01*
X118370551Y-90896895D02*
X118370551Y-90096895D01*
X118370551Y-90096895D02*
X118637217Y-90668323D01*
X118637217Y-90668323D02*
X118903884Y-90096895D01*
X118903884Y-90096895D02*
X118903884Y-90896895D01*
D11*
X166169231Y-55793116D02*
X166402565Y-55793116D01*
X166502565Y-56159783D02*
X166169231Y-56159783D01*
X166169231Y-56159783D02*
X166169231Y-55459783D01*
X166169231Y-55459783D02*
X166502565Y-55459783D01*
X166769231Y-56126450D02*
X166869231Y-56159783D01*
X166869231Y-56159783D02*
X167035898Y-56159783D01*
X167035898Y-56159783D02*
X167102564Y-56126450D01*
X167102564Y-56126450D02*
X167135898Y-56093116D01*
X167135898Y-56093116D02*
X167169231Y-56026450D01*
X167169231Y-56026450D02*
X167169231Y-55959783D01*
X167169231Y-55959783D02*
X167135898Y-55893116D01*
X167135898Y-55893116D02*
X167102564Y-55859783D01*
X167102564Y-55859783D02*
X167035898Y-55826450D01*
X167035898Y-55826450D02*
X166902564Y-55793116D01*
X166902564Y-55793116D02*
X166835898Y-55759783D01*
X166835898Y-55759783D02*
X166802564Y-55726450D01*
X166802564Y-55726450D02*
X166769231Y-55659783D01*
X166769231Y-55659783D02*
X166769231Y-55593116D01*
X166769231Y-55593116D02*
X166802564Y-55526450D01*
X166802564Y-55526450D02*
X166835898Y-55493116D01*
X166835898Y-55493116D02*
X166902564Y-55459783D01*
X166902564Y-55459783D02*
X167069231Y-55459783D01*
X167069231Y-55459783D02*
X167169231Y-55493116D01*
X167469231Y-56159783D02*
X167469231Y-55459783D01*
X167469231Y-55459783D02*
X167735898Y-55459783D01*
X167735898Y-55459783D02*
X167802565Y-55493116D01*
X167802565Y-55493116D02*
X167835898Y-55526450D01*
X167835898Y-55526450D02*
X167869231Y-55593116D01*
X167869231Y-55593116D02*
X167869231Y-55693116D01*
X167869231Y-55693116D02*
X167835898Y-55759783D01*
X167835898Y-55759783D02*
X167802565Y-55793116D01*
X167802565Y-55793116D02*
X167735898Y-55826450D01*
X167735898Y-55826450D02*
X167469231Y-55826450D01*
X168635898Y-55459783D02*
X169069231Y-55459783D01*
X169069231Y-55459783D02*
X168835898Y-55726450D01*
X168835898Y-55726450D02*
X168935898Y-55726450D01*
X168935898Y-55726450D02*
X169002564Y-55759783D01*
X169002564Y-55759783D02*
X169035898Y-55793116D01*
X169035898Y-55793116D02*
X169069231Y-55859783D01*
X169069231Y-55859783D02*
X169069231Y-56026450D01*
X169069231Y-56026450D02*
X169035898Y-56093116D01*
X169035898Y-56093116D02*
X169002564Y-56126450D01*
X169002564Y-56126450D02*
X168935898Y-56159783D01*
X168935898Y-56159783D02*
X168735898Y-56159783D01*
X168735898Y-56159783D02*
X168669231Y-56126450D01*
X168669231Y-56126450D02*
X168635898Y-56093116D01*
X169369231Y-56093116D02*
X169402565Y-56126450D01*
X169402565Y-56126450D02*
X169369231Y-56159783D01*
X169369231Y-56159783D02*
X169335898Y-56126450D01*
X169335898Y-56126450D02*
X169369231Y-56093116D01*
X169369231Y-56093116D02*
X169369231Y-56159783D01*
X169635898Y-55459783D02*
X170069231Y-55459783D01*
X170069231Y-55459783D02*
X169835898Y-55726450D01*
X169835898Y-55726450D02*
X169935898Y-55726450D01*
X169935898Y-55726450D02*
X170002564Y-55759783D01*
X170002564Y-55759783D02*
X170035898Y-55793116D01*
X170035898Y-55793116D02*
X170069231Y-55859783D01*
X170069231Y-55859783D02*
X170069231Y-56026450D01*
X170069231Y-56026450D02*
X170035898Y-56093116D01*
X170035898Y-56093116D02*
X170002564Y-56126450D01*
X170002564Y-56126450D02*
X169935898Y-56159783D01*
X169935898Y-56159783D02*
X169735898Y-56159783D01*
X169735898Y-56159783D02*
X169669231Y-56126450D01*
X169669231Y-56126450D02*
X169635898Y-56093116D01*
X170269231Y-55459783D02*
X170502565Y-56159783D01*
X170502565Y-56159783D02*
X170735898Y-55459783D01*
D10*
X101888408Y-75771895D02*
X101621741Y-75390942D01*
X101431265Y-75771895D02*
X101431265Y-74971895D01*
X101431265Y-74971895D02*
X101736027Y-74971895D01*
X101736027Y-74971895D02*
X101812217Y-75009990D01*
X101812217Y-75009990D02*
X101850312Y-75048085D01*
X101850312Y-75048085D02*
X101888408Y-75124276D01*
X101888408Y-75124276D02*
X101888408Y-75238561D01*
X101888408Y-75238561D02*
X101850312Y-75314752D01*
X101850312Y-75314752D02*
X101812217Y-75352847D01*
X101812217Y-75352847D02*
X101736027Y-75390942D01*
X101736027Y-75390942D02*
X101431265Y-75390942D01*
X102231265Y-75352847D02*
X102497931Y-75352847D01*
X102612217Y-75771895D02*
X102231265Y-75771895D01*
X102231265Y-75771895D02*
X102231265Y-74971895D01*
X102231265Y-74971895D02*
X102612217Y-74971895D01*
D11*
X157124231Y-109043116D02*
X157357565Y-109043116D01*
X157457565Y-109409783D02*
X157124231Y-109409783D01*
X157124231Y-109409783D02*
X157124231Y-108709783D01*
X157124231Y-108709783D02*
X157457565Y-108709783D01*
X157757564Y-109409783D02*
X157757564Y-108709783D01*
X157757564Y-108709783D02*
X158157564Y-109409783D01*
X158157564Y-109409783D02*
X158157564Y-108709783D01*
D10*
X80056265Y-79492133D02*
X80665789Y-79492133D01*
X80361027Y-79796895D02*
X80361027Y-79187371D01*
X81427693Y-78996895D02*
X81046741Y-78996895D01*
X81046741Y-78996895D02*
X81008645Y-79377847D01*
X81008645Y-79377847D02*
X81046741Y-79339752D01*
X81046741Y-79339752D02*
X81122931Y-79301657D01*
X81122931Y-79301657D02*
X81313407Y-79301657D01*
X81313407Y-79301657D02*
X81389598Y-79339752D01*
X81389598Y-79339752D02*
X81427693Y-79377847D01*
X81427693Y-79377847D02*
X81465788Y-79454038D01*
X81465788Y-79454038D02*
X81465788Y-79644514D01*
X81465788Y-79644514D02*
X81427693Y-79720704D01*
X81427693Y-79720704D02*
X81389598Y-79758800D01*
X81389598Y-79758800D02*
X81313407Y-79796895D01*
X81313407Y-79796895D02*
X81122931Y-79796895D01*
X81122931Y-79796895D02*
X81046741Y-79758800D01*
X81046741Y-79758800D02*
X81008645Y-79720704D01*
X81694360Y-78996895D02*
X81961027Y-79796895D01*
X81961027Y-79796895D02*
X82227693Y-78996895D01*
X67170009Y-107675312D02*
X67208104Y-107599122D01*
X67208104Y-107599122D02*
X67208104Y-107484836D01*
X67208104Y-107484836D02*
X67170009Y-107370550D01*
X67170009Y-107370550D02*
X67093819Y-107294360D01*
X67093819Y-107294360D02*
X67017628Y-107256265D01*
X67017628Y-107256265D02*
X66865247Y-107218169D01*
X66865247Y-107218169D02*
X66750961Y-107218169D01*
X66750961Y-107218169D02*
X66598580Y-107256265D01*
X66598580Y-107256265D02*
X66522390Y-107294360D01*
X66522390Y-107294360D02*
X66446200Y-107370550D01*
X66446200Y-107370550D02*
X66408104Y-107484836D01*
X66408104Y-107484836D02*
X66408104Y-107561027D01*
X66408104Y-107561027D02*
X66446200Y-107675312D01*
X66446200Y-107675312D02*
X66484295Y-107713408D01*
X66484295Y-107713408D02*
X66750961Y-107713408D01*
X66750961Y-107713408D02*
X66750961Y-107561027D01*
X66408104Y-108056265D02*
X67208104Y-108056265D01*
X67208104Y-108056265D02*
X66408104Y-108513408D01*
X66408104Y-108513408D02*
X67208104Y-108513408D01*
X66408104Y-108894360D02*
X67208104Y-108894360D01*
X67208104Y-108894360D02*
X67208104Y-109084836D01*
X67208104Y-109084836D02*
X67170009Y-109199122D01*
X67170009Y-109199122D02*
X67093819Y-109275312D01*
X67093819Y-109275312D02*
X67017628Y-109313407D01*
X67017628Y-109313407D02*
X66865247Y-109351503D01*
X66865247Y-109351503D02*
X66750961Y-109351503D01*
X66750961Y-109351503D02*
X66598580Y-109313407D01*
X66598580Y-109313407D02*
X66522390Y-109275312D01*
X66522390Y-109275312D02*
X66446200Y-109199122D01*
X66446200Y-109199122D02*
X66408104Y-109084836D01*
X66408104Y-109084836D02*
X66408104Y-108894360D01*
X205510133Y-97086189D02*
X205510133Y-96476666D01*
X205814895Y-96781427D02*
X205205371Y-96781427D01*
X205014895Y-95714761D02*
X205014895Y-96095713D01*
X205014895Y-96095713D02*
X205395847Y-96133809D01*
X205395847Y-96133809D02*
X205357752Y-96095713D01*
X205357752Y-96095713D02*
X205319657Y-96019523D01*
X205319657Y-96019523D02*
X205319657Y-95829047D01*
X205319657Y-95829047D02*
X205357752Y-95752856D01*
X205357752Y-95752856D02*
X205395847Y-95714761D01*
X205395847Y-95714761D02*
X205472038Y-95676666D01*
X205472038Y-95676666D02*
X205662514Y-95676666D01*
X205662514Y-95676666D02*
X205738704Y-95714761D01*
X205738704Y-95714761D02*
X205776800Y-95752856D01*
X205776800Y-95752856D02*
X205814895Y-95829047D01*
X205814895Y-95829047D02*
X205814895Y-96019523D01*
X205814895Y-96019523D02*
X205776800Y-96095713D01*
X205776800Y-96095713D02*
X205738704Y-96133809D01*
X205014895Y-95448094D02*
X205814895Y-95181427D01*
X205814895Y-95181427D02*
X205014895Y-94914761D01*
X205814895Y-94038570D02*
X205014895Y-94038570D01*
X205395847Y-94038570D02*
X205395847Y-93581427D01*
X205814895Y-93581427D02*
X205014895Y-93581427D01*
X205052990Y-92171904D02*
X205014895Y-92248094D01*
X205014895Y-92248094D02*
X205014895Y-92362380D01*
X205014895Y-92362380D02*
X205052990Y-92476666D01*
X205052990Y-92476666D02*
X205129180Y-92552856D01*
X205129180Y-92552856D02*
X205205371Y-92590951D01*
X205205371Y-92590951D02*
X205357752Y-92629047D01*
X205357752Y-92629047D02*
X205472038Y-92629047D01*
X205472038Y-92629047D02*
X205624419Y-92590951D01*
X205624419Y-92590951D02*
X205700609Y-92552856D01*
X205700609Y-92552856D02*
X205776800Y-92476666D01*
X205776800Y-92476666D02*
X205814895Y-92362380D01*
X205814895Y-92362380D02*
X205814895Y-92286189D01*
X205814895Y-92286189D02*
X205776800Y-92171904D01*
X205776800Y-92171904D02*
X205738704Y-92133808D01*
X205738704Y-92133808D02*
X205472038Y-92133808D01*
X205472038Y-92133808D02*
X205472038Y-92286189D01*
X205814895Y-91790951D02*
X205014895Y-91790951D01*
X205014895Y-91790951D02*
X205814895Y-91333808D01*
X205814895Y-91333808D02*
X205014895Y-91333808D01*
X205814895Y-90952856D02*
X205014895Y-90952856D01*
X205014895Y-90952856D02*
X205014895Y-90762380D01*
X205014895Y-90762380D02*
X205052990Y-90648094D01*
X205052990Y-90648094D02*
X205129180Y-90571904D01*
X205129180Y-90571904D02*
X205205371Y-90533809D01*
X205205371Y-90533809D02*
X205357752Y-90495713D01*
X205357752Y-90495713D02*
X205472038Y-90495713D01*
X205472038Y-90495713D02*
X205624419Y-90533809D01*
X205624419Y-90533809D02*
X205700609Y-90571904D01*
X205700609Y-90571904D02*
X205776800Y-90648094D01*
X205776800Y-90648094D02*
X205814895Y-90762380D01*
X205814895Y-90762380D02*
X205814895Y-90952856D01*
X158922931Y-111277847D02*
X159037217Y-111315942D01*
X159037217Y-111315942D02*
X159075312Y-111354038D01*
X159075312Y-111354038D02*
X159113408Y-111430228D01*
X159113408Y-111430228D02*
X159113408Y-111544514D01*
X159113408Y-111544514D02*
X159075312Y-111620704D01*
X159075312Y-111620704D02*
X159037217Y-111658800D01*
X159037217Y-111658800D02*
X158961027Y-111696895D01*
X158961027Y-111696895D02*
X158656265Y-111696895D01*
X158656265Y-111696895D02*
X158656265Y-110896895D01*
X158656265Y-110896895D02*
X158922931Y-110896895D01*
X158922931Y-110896895D02*
X158999122Y-110934990D01*
X158999122Y-110934990D02*
X159037217Y-110973085D01*
X159037217Y-110973085D02*
X159075312Y-111049276D01*
X159075312Y-111049276D02*
X159075312Y-111125466D01*
X159075312Y-111125466D02*
X159037217Y-111201657D01*
X159037217Y-111201657D02*
X158999122Y-111239752D01*
X158999122Y-111239752D02*
X158922931Y-111277847D01*
X158922931Y-111277847D02*
X158656265Y-111277847D01*
X159799122Y-111163561D02*
X159799122Y-111696895D01*
X159456265Y-111163561D02*
X159456265Y-111582609D01*
X159456265Y-111582609D02*
X159494360Y-111658800D01*
X159494360Y-111658800D02*
X159570550Y-111696895D01*
X159570550Y-111696895D02*
X159684836Y-111696895D01*
X159684836Y-111696895D02*
X159761027Y-111658800D01*
X159761027Y-111658800D02*
X159799122Y-111620704D01*
X160522932Y-111658800D02*
X160446741Y-111696895D01*
X160446741Y-111696895D02*
X160294360Y-111696895D01*
X160294360Y-111696895D02*
X160218170Y-111658800D01*
X160218170Y-111658800D02*
X160180075Y-111620704D01*
X160180075Y-111620704D02*
X160141979Y-111544514D01*
X160141979Y-111544514D02*
X160141979Y-111315942D01*
X160141979Y-111315942D02*
X160180075Y-111239752D01*
X160180075Y-111239752D02*
X160218170Y-111201657D01*
X160218170Y-111201657D02*
X160294360Y-111163561D01*
X160294360Y-111163561D02*
X160446741Y-111163561D01*
X160446741Y-111163561D02*
X160522932Y-111201657D01*
X160865789Y-111696895D02*
X160865789Y-110896895D01*
X160941979Y-111392133D02*
X161170551Y-111696895D01*
X161170551Y-111163561D02*
X160865789Y-111468323D01*
X162580075Y-111620704D02*
X162541979Y-111658800D01*
X162541979Y-111658800D02*
X162427694Y-111696895D01*
X162427694Y-111696895D02*
X162351503Y-111696895D01*
X162351503Y-111696895D02*
X162237217Y-111658800D01*
X162237217Y-111658800D02*
X162161027Y-111582609D01*
X162161027Y-111582609D02*
X162122932Y-111506419D01*
X162122932Y-111506419D02*
X162084836Y-111354038D01*
X162084836Y-111354038D02*
X162084836Y-111239752D01*
X162084836Y-111239752D02*
X162122932Y-111087371D01*
X162122932Y-111087371D02*
X162161027Y-111011180D01*
X162161027Y-111011180D02*
X162237217Y-110934990D01*
X162237217Y-110934990D02*
X162351503Y-110896895D01*
X162351503Y-110896895D02*
X162427694Y-110896895D01*
X162427694Y-110896895D02*
X162541979Y-110934990D01*
X162541979Y-110934990D02*
X162580075Y-110973085D01*
X163037217Y-111696895D02*
X162961027Y-111658800D01*
X162961027Y-111658800D02*
X162922932Y-111620704D01*
X162922932Y-111620704D02*
X162884836Y-111544514D01*
X162884836Y-111544514D02*
X162884836Y-111315942D01*
X162884836Y-111315942D02*
X162922932Y-111239752D01*
X162922932Y-111239752D02*
X162961027Y-111201657D01*
X162961027Y-111201657D02*
X163037217Y-111163561D01*
X163037217Y-111163561D02*
X163151503Y-111163561D01*
X163151503Y-111163561D02*
X163227694Y-111201657D01*
X163227694Y-111201657D02*
X163265789Y-111239752D01*
X163265789Y-111239752D02*
X163303884Y-111315942D01*
X163303884Y-111315942D02*
X163303884Y-111544514D01*
X163303884Y-111544514D02*
X163265789Y-111620704D01*
X163265789Y-111620704D02*
X163227694Y-111658800D01*
X163227694Y-111658800D02*
X163151503Y-111696895D01*
X163151503Y-111696895D02*
X163037217Y-111696895D01*
X163646742Y-111163561D02*
X163646742Y-111696895D01*
X163646742Y-111239752D02*
X163684837Y-111201657D01*
X163684837Y-111201657D02*
X163761027Y-111163561D01*
X163761027Y-111163561D02*
X163875313Y-111163561D01*
X163875313Y-111163561D02*
X163951504Y-111201657D01*
X163951504Y-111201657D02*
X163989599Y-111277847D01*
X163989599Y-111277847D02*
X163989599Y-111696895D01*
X164294361Y-111163561D02*
X164484837Y-111696895D01*
X164484837Y-111696895D02*
X164675314Y-111163561D01*
X165284838Y-111658800D02*
X165208647Y-111696895D01*
X165208647Y-111696895D02*
X165056266Y-111696895D01*
X165056266Y-111696895D02*
X164980076Y-111658800D01*
X164980076Y-111658800D02*
X164941980Y-111582609D01*
X164941980Y-111582609D02*
X164941980Y-111277847D01*
X164941980Y-111277847D02*
X164980076Y-111201657D01*
X164980076Y-111201657D02*
X165056266Y-111163561D01*
X165056266Y-111163561D02*
X165208647Y-111163561D01*
X165208647Y-111163561D02*
X165284838Y-111201657D01*
X165284838Y-111201657D02*
X165322933Y-111277847D01*
X165322933Y-111277847D02*
X165322933Y-111354038D01*
X165322933Y-111354038D02*
X164941980Y-111430228D01*
X165665790Y-111696895D02*
X165665790Y-111163561D01*
X165665790Y-111315942D02*
X165703885Y-111239752D01*
X165703885Y-111239752D02*
X165741980Y-111201657D01*
X165741980Y-111201657D02*
X165818171Y-111163561D01*
X165818171Y-111163561D02*
X165894361Y-111163561D01*
X166046742Y-111163561D02*
X166351504Y-111163561D01*
X166161028Y-110896895D02*
X166161028Y-111582609D01*
X166161028Y-111582609D02*
X166199123Y-111658800D01*
X166199123Y-111658800D02*
X166275313Y-111696895D01*
X166275313Y-111696895D02*
X166351504Y-111696895D01*
X166922933Y-111658800D02*
X166846742Y-111696895D01*
X166846742Y-111696895D02*
X166694361Y-111696895D01*
X166694361Y-111696895D02*
X166618171Y-111658800D01*
X166618171Y-111658800D02*
X166580075Y-111582609D01*
X166580075Y-111582609D02*
X166580075Y-111277847D01*
X166580075Y-111277847D02*
X166618171Y-111201657D01*
X166618171Y-111201657D02*
X166694361Y-111163561D01*
X166694361Y-111163561D02*
X166846742Y-111163561D01*
X166846742Y-111163561D02*
X166922933Y-111201657D01*
X166922933Y-111201657D02*
X166961028Y-111277847D01*
X166961028Y-111277847D02*
X166961028Y-111354038D01*
X166961028Y-111354038D02*
X166580075Y-111430228D01*
X167303885Y-111696895D02*
X167303885Y-111163561D01*
X167303885Y-111315942D02*
X167341980Y-111239752D01*
X167341980Y-111239752D02*
X167380075Y-111201657D01*
X167380075Y-111201657D02*
X167456266Y-111163561D01*
X167456266Y-111163561D02*
X167532456Y-111163561D01*
X168637218Y-112001657D02*
X168599123Y-111963561D01*
X168599123Y-111963561D02*
X168522932Y-111849276D01*
X168522932Y-111849276D02*
X168484837Y-111773085D01*
X168484837Y-111773085D02*
X168446742Y-111658800D01*
X168446742Y-111658800D02*
X168408647Y-111468323D01*
X168408647Y-111468323D02*
X168408647Y-111315942D01*
X168408647Y-111315942D02*
X168446742Y-111125466D01*
X168446742Y-111125466D02*
X168484837Y-111011180D01*
X168484837Y-111011180D02*
X168522932Y-110934990D01*
X168522932Y-110934990D02*
X168599123Y-110820704D01*
X168599123Y-110820704D02*
X168637218Y-110782609D01*
X169361027Y-111696895D02*
X168903884Y-111696895D01*
X169132456Y-111696895D02*
X169132456Y-110896895D01*
X169132456Y-110896895D02*
X169056265Y-111011180D01*
X169056265Y-111011180D02*
X168980075Y-111087371D01*
X168980075Y-111087371D02*
X168903884Y-111125466D01*
X169665789Y-110973085D02*
X169703885Y-110934990D01*
X169703885Y-110934990D02*
X169780075Y-110896895D01*
X169780075Y-110896895D02*
X169970551Y-110896895D01*
X169970551Y-110896895D02*
X170046742Y-110934990D01*
X170046742Y-110934990D02*
X170084837Y-110973085D01*
X170084837Y-110973085D02*
X170122932Y-111049276D01*
X170122932Y-111049276D02*
X170122932Y-111125466D01*
X170122932Y-111125466D02*
X170084837Y-111239752D01*
X170084837Y-111239752D02*
X169627694Y-111696895D01*
X169627694Y-111696895D02*
X170122932Y-111696895D01*
X170351504Y-110896895D02*
X170618171Y-111696895D01*
X170618171Y-111696895D02*
X170884837Y-110896895D01*
X171646742Y-111163561D02*
X171951504Y-111163561D01*
X171761028Y-110896895D02*
X171761028Y-111582609D01*
X171761028Y-111582609D02*
X171799123Y-111658800D01*
X171799123Y-111658800D02*
X171875313Y-111696895D01*
X171875313Y-111696895D02*
X171951504Y-111696895D01*
X172332456Y-111696895D02*
X172256266Y-111658800D01*
X172256266Y-111658800D02*
X172218171Y-111620704D01*
X172218171Y-111620704D02*
X172180075Y-111544514D01*
X172180075Y-111544514D02*
X172180075Y-111315942D01*
X172180075Y-111315942D02*
X172218171Y-111239752D01*
X172218171Y-111239752D02*
X172256266Y-111201657D01*
X172256266Y-111201657D02*
X172332456Y-111163561D01*
X172332456Y-111163561D02*
X172446742Y-111163561D01*
X172446742Y-111163561D02*
X172522933Y-111201657D01*
X172522933Y-111201657D02*
X172561028Y-111239752D01*
X172561028Y-111239752D02*
X172599123Y-111315942D01*
X172599123Y-111315942D02*
X172599123Y-111544514D01*
X172599123Y-111544514D02*
X172561028Y-111620704D01*
X172561028Y-111620704D02*
X172522933Y-111658800D01*
X172522933Y-111658800D02*
X172446742Y-111696895D01*
X172446742Y-111696895D02*
X172332456Y-111696895D01*
X173932457Y-110896895D02*
X173551505Y-110896895D01*
X173551505Y-110896895D02*
X173513409Y-111277847D01*
X173513409Y-111277847D02*
X173551505Y-111239752D01*
X173551505Y-111239752D02*
X173627695Y-111201657D01*
X173627695Y-111201657D02*
X173818171Y-111201657D01*
X173818171Y-111201657D02*
X173894362Y-111239752D01*
X173894362Y-111239752D02*
X173932457Y-111277847D01*
X173932457Y-111277847D02*
X173970552Y-111354038D01*
X173970552Y-111354038D02*
X173970552Y-111544514D01*
X173970552Y-111544514D02*
X173932457Y-111620704D01*
X173932457Y-111620704D02*
X173894362Y-111658800D01*
X173894362Y-111658800D02*
X173818171Y-111696895D01*
X173818171Y-111696895D02*
X173627695Y-111696895D01*
X173627695Y-111696895D02*
X173551505Y-111658800D01*
X173551505Y-111658800D02*
X173513409Y-111620704D01*
X174199124Y-110896895D02*
X174465791Y-111696895D01*
X174465791Y-111696895D02*
X174732457Y-110896895D01*
X174922933Y-112001657D02*
X174961028Y-111963561D01*
X174961028Y-111963561D02*
X175037219Y-111849276D01*
X175037219Y-111849276D02*
X175075314Y-111773085D01*
X175075314Y-111773085D02*
X175113409Y-111658800D01*
X175113409Y-111658800D02*
X175151505Y-111468323D01*
X175151505Y-111468323D02*
X175151505Y-111315942D01*
X175151505Y-111315942D02*
X175113409Y-111125466D01*
X175113409Y-111125466D02*
X175075314Y-111011180D01*
X175075314Y-111011180D02*
X175037219Y-110934990D01*
X175037219Y-110934990D02*
X174961028Y-110820704D01*
X174961028Y-110820704D02*
X174922933Y-110782609D01*
X67431676Y-70668169D02*
X67431676Y-71049122D01*
X67203104Y-70591979D02*
X68003104Y-70858646D01*
X68003104Y-70858646D02*
X67203104Y-71125312D01*
D11*
X158924231Y-60709783D02*
X158924231Y-60009783D01*
X159257564Y-60243116D02*
X159257564Y-60709783D01*
X159257564Y-60309783D02*
X159290898Y-60276450D01*
X159290898Y-60276450D02*
X159357564Y-60243116D01*
X159357564Y-60243116D02*
X159457564Y-60243116D01*
X159457564Y-60243116D02*
X159524231Y-60276450D01*
X159524231Y-60276450D02*
X159557564Y-60343116D01*
X159557564Y-60343116D02*
X159557564Y-60709783D01*
X159790897Y-60243116D02*
X160057564Y-60243116D01*
X159890897Y-60009783D02*
X159890897Y-60609783D01*
X159890897Y-60609783D02*
X159924231Y-60676450D01*
X159924231Y-60676450D02*
X159990897Y-60709783D01*
X159990897Y-60709783D02*
X160057564Y-60709783D01*
X160290897Y-60643116D02*
X160324231Y-60676450D01*
X160324231Y-60676450D02*
X160290897Y-60709783D01*
X160290897Y-60709783D02*
X160257564Y-60676450D01*
X160257564Y-60676450D02*
X160290897Y-60643116D01*
X160290897Y-60643116D02*
X160290897Y-60709783D01*
X161490897Y-60709783D02*
X161157563Y-60709783D01*
X161157563Y-60709783D02*
X161157563Y-60009783D01*
X161724230Y-60343116D02*
X161957564Y-60343116D01*
X162057564Y-60709783D02*
X161724230Y-60709783D01*
X161724230Y-60709783D02*
X161724230Y-60009783D01*
X161724230Y-60009783D02*
X162057564Y-60009783D01*
X162357563Y-60709783D02*
X162357563Y-60009783D01*
X162357563Y-60009783D02*
X162524230Y-60009783D01*
X162524230Y-60009783D02*
X162624230Y-60043116D01*
X162624230Y-60043116D02*
X162690897Y-60109783D01*
X162690897Y-60109783D02*
X162724230Y-60176450D01*
X162724230Y-60176450D02*
X162757563Y-60309783D01*
X162757563Y-60309783D02*
X162757563Y-60409783D01*
X162757563Y-60409783D02*
X162724230Y-60543116D01*
X162724230Y-60543116D02*
X162690897Y-60609783D01*
X162690897Y-60609783D02*
X162624230Y-60676450D01*
X162624230Y-60676450D02*
X162524230Y-60709783D01*
X162524230Y-60709783D02*
X162357563Y-60709783D01*
D10*
X200342133Y-104553734D02*
X200342133Y-103944211D01*
X200646895Y-104248972D02*
X200037371Y-104248972D01*
X199846895Y-103182306D02*
X199846895Y-103563258D01*
X199846895Y-103563258D02*
X200227847Y-103601354D01*
X200227847Y-103601354D02*
X200189752Y-103563258D01*
X200189752Y-103563258D02*
X200151657Y-103487068D01*
X200151657Y-103487068D02*
X200151657Y-103296592D01*
X200151657Y-103296592D02*
X200189752Y-103220401D01*
X200189752Y-103220401D02*
X200227847Y-103182306D01*
X200227847Y-103182306D02*
X200304038Y-103144211D01*
X200304038Y-103144211D02*
X200494514Y-103144211D01*
X200494514Y-103144211D02*
X200570704Y-103182306D01*
X200570704Y-103182306D02*
X200608800Y-103220401D01*
X200608800Y-103220401D02*
X200646895Y-103296592D01*
X200646895Y-103296592D02*
X200646895Y-103487068D01*
X200646895Y-103487068D02*
X200608800Y-103563258D01*
X200608800Y-103563258D02*
X200570704Y-103601354D01*
X199846895Y-102915639D02*
X200646895Y-102648972D01*
X200646895Y-102648972D02*
X199846895Y-102382306D01*
X116922931Y-91777847D02*
X116656265Y-91777847D01*
X116656265Y-92196895D02*
X116656265Y-91396895D01*
X116656265Y-91396895D02*
X117037217Y-91396895D01*
X117646741Y-92158800D02*
X117570550Y-92196895D01*
X117570550Y-92196895D02*
X117418169Y-92196895D01*
X117418169Y-92196895D02*
X117341979Y-92158800D01*
X117341979Y-92158800D02*
X117303883Y-92082609D01*
X117303883Y-92082609D02*
X117303883Y-91777847D01*
X117303883Y-91777847D02*
X117341979Y-91701657D01*
X117341979Y-91701657D02*
X117418169Y-91663561D01*
X117418169Y-91663561D02*
X117570550Y-91663561D01*
X117570550Y-91663561D02*
X117646741Y-91701657D01*
X117646741Y-91701657D02*
X117684836Y-91777847D01*
X117684836Y-91777847D02*
X117684836Y-91854038D01*
X117684836Y-91854038D02*
X117303883Y-91930228D01*
X118027693Y-92196895D02*
X118027693Y-91663561D01*
X118027693Y-91815942D02*
X118065788Y-91739752D01*
X118065788Y-91739752D02*
X118103883Y-91701657D01*
X118103883Y-91701657D02*
X118180074Y-91663561D01*
X118180074Y-91663561D02*
X118256264Y-91663561D01*
X118408645Y-91663561D02*
X118713407Y-91663561D01*
X118522931Y-91396895D02*
X118522931Y-92082609D01*
X118522931Y-92082609D02*
X118561026Y-92158800D01*
X118561026Y-92158800D02*
X118637216Y-92196895D01*
X118637216Y-92196895D02*
X118713407Y-92196895D01*
X118980074Y-92196895D02*
X118980074Y-91663561D01*
X118980074Y-91396895D02*
X118941978Y-91434990D01*
X118941978Y-91434990D02*
X118980074Y-91473085D01*
X118980074Y-91473085D02*
X119018169Y-91434990D01*
X119018169Y-91434990D02*
X118980074Y-91396895D01*
X118980074Y-91396895D02*
X118980074Y-91473085D01*
X119475311Y-92196895D02*
X119399121Y-92158800D01*
X119399121Y-92158800D02*
X119361026Y-92082609D01*
X119361026Y-92082609D02*
X119361026Y-91396895D01*
X119780074Y-92196895D02*
X119780074Y-91663561D01*
X119780074Y-91396895D02*
X119741978Y-91434990D01*
X119741978Y-91434990D02*
X119780074Y-91473085D01*
X119780074Y-91473085D02*
X119818169Y-91434990D01*
X119818169Y-91434990D02*
X119780074Y-91396895D01*
X119780074Y-91396895D02*
X119780074Y-91473085D01*
X120084835Y-91663561D02*
X120503883Y-91663561D01*
X120503883Y-91663561D02*
X120084835Y-92196895D01*
X120084835Y-92196895D02*
X120503883Y-92196895D01*
X121113407Y-92158800D02*
X121037216Y-92196895D01*
X121037216Y-92196895D02*
X120884835Y-92196895D01*
X120884835Y-92196895D02*
X120808645Y-92158800D01*
X120808645Y-92158800D02*
X120770549Y-92082609D01*
X120770549Y-92082609D02*
X120770549Y-91777847D01*
X120770549Y-91777847D02*
X120808645Y-91701657D01*
X120808645Y-91701657D02*
X120884835Y-91663561D01*
X120884835Y-91663561D02*
X121037216Y-91663561D01*
X121037216Y-91663561D02*
X121113407Y-91701657D01*
X121113407Y-91701657D02*
X121151502Y-91777847D01*
X121151502Y-91777847D02*
X121151502Y-91854038D01*
X121151502Y-91854038D02*
X120770549Y-91930228D01*
X121494359Y-92196895D02*
X121494359Y-91663561D01*
X121494359Y-91815942D02*
X121532454Y-91739752D01*
X121532454Y-91739752D02*
X121570549Y-91701657D01*
X121570549Y-91701657D02*
X121646740Y-91663561D01*
X121646740Y-91663561D02*
X121722930Y-91663561D01*
D11*
X156790898Y-101043116D02*
X156724231Y-101009783D01*
X156724231Y-101009783D02*
X156624231Y-101009783D01*
X156624231Y-101009783D02*
X156524231Y-101043116D01*
X156524231Y-101043116D02*
X156457565Y-101109783D01*
X156457565Y-101109783D02*
X156424231Y-101176450D01*
X156424231Y-101176450D02*
X156390898Y-101309783D01*
X156390898Y-101309783D02*
X156390898Y-101409783D01*
X156390898Y-101409783D02*
X156424231Y-101543116D01*
X156424231Y-101543116D02*
X156457565Y-101609783D01*
X156457565Y-101609783D02*
X156524231Y-101676450D01*
X156524231Y-101676450D02*
X156624231Y-101709783D01*
X156624231Y-101709783D02*
X156690898Y-101709783D01*
X156690898Y-101709783D02*
X156790898Y-101676450D01*
X156790898Y-101676450D02*
X156824231Y-101643116D01*
X156824231Y-101643116D02*
X156824231Y-101409783D01*
X156824231Y-101409783D02*
X156690898Y-101409783D01*
X157124231Y-101709783D02*
X157124231Y-101009783D01*
X157124231Y-101009783D02*
X157524231Y-101709783D01*
X157524231Y-101709783D02*
X157524231Y-101009783D01*
X157857564Y-101709783D02*
X157857564Y-101009783D01*
X157857564Y-101009783D02*
X158024231Y-101009783D01*
X158024231Y-101009783D02*
X158124231Y-101043116D01*
X158124231Y-101043116D02*
X158190898Y-101109783D01*
X158190898Y-101109783D02*
X158224231Y-101176450D01*
X158224231Y-101176450D02*
X158257564Y-101309783D01*
X158257564Y-101309783D02*
X158257564Y-101409783D01*
X158257564Y-101409783D02*
X158224231Y-101543116D01*
X158224231Y-101543116D02*
X158190898Y-101609783D01*
X158190898Y-101609783D02*
X158124231Y-101676450D01*
X158124231Y-101676450D02*
X158024231Y-101709783D01*
X158024231Y-101709783D02*
X157857564Y-101709783D01*
D10*
X194756265Y-57696895D02*
X194756265Y-56896895D01*
X194756265Y-56896895D02*
X195213408Y-57696895D01*
X195213408Y-57696895D02*
X195213408Y-56896895D01*
X196051503Y-57620704D02*
X196013407Y-57658800D01*
X196013407Y-57658800D02*
X195899122Y-57696895D01*
X195899122Y-57696895D02*
X195822931Y-57696895D01*
X195822931Y-57696895D02*
X195708645Y-57658800D01*
X195708645Y-57658800D02*
X195632455Y-57582609D01*
X195632455Y-57582609D02*
X195594360Y-57506419D01*
X195594360Y-57506419D02*
X195556264Y-57354038D01*
X195556264Y-57354038D02*
X195556264Y-57239752D01*
X195556264Y-57239752D02*
X195594360Y-57087371D01*
X195594360Y-57087371D02*
X195632455Y-57011180D01*
X195632455Y-57011180D02*
X195708645Y-56934990D01*
X195708645Y-56934990D02*
X195822931Y-56896895D01*
X195822931Y-56896895D02*
X195899122Y-56896895D01*
X195899122Y-56896895D02*
X196013407Y-56934990D01*
X196013407Y-56934990D02*
X196051503Y-56973085D01*
X120630074Y-66672419D02*
X120153884Y-66672419D01*
X120153884Y-66672419D02*
X120153884Y-65672419D01*
X120725313Y-66767657D02*
X121487217Y-66767657D01*
X122249122Y-65720038D02*
X122153884Y-65672419D01*
X122153884Y-65672419D02*
X122011027Y-65672419D01*
X122011027Y-65672419D02*
X121868170Y-65720038D01*
X121868170Y-65720038D02*
X121772932Y-65815276D01*
X121772932Y-65815276D02*
X121725313Y-65910514D01*
X121725313Y-65910514D02*
X121677694Y-66100990D01*
X121677694Y-66100990D02*
X121677694Y-66243847D01*
X121677694Y-66243847D02*
X121725313Y-66434323D01*
X121725313Y-66434323D02*
X121772932Y-66529561D01*
X121772932Y-66529561D02*
X121868170Y-66624800D01*
X121868170Y-66624800D02*
X122011027Y-66672419D01*
X122011027Y-66672419D02*
X122106265Y-66672419D01*
X122106265Y-66672419D02*
X122249122Y-66624800D01*
X122249122Y-66624800D02*
X122296741Y-66577180D01*
X122296741Y-66577180D02*
X122296741Y-66243847D01*
X122296741Y-66243847D02*
X122106265Y-66243847D01*
X122725313Y-66672419D02*
X122725313Y-65672419D01*
X122725313Y-65672419D02*
X123296741Y-66672419D01*
X123296741Y-66672419D02*
X123296741Y-65672419D01*
X123772932Y-66672419D02*
X123772932Y-65672419D01*
X123772932Y-65672419D02*
X124011027Y-65672419D01*
X124011027Y-65672419D02*
X124153884Y-65720038D01*
X124153884Y-65720038D02*
X124249122Y-65815276D01*
X124249122Y-65815276D02*
X124296741Y-65910514D01*
X124296741Y-65910514D02*
X124344360Y-66100990D01*
X124344360Y-66100990D02*
X124344360Y-66243847D01*
X124344360Y-66243847D02*
X124296741Y-66434323D01*
X124296741Y-66434323D02*
X124249122Y-66529561D01*
X124249122Y-66529561D02*
X124153884Y-66624800D01*
X124153884Y-66624800D02*
X124011027Y-66672419D01*
X124011027Y-66672419D02*
X123772932Y-66672419D01*
X110561265Y-99992133D02*
X111170789Y-99992133D01*
X110866027Y-100296895D02*
X110866027Y-99687371D01*
X111932693Y-99496895D02*
X111551741Y-99496895D01*
X111551741Y-99496895D02*
X111513645Y-99877847D01*
X111513645Y-99877847D02*
X111551741Y-99839752D01*
X111551741Y-99839752D02*
X111627931Y-99801657D01*
X111627931Y-99801657D02*
X111818407Y-99801657D01*
X111818407Y-99801657D02*
X111894598Y-99839752D01*
X111894598Y-99839752D02*
X111932693Y-99877847D01*
X111932693Y-99877847D02*
X111970788Y-99954038D01*
X111970788Y-99954038D02*
X111970788Y-100144514D01*
X111970788Y-100144514D02*
X111932693Y-100220704D01*
X111932693Y-100220704D02*
X111894598Y-100258800D01*
X111894598Y-100258800D02*
X111818407Y-100296895D01*
X111818407Y-100296895D02*
X111627931Y-100296895D01*
X111627931Y-100296895D02*
X111551741Y-100258800D01*
X111551741Y-100258800D02*
X111513645Y-100220704D01*
X112199360Y-99496895D02*
X112466027Y-100296895D01*
X112466027Y-100296895D02*
X112732693Y-99496895D01*
D12*
X90808207Y-80432390D02*
X90732017Y-80394295D01*
X90732017Y-80394295D02*
X90617731Y-80394295D01*
X90617731Y-80394295D02*
X90503445Y-80432390D01*
X90503445Y-80432390D02*
X90427255Y-80508580D01*
X90427255Y-80508580D02*
X90389160Y-80584771D01*
X90389160Y-80584771D02*
X90351064Y-80737152D01*
X90351064Y-80737152D02*
X90351064Y-80851438D01*
X90351064Y-80851438D02*
X90389160Y-81003819D01*
X90389160Y-81003819D02*
X90427255Y-81080009D01*
X90427255Y-81080009D02*
X90503445Y-81156200D01*
X90503445Y-81156200D02*
X90617731Y-81194295D01*
X90617731Y-81194295D02*
X90693922Y-81194295D01*
X90693922Y-81194295D02*
X90808207Y-81156200D01*
X90808207Y-81156200D02*
X90846303Y-81118104D01*
X90846303Y-81118104D02*
X90846303Y-80851438D01*
X90846303Y-80851438D02*
X90693922Y-80851438D01*
X91189160Y-81194295D02*
X91189160Y-80394295D01*
X91189160Y-80394295D02*
X91646303Y-81194295D01*
X91646303Y-81194295D02*
X91646303Y-80394295D01*
X92027255Y-81194295D02*
X92027255Y-80394295D01*
X92027255Y-80394295D02*
X92217731Y-80394295D01*
X92217731Y-80394295D02*
X92332017Y-80432390D01*
X92332017Y-80432390D02*
X92408207Y-80508580D01*
X92408207Y-80508580D02*
X92446302Y-80584771D01*
X92446302Y-80584771D02*
X92484398Y-80737152D01*
X92484398Y-80737152D02*
X92484398Y-80851438D01*
X92484398Y-80851438D02*
X92446302Y-81003819D01*
X92446302Y-81003819D02*
X92408207Y-81080009D01*
X92408207Y-81080009D02*
X92332017Y-81156200D01*
X92332017Y-81156200D02*
X92217731Y-81194295D01*
X92217731Y-81194295D02*
X92027255Y-81194295D01*
D10*
X132527693Y-115872419D02*
X131956265Y-115872419D01*
X132241979Y-115872419D02*
X132241979Y-114872419D01*
X132241979Y-114872419D02*
X132146741Y-115015276D01*
X132146741Y-115015276D02*
X132051503Y-115110514D01*
X132051503Y-115110514D02*
X131956265Y-115158133D01*
X132908646Y-114967657D02*
X132956265Y-114920038D01*
X132956265Y-114920038D02*
X133051503Y-114872419D01*
X133051503Y-114872419D02*
X133289598Y-114872419D01*
X133289598Y-114872419D02*
X133384836Y-114920038D01*
X133384836Y-114920038D02*
X133432455Y-114967657D01*
X133432455Y-114967657D02*
X133480074Y-115062895D01*
X133480074Y-115062895D02*
X133480074Y-115158133D01*
X133480074Y-115158133D02*
X133432455Y-115300990D01*
X133432455Y-115300990D02*
X132861027Y-115872419D01*
X132861027Y-115872419D02*
X133480074Y-115872419D01*
X133765789Y-114872419D02*
X134099122Y-115872419D01*
X134099122Y-115872419D02*
X134432455Y-114872419D01*
X135527694Y-115872419D02*
X135527694Y-114872419D01*
X135527694Y-114872419D02*
X135765789Y-114872419D01*
X135765789Y-114872419D02*
X135908646Y-114920038D01*
X135908646Y-114920038D02*
X136003884Y-115015276D01*
X136003884Y-115015276D02*
X136051503Y-115110514D01*
X136051503Y-115110514D02*
X136099122Y-115300990D01*
X136099122Y-115300990D02*
X136099122Y-115443847D01*
X136099122Y-115443847D02*
X136051503Y-115634323D01*
X136051503Y-115634323D02*
X136003884Y-115729561D01*
X136003884Y-115729561D02*
X135908646Y-115824800D01*
X135908646Y-115824800D02*
X135765789Y-115872419D01*
X135765789Y-115872419D02*
X135527694Y-115872419D01*
X137099122Y-115777180D02*
X137051503Y-115824800D01*
X137051503Y-115824800D02*
X136908646Y-115872419D01*
X136908646Y-115872419D02*
X136813408Y-115872419D01*
X136813408Y-115872419D02*
X136670551Y-115824800D01*
X136670551Y-115824800D02*
X136575313Y-115729561D01*
X136575313Y-115729561D02*
X136527694Y-115634323D01*
X136527694Y-115634323D02*
X136480075Y-115443847D01*
X136480075Y-115443847D02*
X136480075Y-115300990D01*
X136480075Y-115300990D02*
X136527694Y-115110514D01*
X136527694Y-115110514D02*
X136575313Y-115015276D01*
X136575313Y-115015276D02*
X136670551Y-114920038D01*
X136670551Y-114920038D02*
X136813408Y-114872419D01*
X136813408Y-114872419D02*
X136908646Y-114872419D01*
X136908646Y-114872419D02*
X137051503Y-114920038D01*
X137051503Y-114920038D02*
X137099122Y-114967657D01*
X197284990Y-104034687D02*
X197246895Y-104110877D01*
X197246895Y-104110877D02*
X197246895Y-104225163D01*
X197246895Y-104225163D02*
X197284990Y-104339449D01*
X197284990Y-104339449D02*
X197361180Y-104415639D01*
X197361180Y-104415639D02*
X197437371Y-104453734D01*
X197437371Y-104453734D02*
X197589752Y-104491830D01*
X197589752Y-104491830D02*
X197704038Y-104491830D01*
X197704038Y-104491830D02*
X197856419Y-104453734D01*
X197856419Y-104453734D02*
X197932609Y-104415639D01*
X197932609Y-104415639D02*
X198008800Y-104339449D01*
X198008800Y-104339449D02*
X198046895Y-104225163D01*
X198046895Y-104225163D02*
X198046895Y-104148972D01*
X198046895Y-104148972D02*
X198008800Y-104034687D01*
X198008800Y-104034687D02*
X197970704Y-103996591D01*
X197970704Y-103996591D02*
X197704038Y-103996591D01*
X197704038Y-103996591D02*
X197704038Y-104148972D01*
X198046895Y-103653734D02*
X197246895Y-103653734D01*
X197246895Y-103653734D02*
X198046895Y-103196591D01*
X198046895Y-103196591D02*
X197246895Y-103196591D01*
X198046895Y-102815639D02*
X197246895Y-102815639D01*
X197246895Y-102815639D02*
X197246895Y-102625163D01*
X197246895Y-102625163D02*
X197284990Y-102510877D01*
X197284990Y-102510877D02*
X197361180Y-102434687D01*
X197361180Y-102434687D02*
X197437371Y-102396592D01*
X197437371Y-102396592D02*
X197589752Y-102358496D01*
X197589752Y-102358496D02*
X197704038Y-102358496D01*
X197704038Y-102358496D02*
X197856419Y-102396592D01*
X197856419Y-102396592D02*
X197932609Y-102434687D01*
X197932609Y-102434687D02*
X198008800Y-102510877D01*
X198008800Y-102510877D02*
X198046895Y-102625163D01*
X198046895Y-102625163D02*
X198046895Y-102815639D01*
X102047857Y-88602990D02*
X101971667Y-88564895D01*
X101971667Y-88564895D02*
X101857381Y-88564895D01*
X101857381Y-88564895D02*
X101743095Y-88602990D01*
X101743095Y-88602990D02*
X101666905Y-88679180D01*
X101666905Y-88679180D02*
X101628810Y-88755371D01*
X101628810Y-88755371D02*
X101590714Y-88907752D01*
X101590714Y-88907752D02*
X101590714Y-89022038D01*
X101590714Y-89022038D02*
X101628810Y-89174419D01*
X101628810Y-89174419D02*
X101666905Y-89250609D01*
X101666905Y-89250609D02*
X101743095Y-89326800D01*
X101743095Y-89326800D02*
X101857381Y-89364895D01*
X101857381Y-89364895D02*
X101933572Y-89364895D01*
X101933572Y-89364895D02*
X102047857Y-89326800D01*
X102047857Y-89326800D02*
X102085953Y-89288704D01*
X102085953Y-89288704D02*
X102085953Y-89022038D01*
X102085953Y-89022038D02*
X101933572Y-89022038D01*
X102428810Y-89364895D02*
X102428810Y-88564895D01*
X102428810Y-88564895D02*
X102885953Y-89364895D01*
X102885953Y-89364895D02*
X102885953Y-88564895D01*
X103266905Y-89364895D02*
X103266905Y-88564895D01*
X103266905Y-88564895D02*
X103457381Y-88564895D01*
X103457381Y-88564895D02*
X103571667Y-88602990D01*
X103571667Y-88602990D02*
X103647857Y-88679180D01*
X103647857Y-88679180D02*
X103685952Y-88755371D01*
X103685952Y-88755371D02*
X103724048Y-88907752D01*
X103724048Y-88907752D02*
X103724048Y-89022038D01*
X103724048Y-89022038D02*
X103685952Y-89174419D01*
X103685952Y-89174419D02*
X103647857Y-89250609D01*
X103647857Y-89250609D02*
X103571667Y-89326800D01*
X103571667Y-89326800D02*
X103457381Y-89364895D01*
X103457381Y-89364895D02*
X103266905Y-89364895D01*
X104676429Y-89364895D02*
X104676429Y-88564895D01*
X104676429Y-88945847D02*
X105133572Y-88945847D01*
X105133572Y-89364895D02*
X105133572Y-88564895D01*
X106124048Y-89060133D02*
X106733572Y-89060133D01*
X106428810Y-89364895D02*
X106428810Y-88755371D01*
X107495476Y-88564895D02*
X107114524Y-88564895D01*
X107114524Y-88564895D02*
X107076428Y-88945847D01*
X107076428Y-88945847D02*
X107114524Y-88907752D01*
X107114524Y-88907752D02*
X107190714Y-88869657D01*
X107190714Y-88869657D02*
X107381190Y-88869657D01*
X107381190Y-88869657D02*
X107457381Y-88907752D01*
X107457381Y-88907752D02*
X107495476Y-88945847D01*
X107495476Y-88945847D02*
X107533571Y-89022038D01*
X107533571Y-89022038D02*
X107533571Y-89212514D01*
X107533571Y-89212514D02*
X107495476Y-89288704D01*
X107495476Y-89288704D02*
X107457381Y-89326800D01*
X107457381Y-89326800D02*
X107381190Y-89364895D01*
X107381190Y-89364895D02*
X107190714Y-89364895D01*
X107190714Y-89364895D02*
X107114524Y-89326800D01*
X107114524Y-89326800D02*
X107076428Y-89288704D01*
X107762143Y-88564895D02*
X108028810Y-89364895D01*
X108028810Y-89364895D02*
X108295476Y-88564895D01*
X193372305Y-112888940D02*
X192991353Y-112888940D01*
X192991353Y-112888940D02*
X192991353Y-112088940D01*
X193638972Y-112888940D02*
X193638972Y-112355606D01*
X193638972Y-112088940D02*
X193600876Y-112127035D01*
X193600876Y-112127035D02*
X193638972Y-112165130D01*
X193638972Y-112165130D02*
X193677067Y-112127035D01*
X193677067Y-112127035D02*
X193638972Y-112088940D01*
X193638972Y-112088940D02*
X193638972Y-112165130D01*
X194362781Y-112355606D02*
X194362781Y-113003225D01*
X194362781Y-113003225D02*
X194324686Y-113079416D01*
X194324686Y-113079416D02*
X194286590Y-113117511D01*
X194286590Y-113117511D02*
X194210400Y-113155606D01*
X194210400Y-113155606D02*
X194096114Y-113155606D01*
X194096114Y-113155606D02*
X194019924Y-113117511D01*
X194362781Y-112850845D02*
X194286590Y-112888940D01*
X194286590Y-112888940D02*
X194134209Y-112888940D01*
X194134209Y-112888940D02*
X194058019Y-112850845D01*
X194058019Y-112850845D02*
X194019924Y-112812749D01*
X194019924Y-112812749D02*
X193981828Y-112736559D01*
X193981828Y-112736559D02*
X193981828Y-112507987D01*
X193981828Y-112507987D02*
X194019924Y-112431797D01*
X194019924Y-112431797D02*
X194058019Y-112393702D01*
X194058019Y-112393702D02*
X194134209Y-112355606D01*
X194134209Y-112355606D02*
X194286590Y-112355606D01*
X194286590Y-112355606D02*
X194362781Y-112393702D01*
X194743734Y-112888940D02*
X194743734Y-112088940D01*
X195086591Y-112888940D02*
X195086591Y-112469892D01*
X195086591Y-112469892D02*
X195048496Y-112393702D01*
X195048496Y-112393702D02*
X194972305Y-112355606D01*
X194972305Y-112355606D02*
X194858019Y-112355606D01*
X194858019Y-112355606D02*
X194781829Y-112393702D01*
X194781829Y-112393702D02*
X194743734Y-112431797D01*
X195353258Y-112355606D02*
X195658020Y-112355606D01*
X195467544Y-112088940D02*
X195467544Y-112774654D01*
X195467544Y-112774654D02*
X195505639Y-112850845D01*
X195505639Y-112850845D02*
X195581829Y-112888940D01*
X195581829Y-112888940D02*
X195658020Y-112888940D01*
X191848495Y-114138800D02*
X191962781Y-114176895D01*
X191962781Y-114176895D02*
X192153257Y-114176895D01*
X192153257Y-114176895D02*
X192229448Y-114138800D01*
X192229448Y-114138800D02*
X192267543Y-114100704D01*
X192267543Y-114100704D02*
X192305638Y-114024514D01*
X192305638Y-114024514D02*
X192305638Y-113948323D01*
X192305638Y-113948323D02*
X192267543Y-113872133D01*
X192267543Y-113872133D02*
X192229448Y-113834038D01*
X192229448Y-113834038D02*
X192153257Y-113795942D01*
X192153257Y-113795942D02*
X192000876Y-113757847D01*
X192000876Y-113757847D02*
X191924686Y-113719752D01*
X191924686Y-113719752D02*
X191886591Y-113681657D01*
X191886591Y-113681657D02*
X191848495Y-113605466D01*
X191848495Y-113605466D02*
X191848495Y-113529276D01*
X191848495Y-113529276D02*
X191886591Y-113453085D01*
X191886591Y-113453085D02*
X191924686Y-113414990D01*
X191924686Y-113414990D02*
X192000876Y-113376895D01*
X192000876Y-113376895D02*
X192191353Y-113376895D01*
X192191353Y-113376895D02*
X192305638Y-113414990D01*
X192953258Y-114138800D02*
X192877067Y-114176895D01*
X192877067Y-114176895D02*
X192724686Y-114176895D01*
X192724686Y-114176895D02*
X192648496Y-114138800D01*
X192648496Y-114138800D02*
X192610400Y-114062609D01*
X192610400Y-114062609D02*
X192610400Y-113757847D01*
X192610400Y-113757847D02*
X192648496Y-113681657D01*
X192648496Y-113681657D02*
X192724686Y-113643561D01*
X192724686Y-113643561D02*
X192877067Y-113643561D01*
X192877067Y-113643561D02*
X192953258Y-113681657D01*
X192953258Y-113681657D02*
X192991353Y-113757847D01*
X192991353Y-113757847D02*
X192991353Y-113834038D01*
X192991353Y-113834038D02*
X192610400Y-113910228D01*
X193334210Y-113643561D02*
X193334210Y-114176895D01*
X193334210Y-113719752D02*
X193372305Y-113681657D01*
X193372305Y-113681657D02*
X193448495Y-113643561D01*
X193448495Y-113643561D02*
X193562781Y-113643561D01*
X193562781Y-113643561D02*
X193638972Y-113681657D01*
X193638972Y-113681657D02*
X193677067Y-113757847D01*
X193677067Y-113757847D02*
X193677067Y-114176895D01*
X194019924Y-114138800D02*
X194096115Y-114176895D01*
X194096115Y-114176895D02*
X194248496Y-114176895D01*
X194248496Y-114176895D02*
X194324686Y-114138800D01*
X194324686Y-114138800D02*
X194362782Y-114062609D01*
X194362782Y-114062609D02*
X194362782Y-114024514D01*
X194362782Y-114024514D02*
X194324686Y-113948323D01*
X194324686Y-113948323D02*
X194248496Y-113910228D01*
X194248496Y-113910228D02*
X194134210Y-113910228D01*
X194134210Y-113910228D02*
X194058020Y-113872133D01*
X194058020Y-113872133D02*
X194019924Y-113795942D01*
X194019924Y-113795942D02*
X194019924Y-113757847D01*
X194019924Y-113757847D02*
X194058020Y-113681657D01*
X194058020Y-113681657D02*
X194134210Y-113643561D01*
X194134210Y-113643561D02*
X194248496Y-113643561D01*
X194248496Y-113643561D02*
X194324686Y-113681657D01*
X194819924Y-114176895D02*
X194743734Y-114138800D01*
X194743734Y-114138800D02*
X194705639Y-114100704D01*
X194705639Y-114100704D02*
X194667543Y-114024514D01*
X194667543Y-114024514D02*
X194667543Y-113795942D01*
X194667543Y-113795942D02*
X194705639Y-113719752D01*
X194705639Y-113719752D02*
X194743734Y-113681657D01*
X194743734Y-113681657D02*
X194819924Y-113643561D01*
X194819924Y-113643561D02*
X194934210Y-113643561D01*
X194934210Y-113643561D02*
X195010401Y-113681657D01*
X195010401Y-113681657D02*
X195048496Y-113719752D01*
X195048496Y-113719752D02*
X195086591Y-113795942D01*
X195086591Y-113795942D02*
X195086591Y-114024514D01*
X195086591Y-114024514D02*
X195048496Y-114100704D01*
X195048496Y-114100704D02*
X195010401Y-114138800D01*
X195010401Y-114138800D02*
X194934210Y-114176895D01*
X194934210Y-114176895D02*
X194819924Y-114176895D01*
X195429449Y-114176895D02*
X195429449Y-113643561D01*
X195429449Y-113795942D02*
X195467544Y-113719752D01*
X195467544Y-113719752D02*
X195505639Y-113681657D01*
X195505639Y-113681657D02*
X195581830Y-113643561D01*
X195581830Y-113643561D02*
X195658020Y-113643561D01*
X194175312Y-107624990D02*
X194099122Y-107586895D01*
X194099122Y-107586895D02*
X193984836Y-107586895D01*
X193984836Y-107586895D02*
X193870550Y-107624990D01*
X193870550Y-107624990D02*
X193794360Y-107701180D01*
X193794360Y-107701180D02*
X193756265Y-107777371D01*
X193756265Y-107777371D02*
X193718169Y-107929752D01*
X193718169Y-107929752D02*
X193718169Y-108044038D01*
X193718169Y-108044038D02*
X193756265Y-108196419D01*
X193756265Y-108196419D02*
X193794360Y-108272609D01*
X193794360Y-108272609D02*
X193870550Y-108348800D01*
X193870550Y-108348800D02*
X193984836Y-108386895D01*
X193984836Y-108386895D02*
X194061027Y-108386895D01*
X194061027Y-108386895D02*
X194175312Y-108348800D01*
X194175312Y-108348800D02*
X194213408Y-108310704D01*
X194213408Y-108310704D02*
X194213408Y-108044038D01*
X194213408Y-108044038D02*
X194061027Y-108044038D01*
X194556265Y-108386895D02*
X194556265Y-107586895D01*
X194556265Y-107586895D02*
X195013408Y-108386895D01*
X195013408Y-108386895D02*
X195013408Y-107586895D01*
X195394360Y-108386895D02*
X195394360Y-107586895D01*
X195394360Y-107586895D02*
X195584836Y-107586895D01*
X195584836Y-107586895D02*
X195699122Y-107624990D01*
X195699122Y-107624990D02*
X195775312Y-107701180D01*
X195775312Y-107701180D02*
X195813407Y-107777371D01*
X195813407Y-107777371D02*
X195851503Y-107929752D01*
X195851503Y-107929752D02*
X195851503Y-108044038D01*
X195851503Y-108044038D02*
X195813407Y-108196419D01*
X195813407Y-108196419D02*
X195775312Y-108272609D01*
X195775312Y-108272609D02*
X195699122Y-108348800D01*
X195699122Y-108348800D02*
X195584836Y-108386895D01*
X195584836Y-108386895D02*
X195394360Y-108386895D01*
X110461265Y-105092133D02*
X111070789Y-105092133D01*
X110766027Y-105396895D02*
X110766027Y-104787371D01*
X111870788Y-105396895D02*
X111413645Y-105396895D01*
X111642217Y-105396895D02*
X111642217Y-104596895D01*
X111642217Y-104596895D02*
X111566026Y-104711180D01*
X111566026Y-104711180D02*
X111489836Y-104787371D01*
X111489836Y-104787371D02*
X111413645Y-104825466D01*
X112175550Y-104673085D02*
X112213646Y-104634990D01*
X112213646Y-104634990D02*
X112289836Y-104596895D01*
X112289836Y-104596895D02*
X112480312Y-104596895D01*
X112480312Y-104596895D02*
X112556503Y-104634990D01*
X112556503Y-104634990D02*
X112594598Y-104673085D01*
X112594598Y-104673085D02*
X112632693Y-104749276D01*
X112632693Y-104749276D02*
X112632693Y-104825466D01*
X112632693Y-104825466D02*
X112594598Y-104939752D01*
X112594598Y-104939752D02*
X112137455Y-105396895D01*
X112137455Y-105396895D02*
X112632693Y-105396895D01*
X112861265Y-104596895D02*
X113127932Y-105396895D01*
X113127932Y-105396895D02*
X113394598Y-104596895D01*
D11*
X155885898Y-55709783D02*
X156219231Y-55709783D01*
X155819231Y-55909783D02*
X156052565Y-55209783D01*
X156052565Y-55209783D02*
X156285898Y-55909783D01*
X156519231Y-55909783D02*
X156519231Y-55209783D01*
X156519231Y-55209783D02*
X156685898Y-55209783D01*
X156685898Y-55209783D02*
X156785898Y-55243116D01*
X156785898Y-55243116D02*
X156852565Y-55309783D01*
X156852565Y-55309783D02*
X156885898Y-55376450D01*
X156885898Y-55376450D02*
X156919231Y-55509783D01*
X156919231Y-55509783D02*
X156919231Y-55609783D01*
X156919231Y-55609783D02*
X156885898Y-55743116D01*
X156885898Y-55743116D02*
X156852565Y-55809783D01*
X156852565Y-55809783D02*
X156785898Y-55876450D01*
X156785898Y-55876450D02*
X156685898Y-55909783D01*
X156685898Y-55909783D02*
X156519231Y-55909783D01*
X157619231Y-55843116D02*
X157585898Y-55876450D01*
X157585898Y-55876450D02*
X157485898Y-55909783D01*
X157485898Y-55909783D02*
X157419231Y-55909783D01*
X157419231Y-55909783D02*
X157319231Y-55876450D01*
X157319231Y-55876450D02*
X157252565Y-55809783D01*
X157252565Y-55809783D02*
X157219231Y-55743116D01*
X157219231Y-55743116D02*
X157185898Y-55609783D01*
X157185898Y-55609783D02*
X157185898Y-55509783D01*
X157185898Y-55509783D02*
X157219231Y-55376450D01*
X157219231Y-55376450D02*
X157252565Y-55309783D01*
X157252565Y-55309783D02*
X157319231Y-55243116D01*
X157319231Y-55243116D02*
X157419231Y-55209783D01*
X157419231Y-55209783D02*
X157485898Y-55209783D01*
X157485898Y-55209783D02*
X157585898Y-55243116D01*
X157585898Y-55243116D02*
X157619231Y-55276450D01*
X157885898Y-55276450D02*
X157919231Y-55243116D01*
X157919231Y-55243116D02*
X157985898Y-55209783D01*
X157985898Y-55209783D02*
X158152565Y-55209783D01*
X158152565Y-55209783D02*
X158219231Y-55243116D01*
X158219231Y-55243116D02*
X158252565Y-55276450D01*
X158252565Y-55276450D02*
X158285898Y-55343116D01*
X158285898Y-55343116D02*
X158285898Y-55409783D01*
X158285898Y-55409783D02*
X158252565Y-55509783D01*
X158252565Y-55509783D02*
X157852565Y-55909783D01*
X157852565Y-55909783D02*
X158285898Y-55909783D01*
X158419232Y-55976450D02*
X158952565Y-55976450D01*
X159252565Y-55209783D02*
X159319231Y-55209783D01*
X159319231Y-55209783D02*
X159385898Y-55243116D01*
X159385898Y-55243116D02*
X159419231Y-55276450D01*
X159419231Y-55276450D02*
X159452565Y-55343116D01*
X159452565Y-55343116D02*
X159485898Y-55476450D01*
X159485898Y-55476450D02*
X159485898Y-55643116D01*
X159485898Y-55643116D02*
X159452565Y-55776450D01*
X159452565Y-55776450D02*
X159419231Y-55843116D01*
X159419231Y-55843116D02*
X159385898Y-55876450D01*
X159385898Y-55876450D02*
X159319231Y-55909783D01*
X159319231Y-55909783D02*
X159252565Y-55909783D01*
X159252565Y-55909783D02*
X159185898Y-55876450D01*
X159185898Y-55876450D02*
X159152565Y-55843116D01*
X159152565Y-55843116D02*
X159119231Y-55776450D01*
X159119231Y-55776450D02*
X159085898Y-55643116D01*
X159085898Y-55643116D02*
X159085898Y-55476450D01*
X159085898Y-55476450D02*
X159119231Y-55343116D01*
X159119231Y-55343116D02*
X159152565Y-55276450D01*
X159152565Y-55276450D02*
X159185898Y-55243116D01*
X159185898Y-55243116D02*
X159252565Y-55209783D01*
D10*
X206572419Y-78369925D02*
X206572419Y-78846115D01*
X206572419Y-78846115D02*
X207048609Y-78893734D01*
X207048609Y-78893734D02*
X207000990Y-78846115D01*
X207000990Y-78846115D02*
X206953371Y-78750877D01*
X206953371Y-78750877D02*
X206953371Y-78512782D01*
X206953371Y-78512782D02*
X207000990Y-78417544D01*
X207000990Y-78417544D02*
X207048609Y-78369925D01*
X207048609Y-78369925D02*
X207143847Y-78322306D01*
X207143847Y-78322306D02*
X207381942Y-78322306D01*
X207381942Y-78322306D02*
X207477180Y-78369925D01*
X207477180Y-78369925D02*
X207524800Y-78417544D01*
X207524800Y-78417544D02*
X207572419Y-78512782D01*
X207572419Y-78512782D02*
X207572419Y-78750877D01*
X207572419Y-78750877D02*
X207524800Y-78846115D01*
X207524800Y-78846115D02*
X207477180Y-78893734D01*
X206572419Y-78036591D02*
X207572419Y-77703258D01*
X207572419Y-77703258D02*
X206572419Y-77369925D01*
X207572419Y-75703258D02*
X207096228Y-76036591D01*
X207572419Y-76274686D02*
X206572419Y-76274686D01*
X206572419Y-76274686D02*
X206572419Y-75893734D01*
X206572419Y-75893734D02*
X206620038Y-75798496D01*
X206620038Y-75798496D02*
X206667657Y-75750877D01*
X206667657Y-75750877D02*
X206762895Y-75703258D01*
X206762895Y-75703258D02*
X206905752Y-75703258D01*
X206905752Y-75703258D02*
X207000990Y-75750877D01*
X207000990Y-75750877D02*
X207048609Y-75798496D01*
X207048609Y-75798496D02*
X207096228Y-75893734D01*
X207096228Y-75893734D02*
X207096228Y-76274686D01*
X207524800Y-74893734D02*
X207572419Y-74988972D01*
X207572419Y-74988972D02*
X207572419Y-75179448D01*
X207572419Y-75179448D02*
X207524800Y-75274686D01*
X207524800Y-75274686D02*
X207429561Y-75322305D01*
X207429561Y-75322305D02*
X207048609Y-75322305D01*
X207048609Y-75322305D02*
X206953371Y-75274686D01*
X206953371Y-75274686D02*
X206905752Y-75179448D01*
X206905752Y-75179448D02*
X206905752Y-74988972D01*
X206905752Y-74988972D02*
X206953371Y-74893734D01*
X206953371Y-74893734D02*
X207048609Y-74846115D01*
X207048609Y-74846115D02*
X207143847Y-74846115D01*
X207143847Y-74846115D02*
X207239085Y-75322305D01*
X207572419Y-74274686D02*
X207524800Y-74369924D01*
X207524800Y-74369924D02*
X207429561Y-74417543D01*
X207429561Y-74417543D02*
X206572419Y-74417543D01*
X207572419Y-73465162D02*
X207048609Y-73465162D01*
X207048609Y-73465162D02*
X206953371Y-73512781D01*
X206953371Y-73512781D02*
X206905752Y-73608019D01*
X206905752Y-73608019D02*
X206905752Y-73798495D01*
X206905752Y-73798495D02*
X206953371Y-73893733D01*
X207524800Y-73465162D02*
X207572419Y-73560400D01*
X207572419Y-73560400D02*
X207572419Y-73798495D01*
X207572419Y-73798495D02*
X207524800Y-73893733D01*
X207524800Y-73893733D02*
X207429561Y-73941352D01*
X207429561Y-73941352D02*
X207334323Y-73941352D01*
X207334323Y-73941352D02*
X207239085Y-73893733D01*
X207239085Y-73893733D02*
X207191466Y-73798495D01*
X207191466Y-73798495D02*
X207191466Y-73560400D01*
X207191466Y-73560400D02*
X207143847Y-73465162D01*
X206905752Y-73084209D02*
X207572419Y-72846114D01*
X206905752Y-72608019D02*
X207572419Y-72846114D01*
X207572419Y-72846114D02*
X207810514Y-72941352D01*
X207810514Y-72941352D02*
X207858133Y-72988971D01*
X207858133Y-72988971D02*
X207905752Y-73084209D01*
X207191466Y-71465161D02*
X207191466Y-70703257D01*
X206572419Y-69560399D02*
X207572419Y-69322304D01*
X207572419Y-69322304D02*
X206858133Y-69131828D01*
X206858133Y-69131828D02*
X207572419Y-68941352D01*
X207572419Y-68941352D02*
X206572419Y-68703257D01*
X207572419Y-67893733D02*
X207048609Y-67893733D01*
X207048609Y-67893733D02*
X206953371Y-67941352D01*
X206953371Y-67941352D02*
X206905752Y-68036590D01*
X206905752Y-68036590D02*
X206905752Y-68227066D01*
X206905752Y-68227066D02*
X206953371Y-68322304D01*
X207524800Y-67893733D02*
X207572419Y-67988971D01*
X207572419Y-67988971D02*
X207572419Y-68227066D01*
X207572419Y-68227066D02*
X207524800Y-68322304D01*
X207524800Y-68322304D02*
X207429561Y-68369923D01*
X207429561Y-68369923D02*
X207334323Y-68369923D01*
X207334323Y-68369923D02*
X207239085Y-68322304D01*
X207239085Y-68322304D02*
X207191466Y-68227066D01*
X207191466Y-68227066D02*
X207191466Y-67988971D01*
X207191466Y-67988971D02*
X207143847Y-67893733D01*
X206905752Y-67560399D02*
X206905752Y-67179447D01*
X206572419Y-67417542D02*
X207429561Y-67417542D01*
X207429561Y-67417542D02*
X207524800Y-67369923D01*
X207524800Y-67369923D02*
X207572419Y-67274685D01*
X207572419Y-67274685D02*
X207572419Y-67179447D01*
X207524800Y-66465161D02*
X207572419Y-66560399D01*
X207572419Y-66560399D02*
X207572419Y-66750875D01*
X207572419Y-66750875D02*
X207524800Y-66846113D01*
X207524800Y-66846113D02*
X207429561Y-66893732D01*
X207429561Y-66893732D02*
X207048609Y-66893732D01*
X207048609Y-66893732D02*
X206953371Y-66846113D01*
X206953371Y-66846113D02*
X206905752Y-66750875D01*
X206905752Y-66750875D02*
X206905752Y-66560399D01*
X206905752Y-66560399D02*
X206953371Y-66465161D01*
X206953371Y-66465161D02*
X207048609Y-66417542D01*
X207048609Y-66417542D02*
X207143847Y-66417542D01*
X207143847Y-66417542D02*
X207239085Y-66893732D01*
X207572419Y-65988970D02*
X206905752Y-65988970D01*
X207096228Y-65988970D02*
X207000990Y-65941351D01*
X207000990Y-65941351D02*
X206953371Y-65893732D01*
X206953371Y-65893732D02*
X206905752Y-65798494D01*
X206905752Y-65798494D02*
X206905752Y-65703256D01*
X207572419Y-64608017D02*
X206572419Y-64608017D01*
X206572419Y-64608017D02*
X206572419Y-64227065D01*
X206572419Y-64227065D02*
X206620038Y-64131827D01*
X206620038Y-64131827D02*
X206667657Y-64084208D01*
X206667657Y-64084208D02*
X206762895Y-64036589D01*
X206762895Y-64036589D02*
X206905752Y-64036589D01*
X206905752Y-64036589D02*
X207000990Y-64084208D01*
X207000990Y-64084208D02*
X207048609Y-64131827D01*
X207048609Y-64131827D02*
X207096228Y-64227065D01*
X207096228Y-64227065D02*
X207096228Y-64608017D01*
X206905752Y-63179446D02*
X207572419Y-63179446D01*
X206905752Y-63608017D02*
X207429561Y-63608017D01*
X207429561Y-63608017D02*
X207524800Y-63560398D01*
X207524800Y-63560398D02*
X207572419Y-63465160D01*
X207572419Y-63465160D02*
X207572419Y-63322303D01*
X207572419Y-63322303D02*
X207524800Y-63227065D01*
X207524800Y-63227065D02*
X207477180Y-63179446D01*
X207572419Y-62703255D02*
X206905752Y-62703255D01*
X207000990Y-62703255D02*
X206953371Y-62655636D01*
X206953371Y-62655636D02*
X206905752Y-62560398D01*
X206905752Y-62560398D02*
X206905752Y-62417541D01*
X206905752Y-62417541D02*
X206953371Y-62322303D01*
X206953371Y-62322303D02*
X207048609Y-62274684D01*
X207048609Y-62274684D02*
X207572419Y-62274684D01*
X207048609Y-62274684D02*
X206953371Y-62227065D01*
X206953371Y-62227065D02*
X206905752Y-62131827D01*
X206905752Y-62131827D02*
X206905752Y-61988970D01*
X206905752Y-61988970D02*
X206953371Y-61893731D01*
X206953371Y-61893731D02*
X207048609Y-61846112D01*
X207048609Y-61846112D02*
X207572419Y-61846112D01*
X206905752Y-61369922D02*
X207905752Y-61369922D01*
X206953371Y-61369922D02*
X206905752Y-61274684D01*
X206905752Y-61274684D02*
X206905752Y-61084208D01*
X206905752Y-61084208D02*
X206953371Y-60988970D01*
X206953371Y-60988970D02*
X207000990Y-60941351D01*
X207000990Y-60941351D02*
X207096228Y-60893732D01*
X207096228Y-60893732D02*
X207381942Y-60893732D01*
X207381942Y-60893732D02*
X207477180Y-60941351D01*
X207477180Y-60941351D02*
X207524800Y-60988970D01*
X207524800Y-60988970D02*
X207572419Y-61084208D01*
X207572419Y-61084208D02*
X207572419Y-61274684D01*
X207572419Y-61274684D02*
X207524800Y-61369922D01*
X199256265Y-115392133D02*
X199865789Y-115392133D01*
X199561027Y-115696895D02*
X199561027Y-115087371D01*
X200627693Y-114896895D02*
X200246741Y-114896895D01*
X200246741Y-114896895D02*
X200208645Y-115277847D01*
X200208645Y-115277847D02*
X200246741Y-115239752D01*
X200246741Y-115239752D02*
X200322931Y-115201657D01*
X200322931Y-115201657D02*
X200513407Y-115201657D01*
X200513407Y-115201657D02*
X200589598Y-115239752D01*
X200589598Y-115239752D02*
X200627693Y-115277847D01*
X200627693Y-115277847D02*
X200665788Y-115354038D01*
X200665788Y-115354038D02*
X200665788Y-115544514D01*
X200665788Y-115544514D02*
X200627693Y-115620704D01*
X200627693Y-115620704D02*
X200589598Y-115658800D01*
X200589598Y-115658800D02*
X200513407Y-115696895D01*
X200513407Y-115696895D02*
X200322931Y-115696895D01*
X200322931Y-115696895D02*
X200246741Y-115658800D01*
X200246741Y-115658800D02*
X200208645Y-115620704D01*
X200894360Y-114896895D02*
X201161027Y-115696895D01*
X201161027Y-115696895D02*
X201427693Y-114896895D01*
D11*
X175024231Y-103943116D02*
X175557565Y-103943116D01*
X175290898Y-104209783D02*
X175290898Y-103676450D01*
X176224232Y-103509783D02*
X175890898Y-103509783D01*
X175890898Y-103509783D02*
X175857565Y-103843116D01*
X175857565Y-103843116D02*
X175890898Y-103809783D01*
X175890898Y-103809783D02*
X175957565Y-103776450D01*
X175957565Y-103776450D02*
X176124232Y-103776450D01*
X176124232Y-103776450D02*
X176190898Y-103809783D01*
X176190898Y-103809783D02*
X176224232Y-103843116D01*
X176224232Y-103843116D02*
X176257565Y-103909783D01*
X176257565Y-103909783D02*
X176257565Y-104076450D01*
X176257565Y-104076450D02*
X176224232Y-104143116D01*
X176224232Y-104143116D02*
X176190898Y-104176450D01*
X176190898Y-104176450D02*
X176124232Y-104209783D01*
X176124232Y-104209783D02*
X175957565Y-104209783D01*
X175957565Y-104209783D02*
X175890898Y-104176450D01*
X175890898Y-104176450D02*
X175857565Y-104143116D01*
X176457565Y-103509783D02*
X176690899Y-104209783D01*
X176690899Y-104209783D02*
X176924232Y-103509783D01*
X175557565Y-101143116D02*
X175324231Y-101143116D01*
X175324231Y-101509783D02*
X175324231Y-100809783D01*
X175324231Y-100809783D02*
X175657565Y-100809783D01*
X176157565Y-101143116D02*
X176257565Y-101176450D01*
X176257565Y-101176450D02*
X176290898Y-101209783D01*
X176290898Y-101209783D02*
X176324231Y-101276450D01*
X176324231Y-101276450D02*
X176324231Y-101376450D01*
X176324231Y-101376450D02*
X176290898Y-101443116D01*
X176290898Y-101443116D02*
X176257565Y-101476450D01*
X176257565Y-101476450D02*
X176190898Y-101509783D01*
X176190898Y-101509783D02*
X175924231Y-101509783D01*
X175924231Y-101509783D02*
X175924231Y-100809783D01*
X175924231Y-100809783D02*
X176157565Y-100809783D01*
X176157565Y-100809783D02*
X176224231Y-100843116D01*
X176224231Y-100843116D02*
X176257565Y-100876450D01*
X176257565Y-100876450D02*
X176290898Y-100943116D01*
X176290898Y-100943116D02*
X176290898Y-101009783D01*
X176290898Y-101009783D02*
X176257565Y-101076450D01*
X176257565Y-101076450D02*
X176224231Y-101109783D01*
X176224231Y-101109783D02*
X176157565Y-101143116D01*
X176157565Y-101143116D02*
X175924231Y-101143116D01*
D10*
X121803884Y-105391466D02*
X122565789Y-105391466D01*
X122184836Y-105772419D02*
X122184836Y-105010514D01*
X123565788Y-105772419D02*
X122994360Y-105772419D01*
X123280074Y-105772419D02*
X123280074Y-104772419D01*
X123280074Y-104772419D02*
X123184836Y-104915276D01*
X123184836Y-104915276D02*
X123089598Y-105010514D01*
X123089598Y-105010514D02*
X122994360Y-105058133D01*
X123946741Y-104867657D02*
X123994360Y-104820038D01*
X123994360Y-104820038D02*
X124089598Y-104772419D01*
X124089598Y-104772419D02*
X124327693Y-104772419D01*
X124327693Y-104772419D02*
X124422931Y-104820038D01*
X124422931Y-104820038D02*
X124470550Y-104867657D01*
X124470550Y-104867657D02*
X124518169Y-104962895D01*
X124518169Y-104962895D02*
X124518169Y-105058133D01*
X124518169Y-105058133D02*
X124470550Y-105200990D01*
X124470550Y-105200990D02*
X123899122Y-105772419D01*
X123899122Y-105772419D02*
X124518169Y-105772419D01*
X124803884Y-104772419D02*
X125137217Y-105772419D01*
X125137217Y-105772419D02*
X125470550Y-104772419D01*
X109356265Y-80792133D02*
X109965789Y-80792133D01*
X109661027Y-81096895D02*
X109661027Y-80487371D01*
X110765788Y-81096895D02*
X110308645Y-81096895D01*
X110537217Y-81096895D02*
X110537217Y-80296895D01*
X110537217Y-80296895D02*
X110461026Y-80411180D01*
X110461026Y-80411180D02*
X110384836Y-80487371D01*
X110384836Y-80487371D02*
X110308645Y-80525466D01*
X111070550Y-80373085D02*
X111108646Y-80334990D01*
X111108646Y-80334990D02*
X111184836Y-80296895D01*
X111184836Y-80296895D02*
X111375312Y-80296895D01*
X111375312Y-80296895D02*
X111451503Y-80334990D01*
X111451503Y-80334990D02*
X111489598Y-80373085D01*
X111489598Y-80373085D02*
X111527693Y-80449276D01*
X111527693Y-80449276D02*
X111527693Y-80525466D01*
X111527693Y-80525466D02*
X111489598Y-80639752D01*
X111489598Y-80639752D02*
X111032455Y-81096895D01*
X111032455Y-81096895D02*
X111527693Y-81096895D01*
X111756265Y-80296895D02*
X112022932Y-81096895D01*
X112022932Y-81096895D02*
X112289598Y-80296895D01*
X186580074Y-103396895D02*
X186770550Y-104196895D01*
X186770550Y-104196895D02*
X186922931Y-103625466D01*
X186922931Y-103625466D02*
X187075312Y-104196895D01*
X187075312Y-104196895D02*
X187265789Y-103396895D01*
X187913408Y-104196895D02*
X187913408Y-103777847D01*
X187913408Y-103777847D02*
X187875313Y-103701657D01*
X187875313Y-103701657D02*
X187799122Y-103663561D01*
X187799122Y-103663561D02*
X187646741Y-103663561D01*
X187646741Y-103663561D02*
X187570551Y-103701657D01*
X187913408Y-104158800D02*
X187837217Y-104196895D01*
X187837217Y-104196895D02*
X187646741Y-104196895D01*
X187646741Y-104196895D02*
X187570551Y-104158800D01*
X187570551Y-104158800D02*
X187532455Y-104082609D01*
X187532455Y-104082609D02*
X187532455Y-104006419D01*
X187532455Y-104006419D02*
X187570551Y-103930228D01*
X187570551Y-103930228D02*
X187646741Y-103892133D01*
X187646741Y-103892133D02*
X187837217Y-103892133D01*
X187837217Y-103892133D02*
X187913408Y-103854038D01*
X188180075Y-103663561D02*
X188484837Y-103663561D01*
X188294361Y-103396895D02*
X188294361Y-104082609D01*
X188294361Y-104082609D02*
X188332456Y-104158800D01*
X188332456Y-104158800D02*
X188408646Y-104196895D01*
X188408646Y-104196895D02*
X188484837Y-104196895D01*
X189056266Y-104158800D02*
X188980075Y-104196895D01*
X188980075Y-104196895D02*
X188827694Y-104196895D01*
X188827694Y-104196895D02*
X188751504Y-104158800D01*
X188751504Y-104158800D02*
X188713408Y-104082609D01*
X188713408Y-104082609D02*
X188713408Y-103777847D01*
X188713408Y-103777847D02*
X188751504Y-103701657D01*
X188751504Y-103701657D02*
X188827694Y-103663561D01*
X188827694Y-103663561D02*
X188980075Y-103663561D01*
X188980075Y-103663561D02*
X189056266Y-103701657D01*
X189056266Y-103701657D02*
X189094361Y-103777847D01*
X189094361Y-103777847D02*
X189094361Y-103854038D01*
X189094361Y-103854038D02*
X188713408Y-103930228D01*
X189437218Y-104196895D02*
X189437218Y-103663561D01*
X189437218Y-103815942D02*
X189475313Y-103739752D01*
X189475313Y-103739752D02*
X189513408Y-103701657D01*
X189513408Y-103701657D02*
X189589599Y-103663561D01*
X189589599Y-103663561D02*
X189665789Y-103663561D01*
X205056265Y-107508940D02*
X205056265Y-106708940D01*
X205056265Y-106708940D02*
X205322931Y-107280368D01*
X205322931Y-107280368D02*
X205589598Y-106708940D01*
X205589598Y-106708940D02*
X205589598Y-107508940D01*
X206084836Y-107508940D02*
X206008646Y-107470845D01*
X206008646Y-107470845D02*
X205970551Y-107432749D01*
X205970551Y-107432749D02*
X205932455Y-107356559D01*
X205932455Y-107356559D02*
X205932455Y-107127987D01*
X205932455Y-107127987D02*
X205970551Y-107051797D01*
X205970551Y-107051797D02*
X206008646Y-107013702D01*
X206008646Y-107013702D02*
X206084836Y-106975606D01*
X206084836Y-106975606D02*
X206199122Y-106975606D01*
X206199122Y-106975606D02*
X206275313Y-107013702D01*
X206275313Y-107013702D02*
X206313408Y-107051797D01*
X206313408Y-107051797D02*
X206351503Y-107127987D01*
X206351503Y-107127987D02*
X206351503Y-107356559D01*
X206351503Y-107356559D02*
X206313408Y-107432749D01*
X206313408Y-107432749D02*
X206275313Y-107470845D01*
X206275313Y-107470845D02*
X206199122Y-107508940D01*
X206199122Y-107508940D02*
X206084836Y-107508940D01*
X206694361Y-107508940D02*
X206694361Y-106975606D01*
X206694361Y-106708940D02*
X206656265Y-106747035D01*
X206656265Y-106747035D02*
X206694361Y-106785130D01*
X206694361Y-106785130D02*
X206732456Y-106747035D01*
X206732456Y-106747035D02*
X206694361Y-106708940D01*
X206694361Y-106708940D02*
X206694361Y-106785130D01*
X207037217Y-107470845D02*
X207113408Y-107508940D01*
X207113408Y-107508940D02*
X207265789Y-107508940D01*
X207265789Y-107508940D02*
X207341979Y-107470845D01*
X207341979Y-107470845D02*
X207380075Y-107394654D01*
X207380075Y-107394654D02*
X207380075Y-107356559D01*
X207380075Y-107356559D02*
X207341979Y-107280368D01*
X207341979Y-107280368D02*
X207265789Y-107242273D01*
X207265789Y-107242273D02*
X207151503Y-107242273D01*
X207151503Y-107242273D02*
X207075313Y-107204178D01*
X207075313Y-107204178D02*
X207037217Y-107127987D01*
X207037217Y-107127987D02*
X207037217Y-107089892D01*
X207037217Y-107089892D02*
X207075313Y-107013702D01*
X207075313Y-107013702D02*
X207151503Y-106975606D01*
X207151503Y-106975606D02*
X207265789Y-106975606D01*
X207265789Y-106975606D02*
X207341979Y-107013702D01*
X207608646Y-106975606D02*
X207913408Y-106975606D01*
X207722932Y-106708940D02*
X207722932Y-107394654D01*
X207722932Y-107394654D02*
X207761027Y-107470845D01*
X207761027Y-107470845D02*
X207837217Y-107508940D01*
X207837217Y-107508940D02*
X207913408Y-107508940D01*
X208522932Y-106975606D02*
X208522932Y-107508940D01*
X208180075Y-106975606D02*
X208180075Y-107394654D01*
X208180075Y-107394654D02*
X208218170Y-107470845D01*
X208218170Y-107470845D02*
X208294360Y-107508940D01*
X208294360Y-107508940D02*
X208408646Y-107508940D01*
X208408646Y-107508940D02*
X208484837Y-107470845D01*
X208484837Y-107470845D02*
X208522932Y-107432749D01*
X208903885Y-107508940D02*
X208903885Y-106975606D01*
X208903885Y-107127987D02*
X208941980Y-107051797D01*
X208941980Y-107051797D02*
X208980075Y-107013702D01*
X208980075Y-107013702D02*
X209056266Y-106975606D01*
X209056266Y-106975606D02*
X209132456Y-106975606D01*
X209703885Y-107470845D02*
X209627694Y-107508940D01*
X209627694Y-107508940D02*
X209475313Y-107508940D01*
X209475313Y-107508940D02*
X209399123Y-107470845D01*
X209399123Y-107470845D02*
X209361027Y-107394654D01*
X209361027Y-107394654D02*
X209361027Y-107089892D01*
X209361027Y-107089892D02*
X209399123Y-107013702D01*
X209399123Y-107013702D02*
X209475313Y-106975606D01*
X209475313Y-106975606D02*
X209627694Y-106975606D01*
X209627694Y-106975606D02*
X209703885Y-107013702D01*
X209703885Y-107013702D02*
X209741980Y-107089892D01*
X209741980Y-107089892D02*
X209741980Y-107166083D01*
X209741980Y-107166083D02*
X209361027Y-107242273D01*
X205018169Y-108758800D02*
X205132455Y-108796895D01*
X205132455Y-108796895D02*
X205322931Y-108796895D01*
X205322931Y-108796895D02*
X205399122Y-108758800D01*
X205399122Y-108758800D02*
X205437217Y-108720704D01*
X205437217Y-108720704D02*
X205475312Y-108644514D01*
X205475312Y-108644514D02*
X205475312Y-108568323D01*
X205475312Y-108568323D02*
X205437217Y-108492133D01*
X205437217Y-108492133D02*
X205399122Y-108454038D01*
X205399122Y-108454038D02*
X205322931Y-108415942D01*
X205322931Y-108415942D02*
X205170550Y-108377847D01*
X205170550Y-108377847D02*
X205094360Y-108339752D01*
X205094360Y-108339752D02*
X205056265Y-108301657D01*
X205056265Y-108301657D02*
X205018169Y-108225466D01*
X205018169Y-108225466D02*
X205018169Y-108149276D01*
X205018169Y-108149276D02*
X205056265Y-108073085D01*
X205056265Y-108073085D02*
X205094360Y-108034990D01*
X205094360Y-108034990D02*
X205170550Y-107996895D01*
X205170550Y-107996895D02*
X205361027Y-107996895D01*
X205361027Y-107996895D02*
X205475312Y-108034990D01*
X206122932Y-108758800D02*
X206046741Y-108796895D01*
X206046741Y-108796895D02*
X205894360Y-108796895D01*
X205894360Y-108796895D02*
X205818170Y-108758800D01*
X205818170Y-108758800D02*
X205780074Y-108682609D01*
X205780074Y-108682609D02*
X205780074Y-108377847D01*
X205780074Y-108377847D02*
X205818170Y-108301657D01*
X205818170Y-108301657D02*
X205894360Y-108263561D01*
X205894360Y-108263561D02*
X206046741Y-108263561D01*
X206046741Y-108263561D02*
X206122932Y-108301657D01*
X206122932Y-108301657D02*
X206161027Y-108377847D01*
X206161027Y-108377847D02*
X206161027Y-108454038D01*
X206161027Y-108454038D02*
X205780074Y-108530228D01*
X206503884Y-108263561D02*
X206503884Y-108796895D01*
X206503884Y-108339752D02*
X206541979Y-108301657D01*
X206541979Y-108301657D02*
X206618169Y-108263561D01*
X206618169Y-108263561D02*
X206732455Y-108263561D01*
X206732455Y-108263561D02*
X206808646Y-108301657D01*
X206808646Y-108301657D02*
X206846741Y-108377847D01*
X206846741Y-108377847D02*
X206846741Y-108796895D01*
X207189598Y-108758800D02*
X207265789Y-108796895D01*
X207265789Y-108796895D02*
X207418170Y-108796895D01*
X207418170Y-108796895D02*
X207494360Y-108758800D01*
X207494360Y-108758800D02*
X207532456Y-108682609D01*
X207532456Y-108682609D02*
X207532456Y-108644514D01*
X207532456Y-108644514D02*
X207494360Y-108568323D01*
X207494360Y-108568323D02*
X207418170Y-108530228D01*
X207418170Y-108530228D02*
X207303884Y-108530228D01*
X207303884Y-108530228D02*
X207227694Y-108492133D01*
X207227694Y-108492133D02*
X207189598Y-108415942D01*
X207189598Y-108415942D02*
X207189598Y-108377847D01*
X207189598Y-108377847D02*
X207227694Y-108301657D01*
X207227694Y-108301657D02*
X207303884Y-108263561D01*
X207303884Y-108263561D02*
X207418170Y-108263561D01*
X207418170Y-108263561D02*
X207494360Y-108301657D01*
X207989598Y-108796895D02*
X207913408Y-108758800D01*
X207913408Y-108758800D02*
X207875313Y-108720704D01*
X207875313Y-108720704D02*
X207837217Y-108644514D01*
X207837217Y-108644514D02*
X207837217Y-108415942D01*
X207837217Y-108415942D02*
X207875313Y-108339752D01*
X207875313Y-108339752D02*
X207913408Y-108301657D01*
X207913408Y-108301657D02*
X207989598Y-108263561D01*
X207989598Y-108263561D02*
X208103884Y-108263561D01*
X208103884Y-108263561D02*
X208180075Y-108301657D01*
X208180075Y-108301657D02*
X208218170Y-108339752D01*
X208218170Y-108339752D02*
X208256265Y-108415942D01*
X208256265Y-108415942D02*
X208256265Y-108644514D01*
X208256265Y-108644514D02*
X208218170Y-108720704D01*
X208218170Y-108720704D02*
X208180075Y-108758800D01*
X208180075Y-108758800D02*
X208103884Y-108796895D01*
X208103884Y-108796895D02*
X207989598Y-108796895D01*
X208599123Y-108796895D02*
X208599123Y-108263561D01*
X208599123Y-108415942D02*
X208637218Y-108339752D01*
X208637218Y-108339752D02*
X208675313Y-108301657D01*
X208675313Y-108301657D02*
X208751504Y-108263561D01*
X208751504Y-108263561D02*
X208827694Y-108263561D01*
X67557866Y-74606265D02*
X67557866Y-75215789D01*
X67253104Y-74911027D02*
X67862628Y-74911027D01*
X67253104Y-76015788D02*
X67253104Y-75558645D01*
X67253104Y-75787217D02*
X68053104Y-75787217D01*
X68053104Y-75787217D02*
X67938819Y-75711026D01*
X67938819Y-75711026D02*
X67862628Y-75634836D01*
X67862628Y-75634836D02*
X67824533Y-75558645D01*
X67976914Y-76320550D02*
X68015009Y-76358646D01*
X68015009Y-76358646D02*
X68053104Y-76434836D01*
X68053104Y-76434836D02*
X68053104Y-76625312D01*
X68053104Y-76625312D02*
X68015009Y-76701503D01*
X68015009Y-76701503D02*
X67976914Y-76739598D01*
X67976914Y-76739598D02*
X67900723Y-76777693D01*
X67900723Y-76777693D02*
X67824533Y-76777693D01*
X67824533Y-76777693D02*
X67710247Y-76739598D01*
X67710247Y-76739598D02*
X67253104Y-76282455D01*
X67253104Y-76282455D02*
X67253104Y-76777693D01*
X68053104Y-77006265D02*
X67253104Y-77272932D01*
X67253104Y-77272932D02*
X68053104Y-77539598D01*
X121903884Y-102691466D02*
X122665789Y-102691466D01*
X122284836Y-103072419D02*
X122284836Y-102310514D01*
X123618169Y-102072419D02*
X123141979Y-102072419D01*
X123141979Y-102072419D02*
X123094360Y-102548609D01*
X123094360Y-102548609D02*
X123141979Y-102500990D01*
X123141979Y-102500990D02*
X123237217Y-102453371D01*
X123237217Y-102453371D02*
X123475312Y-102453371D01*
X123475312Y-102453371D02*
X123570550Y-102500990D01*
X123570550Y-102500990D02*
X123618169Y-102548609D01*
X123618169Y-102548609D02*
X123665788Y-102643847D01*
X123665788Y-102643847D02*
X123665788Y-102881942D01*
X123665788Y-102881942D02*
X123618169Y-102977180D01*
X123618169Y-102977180D02*
X123570550Y-103024800D01*
X123570550Y-103024800D02*
X123475312Y-103072419D01*
X123475312Y-103072419D02*
X123237217Y-103072419D01*
X123237217Y-103072419D02*
X123141979Y-103024800D01*
X123141979Y-103024800D02*
X123094360Y-102977180D01*
X123951503Y-102072419D02*
X124284836Y-103072419D01*
X124284836Y-103072419D02*
X124618169Y-102072419D01*
X173256265Y-95096895D02*
X173256265Y-94296895D01*
X173256265Y-94296895D02*
X173522931Y-94868323D01*
X173522931Y-94868323D02*
X173789598Y-94296895D01*
X173789598Y-94296895D02*
X173789598Y-95096895D01*
X174132455Y-95058800D02*
X174246741Y-95096895D01*
X174246741Y-95096895D02*
X174437217Y-95096895D01*
X174437217Y-95096895D02*
X174513408Y-95058800D01*
X174513408Y-95058800D02*
X174551503Y-95020704D01*
X174551503Y-95020704D02*
X174589598Y-94944514D01*
X174589598Y-94944514D02*
X174589598Y-94868323D01*
X174589598Y-94868323D02*
X174551503Y-94792133D01*
X174551503Y-94792133D02*
X174513408Y-94754038D01*
X174513408Y-94754038D02*
X174437217Y-94715942D01*
X174437217Y-94715942D02*
X174284836Y-94677847D01*
X174284836Y-94677847D02*
X174208646Y-94639752D01*
X174208646Y-94639752D02*
X174170551Y-94601657D01*
X174170551Y-94601657D02*
X174132455Y-94525466D01*
X174132455Y-94525466D02*
X174132455Y-94449276D01*
X174132455Y-94449276D02*
X174170551Y-94373085D01*
X174170551Y-94373085D02*
X174208646Y-94334990D01*
X174208646Y-94334990D02*
X174284836Y-94296895D01*
X174284836Y-94296895D02*
X174475313Y-94296895D01*
X174475313Y-94296895D02*
X174589598Y-94334990D01*
X101531265Y-70571895D02*
X101531265Y-69771895D01*
X101531265Y-69771895D02*
X101721741Y-69771895D01*
X101721741Y-69771895D02*
X101836027Y-69809990D01*
X101836027Y-69809990D02*
X101912217Y-69886180D01*
X101912217Y-69886180D02*
X101950312Y-69962371D01*
X101950312Y-69962371D02*
X101988408Y-70114752D01*
X101988408Y-70114752D02*
X101988408Y-70229038D01*
X101988408Y-70229038D02*
X101950312Y-70381419D01*
X101950312Y-70381419D02*
X101912217Y-70457609D01*
X101912217Y-70457609D02*
X101836027Y-70533800D01*
X101836027Y-70533800D02*
X101721741Y-70571895D01*
X101721741Y-70571895D02*
X101531265Y-70571895D01*
X102331265Y-70571895D02*
X102331265Y-69771895D01*
X145327693Y-116072419D02*
X144756265Y-116072419D01*
X145041979Y-116072419D02*
X145041979Y-115072419D01*
X145041979Y-115072419D02*
X144946741Y-115215276D01*
X144946741Y-115215276D02*
X144851503Y-115310514D01*
X144851503Y-115310514D02*
X144756265Y-115358133D01*
X145708646Y-115167657D02*
X145756265Y-115120038D01*
X145756265Y-115120038D02*
X145851503Y-115072419D01*
X145851503Y-115072419D02*
X146089598Y-115072419D01*
X146089598Y-115072419D02*
X146184836Y-115120038D01*
X146184836Y-115120038D02*
X146232455Y-115167657D01*
X146232455Y-115167657D02*
X146280074Y-115262895D01*
X146280074Y-115262895D02*
X146280074Y-115358133D01*
X146280074Y-115358133D02*
X146232455Y-115500990D01*
X146232455Y-115500990D02*
X145661027Y-116072419D01*
X145661027Y-116072419D02*
X146280074Y-116072419D01*
X146565789Y-115072419D02*
X146899122Y-116072419D01*
X146899122Y-116072419D02*
X147232455Y-115072419D01*
X148327694Y-116072419D02*
X148327694Y-115072419D01*
X148327694Y-115072419D02*
X148565789Y-115072419D01*
X148565789Y-115072419D02*
X148708646Y-115120038D01*
X148708646Y-115120038D02*
X148803884Y-115215276D01*
X148803884Y-115215276D02*
X148851503Y-115310514D01*
X148851503Y-115310514D02*
X148899122Y-115500990D01*
X148899122Y-115500990D02*
X148899122Y-115643847D01*
X148899122Y-115643847D02*
X148851503Y-115834323D01*
X148851503Y-115834323D02*
X148803884Y-115929561D01*
X148803884Y-115929561D02*
X148708646Y-116024800D01*
X148708646Y-116024800D02*
X148565789Y-116072419D01*
X148565789Y-116072419D02*
X148327694Y-116072419D01*
X149899122Y-115977180D02*
X149851503Y-116024800D01*
X149851503Y-116024800D02*
X149708646Y-116072419D01*
X149708646Y-116072419D02*
X149613408Y-116072419D01*
X149613408Y-116072419D02*
X149470551Y-116024800D01*
X149470551Y-116024800D02*
X149375313Y-115929561D01*
X149375313Y-115929561D02*
X149327694Y-115834323D01*
X149327694Y-115834323D02*
X149280075Y-115643847D01*
X149280075Y-115643847D02*
X149280075Y-115500990D01*
X149280075Y-115500990D02*
X149327694Y-115310514D01*
X149327694Y-115310514D02*
X149375313Y-115215276D01*
X149375313Y-115215276D02*
X149470551Y-115120038D01*
X149470551Y-115120038D02*
X149613408Y-115072419D01*
X149613408Y-115072419D02*
X149708646Y-115072419D01*
X149708646Y-115072419D02*
X149851503Y-115120038D01*
X149851503Y-115120038D02*
X149899122Y-115167657D01*
X106856265Y-85592133D02*
X107465789Y-85592133D01*
X107161027Y-85896895D02*
X107161027Y-85287371D01*
X108227693Y-85096895D02*
X107846741Y-85096895D01*
X107846741Y-85096895D02*
X107808645Y-85477847D01*
X107808645Y-85477847D02*
X107846741Y-85439752D01*
X107846741Y-85439752D02*
X107922931Y-85401657D01*
X107922931Y-85401657D02*
X108113407Y-85401657D01*
X108113407Y-85401657D02*
X108189598Y-85439752D01*
X108189598Y-85439752D02*
X108227693Y-85477847D01*
X108227693Y-85477847D02*
X108265788Y-85554038D01*
X108265788Y-85554038D02*
X108265788Y-85744514D01*
X108265788Y-85744514D02*
X108227693Y-85820704D01*
X108227693Y-85820704D02*
X108189598Y-85858800D01*
X108189598Y-85858800D02*
X108113407Y-85896895D01*
X108113407Y-85896895D02*
X107922931Y-85896895D01*
X107922931Y-85896895D02*
X107846741Y-85858800D01*
X107846741Y-85858800D02*
X107808645Y-85820704D01*
X108494360Y-85096895D02*
X108761027Y-85896895D01*
X108761027Y-85896895D02*
X109027693Y-85096895D01*
D11*
X175024231Y-106543116D02*
X175557565Y-106543116D01*
X175290898Y-106809783D02*
X175290898Y-106276450D01*
X176257565Y-106809783D02*
X175857565Y-106809783D01*
X176057565Y-106809783D02*
X176057565Y-106109783D01*
X176057565Y-106109783D02*
X175990898Y-106209783D01*
X175990898Y-106209783D02*
X175924232Y-106276450D01*
X175924232Y-106276450D02*
X175857565Y-106309783D01*
X176524232Y-106176450D02*
X176557565Y-106143116D01*
X176557565Y-106143116D02*
X176624232Y-106109783D01*
X176624232Y-106109783D02*
X176790899Y-106109783D01*
X176790899Y-106109783D02*
X176857565Y-106143116D01*
X176857565Y-106143116D02*
X176890899Y-106176450D01*
X176890899Y-106176450D02*
X176924232Y-106243116D01*
X176924232Y-106243116D02*
X176924232Y-106309783D01*
X176924232Y-106309783D02*
X176890899Y-106409783D01*
X176890899Y-106409783D02*
X176490899Y-106809783D01*
X176490899Y-106809783D02*
X176924232Y-106809783D01*
X177124232Y-106109783D02*
X177357566Y-106809783D01*
X177357566Y-106809783D02*
X177590899Y-106109783D01*
D10*
X155456265Y-96077847D02*
X155722931Y-96077847D01*
X155837217Y-96496895D02*
X155456265Y-96496895D01*
X155456265Y-96496895D02*
X155456265Y-95696895D01*
X155456265Y-95696895D02*
X155837217Y-95696895D01*
X156103884Y-96496895D02*
X156522932Y-95963561D01*
X156103884Y-95963561D02*
X156522932Y-96496895D01*
X156713408Y-95963561D02*
X157018170Y-95963561D01*
X156827694Y-95696895D02*
X156827694Y-96382609D01*
X156827694Y-96382609D02*
X156865789Y-96458800D01*
X156865789Y-96458800D02*
X156941979Y-96496895D01*
X156941979Y-96496895D02*
X157018170Y-96496895D01*
X157284837Y-96420704D02*
X157322932Y-96458800D01*
X157322932Y-96458800D02*
X157284837Y-96496895D01*
X157284837Y-96496895D02*
X157246741Y-96458800D01*
X157246741Y-96458800D02*
X157284837Y-96420704D01*
X157284837Y-96420704D02*
X157284837Y-96496895D01*
X158656265Y-96496895D02*
X158275313Y-96496895D01*
X158275313Y-96496895D02*
X158275313Y-95696895D01*
X158922932Y-96077847D02*
X159189598Y-96077847D01*
X159303884Y-96496895D02*
X158922932Y-96496895D01*
X158922932Y-96496895D02*
X158922932Y-95696895D01*
X158922932Y-95696895D02*
X159303884Y-95696895D01*
X159646742Y-96496895D02*
X159646742Y-95696895D01*
X159646742Y-95696895D02*
X159837218Y-95696895D01*
X159837218Y-95696895D02*
X159951504Y-95734990D01*
X159951504Y-95734990D02*
X160027694Y-95811180D01*
X160027694Y-95811180D02*
X160065789Y-95887371D01*
X160065789Y-95887371D02*
X160103885Y-96039752D01*
X160103885Y-96039752D02*
X160103885Y-96154038D01*
X160103885Y-96154038D02*
X160065789Y-96306419D01*
X160065789Y-96306419D02*
X160027694Y-96382609D01*
X160027694Y-96382609D02*
X159951504Y-96458800D01*
X159951504Y-96458800D02*
X159837218Y-96496895D01*
X159837218Y-96496895D02*
X159646742Y-96496895D01*
X122827693Y-107420038D02*
X122732455Y-107372419D01*
X122732455Y-107372419D02*
X122589598Y-107372419D01*
X122589598Y-107372419D02*
X122446741Y-107420038D01*
X122446741Y-107420038D02*
X122351503Y-107515276D01*
X122351503Y-107515276D02*
X122303884Y-107610514D01*
X122303884Y-107610514D02*
X122256265Y-107800990D01*
X122256265Y-107800990D02*
X122256265Y-107943847D01*
X122256265Y-107943847D02*
X122303884Y-108134323D01*
X122303884Y-108134323D02*
X122351503Y-108229561D01*
X122351503Y-108229561D02*
X122446741Y-108324800D01*
X122446741Y-108324800D02*
X122589598Y-108372419D01*
X122589598Y-108372419D02*
X122684836Y-108372419D01*
X122684836Y-108372419D02*
X122827693Y-108324800D01*
X122827693Y-108324800D02*
X122875312Y-108277180D01*
X122875312Y-108277180D02*
X122875312Y-107943847D01*
X122875312Y-107943847D02*
X122684836Y-107943847D01*
X123303884Y-108372419D02*
X123303884Y-107372419D01*
X123303884Y-107372419D02*
X123875312Y-108372419D01*
X123875312Y-108372419D02*
X123875312Y-107372419D01*
X124351503Y-108372419D02*
X124351503Y-107372419D01*
X124351503Y-107372419D02*
X124589598Y-107372419D01*
X124589598Y-107372419D02*
X124732455Y-107420038D01*
X124732455Y-107420038D02*
X124827693Y-107515276D01*
X124827693Y-107515276D02*
X124875312Y-107610514D01*
X124875312Y-107610514D02*
X124922931Y-107800990D01*
X124922931Y-107800990D02*
X124922931Y-107943847D01*
X124922931Y-107943847D02*
X124875312Y-108134323D01*
X124875312Y-108134323D02*
X124827693Y-108229561D01*
X124827693Y-108229561D02*
X124732455Y-108324800D01*
X124732455Y-108324800D02*
X124589598Y-108372419D01*
X124589598Y-108372419D02*
X124351503Y-108372419D01*
X130332455Y-94442466D02*
X130565789Y-94442466D01*
X130665789Y-94809133D02*
X130332455Y-94809133D01*
X130332455Y-94809133D02*
X130332455Y-94109133D01*
X130332455Y-94109133D02*
X130665789Y-94109133D01*
X130932455Y-94775800D02*
X131032455Y-94809133D01*
X131032455Y-94809133D02*
X131199122Y-94809133D01*
X131199122Y-94809133D02*
X131265788Y-94775800D01*
X131265788Y-94775800D02*
X131299122Y-94742466D01*
X131299122Y-94742466D02*
X131332455Y-94675800D01*
X131332455Y-94675800D02*
X131332455Y-94609133D01*
X131332455Y-94609133D02*
X131299122Y-94542466D01*
X131299122Y-94542466D02*
X131265788Y-94509133D01*
X131265788Y-94509133D02*
X131199122Y-94475800D01*
X131199122Y-94475800D02*
X131065788Y-94442466D01*
X131065788Y-94442466D02*
X130999122Y-94409133D01*
X130999122Y-94409133D02*
X130965788Y-94375800D01*
X130965788Y-94375800D02*
X130932455Y-94309133D01*
X130932455Y-94309133D02*
X130932455Y-94242466D01*
X130932455Y-94242466D02*
X130965788Y-94175800D01*
X130965788Y-94175800D02*
X130999122Y-94142466D01*
X130999122Y-94142466D02*
X131065788Y-94109133D01*
X131065788Y-94109133D02*
X131232455Y-94109133D01*
X131232455Y-94109133D02*
X131332455Y-94142466D01*
X131632455Y-94809133D02*
X131632455Y-94109133D01*
X131632455Y-94109133D02*
X131899122Y-94109133D01*
X131899122Y-94109133D02*
X131965789Y-94142466D01*
X131965789Y-94142466D02*
X131999122Y-94175800D01*
X131999122Y-94175800D02*
X132032455Y-94242466D01*
X132032455Y-94242466D02*
X132032455Y-94342466D01*
X132032455Y-94342466D02*
X131999122Y-94409133D01*
X131999122Y-94409133D02*
X131965789Y-94442466D01*
X131965789Y-94442466D02*
X131899122Y-94475800D01*
X131899122Y-94475800D02*
X131632455Y-94475800D01*
X132165789Y-94875800D02*
X132699122Y-94875800D01*
X132865788Y-94442466D02*
X133099122Y-94442466D01*
X133199122Y-94809133D02*
X132865788Y-94809133D01*
X132865788Y-94809133D02*
X132865788Y-94109133D01*
X132865788Y-94109133D02*
X133199122Y-94109133D01*
X133499121Y-94809133D02*
X133499121Y-94109133D01*
X133499121Y-94109133D02*
X133899121Y-94809133D01*
X133899121Y-94809133D02*
X133899121Y-94109133D01*
X135099121Y-94809133D02*
X134765787Y-94809133D01*
X134765787Y-94809133D02*
X134765787Y-94109133D01*
X135299121Y-94775800D02*
X135399121Y-94809133D01*
X135399121Y-94809133D02*
X135565788Y-94809133D01*
X135565788Y-94809133D02*
X135632454Y-94775800D01*
X135632454Y-94775800D02*
X135665788Y-94742466D01*
X135665788Y-94742466D02*
X135699121Y-94675800D01*
X135699121Y-94675800D02*
X135699121Y-94609133D01*
X135699121Y-94609133D02*
X135665788Y-94542466D01*
X135665788Y-94542466D02*
X135632454Y-94509133D01*
X135632454Y-94509133D02*
X135565788Y-94475800D01*
X135565788Y-94475800D02*
X135432454Y-94442466D01*
X135432454Y-94442466D02*
X135365788Y-94409133D01*
X135365788Y-94409133D02*
X135332454Y-94375800D01*
X135332454Y-94375800D02*
X135299121Y-94309133D01*
X135299121Y-94309133D02*
X135299121Y-94242466D01*
X135299121Y-94242466D02*
X135332454Y-94175800D01*
X135332454Y-94175800D02*
X135365788Y-94142466D01*
X135365788Y-94142466D02*
X135432454Y-94109133D01*
X135432454Y-94109133D02*
X135599121Y-94109133D01*
X135599121Y-94109133D02*
X135699121Y-94142466D01*
X137065787Y-94809133D02*
X137065787Y-94109133D01*
X137065787Y-94109133D02*
X137299121Y-94609133D01*
X137299121Y-94609133D02*
X137532454Y-94109133D01*
X137532454Y-94109133D02*
X137532454Y-94809133D01*
X137832454Y-94775800D02*
X137932454Y-94809133D01*
X137932454Y-94809133D02*
X138099121Y-94809133D01*
X138099121Y-94809133D02*
X138165787Y-94775800D01*
X138165787Y-94775800D02*
X138199121Y-94742466D01*
X138199121Y-94742466D02*
X138232454Y-94675800D01*
X138232454Y-94675800D02*
X138232454Y-94609133D01*
X138232454Y-94609133D02*
X138199121Y-94542466D01*
X138199121Y-94542466D02*
X138165787Y-94509133D01*
X138165787Y-94509133D02*
X138099121Y-94475800D01*
X138099121Y-94475800D02*
X137965787Y-94442466D01*
X137965787Y-94442466D02*
X137899121Y-94409133D01*
X137899121Y-94409133D02*
X137865787Y-94375800D01*
X137865787Y-94375800D02*
X137832454Y-94309133D01*
X137832454Y-94309133D02*
X137832454Y-94242466D01*
X137832454Y-94242466D02*
X137865787Y-94175800D01*
X137865787Y-94175800D02*
X137899121Y-94142466D01*
X137899121Y-94142466D02*
X137965787Y-94109133D01*
X137965787Y-94109133D02*
X138132454Y-94109133D01*
X138132454Y-94109133D02*
X138232454Y-94142466D01*
X83393169Y-72143323D02*
X83774122Y-72143323D01*
X83316979Y-72371895D02*
X83583646Y-71571895D01*
X83583646Y-71571895D02*
X83850312Y-72371895D01*
D11*
X175224231Y-109043116D02*
X175457565Y-109043116D01*
X175557565Y-109409783D02*
X175224231Y-109409783D01*
X175224231Y-109409783D02*
X175224231Y-108709783D01*
X175224231Y-108709783D02*
X175557565Y-108709783D01*
X175857564Y-109409783D02*
X175857564Y-108709783D01*
X175857564Y-108709783D02*
X176257564Y-109409783D01*
X176257564Y-109409783D02*
X176257564Y-108709783D01*
D10*
X101888408Y-78371895D02*
X101621741Y-77990942D01*
X101431265Y-78371895D02*
X101431265Y-77571895D01*
X101431265Y-77571895D02*
X101736027Y-77571895D01*
X101736027Y-77571895D02*
X101812217Y-77609990D01*
X101812217Y-77609990D02*
X101850312Y-77648085D01*
X101850312Y-77648085D02*
X101888408Y-77724276D01*
X101888408Y-77724276D02*
X101888408Y-77838561D01*
X101888408Y-77838561D02*
X101850312Y-77914752D01*
X101850312Y-77914752D02*
X101812217Y-77952847D01*
X101812217Y-77952847D02*
X101736027Y-77990942D01*
X101736027Y-77990942D02*
X101431265Y-77990942D01*
X102383646Y-77571895D02*
X102536027Y-77571895D01*
X102536027Y-77571895D02*
X102612217Y-77609990D01*
X102612217Y-77609990D02*
X102688408Y-77686180D01*
X102688408Y-77686180D02*
X102726503Y-77838561D01*
X102726503Y-77838561D02*
X102726503Y-78105228D01*
X102726503Y-78105228D02*
X102688408Y-78257609D01*
X102688408Y-78257609D02*
X102612217Y-78333800D01*
X102612217Y-78333800D02*
X102536027Y-78371895D01*
X102536027Y-78371895D02*
X102383646Y-78371895D01*
X102383646Y-78371895D02*
X102307455Y-78333800D01*
X102307455Y-78333800D02*
X102231265Y-78257609D01*
X102231265Y-78257609D02*
X102193169Y-78105228D01*
X102193169Y-78105228D02*
X102193169Y-77838561D01*
X102193169Y-77838561D02*
X102231265Y-77686180D01*
X102231265Y-77686180D02*
X102307455Y-77609990D01*
X102307455Y-77609990D02*
X102383646Y-77571895D01*
X101431265Y-73171895D02*
X101431265Y-72371895D01*
X101431265Y-72371895D02*
X101621741Y-72371895D01*
X101621741Y-72371895D02*
X101736027Y-72409990D01*
X101736027Y-72409990D02*
X101812217Y-72486180D01*
X101812217Y-72486180D02*
X101850312Y-72562371D01*
X101850312Y-72562371D02*
X101888408Y-72714752D01*
X101888408Y-72714752D02*
X101888408Y-72829038D01*
X101888408Y-72829038D02*
X101850312Y-72981419D01*
X101850312Y-72981419D02*
X101812217Y-73057609D01*
X101812217Y-73057609D02*
X101736027Y-73133800D01*
X101736027Y-73133800D02*
X101621741Y-73171895D01*
X101621741Y-73171895D02*
X101431265Y-73171895D01*
X102231265Y-72752847D02*
X102497931Y-72752847D01*
X102612217Y-73171895D02*
X102231265Y-73171895D01*
X102231265Y-73171895D02*
X102231265Y-72371895D01*
X102231265Y-72371895D02*
X102612217Y-72371895D01*
X88330312Y-63822419D02*
X87996979Y-63346228D01*
X87758884Y-63822419D02*
X87758884Y-62822419D01*
X87758884Y-62822419D02*
X88139836Y-62822419D01*
X88139836Y-62822419D02*
X88235074Y-62870038D01*
X88235074Y-62870038D02*
X88282693Y-62917657D01*
X88282693Y-62917657D02*
X88330312Y-63012895D01*
X88330312Y-63012895D02*
X88330312Y-63155752D01*
X88330312Y-63155752D02*
X88282693Y-63250990D01*
X88282693Y-63250990D02*
X88235074Y-63298609D01*
X88235074Y-63298609D02*
X88139836Y-63346228D01*
X88139836Y-63346228D02*
X87758884Y-63346228D01*
X88711265Y-63774800D02*
X88854122Y-63822419D01*
X88854122Y-63822419D02*
X89092217Y-63822419D01*
X89092217Y-63822419D02*
X89187455Y-63774800D01*
X89187455Y-63774800D02*
X89235074Y-63727180D01*
X89235074Y-63727180D02*
X89282693Y-63631942D01*
X89282693Y-63631942D02*
X89282693Y-63536704D01*
X89282693Y-63536704D02*
X89235074Y-63441466D01*
X89235074Y-63441466D02*
X89187455Y-63393847D01*
X89187455Y-63393847D02*
X89092217Y-63346228D01*
X89092217Y-63346228D02*
X88901741Y-63298609D01*
X88901741Y-63298609D02*
X88806503Y-63250990D01*
X88806503Y-63250990D02*
X88758884Y-63203371D01*
X88758884Y-63203371D02*
X88711265Y-63108133D01*
X88711265Y-63108133D02*
X88711265Y-63012895D01*
X88711265Y-63012895D02*
X88758884Y-62917657D01*
X88758884Y-62917657D02*
X88806503Y-62870038D01*
X88806503Y-62870038D02*
X88901741Y-62822419D01*
X88901741Y-62822419D02*
X89139836Y-62822419D01*
X89139836Y-62822419D02*
X89282693Y-62870038D01*
X90139836Y-63155752D02*
X90139836Y-63822419D01*
X89901741Y-62774800D02*
X89663646Y-63489085D01*
X89663646Y-63489085D02*
X90282693Y-63489085D01*
X90806503Y-63250990D02*
X90711265Y-63203371D01*
X90711265Y-63203371D02*
X90663646Y-63155752D01*
X90663646Y-63155752D02*
X90616027Y-63060514D01*
X90616027Y-63060514D02*
X90616027Y-63012895D01*
X90616027Y-63012895D02*
X90663646Y-62917657D01*
X90663646Y-62917657D02*
X90711265Y-62870038D01*
X90711265Y-62870038D02*
X90806503Y-62822419D01*
X90806503Y-62822419D02*
X90996979Y-62822419D01*
X90996979Y-62822419D02*
X91092217Y-62870038D01*
X91092217Y-62870038D02*
X91139836Y-62917657D01*
X91139836Y-62917657D02*
X91187455Y-63012895D01*
X91187455Y-63012895D02*
X91187455Y-63060514D01*
X91187455Y-63060514D02*
X91139836Y-63155752D01*
X91139836Y-63155752D02*
X91092217Y-63203371D01*
X91092217Y-63203371D02*
X90996979Y-63250990D01*
X90996979Y-63250990D02*
X90806503Y-63250990D01*
X90806503Y-63250990D02*
X90711265Y-63298609D01*
X90711265Y-63298609D02*
X90663646Y-63346228D01*
X90663646Y-63346228D02*
X90616027Y-63441466D01*
X90616027Y-63441466D02*
X90616027Y-63631942D01*
X90616027Y-63631942D02*
X90663646Y-63727180D01*
X90663646Y-63727180D02*
X90711265Y-63774800D01*
X90711265Y-63774800D02*
X90806503Y-63822419D01*
X90806503Y-63822419D02*
X90996979Y-63822419D01*
X90996979Y-63822419D02*
X91092217Y-63774800D01*
X91092217Y-63774800D02*
X91139836Y-63727180D01*
X91139836Y-63727180D02*
X91187455Y-63631942D01*
X91187455Y-63631942D02*
X91187455Y-63441466D01*
X91187455Y-63441466D02*
X91139836Y-63346228D01*
X91139836Y-63346228D02*
X91092217Y-63298609D01*
X91092217Y-63298609D02*
X90996979Y-63250990D01*
X92092217Y-62822419D02*
X91616027Y-62822419D01*
X91616027Y-62822419D02*
X91568408Y-63298609D01*
X91568408Y-63298609D02*
X91616027Y-63250990D01*
X91616027Y-63250990D02*
X91711265Y-63203371D01*
X91711265Y-63203371D02*
X91949360Y-63203371D01*
X91949360Y-63203371D02*
X92044598Y-63250990D01*
X92044598Y-63250990D02*
X92092217Y-63298609D01*
X92092217Y-63298609D02*
X92139836Y-63393847D01*
X92139836Y-63393847D02*
X92139836Y-63631942D01*
X92139836Y-63631942D02*
X92092217Y-63727180D01*
X92092217Y-63727180D02*
X92044598Y-63774800D01*
X92044598Y-63774800D02*
X91949360Y-63822419D01*
X91949360Y-63822419D02*
X91711265Y-63822419D01*
X91711265Y-63822419D02*
X91616027Y-63774800D01*
X91616027Y-63774800D02*
X91568408Y-63727180D01*
X93187456Y-62822419D02*
X93758884Y-62822419D01*
X93473170Y-63822419D02*
X93473170Y-62822419D01*
X94092218Y-63822419D02*
X94092218Y-63155752D01*
X94092218Y-63346228D02*
X94139837Y-63250990D01*
X94139837Y-63250990D02*
X94187456Y-63203371D01*
X94187456Y-63203371D02*
X94282694Y-63155752D01*
X94282694Y-63155752D02*
X94377932Y-63155752D01*
X95139837Y-63822419D02*
X95139837Y-63298609D01*
X95139837Y-63298609D02*
X95092218Y-63203371D01*
X95092218Y-63203371D02*
X94996980Y-63155752D01*
X94996980Y-63155752D02*
X94806504Y-63155752D01*
X94806504Y-63155752D02*
X94711266Y-63203371D01*
X95139837Y-63774800D02*
X95044599Y-63822419D01*
X95044599Y-63822419D02*
X94806504Y-63822419D01*
X94806504Y-63822419D02*
X94711266Y-63774800D01*
X94711266Y-63774800D02*
X94663647Y-63679561D01*
X94663647Y-63679561D02*
X94663647Y-63584323D01*
X94663647Y-63584323D02*
X94711266Y-63489085D01*
X94711266Y-63489085D02*
X94806504Y-63441466D01*
X94806504Y-63441466D02*
X95044599Y-63441466D01*
X95044599Y-63441466D02*
X95139837Y-63393847D01*
X95616028Y-63155752D02*
X95616028Y-63822419D01*
X95616028Y-63250990D02*
X95663647Y-63203371D01*
X95663647Y-63203371D02*
X95758885Y-63155752D01*
X95758885Y-63155752D02*
X95901742Y-63155752D01*
X95901742Y-63155752D02*
X95996980Y-63203371D01*
X95996980Y-63203371D02*
X96044599Y-63298609D01*
X96044599Y-63298609D02*
X96044599Y-63822419D01*
X96473171Y-63774800D02*
X96568409Y-63822419D01*
X96568409Y-63822419D02*
X96758885Y-63822419D01*
X96758885Y-63822419D02*
X96854123Y-63774800D01*
X96854123Y-63774800D02*
X96901742Y-63679561D01*
X96901742Y-63679561D02*
X96901742Y-63631942D01*
X96901742Y-63631942D02*
X96854123Y-63536704D01*
X96854123Y-63536704D02*
X96758885Y-63489085D01*
X96758885Y-63489085D02*
X96616028Y-63489085D01*
X96616028Y-63489085D02*
X96520790Y-63441466D01*
X96520790Y-63441466D02*
X96473171Y-63346228D01*
X96473171Y-63346228D02*
X96473171Y-63298609D01*
X96473171Y-63298609D02*
X96520790Y-63203371D01*
X96520790Y-63203371D02*
X96616028Y-63155752D01*
X96616028Y-63155752D02*
X96758885Y-63155752D01*
X96758885Y-63155752D02*
X96854123Y-63203371D01*
X97758885Y-63774800D02*
X97663647Y-63822419D01*
X97663647Y-63822419D02*
X97473171Y-63822419D01*
X97473171Y-63822419D02*
X97377933Y-63774800D01*
X97377933Y-63774800D02*
X97330314Y-63727180D01*
X97330314Y-63727180D02*
X97282695Y-63631942D01*
X97282695Y-63631942D02*
X97282695Y-63346228D01*
X97282695Y-63346228D02*
X97330314Y-63250990D01*
X97330314Y-63250990D02*
X97377933Y-63203371D01*
X97377933Y-63203371D02*
X97473171Y-63155752D01*
X97473171Y-63155752D02*
X97663647Y-63155752D01*
X97663647Y-63155752D02*
X97758885Y-63203371D01*
X98568409Y-63774800D02*
X98473171Y-63822419D01*
X98473171Y-63822419D02*
X98282695Y-63822419D01*
X98282695Y-63822419D02*
X98187457Y-63774800D01*
X98187457Y-63774800D02*
X98139838Y-63679561D01*
X98139838Y-63679561D02*
X98139838Y-63298609D01*
X98139838Y-63298609D02*
X98187457Y-63203371D01*
X98187457Y-63203371D02*
X98282695Y-63155752D01*
X98282695Y-63155752D02*
X98473171Y-63155752D01*
X98473171Y-63155752D02*
X98568409Y-63203371D01*
X98568409Y-63203371D02*
X98616028Y-63298609D01*
X98616028Y-63298609D02*
X98616028Y-63393847D01*
X98616028Y-63393847D02*
X98139838Y-63489085D01*
X99044600Y-63822419D02*
X99044600Y-63155752D01*
X99044600Y-62822419D02*
X98996981Y-62870038D01*
X98996981Y-62870038D02*
X99044600Y-62917657D01*
X99044600Y-62917657D02*
X99092219Y-62870038D01*
X99092219Y-62870038D02*
X99044600Y-62822419D01*
X99044600Y-62822419D02*
X99044600Y-62917657D01*
X99425552Y-63155752D02*
X99663647Y-63822419D01*
X99663647Y-63822419D02*
X99901742Y-63155752D01*
X100663647Y-63774800D02*
X100568409Y-63822419D01*
X100568409Y-63822419D02*
X100377933Y-63822419D01*
X100377933Y-63822419D02*
X100282695Y-63774800D01*
X100282695Y-63774800D02*
X100235076Y-63679561D01*
X100235076Y-63679561D02*
X100235076Y-63298609D01*
X100235076Y-63298609D02*
X100282695Y-63203371D01*
X100282695Y-63203371D02*
X100377933Y-63155752D01*
X100377933Y-63155752D02*
X100568409Y-63155752D01*
X100568409Y-63155752D02*
X100663647Y-63203371D01*
X100663647Y-63203371D02*
X100711266Y-63298609D01*
X100711266Y-63298609D02*
X100711266Y-63393847D01*
X100711266Y-63393847D02*
X100235076Y-63489085D01*
X101139838Y-63822419D02*
X101139838Y-63155752D01*
X101139838Y-63346228D02*
X101187457Y-63250990D01*
X101187457Y-63250990D02*
X101235076Y-63203371D01*
X101235076Y-63203371D02*
X101330314Y-63155752D01*
X101330314Y-63155752D02*
X101425552Y-63155752D01*
X189475312Y-57234990D02*
X189399122Y-57196895D01*
X189399122Y-57196895D02*
X189284836Y-57196895D01*
X189284836Y-57196895D02*
X189170550Y-57234990D01*
X189170550Y-57234990D02*
X189094360Y-57311180D01*
X189094360Y-57311180D02*
X189056265Y-57387371D01*
X189056265Y-57387371D02*
X189018169Y-57539752D01*
X189018169Y-57539752D02*
X189018169Y-57654038D01*
X189018169Y-57654038D02*
X189056265Y-57806419D01*
X189056265Y-57806419D02*
X189094360Y-57882609D01*
X189094360Y-57882609D02*
X189170550Y-57958800D01*
X189170550Y-57958800D02*
X189284836Y-57996895D01*
X189284836Y-57996895D02*
X189361027Y-57996895D01*
X189361027Y-57996895D02*
X189475312Y-57958800D01*
X189475312Y-57958800D02*
X189513408Y-57920704D01*
X189513408Y-57920704D02*
X189513408Y-57654038D01*
X189513408Y-57654038D02*
X189361027Y-57654038D01*
X189856265Y-57996895D02*
X189856265Y-57196895D01*
X189856265Y-57196895D02*
X190313408Y-57996895D01*
X190313408Y-57996895D02*
X190313408Y-57196895D01*
X190694360Y-57996895D02*
X190694360Y-57196895D01*
X190694360Y-57196895D02*
X190884836Y-57196895D01*
X190884836Y-57196895D02*
X190999122Y-57234990D01*
X190999122Y-57234990D02*
X191075312Y-57311180D01*
X191075312Y-57311180D02*
X191113407Y-57387371D01*
X191113407Y-57387371D02*
X191151503Y-57539752D01*
X191151503Y-57539752D02*
X191151503Y-57654038D01*
X191151503Y-57654038D02*
X191113407Y-57806419D01*
X191113407Y-57806419D02*
X191075312Y-57882609D01*
X191075312Y-57882609D02*
X190999122Y-57958800D01*
X190999122Y-57958800D02*
X190884836Y-57996895D01*
X190884836Y-57996895D02*
X190694360Y-57996895D01*
X70861265Y-90896895D02*
X70861265Y-90096895D01*
X70861265Y-90096895D02*
X71318408Y-90896895D01*
X71318408Y-90896895D02*
X71318408Y-90096895D01*
X72156503Y-90820704D02*
X72118407Y-90858800D01*
X72118407Y-90858800D02*
X72004122Y-90896895D01*
X72004122Y-90896895D02*
X71927931Y-90896895D01*
X71927931Y-90896895D02*
X71813645Y-90858800D01*
X71813645Y-90858800D02*
X71737455Y-90782609D01*
X71737455Y-90782609D02*
X71699360Y-90706419D01*
X71699360Y-90706419D02*
X71661264Y-90554038D01*
X71661264Y-90554038D02*
X71661264Y-90439752D01*
X71661264Y-90439752D02*
X71699360Y-90287371D01*
X71699360Y-90287371D02*
X71737455Y-90211180D01*
X71737455Y-90211180D02*
X71813645Y-90134990D01*
X71813645Y-90134990D02*
X71927931Y-90096895D01*
X71927931Y-90096895D02*
X72004122Y-90096895D01*
X72004122Y-90096895D02*
X72118407Y-90134990D01*
X72118407Y-90134990D02*
X72156503Y-90173085D01*
X73566027Y-90820704D02*
X73527931Y-90858800D01*
X73527931Y-90858800D02*
X73413646Y-90896895D01*
X73413646Y-90896895D02*
X73337455Y-90896895D01*
X73337455Y-90896895D02*
X73223169Y-90858800D01*
X73223169Y-90858800D02*
X73146979Y-90782609D01*
X73146979Y-90782609D02*
X73108884Y-90706419D01*
X73108884Y-90706419D02*
X73070788Y-90554038D01*
X73070788Y-90554038D02*
X73070788Y-90439752D01*
X73070788Y-90439752D02*
X73108884Y-90287371D01*
X73108884Y-90287371D02*
X73146979Y-90211180D01*
X73146979Y-90211180D02*
X73223169Y-90134990D01*
X73223169Y-90134990D02*
X73337455Y-90096895D01*
X73337455Y-90096895D02*
X73413646Y-90096895D01*
X73413646Y-90096895D02*
X73527931Y-90134990D01*
X73527931Y-90134990D02*
X73566027Y-90173085D01*
X74061265Y-90096895D02*
X74213646Y-90096895D01*
X74213646Y-90096895D02*
X74289836Y-90134990D01*
X74289836Y-90134990D02*
X74366027Y-90211180D01*
X74366027Y-90211180D02*
X74404122Y-90363561D01*
X74404122Y-90363561D02*
X74404122Y-90630228D01*
X74404122Y-90630228D02*
X74366027Y-90782609D01*
X74366027Y-90782609D02*
X74289836Y-90858800D01*
X74289836Y-90858800D02*
X74213646Y-90896895D01*
X74213646Y-90896895D02*
X74061265Y-90896895D01*
X74061265Y-90896895D02*
X73985074Y-90858800D01*
X73985074Y-90858800D02*
X73908884Y-90782609D01*
X73908884Y-90782609D02*
X73870788Y-90630228D01*
X73870788Y-90630228D02*
X73870788Y-90363561D01*
X73870788Y-90363561D02*
X73908884Y-90211180D01*
X73908884Y-90211180D02*
X73985074Y-90134990D01*
X73985074Y-90134990D02*
X74061265Y-90096895D01*
X74746979Y-90896895D02*
X74746979Y-90096895D01*
X74746979Y-90096895D02*
X75013645Y-90668323D01*
X75013645Y-90668323D02*
X75280312Y-90096895D01*
X75280312Y-90096895D02*
X75280312Y-90896895D01*
X76270789Y-90592133D02*
X76880313Y-90592133D01*
X76575551Y-90896895D02*
X76575551Y-90287371D01*
X77680312Y-90896895D02*
X77223169Y-90896895D01*
X77451741Y-90896895D02*
X77451741Y-90096895D01*
X77451741Y-90096895D02*
X77375550Y-90211180D01*
X77375550Y-90211180D02*
X77299360Y-90287371D01*
X77299360Y-90287371D02*
X77223169Y-90325466D01*
X77985074Y-90173085D02*
X78023170Y-90134990D01*
X78023170Y-90134990D02*
X78099360Y-90096895D01*
X78099360Y-90096895D02*
X78289836Y-90096895D01*
X78289836Y-90096895D02*
X78366027Y-90134990D01*
X78366027Y-90134990D02*
X78404122Y-90173085D01*
X78404122Y-90173085D02*
X78442217Y-90249276D01*
X78442217Y-90249276D02*
X78442217Y-90325466D01*
X78442217Y-90325466D02*
X78404122Y-90439752D01*
X78404122Y-90439752D02*
X77946979Y-90896895D01*
X77946979Y-90896895D02*
X78442217Y-90896895D01*
X78670789Y-90096895D02*
X78937456Y-90896895D01*
X78937456Y-90896895D02*
X79204122Y-90096895D01*
X66484295Y-97613408D02*
X66446200Y-97575312D01*
X66446200Y-97575312D02*
X66408104Y-97461027D01*
X66408104Y-97461027D02*
X66408104Y-97384836D01*
X66408104Y-97384836D02*
X66446200Y-97270550D01*
X66446200Y-97270550D02*
X66522390Y-97194360D01*
X66522390Y-97194360D02*
X66598580Y-97156265D01*
X66598580Y-97156265D02*
X66750961Y-97118169D01*
X66750961Y-97118169D02*
X66865247Y-97118169D01*
X66865247Y-97118169D02*
X67017628Y-97156265D01*
X67017628Y-97156265D02*
X67093819Y-97194360D01*
X67093819Y-97194360D02*
X67170009Y-97270550D01*
X67170009Y-97270550D02*
X67208104Y-97384836D01*
X67208104Y-97384836D02*
X67208104Y-97461027D01*
X67208104Y-97461027D02*
X67170009Y-97575312D01*
X67170009Y-97575312D02*
X67131914Y-97613408D01*
X67208104Y-98108646D02*
X67208104Y-98261027D01*
X67208104Y-98261027D02*
X67170009Y-98337217D01*
X67170009Y-98337217D02*
X67093819Y-98413408D01*
X67093819Y-98413408D02*
X66941438Y-98451503D01*
X66941438Y-98451503D02*
X66674771Y-98451503D01*
X66674771Y-98451503D02*
X66522390Y-98413408D01*
X66522390Y-98413408D02*
X66446200Y-98337217D01*
X66446200Y-98337217D02*
X66408104Y-98261027D01*
X66408104Y-98261027D02*
X66408104Y-98108646D01*
X66408104Y-98108646D02*
X66446200Y-98032455D01*
X66446200Y-98032455D02*
X66522390Y-97956265D01*
X66522390Y-97956265D02*
X66674771Y-97918169D01*
X66674771Y-97918169D02*
X66941438Y-97918169D01*
X66941438Y-97918169D02*
X67093819Y-97956265D01*
X67093819Y-97956265D02*
X67170009Y-98032455D01*
X67170009Y-98032455D02*
X67208104Y-98108646D01*
X66408104Y-98794360D02*
X67208104Y-98794360D01*
X67208104Y-98794360D02*
X66636676Y-99061026D01*
X66636676Y-99061026D02*
X67208104Y-99327693D01*
X67208104Y-99327693D02*
X66408104Y-99327693D01*
X83850312Y-69209990D02*
X83774122Y-69171895D01*
X83774122Y-69171895D02*
X83659836Y-69171895D01*
X83659836Y-69171895D02*
X83545550Y-69209990D01*
X83545550Y-69209990D02*
X83469360Y-69286180D01*
X83469360Y-69286180D02*
X83431265Y-69362371D01*
X83431265Y-69362371D02*
X83393169Y-69514752D01*
X83393169Y-69514752D02*
X83393169Y-69629038D01*
X83393169Y-69629038D02*
X83431265Y-69781419D01*
X83431265Y-69781419D02*
X83469360Y-69857609D01*
X83469360Y-69857609D02*
X83545550Y-69933800D01*
X83545550Y-69933800D02*
X83659836Y-69971895D01*
X83659836Y-69971895D02*
X83736027Y-69971895D01*
X83736027Y-69971895D02*
X83850312Y-69933800D01*
X83850312Y-69933800D02*
X83888408Y-69895704D01*
X83888408Y-69895704D02*
X83888408Y-69629038D01*
X83888408Y-69629038D02*
X83736027Y-69629038D01*
X84231265Y-69971895D02*
X84231265Y-69171895D01*
X84231265Y-69171895D02*
X84688408Y-69971895D01*
X84688408Y-69971895D02*
X84688408Y-69171895D01*
X85069360Y-69971895D02*
X85069360Y-69171895D01*
X85069360Y-69171895D02*
X85259836Y-69171895D01*
X85259836Y-69171895D02*
X85374122Y-69209990D01*
X85374122Y-69209990D02*
X85450312Y-69286180D01*
X85450312Y-69286180D02*
X85488407Y-69362371D01*
X85488407Y-69362371D02*
X85526503Y-69514752D01*
X85526503Y-69514752D02*
X85526503Y-69629038D01*
X85526503Y-69629038D02*
X85488407Y-69781419D01*
X85488407Y-69781419D02*
X85450312Y-69857609D01*
X85450312Y-69857609D02*
X85374122Y-69933800D01*
X85374122Y-69933800D02*
X85259836Y-69971895D01*
X85259836Y-69971895D02*
X85069360Y-69971895D01*
D12*
X89789160Y-78289533D02*
X90398684Y-78289533D01*
X90093922Y-78594295D02*
X90093922Y-77984771D01*
X91198683Y-78594295D02*
X90741540Y-78594295D01*
X90970112Y-78594295D02*
X90970112Y-77794295D01*
X90970112Y-77794295D02*
X90893921Y-77908580D01*
X90893921Y-77908580D02*
X90817731Y-77984771D01*
X90817731Y-77984771D02*
X90741540Y-78022866D01*
X91503445Y-77870485D02*
X91541541Y-77832390D01*
X91541541Y-77832390D02*
X91617731Y-77794295D01*
X91617731Y-77794295D02*
X91808207Y-77794295D01*
X91808207Y-77794295D02*
X91884398Y-77832390D01*
X91884398Y-77832390D02*
X91922493Y-77870485D01*
X91922493Y-77870485D02*
X91960588Y-77946676D01*
X91960588Y-77946676D02*
X91960588Y-78022866D01*
X91960588Y-78022866D02*
X91922493Y-78137152D01*
X91922493Y-78137152D02*
X91465350Y-78594295D01*
X91465350Y-78594295D02*
X91960588Y-78594295D01*
X92189160Y-77794295D02*
X92455827Y-78594295D01*
X92455827Y-78594295D02*
X92722493Y-77794295D01*
D10*
X67222152Y-65872931D02*
X67184057Y-65987217D01*
X67184057Y-65987217D02*
X67145961Y-66025312D01*
X67145961Y-66025312D02*
X67069771Y-66063408D01*
X67069771Y-66063408D02*
X66955485Y-66063408D01*
X66955485Y-66063408D02*
X66879295Y-66025312D01*
X66879295Y-66025312D02*
X66841200Y-65987217D01*
X66841200Y-65987217D02*
X66803104Y-65911027D01*
X66803104Y-65911027D02*
X66803104Y-65606265D01*
X66803104Y-65606265D02*
X67603104Y-65606265D01*
X67603104Y-65606265D02*
X67603104Y-65872931D01*
X67603104Y-65872931D02*
X67565009Y-65949122D01*
X67565009Y-65949122D02*
X67526914Y-65987217D01*
X67526914Y-65987217D02*
X67450723Y-66025312D01*
X67450723Y-66025312D02*
X67374533Y-66025312D01*
X67374533Y-66025312D02*
X67298342Y-65987217D01*
X67298342Y-65987217D02*
X67260247Y-65949122D01*
X67260247Y-65949122D02*
X67222152Y-65872931D01*
X67222152Y-65872931D02*
X67222152Y-65606265D01*
X114930074Y-66622419D02*
X114453884Y-66622419D01*
X114453884Y-66622419D02*
X114453884Y-65622419D01*
X115025313Y-66717657D02*
X115787217Y-66717657D01*
X115882456Y-65622419D02*
X116215789Y-66622419D01*
X116215789Y-66622419D02*
X116549122Y-65622419D01*
X117453884Y-66527180D02*
X117406265Y-66574800D01*
X117406265Y-66574800D02*
X117263408Y-66622419D01*
X117263408Y-66622419D02*
X117168170Y-66622419D01*
X117168170Y-66622419D02*
X117025313Y-66574800D01*
X117025313Y-66574800D02*
X116930075Y-66479561D01*
X116930075Y-66479561D02*
X116882456Y-66384323D01*
X116882456Y-66384323D02*
X116834837Y-66193847D01*
X116834837Y-66193847D02*
X116834837Y-66050990D01*
X116834837Y-66050990D02*
X116882456Y-65860514D01*
X116882456Y-65860514D02*
X116930075Y-65765276D01*
X116930075Y-65765276D02*
X117025313Y-65670038D01*
X117025313Y-65670038D02*
X117168170Y-65622419D01*
X117168170Y-65622419D02*
X117263408Y-65622419D01*
X117263408Y-65622419D02*
X117406265Y-65670038D01*
X117406265Y-65670038D02*
X117453884Y-65717657D01*
X118453884Y-66527180D02*
X118406265Y-66574800D01*
X118406265Y-66574800D02*
X118263408Y-66622419D01*
X118263408Y-66622419D02*
X118168170Y-66622419D01*
X118168170Y-66622419D02*
X118025313Y-66574800D01*
X118025313Y-66574800D02*
X117930075Y-66479561D01*
X117930075Y-66479561D02*
X117882456Y-66384323D01*
X117882456Y-66384323D02*
X117834837Y-66193847D01*
X117834837Y-66193847D02*
X117834837Y-66050990D01*
X117834837Y-66050990D02*
X117882456Y-65860514D01*
X117882456Y-65860514D02*
X117930075Y-65765276D01*
X117930075Y-65765276D02*
X118025313Y-65670038D01*
X118025313Y-65670038D02*
X118168170Y-65622419D01*
X118168170Y-65622419D02*
X118263408Y-65622419D01*
X118263408Y-65622419D02*
X118406265Y-65670038D01*
X118406265Y-65670038D02*
X118453884Y-65717657D01*
X83797931Y-74452847D02*
X83912217Y-74490942D01*
X83912217Y-74490942D02*
X83950312Y-74529038D01*
X83950312Y-74529038D02*
X83988408Y-74605228D01*
X83988408Y-74605228D02*
X83988408Y-74719514D01*
X83988408Y-74719514D02*
X83950312Y-74795704D01*
X83950312Y-74795704D02*
X83912217Y-74833800D01*
X83912217Y-74833800D02*
X83836027Y-74871895D01*
X83836027Y-74871895D02*
X83531265Y-74871895D01*
X83531265Y-74871895D02*
X83531265Y-74071895D01*
X83531265Y-74071895D02*
X83797931Y-74071895D01*
X83797931Y-74071895D02*
X83874122Y-74109990D01*
X83874122Y-74109990D02*
X83912217Y-74148085D01*
X83912217Y-74148085D02*
X83950312Y-74224276D01*
X83950312Y-74224276D02*
X83950312Y-74300466D01*
X83950312Y-74300466D02*
X83912217Y-74376657D01*
X83912217Y-74376657D02*
X83874122Y-74414752D01*
X83874122Y-74414752D02*
X83797931Y-74452847D01*
X83797931Y-74452847D02*
X83531265Y-74452847D01*
X112875312Y-85034990D02*
X112799122Y-84996895D01*
X112799122Y-84996895D02*
X112684836Y-84996895D01*
X112684836Y-84996895D02*
X112570550Y-85034990D01*
X112570550Y-85034990D02*
X112494360Y-85111180D01*
X112494360Y-85111180D02*
X112456265Y-85187371D01*
X112456265Y-85187371D02*
X112418169Y-85339752D01*
X112418169Y-85339752D02*
X112418169Y-85454038D01*
X112418169Y-85454038D02*
X112456265Y-85606419D01*
X112456265Y-85606419D02*
X112494360Y-85682609D01*
X112494360Y-85682609D02*
X112570550Y-85758800D01*
X112570550Y-85758800D02*
X112684836Y-85796895D01*
X112684836Y-85796895D02*
X112761027Y-85796895D01*
X112761027Y-85796895D02*
X112875312Y-85758800D01*
X112875312Y-85758800D02*
X112913408Y-85720704D01*
X112913408Y-85720704D02*
X112913408Y-85454038D01*
X112913408Y-85454038D02*
X112761027Y-85454038D01*
X113256265Y-85796895D02*
X113256265Y-84996895D01*
X113256265Y-84996895D02*
X113713408Y-85796895D01*
X113713408Y-85796895D02*
X113713408Y-84996895D01*
X114094360Y-85796895D02*
X114094360Y-84996895D01*
X114094360Y-84996895D02*
X114284836Y-84996895D01*
X114284836Y-84996895D02*
X114399122Y-85034990D01*
X114399122Y-85034990D02*
X114475312Y-85111180D01*
X114475312Y-85111180D02*
X114513407Y-85187371D01*
X114513407Y-85187371D02*
X114551503Y-85339752D01*
X114551503Y-85339752D02*
X114551503Y-85454038D01*
X114551503Y-85454038D02*
X114513407Y-85606419D01*
X114513407Y-85606419D02*
X114475312Y-85682609D01*
X114475312Y-85682609D02*
X114399122Y-85758800D01*
X114399122Y-85758800D02*
X114284836Y-85796895D01*
X114284836Y-85796895D02*
X114094360Y-85796895D01*
X195142133Y-105053734D02*
X195142133Y-104444211D01*
X195446895Y-104748972D02*
X194837371Y-104748972D01*
X195446895Y-103644211D02*
X195446895Y-104101354D01*
X195446895Y-103872782D02*
X194646895Y-103872782D01*
X194646895Y-103872782D02*
X194761180Y-103948973D01*
X194761180Y-103948973D02*
X194837371Y-104025163D01*
X194837371Y-104025163D02*
X194875466Y-104101354D01*
X194723085Y-103339449D02*
X194684990Y-103301353D01*
X194684990Y-103301353D02*
X194646895Y-103225163D01*
X194646895Y-103225163D02*
X194646895Y-103034687D01*
X194646895Y-103034687D02*
X194684990Y-102958496D01*
X194684990Y-102958496D02*
X194723085Y-102920401D01*
X194723085Y-102920401D02*
X194799276Y-102882306D01*
X194799276Y-102882306D02*
X194875466Y-102882306D01*
X194875466Y-102882306D02*
X194989752Y-102920401D01*
X194989752Y-102920401D02*
X195446895Y-103377544D01*
X195446895Y-103377544D02*
X195446895Y-102882306D01*
X194646895Y-102653734D02*
X195446895Y-102387067D01*
X195446895Y-102387067D02*
X194646895Y-102120401D01*
X76487217Y-56083030D02*
X76106265Y-56083030D01*
X76106265Y-56083030D02*
X76106265Y-55283030D01*
X76715788Y-56044935D02*
X76830074Y-56083030D01*
X76830074Y-56083030D02*
X77020550Y-56083030D01*
X77020550Y-56083030D02*
X77096741Y-56044935D01*
X77096741Y-56044935D02*
X77134836Y-56006839D01*
X77134836Y-56006839D02*
X77172931Y-55930649D01*
X77172931Y-55930649D02*
X77172931Y-55854458D01*
X77172931Y-55854458D02*
X77134836Y-55778268D01*
X77134836Y-55778268D02*
X77096741Y-55740173D01*
X77096741Y-55740173D02*
X77020550Y-55702077D01*
X77020550Y-55702077D02*
X76868169Y-55663982D01*
X76868169Y-55663982D02*
X76791979Y-55625887D01*
X76791979Y-55625887D02*
X76753884Y-55587792D01*
X76753884Y-55587792D02*
X76715788Y-55511601D01*
X76715788Y-55511601D02*
X76715788Y-55435411D01*
X76715788Y-55435411D02*
X76753884Y-55359220D01*
X76753884Y-55359220D02*
X76791979Y-55321125D01*
X76791979Y-55321125D02*
X76868169Y-55283030D01*
X76868169Y-55283030D02*
X77058646Y-55283030D01*
X77058646Y-55283030D02*
X77172931Y-55321125D01*
X78125313Y-55778268D02*
X78734837Y-55778268D01*
X80106265Y-56083030D02*
X79725313Y-56083030D01*
X79725313Y-56083030D02*
X79725313Y-55283030D01*
X80372932Y-56083030D02*
X80372932Y-55549696D01*
X80372932Y-55283030D02*
X80334836Y-55321125D01*
X80334836Y-55321125D02*
X80372932Y-55359220D01*
X80372932Y-55359220D02*
X80411027Y-55321125D01*
X80411027Y-55321125D02*
X80372932Y-55283030D01*
X80372932Y-55283030D02*
X80372932Y-55359220D01*
X81096741Y-55549696D02*
X81096741Y-56197315D01*
X81096741Y-56197315D02*
X81058646Y-56273506D01*
X81058646Y-56273506D02*
X81020550Y-56311601D01*
X81020550Y-56311601D02*
X80944360Y-56349696D01*
X80944360Y-56349696D02*
X80830074Y-56349696D01*
X80830074Y-56349696D02*
X80753884Y-56311601D01*
X81096741Y-56044935D02*
X81020550Y-56083030D01*
X81020550Y-56083030D02*
X80868169Y-56083030D01*
X80868169Y-56083030D02*
X80791979Y-56044935D01*
X80791979Y-56044935D02*
X80753884Y-56006839D01*
X80753884Y-56006839D02*
X80715788Y-55930649D01*
X80715788Y-55930649D02*
X80715788Y-55702077D01*
X80715788Y-55702077D02*
X80753884Y-55625887D01*
X80753884Y-55625887D02*
X80791979Y-55587792D01*
X80791979Y-55587792D02*
X80868169Y-55549696D01*
X80868169Y-55549696D02*
X81020550Y-55549696D01*
X81020550Y-55549696D02*
X81096741Y-55587792D01*
X81477694Y-56083030D02*
X81477694Y-55283030D01*
X81820551Y-56083030D02*
X81820551Y-55663982D01*
X81820551Y-55663982D02*
X81782456Y-55587792D01*
X81782456Y-55587792D02*
X81706265Y-55549696D01*
X81706265Y-55549696D02*
X81591979Y-55549696D01*
X81591979Y-55549696D02*
X81515789Y-55587792D01*
X81515789Y-55587792D02*
X81477694Y-55625887D01*
X82087218Y-55549696D02*
X82391980Y-55549696D01*
X82201504Y-55283030D02*
X82201504Y-55968744D01*
X82201504Y-55968744D02*
X82239599Y-56044935D01*
X82239599Y-56044935D02*
X82315789Y-56083030D01*
X82315789Y-56083030D02*
X82391980Y-56083030D01*
X83230075Y-56044935D02*
X83344361Y-56083030D01*
X83344361Y-56083030D02*
X83534837Y-56083030D01*
X83534837Y-56083030D02*
X83611028Y-56044935D01*
X83611028Y-56044935D02*
X83649123Y-56006839D01*
X83649123Y-56006839D02*
X83687218Y-55930649D01*
X83687218Y-55930649D02*
X83687218Y-55854458D01*
X83687218Y-55854458D02*
X83649123Y-55778268D01*
X83649123Y-55778268D02*
X83611028Y-55740173D01*
X83611028Y-55740173D02*
X83534837Y-55702077D01*
X83534837Y-55702077D02*
X83382456Y-55663982D01*
X83382456Y-55663982D02*
X83306266Y-55625887D01*
X83306266Y-55625887D02*
X83268171Y-55587792D01*
X83268171Y-55587792D02*
X83230075Y-55511601D01*
X83230075Y-55511601D02*
X83230075Y-55435411D01*
X83230075Y-55435411D02*
X83268171Y-55359220D01*
X83268171Y-55359220D02*
X83306266Y-55321125D01*
X83306266Y-55321125D02*
X83382456Y-55283030D01*
X83382456Y-55283030D02*
X83572933Y-55283030D01*
X83572933Y-55283030D02*
X83687218Y-55321125D01*
X84334838Y-56044935D02*
X84258647Y-56083030D01*
X84258647Y-56083030D02*
X84106266Y-56083030D01*
X84106266Y-56083030D02*
X84030076Y-56044935D01*
X84030076Y-56044935D02*
X83991980Y-55968744D01*
X83991980Y-55968744D02*
X83991980Y-55663982D01*
X83991980Y-55663982D02*
X84030076Y-55587792D01*
X84030076Y-55587792D02*
X84106266Y-55549696D01*
X84106266Y-55549696D02*
X84258647Y-55549696D01*
X84258647Y-55549696D02*
X84334838Y-55587792D01*
X84334838Y-55587792D02*
X84372933Y-55663982D01*
X84372933Y-55663982D02*
X84372933Y-55740173D01*
X84372933Y-55740173D02*
X83991980Y-55816363D01*
X84715790Y-55549696D02*
X84715790Y-56083030D01*
X84715790Y-55625887D02*
X84753885Y-55587792D01*
X84753885Y-55587792D02*
X84830075Y-55549696D01*
X84830075Y-55549696D02*
X84944361Y-55549696D01*
X84944361Y-55549696D02*
X85020552Y-55587792D01*
X85020552Y-55587792D02*
X85058647Y-55663982D01*
X85058647Y-55663982D02*
X85058647Y-56083030D01*
X85401504Y-56044935D02*
X85477695Y-56083030D01*
X85477695Y-56083030D02*
X85630076Y-56083030D01*
X85630076Y-56083030D02*
X85706266Y-56044935D01*
X85706266Y-56044935D02*
X85744362Y-55968744D01*
X85744362Y-55968744D02*
X85744362Y-55930649D01*
X85744362Y-55930649D02*
X85706266Y-55854458D01*
X85706266Y-55854458D02*
X85630076Y-55816363D01*
X85630076Y-55816363D02*
X85515790Y-55816363D01*
X85515790Y-55816363D02*
X85439600Y-55778268D01*
X85439600Y-55778268D02*
X85401504Y-55702077D01*
X85401504Y-55702077D02*
X85401504Y-55663982D01*
X85401504Y-55663982D02*
X85439600Y-55587792D01*
X85439600Y-55587792D02*
X85515790Y-55549696D01*
X85515790Y-55549696D02*
X85630076Y-55549696D01*
X85630076Y-55549696D02*
X85706266Y-55587792D01*
X86201504Y-56083030D02*
X86125314Y-56044935D01*
X86125314Y-56044935D02*
X86087219Y-56006839D01*
X86087219Y-56006839D02*
X86049123Y-55930649D01*
X86049123Y-55930649D02*
X86049123Y-55702077D01*
X86049123Y-55702077D02*
X86087219Y-55625887D01*
X86087219Y-55625887D02*
X86125314Y-55587792D01*
X86125314Y-55587792D02*
X86201504Y-55549696D01*
X86201504Y-55549696D02*
X86315790Y-55549696D01*
X86315790Y-55549696D02*
X86391981Y-55587792D01*
X86391981Y-55587792D02*
X86430076Y-55625887D01*
X86430076Y-55625887D02*
X86468171Y-55702077D01*
X86468171Y-55702077D02*
X86468171Y-55930649D01*
X86468171Y-55930649D02*
X86430076Y-56006839D01*
X86430076Y-56006839D02*
X86391981Y-56044935D01*
X86391981Y-56044935D02*
X86315790Y-56083030D01*
X86315790Y-56083030D02*
X86201504Y-56083030D01*
X86811029Y-56083030D02*
X86811029Y-55549696D01*
X86811029Y-55702077D02*
X86849124Y-55625887D01*
X86849124Y-55625887D02*
X86887219Y-55587792D01*
X86887219Y-55587792D02*
X86963410Y-55549696D01*
X86963410Y-55549696D02*
X87039600Y-55549696D01*
X76106265Y-57370985D02*
X76106265Y-56570985D01*
X76106265Y-56570985D02*
X76372931Y-57142413D01*
X76372931Y-57142413D02*
X76639598Y-56570985D01*
X76639598Y-56570985D02*
X76639598Y-57370985D01*
X76982455Y-57332890D02*
X77096741Y-57370985D01*
X77096741Y-57370985D02*
X77287217Y-57370985D01*
X77287217Y-57370985D02*
X77363408Y-57332890D01*
X77363408Y-57332890D02*
X77401503Y-57294794D01*
X77401503Y-57294794D02*
X77439598Y-57218604D01*
X77439598Y-57218604D02*
X77439598Y-57142413D01*
X77439598Y-57142413D02*
X77401503Y-57066223D01*
X77401503Y-57066223D02*
X77363408Y-57028128D01*
X77363408Y-57028128D02*
X77287217Y-56990032D01*
X77287217Y-56990032D02*
X77134836Y-56951937D01*
X77134836Y-56951937D02*
X77058646Y-56913842D01*
X77058646Y-56913842D02*
X77020551Y-56875747D01*
X77020551Y-56875747D02*
X76982455Y-56799556D01*
X76982455Y-56799556D02*
X76982455Y-56723366D01*
X76982455Y-56723366D02*
X77020551Y-56647175D01*
X77020551Y-56647175D02*
X77058646Y-56609080D01*
X77058646Y-56609080D02*
X77134836Y-56570985D01*
X77134836Y-56570985D02*
X77325313Y-56570985D01*
X77325313Y-56570985D02*
X77439598Y-56609080D01*
X78391980Y-57066223D02*
X79001504Y-57066223D01*
X79991980Y-57370985D02*
X79991980Y-56570985D01*
X79991980Y-56570985D02*
X80258646Y-57142413D01*
X80258646Y-57142413D02*
X80525313Y-56570985D01*
X80525313Y-56570985D02*
X80525313Y-57370985D01*
X81020551Y-57370985D02*
X80944361Y-57332890D01*
X80944361Y-57332890D02*
X80906266Y-57294794D01*
X80906266Y-57294794D02*
X80868170Y-57218604D01*
X80868170Y-57218604D02*
X80868170Y-56990032D01*
X80868170Y-56990032D02*
X80906266Y-56913842D01*
X80906266Y-56913842D02*
X80944361Y-56875747D01*
X80944361Y-56875747D02*
X81020551Y-56837651D01*
X81020551Y-56837651D02*
X81134837Y-56837651D01*
X81134837Y-56837651D02*
X81211028Y-56875747D01*
X81211028Y-56875747D02*
X81249123Y-56913842D01*
X81249123Y-56913842D02*
X81287218Y-56990032D01*
X81287218Y-56990032D02*
X81287218Y-57218604D01*
X81287218Y-57218604D02*
X81249123Y-57294794D01*
X81249123Y-57294794D02*
X81211028Y-57332890D01*
X81211028Y-57332890D02*
X81134837Y-57370985D01*
X81134837Y-57370985D02*
X81020551Y-57370985D01*
X81630076Y-57370985D02*
X81630076Y-56837651D01*
X81630076Y-56570985D02*
X81591980Y-56609080D01*
X81591980Y-56609080D02*
X81630076Y-56647175D01*
X81630076Y-56647175D02*
X81668171Y-56609080D01*
X81668171Y-56609080D02*
X81630076Y-56570985D01*
X81630076Y-56570985D02*
X81630076Y-56647175D01*
X81972932Y-57332890D02*
X82049123Y-57370985D01*
X82049123Y-57370985D02*
X82201504Y-57370985D01*
X82201504Y-57370985D02*
X82277694Y-57332890D01*
X82277694Y-57332890D02*
X82315790Y-57256699D01*
X82315790Y-57256699D02*
X82315790Y-57218604D01*
X82315790Y-57218604D02*
X82277694Y-57142413D01*
X82277694Y-57142413D02*
X82201504Y-57104318D01*
X82201504Y-57104318D02*
X82087218Y-57104318D01*
X82087218Y-57104318D02*
X82011028Y-57066223D01*
X82011028Y-57066223D02*
X81972932Y-56990032D01*
X81972932Y-56990032D02*
X81972932Y-56951937D01*
X81972932Y-56951937D02*
X82011028Y-56875747D01*
X82011028Y-56875747D02*
X82087218Y-56837651D01*
X82087218Y-56837651D02*
X82201504Y-56837651D01*
X82201504Y-56837651D02*
X82277694Y-56875747D01*
X82544361Y-56837651D02*
X82849123Y-56837651D01*
X82658647Y-56570985D02*
X82658647Y-57256699D01*
X82658647Y-57256699D02*
X82696742Y-57332890D01*
X82696742Y-57332890D02*
X82772932Y-57370985D01*
X82772932Y-57370985D02*
X82849123Y-57370985D01*
X83458647Y-56837651D02*
X83458647Y-57370985D01*
X83115790Y-56837651D02*
X83115790Y-57256699D01*
X83115790Y-57256699D02*
X83153885Y-57332890D01*
X83153885Y-57332890D02*
X83230075Y-57370985D01*
X83230075Y-57370985D02*
X83344361Y-57370985D01*
X83344361Y-57370985D02*
X83420552Y-57332890D01*
X83420552Y-57332890D02*
X83458647Y-57294794D01*
X83839600Y-57370985D02*
X83839600Y-56837651D01*
X83839600Y-56990032D02*
X83877695Y-56913842D01*
X83877695Y-56913842D02*
X83915790Y-56875747D01*
X83915790Y-56875747D02*
X83991981Y-56837651D01*
X83991981Y-56837651D02*
X84068171Y-56837651D01*
X84639600Y-57332890D02*
X84563409Y-57370985D01*
X84563409Y-57370985D02*
X84411028Y-57370985D01*
X84411028Y-57370985D02*
X84334838Y-57332890D01*
X84334838Y-57332890D02*
X84296742Y-57256699D01*
X84296742Y-57256699D02*
X84296742Y-56951937D01*
X84296742Y-56951937D02*
X84334838Y-56875747D01*
X84334838Y-56875747D02*
X84411028Y-56837651D01*
X84411028Y-56837651D02*
X84563409Y-56837651D01*
X84563409Y-56837651D02*
X84639600Y-56875747D01*
X84639600Y-56875747D02*
X84677695Y-56951937D01*
X84677695Y-56951937D02*
X84677695Y-57028128D01*
X84677695Y-57028128D02*
X84296742Y-57104318D01*
X85591980Y-57332890D02*
X85706266Y-57370985D01*
X85706266Y-57370985D02*
X85896742Y-57370985D01*
X85896742Y-57370985D02*
X85972933Y-57332890D01*
X85972933Y-57332890D02*
X86011028Y-57294794D01*
X86011028Y-57294794D02*
X86049123Y-57218604D01*
X86049123Y-57218604D02*
X86049123Y-57142413D01*
X86049123Y-57142413D02*
X86011028Y-57066223D01*
X86011028Y-57066223D02*
X85972933Y-57028128D01*
X85972933Y-57028128D02*
X85896742Y-56990032D01*
X85896742Y-56990032D02*
X85744361Y-56951937D01*
X85744361Y-56951937D02*
X85668171Y-56913842D01*
X85668171Y-56913842D02*
X85630076Y-56875747D01*
X85630076Y-56875747D02*
X85591980Y-56799556D01*
X85591980Y-56799556D02*
X85591980Y-56723366D01*
X85591980Y-56723366D02*
X85630076Y-56647175D01*
X85630076Y-56647175D02*
X85668171Y-56609080D01*
X85668171Y-56609080D02*
X85744361Y-56570985D01*
X85744361Y-56570985D02*
X85934838Y-56570985D01*
X85934838Y-56570985D02*
X86049123Y-56609080D01*
X86696743Y-57332890D02*
X86620552Y-57370985D01*
X86620552Y-57370985D02*
X86468171Y-57370985D01*
X86468171Y-57370985D02*
X86391981Y-57332890D01*
X86391981Y-57332890D02*
X86353885Y-57256699D01*
X86353885Y-57256699D02*
X86353885Y-56951937D01*
X86353885Y-56951937D02*
X86391981Y-56875747D01*
X86391981Y-56875747D02*
X86468171Y-56837651D01*
X86468171Y-56837651D02*
X86620552Y-56837651D01*
X86620552Y-56837651D02*
X86696743Y-56875747D01*
X86696743Y-56875747D02*
X86734838Y-56951937D01*
X86734838Y-56951937D02*
X86734838Y-57028128D01*
X86734838Y-57028128D02*
X86353885Y-57104318D01*
X87077695Y-56837651D02*
X87077695Y-57370985D01*
X87077695Y-56913842D02*
X87115790Y-56875747D01*
X87115790Y-56875747D02*
X87191980Y-56837651D01*
X87191980Y-56837651D02*
X87306266Y-56837651D01*
X87306266Y-56837651D02*
X87382457Y-56875747D01*
X87382457Y-56875747D02*
X87420552Y-56951937D01*
X87420552Y-56951937D02*
X87420552Y-57370985D01*
X87763409Y-57332890D02*
X87839600Y-57370985D01*
X87839600Y-57370985D02*
X87991981Y-57370985D01*
X87991981Y-57370985D02*
X88068171Y-57332890D01*
X88068171Y-57332890D02*
X88106267Y-57256699D01*
X88106267Y-57256699D02*
X88106267Y-57218604D01*
X88106267Y-57218604D02*
X88068171Y-57142413D01*
X88068171Y-57142413D02*
X87991981Y-57104318D01*
X87991981Y-57104318D02*
X87877695Y-57104318D01*
X87877695Y-57104318D02*
X87801505Y-57066223D01*
X87801505Y-57066223D02*
X87763409Y-56990032D01*
X87763409Y-56990032D02*
X87763409Y-56951937D01*
X87763409Y-56951937D02*
X87801505Y-56875747D01*
X87801505Y-56875747D02*
X87877695Y-56837651D01*
X87877695Y-56837651D02*
X87991981Y-56837651D01*
X87991981Y-56837651D02*
X88068171Y-56875747D01*
X88563409Y-57370985D02*
X88487219Y-57332890D01*
X88487219Y-57332890D02*
X88449124Y-57294794D01*
X88449124Y-57294794D02*
X88411028Y-57218604D01*
X88411028Y-57218604D02*
X88411028Y-56990032D01*
X88411028Y-56990032D02*
X88449124Y-56913842D01*
X88449124Y-56913842D02*
X88487219Y-56875747D01*
X88487219Y-56875747D02*
X88563409Y-56837651D01*
X88563409Y-56837651D02*
X88677695Y-56837651D01*
X88677695Y-56837651D02*
X88753886Y-56875747D01*
X88753886Y-56875747D02*
X88791981Y-56913842D01*
X88791981Y-56913842D02*
X88830076Y-56990032D01*
X88830076Y-56990032D02*
X88830076Y-57218604D01*
X88830076Y-57218604D02*
X88791981Y-57294794D01*
X88791981Y-57294794D02*
X88753886Y-57332890D01*
X88753886Y-57332890D02*
X88677695Y-57370985D01*
X88677695Y-57370985D02*
X88563409Y-57370985D01*
X89172934Y-57370985D02*
X89172934Y-56837651D01*
X89172934Y-56990032D02*
X89211029Y-56913842D01*
X89211029Y-56913842D02*
X89249124Y-56875747D01*
X89249124Y-56875747D02*
X89325315Y-56837651D01*
X89325315Y-56837651D02*
X89401505Y-56837651D01*
X76068169Y-58430368D02*
X76449122Y-58430368D01*
X75991979Y-58658940D02*
X76258646Y-57858940D01*
X76258646Y-57858940D02*
X76525312Y-58658940D01*
X76791979Y-58658940D02*
X76791979Y-57858940D01*
X76791979Y-57858940D02*
X76982455Y-57858940D01*
X76982455Y-57858940D02*
X77096741Y-57897035D01*
X77096741Y-57897035D02*
X77172931Y-57973225D01*
X77172931Y-57973225D02*
X77211026Y-58049416D01*
X77211026Y-58049416D02*
X77249122Y-58201797D01*
X77249122Y-58201797D02*
X77249122Y-58316083D01*
X77249122Y-58316083D02*
X77211026Y-58468464D01*
X77211026Y-58468464D02*
X77172931Y-58544654D01*
X77172931Y-58544654D02*
X77096741Y-58620845D01*
X77096741Y-58620845D02*
X76982455Y-58658940D01*
X76982455Y-58658940D02*
X76791979Y-58658940D01*
X78201503Y-58354178D02*
X78811027Y-58354178D01*
X79763407Y-58430368D02*
X80144360Y-58430368D01*
X79687217Y-58658940D02*
X79953884Y-57858940D01*
X79953884Y-57858940D02*
X80220550Y-58658940D01*
X80487217Y-58658940D02*
X80487217Y-57858940D01*
X80487217Y-57858940D02*
X80677693Y-57858940D01*
X80677693Y-57858940D02*
X80791979Y-57897035D01*
X80791979Y-57897035D02*
X80868169Y-57973225D01*
X80868169Y-57973225D02*
X80906264Y-58049416D01*
X80906264Y-58049416D02*
X80944360Y-58201797D01*
X80944360Y-58201797D02*
X80944360Y-58316083D01*
X80944360Y-58316083D02*
X80906264Y-58468464D01*
X80906264Y-58468464D02*
X80868169Y-58544654D01*
X80868169Y-58544654D02*
X80791979Y-58620845D01*
X80791979Y-58620845D02*
X80677693Y-58658940D01*
X80677693Y-58658940D02*
X80487217Y-58658940D01*
X81744360Y-58582749D02*
X81706264Y-58620845D01*
X81706264Y-58620845D02*
X81591979Y-58658940D01*
X81591979Y-58658940D02*
X81515788Y-58658940D01*
X81515788Y-58658940D02*
X81401502Y-58620845D01*
X81401502Y-58620845D02*
X81325312Y-58544654D01*
X81325312Y-58544654D02*
X81287217Y-58468464D01*
X81287217Y-58468464D02*
X81249121Y-58316083D01*
X81249121Y-58316083D02*
X81249121Y-58201797D01*
X81249121Y-58201797D02*
X81287217Y-58049416D01*
X81287217Y-58049416D02*
X81325312Y-57973225D01*
X81325312Y-57973225D02*
X81401502Y-57897035D01*
X81401502Y-57897035D02*
X81515788Y-57858940D01*
X81515788Y-57858940D02*
X81591979Y-57858940D01*
X81591979Y-57858940D02*
X81706264Y-57897035D01*
X81706264Y-57897035D02*
X81744360Y-57935130D01*
X76487217Y-59946895D02*
X76106265Y-59946895D01*
X76106265Y-59946895D02*
X76106265Y-59146895D01*
X76563408Y-60023085D02*
X77172931Y-60023085D01*
X77972932Y-59642133D02*
X78582456Y-59642133D01*
X79953884Y-59946895D02*
X79572932Y-59946895D01*
X79572932Y-59946895D02*
X79572932Y-59146895D01*
X80563408Y-59946895D02*
X80563408Y-59527847D01*
X80563408Y-59527847D02*
X80525313Y-59451657D01*
X80525313Y-59451657D02*
X80449122Y-59413561D01*
X80449122Y-59413561D02*
X80296741Y-59413561D01*
X80296741Y-59413561D02*
X80220551Y-59451657D01*
X80563408Y-59908800D02*
X80487217Y-59946895D01*
X80487217Y-59946895D02*
X80296741Y-59946895D01*
X80296741Y-59946895D02*
X80220551Y-59908800D01*
X80220551Y-59908800D02*
X80182455Y-59832609D01*
X80182455Y-59832609D02*
X80182455Y-59756419D01*
X80182455Y-59756419D02*
X80220551Y-59680228D01*
X80220551Y-59680228D02*
X80296741Y-59642133D01*
X80296741Y-59642133D02*
X80487217Y-59642133D01*
X80487217Y-59642133D02*
X80563408Y-59604038D01*
X80944361Y-59946895D02*
X80944361Y-59413561D01*
X80944361Y-59489752D02*
X80982456Y-59451657D01*
X80982456Y-59451657D02*
X81058646Y-59413561D01*
X81058646Y-59413561D02*
X81172932Y-59413561D01*
X81172932Y-59413561D02*
X81249123Y-59451657D01*
X81249123Y-59451657D02*
X81287218Y-59527847D01*
X81287218Y-59527847D02*
X81287218Y-59946895D01*
X81287218Y-59527847D02*
X81325313Y-59451657D01*
X81325313Y-59451657D02*
X81401504Y-59413561D01*
X81401504Y-59413561D02*
X81515789Y-59413561D01*
X81515789Y-59413561D02*
X81591980Y-59451657D01*
X81591980Y-59451657D02*
X81630075Y-59527847D01*
X81630075Y-59527847D02*
X81630075Y-59946895D01*
X82011028Y-59413561D02*
X82011028Y-60213561D01*
X82011028Y-59451657D02*
X82087218Y-59413561D01*
X82087218Y-59413561D02*
X82239599Y-59413561D01*
X82239599Y-59413561D02*
X82315790Y-59451657D01*
X82315790Y-59451657D02*
X82353885Y-59489752D01*
X82353885Y-59489752D02*
X82391980Y-59565942D01*
X82391980Y-59565942D02*
X82391980Y-59794514D01*
X82391980Y-59794514D02*
X82353885Y-59870704D01*
X82353885Y-59870704D02*
X82315790Y-59908800D01*
X82315790Y-59908800D02*
X82239599Y-59946895D01*
X82239599Y-59946895D02*
X82087218Y-59946895D01*
X82087218Y-59946895D02*
X82011028Y-59908800D01*
D13*
X66192946Y-74108771D02*
X66892946Y-74108771D01*
X66892946Y-74108771D02*
X66192946Y-74508771D01*
X66192946Y-74508771D02*
X66892946Y-74508771D01*
X66192946Y-74842104D02*
X66892946Y-74842104D01*
X66892946Y-74842104D02*
X66892946Y-75108771D01*
X66892946Y-75108771D02*
X66859613Y-75175438D01*
X66859613Y-75175438D02*
X66826280Y-75208771D01*
X66826280Y-75208771D02*
X66759613Y-75242104D01*
X66759613Y-75242104D02*
X66659613Y-75242104D01*
X66659613Y-75242104D02*
X66592946Y-75208771D01*
X66592946Y-75208771D02*
X66559613Y-75175438D01*
X66559613Y-75175438D02*
X66526280Y-75108771D01*
X66526280Y-75108771D02*
X66526280Y-74842104D01*
X66192946Y-75542104D02*
X66892946Y-75542104D01*
X66192946Y-75942104D02*
X66592946Y-75642104D01*
X66892946Y-75942104D02*
X66492946Y-75542104D01*
X66892946Y-76675437D02*
X66192946Y-76908771D01*
X66192946Y-76908771D02*
X66892946Y-77142104D01*
X66259613Y-77775437D02*
X66226280Y-77742104D01*
X66226280Y-77742104D02*
X66192946Y-77642104D01*
X66192946Y-77642104D02*
X66192946Y-77575437D01*
X66192946Y-77575437D02*
X66226280Y-77475437D01*
X66226280Y-77475437D02*
X66292946Y-77408771D01*
X66292946Y-77408771D02*
X66359613Y-77375437D01*
X66359613Y-77375437D02*
X66492946Y-77342104D01*
X66492946Y-77342104D02*
X66592946Y-77342104D01*
X66592946Y-77342104D02*
X66726280Y-77375437D01*
X66726280Y-77375437D02*
X66792946Y-77408771D01*
X66792946Y-77408771D02*
X66859613Y-77475437D01*
X66859613Y-77475437D02*
X66892946Y-77575437D01*
X66892946Y-77575437D02*
X66892946Y-77642104D01*
X66892946Y-77642104D02*
X66859613Y-77742104D01*
X66859613Y-77742104D02*
X66826280Y-77775437D01*
X66259613Y-78475437D02*
X66226280Y-78442104D01*
X66226280Y-78442104D02*
X66192946Y-78342104D01*
X66192946Y-78342104D02*
X66192946Y-78275437D01*
X66192946Y-78275437D02*
X66226280Y-78175437D01*
X66226280Y-78175437D02*
X66292946Y-78108771D01*
X66292946Y-78108771D02*
X66359613Y-78075437D01*
X66359613Y-78075437D02*
X66492946Y-78042104D01*
X66492946Y-78042104D02*
X66592946Y-78042104D01*
X66592946Y-78042104D02*
X66726280Y-78075437D01*
X66726280Y-78075437D02*
X66792946Y-78108771D01*
X66792946Y-78108771D02*
X66859613Y-78175437D01*
X66859613Y-78175437D02*
X66892946Y-78275437D01*
X66892946Y-78275437D02*
X66892946Y-78342104D01*
X66892946Y-78342104D02*
X66859613Y-78442104D01*
X66859613Y-78442104D02*
X66826280Y-78475437D01*
D10*
X198956265Y-110292133D02*
X199565789Y-110292133D01*
X199261027Y-110596895D02*
X199261027Y-109987371D01*
X200327693Y-109796895D02*
X199946741Y-109796895D01*
X199946741Y-109796895D02*
X199908645Y-110177847D01*
X199908645Y-110177847D02*
X199946741Y-110139752D01*
X199946741Y-110139752D02*
X200022931Y-110101657D01*
X200022931Y-110101657D02*
X200213407Y-110101657D01*
X200213407Y-110101657D02*
X200289598Y-110139752D01*
X200289598Y-110139752D02*
X200327693Y-110177847D01*
X200327693Y-110177847D02*
X200365788Y-110254038D01*
X200365788Y-110254038D02*
X200365788Y-110444514D01*
X200365788Y-110444514D02*
X200327693Y-110520704D01*
X200327693Y-110520704D02*
X200289598Y-110558800D01*
X200289598Y-110558800D02*
X200213407Y-110596895D01*
X200213407Y-110596895D02*
X200022931Y-110596895D01*
X200022931Y-110596895D02*
X199946741Y-110558800D01*
X199946741Y-110558800D02*
X199908645Y-110520704D01*
X200594360Y-109796895D02*
X200861027Y-110596895D01*
X200861027Y-110596895D02*
X201127693Y-109796895D01*
X205414895Y-79424285D02*
X204614895Y-79424285D01*
X204614895Y-79424285D02*
X205414895Y-78967142D01*
X205414895Y-78967142D02*
X204614895Y-78967142D01*
X205338704Y-78129047D02*
X205376800Y-78167143D01*
X205376800Y-78167143D02*
X205414895Y-78281428D01*
X205414895Y-78281428D02*
X205414895Y-78357619D01*
X205414895Y-78357619D02*
X205376800Y-78471905D01*
X205376800Y-78471905D02*
X205300609Y-78548095D01*
X205300609Y-78548095D02*
X205224419Y-78586190D01*
X205224419Y-78586190D02*
X205072038Y-78624286D01*
X205072038Y-78624286D02*
X204957752Y-78624286D01*
X204957752Y-78624286D02*
X204805371Y-78586190D01*
X204805371Y-78586190D02*
X204729180Y-78548095D01*
X204729180Y-78548095D02*
X204652990Y-78471905D01*
X204652990Y-78471905D02*
X204614895Y-78357619D01*
X204614895Y-78357619D02*
X204614895Y-78281428D01*
X204614895Y-78281428D02*
X204652990Y-78167143D01*
X204652990Y-78167143D02*
X204691085Y-78129047D01*
X205338704Y-76719523D02*
X205376800Y-76757619D01*
X205376800Y-76757619D02*
X205414895Y-76871904D01*
X205414895Y-76871904D02*
X205414895Y-76948095D01*
X205414895Y-76948095D02*
X205376800Y-77062381D01*
X205376800Y-77062381D02*
X205300609Y-77138571D01*
X205300609Y-77138571D02*
X205224419Y-77176666D01*
X205224419Y-77176666D02*
X205072038Y-77214762D01*
X205072038Y-77214762D02*
X204957752Y-77214762D01*
X204957752Y-77214762D02*
X204805371Y-77176666D01*
X204805371Y-77176666D02*
X204729180Y-77138571D01*
X204729180Y-77138571D02*
X204652990Y-77062381D01*
X204652990Y-77062381D02*
X204614895Y-76948095D01*
X204614895Y-76948095D02*
X204614895Y-76871904D01*
X204614895Y-76871904D02*
X204652990Y-76757619D01*
X204652990Y-76757619D02*
X204691085Y-76719523D01*
X204614895Y-76224285D02*
X204614895Y-76071904D01*
X204614895Y-76071904D02*
X204652990Y-75995714D01*
X204652990Y-75995714D02*
X204729180Y-75919523D01*
X204729180Y-75919523D02*
X204881561Y-75881428D01*
X204881561Y-75881428D02*
X205148228Y-75881428D01*
X205148228Y-75881428D02*
X205300609Y-75919523D01*
X205300609Y-75919523D02*
X205376800Y-75995714D01*
X205376800Y-75995714D02*
X205414895Y-76071904D01*
X205414895Y-76071904D02*
X205414895Y-76224285D01*
X205414895Y-76224285D02*
X205376800Y-76300476D01*
X205376800Y-76300476D02*
X205300609Y-76376666D01*
X205300609Y-76376666D02*
X205148228Y-76414762D01*
X205148228Y-76414762D02*
X204881561Y-76414762D01*
X204881561Y-76414762D02*
X204729180Y-76376666D01*
X204729180Y-76376666D02*
X204652990Y-76300476D01*
X204652990Y-76300476D02*
X204614895Y-76224285D01*
X205414895Y-75538571D02*
X204614895Y-75538571D01*
X204614895Y-75538571D02*
X205186323Y-75271905D01*
X205186323Y-75271905D02*
X204614895Y-75005238D01*
X204614895Y-75005238D02*
X205414895Y-75005238D01*
X205110133Y-74014761D02*
X205110133Y-73405238D01*
X205414895Y-73709999D02*
X204805371Y-73709999D01*
X205414895Y-72605238D02*
X205414895Y-73062381D01*
X205414895Y-72833809D02*
X204614895Y-72833809D01*
X204614895Y-72833809D02*
X204729180Y-72910000D01*
X204729180Y-72910000D02*
X204805371Y-72986190D01*
X204805371Y-72986190D02*
X204843466Y-73062381D01*
X204691085Y-72300476D02*
X204652990Y-72262380D01*
X204652990Y-72262380D02*
X204614895Y-72186190D01*
X204614895Y-72186190D02*
X204614895Y-71995714D01*
X204614895Y-71995714D02*
X204652990Y-71919523D01*
X204652990Y-71919523D02*
X204691085Y-71881428D01*
X204691085Y-71881428D02*
X204767276Y-71843333D01*
X204767276Y-71843333D02*
X204843466Y-71843333D01*
X204843466Y-71843333D02*
X204957752Y-71881428D01*
X204957752Y-71881428D02*
X205414895Y-72338571D01*
X205414895Y-72338571D02*
X205414895Y-71843333D01*
X204614895Y-71614761D02*
X205414895Y-71348094D01*
X205414895Y-71348094D02*
X204614895Y-71081428D01*
X95585074Y-112072419D02*
X95108884Y-112072419D01*
X95108884Y-112072419D02*
X95061265Y-112548609D01*
X95061265Y-112548609D02*
X95108884Y-112500990D01*
X95108884Y-112500990D02*
X95204122Y-112453371D01*
X95204122Y-112453371D02*
X95442217Y-112453371D01*
X95442217Y-112453371D02*
X95537455Y-112500990D01*
X95537455Y-112500990D02*
X95585074Y-112548609D01*
X95585074Y-112548609D02*
X95632693Y-112643847D01*
X95632693Y-112643847D02*
X95632693Y-112881942D01*
X95632693Y-112881942D02*
X95585074Y-112977180D01*
X95585074Y-112977180D02*
X95537455Y-113024800D01*
X95537455Y-113024800D02*
X95442217Y-113072419D01*
X95442217Y-113072419D02*
X95204122Y-113072419D01*
X95204122Y-113072419D02*
X95108884Y-113024800D01*
X95108884Y-113024800D02*
X95061265Y-112977180D01*
X95918408Y-112072419D02*
X96251741Y-113072419D01*
X96251741Y-113072419D02*
X96585074Y-112072419D01*
X98251741Y-113072419D02*
X97918408Y-112596228D01*
X97680313Y-113072419D02*
X97680313Y-112072419D01*
X97680313Y-112072419D02*
X98061265Y-112072419D01*
X98061265Y-112072419D02*
X98156503Y-112120038D01*
X98156503Y-112120038D02*
X98204122Y-112167657D01*
X98204122Y-112167657D02*
X98251741Y-112262895D01*
X98251741Y-112262895D02*
X98251741Y-112405752D01*
X98251741Y-112405752D02*
X98204122Y-112500990D01*
X98204122Y-112500990D02*
X98156503Y-112548609D01*
X98156503Y-112548609D02*
X98061265Y-112596228D01*
X98061265Y-112596228D02*
X97680313Y-112596228D01*
X99061265Y-113024800D02*
X98966027Y-113072419D01*
X98966027Y-113072419D02*
X98775551Y-113072419D01*
X98775551Y-113072419D02*
X98680313Y-113024800D01*
X98680313Y-113024800D02*
X98632694Y-112929561D01*
X98632694Y-112929561D02*
X98632694Y-112548609D01*
X98632694Y-112548609D02*
X98680313Y-112453371D01*
X98680313Y-112453371D02*
X98775551Y-112405752D01*
X98775551Y-112405752D02*
X98966027Y-112405752D01*
X98966027Y-112405752D02*
X99061265Y-112453371D01*
X99061265Y-112453371D02*
X99108884Y-112548609D01*
X99108884Y-112548609D02*
X99108884Y-112643847D01*
X99108884Y-112643847D02*
X98632694Y-112739085D01*
X99680313Y-113072419D02*
X99585075Y-113024800D01*
X99585075Y-113024800D02*
X99537456Y-112929561D01*
X99537456Y-112929561D02*
X99537456Y-112072419D01*
X100489837Y-113072419D02*
X100489837Y-112548609D01*
X100489837Y-112548609D02*
X100442218Y-112453371D01*
X100442218Y-112453371D02*
X100346980Y-112405752D01*
X100346980Y-112405752D02*
X100156504Y-112405752D01*
X100156504Y-112405752D02*
X100061266Y-112453371D01*
X100489837Y-113024800D02*
X100394599Y-113072419D01*
X100394599Y-113072419D02*
X100156504Y-113072419D01*
X100156504Y-113072419D02*
X100061266Y-113024800D01*
X100061266Y-113024800D02*
X100013647Y-112929561D01*
X100013647Y-112929561D02*
X100013647Y-112834323D01*
X100013647Y-112834323D02*
X100061266Y-112739085D01*
X100061266Y-112739085D02*
X100156504Y-112691466D01*
X100156504Y-112691466D02*
X100394599Y-112691466D01*
X100394599Y-112691466D02*
X100489837Y-112643847D01*
X100870790Y-112405752D02*
X101108885Y-113072419D01*
X101346980Y-112405752D02*
X101108885Y-113072419D01*
X101108885Y-113072419D02*
X101013647Y-113310514D01*
X101013647Y-113310514D02*
X100966028Y-113358133D01*
X100966028Y-113358133D02*
X100870790Y-113405752D01*
X102489838Y-112691466D02*
X103251743Y-112691466D01*
X104823171Y-112548609D02*
X104489838Y-112548609D01*
X104489838Y-113072419D02*
X104489838Y-112072419D01*
X104489838Y-112072419D02*
X104966028Y-112072419D01*
X105727933Y-113024800D02*
X105632695Y-113072419D01*
X105632695Y-113072419D02*
X105442219Y-113072419D01*
X105442219Y-113072419D02*
X105346981Y-113024800D01*
X105346981Y-113024800D02*
X105299362Y-112929561D01*
X105299362Y-112929561D02*
X105299362Y-112548609D01*
X105299362Y-112548609D02*
X105346981Y-112453371D01*
X105346981Y-112453371D02*
X105442219Y-112405752D01*
X105442219Y-112405752D02*
X105632695Y-112405752D01*
X105632695Y-112405752D02*
X105727933Y-112453371D01*
X105727933Y-112453371D02*
X105775552Y-112548609D01*
X105775552Y-112548609D02*
X105775552Y-112643847D01*
X105775552Y-112643847D02*
X105299362Y-112739085D01*
X106204124Y-113072419D02*
X106204124Y-112405752D01*
X106204124Y-112596228D02*
X106251743Y-112500990D01*
X106251743Y-112500990D02*
X106299362Y-112453371D01*
X106299362Y-112453371D02*
X106394600Y-112405752D01*
X106394600Y-112405752D02*
X106489838Y-112405752D01*
X106680315Y-112405752D02*
X107061267Y-112405752D01*
X106823172Y-112072419D02*
X106823172Y-112929561D01*
X106823172Y-112929561D02*
X106870791Y-113024800D01*
X106870791Y-113024800D02*
X106966029Y-113072419D01*
X106966029Y-113072419D02*
X107061267Y-113072419D01*
X107394601Y-113072419D02*
X107394601Y-112405752D01*
X107394601Y-112072419D02*
X107346982Y-112120038D01*
X107346982Y-112120038D02*
X107394601Y-112167657D01*
X107394601Y-112167657D02*
X107442220Y-112120038D01*
X107442220Y-112120038D02*
X107394601Y-112072419D01*
X107394601Y-112072419D02*
X107394601Y-112167657D01*
X108013648Y-113072419D02*
X107918410Y-113024800D01*
X107918410Y-113024800D02*
X107870791Y-112929561D01*
X107870791Y-112929561D02*
X107870791Y-112072419D01*
X108394601Y-113072419D02*
X108394601Y-112405752D01*
X108394601Y-112072419D02*
X108346982Y-112120038D01*
X108346982Y-112120038D02*
X108394601Y-112167657D01*
X108394601Y-112167657D02*
X108442220Y-112120038D01*
X108442220Y-112120038D02*
X108394601Y-112072419D01*
X108394601Y-112072419D02*
X108394601Y-112167657D01*
X108775553Y-112405752D02*
X109299362Y-112405752D01*
X109299362Y-112405752D02*
X108775553Y-113072419D01*
X108775553Y-113072419D02*
X109299362Y-113072419D01*
X110061267Y-113024800D02*
X109966029Y-113072419D01*
X109966029Y-113072419D02*
X109775553Y-113072419D01*
X109775553Y-113072419D02*
X109680315Y-113024800D01*
X109680315Y-113024800D02*
X109632696Y-112929561D01*
X109632696Y-112929561D02*
X109632696Y-112548609D01*
X109632696Y-112548609D02*
X109680315Y-112453371D01*
X109680315Y-112453371D02*
X109775553Y-112405752D01*
X109775553Y-112405752D02*
X109966029Y-112405752D01*
X109966029Y-112405752D02*
X110061267Y-112453371D01*
X110061267Y-112453371D02*
X110108886Y-112548609D01*
X110108886Y-112548609D02*
X110108886Y-112643847D01*
X110108886Y-112643847D02*
X109632696Y-112739085D01*
X110537458Y-113072419D02*
X110537458Y-112405752D01*
X110537458Y-112596228D02*
X110585077Y-112500990D01*
X110585077Y-112500990D02*
X110632696Y-112453371D01*
X110632696Y-112453371D02*
X110727934Y-112405752D01*
X110727934Y-112405752D02*
X110823172Y-112405752D01*
X111918411Y-113072419D02*
X111918411Y-112072419D01*
X111918411Y-112072419D02*
X112299363Y-112072419D01*
X112299363Y-112072419D02*
X112394601Y-112120038D01*
X112394601Y-112120038D02*
X112442220Y-112167657D01*
X112442220Y-112167657D02*
X112489839Y-112262895D01*
X112489839Y-112262895D02*
X112489839Y-112405752D01*
X112489839Y-112405752D02*
X112442220Y-112500990D01*
X112442220Y-112500990D02*
X112394601Y-112548609D01*
X112394601Y-112548609D02*
X112299363Y-112596228D01*
X112299363Y-112596228D02*
X111918411Y-112596228D01*
X113346982Y-112405752D02*
X113346982Y-113072419D01*
X112918411Y-112405752D02*
X112918411Y-112929561D01*
X112918411Y-112929561D02*
X112966030Y-113024800D01*
X112966030Y-113024800D02*
X113061268Y-113072419D01*
X113061268Y-113072419D02*
X113204125Y-113072419D01*
X113204125Y-113072419D02*
X113299363Y-113024800D01*
X113299363Y-113024800D02*
X113346982Y-112977180D01*
X113823173Y-113072419D02*
X113823173Y-112405752D01*
X113823173Y-112500990D02*
X113870792Y-112453371D01*
X113870792Y-112453371D02*
X113966030Y-112405752D01*
X113966030Y-112405752D02*
X114108887Y-112405752D01*
X114108887Y-112405752D02*
X114204125Y-112453371D01*
X114204125Y-112453371D02*
X114251744Y-112548609D01*
X114251744Y-112548609D02*
X114251744Y-113072419D01*
X114251744Y-112548609D02*
X114299363Y-112453371D01*
X114299363Y-112453371D02*
X114394601Y-112405752D01*
X114394601Y-112405752D02*
X114537458Y-112405752D01*
X114537458Y-112405752D02*
X114632697Y-112453371D01*
X114632697Y-112453371D02*
X114680316Y-112548609D01*
X114680316Y-112548609D02*
X114680316Y-113072419D01*
X115156506Y-112405752D02*
X115156506Y-113405752D01*
X115156506Y-112453371D02*
X115251744Y-112405752D01*
X115251744Y-112405752D02*
X115442220Y-112405752D01*
X115442220Y-112405752D02*
X115537458Y-112453371D01*
X115537458Y-112453371D02*
X115585077Y-112500990D01*
X115585077Y-112500990D02*
X115632696Y-112596228D01*
X115632696Y-112596228D02*
X115632696Y-112881942D01*
X115632696Y-112881942D02*
X115585077Y-112977180D01*
X115585077Y-112977180D02*
X115537458Y-113024800D01*
X115537458Y-113024800D02*
X115442220Y-113072419D01*
X115442220Y-113072419D02*
X115251744Y-113072419D01*
X115251744Y-113072419D02*
X115156506Y-113024800D01*
X67915009Y-80725312D02*
X67953104Y-80649122D01*
X67953104Y-80649122D02*
X67953104Y-80534836D01*
X67953104Y-80534836D02*
X67915009Y-80420550D01*
X67915009Y-80420550D02*
X67838819Y-80344360D01*
X67838819Y-80344360D02*
X67762628Y-80306265D01*
X67762628Y-80306265D02*
X67610247Y-80268169D01*
X67610247Y-80268169D02*
X67495961Y-80268169D01*
X67495961Y-80268169D02*
X67343580Y-80306265D01*
X67343580Y-80306265D02*
X67267390Y-80344360D01*
X67267390Y-80344360D02*
X67191200Y-80420550D01*
X67191200Y-80420550D02*
X67153104Y-80534836D01*
X67153104Y-80534836D02*
X67153104Y-80611027D01*
X67153104Y-80611027D02*
X67191200Y-80725312D01*
X67191200Y-80725312D02*
X67229295Y-80763408D01*
X67229295Y-80763408D02*
X67495961Y-80763408D01*
X67495961Y-80763408D02*
X67495961Y-80611027D01*
X67153104Y-81106265D02*
X67953104Y-81106265D01*
X67953104Y-81106265D02*
X67153104Y-81563408D01*
X67153104Y-81563408D02*
X67953104Y-81563408D01*
X67153104Y-81944360D02*
X67953104Y-81944360D01*
X67953104Y-81944360D02*
X67953104Y-82134836D01*
X67953104Y-82134836D02*
X67915009Y-82249122D01*
X67915009Y-82249122D02*
X67838819Y-82325312D01*
X67838819Y-82325312D02*
X67762628Y-82363407D01*
X67762628Y-82363407D02*
X67610247Y-82401503D01*
X67610247Y-82401503D02*
X67495961Y-82401503D01*
X67495961Y-82401503D02*
X67343580Y-82363407D01*
X67343580Y-82363407D02*
X67267390Y-82325312D01*
X67267390Y-82325312D02*
X67191200Y-82249122D01*
X67191200Y-82249122D02*
X67153104Y-82134836D01*
X67153104Y-82134836D02*
X67153104Y-81944360D01*
X111180312Y-102234990D02*
X111104122Y-102196895D01*
X111104122Y-102196895D02*
X110989836Y-102196895D01*
X110989836Y-102196895D02*
X110875550Y-102234990D01*
X110875550Y-102234990D02*
X110799360Y-102311180D01*
X110799360Y-102311180D02*
X110761265Y-102387371D01*
X110761265Y-102387371D02*
X110723169Y-102539752D01*
X110723169Y-102539752D02*
X110723169Y-102654038D01*
X110723169Y-102654038D02*
X110761265Y-102806419D01*
X110761265Y-102806419D02*
X110799360Y-102882609D01*
X110799360Y-102882609D02*
X110875550Y-102958800D01*
X110875550Y-102958800D02*
X110989836Y-102996895D01*
X110989836Y-102996895D02*
X111066027Y-102996895D01*
X111066027Y-102996895D02*
X111180312Y-102958800D01*
X111180312Y-102958800D02*
X111218408Y-102920704D01*
X111218408Y-102920704D02*
X111218408Y-102654038D01*
X111218408Y-102654038D02*
X111066027Y-102654038D01*
X111561265Y-102996895D02*
X111561265Y-102196895D01*
X111561265Y-102196895D02*
X112018408Y-102996895D01*
X112018408Y-102996895D02*
X112018408Y-102196895D01*
X112399360Y-102996895D02*
X112399360Y-102196895D01*
X112399360Y-102196895D02*
X112589836Y-102196895D01*
X112589836Y-102196895D02*
X112704122Y-102234990D01*
X112704122Y-102234990D02*
X112780312Y-102311180D01*
X112780312Y-102311180D02*
X112818407Y-102387371D01*
X112818407Y-102387371D02*
X112856503Y-102539752D01*
X112856503Y-102539752D02*
X112856503Y-102654038D01*
X112856503Y-102654038D02*
X112818407Y-102806419D01*
X112818407Y-102806419D02*
X112780312Y-102882609D01*
X112780312Y-102882609D02*
X112704122Y-102958800D01*
X112704122Y-102958800D02*
X112589836Y-102996895D01*
X112589836Y-102996895D02*
X112399360Y-102996895D01*
X186656265Y-102896895D02*
X186656265Y-102096895D01*
X186656265Y-102096895D02*
X186961027Y-102096895D01*
X186961027Y-102096895D02*
X187037217Y-102134990D01*
X187037217Y-102134990D02*
X187075312Y-102173085D01*
X187075312Y-102173085D02*
X187113408Y-102249276D01*
X187113408Y-102249276D02*
X187113408Y-102363561D01*
X187113408Y-102363561D02*
X187075312Y-102439752D01*
X187075312Y-102439752D02*
X187037217Y-102477847D01*
X187037217Y-102477847D02*
X186961027Y-102515942D01*
X186961027Y-102515942D02*
X186656265Y-102515942D01*
X187380074Y-102096895D02*
X187570550Y-102896895D01*
X187570550Y-102896895D02*
X187722931Y-102325466D01*
X187722931Y-102325466D02*
X187875312Y-102896895D01*
X187875312Y-102896895D02*
X188065789Y-102096895D01*
X188370551Y-102896895D02*
X188370551Y-102096895D01*
X188370551Y-102096895D02*
X188637217Y-102668323D01*
X188637217Y-102668323D02*
X188903884Y-102096895D01*
X188903884Y-102096895D02*
X188903884Y-102896895D01*
D11*
X156424231Y-104043116D02*
X156957565Y-104043116D01*
X156690898Y-104309783D02*
X156690898Y-103776450D01*
X157624232Y-103609783D02*
X157290898Y-103609783D01*
X157290898Y-103609783D02*
X157257565Y-103943116D01*
X157257565Y-103943116D02*
X157290898Y-103909783D01*
X157290898Y-103909783D02*
X157357565Y-103876450D01*
X157357565Y-103876450D02*
X157524232Y-103876450D01*
X157524232Y-103876450D02*
X157590898Y-103909783D01*
X157590898Y-103909783D02*
X157624232Y-103943116D01*
X157624232Y-103943116D02*
X157657565Y-104009783D01*
X157657565Y-104009783D02*
X157657565Y-104176450D01*
X157657565Y-104176450D02*
X157624232Y-104243116D01*
X157624232Y-104243116D02*
X157590898Y-104276450D01*
X157590898Y-104276450D02*
X157524232Y-104309783D01*
X157524232Y-104309783D02*
X157357565Y-104309783D01*
X157357565Y-104309783D02*
X157290898Y-104276450D01*
X157290898Y-104276450D02*
X157257565Y-104243116D01*
X157857565Y-103609783D02*
X158090899Y-104309783D01*
X158090899Y-104309783D02*
X158324232Y-103609783D01*
D13*
X83458771Y-77180092D02*
X83458771Y-76480092D01*
X83458771Y-76480092D02*
X83692105Y-76980092D01*
X83692105Y-76980092D02*
X83925438Y-76480092D01*
X83925438Y-76480092D02*
X83925438Y-77180092D01*
X84225438Y-76980092D02*
X84558771Y-76980092D01*
X84158771Y-77180092D02*
X84392105Y-76480092D01*
X84392105Y-76480092D02*
X84625438Y-77180092D01*
X84792105Y-76480092D02*
X85258771Y-77180092D01*
X85258771Y-76480092D02*
X84792105Y-77180092D01*
X85825438Y-76713425D02*
X85825438Y-77180092D01*
X85658772Y-76446759D02*
X85492105Y-76946759D01*
X85492105Y-76946759D02*
X85925438Y-76946759D01*
X86292105Y-76780092D02*
X86225439Y-76746759D01*
X86225439Y-76746759D02*
X86192105Y-76713425D01*
X86192105Y-76713425D02*
X86158772Y-76646759D01*
X86158772Y-76646759D02*
X86158772Y-76613425D01*
X86158772Y-76613425D02*
X86192105Y-76546759D01*
X86192105Y-76546759D02*
X86225439Y-76513425D01*
X86225439Y-76513425D02*
X86292105Y-76480092D01*
X86292105Y-76480092D02*
X86425439Y-76480092D01*
X86425439Y-76480092D02*
X86492105Y-76513425D01*
X86492105Y-76513425D02*
X86525439Y-76546759D01*
X86525439Y-76546759D02*
X86558772Y-76613425D01*
X86558772Y-76613425D02*
X86558772Y-76646759D01*
X86558772Y-76646759D02*
X86525439Y-76713425D01*
X86525439Y-76713425D02*
X86492105Y-76746759D01*
X86492105Y-76746759D02*
X86425439Y-76780092D01*
X86425439Y-76780092D02*
X86292105Y-76780092D01*
X86292105Y-76780092D02*
X86225439Y-76813425D01*
X86225439Y-76813425D02*
X86192105Y-76846759D01*
X86192105Y-76846759D02*
X86158772Y-76913425D01*
X86158772Y-76913425D02*
X86158772Y-77046759D01*
X86158772Y-77046759D02*
X86192105Y-77113425D01*
X86192105Y-77113425D02*
X86225439Y-77146759D01*
X86225439Y-77146759D02*
X86292105Y-77180092D01*
X86292105Y-77180092D02*
X86425439Y-77180092D01*
X86425439Y-77180092D02*
X86492105Y-77146759D01*
X86492105Y-77146759D02*
X86525439Y-77113425D01*
X86525439Y-77113425D02*
X86558772Y-77046759D01*
X86558772Y-77046759D02*
X86558772Y-76913425D01*
X86558772Y-76913425D02*
X86525439Y-76846759D01*
X86525439Y-76846759D02*
X86492105Y-76813425D01*
X86492105Y-76813425D02*
X86425439Y-76780092D01*
X87192106Y-76480092D02*
X86858772Y-76480092D01*
X86858772Y-76480092D02*
X86825439Y-76813425D01*
X86825439Y-76813425D02*
X86858772Y-76780092D01*
X86858772Y-76780092D02*
X86925439Y-76746759D01*
X86925439Y-76746759D02*
X87092106Y-76746759D01*
X87092106Y-76746759D02*
X87158772Y-76780092D01*
X87158772Y-76780092D02*
X87192106Y-76813425D01*
X87192106Y-76813425D02*
X87225439Y-76880092D01*
X87225439Y-76880092D02*
X87225439Y-77046759D01*
X87225439Y-77046759D02*
X87192106Y-77113425D01*
X87192106Y-77113425D02*
X87158772Y-77146759D01*
X87158772Y-77146759D02*
X87092106Y-77180092D01*
X87092106Y-77180092D02*
X86925439Y-77180092D01*
X86925439Y-77180092D02*
X86858772Y-77146759D01*
X86858772Y-77146759D02*
X86825439Y-77113425D01*
X83358771Y-77607053D02*
X83592105Y-78307053D01*
X83592105Y-78307053D02*
X83825438Y-77607053D01*
X84458771Y-78240386D02*
X84425438Y-78273720D01*
X84425438Y-78273720D02*
X84325438Y-78307053D01*
X84325438Y-78307053D02*
X84258771Y-78307053D01*
X84258771Y-78307053D02*
X84158771Y-78273720D01*
X84158771Y-78273720D02*
X84092105Y-78207053D01*
X84092105Y-78207053D02*
X84058771Y-78140386D01*
X84058771Y-78140386D02*
X84025438Y-78007053D01*
X84025438Y-78007053D02*
X84025438Y-77907053D01*
X84025438Y-77907053D02*
X84058771Y-77773720D01*
X84058771Y-77773720D02*
X84092105Y-77707053D01*
X84092105Y-77707053D02*
X84158771Y-77640386D01*
X84158771Y-77640386D02*
X84258771Y-77607053D01*
X84258771Y-77607053D02*
X84325438Y-77607053D01*
X84325438Y-77607053D02*
X84425438Y-77640386D01*
X84425438Y-77640386D02*
X84458771Y-77673720D01*
X85158771Y-78240386D02*
X85125438Y-78273720D01*
X85125438Y-78273720D02*
X85025438Y-78307053D01*
X85025438Y-78307053D02*
X84958771Y-78307053D01*
X84958771Y-78307053D02*
X84858771Y-78273720D01*
X84858771Y-78273720D02*
X84792105Y-78207053D01*
X84792105Y-78207053D02*
X84758771Y-78140386D01*
X84758771Y-78140386D02*
X84725438Y-78007053D01*
X84725438Y-78007053D02*
X84725438Y-77907053D01*
X84725438Y-77907053D02*
X84758771Y-77773720D01*
X84758771Y-77773720D02*
X84792105Y-77707053D01*
X84792105Y-77707053D02*
X84858771Y-77640386D01*
X84858771Y-77640386D02*
X84958771Y-77607053D01*
X84958771Y-77607053D02*
X85025438Y-77607053D01*
X85025438Y-77607053D02*
X85125438Y-77640386D01*
X85125438Y-77640386D02*
X85158771Y-77673720D01*
D10*
X121803884Y-100191466D02*
X122565789Y-100191466D01*
X122184836Y-100572419D02*
X122184836Y-99810514D01*
X123518169Y-99572419D02*
X123041979Y-99572419D01*
X123041979Y-99572419D02*
X122994360Y-100048609D01*
X122994360Y-100048609D02*
X123041979Y-100000990D01*
X123041979Y-100000990D02*
X123137217Y-99953371D01*
X123137217Y-99953371D02*
X123375312Y-99953371D01*
X123375312Y-99953371D02*
X123470550Y-100000990D01*
X123470550Y-100000990D02*
X123518169Y-100048609D01*
X123518169Y-100048609D02*
X123565788Y-100143847D01*
X123565788Y-100143847D02*
X123565788Y-100381942D01*
X123565788Y-100381942D02*
X123518169Y-100477180D01*
X123518169Y-100477180D02*
X123470550Y-100524800D01*
X123470550Y-100524800D02*
X123375312Y-100572419D01*
X123375312Y-100572419D02*
X123137217Y-100572419D01*
X123137217Y-100572419D02*
X123041979Y-100524800D01*
X123041979Y-100524800D02*
X122994360Y-100477180D01*
X123851503Y-99572419D02*
X124184836Y-100572419D01*
X124184836Y-100572419D02*
X124518169Y-99572419D01*
D11*
X161490898Y-55709783D02*
X161824231Y-55709783D01*
X161424231Y-55909783D02*
X161657565Y-55209783D01*
X161657565Y-55209783D02*
X161890898Y-55909783D01*
X162124231Y-55909783D02*
X162124231Y-55209783D01*
X162124231Y-55209783D02*
X162290898Y-55209783D01*
X162290898Y-55209783D02*
X162390898Y-55243116D01*
X162390898Y-55243116D02*
X162457565Y-55309783D01*
X162457565Y-55309783D02*
X162490898Y-55376450D01*
X162490898Y-55376450D02*
X162524231Y-55509783D01*
X162524231Y-55509783D02*
X162524231Y-55609783D01*
X162524231Y-55609783D02*
X162490898Y-55743116D01*
X162490898Y-55743116D02*
X162457565Y-55809783D01*
X162457565Y-55809783D02*
X162390898Y-55876450D01*
X162390898Y-55876450D02*
X162290898Y-55909783D01*
X162290898Y-55909783D02*
X162124231Y-55909783D01*
X163224231Y-55843116D02*
X163190898Y-55876450D01*
X163190898Y-55876450D02*
X163090898Y-55909783D01*
X163090898Y-55909783D02*
X163024231Y-55909783D01*
X163024231Y-55909783D02*
X162924231Y-55876450D01*
X162924231Y-55876450D02*
X162857565Y-55809783D01*
X162857565Y-55809783D02*
X162824231Y-55743116D01*
X162824231Y-55743116D02*
X162790898Y-55609783D01*
X162790898Y-55609783D02*
X162790898Y-55509783D01*
X162790898Y-55509783D02*
X162824231Y-55376450D01*
X162824231Y-55376450D02*
X162857565Y-55309783D01*
X162857565Y-55309783D02*
X162924231Y-55243116D01*
X162924231Y-55243116D02*
X163024231Y-55209783D01*
X163024231Y-55209783D02*
X163090898Y-55209783D01*
X163090898Y-55209783D02*
X163190898Y-55243116D01*
X163190898Y-55243116D02*
X163224231Y-55276450D01*
X163490898Y-55276450D02*
X163524231Y-55243116D01*
X163524231Y-55243116D02*
X163590898Y-55209783D01*
X163590898Y-55209783D02*
X163757565Y-55209783D01*
X163757565Y-55209783D02*
X163824231Y-55243116D01*
X163824231Y-55243116D02*
X163857565Y-55276450D01*
X163857565Y-55276450D02*
X163890898Y-55343116D01*
X163890898Y-55343116D02*
X163890898Y-55409783D01*
X163890898Y-55409783D02*
X163857565Y-55509783D01*
X163857565Y-55509783D02*
X163457565Y-55909783D01*
X163457565Y-55909783D02*
X163890898Y-55909783D01*
X164024232Y-55976450D02*
X164557565Y-55976450D01*
X164657565Y-55209783D02*
X165090898Y-55209783D01*
X165090898Y-55209783D02*
X164857565Y-55476450D01*
X164857565Y-55476450D02*
X164957565Y-55476450D01*
X164957565Y-55476450D02*
X165024231Y-55509783D01*
X165024231Y-55509783D02*
X165057565Y-55543116D01*
X165057565Y-55543116D02*
X165090898Y-55609783D01*
X165090898Y-55609783D02*
X165090898Y-55776450D01*
X165090898Y-55776450D02*
X165057565Y-55843116D01*
X165057565Y-55843116D02*
X165024231Y-55876450D01*
X165024231Y-55876450D02*
X164957565Y-55909783D01*
X164957565Y-55909783D02*
X164757565Y-55909783D01*
X164757565Y-55909783D02*
X164690898Y-55876450D01*
X164690898Y-55876450D02*
X164657565Y-55843116D01*
D10*
X66408104Y-102356265D02*
X67208104Y-102356265D01*
X67208104Y-102356265D02*
X66408104Y-102813408D01*
X66408104Y-102813408D02*
X67208104Y-102813408D01*
X66484295Y-103651503D02*
X66446200Y-103613407D01*
X66446200Y-103613407D02*
X66408104Y-103499122D01*
X66408104Y-103499122D02*
X66408104Y-103422931D01*
X66408104Y-103422931D02*
X66446200Y-103308645D01*
X66446200Y-103308645D02*
X66522390Y-103232455D01*
X66522390Y-103232455D02*
X66598580Y-103194360D01*
X66598580Y-103194360D02*
X66750961Y-103156264D01*
X66750961Y-103156264D02*
X66865247Y-103156264D01*
X66865247Y-103156264D02*
X67017628Y-103194360D01*
X67017628Y-103194360D02*
X67093819Y-103232455D01*
X67093819Y-103232455D02*
X67170009Y-103308645D01*
X67170009Y-103308645D02*
X67208104Y-103422931D01*
X67208104Y-103422931D02*
X67208104Y-103499122D01*
X67208104Y-103499122D02*
X67170009Y-103613407D01*
X67170009Y-103613407D02*
X67131914Y-103651503D01*
X199813408Y-57620704D02*
X199775312Y-57658800D01*
X199775312Y-57658800D02*
X199661027Y-57696895D01*
X199661027Y-57696895D02*
X199584836Y-57696895D01*
X199584836Y-57696895D02*
X199470550Y-57658800D01*
X199470550Y-57658800D02*
X199394360Y-57582609D01*
X199394360Y-57582609D02*
X199356265Y-57506419D01*
X199356265Y-57506419D02*
X199318169Y-57354038D01*
X199318169Y-57354038D02*
X199318169Y-57239752D01*
X199318169Y-57239752D02*
X199356265Y-57087371D01*
X199356265Y-57087371D02*
X199394360Y-57011180D01*
X199394360Y-57011180D02*
X199470550Y-56934990D01*
X199470550Y-56934990D02*
X199584836Y-56896895D01*
X199584836Y-56896895D02*
X199661027Y-56896895D01*
X199661027Y-56896895D02*
X199775312Y-56934990D01*
X199775312Y-56934990D02*
X199813408Y-56973085D01*
X200308646Y-56896895D02*
X200461027Y-56896895D01*
X200461027Y-56896895D02*
X200537217Y-56934990D01*
X200537217Y-56934990D02*
X200613408Y-57011180D01*
X200613408Y-57011180D02*
X200651503Y-57163561D01*
X200651503Y-57163561D02*
X200651503Y-57430228D01*
X200651503Y-57430228D02*
X200613408Y-57582609D01*
X200613408Y-57582609D02*
X200537217Y-57658800D01*
X200537217Y-57658800D02*
X200461027Y-57696895D01*
X200461027Y-57696895D02*
X200308646Y-57696895D01*
X200308646Y-57696895D02*
X200232455Y-57658800D01*
X200232455Y-57658800D02*
X200156265Y-57582609D01*
X200156265Y-57582609D02*
X200118169Y-57430228D01*
X200118169Y-57430228D02*
X200118169Y-57163561D01*
X200118169Y-57163561D02*
X200156265Y-57011180D01*
X200156265Y-57011180D02*
X200232455Y-56934990D01*
X200232455Y-56934990D02*
X200308646Y-56896895D01*
X200994360Y-57696895D02*
X200994360Y-56896895D01*
X200994360Y-56896895D02*
X201261026Y-57468323D01*
X201261026Y-57468323D02*
X201527693Y-56896895D01*
X201527693Y-56896895D02*
X201527693Y-57696895D01*
D12*
X84766905Y-110354819D02*
X84766905Y-109354819D01*
X84766905Y-109354819D02*
X85005000Y-109354819D01*
X85005000Y-109354819D02*
X85147857Y-109402438D01*
X85147857Y-109402438D02*
X85243095Y-109497676D01*
X85243095Y-109497676D02*
X85290714Y-109592914D01*
X85290714Y-109592914D02*
X85338333Y-109783390D01*
X85338333Y-109783390D02*
X85338333Y-109926247D01*
X85338333Y-109926247D02*
X85290714Y-110116723D01*
X85290714Y-110116723D02*
X85243095Y-110211961D01*
X85243095Y-110211961D02*
X85147857Y-110307200D01*
X85147857Y-110307200D02*
X85005000Y-110354819D01*
X85005000Y-110354819D02*
X84766905Y-110354819D01*
X86195476Y-109688152D02*
X86195476Y-110354819D01*
X85957381Y-109307200D02*
X85719286Y-110021485D01*
X85719286Y-110021485D02*
X86338333Y-110021485D01*
X95253095Y-111154819D02*
X95253095Y-110154819D01*
X95824523Y-111154819D02*
X95395952Y-110583390D01*
X95824523Y-110154819D02*
X95253095Y-110726247D01*
X190104819Y-91046903D02*
X189104819Y-91046903D01*
X190104819Y-90475475D02*
X189533390Y-90904046D01*
X189104819Y-90475475D02*
X189676247Y-91046903D01*
D14*
%TO.C,J20*%
X143615000Y-91880000D02*
X153995000Y-91880000D01*
X143615000Y-94530000D02*
X143615000Y-91880000D01*
X143615000Y-97180000D02*
X143615000Y-95800000D01*
X144995000Y-97180000D02*
X143615000Y-97180000D01*
X146265000Y-94530000D02*
X143615000Y-94530000D01*
X146265000Y-97180000D02*
X146265000Y-94530000D01*
X146265000Y-97180000D02*
X153995000Y-97180000D01*
X153995000Y-97180000D02*
X153995000Y-91880000D01*
D10*
%TO.C,D11*%
X166450000Y-90060000D02*
G75*
G02*
X166350000Y-90060000I-50000J0D01*
G01*
X166350000Y-90060000D02*
G75*
G02*
X166450000Y-90060000I50000J0D01*
G01*
%TO.C,D3*%
X99915000Y-106000000D02*
G75*
G02*
X99815000Y-106000000I-50000J0D01*
G01*
X99815000Y-106000000D02*
G75*
G02*
X99915000Y-106000000I50000J0D01*
G01*
D14*
%TO.C,J30*%
X114005000Y-67607500D02*
X121445000Y-67607500D01*
X114005000Y-77647500D02*
X114005000Y-67607500D01*
X122045000Y-67607500D02*
X124405000Y-67607500D01*
X124405000Y-67607500D02*
X124405000Y-77647500D01*
X124405000Y-68227500D02*
X114005000Y-68227500D01*
X124405000Y-69727500D02*
X114005000Y-69727500D01*
X124405000Y-74627500D02*
X114005000Y-74627500D01*
X124405000Y-77647500D02*
X114005000Y-77647500D01*
X121745000Y-67607500D02*
X121305000Y-66997500D01*
X122185000Y-66997500D01*
X121745000Y-67607500D01*
G36*
X121745000Y-67607500D02*
G01*
X121305000Y-66997500D01*
X122185000Y-66997500D01*
X121745000Y-67607500D01*
G37*
%TO.C,J1*%
X158820000Y-107540000D02*
X158820000Y-99810000D01*
X161580000Y-99810000D02*
X158820000Y-99810000D01*
X161580000Y-107540000D02*
X158820000Y-107540000D01*
X161580000Y-107540000D02*
X161580000Y-99810000D01*
X161580000Y-108810000D02*
X161580000Y-110190000D01*
X161580000Y-110190000D02*
X160200000Y-110190000D01*
D10*
%TO.C,D5*%
X190660000Y-95290000D02*
G75*
G02*
X190560000Y-95290000I-50000J0D01*
G01*
X190560000Y-95290000D02*
G75*
G02*
X190660000Y-95290000I50000J0D01*
G01*
D14*
%TO.C,J4*%
X68830000Y-63140000D02*
X78870000Y-63140000D01*
X68830000Y-65500000D02*
X68830000Y-63140000D01*
X68830000Y-83700000D02*
X68830000Y-66100000D01*
X69450000Y-63140000D02*
X69450000Y-83700000D01*
X70950000Y-63140000D02*
X70950000Y-83700000D01*
X75850000Y-63140000D02*
X75850000Y-83700000D01*
X78870000Y-63140000D02*
X78870000Y-83700000D01*
X78870000Y-83700000D02*
X68830000Y-83700000D01*
X68830000Y-65800000D02*
X68220000Y-66240000D01*
X68220000Y-65360000D01*
X68830000Y-65800000D01*
G36*
X68830000Y-65800000D02*
G01*
X68220000Y-66240000D01*
X68220000Y-65360000D01*
X68830000Y-65800000D01*
G37*
%TO.C,J16*%
X171720000Y-99950000D02*
X173100000Y-99950000D01*
X171720000Y-101330000D02*
X171720000Y-99950000D01*
X171720000Y-102600000D02*
X171720000Y-110330000D01*
X171720000Y-102600000D02*
X174480000Y-102600000D01*
X171720000Y-110330000D02*
X174480000Y-110330000D01*
X174480000Y-102600000D02*
X174480000Y-110330000D01*
%TO.C,D8*%
X130780000Y-95322500D02*
X130780000Y-98622500D01*
X130780000Y-95322500D02*
X136290000Y-95322500D01*
X130780000Y-98622500D02*
X136290000Y-98622500D01*
%TO.C,J11*%
X93275000Y-79455000D02*
X93275000Y-76805000D01*
X96035000Y-76805000D02*
X93275000Y-76805000D01*
X96035000Y-79455000D02*
X93275000Y-79455000D01*
X96035000Y-79455000D02*
X96035000Y-76805000D01*
X96035000Y-80725000D02*
X96035000Y-82105000D01*
X96035000Y-82105000D02*
X94655000Y-82105000D01*
%TO.C,D9*%
X144345000Y-100272500D02*
X144345000Y-103572500D01*
X144345000Y-100272500D02*
X149855000Y-100272500D01*
X144345000Y-103572500D02*
X149855000Y-103572500D01*
%TO.C,J8*%
X136145000Y-54720000D02*
X136145000Y-60020000D01*
X143875000Y-54720000D02*
X136145000Y-54720000D01*
X143875000Y-54720000D02*
X143875000Y-57370000D01*
X143875000Y-57370000D02*
X146525000Y-57370000D01*
X145145000Y-54720000D02*
X146525000Y-54720000D01*
X146525000Y-54720000D02*
X146525000Y-56100000D01*
X146525000Y-57370000D02*
X146525000Y-60020000D01*
X146525000Y-60020000D02*
X136145000Y-60020000D01*
%TO.C,J27*%
X117025000Y-93020000D02*
X118405000Y-93020000D01*
X117025000Y-94400000D02*
X117025000Y-93020000D01*
X117025000Y-95670000D02*
X117025000Y-95780000D01*
X117025000Y-95670000D02*
X119785000Y-95670000D01*
X117025000Y-95780000D02*
X119785000Y-95780000D01*
X119785000Y-95670000D02*
X119785000Y-95780000D01*
%TO.C,J22*%
X118346250Y-98850000D02*
X119726250Y-98850000D01*
X118346250Y-100230000D02*
X118346250Y-98850000D01*
X118346250Y-101500000D02*
X118346250Y-109230000D01*
X118346250Y-101500000D02*
X121106250Y-101500000D01*
X118346250Y-109230000D02*
X121106250Y-109230000D01*
X121106250Y-101500000D02*
X121106250Y-109230000D01*
%TO.C,D4*%
X88985000Y-107330000D02*
X88985000Y-107660000D01*
X88985000Y-110270000D02*
X88985000Y-109940000D01*
X93405000Y-110270000D02*
X93405000Y-107330000D01*
X93525000Y-110270000D02*
X93525000Y-107330000D01*
X93645000Y-110270000D02*
X93645000Y-107330000D01*
X94425000Y-107330000D02*
X88985000Y-107330000D01*
X94425000Y-107660000D02*
X94425000Y-107330000D01*
X94425000Y-109940000D02*
X94425000Y-110270000D01*
X94425000Y-110270000D02*
X88985000Y-110270000D01*
%TO.C,J29*%
X172580000Y-93680000D02*
X172580000Y-92300000D01*
X173960000Y-93680000D02*
X172580000Y-93680000D01*
X175230000Y-90920000D02*
X177880000Y-90920000D01*
X175230000Y-93680000D02*
X175230000Y-90920000D01*
X175230000Y-93680000D02*
X177880000Y-93680000D01*
X177880000Y-93680000D02*
X177880000Y-90920000D01*
D15*
%TO.C,U2*%
X93273000Y-74918400D02*
G75*
G02*
X92985800Y-74918400I-143600J0D01*
G01*
X92985800Y-74918400D02*
G75*
G02*
X93273000Y-74918400I143600J0D01*
G01*
D14*
%TO.C,J3*%
X79975000Y-75700000D02*
X79975000Y-67970000D01*
X82735000Y-67970000D02*
X79975000Y-67970000D01*
X82735000Y-75700000D02*
X79975000Y-75700000D01*
X82735000Y-75700000D02*
X82735000Y-67970000D01*
X82735000Y-76970000D02*
X82735000Y-78350000D01*
X82735000Y-78350000D02*
X81355000Y-78350000D01*
D10*
%TO.C,D1*%
X90700000Y-68950000D02*
G75*
G02*
X90600000Y-68950000I-50000J0D01*
G01*
X90600000Y-68950000D02*
G75*
G02*
X90700000Y-68950000I50000J0D01*
G01*
D14*
%TO.C,J26*%
X183170000Y-104590000D02*
X183170000Y-103210000D01*
X184550000Y-104590000D02*
X183170000Y-104590000D01*
X185820000Y-101830000D02*
X185930000Y-101830000D01*
X185820000Y-104590000D02*
X185820000Y-101830000D01*
X185820000Y-104590000D02*
X185930000Y-104590000D01*
X185930000Y-104590000D02*
X185930000Y-101830000D01*
D16*
%TO.C,K2*%
X185000000Y-69760000D02*
X200500000Y-69760000D01*
X185000000Y-88860000D02*
X185000000Y-69760000D01*
X200500000Y-69760000D02*
X200500000Y-88860000D01*
X200500000Y-88860000D02*
X185000000Y-88860000D01*
D17*
X186731000Y-89510000D02*
G75*
G02*
X186531000Y-89510000I-100000J0D01*
G01*
X186531000Y-89510000D02*
G75*
G02*
X186731000Y-89510000I100000J0D01*
G01*
D14*
%TO.C,J2*%
X98008800Y-68735000D02*
X99388800Y-68735000D01*
X98008800Y-70115000D02*
X98008800Y-68735000D01*
X98008800Y-71385000D02*
X98008800Y-79115000D01*
X98008800Y-71385000D02*
X100768800Y-71385000D01*
X98008800Y-79115000D02*
X100768800Y-79115000D01*
X100768800Y-71385000D02*
X100768800Y-79115000D01*
D10*
%TO.C,D2*%
X106570000Y-101700000D02*
G75*
G02*
X106470000Y-101700000I-50000J0D01*
G01*
X106470000Y-101700000D02*
G75*
G02*
X106570000Y-101700000I50000J0D01*
G01*
D14*
%TO.C,J5*%
X196445000Y-114280000D02*
X196445000Y-112900000D01*
X197825000Y-114280000D02*
X196445000Y-114280000D01*
X199095000Y-111520000D02*
X201745000Y-111520000D01*
X199095000Y-114280000D02*
X199095000Y-111520000D01*
X199095000Y-114280000D02*
X201745000Y-114280000D01*
X201745000Y-114280000D02*
X201745000Y-111520000D01*
D10*
%TO.C,D6*%
X186250000Y-90694999D02*
G75*
G02*
X186150000Y-90694999I-50000J0D01*
G01*
X186150000Y-90694999D02*
G75*
G02*
X186250000Y-90694999I50000J0D01*
G01*
D14*
%TO.C,J24*%
X156680000Y-56620000D02*
X156680000Y-59380000D01*
X161870000Y-56620000D02*
X156680000Y-56620000D01*
X161870000Y-56620000D02*
X161870000Y-59380000D01*
X161870000Y-59380000D02*
X156680000Y-59380000D01*
X163140000Y-56620000D02*
X164520000Y-56620000D01*
X164520000Y-56620000D02*
X164520000Y-58000000D01*
D16*
%TO.C,U4*%
X196530000Y-91384999D02*
X196690000Y-91384999D01*
X196530000Y-95784999D02*
X196530000Y-91384999D01*
X196690000Y-95784999D02*
X196530000Y-95784999D01*
X200630000Y-91384999D02*
X200470000Y-91384999D01*
X200630000Y-91384999D02*
X200630000Y-95784999D01*
X200630000Y-95784999D02*
X200470000Y-95784999D01*
D18*
X197410000Y-98128999D02*
G75*
G02*
X197210000Y-98128999I-100000J0D01*
G01*
X197210000Y-98128999D02*
G75*
G02*
X197410000Y-98128999I100000J0D01*
G01*
D14*
%TO.C,J9*%
X201570000Y-89830000D02*
X202950000Y-89830000D01*
X201570000Y-91210000D02*
X201570000Y-89830000D01*
X201570000Y-92480000D02*
X201570000Y-97670000D01*
X201570000Y-92480000D02*
X204330000Y-92480000D01*
X201570000Y-97670000D02*
X204330000Y-97670000D01*
X204330000Y-92480000D02*
X204330000Y-97670000D01*
%TO.C,J25*%
X131185000Y-93580000D02*
X131185000Y-92200000D01*
X132565000Y-93580000D02*
X131185000Y-93580000D01*
X133835000Y-90820000D02*
X139025000Y-90820000D01*
X133835000Y-93580000D02*
X133835000Y-90820000D01*
X133835000Y-93580000D02*
X139025000Y-93580000D01*
X139025000Y-93580000D02*
X139025000Y-90820000D01*
%TO.C,J14*%
X106925000Y-103770000D02*
X106925000Y-98580000D01*
X109685000Y-98580000D02*
X106925000Y-98580000D01*
X109685000Y-103770000D02*
X106925000Y-103770000D01*
X109685000Y-103770000D02*
X109685000Y-98580000D01*
X109685000Y-105040000D02*
X109685000Y-106420000D01*
X109685000Y-106420000D02*
X108305000Y-106420000D01*
%TO.C,J12*%
X193570000Y-101490000D02*
X193570000Y-100110000D01*
X194950000Y-101490000D02*
X193570000Y-101490000D01*
X196220000Y-98730000D02*
X201410000Y-98730000D01*
X196220000Y-101490000D02*
X196220000Y-98730000D01*
X196220000Y-101490000D02*
X201410000Y-101490000D01*
X201410000Y-101490000D02*
X201410000Y-98730000D01*
%TO.C,J17*%
X196480000Y-109180000D02*
X196480000Y-107800000D01*
X197860000Y-109180000D02*
X196480000Y-109180000D01*
X199130000Y-106420000D02*
X204320000Y-106420000D01*
X199130000Y-109180000D02*
X199130000Y-106420000D01*
X199130000Y-109180000D02*
X204320000Y-109180000D01*
X204320000Y-109180000D02*
X204320000Y-106420000D01*
%TO.C,J21*%
X104315000Y-84480000D02*
X104315000Y-83100000D01*
X105695000Y-84480000D02*
X104315000Y-84480000D01*
X106965000Y-81720000D02*
X114695000Y-81720000D01*
X106965000Y-84480000D02*
X106965000Y-81720000D01*
X106965000Y-84480000D02*
X114695000Y-84480000D01*
X114695000Y-84480000D02*
X114695000Y-81720000D01*
%TO.C,J6*%
X68512500Y-95555000D02*
X78552500Y-95555000D01*
X68512500Y-97915000D02*
X68512500Y-95555000D01*
X68512500Y-111035000D02*
X68512500Y-98515000D01*
X69132500Y-95555000D02*
X69132500Y-111035000D01*
X70632500Y-95555000D02*
X70632500Y-111035000D01*
X75532500Y-95555000D02*
X75532500Y-111035000D01*
X78552500Y-95555000D02*
X78552500Y-111035000D01*
X78552500Y-111035000D02*
X68512500Y-111035000D01*
X68512500Y-98215000D02*
X67902500Y-98655000D01*
X67902500Y-97775000D01*
X68512500Y-98215000D01*
G36*
X68512500Y-98215000D02*
G01*
X67902500Y-98655000D01*
X67902500Y-97775000D01*
X68512500Y-98215000D01*
G37*
%TO.C,Q4*%
X119190000Y-79190000D02*
X120710000Y-79190000D01*
X119190000Y-79240000D02*
X119190000Y-79190000D01*
X119190000Y-81140000D02*
X119190000Y-80360000D01*
X119190000Y-82310000D02*
X119190000Y-82260000D01*
X120710000Y-79190000D02*
X120710000Y-80190000D01*
X120710000Y-81310000D02*
X120710000Y-82310000D01*
X120710000Y-82310000D02*
X119190000Y-82310000D01*
X118890000Y-80700000D02*
X118410000Y-80700000D01*
X118650000Y-80370000D01*
X118890000Y-80700000D01*
G36*
X118890000Y-80700000D02*
G01*
X118410000Y-80700000D01*
X118650000Y-80370000D01*
X118890000Y-80700000D01*
G37*
%TO.C,J7*%
X100825000Y-92680000D02*
X100825000Y-91300000D01*
X102205000Y-92680000D02*
X100825000Y-92680000D01*
X103475000Y-89920000D02*
X108665000Y-89920000D01*
X103475000Y-92680000D02*
X103475000Y-89920000D01*
X103475000Y-92680000D02*
X108665000Y-92680000D01*
X108665000Y-92680000D02*
X108665000Y-89920000D01*
D19*
%TO.C,IC1*%
X165100000Y-104970000D02*
X168100000Y-104970000D01*
X165100000Y-109970000D02*
X165100000Y-104970000D01*
X168100000Y-104970000D02*
X168100000Y-109970000D01*
X168100000Y-109970000D02*
X165100000Y-109970000D01*
X165041418Y-105070000D02*
G75*
G02*
X164758582Y-105070000I-141418J0D01*
G01*
X164758582Y-105070000D02*
G75*
G02*
X165041418Y-105070000I141418J0D01*
G01*
D14*
%TO.C,J18*%
X142195000Y-104152500D02*
X152595000Y-104152500D01*
X142195000Y-107172500D02*
X152595000Y-107172500D01*
X142195000Y-112072500D02*
X152595000Y-112072500D01*
X142195000Y-113572500D02*
X152595000Y-113572500D01*
X142195000Y-114192500D02*
X142195000Y-104152500D01*
X144555000Y-114192500D02*
X142195000Y-114192500D01*
X152595000Y-104152500D02*
X152595000Y-114192500D01*
X152595000Y-114192500D02*
X145155000Y-114192500D01*
X145295000Y-114802500D02*
X144415000Y-114802500D01*
X144855000Y-114192500D01*
X145295000Y-114802500D01*
G36*
X145295000Y-114802500D02*
G01*
X144415000Y-114802500D01*
X144855000Y-114192500D01*
X145295000Y-114802500D01*
G37*
%TO.C,J28*%
X166670000Y-56670000D02*
X168050000Y-56670000D01*
X166670000Y-58050000D02*
X166670000Y-56670000D01*
X166670000Y-59320000D02*
X166670000Y-59430000D01*
X166670000Y-59320000D02*
X169430000Y-59320000D01*
X166670000Y-59430000D02*
X169430000Y-59430000D01*
X169430000Y-59320000D02*
X169430000Y-59430000D01*
D16*
%TO.C,U3*%
X127130000Y-61320000D02*
X127130000Y-66690000D01*
X127130000Y-61320000D02*
X178080000Y-61320000D01*
X127130000Y-61320000D02*
X178080000Y-61320000D01*
X127130000Y-66690000D02*
X127130000Y-84380000D01*
X127130000Y-84380000D02*
X127130000Y-89830000D01*
X127130000Y-89830000D02*
X127130000Y-61320000D01*
X178080000Y-61320000D02*
X178080000Y-72389000D01*
X178080000Y-61320000D02*
X178080000Y-89830000D01*
X178080000Y-72389000D02*
X178080000Y-79100000D01*
X178080000Y-79100000D02*
X178080000Y-89830000D01*
X178080000Y-89830000D02*
X127130000Y-89830000D01*
X178080000Y-89830000D02*
X127130000Y-89830000D01*
D18*
X168220000Y-60750000D02*
G75*
G02*
X168020000Y-60750000I-100000J0D01*
G01*
X168020000Y-60750000D02*
G75*
G02*
X168220000Y-60750000I100000J0D01*
G01*
D14*
%TO.C,D7*%
X186280000Y-91874999D02*
X186280000Y-97314999D01*
X186280000Y-97314999D02*
X186610000Y-97314999D01*
X186610000Y-91874999D02*
X186280000Y-91874999D01*
X188890000Y-91874999D02*
X189220000Y-91874999D01*
X189220000Y-91874999D02*
X189220000Y-97314999D01*
X189220000Y-92654999D02*
X186280000Y-92654999D01*
X189220000Y-92774999D02*
X186280000Y-92774999D01*
X189220000Y-92894999D02*
X186280000Y-92894999D01*
X189220000Y-97314999D02*
X188890000Y-97314999D01*
D16*
%TO.C,K1*%
X79855000Y-91150000D02*
X98955000Y-91150000D01*
X79855000Y-106650000D02*
X79855000Y-91150000D01*
X98955000Y-91150000D02*
X98955000Y-106650000D01*
X98955000Y-106650000D02*
X79855000Y-106650000D01*
D17*
X99705000Y-105019000D02*
G75*
G02*
X99505000Y-105019000I-100000J0D01*
G01*
X99505000Y-105019000D02*
G75*
G02*
X99705000Y-105019000I100000J0D01*
G01*
D14*
%TO.C,J15*%
X70645000Y-91520000D02*
X70645000Y-94280000D01*
X75835000Y-91520000D02*
X70645000Y-91520000D01*
X75835000Y-91520000D02*
X75835000Y-94280000D01*
X75835000Y-94280000D02*
X70645000Y-94280000D01*
X77105000Y-91520000D02*
X78485000Y-91520000D01*
X78485000Y-91520000D02*
X78485000Y-92900000D01*
D10*
%TO.C,D10*%
X158490000Y-91200000D02*
G75*
G02*
X158390000Y-91200000I-50000J0D01*
G01*
X158390000Y-91200000D02*
G75*
G02*
X158490000Y-91200000I50000J0D01*
G01*
D14*
%TO.C,J13*%
X201270000Y-71730000D02*
X202650000Y-71730000D01*
X201270000Y-73110000D02*
X201270000Y-71730000D01*
X201270000Y-74380000D02*
X201270000Y-79570000D01*
X201270000Y-74380000D02*
X204030000Y-74380000D01*
X201270000Y-79570000D02*
X204030000Y-79570000D01*
X204030000Y-74380000D02*
X204030000Y-79570000D01*
%TO.C,Q1*%
X100335000Y-104450000D02*
X103935000Y-104450000D01*
X100296522Y-104438478D02*
G75*
G02*
X102135000Y-99999999I1838478J1838478D01*
G01*
X102135000Y-100000000D02*
G75*
G02*
X103973478Y-104438478I0J-2600000D01*
G01*
%TO.C,J23*%
X156225000Y-92420000D02*
X157605000Y-92420000D01*
X156225000Y-93800000D02*
X156225000Y-92420000D01*
X156225000Y-95070000D02*
X156225000Y-95180000D01*
X156225000Y-95070000D02*
X158985000Y-95070000D01*
X156225000Y-95180000D02*
X158985000Y-95180000D01*
X158985000Y-95070000D02*
X158985000Y-95180000D01*
%TO.C,J10*%
X187480000Y-58730000D02*
X200000000Y-58730000D01*
X187480000Y-68770000D02*
X187480000Y-58730000D01*
X200600000Y-58730000D02*
X202960000Y-58730000D01*
X202960000Y-58730000D02*
X202960000Y-68770000D01*
X202960000Y-59350000D02*
X187480000Y-59350000D01*
X202960000Y-60850000D02*
X187480000Y-60850000D01*
X202960000Y-65750000D02*
X187480000Y-65750000D01*
X202960000Y-68770000D02*
X187480000Y-68770000D01*
X200300000Y-58730000D02*
X199860000Y-58120000D01*
X200740000Y-58120000D01*
X200300000Y-58730000D01*
G36*
X200300000Y-58730000D02*
G01*
X199860000Y-58120000D01*
X200740000Y-58120000D01*
X200300000Y-58730000D01*
G37*
%TO.C,J19*%
X129440000Y-99272500D02*
X129440000Y-100572500D01*
X129740000Y-99572500D02*
X131740000Y-99572500D01*
X129740000Y-114072500D02*
X129740000Y-99572500D01*
X131140000Y-99272500D02*
X129440000Y-99272500D01*
X136940000Y-99572500D02*
X138940000Y-99572500D01*
X138940000Y-99572500D02*
X138940000Y-100872500D01*
X138940000Y-105472500D02*
X138940000Y-114072500D01*
X138940000Y-114072500D02*
X129740000Y-114072500D01*
D16*
%TO.C,U1*%
X102733000Y-93550000D02*
X102733000Y-93710000D01*
X102733000Y-93550000D02*
X107133000Y-93550000D01*
X102733000Y-97650000D02*
X102733000Y-97490000D01*
X107133000Y-93550000D02*
X107133000Y-93710000D01*
X107133000Y-97490000D02*
X107133000Y-97650000D01*
X107133000Y-97650000D02*
X102733000Y-97650000D01*
D18*
X109577000Y-96870000D02*
G75*
G02*
X109377000Y-96870000I-100000J0D01*
G01*
X109377000Y-96870000D02*
G75*
G02*
X109577000Y-96870000I100000J0D01*
G01*
D14*
%TO.C,Q2*%
X189730000Y-90584999D02*
X189730000Y-94184999D01*
X189741522Y-90546521D02*
G75*
G02*
X194180001Y-92384999I1838478J-1838478D01*
G01*
X194180000Y-92384999D02*
G75*
G02*
X189741522Y-94223477I-2600000J0D01*
G01*
%TD*%
%LPC*%
D20*
%TO.C,C1*%
X169090000Y-107560000D03*
X169090000Y-106920000D03*
%TD*%
%TO.C,R19*%
X195800000Y-91020000D03*
X195800000Y-90380000D03*
%TD*%
D21*
%TO.C,J20*%
X144995000Y-95800000D03*
D22*
X144995000Y-93260000D03*
X147535000Y-95800000D03*
X147535000Y-93260000D03*
X150075000Y-95800000D03*
X150075000Y-93260000D03*
X152615000Y-95800000D03*
X152615000Y-93260000D03*
%TD*%
D23*
%TO.C,D11*%
X166400000Y-90600000D03*
X166400000Y-91240000D03*
%TD*%
D24*
%TO.C,D3*%
X100405000Y-106000000D03*
X101045000Y-106000000D03*
%TD*%
D23*
%TO.C,R13*%
X109605000Y-96235000D03*
X109605000Y-96875000D03*
%TD*%
D24*
%TO.C,R22*%
X157265000Y-90500000D03*
X157905000Y-90500000D03*
%TD*%
D23*
%TO.C,R27*%
X117487500Y-81230000D03*
X117487500Y-81870000D03*
%TD*%
D25*
%TO.C,J30*%
X121745000Y-72327500D03*
D26*
X116665000Y-72327500D03*
%TD*%
D21*
%TO.C,J1*%
X160200000Y-108810000D03*
D22*
X160200000Y-106270000D03*
X160200000Y-103730000D03*
X160200000Y-101190000D03*
%TD*%
D23*
%TO.C,D5*%
X190610000Y-95830000D03*
X190610000Y-96470000D03*
%TD*%
D20*
%TO.C,R5*%
X97088800Y-73180000D03*
X97088800Y-72540000D03*
%TD*%
D27*
%TO.C,REF\u002A\u002A*%
X68300000Y-56750000D03*
%TD*%
%TO.C,REF\u002A\u002A*%
X206900000Y-56150000D03*
%TD*%
D28*
%TO.C,J4*%
X73550000Y-65800000D03*
D26*
X73550000Y-70880000D03*
X73550000Y-75960000D03*
X73550000Y-81040000D03*
%TD*%
D20*
%TO.C,R6*%
X96388800Y-73185000D03*
X96388800Y-72545000D03*
%TD*%
D21*
%TO.C,J16*%
X173100000Y-101330000D03*
D22*
X173100000Y-103870000D03*
X173100000Y-106410000D03*
X173100000Y-108950000D03*
%TD*%
D23*
%TO.C,R25*%
X117500000Y-79530000D03*
X117500000Y-80170000D03*
%TD*%
D29*
%TO.C,D8*%
X132290000Y-96972500D03*
X136290000Y-96972500D03*
%TD*%
D21*
%TO.C,J11*%
X94655000Y-80725000D03*
D22*
X94655000Y-78185000D03*
%TD*%
D20*
%TO.C,R11*%
X87638800Y-73435000D03*
X87638800Y-72795000D03*
%TD*%
D29*
%TO.C,D9*%
X145855000Y-101922500D03*
X149855000Y-101922500D03*
%TD*%
D21*
%TO.C,J8*%
X145145000Y-56100000D03*
D22*
X145145000Y-58640000D03*
X142605000Y-56100000D03*
X142605000Y-58640000D03*
X140065000Y-56100000D03*
X140065000Y-58640000D03*
X137525000Y-56100000D03*
X137525000Y-58640000D03*
%TD*%
D21*
%TO.C,J27*%
X118405000Y-94400000D03*
%TD*%
%TO.C,J22*%
X119726250Y-100230000D03*
D22*
X119726250Y-102770000D03*
X119726250Y-105310000D03*
X119726250Y-107850000D03*
%TD*%
D30*
%TO.C,D4*%
X95515000Y-108800000D03*
D31*
X87895000Y-108800000D03*
%TD*%
D27*
%TO.C,REF\u002A\u002A*%
X68350000Y-115000000D03*
%TD*%
D21*
%TO.C,J29*%
X173960000Y-92300000D03*
D22*
X176500000Y-92300000D03*
%TD*%
D32*
%TO.C,U2*%
X94755000Y-75020000D03*
X94755000Y-73750000D03*
X94755000Y-72480000D03*
X94755000Y-71210000D03*
X89522600Y-71210000D03*
X89522600Y-72480000D03*
X89522600Y-73750000D03*
X89522600Y-75020000D03*
%TD*%
D21*
%TO.C,J3*%
X81355000Y-76970000D03*
D22*
X81355000Y-74430000D03*
X81355000Y-71890000D03*
X81355000Y-69350000D03*
%TD*%
D24*
%TO.C,D1*%
X91190000Y-68950000D03*
X91830000Y-68950000D03*
%TD*%
D21*
%TO.C,J26*%
X184550000Y-103210000D03*
%TD*%
D33*
%TO.C,R24*%
X197120000Y-110400000D03*
X196480000Y-110400000D03*
%TD*%
D24*
%TO.C,R15*%
X101730000Y-99400000D03*
X102370000Y-99400000D03*
%TD*%
D34*
%TO.C,K2*%
X186750000Y-85410000D03*
D35*
X198750000Y-85410000D03*
D36*
X192750000Y-87410000D03*
D35*
X186750000Y-73210000D03*
X198750000Y-73210000D03*
%TD*%
D23*
%TO.C,R7*%
X96488800Y-70450000D03*
X96488800Y-71090000D03*
%TD*%
D21*
%TO.C,J2*%
X99388800Y-70115000D03*
D22*
X99388800Y-72655000D03*
X99388800Y-75195000D03*
X99388800Y-77735000D03*
%TD*%
D20*
%TO.C,R23*%
X155370000Y-60525000D03*
X155370000Y-59885000D03*
%TD*%
D33*
%TO.C,D2*%
X105980000Y-101700000D03*
X105340000Y-101700000D03*
%TD*%
D21*
%TO.C,J5*%
X197825000Y-112900000D03*
D22*
X200365000Y-112900000D03*
%TD*%
D33*
%TO.C,D6*%
X185660000Y-90694999D03*
X185020000Y-90694999D03*
%TD*%
D23*
%TO.C,R9*%
X87688800Y-74195000D03*
X87688800Y-74835000D03*
%TD*%
D21*
%TO.C,J24*%
X163140000Y-58000000D03*
D22*
X160600000Y-58000000D03*
X158060000Y-58000000D03*
%TD*%
D37*
%TO.C,U4*%
X197310000Y-96759999D03*
X199850000Y-96759999D03*
X199850000Y-90409999D03*
X197310000Y-90409999D03*
%TD*%
D21*
%TO.C,J9*%
X202950000Y-91210000D03*
D22*
X202950000Y-93750000D03*
X202950000Y-96290000D03*
%TD*%
D20*
%TO.C,R10*%
X86888800Y-73435000D03*
X86888800Y-72795000D03*
%TD*%
D27*
%TO.C,REF\u002A\u002A*%
X206750000Y-114950000D03*
%TD*%
D33*
%TO.C,R3*%
X164210000Y-104900000D03*
X163570000Y-104900000D03*
%TD*%
D21*
%TO.C,J25*%
X132565000Y-92200000D03*
D22*
X135105000Y-92200000D03*
X137645000Y-92200000D03*
%TD*%
D23*
%TO.C,R18*%
X195750000Y-96135000D03*
X195750000Y-96775000D03*
%TD*%
D21*
%TO.C,J14*%
X108305000Y-105040000D03*
D22*
X108305000Y-102500000D03*
X108305000Y-99960000D03*
%TD*%
D21*
%TO.C,J12*%
X194950000Y-100110000D03*
D22*
X197490000Y-100110000D03*
X200030000Y-100110000D03*
%TD*%
D21*
%TO.C,J17*%
X197860000Y-107800000D03*
D22*
X200400000Y-107800000D03*
X202940000Y-107800000D03*
%TD*%
D21*
%TO.C,J21*%
X105695000Y-83100000D03*
D22*
X108235000Y-83100000D03*
X110775000Y-83100000D03*
X113315000Y-83100000D03*
%TD*%
D28*
%TO.C,J6*%
X73232500Y-98215000D03*
D26*
X73232500Y-103295000D03*
X73232500Y-108375000D03*
%TD*%
D38*
%TO.C,Q4*%
X119012500Y-79800000D03*
X119012500Y-81700000D03*
X120887500Y-80750000D03*
%TD*%
D33*
%TO.C,C4*%
X89140000Y-66450000D03*
X88500000Y-66450000D03*
%TD*%
D21*
%TO.C,J7*%
X102205000Y-91300000D03*
D22*
X104745000Y-91300000D03*
X107285000Y-91300000D03*
%TD*%
D23*
%TO.C,R4*%
X96288800Y-74395000D03*
X96288800Y-75035000D03*
%TD*%
D39*
%TO.C,IC1*%
X165150000Y-105920000D03*
D40*
X165350000Y-106570000D03*
X165350000Y-107220000D03*
D39*
X165150000Y-107870000D03*
X165150000Y-108720000D03*
X165150000Y-109570000D03*
X168050000Y-109570000D03*
X168050000Y-108720000D03*
X168050000Y-107870000D03*
D40*
X167850000Y-107220000D03*
X167850000Y-106570000D03*
D39*
X168050000Y-105920000D03*
D41*
X167850000Y-105020000D03*
X167350000Y-105020000D03*
D42*
X166850000Y-105220000D03*
X166350000Y-105220000D03*
D41*
X165850000Y-105020000D03*
X165350000Y-105020000D03*
%TD*%
D43*
%TO.C,J18*%
X144855000Y-109472500D03*
D26*
X149935000Y-109472500D03*
%TD*%
D21*
%TO.C,J28*%
X168050000Y-58050000D03*
%TD*%
D33*
%TO.C,R1*%
X166520000Y-104170000D03*
X165880000Y-104170000D03*
%TD*%
D44*
%TO.C,U3*%
X176080000Y-63320000D03*
X129130000Y-63320000D03*
X176080000Y-87830000D03*
X129130000Y-87830000D03*
D45*
X168120000Y-62900000D03*
D46*
X165580000Y-62900000D03*
X163040000Y-62900000D03*
X160500000Y-62900000D03*
X157960000Y-62900000D03*
X155420000Y-62900000D03*
X152880000Y-62900000D03*
X150340000Y-62900000D03*
X147800000Y-62900000D03*
X145260000Y-62900000D03*
X142720000Y-62900000D03*
X140180000Y-62900000D03*
X137640000Y-62900000D03*
X135100000Y-62900000D03*
X132560000Y-62900000D03*
X132560000Y-88300000D03*
X135100000Y-88300000D03*
X137640000Y-88300000D03*
X140180000Y-88300000D03*
X142720000Y-88300000D03*
X145260000Y-88300000D03*
X147800000Y-88300000D03*
X150340000Y-88300000D03*
X152880000Y-88300000D03*
X155420000Y-88300000D03*
X157960000Y-88300000D03*
X160500000Y-88300000D03*
X163040000Y-88300000D03*
X165580000Y-88300000D03*
X168120000Y-88300000D03*
%TD*%
D24*
%TO.C,R16*%
X100380000Y-105130000D03*
X101020000Y-105130000D03*
%TD*%
D47*
%TO.C,D7*%
X187750000Y-90784999D03*
D31*
X187750000Y-98404999D03*
%TD*%
D23*
%TO.C,R17*%
X191350000Y-95835000D03*
X191350000Y-96475000D03*
%TD*%
D48*
%TO.C,K1*%
X95505000Y-104900000D03*
D35*
X95505000Y-92900000D03*
D36*
X97505000Y-98900000D03*
D35*
X83305000Y-104900000D03*
X83305000Y-92900000D03*
%TD*%
D21*
%TO.C,J15*%
X77105000Y-92900000D03*
D22*
X74565000Y-92900000D03*
X72025000Y-92900000D03*
%TD*%
D33*
%TO.C,D10*%
X157900000Y-91200000D03*
X157260000Y-91200000D03*
%TD*%
D21*
%TO.C,J13*%
X202650000Y-73110000D03*
D22*
X202650000Y-75650000D03*
X202650000Y-78190000D03*
%TD*%
D49*
%TO.C,Q1*%
X100865000Y-102600000D03*
D50*
X102135000Y-101330000D03*
X103405000Y-102600000D03*
%TD*%
D23*
%TO.C,R20*%
X194960000Y-90380000D03*
X194960000Y-91020000D03*
%TD*%
%TO.C,R26*%
X167300000Y-90600000D03*
X167300000Y-91240000D03*
%TD*%
D21*
%TO.C,J23*%
X157605000Y-93800000D03*
%TD*%
D33*
%TO.C,R21*%
X185655000Y-89984999D03*
X185015000Y-89984999D03*
%TD*%
D25*
%TO.C,J10*%
X200300000Y-63450000D03*
D26*
X195220000Y-63450000D03*
X190140000Y-63450000D03*
%TD*%
D24*
%TO.C,R8*%
X91210000Y-66450000D03*
X91850000Y-66450000D03*
%TD*%
D51*
%TO.C,J19*%
X134340000Y-100272500D03*
D52*
X134340000Y-106572500D03*
D53*
X139140000Y-103172500D03*
%TD*%
D24*
%TO.C,R2*%
X163725000Y-105820000D03*
X164365000Y-105820000D03*
%TD*%
D33*
%TO.C,R14*%
X103925000Y-99400000D03*
X103285000Y-99400000D03*
%TD*%
D54*
%TO.C,U1*%
X108108000Y-96870000D03*
X108108000Y-94330000D03*
X101758000Y-94330000D03*
X101758000Y-96870000D03*
%TD*%
D33*
%TO.C,R12*%
X105975000Y-101000000D03*
X105335000Y-101000000D03*
%TD*%
D49*
%TO.C,Q2*%
X191580000Y-91114999D03*
D50*
X192850000Y-92384999D03*
X191580000Y-93654999D03*
%TD*%
D23*
%TO.C,C2*%
X164090000Y-106670000D03*
X164090000Y-107310000D03*
%TD*%
D33*
%TO.C,C3*%
X89140000Y-68950000D03*
X88500000Y-68950000D03*
%TD*%
%LPD*%
M02*
