%TF.GenerationSoftware,KiCad,Pcbnew,9.0.7-9.0.7~ubuntu24.04.1*%
%TF.CreationDate,2026-02-15T23:13:21-05:00*%
%TF.ProjectId,plantPartner_PCB1.0,706c616e-7450-4617-9274-6e65725f5043,rev?*%
%TF.SameCoordinates,Original*%
%TF.FileFunction,Legend,Bot*%
%TF.FilePolarity,Positive*%
%FSLAX46Y46*%
G04 Gerber Fmt 4.6, Leading zero omitted, Abs format (unit mm)*
G04 Created by KiCad (PCBNEW 9.0.7-9.0.7~ubuntu24.04.1) date 2026-02-15 23:13:21*
%MOMM*%
%LPD*%
G01*
G04 APERTURE LIST*
G04 Aperture macros list*
%AMRoundRect*
0 Rectangle with rounded corners*
0 $1 Rounding radius*
0 $2 $3 $4 $5 $6 $7 $8 $9 X,Y pos of 4 corners*
0 Add a 4 corners polygon primitive as box body*
4,1,4,$2,$3,$4,$5,$6,$7,$8,$9,$2,$3,0*
0 Add four circle primitives for the rounded corners*
1,1,$1+$1,$2,$3*
1,1,$1+$1,$4,$5*
1,1,$1+$1,$6,$7*
1,1,$1+$1,$8,$9*
0 Add four rect primitives between the rounded corners*
20,1,$1+$1,$2,$3,$4,$5,0*
20,1,$1+$1,$4,$5,$6,$7,0*
20,1,$1+$1,$6,$7,$8,$9,0*
20,1,$1+$1,$8,$9,$2,$3,0*%
G04 Aperture macros list end*
%ADD10C,0.100000*%
%ADD11C,0.087500*%
%ADD12C,0.140000*%
%ADD13C,0.150000*%
%ADD14R,1.700000X1.700000*%
%ADD15C,1.700000*%
%ADD16RoundRect,0.250000X1.050000X1.050000X-1.050000X1.050000X-1.050000X-1.050000X1.050000X-1.050000X0*%
%ADD17C,2.600000*%
%ADD18C,3.200000*%
%ADD19RoundRect,0.250000X-1.050000X1.050000X-1.050000X-1.050000X1.050000X-1.050000X1.050000X1.050000X0*%
%ADD20RoundRect,0.250000X0.650000X0.650000X-0.650000X0.650000X-0.650000X-0.650000X0.650000X-0.650000X0*%
%ADD21C,1.800000*%
%ADD22RoundRect,0.102000X0.990000X-0.990000X0.990000X0.990000X-0.990000X0.990000X-0.990000X-0.990000X0*%
%ADD23C,2.184000*%
%ADD24C,2.139000*%
%ADD25RoundRect,0.250000X-1.050000X-1.050000X1.050000X-1.050000X1.050000X1.050000X-1.050000X1.050000X0*%
%ADD26C,3.000000*%
%ADD27RoundRect,0.102000X-1.000000X1.000000X-1.000000X-1.000000X1.000000X-1.000000X1.000000X1.000000X0*%
%ADD28C,2.204000*%
%ADD29RoundRect,0.250000X-0.650000X0.650000X-0.650000X-0.650000X0.650000X-0.650000X0.650000X0.650000X0*%
%ADD30RoundRect,0.102000X0.990000X0.990000X-0.990000X0.990000X-0.990000X-0.990000X0.990000X-0.990000X0*%
%ADD31R,1.300000X1.300000*%
%ADD32C,1.300000*%
%ADD33R,4.600000X2.000000*%
%ADD34O,4.200000X2.000000*%
%ADD35O,2.000000X4.200000*%
G04 APERTURE END LIST*
D10*
X65755000Y-62150000D02*
X103355000Y-62150000D01*
X103355000Y-84950000D01*
X65755000Y-84950000D01*
X65755000Y-62150000D01*
X155500000Y-99000000D02*
X177900000Y-99000000D01*
X177900000Y-112600000D01*
X155500000Y-112600000D01*
X155500000Y-99000000D01*
X182150000Y-55110000D02*
X208150000Y-55110000D01*
X208150000Y-105510000D01*
X182150000Y-105510000D01*
X182150000Y-55110000D01*
X65605000Y-87800000D02*
X116005000Y-87800000D01*
X116005000Y-113800000D01*
X65605000Y-113800000D01*
X65605000Y-87800000D01*
D11*
X93275768Y-69309783D02*
X93275768Y-68609783D01*
X93275768Y-68609783D02*
X93109101Y-68609783D01*
X93109101Y-68609783D02*
X93009101Y-68643116D01*
X93009101Y-68643116D02*
X92942435Y-68709783D01*
X92942435Y-68709783D02*
X92909101Y-68776450D01*
X92909101Y-68776450D02*
X92875768Y-68909783D01*
X92875768Y-68909783D02*
X92875768Y-69009783D01*
X92875768Y-69009783D02*
X92909101Y-69143116D01*
X92909101Y-69143116D02*
X92942435Y-69209783D01*
X92942435Y-69209783D02*
X93009101Y-69276450D01*
X93009101Y-69276450D02*
X93109101Y-69309783D01*
X93109101Y-69309783D02*
X93275768Y-69309783D01*
X92209101Y-69309783D02*
X92609101Y-69309783D01*
X92409101Y-69309783D02*
X92409101Y-68609783D01*
X92409101Y-68609783D02*
X92475768Y-68709783D01*
X92475768Y-68709783D02*
X92542435Y-68776450D01*
X92542435Y-68776450D02*
X92609101Y-68809783D01*
X163416666Y-107252616D02*
X163449999Y-107285950D01*
X163449999Y-107285950D02*
X163549999Y-107319283D01*
X163549999Y-107319283D02*
X163616666Y-107319283D01*
X163616666Y-107319283D02*
X163716666Y-107285950D01*
X163716666Y-107285950D02*
X163783333Y-107219283D01*
X163783333Y-107219283D02*
X163816666Y-107152616D01*
X163816666Y-107152616D02*
X163849999Y-107019283D01*
X163849999Y-107019283D02*
X163849999Y-106919283D01*
X163849999Y-106919283D02*
X163816666Y-106785950D01*
X163816666Y-106785950D02*
X163783333Y-106719283D01*
X163783333Y-106719283D02*
X163716666Y-106652616D01*
X163716666Y-106652616D02*
X163616666Y-106619283D01*
X163616666Y-106619283D02*
X163549999Y-106619283D01*
X163549999Y-106619283D02*
X163449999Y-106652616D01*
X163449999Y-106652616D02*
X163416666Y-106685950D01*
X163149999Y-106685950D02*
X163116666Y-106652616D01*
X163116666Y-106652616D02*
X163049999Y-106619283D01*
X163049999Y-106619283D02*
X162883333Y-106619283D01*
X162883333Y-106619283D02*
X162816666Y-106652616D01*
X162816666Y-106652616D02*
X162783333Y-106685950D01*
X162783333Y-106685950D02*
X162749999Y-106752616D01*
X162749999Y-106752616D02*
X162749999Y-106819283D01*
X162749999Y-106819283D02*
X162783333Y-106919283D01*
X162783333Y-106919283D02*
X163183333Y-107319283D01*
X163183333Y-107319283D02*
X162749999Y-107319283D01*
X168509783Y-90724231D02*
X168176450Y-90490898D01*
X168509783Y-90324231D02*
X167809783Y-90324231D01*
X167809783Y-90324231D02*
X167809783Y-90590898D01*
X167809783Y-90590898D02*
X167843116Y-90657565D01*
X167843116Y-90657565D02*
X167876450Y-90690898D01*
X167876450Y-90690898D02*
X167943116Y-90724231D01*
X167943116Y-90724231D02*
X168043116Y-90724231D01*
X168043116Y-90724231D02*
X168109783Y-90690898D01*
X168109783Y-90690898D02*
X168143116Y-90657565D01*
X168143116Y-90657565D02*
X168176450Y-90590898D01*
X168176450Y-90590898D02*
X168176450Y-90324231D01*
X167876450Y-90990898D02*
X167843116Y-91024231D01*
X167843116Y-91024231D02*
X167809783Y-91090898D01*
X167809783Y-91090898D02*
X167809783Y-91257565D01*
X167809783Y-91257565D02*
X167843116Y-91324231D01*
X167843116Y-91324231D02*
X167876450Y-91357565D01*
X167876450Y-91357565D02*
X167943116Y-91390898D01*
X167943116Y-91390898D02*
X168009783Y-91390898D01*
X168009783Y-91390898D02*
X168109783Y-91357565D01*
X168109783Y-91357565D02*
X168509783Y-90957565D01*
X168509783Y-90957565D02*
X168509783Y-91390898D01*
X167809783Y-91990898D02*
X167809783Y-91857565D01*
X167809783Y-91857565D02*
X167843116Y-91790898D01*
X167843116Y-91790898D02*
X167876450Y-91757565D01*
X167876450Y-91757565D02*
X167976450Y-91690898D01*
X167976450Y-91690898D02*
X168109783Y-91657565D01*
X168109783Y-91657565D02*
X168376450Y-91657565D01*
X168376450Y-91657565D02*
X168443116Y-91690898D01*
X168443116Y-91690898D02*
X168476450Y-91724232D01*
X168476450Y-91724232D02*
X168509783Y-91790898D01*
X168509783Y-91790898D02*
X168509783Y-91924232D01*
X168509783Y-91924232D02*
X168476450Y-91990898D01*
X168476450Y-91990898D02*
X168443116Y-92024232D01*
X168443116Y-92024232D02*
X168376450Y-92057565D01*
X168376450Y-92057565D02*
X168209783Y-92057565D01*
X168209783Y-92057565D02*
X168143116Y-92024232D01*
X168143116Y-92024232D02*
X168109783Y-91990898D01*
X168109783Y-91990898D02*
X168076450Y-91924232D01*
X168076450Y-91924232D02*
X168076450Y-91790898D01*
X168076450Y-91790898D02*
X168109783Y-91724232D01*
X168109783Y-91724232D02*
X168143116Y-91690898D01*
X168143116Y-91690898D02*
X168209783Y-91657565D01*
D10*
X199196115Y-92872419D02*
X199196115Y-93681942D01*
X199196115Y-93681942D02*
X199148496Y-93777180D01*
X199148496Y-93777180D02*
X199100877Y-93824800D01*
X199100877Y-93824800D02*
X199005639Y-93872419D01*
X199005639Y-93872419D02*
X198815163Y-93872419D01*
X198815163Y-93872419D02*
X198719925Y-93824800D01*
X198719925Y-93824800D02*
X198672306Y-93777180D01*
X198672306Y-93777180D02*
X198624687Y-93681942D01*
X198624687Y-93681942D02*
X198624687Y-92872419D01*
X197719925Y-93205752D02*
X197719925Y-93872419D01*
X197958020Y-92824800D02*
X198196115Y-93539085D01*
X198196115Y-93539085D02*
X197577068Y-93539085D01*
X191329449Y-92967657D02*
X191424687Y-92920038D01*
X191424687Y-92920038D02*
X191519925Y-92824800D01*
X191519925Y-92824800D02*
X191662782Y-92681942D01*
X191662782Y-92681942D02*
X191758020Y-92634323D01*
X191758020Y-92634323D02*
X191853258Y-92634323D01*
X191805639Y-92872419D02*
X191900877Y-92824800D01*
X191900877Y-92824800D02*
X191996115Y-92729561D01*
X191996115Y-92729561D02*
X192043734Y-92539085D01*
X192043734Y-92539085D02*
X192043734Y-92205752D01*
X192043734Y-92205752D02*
X191996115Y-92015276D01*
X191996115Y-92015276D02*
X191900877Y-91920038D01*
X191900877Y-91920038D02*
X191805639Y-91872419D01*
X191805639Y-91872419D02*
X191615163Y-91872419D01*
X191615163Y-91872419D02*
X191519925Y-91920038D01*
X191519925Y-91920038D02*
X191424687Y-92015276D01*
X191424687Y-92015276D02*
X191377068Y-92205752D01*
X191377068Y-92205752D02*
X191377068Y-92539085D01*
X191377068Y-92539085D02*
X191424687Y-92729561D01*
X191424687Y-92729561D02*
X191519925Y-92824800D01*
X191519925Y-92824800D02*
X191615163Y-92872419D01*
X191615163Y-92872419D02*
X191805639Y-92872419D01*
X190996115Y-91967657D02*
X190948496Y-91920038D01*
X190948496Y-91920038D02*
X190853258Y-91872419D01*
X190853258Y-91872419D02*
X190615163Y-91872419D01*
X190615163Y-91872419D02*
X190519925Y-91920038D01*
X190519925Y-91920038D02*
X190472306Y-91967657D01*
X190472306Y-91967657D02*
X190424687Y-92062895D01*
X190424687Y-92062895D02*
X190424687Y-92158133D01*
X190424687Y-92158133D02*
X190472306Y-92300990D01*
X190472306Y-92300990D02*
X191043734Y-92872419D01*
X191043734Y-92872419D02*
X190424687Y-92872419D01*
D11*
X184516666Y-91119283D02*
X184516666Y-90419283D01*
X184516666Y-90419283D02*
X184349999Y-90419283D01*
X184349999Y-90419283D02*
X184249999Y-90452616D01*
X184249999Y-90452616D02*
X184183333Y-90519283D01*
X184183333Y-90519283D02*
X184149999Y-90585950D01*
X184149999Y-90585950D02*
X184116666Y-90719283D01*
X184116666Y-90719283D02*
X184116666Y-90819283D01*
X184116666Y-90819283D02*
X184149999Y-90952616D01*
X184149999Y-90952616D02*
X184183333Y-91019283D01*
X184183333Y-91019283D02*
X184249999Y-91085950D01*
X184249999Y-91085950D02*
X184349999Y-91119283D01*
X184349999Y-91119283D02*
X184516666Y-91119283D01*
X183516666Y-90419283D02*
X183649999Y-90419283D01*
X183649999Y-90419283D02*
X183716666Y-90452616D01*
X183716666Y-90452616D02*
X183749999Y-90485950D01*
X183749999Y-90485950D02*
X183816666Y-90585950D01*
X183816666Y-90585950D02*
X183849999Y-90719283D01*
X183849999Y-90719283D02*
X183849999Y-90985950D01*
X183849999Y-90985950D02*
X183816666Y-91052616D01*
X183816666Y-91052616D02*
X183783333Y-91085950D01*
X183783333Y-91085950D02*
X183716666Y-91119283D01*
X183716666Y-91119283D02*
X183583333Y-91119283D01*
X183583333Y-91119283D02*
X183516666Y-91085950D01*
X183516666Y-91085950D02*
X183483333Y-91052616D01*
X183483333Y-91052616D02*
X183449999Y-90985950D01*
X183449999Y-90985950D02*
X183449999Y-90819283D01*
X183449999Y-90819283D02*
X183483333Y-90752616D01*
X183483333Y-90752616D02*
X183516666Y-90719283D01*
X183516666Y-90719283D02*
X183583333Y-90685950D01*
X183583333Y-90685950D02*
X183716666Y-90685950D01*
X183716666Y-90685950D02*
X183783333Y-90719283D01*
X183783333Y-90719283D02*
X183816666Y-90752616D01*
X183816666Y-90752616D02*
X183849999Y-90819283D01*
X155709101Y-97309783D02*
X155375768Y-97309783D01*
X155775768Y-97509783D02*
X155542435Y-96809783D01*
X155542435Y-96809783D02*
X155309101Y-97509783D01*
X155075768Y-97509783D02*
X155075768Y-96809783D01*
X155075768Y-96809783D02*
X154909101Y-96809783D01*
X154909101Y-96809783D02*
X154809101Y-96843116D01*
X154809101Y-96843116D02*
X154742435Y-96909783D01*
X154742435Y-96909783D02*
X154709101Y-96976450D01*
X154709101Y-96976450D02*
X154675768Y-97109783D01*
X154675768Y-97109783D02*
X154675768Y-97209783D01*
X154675768Y-97209783D02*
X154709101Y-97343116D01*
X154709101Y-97343116D02*
X154742435Y-97409783D01*
X154742435Y-97409783D02*
X154809101Y-97476450D01*
X154809101Y-97476450D02*
X154909101Y-97509783D01*
X154909101Y-97509783D02*
X155075768Y-97509783D01*
X154409101Y-96876450D02*
X154375768Y-96843116D01*
X154375768Y-96843116D02*
X154309101Y-96809783D01*
X154309101Y-96809783D02*
X154142435Y-96809783D01*
X154142435Y-96809783D02*
X154075768Y-96843116D01*
X154075768Y-96843116D02*
X154042435Y-96876450D01*
X154042435Y-96876450D02*
X154009101Y-96943116D01*
X154009101Y-96943116D02*
X154009101Y-97009783D01*
X154009101Y-97009783D02*
X154042435Y-97109783D01*
X154042435Y-97109783D02*
X154442435Y-97509783D01*
X154442435Y-97509783D02*
X154009101Y-97509783D01*
X153875768Y-97576450D02*
X153342434Y-97576450D01*
X153242435Y-96809783D02*
X152775768Y-96809783D01*
X152775768Y-96809783D02*
X153075768Y-97509783D01*
X152009101Y-97309783D02*
X151675768Y-97309783D01*
X152075768Y-97509783D02*
X151842435Y-96809783D01*
X151842435Y-96809783D02*
X151609101Y-97509783D01*
X151375768Y-97509783D02*
X151375768Y-96809783D01*
X151375768Y-96809783D02*
X151209101Y-96809783D01*
X151209101Y-96809783D02*
X151109101Y-96843116D01*
X151109101Y-96843116D02*
X151042435Y-96909783D01*
X151042435Y-96909783D02*
X151009101Y-96976450D01*
X151009101Y-96976450D02*
X150975768Y-97109783D01*
X150975768Y-97109783D02*
X150975768Y-97209783D01*
X150975768Y-97209783D02*
X151009101Y-97343116D01*
X151009101Y-97343116D02*
X151042435Y-97409783D01*
X151042435Y-97409783D02*
X151109101Y-97476450D01*
X151109101Y-97476450D02*
X151209101Y-97509783D01*
X151209101Y-97509783D02*
X151375768Y-97509783D01*
X150709101Y-96876450D02*
X150675768Y-96843116D01*
X150675768Y-96843116D02*
X150609101Y-96809783D01*
X150609101Y-96809783D02*
X150442435Y-96809783D01*
X150442435Y-96809783D02*
X150375768Y-96843116D01*
X150375768Y-96843116D02*
X150342435Y-96876450D01*
X150342435Y-96876450D02*
X150309101Y-96943116D01*
X150309101Y-96943116D02*
X150309101Y-97009783D01*
X150309101Y-97009783D02*
X150342435Y-97109783D01*
X150342435Y-97109783D02*
X150742435Y-97509783D01*
X150742435Y-97509783D02*
X150309101Y-97509783D01*
X150175768Y-97576450D02*
X149642434Y-97576450D01*
X149375768Y-97109783D02*
X149442435Y-97076450D01*
X149442435Y-97076450D02*
X149475768Y-97043116D01*
X149475768Y-97043116D02*
X149509101Y-96976450D01*
X149509101Y-96976450D02*
X149509101Y-96943116D01*
X149509101Y-96943116D02*
X149475768Y-96876450D01*
X149475768Y-96876450D02*
X149442435Y-96843116D01*
X149442435Y-96843116D02*
X149375768Y-96809783D01*
X149375768Y-96809783D02*
X149242435Y-96809783D01*
X149242435Y-96809783D02*
X149175768Y-96843116D01*
X149175768Y-96843116D02*
X149142435Y-96876450D01*
X149142435Y-96876450D02*
X149109101Y-96943116D01*
X149109101Y-96943116D02*
X149109101Y-96976450D01*
X149109101Y-96976450D02*
X149142435Y-97043116D01*
X149142435Y-97043116D02*
X149175768Y-97076450D01*
X149175768Y-97076450D02*
X149242435Y-97109783D01*
X149242435Y-97109783D02*
X149375768Y-97109783D01*
X149375768Y-97109783D02*
X149442435Y-97143116D01*
X149442435Y-97143116D02*
X149475768Y-97176450D01*
X149475768Y-97176450D02*
X149509101Y-97243116D01*
X149509101Y-97243116D02*
X149509101Y-97376450D01*
X149509101Y-97376450D02*
X149475768Y-97443116D01*
X149475768Y-97443116D02*
X149442435Y-97476450D01*
X149442435Y-97476450D02*
X149375768Y-97509783D01*
X149375768Y-97509783D02*
X149242435Y-97509783D01*
X149242435Y-97509783D02*
X149175768Y-97476450D01*
X149175768Y-97476450D02*
X149142435Y-97443116D01*
X149142435Y-97443116D02*
X149109101Y-97376450D01*
X149109101Y-97376450D02*
X149109101Y-97243116D01*
X149109101Y-97243116D02*
X149142435Y-97176450D01*
X149142435Y-97176450D02*
X149175768Y-97143116D01*
X149175768Y-97143116D02*
X149242435Y-97109783D01*
X148309101Y-97309783D02*
X147975768Y-97309783D01*
X148375768Y-97509783D02*
X148142435Y-96809783D01*
X148142435Y-96809783D02*
X147909101Y-97509783D01*
X147675768Y-97509783D02*
X147675768Y-96809783D01*
X147675768Y-96809783D02*
X147509101Y-96809783D01*
X147509101Y-96809783D02*
X147409101Y-96843116D01*
X147409101Y-96843116D02*
X147342435Y-96909783D01*
X147342435Y-96909783D02*
X147309101Y-96976450D01*
X147309101Y-96976450D02*
X147275768Y-97109783D01*
X147275768Y-97109783D02*
X147275768Y-97209783D01*
X147275768Y-97209783D02*
X147309101Y-97343116D01*
X147309101Y-97343116D02*
X147342435Y-97409783D01*
X147342435Y-97409783D02*
X147409101Y-97476450D01*
X147409101Y-97476450D02*
X147509101Y-97509783D01*
X147509101Y-97509783D02*
X147675768Y-97509783D01*
X146609101Y-97509783D02*
X147009101Y-97509783D01*
X146809101Y-97509783D02*
X146809101Y-96809783D01*
X146809101Y-96809783D02*
X146875768Y-96909783D01*
X146875768Y-96909783D02*
X146942435Y-96976450D01*
X146942435Y-96976450D02*
X147009101Y-97009783D01*
X146475768Y-97576450D02*
X145942434Y-97576450D01*
X145475768Y-97043116D02*
X145475768Y-97509783D01*
X145642435Y-96776450D02*
X145809101Y-97276450D01*
X145809101Y-97276450D02*
X145375768Y-97276450D01*
X144242435Y-97509783D02*
X144575768Y-97509783D01*
X144575768Y-97509783D02*
X144575768Y-96809783D01*
X144175768Y-97576450D02*
X143642434Y-97576450D01*
X143475768Y-97509783D02*
X143475768Y-96809783D01*
X143475768Y-96809783D02*
X143209101Y-96809783D01*
X143209101Y-96809783D02*
X143142435Y-96843116D01*
X143142435Y-96843116D02*
X143109101Y-96876450D01*
X143109101Y-96876450D02*
X143075768Y-96943116D01*
X143075768Y-96943116D02*
X143075768Y-97043116D01*
X143075768Y-97043116D02*
X143109101Y-97109783D01*
X143109101Y-97109783D02*
X143142435Y-97143116D01*
X143142435Y-97143116D02*
X143209101Y-97176450D01*
X143209101Y-97176450D02*
X143475768Y-97176450D01*
X142775768Y-97509783D02*
X142775768Y-96809783D01*
X142442435Y-97509783D02*
X142442435Y-96809783D01*
X142442435Y-96809783D02*
X142042435Y-97509783D01*
X142042435Y-97509783D02*
X142042435Y-96809783D01*
X87625768Y-69243116D02*
X87659101Y-69276450D01*
X87659101Y-69276450D02*
X87759101Y-69309783D01*
X87759101Y-69309783D02*
X87825768Y-69309783D01*
X87825768Y-69309783D02*
X87925768Y-69276450D01*
X87925768Y-69276450D02*
X87992435Y-69209783D01*
X87992435Y-69209783D02*
X88025768Y-69143116D01*
X88025768Y-69143116D02*
X88059101Y-69009783D01*
X88059101Y-69009783D02*
X88059101Y-68909783D01*
X88059101Y-68909783D02*
X88025768Y-68776450D01*
X88025768Y-68776450D02*
X87992435Y-68709783D01*
X87992435Y-68709783D02*
X87925768Y-68643116D01*
X87925768Y-68643116D02*
X87825768Y-68609783D01*
X87825768Y-68609783D02*
X87759101Y-68609783D01*
X87759101Y-68609783D02*
X87659101Y-68643116D01*
X87659101Y-68643116D02*
X87625768Y-68676450D01*
X87392435Y-68609783D02*
X86959101Y-68609783D01*
X86959101Y-68609783D02*
X87192435Y-68876450D01*
X87192435Y-68876450D02*
X87092435Y-68876450D01*
X87092435Y-68876450D02*
X87025768Y-68909783D01*
X87025768Y-68909783D02*
X86992435Y-68943116D01*
X86992435Y-68943116D02*
X86959101Y-69009783D01*
X86959101Y-69009783D02*
X86959101Y-69176450D01*
X86959101Y-69176450D02*
X86992435Y-69243116D01*
X86992435Y-69243116D02*
X87025768Y-69276450D01*
X87025768Y-69276450D02*
X87092435Y-69309783D01*
X87092435Y-69309783D02*
X87292435Y-69309783D01*
X87292435Y-69309783D02*
X87359101Y-69276450D01*
X87359101Y-69276450D02*
X87392435Y-69243116D01*
X166316666Y-103719283D02*
X166549999Y-103385950D01*
X166716666Y-103719283D02*
X166716666Y-103019283D01*
X166716666Y-103019283D02*
X166449999Y-103019283D01*
X166449999Y-103019283D02*
X166383333Y-103052616D01*
X166383333Y-103052616D02*
X166349999Y-103085950D01*
X166349999Y-103085950D02*
X166316666Y-103152616D01*
X166316666Y-103152616D02*
X166316666Y-103252616D01*
X166316666Y-103252616D02*
X166349999Y-103319283D01*
X166349999Y-103319283D02*
X166383333Y-103352616D01*
X166383333Y-103352616D02*
X166449999Y-103385950D01*
X166449999Y-103385950D02*
X166716666Y-103385950D01*
X165649999Y-103719283D02*
X166049999Y-103719283D01*
X165849999Y-103719283D02*
X165849999Y-103019283D01*
X165849999Y-103019283D02*
X165916666Y-103119283D01*
X165916666Y-103119283D02*
X165983333Y-103185950D01*
X165983333Y-103185950D02*
X166049999Y-103219283D01*
X165909783Y-90224231D02*
X165209783Y-90224231D01*
X165209783Y-90224231D02*
X165209783Y-90390898D01*
X165209783Y-90390898D02*
X165243116Y-90490898D01*
X165243116Y-90490898D02*
X165309783Y-90557565D01*
X165309783Y-90557565D02*
X165376450Y-90590898D01*
X165376450Y-90590898D02*
X165509783Y-90624231D01*
X165509783Y-90624231D02*
X165609783Y-90624231D01*
X165609783Y-90624231D02*
X165743116Y-90590898D01*
X165743116Y-90590898D02*
X165809783Y-90557565D01*
X165809783Y-90557565D02*
X165876450Y-90490898D01*
X165876450Y-90490898D02*
X165909783Y-90390898D01*
X165909783Y-90390898D02*
X165909783Y-90224231D01*
X165909783Y-91290898D02*
X165909783Y-90890898D01*
X165909783Y-91090898D02*
X165209783Y-91090898D01*
X165209783Y-91090898D02*
X165309783Y-91024231D01*
X165309783Y-91024231D02*
X165376450Y-90957565D01*
X165376450Y-90957565D02*
X165409783Y-90890898D01*
X165909783Y-91957565D02*
X165909783Y-91557565D01*
X165909783Y-91757565D02*
X165209783Y-91757565D01*
X165209783Y-91757565D02*
X165309783Y-91690898D01*
X165309783Y-91690898D02*
X165376450Y-91624232D01*
X165376450Y-91624232D02*
X165409783Y-91557565D01*
X184150000Y-90119283D02*
X184383333Y-89785950D01*
X184550000Y-90119283D02*
X184550000Y-89419283D01*
X184550000Y-89419283D02*
X184283333Y-89419283D01*
X184283333Y-89419283D02*
X184216667Y-89452616D01*
X184216667Y-89452616D02*
X184183333Y-89485950D01*
X184183333Y-89485950D02*
X184150000Y-89552616D01*
X184150000Y-89552616D02*
X184150000Y-89652616D01*
X184150000Y-89652616D02*
X184183333Y-89719283D01*
X184183333Y-89719283D02*
X184216667Y-89752616D01*
X184216667Y-89752616D02*
X184283333Y-89785950D01*
X184283333Y-89785950D02*
X184550000Y-89785950D01*
X183883333Y-89485950D02*
X183850000Y-89452616D01*
X183850000Y-89452616D02*
X183783333Y-89419283D01*
X183783333Y-89419283D02*
X183616667Y-89419283D01*
X183616667Y-89419283D02*
X183550000Y-89452616D01*
X183550000Y-89452616D02*
X183516667Y-89485950D01*
X183516667Y-89485950D02*
X183483333Y-89552616D01*
X183483333Y-89552616D02*
X183483333Y-89619283D01*
X183483333Y-89619283D02*
X183516667Y-89719283D01*
X183516667Y-89719283D02*
X183916667Y-90119283D01*
X183916667Y-90119283D02*
X183483333Y-90119283D01*
X182816666Y-90119283D02*
X183216666Y-90119283D01*
X183016666Y-90119283D02*
X183016666Y-89419283D01*
X183016666Y-89419283D02*
X183083333Y-89519283D01*
X183083333Y-89519283D02*
X183150000Y-89585950D01*
X183150000Y-89585950D02*
X183216666Y-89619283D01*
X159675768Y-90709783D02*
X159909101Y-90376450D01*
X160075768Y-90709783D02*
X160075768Y-90009783D01*
X160075768Y-90009783D02*
X159809101Y-90009783D01*
X159809101Y-90009783D02*
X159742435Y-90043116D01*
X159742435Y-90043116D02*
X159709101Y-90076450D01*
X159709101Y-90076450D02*
X159675768Y-90143116D01*
X159675768Y-90143116D02*
X159675768Y-90243116D01*
X159675768Y-90243116D02*
X159709101Y-90309783D01*
X159709101Y-90309783D02*
X159742435Y-90343116D01*
X159742435Y-90343116D02*
X159809101Y-90376450D01*
X159809101Y-90376450D02*
X160075768Y-90376450D01*
X159409101Y-90076450D02*
X159375768Y-90043116D01*
X159375768Y-90043116D02*
X159309101Y-90009783D01*
X159309101Y-90009783D02*
X159142435Y-90009783D01*
X159142435Y-90009783D02*
X159075768Y-90043116D01*
X159075768Y-90043116D02*
X159042435Y-90076450D01*
X159042435Y-90076450D02*
X159009101Y-90143116D01*
X159009101Y-90143116D02*
X159009101Y-90209783D01*
X159009101Y-90209783D02*
X159042435Y-90309783D01*
X159042435Y-90309783D02*
X159442435Y-90709783D01*
X159442435Y-90709783D02*
X159009101Y-90709783D01*
X158742434Y-90076450D02*
X158709101Y-90043116D01*
X158709101Y-90043116D02*
X158642434Y-90009783D01*
X158642434Y-90009783D02*
X158475768Y-90009783D01*
X158475768Y-90009783D02*
X158409101Y-90043116D01*
X158409101Y-90043116D02*
X158375768Y-90076450D01*
X158375768Y-90076450D02*
X158342434Y-90143116D01*
X158342434Y-90143116D02*
X158342434Y-90209783D01*
X158342434Y-90209783D02*
X158375768Y-90309783D01*
X158375768Y-90309783D02*
X158775768Y-90709783D01*
X158775768Y-90709783D02*
X158342434Y-90709783D01*
X155009783Y-59824231D02*
X154676450Y-59590898D01*
X155009783Y-59424231D02*
X154309783Y-59424231D01*
X154309783Y-59424231D02*
X154309783Y-59690898D01*
X154309783Y-59690898D02*
X154343116Y-59757565D01*
X154343116Y-59757565D02*
X154376450Y-59790898D01*
X154376450Y-59790898D02*
X154443116Y-59824231D01*
X154443116Y-59824231D02*
X154543116Y-59824231D01*
X154543116Y-59824231D02*
X154609783Y-59790898D01*
X154609783Y-59790898D02*
X154643116Y-59757565D01*
X154643116Y-59757565D02*
X154676450Y-59690898D01*
X154676450Y-59690898D02*
X154676450Y-59424231D01*
X154376450Y-60090898D02*
X154343116Y-60124231D01*
X154343116Y-60124231D02*
X154309783Y-60190898D01*
X154309783Y-60190898D02*
X154309783Y-60357565D01*
X154309783Y-60357565D02*
X154343116Y-60424231D01*
X154343116Y-60424231D02*
X154376450Y-60457565D01*
X154376450Y-60457565D02*
X154443116Y-60490898D01*
X154443116Y-60490898D02*
X154509783Y-60490898D01*
X154509783Y-60490898D02*
X154609783Y-60457565D01*
X154609783Y-60457565D02*
X155009783Y-60057565D01*
X155009783Y-60057565D02*
X155009783Y-60490898D01*
X154309783Y-60724232D02*
X154309783Y-61157565D01*
X154309783Y-61157565D02*
X154576450Y-60924232D01*
X154576450Y-60924232D02*
X154576450Y-61024232D01*
X154576450Y-61024232D02*
X154609783Y-61090898D01*
X154609783Y-61090898D02*
X154643116Y-61124232D01*
X154643116Y-61124232D02*
X154709783Y-61157565D01*
X154709783Y-61157565D02*
X154876450Y-61157565D01*
X154876450Y-61157565D02*
X154943116Y-61124232D01*
X154943116Y-61124232D02*
X154976450Y-61090898D01*
X154976450Y-61090898D02*
X155009783Y-61024232D01*
X155009783Y-61024232D02*
X155009783Y-60824232D01*
X155009783Y-60824232D02*
X154976450Y-60757565D01*
X154976450Y-60757565D02*
X154943116Y-60724232D01*
X195119283Y-91949999D02*
X194785950Y-91716666D01*
X195119283Y-91549999D02*
X194419283Y-91549999D01*
X194419283Y-91549999D02*
X194419283Y-91816666D01*
X194419283Y-91816666D02*
X194452616Y-91883333D01*
X194452616Y-91883333D02*
X194485950Y-91916666D01*
X194485950Y-91916666D02*
X194552616Y-91949999D01*
X194552616Y-91949999D02*
X194652616Y-91949999D01*
X194652616Y-91949999D02*
X194719283Y-91916666D01*
X194719283Y-91916666D02*
X194752616Y-91883333D01*
X194752616Y-91883333D02*
X194785950Y-91816666D01*
X194785950Y-91816666D02*
X194785950Y-91549999D01*
X194485950Y-92216666D02*
X194452616Y-92249999D01*
X194452616Y-92249999D02*
X194419283Y-92316666D01*
X194419283Y-92316666D02*
X194419283Y-92483333D01*
X194419283Y-92483333D02*
X194452616Y-92549999D01*
X194452616Y-92549999D02*
X194485950Y-92583333D01*
X194485950Y-92583333D02*
X194552616Y-92616666D01*
X194552616Y-92616666D02*
X194619283Y-92616666D01*
X194619283Y-92616666D02*
X194719283Y-92583333D01*
X194719283Y-92583333D02*
X195119283Y-92183333D01*
X195119283Y-92183333D02*
X195119283Y-92616666D01*
X194419283Y-93050000D02*
X194419283Y-93116666D01*
X194419283Y-93116666D02*
X194452616Y-93183333D01*
X194452616Y-93183333D02*
X194485950Y-93216666D01*
X194485950Y-93216666D02*
X194552616Y-93250000D01*
X194552616Y-93250000D02*
X194685950Y-93283333D01*
X194685950Y-93283333D02*
X194852616Y-93283333D01*
X194852616Y-93283333D02*
X194985950Y-93250000D01*
X194985950Y-93250000D02*
X195052616Y-93216666D01*
X195052616Y-93216666D02*
X195085950Y-93183333D01*
X195085950Y-93183333D02*
X195119283Y-93116666D01*
X195119283Y-93116666D02*
X195119283Y-93050000D01*
X195119283Y-93050000D02*
X195085950Y-92983333D01*
X195085950Y-92983333D02*
X195052616Y-92950000D01*
X195052616Y-92950000D02*
X194985950Y-92916666D01*
X194985950Y-92916666D02*
X194852616Y-92883333D01*
X194852616Y-92883333D02*
X194685950Y-92883333D01*
X194685950Y-92883333D02*
X194552616Y-92916666D01*
X194552616Y-92916666D02*
X194485950Y-92950000D01*
X194485950Y-92950000D02*
X194452616Y-92983333D01*
X194452616Y-92983333D02*
X194419283Y-93050000D01*
X93075768Y-66759783D02*
X93309101Y-66426450D01*
X93475768Y-66759783D02*
X93475768Y-66059783D01*
X93475768Y-66059783D02*
X93209101Y-66059783D01*
X93209101Y-66059783D02*
X93142435Y-66093116D01*
X93142435Y-66093116D02*
X93109101Y-66126450D01*
X93109101Y-66126450D02*
X93075768Y-66193116D01*
X93075768Y-66193116D02*
X93075768Y-66293116D01*
X93075768Y-66293116D02*
X93109101Y-66359783D01*
X93109101Y-66359783D02*
X93142435Y-66393116D01*
X93142435Y-66393116D02*
X93209101Y-66426450D01*
X93209101Y-66426450D02*
X93475768Y-66426450D01*
X92675768Y-66359783D02*
X92742435Y-66326450D01*
X92742435Y-66326450D02*
X92775768Y-66293116D01*
X92775768Y-66293116D02*
X92809101Y-66226450D01*
X92809101Y-66226450D02*
X92809101Y-66193116D01*
X92809101Y-66193116D02*
X92775768Y-66126450D01*
X92775768Y-66126450D02*
X92742435Y-66093116D01*
X92742435Y-66093116D02*
X92675768Y-66059783D01*
X92675768Y-66059783D02*
X92542435Y-66059783D01*
X92542435Y-66059783D02*
X92475768Y-66093116D01*
X92475768Y-66093116D02*
X92442435Y-66126450D01*
X92442435Y-66126450D02*
X92409101Y-66193116D01*
X92409101Y-66193116D02*
X92409101Y-66226450D01*
X92409101Y-66226450D02*
X92442435Y-66293116D01*
X92442435Y-66293116D02*
X92475768Y-66326450D01*
X92475768Y-66326450D02*
X92542435Y-66359783D01*
X92542435Y-66359783D02*
X92675768Y-66359783D01*
X92675768Y-66359783D02*
X92742435Y-66393116D01*
X92742435Y-66393116D02*
X92775768Y-66426450D01*
X92775768Y-66426450D02*
X92809101Y-66493116D01*
X92809101Y-66493116D02*
X92809101Y-66626450D01*
X92809101Y-66626450D02*
X92775768Y-66693116D01*
X92775768Y-66693116D02*
X92742435Y-66726450D01*
X92742435Y-66726450D02*
X92675768Y-66759783D01*
X92675768Y-66759783D02*
X92542435Y-66759783D01*
X92542435Y-66759783D02*
X92475768Y-66726450D01*
X92475768Y-66726450D02*
X92442435Y-66693116D01*
X92442435Y-66693116D02*
X92409101Y-66626450D01*
X92409101Y-66626450D02*
X92409101Y-66493116D01*
X92409101Y-66493116D02*
X92442435Y-66426450D01*
X92442435Y-66426450D02*
X92475768Y-66393116D01*
X92475768Y-66393116D02*
X92542435Y-66359783D01*
D10*
X102229449Y-104167657D02*
X102324687Y-104120038D01*
X102324687Y-104120038D02*
X102419925Y-104024800D01*
X102419925Y-104024800D02*
X102562782Y-103881942D01*
X102562782Y-103881942D02*
X102658020Y-103834323D01*
X102658020Y-103834323D02*
X102753258Y-103834323D01*
X102705639Y-104072419D02*
X102800877Y-104024800D01*
X102800877Y-104024800D02*
X102896115Y-103929561D01*
X102896115Y-103929561D02*
X102943734Y-103739085D01*
X102943734Y-103739085D02*
X102943734Y-103405752D01*
X102943734Y-103405752D02*
X102896115Y-103215276D01*
X102896115Y-103215276D02*
X102800877Y-103120038D01*
X102800877Y-103120038D02*
X102705639Y-103072419D01*
X102705639Y-103072419D02*
X102515163Y-103072419D01*
X102515163Y-103072419D02*
X102419925Y-103120038D01*
X102419925Y-103120038D02*
X102324687Y-103215276D01*
X102324687Y-103215276D02*
X102277068Y-103405752D01*
X102277068Y-103405752D02*
X102277068Y-103739085D01*
X102277068Y-103739085D02*
X102324687Y-103929561D01*
X102324687Y-103929561D02*
X102419925Y-104024800D01*
X102419925Y-104024800D02*
X102515163Y-104072419D01*
X102515163Y-104072419D02*
X102705639Y-104072419D01*
X101324687Y-104072419D02*
X101896115Y-104072419D01*
X101610401Y-104072419D02*
X101610401Y-103072419D01*
X101610401Y-103072419D02*
X101705639Y-103215276D01*
X101705639Y-103215276D02*
X101800877Y-103310514D01*
X101800877Y-103310514D02*
X101896115Y-103358133D01*
D11*
X195419283Y-96049999D02*
X195085950Y-95816666D01*
X195419283Y-95649999D02*
X194719283Y-95649999D01*
X194719283Y-95649999D02*
X194719283Y-95916666D01*
X194719283Y-95916666D02*
X194752616Y-95983333D01*
X194752616Y-95983333D02*
X194785950Y-96016666D01*
X194785950Y-96016666D02*
X194852616Y-96049999D01*
X194852616Y-96049999D02*
X194952616Y-96049999D01*
X194952616Y-96049999D02*
X195019283Y-96016666D01*
X195019283Y-96016666D02*
X195052616Y-95983333D01*
X195052616Y-95983333D02*
X195085950Y-95916666D01*
X195085950Y-95916666D02*
X195085950Y-95649999D01*
X195419283Y-96716666D02*
X195419283Y-96316666D01*
X195419283Y-96516666D02*
X194719283Y-96516666D01*
X194719283Y-96516666D02*
X194819283Y-96449999D01*
X194819283Y-96449999D02*
X194885950Y-96383333D01*
X194885950Y-96383333D02*
X194919283Y-96316666D01*
X195019283Y-97116666D02*
X194985950Y-97050000D01*
X194985950Y-97050000D02*
X194952616Y-97016666D01*
X194952616Y-97016666D02*
X194885950Y-96983333D01*
X194885950Y-96983333D02*
X194852616Y-96983333D01*
X194852616Y-96983333D02*
X194785950Y-97016666D01*
X194785950Y-97016666D02*
X194752616Y-97050000D01*
X194752616Y-97050000D02*
X194719283Y-97116666D01*
X194719283Y-97116666D02*
X194719283Y-97250000D01*
X194719283Y-97250000D02*
X194752616Y-97316666D01*
X194752616Y-97316666D02*
X194785950Y-97350000D01*
X194785950Y-97350000D02*
X194852616Y-97383333D01*
X194852616Y-97383333D02*
X194885950Y-97383333D01*
X194885950Y-97383333D02*
X194952616Y-97350000D01*
X194952616Y-97350000D02*
X194985950Y-97316666D01*
X194985950Y-97316666D02*
X195019283Y-97250000D01*
X195019283Y-97250000D02*
X195019283Y-97116666D01*
X195019283Y-97116666D02*
X195052616Y-97050000D01*
X195052616Y-97050000D02*
X195085950Y-97016666D01*
X195085950Y-97016666D02*
X195152616Y-96983333D01*
X195152616Y-96983333D02*
X195285950Y-96983333D01*
X195285950Y-96983333D02*
X195352616Y-97016666D01*
X195352616Y-97016666D02*
X195385950Y-97050000D01*
X195385950Y-97050000D02*
X195419283Y-97116666D01*
X195419283Y-97116666D02*
X195419283Y-97250000D01*
X195419283Y-97250000D02*
X195385950Y-97316666D01*
X195385950Y-97316666D02*
X195352616Y-97350000D01*
X195352616Y-97350000D02*
X195285950Y-97383333D01*
X195285950Y-97383333D02*
X195152616Y-97383333D01*
X195152616Y-97383333D02*
X195085950Y-97350000D01*
X195085950Y-97350000D02*
X195052616Y-97316666D01*
X195052616Y-97316666D02*
X195019283Y-97250000D01*
X116869283Y-78849999D02*
X116535950Y-78616666D01*
X116869283Y-78449999D02*
X116169283Y-78449999D01*
X116169283Y-78449999D02*
X116169283Y-78716666D01*
X116169283Y-78716666D02*
X116202616Y-78783333D01*
X116202616Y-78783333D02*
X116235950Y-78816666D01*
X116235950Y-78816666D02*
X116302616Y-78849999D01*
X116302616Y-78849999D02*
X116402616Y-78849999D01*
X116402616Y-78849999D02*
X116469283Y-78816666D01*
X116469283Y-78816666D02*
X116502616Y-78783333D01*
X116502616Y-78783333D02*
X116535950Y-78716666D01*
X116535950Y-78716666D02*
X116535950Y-78449999D01*
X116235950Y-79116666D02*
X116202616Y-79149999D01*
X116202616Y-79149999D02*
X116169283Y-79216666D01*
X116169283Y-79216666D02*
X116169283Y-79383333D01*
X116169283Y-79383333D02*
X116202616Y-79449999D01*
X116202616Y-79449999D02*
X116235950Y-79483333D01*
X116235950Y-79483333D02*
X116302616Y-79516666D01*
X116302616Y-79516666D02*
X116369283Y-79516666D01*
X116369283Y-79516666D02*
X116469283Y-79483333D01*
X116469283Y-79483333D02*
X116869283Y-79083333D01*
X116869283Y-79083333D02*
X116869283Y-79516666D01*
X116169283Y-80150000D02*
X116169283Y-79816666D01*
X116169283Y-79816666D02*
X116502616Y-79783333D01*
X116502616Y-79783333D02*
X116469283Y-79816666D01*
X116469283Y-79816666D02*
X116435950Y-79883333D01*
X116435950Y-79883333D02*
X116435950Y-80050000D01*
X116435950Y-80050000D02*
X116469283Y-80116666D01*
X116469283Y-80116666D02*
X116502616Y-80150000D01*
X116502616Y-80150000D02*
X116569283Y-80183333D01*
X116569283Y-80183333D02*
X116735950Y-80183333D01*
X116735950Y-80183333D02*
X116802616Y-80150000D01*
X116802616Y-80150000D02*
X116835950Y-80116666D01*
X116835950Y-80116666D02*
X116869283Y-80050000D01*
X116869283Y-80050000D02*
X116869283Y-79883333D01*
X116869283Y-79883333D02*
X116835950Y-79816666D01*
X116835950Y-79816666D02*
X116802616Y-79783333D01*
X160075768Y-91609783D02*
X160075768Y-90909783D01*
X160075768Y-90909783D02*
X159909101Y-90909783D01*
X159909101Y-90909783D02*
X159809101Y-90943116D01*
X159809101Y-90943116D02*
X159742435Y-91009783D01*
X159742435Y-91009783D02*
X159709101Y-91076450D01*
X159709101Y-91076450D02*
X159675768Y-91209783D01*
X159675768Y-91209783D02*
X159675768Y-91309783D01*
X159675768Y-91309783D02*
X159709101Y-91443116D01*
X159709101Y-91443116D02*
X159742435Y-91509783D01*
X159742435Y-91509783D02*
X159809101Y-91576450D01*
X159809101Y-91576450D02*
X159909101Y-91609783D01*
X159909101Y-91609783D02*
X160075768Y-91609783D01*
X159009101Y-91609783D02*
X159409101Y-91609783D01*
X159209101Y-91609783D02*
X159209101Y-90909783D01*
X159209101Y-90909783D02*
X159275768Y-91009783D01*
X159275768Y-91009783D02*
X159342435Y-91076450D01*
X159342435Y-91076450D02*
X159409101Y-91109783D01*
X158575768Y-90909783D02*
X158509101Y-90909783D01*
X158509101Y-90909783D02*
X158442434Y-90943116D01*
X158442434Y-90943116D02*
X158409101Y-90976450D01*
X158409101Y-90976450D02*
X158375768Y-91043116D01*
X158375768Y-91043116D02*
X158342434Y-91176450D01*
X158342434Y-91176450D02*
X158342434Y-91343116D01*
X158342434Y-91343116D02*
X158375768Y-91476450D01*
X158375768Y-91476450D02*
X158409101Y-91543116D01*
X158409101Y-91543116D02*
X158442434Y-91576450D01*
X158442434Y-91576450D02*
X158509101Y-91609783D01*
X158509101Y-91609783D02*
X158575768Y-91609783D01*
X158575768Y-91609783D02*
X158642434Y-91576450D01*
X158642434Y-91576450D02*
X158675768Y-91543116D01*
X158675768Y-91543116D02*
X158709101Y-91476450D01*
X158709101Y-91476450D02*
X158742434Y-91343116D01*
X158742434Y-91343116D02*
X158742434Y-91176450D01*
X158742434Y-91176450D02*
X158709101Y-91043116D01*
X158709101Y-91043116D02*
X158675768Y-90976450D01*
X158675768Y-90976450D02*
X158642434Y-90943116D01*
X158642434Y-90943116D02*
X158575768Y-90909783D01*
X97609783Y-72024231D02*
X97276450Y-71790898D01*
X97609783Y-71624231D02*
X96909783Y-71624231D01*
X96909783Y-71624231D02*
X96909783Y-71890898D01*
X96909783Y-71890898D02*
X96943116Y-71957565D01*
X96943116Y-71957565D02*
X96976450Y-71990898D01*
X96976450Y-71990898D02*
X97043116Y-72024231D01*
X97043116Y-72024231D02*
X97143116Y-72024231D01*
X97143116Y-72024231D02*
X97209783Y-71990898D01*
X97209783Y-71990898D02*
X97243116Y-71957565D01*
X97243116Y-71957565D02*
X97276450Y-71890898D01*
X97276450Y-71890898D02*
X97276450Y-71624231D01*
X96909783Y-72657565D02*
X96909783Y-72324231D01*
X96909783Y-72324231D02*
X97243116Y-72290898D01*
X97243116Y-72290898D02*
X97209783Y-72324231D01*
X97209783Y-72324231D02*
X97176450Y-72390898D01*
X97176450Y-72390898D02*
X97176450Y-72557565D01*
X97176450Y-72557565D02*
X97209783Y-72624231D01*
X97209783Y-72624231D02*
X97243116Y-72657565D01*
X97243116Y-72657565D02*
X97309783Y-72690898D01*
X97309783Y-72690898D02*
X97476450Y-72690898D01*
X97476450Y-72690898D02*
X97543116Y-72657565D01*
X97543116Y-72657565D02*
X97576450Y-72624231D01*
X97576450Y-72624231D02*
X97609783Y-72557565D01*
X97609783Y-72557565D02*
X97609783Y-72390898D01*
X97609783Y-72390898D02*
X97576450Y-72324231D01*
X97576450Y-72324231D02*
X97543116Y-72290898D01*
X195550000Y-110719283D02*
X195783333Y-110385950D01*
X195950000Y-110719283D02*
X195950000Y-110019283D01*
X195950000Y-110019283D02*
X195683333Y-110019283D01*
X195683333Y-110019283D02*
X195616667Y-110052616D01*
X195616667Y-110052616D02*
X195583333Y-110085950D01*
X195583333Y-110085950D02*
X195550000Y-110152616D01*
X195550000Y-110152616D02*
X195550000Y-110252616D01*
X195550000Y-110252616D02*
X195583333Y-110319283D01*
X195583333Y-110319283D02*
X195616667Y-110352616D01*
X195616667Y-110352616D02*
X195683333Y-110385950D01*
X195683333Y-110385950D02*
X195950000Y-110385950D01*
X195283333Y-110085950D02*
X195250000Y-110052616D01*
X195250000Y-110052616D02*
X195183333Y-110019283D01*
X195183333Y-110019283D02*
X195016667Y-110019283D01*
X195016667Y-110019283D02*
X194950000Y-110052616D01*
X194950000Y-110052616D02*
X194916667Y-110085950D01*
X194916667Y-110085950D02*
X194883333Y-110152616D01*
X194883333Y-110152616D02*
X194883333Y-110219283D01*
X194883333Y-110219283D02*
X194916667Y-110319283D01*
X194916667Y-110319283D02*
X195316667Y-110719283D01*
X195316667Y-110719283D02*
X194883333Y-110719283D01*
X194283333Y-110252616D02*
X194283333Y-110719283D01*
X194450000Y-109985950D02*
X194616666Y-110485950D01*
X194616666Y-110485950D02*
X194183333Y-110485950D01*
X163016666Y-106119283D02*
X163249999Y-105785950D01*
X163416666Y-106119283D02*
X163416666Y-105419283D01*
X163416666Y-105419283D02*
X163149999Y-105419283D01*
X163149999Y-105419283D02*
X163083333Y-105452616D01*
X163083333Y-105452616D02*
X163049999Y-105485950D01*
X163049999Y-105485950D02*
X163016666Y-105552616D01*
X163016666Y-105552616D02*
X163016666Y-105652616D01*
X163016666Y-105652616D02*
X163049999Y-105719283D01*
X163049999Y-105719283D02*
X163083333Y-105752616D01*
X163083333Y-105752616D02*
X163149999Y-105785950D01*
X163149999Y-105785950D02*
X163416666Y-105785950D01*
X162749999Y-105485950D02*
X162716666Y-105452616D01*
X162716666Y-105452616D02*
X162649999Y-105419283D01*
X162649999Y-105419283D02*
X162483333Y-105419283D01*
X162483333Y-105419283D02*
X162416666Y-105452616D01*
X162416666Y-105452616D02*
X162383333Y-105485950D01*
X162383333Y-105485950D02*
X162349999Y-105552616D01*
X162349999Y-105552616D02*
X162349999Y-105619283D01*
X162349999Y-105619283D02*
X162383333Y-105719283D01*
X162383333Y-105719283D02*
X162783333Y-106119283D01*
X162783333Y-106119283D02*
X162349999Y-106119283D01*
X169916666Y-107452616D02*
X169949999Y-107485950D01*
X169949999Y-107485950D02*
X170049999Y-107519283D01*
X170049999Y-107519283D02*
X170116666Y-107519283D01*
X170116666Y-107519283D02*
X170216666Y-107485950D01*
X170216666Y-107485950D02*
X170283333Y-107419283D01*
X170283333Y-107419283D02*
X170316666Y-107352616D01*
X170316666Y-107352616D02*
X170349999Y-107219283D01*
X170349999Y-107219283D02*
X170349999Y-107119283D01*
X170349999Y-107119283D02*
X170316666Y-106985950D01*
X170316666Y-106985950D02*
X170283333Y-106919283D01*
X170283333Y-106919283D02*
X170216666Y-106852616D01*
X170216666Y-106852616D02*
X170116666Y-106819283D01*
X170116666Y-106819283D02*
X170049999Y-106819283D01*
X170049999Y-106819283D02*
X169949999Y-106852616D01*
X169949999Y-106852616D02*
X169916666Y-106885950D01*
X169249999Y-107519283D02*
X169649999Y-107519283D01*
X169449999Y-107519283D02*
X169449999Y-106819283D01*
X169449999Y-106819283D02*
X169516666Y-106919283D01*
X169516666Y-106919283D02*
X169583333Y-106985950D01*
X169583333Y-106985950D02*
X169649999Y-107019283D01*
X146709101Y-60376450D02*
X146609101Y-60409783D01*
X146609101Y-60409783D02*
X146442435Y-60409783D01*
X146442435Y-60409783D02*
X146375768Y-60376450D01*
X146375768Y-60376450D02*
X146342435Y-60343116D01*
X146342435Y-60343116D02*
X146309101Y-60276450D01*
X146309101Y-60276450D02*
X146309101Y-60209783D01*
X146309101Y-60209783D02*
X146342435Y-60143116D01*
X146342435Y-60143116D02*
X146375768Y-60109783D01*
X146375768Y-60109783D02*
X146442435Y-60076450D01*
X146442435Y-60076450D02*
X146575768Y-60043116D01*
X146575768Y-60043116D02*
X146642435Y-60009783D01*
X146642435Y-60009783D02*
X146675768Y-59976450D01*
X146675768Y-59976450D02*
X146709101Y-59909783D01*
X146709101Y-59909783D02*
X146709101Y-59843116D01*
X146709101Y-59843116D02*
X146675768Y-59776450D01*
X146675768Y-59776450D02*
X146642435Y-59743116D01*
X146642435Y-59743116D02*
X146575768Y-59709783D01*
X146575768Y-59709783D02*
X146409101Y-59709783D01*
X146409101Y-59709783D02*
X146309101Y-59743116D01*
X145609101Y-60343116D02*
X145642434Y-60376450D01*
X145642434Y-60376450D02*
X145742434Y-60409783D01*
X145742434Y-60409783D02*
X145809101Y-60409783D01*
X145809101Y-60409783D02*
X145909101Y-60376450D01*
X145909101Y-60376450D02*
X145975768Y-60309783D01*
X145975768Y-60309783D02*
X146009101Y-60243116D01*
X146009101Y-60243116D02*
X146042434Y-60109783D01*
X146042434Y-60109783D02*
X146042434Y-60009783D01*
X146042434Y-60009783D02*
X146009101Y-59876450D01*
X146009101Y-59876450D02*
X145975768Y-59809783D01*
X145975768Y-59809783D02*
X145909101Y-59743116D01*
X145909101Y-59743116D02*
X145809101Y-59709783D01*
X145809101Y-59709783D02*
X145742434Y-59709783D01*
X145742434Y-59709783D02*
X145642434Y-59743116D01*
X145642434Y-59743116D02*
X145609101Y-59776450D01*
X145309101Y-60409783D02*
X145309101Y-59709783D01*
X144909101Y-60409783D02*
X145209101Y-60009783D01*
X144909101Y-59709783D02*
X145309101Y-60109783D01*
X144075768Y-60409783D02*
X144075768Y-59709783D01*
X144075768Y-59709783D02*
X143842435Y-60209783D01*
X143842435Y-60209783D02*
X143609101Y-59709783D01*
X143609101Y-59709783D02*
X143609101Y-60409783D01*
X143275768Y-60409783D02*
X143275768Y-59709783D01*
X142975768Y-60376450D02*
X142875768Y-60409783D01*
X142875768Y-60409783D02*
X142709102Y-60409783D01*
X142709102Y-60409783D02*
X142642435Y-60376450D01*
X142642435Y-60376450D02*
X142609102Y-60343116D01*
X142609102Y-60343116D02*
X142575768Y-60276450D01*
X142575768Y-60276450D02*
X142575768Y-60209783D01*
X142575768Y-60209783D02*
X142609102Y-60143116D01*
X142609102Y-60143116D02*
X142642435Y-60109783D01*
X142642435Y-60109783D02*
X142709102Y-60076450D01*
X142709102Y-60076450D02*
X142842435Y-60043116D01*
X142842435Y-60043116D02*
X142909102Y-60009783D01*
X142909102Y-60009783D02*
X142942435Y-59976450D01*
X142942435Y-59976450D02*
X142975768Y-59909783D01*
X142975768Y-59909783D02*
X142975768Y-59843116D01*
X142975768Y-59843116D02*
X142942435Y-59776450D01*
X142942435Y-59776450D02*
X142909102Y-59743116D01*
X142909102Y-59743116D02*
X142842435Y-59709783D01*
X142842435Y-59709783D02*
X142675768Y-59709783D01*
X142675768Y-59709783D02*
X142575768Y-59743116D01*
X142142435Y-59709783D02*
X142009101Y-59709783D01*
X142009101Y-59709783D02*
X141942435Y-59743116D01*
X141942435Y-59743116D02*
X141875768Y-59809783D01*
X141875768Y-59809783D02*
X141842435Y-59943116D01*
X141842435Y-59943116D02*
X141842435Y-60176450D01*
X141842435Y-60176450D02*
X141875768Y-60309783D01*
X141875768Y-60309783D02*
X141942435Y-60376450D01*
X141942435Y-60376450D02*
X142009101Y-60409783D01*
X142009101Y-60409783D02*
X142142435Y-60409783D01*
X142142435Y-60409783D02*
X142209101Y-60376450D01*
X142209101Y-60376450D02*
X142275768Y-60309783D01*
X142275768Y-60309783D02*
X142309101Y-60176450D01*
X142309101Y-60176450D02*
X142309101Y-59943116D01*
X142309101Y-59943116D02*
X142275768Y-59809783D01*
X142275768Y-59809783D02*
X142209101Y-59743116D01*
X142209101Y-59743116D02*
X142142435Y-59709783D01*
X141009102Y-60409783D02*
X141009102Y-59709783D01*
X141009102Y-59709783D02*
X140775769Y-60209783D01*
X140775769Y-60209783D02*
X140542435Y-59709783D01*
X140542435Y-59709783D02*
X140542435Y-60409783D01*
X140075769Y-59709783D02*
X139942435Y-59709783D01*
X139942435Y-59709783D02*
X139875769Y-59743116D01*
X139875769Y-59743116D02*
X139809102Y-59809783D01*
X139809102Y-59809783D02*
X139775769Y-59943116D01*
X139775769Y-59943116D02*
X139775769Y-60176450D01*
X139775769Y-60176450D02*
X139809102Y-60309783D01*
X139809102Y-60309783D02*
X139875769Y-60376450D01*
X139875769Y-60376450D02*
X139942435Y-60409783D01*
X139942435Y-60409783D02*
X140075769Y-60409783D01*
X140075769Y-60409783D02*
X140142435Y-60376450D01*
X140142435Y-60376450D02*
X140209102Y-60309783D01*
X140209102Y-60309783D02*
X140242435Y-60176450D01*
X140242435Y-60176450D02*
X140242435Y-59943116D01*
X140242435Y-59943116D02*
X140209102Y-59809783D01*
X140209102Y-59809783D02*
X140142435Y-59743116D01*
X140142435Y-59743116D02*
X140075769Y-59709783D01*
X139509102Y-60376450D02*
X139409102Y-60409783D01*
X139409102Y-60409783D02*
X139242436Y-60409783D01*
X139242436Y-60409783D02*
X139175769Y-60376450D01*
X139175769Y-60376450D02*
X139142436Y-60343116D01*
X139142436Y-60343116D02*
X139109102Y-60276450D01*
X139109102Y-60276450D02*
X139109102Y-60209783D01*
X139109102Y-60209783D02*
X139142436Y-60143116D01*
X139142436Y-60143116D02*
X139175769Y-60109783D01*
X139175769Y-60109783D02*
X139242436Y-60076450D01*
X139242436Y-60076450D02*
X139375769Y-60043116D01*
X139375769Y-60043116D02*
X139442436Y-60009783D01*
X139442436Y-60009783D02*
X139475769Y-59976450D01*
X139475769Y-59976450D02*
X139509102Y-59909783D01*
X139509102Y-59909783D02*
X139509102Y-59843116D01*
X139509102Y-59843116D02*
X139475769Y-59776450D01*
X139475769Y-59776450D02*
X139442436Y-59743116D01*
X139442436Y-59743116D02*
X139375769Y-59709783D01*
X139375769Y-59709783D02*
X139209102Y-59709783D01*
X139209102Y-59709783D02*
X139109102Y-59743116D01*
X138809102Y-60409783D02*
X138809102Y-59709783D01*
X138042436Y-59709783D02*
X137642436Y-59709783D01*
X137842436Y-60409783D02*
X137842436Y-59709783D01*
X137475770Y-59709783D02*
X137009103Y-60409783D01*
X137009103Y-59709783D02*
X137475770Y-60409783D01*
X136609103Y-59709783D02*
X136542436Y-59709783D01*
X136542436Y-59709783D02*
X136475769Y-59743116D01*
X136475769Y-59743116D02*
X136442436Y-59776450D01*
X136442436Y-59776450D02*
X136409103Y-59843116D01*
X136409103Y-59843116D02*
X136375769Y-59976450D01*
X136375769Y-59976450D02*
X136375769Y-60143116D01*
X136375769Y-60143116D02*
X136409103Y-60276450D01*
X136409103Y-60276450D02*
X136442436Y-60343116D01*
X136442436Y-60343116D02*
X136475769Y-60376450D01*
X136475769Y-60376450D02*
X136542436Y-60409783D01*
X136542436Y-60409783D02*
X136609103Y-60409783D01*
X136609103Y-60409783D02*
X136675769Y-60376450D01*
X136675769Y-60376450D02*
X136709103Y-60343116D01*
X136709103Y-60343116D02*
X136742436Y-60276450D01*
X136742436Y-60276450D02*
X136775769Y-60143116D01*
X136775769Y-60143116D02*
X136775769Y-59976450D01*
X136775769Y-59976450D02*
X136742436Y-59843116D01*
X136742436Y-59843116D02*
X136709103Y-59776450D01*
X136709103Y-59776450D02*
X136675769Y-59743116D01*
X136675769Y-59743116D02*
X136609103Y-59709783D01*
X148175768Y-54309783D02*
X147942435Y-55009783D01*
X147942435Y-55009783D02*
X147709101Y-54309783D01*
X147509101Y-54976450D02*
X147409101Y-55009783D01*
X147409101Y-55009783D02*
X147242435Y-55009783D01*
X147242435Y-55009783D02*
X147175768Y-54976450D01*
X147175768Y-54976450D02*
X147142435Y-54943116D01*
X147142435Y-54943116D02*
X147109101Y-54876450D01*
X147109101Y-54876450D02*
X147109101Y-54809783D01*
X147109101Y-54809783D02*
X147142435Y-54743116D01*
X147142435Y-54743116D02*
X147175768Y-54709783D01*
X147175768Y-54709783D02*
X147242435Y-54676450D01*
X147242435Y-54676450D02*
X147375768Y-54643116D01*
X147375768Y-54643116D02*
X147442435Y-54609783D01*
X147442435Y-54609783D02*
X147475768Y-54576450D01*
X147475768Y-54576450D02*
X147509101Y-54509783D01*
X147509101Y-54509783D02*
X147509101Y-54443116D01*
X147509101Y-54443116D02*
X147475768Y-54376450D01*
X147475768Y-54376450D02*
X147442435Y-54343116D01*
X147442435Y-54343116D02*
X147375768Y-54309783D01*
X147375768Y-54309783D02*
X147209101Y-54309783D01*
X147209101Y-54309783D02*
X147109101Y-54343116D01*
X146809101Y-55009783D02*
X146809101Y-54309783D01*
X146809101Y-54309783D02*
X146542434Y-54309783D01*
X146542434Y-54309783D02*
X146475768Y-54343116D01*
X146475768Y-54343116D02*
X146442434Y-54376450D01*
X146442434Y-54376450D02*
X146409101Y-54443116D01*
X146409101Y-54443116D02*
X146409101Y-54543116D01*
X146409101Y-54543116D02*
X146442434Y-54609783D01*
X146442434Y-54609783D02*
X146475768Y-54643116D01*
X146475768Y-54643116D02*
X146542434Y-54676450D01*
X146542434Y-54676450D02*
X146809101Y-54676450D01*
X146109101Y-55009783D02*
X146109101Y-54309783D01*
X145942435Y-55076450D02*
X145409101Y-55076450D01*
X144842435Y-54943116D02*
X144875768Y-54976450D01*
X144875768Y-54976450D02*
X144975768Y-55009783D01*
X144975768Y-55009783D02*
X145042435Y-55009783D01*
X145042435Y-55009783D02*
X145142435Y-54976450D01*
X145142435Y-54976450D02*
X145209102Y-54909783D01*
X145209102Y-54909783D02*
X145242435Y-54843116D01*
X145242435Y-54843116D02*
X145275768Y-54709783D01*
X145275768Y-54709783D02*
X145275768Y-54609783D01*
X145275768Y-54609783D02*
X145242435Y-54476450D01*
X145242435Y-54476450D02*
X145209102Y-54409783D01*
X145209102Y-54409783D02*
X145142435Y-54343116D01*
X145142435Y-54343116D02*
X145042435Y-54309783D01*
X145042435Y-54309783D02*
X144975768Y-54309783D01*
X144975768Y-54309783D02*
X144875768Y-54343116D01*
X144875768Y-54343116D02*
X144842435Y-54376450D01*
X144575768Y-54976450D02*
X144475768Y-55009783D01*
X144475768Y-55009783D02*
X144309102Y-55009783D01*
X144309102Y-55009783D02*
X144242435Y-54976450D01*
X144242435Y-54976450D02*
X144209102Y-54943116D01*
X144209102Y-54943116D02*
X144175768Y-54876450D01*
X144175768Y-54876450D02*
X144175768Y-54809783D01*
X144175768Y-54809783D02*
X144209102Y-54743116D01*
X144209102Y-54743116D02*
X144242435Y-54709783D01*
X144242435Y-54709783D02*
X144309102Y-54676450D01*
X144309102Y-54676450D02*
X144442435Y-54643116D01*
X144442435Y-54643116D02*
X144509102Y-54609783D01*
X144509102Y-54609783D02*
X144542435Y-54576450D01*
X144542435Y-54576450D02*
X144575768Y-54509783D01*
X144575768Y-54509783D02*
X144575768Y-54443116D01*
X144575768Y-54443116D02*
X144542435Y-54376450D01*
X144542435Y-54376450D02*
X144509102Y-54343116D01*
X144509102Y-54343116D02*
X144442435Y-54309783D01*
X144442435Y-54309783D02*
X144275768Y-54309783D01*
X144275768Y-54309783D02*
X144175768Y-54343116D01*
X142975768Y-54343116D02*
X143042435Y-54309783D01*
X143042435Y-54309783D02*
X143142435Y-54309783D01*
X143142435Y-54309783D02*
X143242435Y-54343116D01*
X143242435Y-54343116D02*
X143309102Y-54409783D01*
X143309102Y-54409783D02*
X143342435Y-54476450D01*
X143342435Y-54476450D02*
X143375768Y-54609783D01*
X143375768Y-54609783D02*
X143375768Y-54709783D01*
X143375768Y-54709783D02*
X143342435Y-54843116D01*
X143342435Y-54843116D02*
X143309102Y-54909783D01*
X143309102Y-54909783D02*
X143242435Y-54976450D01*
X143242435Y-54976450D02*
X143142435Y-55009783D01*
X143142435Y-55009783D02*
X143075768Y-55009783D01*
X143075768Y-55009783D02*
X142975768Y-54976450D01*
X142975768Y-54976450D02*
X142942435Y-54943116D01*
X142942435Y-54943116D02*
X142942435Y-54709783D01*
X142942435Y-54709783D02*
X143075768Y-54709783D01*
X142642435Y-55009783D02*
X142642435Y-54309783D01*
X142642435Y-54309783D02*
X142242435Y-55009783D01*
X142242435Y-55009783D02*
X142242435Y-54309783D01*
X141909102Y-55009783D02*
X141909102Y-54309783D01*
X141909102Y-54309783D02*
X141742435Y-54309783D01*
X141742435Y-54309783D02*
X141642435Y-54343116D01*
X141642435Y-54343116D02*
X141575769Y-54409783D01*
X141575769Y-54409783D02*
X141542435Y-54476450D01*
X141542435Y-54476450D02*
X141509102Y-54609783D01*
X141509102Y-54609783D02*
X141509102Y-54709783D01*
X141509102Y-54709783D02*
X141542435Y-54843116D01*
X141542435Y-54843116D02*
X141575769Y-54909783D01*
X141575769Y-54909783D02*
X141642435Y-54976450D01*
X141642435Y-54976450D02*
X141742435Y-55009783D01*
X141742435Y-55009783D02*
X141909102Y-55009783D01*
X140709102Y-54976450D02*
X140609102Y-55009783D01*
X140609102Y-55009783D02*
X140442436Y-55009783D01*
X140442436Y-55009783D02*
X140375769Y-54976450D01*
X140375769Y-54976450D02*
X140342436Y-54943116D01*
X140342436Y-54943116D02*
X140309102Y-54876450D01*
X140309102Y-54876450D02*
X140309102Y-54809783D01*
X140309102Y-54809783D02*
X140342436Y-54743116D01*
X140342436Y-54743116D02*
X140375769Y-54709783D01*
X140375769Y-54709783D02*
X140442436Y-54676450D01*
X140442436Y-54676450D02*
X140575769Y-54643116D01*
X140575769Y-54643116D02*
X140642436Y-54609783D01*
X140642436Y-54609783D02*
X140675769Y-54576450D01*
X140675769Y-54576450D02*
X140709102Y-54509783D01*
X140709102Y-54509783D02*
X140709102Y-54443116D01*
X140709102Y-54443116D02*
X140675769Y-54376450D01*
X140675769Y-54376450D02*
X140642436Y-54343116D01*
X140642436Y-54343116D02*
X140575769Y-54309783D01*
X140575769Y-54309783D02*
X140409102Y-54309783D01*
X140409102Y-54309783D02*
X140309102Y-54343116D01*
X139609102Y-54943116D02*
X139642435Y-54976450D01*
X139642435Y-54976450D02*
X139742435Y-55009783D01*
X139742435Y-55009783D02*
X139809102Y-55009783D01*
X139809102Y-55009783D02*
X139909102Y-54976450D01*
X139909102Y-54976450D02*
X139975769Y-54909783D01*
X139975769Y-54909783D02*
X140009102Y-54843116D01*
X140009102Y-54843116D02*
X140042435Y-54709783D01*
X140042435Y-54709783D02*
X140042435Y-54609783D01*
X140042435Y-54609783D02*
X140009102Y-54476450D01*
X140009102Y-54476450D02*
X139975769Y-54409783D01*
X139975769Y-54409783D02*
X139909102Y-54343116D01*
X139909102Y-54343116D02*
X139809102Y-54309783D01*
X139809102Y-54309783D02*
X139742435Y-54309783D01*
X139742435Y-54309783D02*
X139642435Y-54343116D01*
X139642435Y-54343116D02*
X139609102Y-54376450D01*
X138975769Y-55009783D02*
X139309102Y-55009783D01*
X139309102Y-55009783D02*
X139309102Y-54309783D01*
X137809102Y-55009783D02*
X138042435Y-54676450D01*
X138209102Y-55009783D02*
X138209102Y-54309783D01*
X138209102Y-54309783D02*
X137942435Y-54309783D01*
X137942435Y-54309783D02*
X137875769Y-54343116D01*
X137875769Y-54343116D02*
X137842435Y-54376450D01*
X137842435Y-54376450D02*
X137809102Y-54443116D01*
X137809102Y-54443116D02*
X137809102Y-54543116D01*
X137809102Y-54543116D02*
X137842435Y-54609783D01*
X137842435Y-54609783D02*
X137875769Y-54643116D01*
X137875769Y-54643116D02*
X137942435Y-54676450D01*
X137942435Y-54676450D02*
X138209102Y-54676450D01*
X137575769Y-54309783D02*
X137109102Y-55009783D01*
X137109102Y-54309783D02*
X137575769Y-55009783D01*
X136709102Y-54309783D02*
X136575768Y-54309783D01*
X136575768Y-54309783D02*
X136509102Y-54343116D01*
X136509102Y-54343116D02*
X136442435Y-54409783D01*
X136442435Y-54409783D02*
X136409102Y-54543116D01*
X136409102Y-54543116D02*
X136409102Y-54776450D01*
X136409102Y-54776450D02*
X136442435Y-54909783D01*
X136442435Y-54909783D02*
X136509102Y-54976450D01*
X136509102Y-54976450D02*
X136575768Y-55009783D01*
X136575768Y-55009783D02*
X136709102Y-55009783D01*
X136709102Y-55009783D02*
X136775768Y-54976450D01*
X136775768Y-54976450D02*
X136842435Y-54909783D01*
X136842435Y-54909783D02*
X136875768Y-54776450D01*
X136875768Y-54776450D02*
X136875768Y-54543116D01*
X136875768Y-54543116D02*
X136842435Y-54409783D01*
X136842435Y-54409783D02*
X136775768Y-54343116D01*
X136775768Y-54343116D02*
X136709102Y-54309783D01*
X96809783Y-69724231D02*
X96476450Y-69490898D01*
X96809783Y-69324231D02*
X96109783Y-69324231D01*
X96109783Y-69324231D02*
X96109783Y-69590898D01*
X96109783Y-69590898D02*
X96143116Y-69657565D01*
X96143116Y-69657565D02*
X96176450Y-69690898D01*
X96176450Y-69690898D02*
X96243116Y-69724231D01*
X96243116Y-69724231D02*
X96343116Y-69724231D01*
X96343116Y-69724231D02*
X96409783Y-69690898D01*
X96409783Y-69690898D02*
X96443116Y-69657565D01*
X96443116Y-69657565D02*
X96476450Y-69590898D01*
X96476450Y-69590898D02*
X96476450Y-69324231D01*
X96109783Y-69957565D02*
X96109783Y-70424231D01*
X96109783Y-70424231D02*
X96809783Y-70124231D01*
X196019283Y-91949999D02*
X195685950Y-91716666D01*
X196019283Y-91549999D02*
X195319283Y-91549999D01*
X195319283Y-91549999D02*
X195319283Y-91816666D01*
X195319283Y-91816666D02*
X195352616Y-91883333D01*
X195352616Y-91883333D02*
X195385950Y-91916666D01*
X195385950Y-91916666D02*
X195452616Y-91949999D01*
X195452616Y-91949999D02*
X195552616Y-91949999D01*
X195552616Y-91949999D02*
X195619283Y-91916666D01*
X195619283Y-91916666D02*
X195652616Y-91883333D01*
X195652616Y-91883333D02*
X195685950Y-91816666D01*
X195685950Y-91816666D02*
X195685950Y-91549999D01*
X196019283Y-92616666D02*
X196019283Y-92216666D01*
X196019283Y-92416666D02*
X195319283Y-92416666D01*
X195319283Y-92416666D02*
X195419283Y-92349999D01*
X195419283Y-92349999D02*
X195485950Y-92283333D01*
X195485950Y-92283333D02*
X195519283Y-92216666D01*
X196019283Y-92950000D02*
X196019283Y-93083333D01*
X196019283Y-93083333D02*
X195985950Y-93150000D01*
X195985950Y-93150000D02*
X195952616Y-93183333D01*
X195952616Y-93183333D02*
X195852616Y-93250000D01*
X195852616Y-93250000D02*
X195719283Y-93283333D01*
X195719283Y-93283333D02*
X195452616Y-93283333D01*
X195452616Y-93283333D02*
X195385950Y-93250000D01*
X195385950Y-93250000D02*
X195352616Y-93216666D01*
X195352616Y-93216666D02*
X195319283Y-93150000D01*
X195319283Y-93150000D02*
X195319283Y-93016666D01*
X195319283Y-93016666D02*
X195352616Y-92950000D01*
X195352616Y-92950000D02*
X195385950Y-92916666D01*
X195385950Y-92916666D02*
X195452616Y-92883333D01*
X195452616Y-92883333D02*
X195619283Y-92883333D01*
X195619283Y-92883333D02*
X195685950Y-92916666D01*
X195685950Y-92916666D02*
X195719283Y-92950000D01*
X195719283Y-92950000D02*
X195752616Y-93016666D01*
X195752616Y-93016666D02*
X195752616Y-93150000D01*
X195752616Y-93150000D02*
X195719283Y-93216666D01*
X195719283Y-93216666D02*
X195685950Y-93250000D01*
X195685950Y-93250000D02*
X195619283Y-93283333D01*
D10*
X188396115Y-95272419D02*
X188396115Y-94272419D01*
X188396115Y-94272419D02*
X188158020Y-94272419D01*
X188158020Y-94272419D02*
X188015163Y-94320038D01*
X188015163Y-94320038D02*
X187919925Y-94415276D01*
X187919925Y-94415276D02*
X187872306Y-94510514D01*
X187872306Y-94510514D02*
X187824687Y-94700990D01*
X187824687Y-94700990D02*
X187824687Y-94843847D01*
X187824687Y-94843847D02*
X187872306Y-95034323D01*
X187872306Y-95034323D02*
X187919925Y-95129561D01*
X187919925Y-95129561D02*
X188015163Y-95224800D01*
X188015163Y-95224800D02*
X188158020Y-95272419D01*
X188158020Y-95272419D02*
X188396115Y-95272419D01*
X187491353Y-94272419D02*
X186824687Y-94272419D01*
X186824687Y-94272419D02*
X187253258Y-95272419D01*
D11*
X97109783Y-74624231D02*
X96776450Y-74390898D01*
X97109783Y-74224231D02*
X96409783Y-74224231D01*
X96409783Y-74224231D02*
X96409783Y-74490898D01*
X96409783Y-74490898D02*
X96443116Y-74557565D01*
X96443116Y-74557565D02*
X96476450Y-74590898D01*
X96476450Y-74590898D02*
X96543116Y-74624231D01*
X96543116Y-74624231D02*
X96643116Y-74624231D01*
X96643116Y-74624231D02*
X96709783Y-74590898D01*
X96709783Y-74590898D02*
X96743116Y-74557565D01*
X96743116Y-74557565D02*
X96776450Y-74490898D01*
X96776450Y-74490898D02*
X96776450Y-74224231D01*
X96643116Y-75224231D02*
X97109783Y-75224231D01*
X96376450Y-75057565D02*
X96876450Y-74890898D01*
X96876450Y-74890898D02*
X96876450Y-75324231D01*
D10*
X91896115Y-109172419D02*
X91896115Y-108172419D01*
X91896115Y-108172419D02*
X91658020Y-108172419D01*
X91658020Y-108172419D02*
X91515163Y-108220038D01*
X91515163Y-108220038D02*
X91419925Y-108315276D01*
X91419925Y-108315276D02*
X91372306Y-108410514D01*
X91372306Y-108410514D02*
X91324687Y-108600990D01*
X91324687Y-108600990D02*
X91324687Y-108743847D01*
X91324687Y-108743847D02*
X91372306Y-108934323D01*
X91372306Y-108934323D02*
X91419925Y-109029561D01*
X91419925Y-109029561D02*
X91515163Y-109124800D01*
X91515163Y-109124800D02*
X91658020Y-109172419D01*
X91658020Y-109172419D02*
X91896115Y-109172419D01*
X90467544Y-108505752D02*
X90467544Y-109172419D01*
X90705639Y-108124800D02*
X90943734Y-108839085D01*
X90943734Y-108839085D02*
X90324687Y-108839085D01*
X193296115Y-79672419D02*
X193296115Y-78672419D01*
X192724687Y-79672419D02*
X193153258Y-79100990D01*
X192724687Y-78672419D02*
X193296115Y-79243847D01*
X192343734Y-78767657D02*
X192296115Y-78720038D01*
X192296115Y-78720038D02*
X192200877Y-78672419D01*
X192200877Y-78672419D02*
X191962782Y-78672419D01*
X191962782Y-78672419D02*
X191867544Y-78720038D01*
X191867544Y-78720038D02*
X191819925Y-78767657D01*
X191819925Y-78767657D02*
X191772306Y-78862895D01*
X191772306Y-78862895D02*
X191772306Y-78958133D01*
X191772306Y-78958133D02*
X191819925Y-79100990D01*
X191819925Y-79100990D02*
X192391353Y-79672419D01*
X192391353Y-79672419D02*
X191772306Y-79672419D01*
D11*
X191719283Y-97349999D02*
X191385950Y-97116666D01*
X191719283Y-96949999D02*
X191019283Y-96949999D01*
X191019283Y-96949999D02*
X191019283Y-97216666D01*
X191019283Y-97216666D02*
X191052616Y-97283333D01*
X191052616Y-97283333D02*
X191085950Y-97316666D01*
X191085950Y-97316666D02*
X191152616Y-97349999D01*
X191152616Y-97349999D02*
X191252616Y-97349999D01*
X191252616Y-97349999D02*
X191319283Y-97316666D01*
X191319283Y-97316666D02*
X191352616Y-97283333D01*
X191352616Y-97283333D02*
X191385950Y-97216666D01*
X191385950Y-97216666D02*
X191385950Y-96949999D01*
X191719283Y-98016666D02*
X191719283Y-97616666D01*
X191719283Y-97816666D02*
X191019283Y-97816666D01*
X191019283Y-97816666D02*
X191119283Y-97749999D01*
X191119283Y-97749999D02*
X191185950Y-97683333D01*
X191185950Y-97683333D02*
X191219283Y-97616666D01*
X191019283Y-98250000D02*
X191019283Y-98716666D01*
X191019283Y-98716666D02*
X191719283Y-98416666D01*
D10*
X103062782Y-56133030D02*
X103443734Y-56133030D01*
X103443734Y-56133030D02*
X103443734Y-55333030D01*
X102834211Y-56094935D02*
X102719925Y-56133030D01*
X102719925Y-56133030D02*
X102529449Y-56133030D01*
X102529449Y-56133030D02*
X102453258Y-56094935D01*
X102453258Y-56094935D02*
X102415163Y-56056839D01*
X102415163Y-56056839D02*
X102377068Y-55980649D01*
X102377068Y-55980649D02*
X102377068Y-55904458D01*
X102377068Y-55904458D02*
X102415163Y-55828268D01*
X102415163Y-55828268D02*
X102453258Y-55790173D01*
X102453258Y-55790173D02*
X102529449Y-55752077D01*
X102529449Y-55752077D02*
X102681830Y-55713982D01*
X102681830Y-55713982D02*
X102758020Y-55675887D01*
X102758020Y-55675887D02*
X102796115Y-55637792D01*
X102796115Y-55637792D02*
X102834211Y-55561601D01*
X102834211Y-55561601D02*
X102834211Y-55485411D01*
X102834211Y-55485411D02*
X102796115Y-55409220D01*
X102796115Y-55409220D02*
X102758020Y-55371125D01*
X102758020Y-55371125D02*
X102681830Y-55333030D01*
X102681830Y-55333030D02*
X102491353Y-55333030D01*
X102491353Y-55333030D02*
X102377068Y-55371125D01*
X101424686Y-55828268D02*
X100815163Y-55828268D01*
X99443734Y-56133030D02*
X99824686Y-56133030D01*
X99824686Y-56133030D02*
X99824686Y-55333030D01*
X99177067Y-56133030D02*
X99177067Y-55599696D01*
X99177067Y-55333030D02*
X99215163Y-55371125D01*
X99215163Y-55371125D02*
X99177067Y-55409220D01*
X99177067Y-55409220D02*
X99138972Y-55371125D01*
X99138972Y-55371125D02*
X99177067Y-55333030D01*
X99177067Y-55333030D02*
X99177067Y-55409220D01*
X98453258Y-55599696D02*
X98453258Y-56247315D01*
X98453258Y-56247315D02*
X98491353Y-56323506D01*
X98491353Y-56323506D02*
X98529449Y-56361601D01*
X98529449Y-56361601D02*
X98605639Y-56399696D01*
X98605639Y-56399696D02*
X98719925Y-56399696D01*
X98719925Y-56399696D02*
X98796115Y-56361601D01*
X98453258Y-56094935D02*
X98529449Y-56133030D01*
X98529449Y-56133030D02*
X98681830Y-56133030D01*
X98681830Y-56133030D02*
X98758020Y-56094935D01*
X98758020Y-56094935D02*
X98796115Y-56056839D01*
X98796115Y-56056839D02*
X98834211Y-55980649D01*
X98834211Y-55980649D02*
X98834211Y-55752077D01*
X98834211Y-55752077D02*
X98796115Y-55675887D01*
X98796115Y-55675887D02*
X98758020Y-55637792D01*
X98758020Y-55637792D02*
X98681830Y-55599696D01*
X98681830Y-55599696D02*
X98529449Y-55599696D01*
X98529449Y-55599696D02*
X98453258Y-55637792D01*
X98072305Y-56133030D02*
X98072305Y-55333030D01*
X97729448Y-56133030D02*
X97729448Y-55713982D01*
X97729448Y-55713982D02*
X97767543Y-55637792D01*
X97767543Y-55637792D02*
X97843734Y-55599696D01*
X97843734Y-55599696D02*
X97958020Y-55599696D01*
X97958020Y-55599696D02*
X98034210Y-55637792D01*
X98034210Y-55637792D02*
X98072305Y-55675887D01*
X97462781Y-55599696D02*
X97158019Y-55599696D01*
X97348495Y-55333030D02*
X97348495Y-56018744D01*
X97348495Y-56018744D02*
X97310400Y-56094935D01*
X97310400Y-56094935D02*
X97234210Y-56133030D01*
X97234210Y-56133030D02*
X97158019Y-56133030D01*
X96319924Y-56094935D02*
X96205638Y-56133030D01*
X96205638Y-56133030D02*
X96015162Y-56133030D01*
X96015162Y-56133030D02*
X95938971Y-56094935D01*
X95938971Y-56094935D02*
X95900876Y-56056839D01*
X95900876Y-56056839D02*
X95862781Y-55980649D01*
X95862781Y-55980649D02*
X95862781Y-55904458D01*
X95862781Y-55904458D02*
X95900876Y-55828268D01*
X95900876Y-55828268D02*
X95938971Y-55790173D01*
X95938971Y-55790173D02*
X96015162Y-55752077D01*
X96015162Y-55752077D02*
X96167543Y-55713982D01*
X96167543Y-55713982D02*
X96243733Y-55675887D01*
X96243733Y-55675887D02*
X96281828Y-55637792D01*
X96281828Y-55637792D02*
X96319924Y-55561601D01*
X96319924Y-55561601D02*
X96319924Y-55485411D01*
X96319924Y-55485411D02*
X96281828Y-55409220D01*
X96281828Y-55409220D02*
X96243733Y-55371125D01*
X96243733Y-55371125D02*
X96167543Y-55333030D01*
X96167543Y-55333030D02*
X95977066Y-55333030D01*
X95977066Y-55333030D02*
X95862781Y-55371125D01*
X95215161Y-56094935D02*
X95291352Y-56133030D01*
X95291352Y-56133030D02*
X95443733Y-56133030D01*
X95443733Y-56133030D02*
X95519923Y-56094935D01*
X95519923Y-56094935D02*
X95558019Y-56018744D01*
X95558019Y-56018744D02*
X95558019Y-55713982D01*
X95558019Y-55713982D02*
X95519923Y-55637792D01*
X95519923Y-55637792D02*
X95443733Y-55599696D01*
X95443733Y-55599696D02*
X95291352Y-55599696D01*
X95291352Y-55599696D02*
X95215161Y-55637792D01*
X95215161Y-55637792D02*
X95177066Y-55713982D01*
X95177066Y-55713982D02*
X95177066Y-55790173D01*
X95177066Y-55790173D02*
X95558019Y-55866363D01*
X94834209Y-55599696D02*
X94834209Y-56133030D01*
X94834209Y-55675887D02*
X94796114Y-55637792D01*
X94796114Y-55637792D02*
X94719924Y-55599696D01*
X94719924Y-55599696D02*
X94605638Y-55599696D01*
X94605638Y-55599696D02*
X94529447Y-55637792D01*
X94529447Y-55637792D02*
X94491352Y-55713982D01*
X94491352Y-55713982D02*
X94491352Y-56133030D01*
X94148495Y-56094935D02*
X94072304Y-56133030D01*
X94072304Y-56133030D02*
X93919923Y-56133030D01*
X93919923Y-56133030D02*
X93843733Y-56094935D01*
X93843733Y-56094935D02*
X93805637Y-56018744D01*
X93805637Y-56018744D02*
X93805637Y-55980649D01*
X93805637Y-55980649D02*
X93843733Y-55904458D01*
X93843733Y-55904458D02*
X93919923Y-55866363D01*
X93919923Y-55866363D02*
X94034209Y-55866363D01*
X94034209Y-55866363D02*
X94110399Y-55828268D01*
X94110399Y-55828268D02*
X94148495Y-55752077D01*
X94148495Y-55752077D02*
X94148495Y-55713982D01*
X94148495Y-55713982D02*
X94110399Y-55637792D01*
X94110399Y-55637792D02*
X94034209Y-55599696D01*
X94034209Y-55599696D02*
X93919923Y-55599696D01*
X93919923Y-55599696D02*
X93843733Y-55637792D01*
X93348495Y-56133030D02*
X93424685Y-56094935D01*
X93424685Y-56094935D02*
X93462780Y-56056839D01*
X93462780Y-56056839D02*
X93500876Y-55980649D01*
X93500876Y-55980649D02*
X93500876Y-55752077D01*
X93500876Y-55752077D02*
X93462780Y-55675887D01*
X93462780Y-55675887D02*
X93424685Y-55637792D01*
X93424685Y-55637792D02*
X93348495Y-55599696D01*
X93348495Y-55599696D02*
X93234209Y-55599696D01*
X93234209Y-55599696D02*
X93158018Y-55637792D01*
X93158018Y-55637792D02*
X93119923Y-55675887D01*
X93119923Y-55675887D02*
X93081828Y-55752077D01*
X93081828Y-55752077D02*
X93081828Y-55980649D01*
X93081828Y-55980649D02*
X93119923Y-56056839D01*
X93119923Y-56056839D02*
X93158018Y-56094935D01*
X93158018Y-56094935D02*
X93234209Y-56133030D01*
X93234209Y-56133030D02*
X93348495Y-56133030D01*
X92738970Y-56133030D02*
X92738970Y-55599696D01*
X92738970Y-55752077D02*
X92700875Y-55675887D01*
X92700875Y-55675887D02*
X92662780Y-55637792D01*
X92662780Y-55637792D02*
X92586589Y-55599696D01*
X92586589Y-55599696D02*
X92510399Y-55599696D01*
X103443734Y-57420985D02*
X103443734Y-56620985D01*
X103443734Y-56620985D02*
X103177068Y-57192413D01*
X103177068Y-57192413D02*
X102910401Y-56620985D01*
X102910401Y-56620985D02*
X102910401Y-57420985D01*
X102567544Y-57382890D02*
X102453258Y-57420985D01*
X102453258Y-57420985D02*
X102262782Y-57420985D01*
X102262782Y-57420985D02*
X102186591Y-57382890D01*
X102186591Y-57382890D02*
X102148496Y-57344794D01*
X102148496Y-57344794D02*
X102110401Y-57268604D01*
X102110401Y-57268604D02*
X102110401Y-57192413D01*
X102110401Y-57192413D02*
X102148496Y-57116223D01*
X102148496Y-57116223D02*
X102186591Y-57078128D01*
X102186591Y-57078128D02*
X102262782Y-57040032D01*
X102262782Y-57040032D02*
X102415163Y-57001937D01*
X102415163Y-57001937D02*
X102491353Y-56963842D01*
X102491353Y-56963842D02*
X102529448Y-56925747D01*
X102529448Y-56925747D02*
X102567544Y-56849556D01*
X102567544Y-56849556D02*
X102567544Y-56773366D01*
X102567544Y-56773366D02*
X102529448Y-56697175D01*
X102529448Y-56697175D02*
X102491353Y-56659080D01*
X102491353Y-56659080D02*
X102415163Y-56620985D01*
X102415163Y-56620985D02*
X102224686Y-56620985D01*
X102224686Y-56620985D02*
X102110401Y-56659080D01*
X101158019Y-57116223D02*
X100548496Y-57116223D01*
X99558019Y-57420985D02*
X99558019Y-56620985D01*
X99558019Y-56620985D02*
X99291353Y-57192413D01*
X99291353Y-57192413D02*
X99024686Y-56620985D01*
X99024686Y-56620985D02*
X99024686Y-57420985D01*
X98529448Y-57420985D02*
X98605638Y-57382890D01*
X98605638Y-57382890D02*
X98643733Y-57344794D01*
X98643733Y-57344794D02*
X98681829Y-57268604D01*
X98681829Y-57268604D02*
X98681829Y-57040032D01*
X98681829Y-57040032D02*
X98643733Y-56963842D01*
X98643733Y-56963842D02*
X98605638Y-56925747D01*
X98605638Y-56925747D02*
X98529448Y-56887651D01*
X98529448Y-56887651D02*
X98415162Y-56887651D01*
X98415162Y-56887651D02*
X98338971Y-56925747D01*
X98338971Y-56925747D02*
X98300876Y-56963842D01*
X98300876Y-56963842D02*
X98262781Y-57040032D01*
X98262781Y-57040032D02*
X98262781Y-57268604D01*
X98262781Y-57268604D02*
X98300876Y-57344794D01*
X98300876Y-57344794D02*
X98338971Y-57382890D01*
X98338971Y-57382890D02*
X98415162Y-57420985D01*
X98415162Y-57420985D02*
X98529448Y-57420985D01*
X97919923Y-57420985D02*
X97919923Y-56887651D01*
X97919923Y-56620985D02*
X97958019Y-56659080D01*
X97958019Y-56659080D02*
X97919923Y-56697175D01*
X97919923Y-56697175D02*
X97881828Y-56659080D01*
X97881828Y-56659080D02*
X97919923Y-56620985D01*
X97919923Y-56620985D02*
X97919923Y-56697175D01*
X97577067Y-57382890D02*
X97500876Y-57420985D01*
X97500876Y-57420985D02*
X97348495Y-57420985D01*
X97348495Y-57420985D02*
X97272305Y-57382890D01*
X97272305Y-57382890D02*
X97234209Y-57306699D01*
X97234209Y-57306699D02*
X97234209Y-57268604D01*
X97234209Y-57268604D02*
X97272305Y-57192413D01*
X97272305Y-57192413D02*
X97348495Y-57154318D01*
X97348495Y-57154318D02*
X97462781Y-57154318D01*
X97462781Y-57154318D02*
X97538971Y-57116223D01*
X97538971Y-57116223D02*
X97577067Y-57040032D01*
X97577067Y-57040032D02*
X97577067Y-57001937D01*
X97577067Y-57001937D02*
X97538971Y-56925747D01*
X97538971Y-56925747D02*
X97462781Y-56887651D01*
X97462781Y-56887651D02*
X97348495Y-56887651D01*
X97348495Y-56887651D02*
X97272305Y-56925747D01*
X97005638Y-56887651D02*
X96700876Y-56887651D01*
X96891352Y-56620985D02*
X96891352Y-57306699D01*
X96891352Y-57306699D02*
X96853257Y-57382890D01*
X96853257Y-57382890D02*
X96777067Y-57420985D01*
X96777067Y-57420985D02*
X96700876Y-57420985D01*
X96091352Y-56887651D02*
X96091352Y-57420985D01*
X96434209Y-56887651D02*
X96434209Y-57306699D01*
X96434209Y-57306699D02*
X96396114Y-57382890D01*
X96396114Y-57382890D02*
X96319924Y-57420985D01*
X96319924Y-57420985D02*
X96205638Y-57420985D01*
X96205638Y-57420985D02*
X96129447Y-57382890D01*
X96129447Y-57382890D02*
X96091352Y-57344794D01*
X95710399Y-57420985D02*
X95710399Y-56887651D01*
X95710399Y-57040032D02*
X95672304Y-56963842D01*
X95672304Y-56963842D02*
X95634209Y-56925747D01*
X95634209Y-56925747D02*
X95558018Y-56887651D01*
X95558018Y-56887651D02*
X95481828Y-56887651D01*
X94910399Y-57382890D02*
X94986590Y-57420985D01*
X94986590Y-57420985D02*
X95138971Y-57420985D01*
X95138971Y-57420985D02*
X95215161Y-57382890D01*
X95215161Y-57382890D02*
X95253257Y-57306699D01*
X95253257Y-57306699D02*
X95253257Y-57001937D01*
X95253257Y-57001937D02*
X95215161Y-56925747D01*
X95215161Y-56925747D02*
X95138971Y-56887651D01*
X95138971Y-56887651D02*
X94986590Y-56887651D01*
X94986590Y-56887651D02*
X94910399Y-56925747D01*
X94910399Y-56925747D02*
X94872304Y-57001937D01*
X94872304Y-57001937D02*
X94872304Y-57078128D01*
X94872304Y-57078128D02*
X95253257Y-57154318D01*
X93958019Y-57382890D02*
X93843733Y-57420985D01*
X93843733Y-57420985D02*
X93653257Y-57420985D01*
X93653257Y-57420985D02*
X93577066Y-57382890D01*
X93577066Y-57382890D02*
X93538971Y-57344794D01*
X93538971Y-57344794D02*
X93500876Y-57268604D01*
X93500876Y-57268604D02*
X93500876Y-57192413D01*
X93500876Y-57192413D02*
X93538971Y-57116223D01*
X93538971Y-57116223D02*
X93577066Y-57078128D01*
X93577066Y-57078128D02*
X93653257Y-57040032D01*
X93653257Y-57040032D02*
X93805638Y-57001937D01*
X93805638Y-57001937D02*
X93881828Y-56963842D01*
X93881828Y-56963842D02*
X93919923Y-56925747D01*
X93919923Y-56925747D02*
X93958019Y-56849556D01*
X93958019Y-56849556D02*
X93958019Y-56773366D01*
X93958019Y-56773366D02*
X93919923Y-56697175D01*
X93919923Y-56697175D02*
X93881828Y-56659080D01*
X93881828Y-56659080D02*
X93805638Y-56620985D01*
X93805638Y-56620985D02*
X93615161Y-56620985D01*
X93615161Y-56620985D02*
X93500876Y-56659080D01*
X92853256Y-57382890D02*
X92929447Y-57420985D01*
X92929447Y-57420985D02*
X93081828Y-57420985D01*
X93081828Y-57420985D02*
X93158018Y-57382890D01*
X93158018Y-57382890D02*
X93196114Y-57306699D01*
X93196114Y-57306699D02*
X93196114Y-57001937D01*
X93196114Y-57001937D02*
X93158018Y-56925747D01*
X93158018Y-56925747D02*
X93081828Y-56887651D01*
X93081828Y-56887651D02*
X92929447Y-56887651D01*
X92929447Y-56887651D02*
X92853256Y-56925747D01*
X92853256Y-56925747D02*
X92815161Y-57001937D01*
X92815161Y-57001937D02*
X92815161Y-57078128D01*
X92815161Y-57078128D02*
X93196114Y-57154318D01*
X92472304Y-56887651D02*
X92472304Y-57420985D01*
X92472304Y-56963842D02*
X92434209Y-56925747D01*
X92434209Y-56925747D02*
X92358019Y-56887651D01*
X92358019Y-56887651D02*
X92243733Y-56887651D01*
X92243733Y-56887651D02*
X92167542Y-56925747D01*
X92167542Y-56925747D02*
X92129447Y-57001937D01*
X92129447Y-57001937D02*
X92129447Y-57420985D01*
X91786590Y-57382890D02*
X91710399Y-57420985D01*
X91710399Y-57420985D02*
X91558018Y-57420985D01*
X91558018Y-57420985D02*
X91481828Y-57382890D01*
X91481828Y-57382890D02*
X91443732Y-57306699D01*
X91443732Y-57306699D02*
X91443732Y-57268604D01*
X91443732Y-57268604D02*
X91481828Y-57192413D01*
X91481828Y-57192413D02*
X91558018Y-57154318D01*
X91558018Y-57154318D02*
X91672304Y-57154318D01*
X91672304Y-57154318D02*
X91748494Y-57116223D01*
X91748494Y-57116223D02*
X91786590Y-57040032D01*
X91786590Y-57040032D02*
X91786590Y-57001937D01*
X91786590Y-57001937D02*
X91748494Y-56925747D01*
X91748494Y-56925747D02*
X91672304Y-56887651D01*
X91672304Y-56887651D02*
X91558018Y-56887651D01*
X91558018Y-56887651D02*
X91481828Y-56925747D01*
X90986590Y-57420985D02*
X91062780Y-57382890D01*
X91062780Y-57382890D02*
X91100875Y-57344794D01*
X91100875Y-57344794D02*
X91138971Y-57268604D01*
X91138971Y-57268604D02*
X91138971Y-57040032D01*
X91138971Y-57040032D02*
X91100875Y-56963842D01*
X91100875Y-56963842D02*
X91062780Y-56925747D01*
X91062780Y-56925747D02*
X90986590Y-56887651D01*
X90986590Y-56887651D02*
X90872304Y-56887651D01*
X90872304Y-56887651D02*
X90796113Y-56925747D01*
X90796113Y-56925747D02*
X90758018Y-56963842D01*
X90758018Y-56963842D02*
X90719923Y-57040032D01*
X90719923Y-57040032D02*
X90719923Y-57268604D01*
X90719923Y-57268604D02*
X90758018Y-57344794D01*
X90758018Y-57344794D02*
X90796113Y-57382890D01*
X90796113Y-57382890D02*
X90872304Y-57420985D01*
X90872304Y-57420985D02*
X90986590Y-57420985D01*
X90377065Y-57420985D02*
X90377065Y-56887651D01*
X90377065Y-57040032D02*
X90338970Y-56963842D01*
X90338970Y-56963842D02*
X90300875Y-56925747D01*
X90300875Y-56925747D02*
X90224684Y-56887651D01*
X90224684Y-56887651D02*
X90148494Y-56887651D01*
X103481830Y-58480368D02*
X103100877Y-58480368D01*
X103558020Y-58708940D02*
X103291353Y-57908940D01*
X103291353Y-57908940D02*
X103024687Y-58708940D01*
X102758020Y-58708940D02*
X102758020Y-57908940D01*
X102758020Y-57908940D02*
X102567544Y-57908940D01*
X102567544Y-57908940D02*
X102453258Y-57947035D01*
X102453258Y-57947035D02*
X102377068Y-58023225D01*
X102377068Y-58023225D02*
X102338973Y-58099416D01*
X102338973Y-58099416D02*
X102300877Y-58251797D01*
X102300877Y-58251797D02*
X102300877Y-58366083D01*
X102300877Y-58366083D02*
X102338973Y-58518464D01*
X102338973Y-58518464D02*
X102377068Y-58594654D01*
X102377068Y-58594654D02*
X102453258Y-58670845D01*
X102453258Y-58670845D02*
X102567544Y-58708940D01*
X102567544Y-58708940D02*
X102758020Y-58708940D01*
X101348496Y-58404178D02*
X100738973Y-58404178D01*
X99786592Y-58480368D02*
X99405639Y-58480368D01*
X99862782Y-58708940D02*
X99596115Y-57908940D01*
X99596115Y-57908940D02*
X99329449Y-58708940D01*
X99062782Y-58708940D02*
X99062782Y-57908940D01*
X99062782Y-57908940D02*
X98872306Y-57908940D01*
X98872306Y-57908940D02*
X98758020Y-57947035D01*
X98758020Y-57947035D02*
X98681830Y-58023225D01*
X98681830Y-58023225D02*
X98643735Y-58099416D01*
X98643735Y-58099416D02*
X98605639Y-58251797D01*
X98605639Y-58251797D02*
X98605639Y-58366083D01*
X98605639Y-58366083D02*
X98643735Y-58518464D01*
X98643735Y-58518464D02*
X98681830Y-58594654D01*
X98681830Y-58594654D02*
X98758020Y-58670845D01*
X98758020Y-58670845D02*
X98872306Y-58708940D01*
X98872306Y-58708940D02*
X99062782Y-58708940D01*
X97805639Y-58632749D02*
X97843735Y-58670845D01*
X97843735Y-58670845D02*
X97958020Y-58708940D01*
X97958020Y-58708940D02*
X98034211Y-58708940D01*
X98034211Y-58708940D02*
X98148497Y-58670845D01*
X98148497Y-58670845D02*
X98224687Y-58594654D01*
X98224687Y-58594654D02*
X98262782Y-58518464D01*
X98262782Y-58518464D02*
X98300878Y-58366083D01*
X98300878Y-58366083D02*
X98300878Y-58251797D01*
X98300878Y-58251797D02*
X98262782Y-58099416D01*
X98262782Y-58099416D02*
X98224687Y-58023225D01*
X98224687Y-58023225D02*
X98148497Y-57947035D01*
X98148497Y-57947035D02*
X98034211Y-57908940D01*
X98034211Y-57908940D02*
X97958020Y-57908940D01*
X97958020Y-57908940D02*
X97843735Y-57947035D01*
X97843735Y-57947035D02*
X97805639Y-57985130D01*
X103062782Y-59996895D02*
X103443734Y-59996895D01*
X103443734Y-59996895D02*
X103443734Y-59196895D01*
X102986592Y-60073085D02*
X102377068Y-60073085D01*
X101577067Y-59692133D02*
X100967544Y-59692133D01*
X99596115Y-59996895D02*
X99977067Y-59996895D01*
X99977067Y-59996895D02*
X99977067Y-59196895D01*
X98986591Y-59996895D02*
X98986591Y-59577847D01*
X98986591Y-59577847D02*
X99024686Y-59501657D01*
X99024686Y-59501657D02*
X99100877Y-59463561D01*
X99100877Y-59463561D02*
X99253258Y-59463561D01*
X99253258Y-59463561D02*
X99329448Y-59501657D01*
X98986591Y-59958800D02*
X99062782Y-59996895D01*
X99062782Y-59996895D02*
X99253258Y-59996895D01*
X99253258Y-59996895D02*
X99329448Y-59958800D01*
X99329448Y-59958800D02*
X99367544Y-59882609D01*
X99367544Y-59882609D02*
X99367544Y-59806419D01*
X99367544Y-59806419D02*
X99329448Y-59730228D01*
X99329448Y-59730228D02*
X99253258Y-59692133D01*
X99253258Y-59692133D02*
X99062782Y-59692133D01*
X99062782Y-59692133D02*
X98986591Y-59654038D01*
X98605638Y-59996895D02*
X98605638Y-59463561D01*
X98605638Y-59539752D02*
X98567543Y-59501657D01*
X98567543Y-59501657D02*
X98491353Y-59463561D01*
X98491353Y-59463561D02*
X98377067Y-59463561D01*
X98377067Y-59463561D02*
X98300876Y-59501657D01*
X98300876Y-59501657D02*
X98262781Y-59577847D01*
X98262781Y-59577847D02*
X98262781Y-59996895D01*
X98262781Y-59577847D02*
X98224686Y-59501657D01*
X98224686Y-59501657D02*
X98148495Y-59463561D01*
X98148495Y-59463561D02*
X98034210Y-59463561D01*
X98034210Y-59463561D02*
X97958019Y-59501657D01*
X97958019Y-59501657D02*
X97919924Y-59577847D01*
X97919924Y-59577847D02*
X97919924Y-59996895D01*
X97538971Y-59463561D02*
X97538971Y-60263561D01*
X97538971Y-59501657D02*
X97462781Y-59463561D01*
X97462781Y-59463561D02*
X97310400Y-59463561D01*
X97310400Y-59463561D02*
X97234209Y-59501657D01*
X97234209Y-59501657D02*
X97196114Y-59539752D01*
X97196114Y-59539752D02*
X97158019Y-59615942D01*
X97158019Y-59615942D02*
X97158019Y-59844514D01*
X97158019Y-59844514D02*
X97196114Y-59920704D01*
X97196114Y-59920704D02*
X97234209Y-59958800D01*
X97234209Y-59958800D02*
X97310400Y-59996895D01*
X97310400Y-59996895D02*
X97462781Y-59996895D01*
X97462781Y-59996895D02*
X97538971Y-59958800D01*
D11*
X154409101Y-91123116D02*
X154475768Y-91089783D01*
X154475768Y-91089783D02*
X154575768Y-91089783D01*
X154575768Y-91089783D02*
X154675768Y-91123116D01*
X154675768Y-91123116D02*
X154742435Y-91189783D01*
X154742435Y-91189783D02*
X154775768Y-91256450D01*
X154775768Y-91256450D02*
X154809101Y-91389783D01*
X154809101Y-91389783D02*
X154809101Y-91489783D01*
X154809101Y-91489783D02*
X154775768Y-91623116D01*
X154775768Y-91623116D02*
X154742435Y-91689783D01*
X154742435Y-91689783D02*
X154675768Y-91756450D01*
X154675768Y-91756450D02*
X154575768Y-91789783D01*
X154575768Y-91789783D02*
X154509101Y-91789783D01*
X154509101Y-91789783D02*
X154409101Y-91756450D01*
X154409101Y-91756450D02*
X154375768Y-91723116D01*
X154375768Y-91723116D02*
X154375768Y-91489783D01*
X154375768Y-91489783D02*
X154509101Y-91489783D01*
X154075768Y-91789783D02*
X154075768Y-91089783D01*
X154075768Y-91089783D02*
X153675768Y-91789783D01*
X153675768Y-91789783D02*
X153675768Y-91089783D01*
X153342435Y-91789783D02*
X153342435Y-91089783D01*
X153342435Y-91089783D02*
X153175768Y-91089783D01*
X153175768Y-91089783D02*
X153075768Y-91123116D01*
X153075768Y-91123116D02*
X153009102Y-91189783D01*
X153009102Y-91189783D02*
X152975768Y-91256450D01*
X152975768Y-91256450D02*
X152942435Y-91389783D01*
X152942435Y-91389783D02*
X152942435Y-91489783D01*
X152942435Y-91489783D02*
X152975768Y-91623116D01*
X152975768Y-91623116D02*
X153009102Y-91689783D01*
X153009102Y-91689783D02*
X153075768Y-91756450D01*
X153075768Y-91756450D02*
X153175768Y-91789783D01*
X153175768Y-91789783D02*
X153342435Y-91789783D01*
X152142435Y-91589783D02*
X151809102Y-91589783D01*
X152209102Y-91789783D02*
X151975769Y-91089783D01*
X151975769Y-91089783D02*
X151742435Y-91789783D01*
X151509102Y-91789783D02*
X151509102Y-91089783D01*
X151509102Y-91089783D02*
X151342435Y-91089783D01*
X151342435Y-91089783D02*
X151242435Y-91123116D01*
X151242435Y-91123116D02*
X151175769Y-91189783D01*
X151175769Y-91189783D02*
X151142435Y-91256450D01*
X151142435Y-91256450D02*
X151109102Y-91389783D01*
X151109102Y-91389783D02*
X151109102Y-91489783D01*
X151109102Y-91489783D02*
X151142435Y-91623116D01*
X151142435Y-91623116D02*
X151175769Y-91689783D01*
X151175769Y-91689783D02*
X151242435Y-91756450D01*
X151242435Y-91756450D02*
X151342435Y-91789783D01*
X151342435Y-91789783D02*
X151509102Y-91789783D01*
X150842435Y-91156450D02*
X150809102Y-91123116D01*
X150809102Y-91123116D02*
X150742435Y-91089783D01*
X150742435Y-91089783D02*
X150575769Y-91089783D01*
X150575769Y-91089783D02*
X150509102Y-91123116D01*
X150509102Y-91123116D02*
X150475769Y-91156450D01*
X150475769Y-91156450D02*
X150442435Y-91223116D01*
X150442435Y-91223116D02*
X150442435Y-91289783D01*
X150442435Y-91289783D02*
X150475769Y-91389783D01*
X150475769Y-91389783D02*
X150875769Y-91789783D01*
X150875769Y-91789783D02*
X150442435Y-91789783D01*
X150309102Y-91856450D02*
X149775768Y-91856450D01*
X149575769Y-91789783D02*
X149442435Y-91789783D01*
X149442435Y-91789783D02*
X149375769Y-91756450D01*
X149375769Y-91756450D02*
X149342435Y-91723116D01*
X149342435Y-91723116D02*
X149275769Y-91623116D01*
X149275769Y-91623116D02*
X149242435Y-91489783D01*
X149242435Y-91489783D02*
X149242435Y-91223116D01*
X149242435Y-91223116D02*
X149275769Y-91156450D01*
X149275769Y-91156450D02*
X149309102Y-91123116D01*
X149309102Y-91123116D02*
X149375769Y-91089783D01*
X149375769Y-91089783D02*
X149509102Y-91089783D01*
X149509102Y-91089783D02*
X149575769Y-91123116D01*
X149575769Y-91123116D02*
X149609102Y-91156450D01*
X149609102Y-91156450D02*
X149642435Y-91223116D01*
X149642435Y-91223116D02*
X149642435Y-91389783D01*
X149642435Y-91389783D02*
X149609102Y-91456450D01*
X149609102Y-91456450D02*
X149575769Y-91489783D01*
X149575769Y-91489783D02*
X149509102Y-91523116D01*
X149509102Y-91523116D02*
X149375769Y-91523116D01*
X149375769Y-91523116D02*
X149309102Y-91489783D01*
X149309102Y-91489783D02*
X149275769Y-91456450D01*
X149275769Y-91456450D02*
X149242435Y-91389783D01*
X148442435Y-91589783D02*
X148109102Y-91589783D01*
X148509102Y-91789783D02*
X148275769Y-91089783D01*
X148275769Y-91089783D02*
X148042435Y-91789783D01*
X147809102Y-91789783D02*
X147809102Y-91089783D01*
X147809102Y-91089783D02*
X147642435Y-91089783D01*
X147642435Y-91089783D02*
X147542435Y-91123116D01*
X147542435Y-91123116D02*
X147475769Y-91189783D01*
X147475769Y-91189783D02*
X147442435Y-91256450D01*
X147442435Y-91256450D02*
X147409102Y-91389783D01*
X147409102Y-91389783D02*
X147409102Y-91489783D01*
X147409102Y-91489783D02*
X147442435Y-91623116D01*
X147442435Y-91623116D02*
X147475769Y-91689783D01*
X147475769Y-91689783D02*
X147542435Y-91756450D01*
X147542435Y-91756450D02*
X147642435Y-91789783D01*
X147642435Y-91789783D02*
X147809102Y-91789783D01*
X146742435Y-91789783D02*
X147142435Y-91789783D01*
X146942435Y-91789783D02*
X146942435Y-91089783D01*
X146942435Y-91089783D02*
X147009102Y-91189783D01*
X147009102Y-91189783D02*
X147075769Y-91256450D01*
X147075769Y-91256450D02*
X147142435Y-91289783D01*
X146609102Y-91856450D02*
X146075768Y-91856450D01*
X145575769Y-91089783D02*
X145909102Y-91089783D01*
X145909102Y-91089783D02*
X145942435Y-91423116D01*
X145942435Y-91423116D02*
X145909102Y-91389783D01*
X145909102Y-91389783D02*
X145842435Y-91356450D01*
X145842435Y-91356450D02*
X145675769Y-91356450D01*
X145675769Y-91356450D02*
X145609102Y-91389783D01*
X145609102Y-91389783D02*
X145575769Y-91423116D01*
X145575769Y-91423116D02*
X145542435Y-91489783D01*
X145542435Y-91489783D02*
X145542435Y-91656450D01*
X145542435Y-91656450D02*
X145575769Y-91723116D01*
X145575769Y-91723116D02*
X145609102Y-91756450D01*
X145609102Y-91756450D02*
X145675769Y-91789783D01*
X145675769Y-91789783D02*
X145842435Y-91789783D01*
X145842435Y-91789783D02*
X145909102Y-91756450D01*
X145909102Y-91756450D02*
X145942435Y-91723116D01*
X144742435Y-91589783D02*
X144409102Y-91589783D01*
X144809102Y-91789783D02*
X144575769Y-91089783D01*
X144575769Y-91089783D02*
X144342435Y-91789783D01*
X144109102Y-91789783D02*
X144109102Y-91089783D01*
X144109102Y-91089783D02*
X143942435Y-91089783D01*
X143942435Y-91089783D02*
X143842435Y-91123116D01*
X143842435Y-91123116D02*
X143775769Y-91189783D01*
X143775769Y-91189783D02*
X143742435Y-91256450D01*
X143742435Y-91256450D02*
X143709102Y-91389783D01*
X143709102Y-91389783D02*
X143709102Y-91489783D01*
X143709102Y-91489783D02*
X143742435Y-91623116D01*
X143742435Y-91623116D02*
X143775769Y-91689783D01*
X143775769Y-91689783D02*
X143842435Y-91756450D01*
X143842435Y-91756450D02*
X143942435Y-91789783D01*
X143942435Y-91789783D02*
X144109102Y-91789783D01*
X143042435Y-91789783D02*
X143442435Y-91789783D01*
X143242435Y-91789783D02*
X143242435Y-91089783D01*
X143242435Y-91089783D02*
X143309102Y-91189783D01*
X143309102Y-91189783D02*
X143375769Y-91256450D01*
X143375769Y-91256450D02*
X143442435Y-91289783D01*
X142909102Y-91856450D02*
X142375768Y-91856450D01*
X142275769Y-91089783D02*
X141809102Y-91089783D01*
X141809102Y-91089783D02*
X142109102Y-91789783D01*
X162916666Y-105219283D02*
X163149999Y-104885950D01*
X163316666Y-105219283D02*
X163316666Y-104519283D01*
X163316666Y-104519283D02*
X163049999Y-104519283D01*
X163049999Y-104519283D02*
X162983333Y-104552616D01*
X162983333Y-104552616D02*
X162949999Y-104585950D01*
X162949999Y-104585950D02*
X162916666Y-104652616D01*
X162916666Y-104652616D02*
X162916666Y-104752616D01*
X162916666Y-104752616D02*
X162949999Y-104819283D01*
X162949999Y-104819283D02*
X162983333Y-104852616D01*
X162983333Y-104852616D02*
X163049999Y-104885950D01*
X163049999Y-104885950D02*
X163316666Y-104885950D01*
X162683333Y-104519283D02*
X162249999Y-104519283D01*
X162249999Y-104519283D02*
X162483333Y-104785950D01*
X162483333Y-104785950D02*
X162383333Y-104785950D01*
X162383333Y-104785950D02*
X162316666Y-104819283D01*
X162316666Y-104819283D02*
X162283333Y-104852616D01*
X162283333Y-104852616D02*
X162249999Y-104919283D01*
X162249999Y-104919283D02*
X162249999Y-105085950D01*
X162249999Y-105085950D02*
X162283333Y-105152616D01*
X162283333Y-105152616D02*
X162316666Y-105185950D01*
X162316666Y-105185950D02*
X162383333Y-105219283D01*
X162383333Y-105219283D02*
X162583333Y-105219283D01*
X162583333Y-105219283D02*
X162649999Y-105185950D01*
X162649999Y-105185950D02*
X162683333Y-105152616D01*
X190819283Y-96983333D02*
X190119283Y-96983333D01*
X190119283Y-96983333D02*
X190119283Y-97150000D01*
X190119283Y-97150000D02*
X190152616Y-97250000D01*
X190152616Y-97250000D02*
X190219283Y-97316667D01*
X190219283Y-97316667D02*
X190285950Y-97350000D01*
X190285950Y-97350000D02*
X190419283Y-97383333D01*
X190419283Y-97383333D02*
X190519283Y-97383333D01*
X190519283Y-97383333D02*
X190652616Y-97350000D01*
X190652616Y-97350000D02*
X190719283Y-97316667D01*
X190719283Y-97316667D02*
X190785950Y-97250000D01*
X190785950Y-97250000D02*
X190819283Y-97150000D01*
X190819283Y-97150000D02*
X190819283Y-96983333D01*
X190119283Y-98016667D02*
X190119283Y-97683333D01*
X190119283Y-97683333D02*
X190452616Y-97650000D01*
X190452616Y-97650000D02*
X190419283Y-97683333D01*
X190419283Y-97683333D02*
X190385950Y-97750000D01*
X190385950Y-97750000D02*
X190385950Y-97916667D01*
X190385950Y-97916667D02*
X190419283Y-97983333D01*
X190419283Y-97983333D02*
X190452616Y-98016667D01*
X190452616Y-98016667D02*
X190519283Y-98050000D01*
X190519283Y-98050000D02*
X190685950Y-98050000D01*
X190685950Y-98050000D02*
X190752616Y-98016667D01*
X190752616Y-98016667D02*
X190785950Y-97983333D01*
X190785950Y-97983333D02*
X190819283Y-97916667D01*
X190819283Y-97916667D02*
X190819283Y-97750000D01*
X190819283Y-97750000D02*
X190785950Y-97683333D01*
X190785950Y-97683333D02*
X190752616Y-97650000D01*
X96809783Y-72024231D02*
X96476450Y-71790898D01*
X96809783Y-71624231D02*
X96109783Y-71624231D01*
X96109783Y-71624231D02*
X96109783Y-71890898D01*
X96109783Y-71890898D02*
X96143116Y-71957565D01*
X96143116Y-71957565D02*
X96176450Y-71990898D01*
X96176450Y-71990898D02*
X96243116Y-72024231D01*
X96243116Y-72024231D02*
X96343116Y-72024231D01*
X96343116Y-72024231D02*
X96409783Y-71990898D01*
X96409783Y-71990898D02*
X96443116Y-71957565D01*
X96443116Y-71957565D02*
X96476450Y-71890898D01*
X96476450Y-71890898D02*
X96476450Y-71624231D01*
X96109783Y-72624231D02*
X96109783Y-72490898D01*
X96109783Y-72490898D02*
X96143116Y-72424231D01*
X96143116Y-72424231D02*
X96176450Y-72390898D01*
X96176450Y-72390898D02*
X96276450Y-72324231D01*
X96276450Y-72324231D02*
X96409783Y-72290898D01*
X96409783Y-72290898D02*
X96676450Y-72290898D01*
X96676450Y-72290898D02*
X96743116Y-72324231D01*
X96743116Y-72324231D02*
X96776450Y-72357565D01*
X96776450Y-72357565D02*
X96809783Y-72424231D01*
X96809783Y-72424231D02*
X96809783Y-72557565D01*
X96809783Y-72557565D02*
X96776450Y-72624231D01*
X96776450Y-72624231D02*
X96743116Y-72657565D01*
X96743116Y-72657565D02*
X96676450Y-72690898D01*
X96676450Y-72690898D02*
X96509783Y-72690898D01*
X96509783Y-72690898D02*
X96443116Y-72657565D01*
X96443116Y-72657565D02*
X96409783Y-72624231D01*
X96409783Y-72624231D02*
X96376450Y-72557565D01*
X96376450Y-72557565D02*
X96376450Y-72424231D01*
X96376450Y-72424231D02*
X96409783Y-72357565D01*
X96409783Y-72357565D02*
X96443116Y-72324231D01*
X96443116Y-72324231D02*
X96509783Y-72290898D01*
X87575768Y-66693116D02*
X87609101Y-66726450D01*
X87609101Y-66726450D02*
X87709101Y-66759783D01*
X87709101Y-66759783D02*
X87775768Y-66759783D01*
X87775768Y-66759783D02*
X87875768Y-66726450D01*
X87875768Y-66726450D02*
X87942435Y-66659783D01*
X87942435Y-66659783D02*
X87975768Y-66593116D01*
X87975768Y-66593116D02*
X88009101Y-66459783D01*
X88009101Y-66459783D02*
X88009101Y-66359783D01*
X88009101Y-66359783D02*
X87975768Y-66226450D01*
X87975768Y-66226450D02*
X87942435Y-66159783D01*
X87942435Y-66159783D02*
X87875768Y-66093116D01*
X87875768Y-66093116D02*
X87775768Y-66059783D01*
X87775768Y-66059783D02*
X87709101Y-66059783D01*
X87709101Y-66059783D02*
X87609101Y-66093116D01*
X87609101Y-66093116D02*
X87575768Y-66126450D01*
X86975768Y-66293116D02*
X86975768Y-66759783D01*
X87142435Y-66026450D02*
X87309101Y-66526450D01*
X87309101Y-66526450D02*
X86875768Y-66526450D01*
D12*
X102716666Y-106316553D02*
X102716666Y-105616553D01*
X102716666Y-105616553D02*
X102549999Y-105616553D01*
X102549999Y-105616553D02*
X102449999Y-105649886D01*
X102449999Y-105649886D02*
X102383333Y-105716553D01*
X102383333Y-105716553D02*
X102349999Y-105783220D01*
X102349999Y-105783220D02*
X102316666Y-105916553D01*
X102316666Y-105916553D02*
X102316666Y-106016553D01*
X102316666Y-106016553D02*
X102349999Y-106149886D01*
X102349999Y-106149886D02*
X102383333Y-106216553D01*
X102383333Y-106216553D02*
X102449999Y-106283220D01*
X102449999Y-106283220D02*
X102549999Y-106316553D01*
X102549999Y-106316553D02*
X102716666Y-106316553D01*
X102083333Y-105616553D02*
X101649999Y-105616553D01*
X101649999Y-105616553D02*
X101883333Y-105883220D01*
X101883333Y-105883220D02*
X101783333Y-105883220D01*
X101783333Y-105883220D02*
X101716666Y-105916553D01*
X101716666Y-105916553D02*
X101683333Y-105949886D01*
X101683333Y-105949886D02*
X101649999Y-106016553D01*
X101649999Y-106016553D02*
X101649999Y-106183220D01*
X101649999Y-106183220D02*
X101683333Y-106249886D01*
X101683333Y-106249886D02*
X101716666Y-106283220D01*
X101716666Y-106283220D02*
X101783333Y-106316553D01*
X101783333Y-106316553D02*
X101983333Y-106316553D01*
X101983333Y-106316553D02*
X102049999Y-106283220D01*
X102049999Y-106283220D02*
X102083333Y-106249886D01*
X111450000Y-96916553D02*
X111683333Y-96583220D01*
X111850000Y-96916553D02*
X111850000Y-96216553D01*
X111850000Y-96216553D02*
X111583333Y-96216553D01*
X111583333Y-96216553D02*
X111516667Y-96249886D01*
X111516667Y-96249886D02*
X111483333Y-96283220D01*
X111483333Y-96283220D02*
X111450000Y-96349886D01*
X111450000Y-96349886D02*
X111450000Y-96449886D01*
X111450000Y-96449886D02*
X111483333Y-96516553D01*
X111483333Y-96516553D02*
X111516667Y-96549886D01*
X111516667Y-96549886D02*
X111583333Y-96583220D01*
X111583333Y-96583220D02*
X111850000Y-96583220D01*
X110783333Y-96916553D02*
X111183333Y-96916553D01*
X110983333Y-96916553D02*
X110983333Y-96216553D01*
X110983333Y-96216553D02*
X111050000Y-96316553D01*
X111050000Y-96316553D02*
X111116667Y-96383220D01*
X111116667Y-96383220D02*
X111183333Y-96416553D01*
X110550000Y-96216553D02*
X110116666Y-96216553D01*
X110116666Y-96216553D02*
X110350000Y-96483220D01*
X110350000Y-96483220D02*
X110250000Y-96483220D01*
X110250000Y-96483220D02*
X110183333Y-96516553D01*
X110183333Y-96516553D02*
X110150000Y-96549886D01*
X110150000Y-96549886D02*
X110116666Y-96616553D01*
X110116666Y-96616553D02*
X110116666Y-96783220D01*
X110116666Y-96783220D02*
X110150000Y-96849886D01*
X110150000Y-96849886D02*
X110183333Y-96883220D01*
X110183333Y-96883220D02*
X110250000Y-96916553D01*
X110250000Y-96916553D02*
X110450000Y-96916553D01*
X110450000Y-96916553D02*
X110516666Y-96883220D01*
X110516666Y-96883220D02*
X110550000Y-96849886D01*
D11*
X116969283Y-81049999D02*
X116635950Y-80816666D01*
X116969283Y-80649999D02*
X116269283Y-80649999D01*
X116269283Y-80649999D02*
X116269283Y-80916666D01*
X116269283Y-80916666D02*
X116302616Y-80983333D01*
X116302616Y-80983333D02*
X116335950Y-81016666D01*
X116335950Y-81016666D02*
X116402616Y-81049999D01*
X116402616Y-81049999D02*
X116502616Y-81049999D01*
X116502616Y-81049999D02*
X116569283Y-81016666D01*
X116569283Y-81016666D02*
X116602616Y-80983333D01*
X116602616Y-80983333D02*
X116635950Y-80916666D01*
X116635950Y-80916666D02*
X116635950Y-80649999D01*
X116335950Y-81316666D02*
X116302616Y-81349999D01*
X116302616Y-81349999D02*
X116269283Y-81416666D01*
X116269283Y-81416666D02*
X116269283Y-81583333D01*
X116269283Y-81583333D02*
X116302616Y-81649999D01*
X116302616Y-81649999D02*
X116335950Y-81683333D01*
X116335950Y-81683333D02*
X116402616Y-81716666D01*
X116402616Y-81716666D02*
X116469283Y-81716666D01*
X116469283Y-81716666D02*
X116569283Y-81683333D01*
X116569283Y-81683333D02*
X116969283Y-81283333D01*
X116969283Y-81283333D02*
X116969283Y-81716666D01*
X116269283Y-81950000D02*
X116269283Y-82416666D01*
X116269283Y-82416666D02*
X116969283Y-82116666D01*
X87969283Y-70899999D02*
X87635950Y-70666666D01*
X87969283Y-70499999D02*
X87269283Y-70499999D01*
X87269283Y-70499999D02*
X87269283Y-70766666D01*
X87269283Y-70766666D02*
X87302616Y-70833333D01*
X87302616Y-70833333D02*
X87335950Y-70866666D01*
X87335950Y-70866666D02*
X87402616Y-70899999D01*
X87402616Y-70899999D02*
X87502616Y-70899999D01*
X87502616Y-70899999D02*
X87569283Y-70866666D01*
X87569283Y-70866666D02*
X87602616Y-70833333D01*
X87602616Y-70833333D02*
X87635950Y-70766666D01*
X87635950Y-70766666D02*
X87635950Y-70499999D01*
X87969283Y-71566666D02*
X87969283Y-71166666D01*
X87969283Y-71366666D02*
X87269283Y-71366666D01*
X87269283Y-71366666D02*
X87369283Y-71299999D01*
X87369283Y-71299999D02*
X87435950Y-71233333D01*
X87435950Y-71233333D02*
X87469283Y-71166666D01*
X87969283Y-72233333D02*
X87969283Y-71833333D01*
X87969283Y-72033333D02*
X87269283Y-72033333D01*
X87269283Y-72033333D02*
X87369283Y-71966666D01*
X87369283Y-71966666D02*
X87435950Y-71900000D01*
X87435950Y-71900000D02*
X87469283Y-71833333D01*
X92633333Y-72519283D02*
X92633333Y-73085950D01*
X92633333Y-73085950D02*
X92600000Y-73152616D01*
X92600000Y-73152616D02*
X92566666Y-73185950D01*
X92566666Y-73185950D02*
X92500000Y-73219283D01*
X92500000Y-73219283D02*
X92366666Y-73219283D01*
X92366666Y-73219283D02*
X92300000Y-73185950D01*
X92300000Y-73185950D02*
X92266666Y-73152616D01*
X92266666Y-73152616D02*
X92233333Y-73085950D01*
X92233333Y-73085950D02*
X92233333Y-72519283D01*
X91933333Y-72585950D02*
X91900000Y-72552616D01*
X91900000Y-72552616D02*
X91833333Y-72519283D01*
X91833333Y-72519283D02*
X91666667Y-72519283D01*
X91666667Y-72519283D02*
X91600000Y-72552616D01*
X91600000Y-72552616D02*
X91566667Y-72585950D01*
X91566667Y-72585950D02*
X91533333Y-72652616D01*
X91533333Y-72652616D02*
X91533333Y-72719283D01*
X91533333Y-72719283D02*
X91566667Y-72819283D01*
X91566667Y-72819283D02*
X91966667Y-73219283D01*
X91966667Y-73219283D02*
X91533333Y-73219283D01*
D12*
X102250000Y-98816553D02*
X102483333Y-98483220D01*
X102650000Y-98816553D02*
X102650000Y-98116553D01*
X102650000Y-98116553D02*
X102383333Y-98116553D01*
X102383333Y-98116553D02*
X102316667Y-98149886D01*
X102316667Y-98149886D02*
X102283333Y-98183220D01*
X102283333Y-98183220D02*
X102250000Y-98249886D01*
X102250000Y-98249886D02*
X102250000Y-98349886D01*
X102250000Y-98349886D02*
X102283333Y-98416553D01*
X102283333Y-98416553D02*
X102316667Y-98449886D01*
X102316667Y-98449886D02*
X102383333Y-98483220D01*
X102383333Y-98483220D02*
X102650000Y-98483220D01*
X101583333Y-98816553D02*
X101983333Y-98816553D01*
X101783333Y-98816553D02*
X101783333Y-98116553D01*
X101783333Y-98116553D02*
X101850000Y-98216553D01*
X101850000Y-98216553D02*
X101916667Y-98283220D01*
X101916667Y-98283220D02*
X101983333Y-98316553D01*
X100950000Y-98116553D02*
X101283333Y-98116553D01*
X101283333Y-98116553D02*
X101316666Y-98449886D01*
X101316666Y-98449886D02*
X101283333Y-98416553D01*
X101283333Y-98416553D02*
X101216666Y-98383220D01*
X101216666Y-98383220D02*
X101050000Y-98383220D01*
X101050000Y-98383220D02*
X100983333Y-98416553D01*
X100983333Y-98416553D02*
X100950000Y-98449886D01*
X100950000Y-98449886D02*
X100916666Y-98516553D01*
X100916666Y-98516553D02*
X100916666Y-98683220D01*
X100916666Y-98683220D02*
X100950000Y-98749886D01*
X100950000Y-98749886D02*
X100983333Y-98783220D01*
X100983333Y-98783220D02*
X101050000Y-98816553D01*
X101050000Y-98816553D02*
X101216666Y-98816553D01*
X101216666Y-98816553D02*
X101283333Y-98783220D01*
X101283333Y-98783220D02*
X101316666Y-98749886D01*
X106221666Y-102716553D02*
X106221666Y-102016553D01*
X106221666Y-102016553D02*
X106054999Y-102016553D01*
X106054999Y-102016553D02*
X105954999Y-102049886D01*
X105954999Y-102049886D02*
X105888333Y-102116553D01*
X105888333Y-102116553D02*
X105854999Y-102183220D01*
X105854999Y-102183220D02*
X105821666Y-102316553D01*
X105821666Y-102316553D02*
X105821666Y-102416553D01*
X105821666Y-102416553D02*
X105854999Y-102549886D01*
X105854999Y-102549886D02*
X105888333Y-102616553D01*
X105888333Y-102616553D02*
X105954999Y-102683220D01*
X105954999Y-102683220D02*
X106054999Y-102716553D01*
X106054999Y-102716553D02*
X106221666Y-102716553D01*
X105554999Y-102083220D02*
X105521666Y-102049886D01*
X105521666Y-102049886D02*
X105454999Y-102016553D01*
X105454999Y-102016553D02*
X105288333Y-102016553D01*
X105288333Y-102016553D02*
X105221666Y-102049886D01*
X105221666Y-102049886D02*
X105188333Y-102083220D01*
X105188333Y-102083220D02*
X105154999Y-102149886D01*
X105154999Y-102149886D02*
X105154999Y-102216553D01*
X105154999Y-102216553D02*
X105188333Y-102316553D01*
X105188333Y-102316553D02*
X105588333Y-102716553D01*
X105588333Y-102716553D02*
X105154999Y-102716553D01*
D11*
X88119283Y-75783333D02*
X87785950Y-75550000D01*
X88119283Y-75383333D02*
X87419283Y-75383333D01*
X87419283Y-75383333D02*
X87419283Y-75650000D01*
X87419283Y-75650000D02*
X87452616Y-75716667D01*
X87452616Y-75716667D02*
X87485950Y-75750000D01*
X87485950Y-75750000D02*
X87552616Y-75783333D01*
X87552616Y-75783333D02*
X87652616Y-75783333D01*
X87652616Y-75783333D02*
X87719283Y-75750000D01*
X87719283Y-75750000D02*
X87752616Y-75716667D01*
X87752616Y-75716667D02*
X87785950Y-75650000D01*
X87785950Y-75650000D02*
X87785950Y-75383333D01*
X88119283Y-76116667D02*
X88119283Y-76250000D01*
X88119283Y-76250000D02*
X88085950Y-76316667D01*
X88085950Y-76316667D02*
X88052616Y-76350000D01*
X88052616Y-76350000D02*
X87952616Y-76416667D01*
X87952616Y-76416667D02*
X87819283Y-76450000D01*
X87819283Y-76450000D02*
X87552616Y-76450000D01*
X87552616Y-76450000D02*
X87485950Y-76416667D01*
X87485950Y-76416667D02*
X87452616Y-76383333D01*
X87452616Y-76383333D02*
X87419283Y-76316667D01*
X87419283Y-76316667D02*
X87419283Y-76183333D01*
X87419283Y-76183333D02*
X87452616Y-76116667D01*
X87452616Y-76116667D02*
X87485950Y-76083333D01*
X87485950Y-76083333D02*
X87552616Y-76050000D01*
X87552616Y-76050000D02*
X87719283Y-76050000D01*
X87719283Y-76050000D02*
X87785950Y-76083333D01*
X87785950Y-76083333D02*
X87819283Y-76116667D01*
X87819283Y-76116667D02*
X87852616Y-76183333D01*
X87852616Y-76183333D02*
X87852616Y-76316667D01*
X87852616Y-76316667D02*
X87819283Y-76383333D01*
X87819283Y-76383333D02*
X87785950Y-76416667D01*
X87785950Y-76416667D02*
X87719283Y-76450000D01*
X86969283Y-70899999D02*
X86635950Y-70666666D01*
X86969283Y-70499999D02*
X86269283Y-70499999D01*
X86269283Y-70499999D02*
X86269283Y-70766666D01*
X86269283Y-70766666D02*
X86302616Y-70833333D01*
X86302616Y-70833333D02*
X86335950Y-70866666D01*
X86335950Y-70866666D02*
X86402616Y-70899999D01*
X86402616Y-70899999D02*
X86502616Y-70899999D01*
X86502616Y-70899999D02*
X86569283Y-70866666D01*
X86569283Y-70866666D02*
X86602616Y-70833333D01*
X86602616Y-70833333D02*
X86635950Y-70766666D01*
X86635950Y-70766666D02*
X86635950Y-70499999D01*
X86969283Y-71566666D02*
X86969283Y-71166666D01*
X86969283Y-71366666D02*
X86269283Y-71366666D01*
X86269283Y-71366666D02*
X86369283Y-71299999D01*
X86369283Y-71299999D02*
X86435950Y-71233333D01*
X86435950Y-71233333D02*
X86469283Y-71166666D01*
X86269283Y-72000000D02*
X86269283Y-72066666D01*
X86269283Y-72066666D02*
X86302616Y-72133333D01*
X86302616Y-72133333D02*
X86335950Y-72166666D01*
X86335950Y-72166666D02*
X86402616Y-72200000D01*
X86402616Y-72200000D02*
X86535950Y-72233333D01*
X86535950Y-72233333D02*
X86702616Y-72233333D01*
X86702616Y-72233333D02*
X86835950Y-72200000D01*
X86835950Y-72200000D02*
X86902616Y-72166666D01*
X86902616Y-72166666D02*
X86935950Y-72133333D01*
X86935950Y-72133333D02*
X86969283Y-72066666D01*
X86969283Y-72066666D02*
X86969283Y-72000000D01*
X86969283Y-72000000D02*
X86935950Y-71933333D01*
X86935950Y-71933333D02*
X86902616Y-71900000D01*
X86902616Y-71900000D02*
X86835950Y-71866666D01*
X86835950Y-71866666D02*
X86702616Y-71833333D01*
X86702616Y-71833333D02*
X86535950Y-71833333D01*
X86535950Y-71833333D02*
X86402616Y-71866666D01*
X86402616Y-71866666D02*
X86335950Y-71900000D01*
X86335950Y-71900000D02*
X86302616Y-71933333D01*
X86302616Y-71933333D02*
X86269283Y-72000000D01*
D13*
X120145238Y-81300057D02*
X120240476Y-81252438D01*
X120240476Y-81252438D02*
X120335714Y-81157200D01*
X120335714Y-81157200D02*
X120478571Y-81014342D01*
X120478571Y-81014342D02*
X120573809Y-80966723D01*
X120573809Y-80966723D02*
X120669047Y-80966723D01*
X120621428Y-81204819D02*
X120716666Y-81157200D01*
X120716666Y-81157200D02*
X120811904Y-81061961D01*
X120811904Y-81061961D02*
X120859523Y-80871485D01*
X120859523Y-80871485D02*
X120859523Y-80538152D01*
X120859523Y-80538152D02*
X120811904Y-80347676D01*
X120811904Y-80347676D02*
X120716666Y-80252438D01*
X120716666Y-80252438D02*
X120621428Y-80204819D01*
X120621428Y-80204819D02*
X120430952Y-80204819D01*
X120430952Y-80204819D02*
X120335714Y-80252438D01*
X120335714Y-80252438D02*
X120240476Y-80347676D01*
X120240476Y-80347676D02*
X120192857Y-80538152D01*
X120192857Y-80538152D02*
X120192857Y-80871485D01*
X120192857Y-80871485D02*
X120240476Y-81061961D01*
X120240476Y-81061961D02*
X120335714Y-81157200D01*
X120335714Y-81157200D02*
X120430952Y-81204819D01*
X120430952Y-81204819D02*
X120621428Y-81204819D01*
X119335714Y-80538152D02*
X119335714Y-81204819D01*
X119573809Y-80157200D02*
X119811904Y-80871485D01*
X119811904Y-80871485D02*
X119192857Y-80871485D01*
D12*
X102950000Y-105416553D02*
X103183333Y-105083220D01*
X103350000Y-105416553D02*
X103350000Y-104716553D01*
X103350000Y-104716553D02*
X103083333Y-104716553D01*
X103083333Y-104716553D02*
X103016667Y-104749886D01*
X103016667Y-104749886D02*
X102983333Y-104783220D01*
X102983333Y-104783220D02*
X102950000Y-104849886D01*
X102950000Y-104849886D02*
X102950000Y-104949886D01*
X102950000Y-104949886D02*
X102983333Y-105016553D01*
X102983333Y-105016553D02*
X103016667Y-105049886D01*
X103016667Y-105049886D02*
X103083333Y-105083220D01*
X103083333Y-105083220D02*
X103350000Y-105083220D01*
X102283333Y-105416553D02*
X102683333Y-105416553D01*
X102483333Y-105416553D02*
X102483333Y-104716553D01*
X102483333Y-104716553D02*
X102550000Y-104816553D01*
X102550000Y-104816553D02*
X102616667Y-104883220D01*
X102616667Y-104883220D02*
X102683333Y-104916553D01*
X101683333Y-104716553D02*
X101816666Y-104716553D01*
X101816666Y-104716553D02*
X101883333Y-104749886D01*
X101883333Y-104749886D02*
X101916666Y-104783220D01*
X101916666Y-104783220D02*
X101983333Y-104883220D01*
X101983333Y-104883220D02*
X102016666Y-105016553D01*
X102016666Y-105016553D02*
X102016666Y-105283220D01*
X102016666Y-105283220D02*
X101983333Y-105349886D01*
X101983333Y-105349886D02*
X101950000Y-105383220D01*
X101950000Y-105383220D02*
X101883333Y-105416553D01*
X101883333Y-105416553D02*
X101750000Y-105416553D01*
X101750000Y-105416553D02*
X101683333Y-105383220D01*
X101683333Y-105383220D02*
X101650000Y-105349886D01*
X101650000Y-105349886D02*
X101616666Y-105283220D01*
X101616666Y-105283220D02*
X101616666Y-105116553D01*
X101616666Y-105116553D02*
X101650000Y-105049886D01*
X101650000Y-105049886D02*
X101683333Y-105016553D01*
X101683333Y-105016553D02*
X101750000Y-104983220D01*
X101750000Y-104983220D02*
X101883333Y-104983220D01*
X101883333Y-104983220D02*
X101950000Y-105016553D01*
X101950000Y-105016553D02*
X101983333Y-105049886D01*
X101983333Y-105049886D02*
X102016666Y-105116553D01*
D13*
X90138164Y-99354863D02*
X90138164Y-98354769D01*
X89566682Y-99354863D02*
X89995293Y-98783381D01*
X89566682Y-98354769D02*
X90138164Y-98926251D01*
X88614211Y-99354863D02*
X89185693Y-99354863D01*
X88899952Y-99354863D02*
X88899952Y-98354769D01*
X88899952Y-98354769D02*
X88995199Y-98497640D01*
X88995199Y-98497640D02*
X89090446Y-98592887D01*
X89090446Y-98592887D02*
X89185693Y-98640510D01*
D12*
X104350000Y-98816553D02*
X104583333Y-98483220D01*
X104750000Y-98816553D02*
X104750000Y-98116553D01*
X104750000Y-98116553D02*
X104483333Y-98116553D01*
X104483333Y-98116553D02*
X104416667Y-98149886D01*
X104416667Y-98149886D02*
X104383333Y-98183220D01*
X104383333Y-98183220D02*
X104350000Y-98249886D01*
X104350000Y-98249886D02*
X104350000Y-98349886D01*
X104350000Y-98349886D02*
X104383333Y-98416553D01*
X104383333Y-98416553D02*
X104416667Y-98449886D01*
X104416667Y-98449886D02*
X104483333Y-98483220D01*
X104483333Y-98483220D02*
X104750000Y-98483220D01*
X103683333Y-98816553D02*
X104083333Y-98816553D01*
X103883333Y-98816553D02*
X103883333Y-98116553D01*
X103883333Y-98116553D02*
X103950000Y-98216553D01*
X103950000Y-98216553D02*
X104016667Y-98283220D01*
X104016667Y-98283220D02*
X104083333Y-98316553D01*
X103083333Y-98349886D02*
X103083333Y-98816553D01*
X103250000Y-98083220D02*
X103416666Y-98583220D01*
X103416666Y-98583220D02*
X102983333Y-98583220D01*
D13*
X105961904Y-95054819D02*
X105961904Y-95864342D01*
X105961904Y-95864342D02*
X105914285Y-95959580D01*
X105914285Y-95959580D02*
X105866666Y-96007200D01*
X105866666Y-96007200D02*
X105771428Y-96054819D01*
X105771428Y-96054819D02*
X105580952Y-96054819D01*
X105580952Y-96054819D02*
X105485714Y-96007200D01*
X105485714Y-96007200D02*
X105438095Y-95959580D01*
X105438095Y-95959580D02*
X105390476Y-95864342D01*
X105390476Y-95864342D02*
X105390476Y-95054819D01*
X104390476Y-96054819D02*
X104961904Y-96054819D01*
X104676190Y-96054819D02*
X104676190Y-95054819D01*
X104676190Y-95054819D02*
X104771428Y-95197676D01*
X104771428Y-95197676D02*
X104866666Y-95292914D01*
X104866666Y-95292914D02*
X104961904Y-95340533D01*
D12*
X106155000Y-100516553D02*
X106388333Y-100183220D01*
X106555000Y-100516553D02*
X106555000Y-99816553D01*
X106555000Y-99816553D02*
X106288333Y-99816553D01*
X106288333Y-99816553D02*
X106221667Y-99849886D01*
X106221667Y-99849886D02*
X106188333Y-99883220D01*
X106188333Y-99883220D02*
X106155000Y-99949886D01*
X106155000Y-99949886D02*
X106155000Y-100049886D01*
X106155000Y-100049886D02*
X106188333Y-100116553D01*
X106188333Y-100116553D02*
X106221667Y-100149886D01*
X106221667Y-100149886D02*
X106288333Y-100183220D01*
X106288333Y-100183220D02*
X106555000Y-100183220D01*
X105488333Y-100516553D02*
X105888333Y-100516553D01*
X105688333Y-100516553D02*
X105688333Y-99816553D01*
X105688333Y-99816553D02*
X105755000Y-99916553D01*
X105755000Y-99916553D02*
X105821667Y-99983220D01*
X105821667Y-99983220D02*
X105888333Y-100016553D01*
X105221666Y-99883220D02*
X105188333Y-99849886D01*
X105188333Y-99849886D02*
X105121666Y-99816553D01*
X105121666Y-99816553D02*
X104955000Y-99816553D01*
X104955000Y-99816553D02*
X104888333Y-99849886D01*
X104888333Y-99849886D02*
X104855000Y-99883220D01*
X104855000Y-99883220D02*
X104821666Y-99949886D01*
X104821666Y-99949886D02*
X104821666Y-100016553D01*
X104821666Y-100016553D02*
X104855000Y-100116553D01*
X104855000Y-100116553D02*
X105255000Y-100516553D01*
X105255000Y-100516553D02*
X104821666Y-100516553D01*
%LPC*%
D14*
%TO.C,J20*%
X144995000Y-95800000D03*
D15*
X144995000Y-93260000D03*
X147535000Y-95800000D03*
X147535000Y-93260000D03*
X150075000Y-95800000D03*
X150075000Y-93260000D03*
X152615000Y-95800000D03*
X152615000Y-93260000D03*
%TD*%
D16*
%TO.C,J30*%
X121745000Y-72327500D03*
D17*
X116665000Y-72327500D03*
%TD*%
D14*
%TO.C,J1*%
X160200000Y-108810000D03*
D15*
X160200000Y-106270000D03*
X160200000Y-103730000D03*
X160200000Y-101190000D03*
%TD*%
D18*
%TO.C,REF\u002A\u002A*%
X68300000Y-56750000D03*
%TD*%
%TO.C,REF\u002A\u002A*%
X206900000Y-56150000D03*
%TD*%
D19*
%TO.C,J4*%
X73550000Y-65800000D03*
D17*
X73550000Y-70880000D03*
X73550000Y-75960000D03*
X73550000Y-81040000D03*
%TD*%
D14*
%TO.C,J16*%
X173100000Y-101330000D03*
D15*
X173100000Y-103870000D03*
X173100000Y-106410000D03*
X173100000Y-108950000D03*
%TD*%
D14*
%TO.C,J11*%
X94655000Y-80725000D03*
D15*
X94655000Y-78185000D03*
%TD*%
D14*
%TO.C,J8*%
X145145000Y-56100000D03*
D15*
X145145000Y-58640000D03*
X142605000Y-56100000D03*
X142605000Y-58640000D03*
X140065000Y-56100000D03*
X140065000Y-58640000D03*
X137525000Y-56100000D03*
X137525000Y-58640000D03*
%TD*%
D14*
%TO.C,J27*%
X118405000Y-94400000D03*
%TD*%
%TO.C,J22*%
X119726250Y-100230000D03*
D15*
X119726250Y-102770000D03*
X119726250Y-105310000D03*
X119726250Y-107850000D03*
%TD*%
D20*
%TO.C,D4*%
X95515000Y-108800000D03*
D21*
X87895000Y-108800000D03*
%TD*%
D18*
%TO.C,REF\u002A\u002A*%
X68350000Y-115000000D03*
%TD*%
D14*
%TO.C,J29*%
X173960000Y-92300000D03*
D15*
X176500000Y-92300000D03*
%TD*%
D14*
%TO.C,J3*%
X81355000Y-76970000D03*
D15*
X81355000Y-74430000D03*
X81355000Y-71890000D03*
X81355000Y-69350000D03*
%TD*%
D14*
%TO.C,J26*%
X184550000Y-103210000D03*
%TD*%
D22*
%TO.C,K2*%
X186750000Y-85410000D03*
D23*
X198750000Y-85410000D03*
D24*
X192750000Y-87410000D03*
D23*
X186750000Y-73210000D03*
X198750000Y-73210000D03*
%TD*%
D14*
%TO.C,J2*%
X99388800Y-70115000D03*
D15*
X99388800Y-72655000D03*
X99388800Y-75195000D03*
X99388800Y-77735000D03*
%TD*%
D14*
%TO.C,J5*%
X197825000Y-112900000D03*
D15*
X200365000Y-112900000D03*
%TD*%
D14*
%TO.C,J24*%
X163140000Y-58000000D03*
D15*
X160600000Y-58000000D03*
X158060000Y-58000000D03*
%TD*%
D14*
%TO.C,J9*%
X202950000Y-91210000D03*
D15*
X202950000Y-93750000D03*
X202950000Y-96290000D03*
%TD*%
D18*
%TO.C,REF\u002A\u002A*%
X206750000Y-114950000D03*
%TD*%
D14*
%TO.C,J25*%
X132565000Y-92200000D03*
D15*
X135105000Y-92200000D03*
X137645000Y-92200000D03*
%TD*%
D14*
%TO.C,J14*%
X108305000Y-105040000D03*
D15*
X108305000Y-102500000D03*
X108305000Y-99960000D03*
%TD*%
D14*
%TO.C,J12*%
X194950000Y-100110000D03*
D15*
X197490000Y-100110000D03*
X200030000Y-100110000D03*
%TD*%
D14*
%TO.C,J17*%
X197860000Y-107800000D03*
D15*
X200400000Y-107800000D03*
X202940000Y-107800000D03*
%TD*%
D14*
%TO.C,J21*%
X105695000Y-83100000D03*
D15*
X108235000Y-83100000D03*
X110775000Y-83100000D03*
X113315000Y-83100000D03*
%TD*%
D19*
%TO.C,J6*%
X73232500Y-98215000D03*
D17*
X73232500Y-103295000D03*
X73232500Y-108375000D03*
%TD*%
D14*
%TO.C,J7*%
X102205000Y-91300000D03*
D15*
X104745000Y-91300000D03*
X107285000Y-91300000D03*
%TD*%
D25*
%TO.C,J18*%
X144855000Y-109472500D03*
D17*
X149935000Y-109472500D03*
%TD*%
D14*
%TO.C,J28*%
X168050000Y-58050000D03*
%TD*%
D26*
%TO.C,U3*%
X176080000Y-63320000D03*
X129130000Y-63320000D03*
X176080000Y-87830000D03*
X129130000Y-87830000D03*
D27*
X168120000Y-62900000D03*
D28*
X165580000Y-62900000D03*
X163040000Y-62900000D03*
X160500000Y-62900000D03*
X157960000Y-62900000D03*
X155420000Y-62900000D03*
X152880000Y-62900000D03*
X150340000Y-62900000D03*
X147800000Y-62900000D03*
X145260000Y-62900000D03*
X142720000Y-62900000D03*
X140180000Y-62900000D03*
X137640000Y-62900000D03*
X135100000Y-62900000D03*
X132560000Y-62900000D03*
X132560000Y-88300000D03*
X135100000Y-88300000D03*
X137640000Y-88300000D03*
X140180000Y-88300000D03*
X142720000Y-88300000D03*
X145260000Y-88300000D03*
X147800000Y-88300000D03*
X150340000Y-88300000D03*
X152880000Y-88300000D03*
X155420000Y-88300000D03*
X157960000Y-88300000D03*
X160500000Y-88300000D03*
X163040000Y-88300000D03*
X165580000Y-88300000D03*
X168120000Y-88300000D03*
%TD*%
D29*
%TO.C,D7*%
X187750000Y-90784999D03*
D21*
X187750000Y-98404999D03*
%TD*%
D30*
%TO.C,K1*%
X95505000Y-104900000D03*
D23*
X95505000Y-92900000D03*
D24*
X97505000Y-98900000D03*
D23*
X83305000Y-104900000D03*
X83305000Y-92900000D03*
%TD*%
D14*
%TO.C,J15*%
X77105000Y-92900000D03*
D15*
X74565000Y-92900000D03*
X72025000Y-92900000D03*
%TD*%
D14*
%TO.C,J13*%
X202650000Y-73110000D03*
D15*
X202650000Y-75650000D03*
X202650000Y-78190000D03*
%TD*%
D31*
%TO.C,Q1*%
X100865000Y-102600000D03*
D32*
X102135000Y-101330000D03*
X103405000Y-102600000D03*
%TD*%
D14*
%TO.C,J23*%
X157605000Y-93800000D03*
%TD*%
D16*
%TO.C,J10*%
X200300000Y-63450000D03*
D17*
X195220000Y-63450000D03*
X190140000Y-63450000D03*
%TD*%
D33*
%TO.C,J19*%
X134340000Y-100272500D03*
D34*
X134340000Y-106572500D03*
D35*
X139140000Y-103172500D03*
%TD*%
D31*
%TO.C,Q2*%
X191580000Y-91114999D03*
D32*
X192850000Y-92384999D03*
X191580000Y-93654999D03*
%TD*%
%LPD*%
M02*
